<?xml version="1.0" encoding="utf-8"?>
<svg xmlns="http://www.w3.org/2000/svg" xmlns:xlink="http://www.w3.org/1999/xlink" width="1200" height="300" viewBox="0 0 4800 1200">
<defs>
  <clipPath id="clip530">
    <rect x="0" y="0" width="4800" height="1200"/>
  </clipPath>
</defs>
<path clip-path="url(#clip530)" d="M0 1200 L4800 1200 L4800 0 L0 0  Z" fill="#ffffff" fill-rule="evenodd" fill-opacity="1"/>
<defs>
  <clipPath id="clip531">
    <rect x="960" y="0" width="3361" height="1200"/>
  </clipPath>
</defs>
<path clip-path="url(#clip530)" d="M537.894 880.951 L4752.76 880.951 L4752.76 47.2441 L537.894 47.2441  Z" fill="#ffffff" fill-rule="evenodd" fill-opacity="1"/>
<defs>
  <clipPath id="clip532">
    <rect x="537" y="47" width="4216" height="835"/>
  </clipPath>
</defs>
<polyline clip-path="url(#clip532)" style="stroke:#000000; stroke-linecap:round; stroke-linejoin:round; stroke-width:2; stroke-opacity:0.1; fill:none" points="1082.55,880.951 1082.55,47.2441 "/>
<polyline clip-path="url(#clip532)" style="stroke:#000000; stroke-linecap:round; stroke-linejoin:round; stroke-width:2; stroke-opacity:0.1; fill:none" points="1970.28,880.951 1970.28,47.2441 "/>
<polyline clip-path="url(#clip532)" style="stroke:#000000; stroke-linecap:round; stroke-linejoin:round; stroke-width:2; stroke-opacity:0.1; fill:none" points="2858.01,880.951 2858.01,47.2441 "/>
<polyline clip-path="url(#clip532)" style="stroke:#000000; stroke-linecap:round; stroke-linejoin:round; stroke-width:2; stroke-opacity:0.1; fill:none" points="3745.74,880.951 3745.74,47.2441 "/>
<polyline clip-path="url(#clip532)" style="stroke:#000000; stroke-linecap:round; stroke-linejoin:round; stroke-width:2; stroke-opacity:0.1; fill:none" points="4633.47,880.951 4633.47,47.2441 "/>
<polyline clip-path="url(#clip530)" style="stroke:#000000; stroke-linecap:round; stroke-linejoin:round; stroke-width:4; stroke-opacity:1; fill:none" points="537.894,880.951 4752.76,880.951 "/>
<polyline clip-path="url(#clip530)" style="stroke:#000000; stroke-linecap:round; stroke-linejoin:round; stroke-width:4; stroke-opacity:1; fill:none" points="1082.55,880.951 1082.55,862.054 "/>
<polyline clip-path="url(#clip530)" style="stroke:#000000; stroke-linecap:round; stroke-linejoin:round; stroke-width:4; stroke-opacity:1; fill:none" points="1970.28,880.951 1970.28,862.054 "/>
<polyline clip-path="url(#clip530)" style="stroke:#000000; stroke-linecap:round; stroke-linejoin:round; stroke-width:4; stroke-opacity:1; fill:none" points="2858.01,880.951 2858.01,862.054 "/>
<polyline clip-path="url(#clip530)" style="stroke:#000000; stroke-linecap:round; stroke-linejoin:round; stroke-width:4; stroke-opacity:1; fill:none" points="3745.74,880.951 3745.74,862.054 "/>
<polyline clip-path="url(#clip530)" style="stroke:#000000; stroke-linecap:round; stroke-linejoin:round; stroke-width:4; stroke-opacity:1; fill:none" points="4633.47,880.951 4633.47,862.054 "/>
<path clip-path="url(#clip530)" d="M1071.86 997.881 L1104.5 997.881 L1104.5 1005.75 L1060.61 1005.75 L1060.61 997.881 Q1065.93 992.372 1075.1 983.113 Q1084.31 973.807 1086.67 971.122 Q1091.16 966.076 1092.92 962.604 Q1094.73 959.085 1094.73 955.705 Q1094.73 950.196 1090.84 946.724 Q1087 943.252 1080.79 943.252 Q1076.4 943.252 1071.49 944.78 Q1066.63 946.307 1061.07 949.409 L1061.07 939.965 Q1066.72 937.696 1071.63 936.539 Q1076.53 935.382 1080.61 935.382 Q1091.35 935.382 1097.74 940.752 Q1104.13 946.122 1104.13 955.104 Q1104.13 959.363 1102.51 963.205 Q1100.93 967.002 1096.72 972.187 Q1095.56 973.529 1089.36 979.965 Q1083.15 986.353 1071.86 997.881 Z" fill="#000000" fill-rule="nonzero" fill-opacity="1" /><path clip-path="url(#clip530)" d="M1976.3 944.78 L1952.69 981.678 L1976.3 981.678 L1976.3 944.78 M1973.85 936.631 L1985.61 936.631 L1985.61 981.678 L1995.47 981.678 L1995.47 989.455 L1985.61 989.455 L1985.61 1005.75 L1976.3 1005.75 L1976.3 989.455 L1945.1 989.455 L1945.1 980.428 L1973.85 936.631 Z" fill="#000000" fill-rule="nonzero" fill-opacity="1" /><path clip-path="url(#clip530)" d="M2858.82 967.465 Q2852.52 967.465 2848.82 971.77 Q2845.16 976.076 2845.16 983.576 Q2845.16 991.029 2848.82 995.381 Q2852.52 999.687 2858.82 999.687 Q2865.12 999.687 2868.77 995.381 Q2872.48 991.029 2872.48 983.576 Q2872.48 976.076 2868.77 971.77 Q2865.12 967.465 2858.82 967.465 M2877.38 938.159 L2877.38 946.678 Q2873.87 945.011 2870.26 944.131 Q2866.69 943.252 2863.17 943.252 Q2853.91 943.252 2849.01 949.502 Q2844.14 955.752 2843.45 968.391 Q2846.18 964.363 2850.3 962.233 Q2854.42 960.057 2859.38 960.057 Q2869.79 960.057 2875.81 966.4 Q2881.88 972.696 2881.88 983.576 Q2881.88 994.224 2875.58 1000.66 Q2869.28 1007.09 2858.82 1007.09 Q2846.83 1007.09 2840.49 997.927 Q2834.14 988.715 2834.14 971.261 Q2834.14 954.872 2841.92 945.15 Q2849.7 935.382 2862.8 935.382 Q2866.32 935.382 2869.88 936.076 Q2873.5 936.77 2877.38 938.159 Z" fill="#000000" fill-rule="nonzero" fill-opacity="1" /><path clip-path="url(#clip530)" d="M3745.74 972.928 Q3739.07 972.928 3735.23 976.492 Q3731.43 980.057 3731.43 986.307 Q3731.43 992.557 3735.23 996.122 Q3739.07 999.687 3745.74 999.687 Q3752.41 999.687 3756.25 996.122 Q3760.09 992.511 3760.09 986.307 Q3760.09 980.057 3756.25 976.492 Q3752.45 972.928 3745.74 972.928 M3736.39 968.946 Q3730.37 967.465 3726.99 963.344 Q3723.66 959.224 3723.66 953.298 Q3723.66 945.011 3729.54 940.196 Q3735.46 935.382 3745.74 935.382 Q3756.06 935.382 3761.94 940.196 Q3767.82 945.011 3767.82 953.298 Q3767.82 959.224 3764.44 963.344 Q3761.11 967.465 3755.14 968.946 Q3761.9 970.52 3765.65 975.104 Q3769.44 979.687 3769.44 986.307 Q3769.44 996.353 3763.28 1001.72 Q3757.17 1007.09 3745.74 1007.09 Q3734.3 1007.09 3728.15 1001.72 Q3722.04 996.353 3722.04 986.307 Q3722.04 979.687 3725.83 975.104 Q3729.63 970.52 3736.39 968.946 M3732.96 954.178 Q3732.96 959.548 3736.29 962.557 Q3739.67 965.567 3745.74 965.567 Q3751.76 965.567 3755.14 962.557 Q3758.56 959.548 3758.56 954.178 Q3758.56 948.807 3755.14 945.798 Q3751.76 942.789 3745.74 942.789 Q3739.67 942.789 3736.29 945.798 Q3732.96 948.807 3732.96 954.178 Z" fill="#000000" fill-rule="nonzero" fill-opacity="1" /><path clip-path="url(#clip530)" d="M4582.84 997.881 L4598.12 997.881 L4598.12 945.15 L4581.5 948.483 L4581.5 939.965 L4598.03 936.631 L4607.38 936.631 L4607.38 997.881 L4622.66 997.881 L4622.66 1005.75 L4582.84 1005.75 L4582.84 997.881 Z" fill="#000000" fill-rule="nonzero" fill-opacity="1" /><path clip-path="url(#clip530)" d="M4661.55 942.789 Q4654.32 942.789 4650.67 949.918 Q4647.06 957.002 4647.06 971.261 Q4647.06 985.474 4650.67 992.603 Q4654.32 999.687 4661.55 999.687 Q4668.81 999.687 4672.43 992.603 Q4676.08 985.474 4676.08 971.261 Q4676.08 957.002 4672.43 949.918 Q4668.81 942.789 4661.55 942.789 M4661.55 935.382 Q4673.17 935.382 4679.28 944.594 Q4685.43 953.761 4685.43 971.261 Q4685.43 988.715 4679.28 997.927 Q4673.17 1007.09 4661.55 1007.09 Q4649.93 1007.09 4643.77 997.927 Q4637.66 988.715 4637.66 971.261 Q4637.66 953.761 4643.77 944.594 Q4649.93 935.382 4661.55 935.382 Z" fill="#000000" fill-rule="nonzero" fill-opacity="1" /><path clip-path="url(#clip530)" d="M2362.57 1072.18 L2428.35 1072.18 L2428.35 1081.04 L2400.74 1081.04 L2400.74 1149.94 L2390.17 1149.94 L2390.17 1081.04 L2362.57 1081.04 L2362.57 1072.18 Z" fill="#000000" fill-rule="nonzero" fill-opacity="1" /><path clip-path="url(#clip530)" d="M2434.81 1091.61 L2444.39 1091.61 L2444.39 1149.94 L2434.81 1149.94 L2434.81 1091.61 M2434.81 1068.9 L2444.39 1068.9 L2444.39 1081.04 L2434.81 1081.04 L2434.81 1068.9 Z" fill="#000000" fill-rule="nonzero" fill-opacity="1" /><path clip-path="url(#clip530)" d="M2509.86 1102.81 Q2513.45 1096.35 2518.45 1093.28 Q2523.45 1090.2 2530.22 1090.2 Q2539.34 1090.2 2544.28 1096.61 Q2549.23 1102.96 2549.23 1114.74 L2549.23 1149.94 L2539.6 1149.94 L2539.6 1115.05 Q2539.6 1106.66 2536.63 1102.6 Q2533.66 1098.54 2527.57 1098.54 Q2520.12 1098.54 2515.79 1103.49 Q2511.47 1108.43 2511.47 1116.97 L2511.47 1149.94 L2501.84 1149.94 L2501.84 1115.05 Q2501.84 1106.61 2498.87 1102.6 Q2495.9 1098.54 2489.7 1098.54 Q2482.36 1098.54 2478.03 1103.54 Q2473.71 1108.49 2473.71 1116.97 L2473.71 1149.94 L2464.08 1149.94 L2464.08 1091.61 L2473.71 1091.61 L2473.71 1100.67 Q2476.99 1095.31 2481.58 1092.76 Q2486.16 1090.2 2492.46 1090.2 Q2498.82 1090.2 2503.24 1093.43 Q2507.72 1096.66 2509.86 1102.81 Z" fill="#000000" fill-rule="nonzero" fill-opacity="1" /><path clip-path="url(#clip530)" d="M2618.24 1118.38 L2618.24 1123.07 L2574.18 1123.07 Q2574.8 1132.96 2580.12 1138.17 Q2585.48 1143.33 2595.01 1143.33 Q2600.53 1143.33 2605.69 1141.97 Q2610.9 1140.62 2616 1137.91 L2616 1146.97 Q2610.85 1149.16 2605.43 1150.31 Q2600.01 1151.45 2594.44 1151.45 Q2580.48 1151.45 2572.3 1143.33 Q2564.18 1135.2 2564.18 1121.35 Q2564.18 1107.03 2571.89 1098.64 Q2579.65 1090.2 2592.77 1090.2 Q2604.54 1090.2 2611.37 1097.81 Q2618.24 1105.36 2618.24 1118.38 M2608.66 1115.57 Q2608.55 1107.7 2604.23 1103.02 Q2599.96 1098.33 2592.88 1098.33 Q2584.86 1098.33 2580.01 1102.86 Q2575.22 1107.39 2574.49 1115.62 L2608.66 1115.57 Z" fill="#000000" fill-rule="nonzero" fill-opacity="1" /><path clip-path="url(#clip530)" d="M2690.9 1069.01 Q2683.92 1080.99 2680.53 1092.7 Q2677.15 1104.42 2677.15 1116.45 Q2677.15 1128.49 2680.53 1140.31 Q2683.97 1152.08 2690.9 1164.01 L2682.56 1164.01 Q2674.75 1151.77 2670.85 1139.94 Q2666.99 1128.12 2666.99 1116.45 Q2666.99 1104.84 2670.85 1093.07 Q2674.7 1081.3 2682.56 1069.01 L2690.9 1069.01 Z" fill="#000000" fill-rule="nonzero" fill-opacity="1" /><path clip-path="url(#clip530)" d="M2747.88 1100.46 L2747.88 1068.9 L2757.46 1068.9 L2757.46 1149.94 L2747.88 1149.94 L2747.88 1141.19 Q2744.86 1146.4 2740.22 1148.95 Q2735.64 1151.45 2729.18 1151.45 Q2718.61 1151.45 2711.94 1143.02 Q2705.32 1134.58 2705.32 1120.83 Q2705.32 1107.08 2711.94 1098.64 Q2718.61 1090.2 2729.18 1090.2 Q2735.64 1090.2 2740.22 1092.76 Q2744.86 1095.26 2747.88 1100.46 M2715.22 1120.83 Q2715.22 1131.4 2719.54 1137.44 Q2723.92 1143.43 2731.52 1143.43 Q2739.13 1143.43 2743.5 1137.44 Q2747.88 1131.4 2747.88 1120.83 Q2747.88 1110.26 2743.5 1104.27 Q2739.13 1098.23 2731.52 1098.23 Q2723.92 1098.23 2719.54 1104.27 Q2715.22 1110.26 2715.22 1120.83 Z" fill="#000000" fill-rule="nonzero" fill-opacity="1" /><path clip-path="url(#clip530)" d="M2803.71 1120.62 Q2792.1 1120.62 2787.62 1123.28 Q2783.14 1125.93 2783.14 1132.34 Q2783.14 1137.44 2786.47 1140.46 Q2789.86 1143.43 2795.64 1143.43 Q2803.61 1143.43 2808.4 1137.81 Q2813.24 1132.13 2813.24 1122.76 L2813.24 1120.62 L2803.71 1120.62 M2822.82 1116.66 L2822.82 1149.94 L2813.24 1149.94 L2813.24 1141.09 Q2809.96 1146.4 2805.06 1148.95 Q2800.17 1151.45 2793.08 1151.45 Q2784.13 1151.45 2778.81 1146.45 Q2773.55 1141.4 2773.55 1132.96 Q2773.55 1123.12 2780.12 1118.12 Q2786.73 1113.12 2799.8 1113.12 L2813.24 1113.12 L2813.24 1112.18 Q2813.24 1105.57 2808.87 1101.98 Q2804.54 1098.33 2796.68 1098.33 Q2791.68 1098.33 2786.94 1099.53 Q2782.2 1100.73 2777.82 1103.12 L2777.82 1094.27 Q2783.08 1092.24 2788.03 1091.25 Q2792.98 1090.2 2797.67 1090.2 Q2810.32 1090.2 2816.57 1096.77 Q2822.82 1103.33 2822.82 1116.66 Z" fill="#000000" fill-rule="nonzero" fill-opacity="1" /><path clip-path="url(#clip530)" d="M2866.83 1155.36 Q2862.77 1165.78 2858.92 1168.95 Q2855.06 1172.13 2848.61 1172.13 L2840.95 1172.13 L2840.95 1164.11 L2846.57 1164.11 Q2850.53 1164.11 2852.72 1162.24 Q2854.91 1160.36 2857.56 1153.38 L2859.28 1149.01 L2835.69 1091.61 L2845.84 1091.61 L2864.07 1137.24 L2882.3 1091.61 L2892.46 1091.61 L2866.83 1155.36 Z" fill="#000000" fill-rule="nonzero" fill-opacity="1" /><path clip-path="url(#clip530)" d="M2904.18 1069.01 L2912.51 1069.01 Q2920.32 1081.3 2924.18 1093.07 Q2928.08 1104.84 2928.08 1116.45 Q2928.08 1128.12 2924.18 1139.94 Q2920.32 1151.77 2912.51 1164.01 L2904.18 1164.01 Q2911.1 1152.08 2914.49 1140.31 Q2917.93 1128.49 2917.93 1116.45 Q2917.93 1104.42 2914.49 1092.7 Q2911.1 1080.99 2904.18 1069.01 Z" fill="#000000" fill-rule="nonzero" fill-opacity="1" /><polyline clip-path="url(#clip532)" style="stroke:#000000; stroke-linecap:round; stroke-linejoin:round; stroke-width:2; stroke-opacity:0.1; fill:none" points="537.894,790.917 4752.76,790.917 "/>
<polyline clip-path="url(#clip532)" style="stroke:#000000; stroke-linecap:round; stroke-linejoin:round; stroke-width:2; stroke-opacity:0.1; fill:none" points="537.894,627.542 4752.76,627.542 "/>
<polyline clip-path="url(#clip532)" style="stroke:#000000; stroke-linecap:round; stroke-linejoin:round; stroke-width:2; stroke-opacity:0.1; fill:none" points="537.894,464.168 4752.76,464.168 "/>
<polyline clip-path="url(#clip532)" style="stroke:#000000; stroke-linecap:round; stroke-linejoin:round; stroke-width:2; stroke-opacity:0.1; fill:none" points="537.894,300.794 4752.76,300.794 "/>
<polyline clip-path="url(#clip532)" style="stroke:#000000; stroke-linecap:round; stroke-linejoin:round; stroke-width:2; stroke-opacity:0.1; fill:none" points="537.894,137.419 4752.76,137.419 "/>
<polyline clip-path="url(#clip530)" style="stroke:#000000; stroke-linecap:round; stroke-linejoin:round; stroke-width:4; stroke-opacity:1; fill:none" points="537.894,880.951 537.894,47.2441 "/>
<polyline clip-path="url(#clip530)" style="stroke:#000000; stroke-linecap:round; stroke-linejoin:round; stroke-width:4; stroke-opacity:1; fill:none" points="537.894,790.917 556.792,790.917 "/>
<polyline clip-path="url(#clip530)" style="stroke:#000000; stroke-linecap:round; stroke-linejoin:round; stroke-width:4; stroke-opacity:1; fill:none" points="537.894,627.542 556.792,627.542 "/>
<polyline clip-path="url(#clip530)" style="stroke:#000000; stroke-linecap:round; stroke-linejoin:round; stroke-width:4; stroke-opacity:1; fill:none" points="537.894,464.168 556.792,464.168 "/>
<polyline clip-path="url(#clip530)" style="stroke:#000000; stroke-linecap:round; stroke-linejoin:round; stroke-width:4; stroke-opacity:1; fill:none" points="537.894,300.794 556.792,300.794 "/>
<polyline clip-path="url(#clip530)" style="stroke:#000000; stroke-linecap:round; stroke-linejoin:round; stroke-width:4; stroke-opacity:1; fill:none" points="537.894,137.419 556.792,137.419 "/>
<path clip-path="url(#clip530)" d="M194.877 791.82 L254.229 791.82 L254.229 799.69 L194.877 799.69 L194.877 791.82 Z" fill="#000000" fill-rule="nonzero" fill-opacity="1" /><path clip-path="url(#clip530)" d="M294.414 762.514 Q287.191 762.514 283.534 769.644 Q279.923 776.727 279.923 790.986 Q279.923 805.199 283.534 812.329 Q287.191 819.412 294.414 819.412 Q301.682 819.412 305.293 812.329 Q308.951 805.199 308.951 790.986 Q308.951 776.727 305.293 769.644 Q301.682 762.514 294.414 762.514 M294.414 755.107 Q306.034 755.107 312.145 764.32 Q318.302 773.486 318.302 790.986 Q318.302 808.44 312.145 817.653 Q306.034 826.819 294.414 826.819 Q282.793 826.819 276.636 817.653 Q270.525 808.44 270.525 790.986 Q270.525 773.486 276.636 764.32 Q282.793 755.107 294.414 755.107 Z" fill="#000000" fill-rule="nonzero" fill-opacity="1" /><path clip-path="url(#clip530)" d="M334.737 813.718 L344.506 813.718 L344.506 825.477 L334.737 825.477 L334.737 813.718 Z" fill="#000000" fill-rule="nonzero" fill-opacity="1" /><path clip-path="url(#clip530)" d="M384.876 762.514 Q377.654 762.514 373.997 769.644 Q370.385 776.727 370.385 790.986 Q370.385 805.199 373.997 812.329 Q377.654 819.412 384.876 819.412 Q392.145 819.412 395.756 812.329 Q399.413 805.199 399.413 790.986 Q399.413 776.727 395.756 769.644 Q392.145 762.514 384.876 762.514 M384.876 755.107 Q396.496 755.107 402.607 764.32 Q408.765 773.486 408.765 790.986 Q408.765 808.44 402.607 817.653 Q396.496 826.819 384.876 826.819 Q373.256 826.819 367.098 817.653 Q360.987 808.44 360.987 790.986 Q360.987 773.486 367.098 764.32 Q373.256 755.107 384.876 755.107 Z" fill="#000000" fill-rule="nonzero" fill-opacity="1" /><path clip-path="url(#clip530)" d="M433.255 817.606 L465.894 817.606 L465.894 825.477 L422.006 825.477 L422.006 817.606 Q427.33 812.097 436.496 802.838 Q445.709 793.532 448.07 790.847 Q452.561 785.801 454.32 782.329 Q456.126 778.81 456.126 775.431 Q456.126 769.922 452.237 766.449 Q448.394 762.977 442.191 762.977 Q437.792 762.977 432.885 764.505 Q428.024 766.033 422.468 769.134 L422.468 759.69 Q428.117 757.422 433.024 756.264 Q437.931 755.107 442.005 755.107 Q452.746 755.107 459.135 760.477 Q465.524 765.847 465.524 774.829 Q465.524 779.088 463.903 782.931 Q462.329 786.727 458.116 791.912 Q456.959 793.255 450.755 799.69 Q444.552 806.079 433.255 817.606 Z" fill="#000000" fill-rule="nonzero" fill-opacity="1" /><path clip-path="url(#clip530)" d="M194.136 628.445 L253.488 628.445 L253.488 636.316 L194.136 636.316 L194.136 628.445 Z" fill="#000000" fill-rule="nonzero" fill-opacity="1" /><path clip-path="url(#clip530)" d="M293.673 599.14 Q286.451 599.14 282.793 606.269 Q279.182 613.353 279.182 627.612 Q279.182 641.825 282.793 648.954 Q286.451 656.038 293.673 656.038 Q300.941 656.038 304.552 648.954 Q308.21 641.825 308.21 627.612 Q308.21 613.353 304.552 606.269 Q300.941 599.14 293.673 599.14 M293.673 591.732 Q305.293 591.732 311.404 600.945 Q317.562 610.112 317.562 627.612 Q317.562 645.065 311.404 654.278 Q305.293 663.445 293.673 663.445 Q282.053 663.445 275.895 654.278 Q269.784 645.065 269.784 627.612 Q269.784 610.112 275.895 600.945 Q282.053 591.732 293.673 591.732 Z" fill="#000000" fill-rule="nonzero" fill-opacity="1" /><path clip-path="url(#clip530)" d="M333.997 650.343 L343.765 650.343 L343.765 662.102 L333.997 662.102 L333.997 650.343 Z" fill="#000000" fill-rule="nonzero" fill-opacity="1" /><path clip-path="url(#clip530)" d="M384.135 599.14 Q376.913 599.14 373.256 606.269 Q369.645 613.353 369.645 627.612 Q369.645 641.825 373.256 648.954 Q376.913 656.038 384.135 656.038 Q391.404 656.038 395.015 648.954 Q398.672 641.825 398.672 627.612 Q398.672 613.353 395.015 606.269 Q391.404 599.14 384.135 599.14 M384.135 591.732 Q395.756 591.732 401.867 600.945 Q408.024 610.112 408.024 627.612 Q408.024 645.065 401.867 654.278 Q395.756 663.445 384.135 663.445 Q372.515 663.445 366.358 654.278 Q360.247 645.065 360.247 627.612 Q360.247 610.112 366.358 600.945 Q372.515 591.732 384.135 591.732 Z" fill="#000000" fill-rule="nonzero" fill-opacity="1" /><path clip-path="url(#clip530)" d="M426.08 654.232 L441.357 654.232 L441.357 601.501 L424.737 604.834 L424.737 596.316 L441.265 592.982 L450.616 592.982 L450.616 654.232 L465.894 654.232 L465.894 662.102 L426.08 662.102 L426.08 654.232 Z" fill="#000000" fill-rule="nonzero" fill-opacity="1" /><path clip-path="url(#clip530)" d="M291.219 435.765 Q283.997 435.765 280.34 442.895 Q276.729 449.978 276.729 464.237 Q276.729 478.45 280.34 485.58 Q283.997 492.663 291.219 492.663 Q298.488 492.663 302.099 485.58 Q305.756 478.45 305.756 464.237 Q305.756 449.978 302.099 442.895 Q298.488 435.765 291.219 435.765 M291.219 428.358 Q302.839 428.358 308.951 437.571 Q315.108 446.738 315.108 464.237 Q315.108 481.691 308.951 490.904 Q302.839 500.071 291.219 500.071 Q279.599 500.071 273.442 490.904 Q267.33 481.691 267.33 464.237 Q267.33 446.738 273.442 437.571 Q279.599 428.358 291.219 428.358 Z" fill="#000000" fill-rule="nonzero" fill-opacity="1" /><path clip-path="url(#clip530)" d="M331.543 486.969 L341.312 486.969 L341.312 498.728 L331.543 498.728 L331.543 486.969 Z" fill="#000000" fill-rule="nonzero" fill-opacity="1" /><path clip-path="url(#clip530)" d="M381.682 435.765 Q374.459 435.765 370.802 442.895 Q367.191 449.978 367.191 464.237 Q367.191 478.45 370.802 485.58 Q374.459 492.663 381.682 492.663 Q388.95 492.663 392.561 485.58 Q396.219 478.45 396.219 464.237 Q396.219 449.978 392.561 442.895 Q388.95 435.765 381.682 435.765 M381.682 428.358 Q393.302 428.358 399.413 437.571 Q405.57 446.738 405.57 464.237 Q405.57 481.691 399.413 490.904 Q393.302 500.071 381.682 500.071 Q370.061 500.071 363.904 490.904 Q357.793 481.691 357.793 464.237 Q357.793 446.738 363.904 437.571 Q370.061 428.358 381.682 428.358 Z" fill="#000000" fill-rule="nonzero" fill-opacity="1" /><path clip-path="url(#clip530)" d="M442.005 435.765 Q434.783 435.765 431.126 442.895 Q427.515 449.978 427.515 464.237 Q427.515 478.45 431.126 485.58 Q434.783 492.663 442.005 492.663 Q449.274 492.663 452.885 485.58 Q456.542 478.45 456.542 464.237 Q456.542 449.978 452.885 442.895 Q449.274 435.765 442.005 435.765 M442.005 428.358 Q453.626 428.358 459.737 437.571 Q465.894 446.738 465.894 464.237 Q465.894 481.691 459.737 490.904 Q453.626 500.071 442.005 500.071 Q430.385 500.071 424.228 490.904 Q418.117 481.691 418.117 464.237 Q418.117 446.738 424.228 437.571 Q430.385 428.358 442.005 428.358 Z" fill="#000000" fill-rule="nonzero" fill-opacity="1" /><path clip-path="url(#clip530)" d="M293.673 272.391 Q286.451 272.391 282.793 279.521 Q279.182 286.604 279.182 300.863 Q279.182 315.076 282.793 322.206 Q286.451 329.289 293.673 329.289 Q300.941 329.289 304.552 322.206 Q308.21 315.076 308.21 300.863 Q308.21 286.604 304.552 279.521 Q300.941 272.391 293.673 272.391 M293.673 264.984 Q305.293 264.984 311.404 274.197 Q317.562 283.363 317.562 300.863 Q317.562 318.317 311.404 327.53 Q305.293 336.696 293.673 336.696 Q282.053 336.696 275.895 327.53 Q269.784 318.317 269.784 300.863 Q269.784 283.363 275.895 274.197 Q282.053 264.984 293.673 264.984 Z" fill="#000000" fill-rule="nonzero" fill-opacity="1" /><path clip-path="url(#clip530)" d="M333.997 323.594 L343.765 323.594 L343.765 335.354 L333.997 335.354 L333.997 323.594 Z" fill="#000000" fill-rule="nonzero" fill-opacity="1" /><path clip-path="url(#clip530)" d="M384.135 272.391 Q376.913 272.391 373.256 279.521 Q369.645 286.604 369.645 300.863 Q369.645 315.076 373.256 322.206 Q376.913 329.289 384.135 329.289 Q391.404 329.289 395.015 322.206 Q398.672 315.076 398.672 300.863 Q398.672 286.604 395.015 279.521 Q391.404 272.391 384.135 272.391 M384.135 264.984 Q395.756 264.984 401.867 274.197 Q408.024 283.363 408.024 300.863 Q408.024 318.317 401.867 327.53 Q395.756 336.696 384.135 336.696 Q372.515 336.696 366.358 327.53 Q360.247 318.317 360.247 300.863 Q360.247 283.363 366.358 274.197 Q372.515 264.984 384.135 264.984 Z" fill="#000000" fill-rule="nonzero" fill-opacity="1" /><path clip-path="url(#clip530)" d="M426.08 327.483 L441.357 327.483 L441.357 274.752 L424.737 278.085 L424.737 269.567 L441.265 266.234 L450.616 266.234 L450.616 327.483 L465.894 327.483 L465.894 335.354 L426.08 335.354 L426.08 327.483 Z" fill="#000000" fill-rule="nonzero" fill-opacity="1" /><path clip-path="url(#clip530)" d="M294.414 109.017 Q287.191 109.017 283.534 116.146 Q279.923 123.23 279.923 137.489 Q279.923 151.702 283.534 158.831 Q287.191 165.915 294.414 165.915 Q301.682 165.915 305.293 158.831 Q308.951 151.702 308.951 137.489 Q308.951 123.23 305.293 116.146 Q301.682 109.017 294.414 109.017 M294.414 101.609 Q306.034 101.609 312.145 110.822 Q318.302 119.989 318.302 137.489 Q318.302 154.942 312.145 164.155 Q306.034 173.322 294.414 173.322 Q282.793 173.322 276.636 164.155 Q270.525 154.942 270.525 137.489 Q270.525 119.989 276.636 110.822 Q282.793 101.609 294.414 101.609 Z" fill="#000000" fill-rule="nonzero" fill-opacity="1" /><path clip-path="url(#clip530)" d="M334.737 160.22 L344.506 160.22 L344.506 171.979 L334.737 171.979 L334.737 160.22 Z" fill="#000000" fill-rule="nonzero" fill-opacity="1" /><path clip-path="url(#clip530)" d="M384.876 109.017 Q377.654 109.017 373.997 116.146 Q370.385 123.23 370.385 137.489 Q370.385 151.702 373.997 158.831 Q377.654 165.915 384.876 165.915 Q392.145 165.915 395.756 158.831 Q399.413 151.702 399.413 137.489 Q399.413 123.23 395.756 116.146 Q392.145 109.017 384.876 109.017 M384.876 101.609 Q396.496 101.609 402.607 110.822 Q408.765 119.989 408.765 137.489 Q408.765 154.942 402.607 164.155 Q396.496 173.322 384.876 173.322 Q373.256 173.322 367.098 164.155 Q360.987 154.942 360.987 137.489 Q360.987 119.989 367.098 110.822 Q373.256 101.609 384.876 101.609 Z" fill="#000000" fill-rule="nonzero" fill-opacity="1" /><path clip-path="url(#clip530)" d="M433.255 164.109 L465.894 164.109 L465.894 171.979 L422.006 171.979 L422.006 164.109 Q427.33 158.6 436.496 149.341 Q445.709 140.035 448.07 137.35 Q452.561 132.304 454.32 128.831 Q456.126 125.313 456.126 121.933 Q456.126 116.424 452.237 112.952 Q448.394 109.48 442.191 109.48 Q437.792 109.48 432.885 111.007 Q428.024 112.535 422.468 115.637 L422.468 106.193 Q428.117 103.924 433.024 102.767 Q437.931 101.609 442.005 101.609 Q452.746 101.609 459.135 106.98 Q465.524 112.35 465.524 121.331 Q465.524 125.591 463.903 129.433 Q462.329 133.23 458.116 138.415 Q456.959 139.757 450.755 146.192 Q444.552 152.581 433.255 164.109 Z" fill="#000000" fill-rule="nonzero" fill-opacity="1" /><path clip-path="url(#clip530)" d="M21.0484 748.315 L21.0484 734.148 L86.1001 699.669 L21.0484 699.669 L21.0484 689.461 L98.8084 689.461 L98.8084 703.628 L33.7566 738.107 L98.8084 738.107 L98.8084 748.315 L21.0484 748.315 Z" fill="#000000" fill-rule="nonzero" fill-opacity="1" /><path clip-path="url(#clip530)" d="M28.1838 636.961 Q28.1838 648.42 36.7254 655.191 Q45.267 661.909 60.0065 661.909 Q74.6939 661.909 83.2355 655.191 Q91.7772 648.42 91.7772 636.961 Q91.7772 625.503 83.2355 618.837 Q74.6939 612.118 60.0065 612.118 Q45.267 612.118 36.7254 618.837 Q28.1838 625.503 28.1838 636.961 M19.6421 636.961 Q19.6421 620.607 30.6317 610.816 Q41.5691 601.024 60.0065 601.024 Q78.3918 601.024 89.3813 610.816 Q100.319 620.607 100.319 636.961 Q100.319 653.368 89.3813 663.211 Q78.4439 673.003 60.0065 673.003 Q41.5691 673.003 30.6317 663.211 Q19.6421 653.368 19.6421 636.961 Z" fill="#000000" fill-rule="nonzero" fill-opacity="1" /><path clip-path="url(#clip530)" d="M89.9543 574.566 L89.9543 537.847 L98.8084 537.847 L98.8084 587.222 L89.9543 587.222 Q83.7564 581.233 73.3398 570.92 Q62.8711 560.556 59.8503 557.899 Q54.1732 552.847 50.267 550.868 Q46.3087 548.837 42.5066 548.837 Q36.3087 548.837 32.4025 553.212 Q28.4963 557.535 28.4963 564.514 Q28.4963 569.462 30.215 574.983 Q31.9337 580.451 35.4233 586.701 L24.7984 586.701 Q22.2463 580.347 20.9442 574.826 Q19.6421 569.306 19.6421 564.722 Q19.6421 552.639 25.6838 545.452 Q31.7254 538.264 41.8295 538.264 Q46.6212 538.264 50.9441 540.087 Q55.2149 541.858 61.0482 546.597 Q62.5586 547.899 69.7981 554.879 Q76.9856 561.858 89.9543 574.566 Z" fill="#000000" fill-rule="nonzero" fill-opacity="1" /><path clip-path="url(#clip530)" d="M17.8713 460.192 Q29.8504 467.171 41.5691 470.556 Q53.2878 473.941 65.319 473.941 Q77.3502 473.941 89.173 470.556 Q100.944 467.119 112.871 460.192 L112.871 468.525 Q100.631 476.337 88.8084 480.244 Q76.9856 484.098 65.319 484.098 Q53.7045 484.098 41.9337 480.244 Q30.1629 476.389 17.8713 468.525 L17.8713 460.192 Z" fill="#000000" fill-rule="nonzero" fill-opacity="1" /><path clip-path="url(#clip530)" d="M90.0584 432.327 L120.996 432.327 L120.996 441.962 L40.4754 441.962 L40.4754 432.327 L49.3295 432.327 Q44.1212 429.306 41.6212 424.723 Q39.0691 420.088 39.0691 413.681 Q39.0691 403.056 47.5066 396.442 Q55.944 389.775 69.694 389.775 Q83.4439 389.775 91.8813 396.442 Q100.319 403.056 100.319 413.681 Q100.319 420.088 97.8188 424.723 Q95.2667 429.306 90.0584 432.327 M69.694 399.723 Q59.1211 399.723 53.1315 404.098 Q47.0899 408.421 47.0899 416.025 Q47.0899 423.629 53.1315 428.004 Q59.1211 432.327 69.694 432.327 Q80.2668 432.327 86.3084 428.004 Q92.298 423.629 92.298 416.025 Q92.298 408.421 86.3084 404.098 Q80.2668 399.723 69.694 399.723 Z" fill="#000000" fill-rule="nonzero" fill-opacity="1" /><path clip-path="url(#clip530)" d="M90.0584 364.619 L120.996 364.619 L120.996 374.255 L40.4754 374.255 L40.4754 364.619 L49.3295 364.619 Q44.1212 361.598 41.6212 357.015 Q39.0691 352.38 39.0691 345.973 Q39.0691 335.348 47.5066 328.734 Q55.944 322.067 69.694 322.067 Q83.4439 322.067 91.8813 328.734 Q100.319 335.348 100.319 345.973 Q100.319 352.38 97.8188 357.015 Q95.2667 361.598 90.0584 364.619 M69.694 332.015 Q59.1211 332.015 53.1315 336.39 Q47.0899 340.713 47.0899 348.317 Q47.0899 355.921 53.1315 360.296 Q59.1211 364.619 69.694 364.619 Q80.2668 364.619 86.3084 360.296 Q92.298 355.921 92.298 348.317 Q92.298 340.713 86.3084 336.39 Q80.2668 332.015 69.694 332.015 Z" fill="#000000" fill-rule="nonzero" fill-opacity="1" /><path clip-path="url(#clip530)" d="M51.6732 260.766 Q45.2149 257.172 42.142 252.172 Q39.0691 247.172 39.0691 240.401 Q39.0691 231.287 45.4753 226.339 Q51.8295 221.391 63.6002 221.391 L98.8084 221.391 L98.8084 231.026 L63.9127 231.026 Q55.5274 231.026 51.4649 233.995 Q47.4024 236.964 47.4024 243.057 Q47.4024 250.505 52.3503 254.828 Q57.2982 259.151 65.8398 259.151 L98.8084 259.151 L98.8084 268.786 L63.9127 268.786 Q55.4753 268.786 51.4649 271.755 Q47.4024 274.724 47.4024 280.922 Q47.4024 288.265 52.4024 292.588 Q57.3503 296.911 65.8398 296.911 L98.8084 296.911 L98.8084 306.547 L40.4754 306.547 L40.4754 296.911 L49.5378 296.911 Q44.1733 293.63 41.6212 289.047 Q39.0691 284.463 39.0691 278.161 Q39.0691 271.807 42.2983 267.38 Q45.5274 262.901 51.6732 260.766 Z" fill="#000000" fill-rule="nonzero" fill-opacity="1" /><path clip-path="url(#clip530)" d="M17.8713 203.787 L17.8713 195.453 Q30.1629 187.641 41.9337 183.787 Q53.7045 179.881 65.319 179.881 Q76.9856 179.881 88.8084 183.787 Q100.631 187.641 112.871 195.453 L112.871 203.787 Q100.944 196.86 89.173 193.474 Q77.3502 190.037 65.319 190.037 Q53.2878 190.037 41.5691 193.474 Q29.8504 196.86 17.8713 203.787 Z" fill="#000000" fill-rule="nonzero" fill-opacity="1" /><path clip-path="url(#clip532)" d="M657.183 464.187 L675.677 559.225 L694.171 618.805 L712.666 648.768 L731.16 657.733 L749.654 617.464 L768.149 634.902 L786.643 634.972 L805.137 623.656 L823.632 764.458 L842.126 857.356 L860.621 832.069 L879.115 781.834 L897.609 731.126 L916.104 688.005 L934.598 654.112 L953.092 672.58 L971.587 667.785 L990.081 659.261 L1008.58 647.597 L1027.07 632.659 L1045.56 627.428 L1064.06 627.338 L1082.55 621.559 L1101.05 646.71 L1119.54 647.467 L1138.04 695.635 L1156.53 665.26 L1175.02 734.696 L1193.52 785.562 L1212.01 788.648 L1230.51 750.355 L1249 726.538 L1267.5 732.863 L1285.99 745.372 L1304.48 757.413 L1322.98 751.887 L1341.47 735.009 L1359.97 712.676 L1378.46 688.345 L1396.96 651.04 L1415.45 656.634 L1433.95 651.113 L1452.44 635.165 L1470.93 624.771 L1489.43 622.004 L1507.92 619.263 L1526.42 615.776 L1544.91 640.384 L1563.41 638.949 L1581.9 716.488 L1600.39 683.145 L1618.89 721.414 L1637.38 783.604 L1655.88 823.733 L1674.37 815.442 L1692.87 778.528 L1711.36 754.9 L1729.85 751.159 L1748.35 762.326 L1766.84 755.842 L1785.34 737.89 L1803.83 714.68 L1822.33 689.82 L1840.82 652.241 L1859.32 657.515 L1877.81 651.733 L1896.3 635.521 L1914.8 624.898 L1933.29 623.072 L1951.79 620.481 L1970.28 616.334 L1988.78 641.382 L2007.27 638.087 L2025.76 714.72 L2044.26 673.539 L2062.75 722.899 L2081.25 784.337 L2099.74 818.975 L2118.24 805.071 L2136.73 767.691 L2155.22 748.7 L2173.72 749.388 L2192.21 760.836 L2210.71 754.585 L2229.2 736.867 L2247.7 713.854 L2266.19 689.398 L2284.69 652.131 L2303.18 657.468 L2321.67 651.695 L2340.17 635.491 L2358.66 624.9 L2377.16 622.831 L2395.65 620.312 L2414.15 616.38 L2432.64 641.393 L2451.13 638.834 L2469.63 715.596 L2488.12 674.32 L2506.62 723.086 L2525.11 784.583 L2543.61 820.035 L2562.1 807.002 L2580.59 769.679 L2599.09 749.932 L2617.58 749.898 L2636.08 761.318 L2654.57 755.051 L2673.07 737.287 L2691.56 714.208 L2710.06 689.573 L2728.55 652.189 L2747.04 657.516 L2765.54 651.738 L2784.03 635.52 L2802.53 624.883 L2821.02 622.835 L2839.52 620.257 L2858.01 616.205 L2876.5 641.206 L2895 638.389 L2913.49 715.2 L2931.99 673.957 L2950.48 722.815 L2968.98 784.311 L2987.47 819.695 L3005.96 806.634 L3024.46 769.343 L3042.95 749.746 L3061.45 749.877 L3079.94 761.332 L3098.44 755.077 L3116.93 737.324 L3135.43 714.257 L3153.92 689.596 L3172.41 652.194 L3190.91 657.52 L3209.4 651.738 L3227.9 635.514 L3246.39 624.895 L3264.89 622.862 L3283.38 620.325 L3301.87 616.335 L3320.37 641.404 L3338.86 638.683 L3357.36 715.426 L3375.85 674.185 L3394.35 723.042 L3412.84 784.498 L3431.33 819.863 L3449.83 806.784 L3468.32 769.491 L3486.82 749.865 L3505.31 749.94 L3523.81 761.382 L3542.3 755.12 L3560.8 737.351 L3579.29 714.275 L3597.78 689.604 L3616.28 652.199 L3634.77 657.522 L3653.27 651.746 L3671.76 635.525 L3690.26 624.889 L3708.75 622.843 L3727.24 620.269 L3745.74 616.246 L3764.23 641.27 L3782.73 638.51 L3801.22 715.289 L3819.72 674.045 L3838.21 722.932 L3856.7 784.406 L3875.2 819.795 L3893.69 806.726 L3912.19 769.431 L3930.68 749.804 L3949.18 749.917 L3967.67 761.355 L3986.17 755.096 L4004.66 737.337 L4023.15 714.267 L4041.65 689.602 L4060.14 652.202 L4078.64 657.527 L4097.13 651.749 L4115.63 635.525 L4134.12 624.895 L4152.61 622.905 L4171.11 620.311 L4189.6 616.308 L4208.1 641.327 L4226.59 638.623 L4245.09 715.375 L4263.58 674.145 L4282.07 723.002 L4300.57 784.472 L4319.06 819.846 L4337.56 806.769 L4356.05 769.472 L4374.55 749.847 L4393.04 749.923 L4411.54 761.373 L4430.03 755.113 L4448.52 737.353 L4467.02 714.272 L4485.51 689.607 L4504.01 652.206 L4522.5 657.528 L4541 651.754 L4559.49 635.532 L4577.98 624.898 L4596.48 622.857 L4614.97 620.289 L4633.47 616.278 L4633.47 327.169 L4614.97 314.335 L4596.48 304.509 L4577.98 318.395 L4559.49 315.03 L4541 335.12 L4522.5 315.074 L4504.01 315.098 L4485.51 289.743 L4467.02 284.731 L4448.52 316.326 L4430.03 302.3 L4411.54 304.785 L4393.04 287.48 L4374.55 300.991 L4356.05 318.843 L4337.56 346.094 L4319.06 327.398 L4300.57 359.517 L4282.07 365.719 L4263.58 356.118 L4245.09 340.37 L4226.59 316.917 L4208.1 318.635 L4189.6 330.339 L4171.11 326.267 L4152.61 312.768 L4134.12 318.394 L4115.63 315.025 L4097.13 335.115 L4078.64 315.077 L4060.14 315.265 L4041.65 289.912 L4023.15 284.86 L4004.66 316.246 L3986.17 302.208 L3967.67 305.407 L3949.18 288.044 L3930.68 300.508 L3912.19 316.573 L3893.69 344.674 L3875.2 326.288 L3856.7 359.326 L3838.21 365.582 L3819.72 355.926 L3801.22 333.874 L3782.73 307.465 L3764.23 302.535 L3745.74 325.678 L3727.24 307.958 L3708.75 300.478 L3690.26 318.391 L3671.76 315.027 L3653.27 335.113 L3634.77 315.07 L3616.28 315.185 L3597.78 289.829 L3579.29 284.793 L3560.8 316.456 L3542.3 302.419 L3523.81 305.186 L3505.31 287.86 L3486.82 301.229 L3468.32 320.4 L3449.83 347.205 L3431.33 328.249 L3412.84 359.642 L3394.35 365.566 L3375.85 356.3 L3357.36 340.762 L3338.86 323.574 L3320.37 323.162 L3301.87 334.363 L3283.38 335.143 L3264.89 319.456 L3246.39 318.399 L3227.9 315.019 L3209.4 335.109 L3190.91 315.071 L3172.41 315.627 L3153.92 290.29 L3135.43 285.149 L3116.93 315.603 L3098.44 301.614 L3079.94 304.5 L3061.45 287.195 L3042.95 295.112 L3024.46 314.867 L3005.96 342.277 L2987.47 324.461 L2968.98 359.098 L2950.48 365.065 L2931.99 355.41 L2913.49 322.499 L2895 296.654 L2876.5 287.363 L2858.01 324.112 L2839.52 293.175 L2821.02 292.213 L2802.53 318.389 L2784.03 315.019 L2765.54 335.101 L2747.04 315.07 L2728.55 314.665 L2710.06 289.268 L2691.56 284.333 L2673.07 317.31 L2654.57 303.205 L2636.08 306.013 L2617.58 288.644 L2599.09 301.681 L2580.59 324.575 L2562.1 352.448 L2543.61 332.458 L2525.11 360.425 L2506.62 366.437 L2488.12 357.872 L2469.63 343.658 L2451.13 332.893 L2432.64 334.269 L2414.15 348.863 L2395.65 355.364 L2377.16 336.242 L2358.66 318.408 L2340.17 315.031 L2321.67 335.106 L2303.18 315.017 L2284.69 316.688 L2266.19 291.268 L2247.7 285.642 L2229.2 296.181 L2210.71 282.599 L2192.21 277.802 L2173.72 282.822 L2155.22 280.785 L2136.73 307.444 L2118.24 330.1 L2099.74 315.861 L2081.25 358.815 L2062.75 361.348 L2044.26 326.451 L2025.76 283.938 L2007.27 246.172 L1988.78 258.331 L1970.28 287.704 L1951.79 258.094 L1933.29 280.108 L1914.8 318.402 L1896.3 314.821 L1877.81 334.851 L1859.32 315.035 L1840.82 310.765 L1822.33 285.435 L1803.83 281.746 L1785.34 320.19 L1766.84 309.782 L1748.35 311.618 L1729.85 294.22 L1711.36 305.731 L1692.87 339.1 L1674.37 376.3 L1655.88 353.043 L1637.38 367.17 L1618.89 375.184 L1600.39 374.018 L1581.9 364.637 L1563.41 350.841 L1544.91 368.665 L1526.42 386.153 L1507.92 395.702 L1489.43 351.44 L1470.93 318.222 L1452.44 316.007 L1433.95 336.175 L1415.45 314.696 L1396.96 325.425 L1378.46 300.663 L1359.97 293 L1341.47 296.25 L1322.98 230.308 L1304.48 176.996 L1285.99 240.486 L1267.5 251.557 L1249 310.518 L1230.51 275.422 L1212.01 281.323 L1193.52 226.565 L1175.02 164.215 L1156.53 110.773 L1138.04 118.588 L1119.54 229.274 L1101.05 228.364 L1082.55 190.212 L1064.06 209.308 L1045.56 308.763 L1027.07 326.263 L1008.58 308.36 L990.081 327.903 L971.587 311.481 L953.092 290.969 L934.598 264.822 L916.104 204.524 L897.609 158.538 L879.115 199.894 L860.621 249.513 L842.126 70.8396 L823.632 114.271 L805.137 221.528 L786.643 313.214 L768.149 363.896 L749.654 390.35 L731.16 416.862 L712.666 421.478 L694.171 407.446 L675.677 409.875 L657.183 464.152  Z" fill="#dedede" fill-rule="evenodd" fill-opacity="0.5"/>
<polyline clip-path="url(#clip532)" style="stroke:#dedede; stroke-linecap:round; stroke-linejoin:round; stroke-width:0; stroke-opacity:1; fill:none" points="657.183,464.168 675.677,465.715 694.171,468.023 712.666,470.996 731.16,473.015 749.654,473.067 768.149,471.568 786.643,470.243 805.137,470.886 823.632,473.455 842.126,476.043 860.621,477.562 879.115,478.978 897.609,479.738 916.104,479.877 934.598,480.12 953.092,480.084 971.587,479.569 990.081,479.645 1008.58,479.257 1027.07,478.729 1045.56,477.989 1064.06,477.298 1082.55,477.154 1101.05,476.328 1119.54,475.04 1138.04,474.393 1156.53,474.491 1175.02,475.115 1193.52,475.327 1212.01,474.774 1230.51,474.38 1249,474.951 1267.5,476.328 1285.99,476.971 1304.48,477.364 1322.98,477.803 1341.47,478.39 1359.97,478.626 1378.46,478.21 1396.96,477.855 1415.45,477.507 1433.95,477.992 1452.44,478 1470.93,477.989 1489.43,477.898 1507.92,477.69 1526.42,477.856 1544.91,477.524 1563.41,477.293 1581.9,477.651 1600.39,478.156 1618.89,478.801 1637.38,478.839 1655.88,478.14 1674.37,477.705 1692.87,478.356 1711.36,479.687 1729.85,480.117 1748.35,480.227 1766.84,480.243 1785.34,480.131 1803.83,479.74 1822.33,478.971 1840.82,478.439 1859.32,477.971 1877.81,478.351 1896.3,478.23 1914.8,478.018 1933.29,477.692 1951.79,477.313 1970.28,477.209 1988.78,476.44 2007.27,475.909 2025.76,476.223 2044.26,476.731 2062.75,477.295 2081.25,477.175 2099.74,476.248 2118.24,475.666 2136.73,476.257 2155.22,477.699 2173.72,478.384 2192.21,478.765 2210.71,479.005 2229.2,479.123 2247.7,478.925 2266.19,478.557 2284.69,478.366 2303.18,477.95 2321.67,478.326 2340.17,478.205 2358.66,478.024 2377.16,477.793 2395.65,477.476 2414.15,477.504 2432.64,477.059 2451.13,476.752 2469.63,477.067 2488.12,477.482 2506.62,477.974 2525.11,477.773 2543.61,476.774 2562.1,476.168 2580.59,476.811 2599.09,478.267 2617.58,478.91 2636.08,479.249 2654.57,479.47 2673.07,479.541 2691.56,479.278 2710.06,478.731 2728.55,478.421 2747.04,477.995 2765.54,478.366 2784.03,478.23 2802.53,478.005 2821.02,477.704 2839.52,477.35 2858.01,477.275 2876.5,476.661 2895,476.288 2913.49,476.63 2931.99,477.091 2950.48,477.609 2968.98,477.436 2987.47,476.508 3005.96,476.017 3024.46,476.696 3042.95,478.186 3061.45,478.881 3079.94,479.261 3098.44,479.494 3116.93,479.577 3135.43,479.325 3153.92,478.753 3172.41,478.425 3190.91,477.999 3209.4,478.364 3227.9,478.222 3246.39,478.014 3264.89,477.756 3283.38,477.425 3301.87,477.409 3320.37,476.908 3338.86,476.583 3357.36,476.905 3375.85,477.332 3394.35,477.82 3412.84,477.623 3431.33,476.656 3449.83,476.124 3468.32,476.8 3486.82,478.282 3505.31,478.948 3523.81,479.311 3542.3,479.536 3560.8,479.603 3579.29,479.342 3597.78,478.759 3616.28,478.428 3634.77,478 3653.27,478.37 3671.76,478.23 3690.26,478.006 3708.75,477.72 3727.24,477.37 3745.74,477.32 3764.23,476.756 3782.73,476.409 3801.22,476.748 3819.72,477.196 3838.21,477.704 3856.7,477.523 3875.2,476.583 3893.69,476.066 3912.19,476.741 3930.68,478.223 3949.18,478.91 3967.67,479.281 3986.17,479.511 4004.66,479.587 4023.15,479.332 4041.65,478.756 4060.14,478.429 4078.64,478.004 4097.13,478.37 4115.63,478.227 4134.12,478.008 4152.61,477.747 4171.11,477.41 4189.6,477.379 4208.1,476.854 4226.59,476.521 4245.09,476.848 4263.58,477.283 4282.07,477.78 4300.57,477.585 4319.06,476.628 4337.56,476.103 4356.05,476.778 4374.55,478.263 4393.04,478.932 4411.54,479.301 4430.03,479.526 4448.52,479.602 4467.02,479.337 4485.51,478.76 4504.01,478.43 4522.5,478.004 4541,478.373 4559.49,478.23 4577.98,478.009 4596.48,477.73 4614.97,477.387 4633.47,477.346 "/>
<path clip-path="url(#clip532)" d="M657.183 464.181 L675.677 488.558 L694.171 510.881 L712.666 529.09 L731.16 548.822 L749.654 561.848 L768.149 550.523 L786.643 543.335 L805.137 553.182 L823.632 574.125 L842.126 581.194 L860.621 575.969 L879.115 583.519 L897.609 580.569 L916.104 584.472 L934.598 586.065 L953.092 590.796 L971.587 584.365 L990.081 578.227 L1008.58 581.688 L1027.07 576.413 L1045.56 565.348 L1064.06 561.541 L1082.55 561.185 L1101.05 562.226 L1119.54 565.238 L1138.04 560.381 L1156.53 571.942 L1175.02 568.21 L1193.52 575.495 L1212.01 573.455 L1230.51 568.665 L1249 574.461 L1267.5 587.394 L1285.99 592.041 L1304.48 590 L1322.98 585.707 L1341.47 573.343 L1359.97 572.915 L1378.46 569.383 L1396.96 573.929 L1415.45 573.742 L1433.95 567.276 L1452.44 570.183 L1470.93 571.883 L1489.43 562.712 L1507.92 557.006 L1526.42 558.147 L1544.91 559.651 L1563.41 567.244 L1581.9 562.383 L1600.39 573.411 L1618.89 571.585 L1637.38 578.735 L1655.88 576.701 L1674.37 571.311 L1692.87 578.9 L1711.36 594.713 L1729.85 594.729 L1748.35 594.966 L1766.84 587.806 L1785.34 575.569 L1803.83 578.121 L1822.33 571.83 L1840.82 577.774 L1859.32 575.492 L1877.81 570.167 L1896.3 574.756 L1914.8 571.934 L1933.29 563.766 L1951.79 557.068 L1970.28 558.076 L1988.78 558.598 L2007.27 565.837 L2025.76 561.344 L2044.26 572.089 L2062.75 570.095 L2081.25 573.739 L2099.74 571.605 L2118.24 567.184 L2136.73 575.734 L2155.22 585.657 L2173.72 592.481 L2192.21 590.516 L2210.71 586.565 L2229.2 574.182 L2247.7 576.982 L2266.19 571.419 L2284.69 575.771 L2303.18 575.382 L2321.67 570.053 L2340.17 574.653 L2358.66 571.942 L2377.16 563.635 L2395.65 557.095 L2414.15 558.298 L2432.64 559.213 L2451.13 566.686 L2469.63 562.185 L2488.12 572.791 L2506.62 570.814 L2525.11 574.28 L2543.61 572.152 L2562.1 567.612 L2580.59 576.3 L2599.09 586.208 L2617.58 592.871 L2636.08 591.043 L2654.57 587.036 L2673.07 574.753 L2691.56 577.667 L2710.06 571.59 L2728.55 576.212 L2747.04 575.438 L2765.54 570.102 L2784.03 574.694 L2802.53 571.945 L2821.02 563.592 L2839.52 557.002 L2858.01 558.079 L2876.5 558.817 L2895 566.223 L2913.49 561.75 L2931.99 572.371 L2950.48 570.435 L2968.98 573.924 L2987.47 571.885 L3005.96 567.487 L3024.46 576.193 L3042.95 586.132 L3061.45 592.869 L3079.94 590.919 L3098.44 587.064 L3116.93 574.766 L3135.43 577.642 L3153.92 571.613 L3172.41 576.148 L3190.91 575.444 L3209.4 570.1 L3227.9 574.688 L3246.39 571.947 L3264.89 563.643 L3283.38 557.056 L3301.87 558.216 L3320.37 559.066 L3338.86 566.521 L3357.36 562.027 L3375.85 572.649 L3394.35 570.654 L3412.84 574.118 L3431.33 572.029 L3449.83 567.591 L3468.32 576.298 L3486.82 586.226 L3505.31 592.932 L3523.81 590.954 L3542.3 587.113 L3560.8 574.807 L3579.29 577.727 L3597.78 571.622 L3616.28 576.189 L3634.77 575.448 L3653.27 570.107 L3671.76 574.702 L3690.26 571.957 L3708.75 563.615 L3727.24 557.004 L3745.74 558.129 L3764.23 558.917 L3782.73 566.349 L3801.22 561.872 L3819.72 572.491 L3838.21 570.505 L3856.7 574.031 L3875.2 571.96 L3893.69 567.539 L3912.19 576.25 L3930.68 586.178 L3949.18 592.896 L3967.67 591.01 L3986.17 587.089 L4004.66 574.787 L4023.15 577.684 L4041.65 571.627 L4060.14 576.162 L4078.64 575.458 L4097.13 570.109 L4115.63 574.703 L4134.12 571.96 L4152.61 563.64 L4171.11 557.09 L4189.6 558.191 L4208.1 559.016 L4226.59 566.464 L4245.09 561.974 L4263.58 572.592 L4282.07 570.653 L4300.57 574.094 L4319.06 572.014 L4337.56 567.578 L4356.05 576.294 L4374.55 586.217 L4393.04 592.92 L4411.54 591.089 L4430.03 587.109 L4448.52 574.799 L4467.02 577.732 L4485.51 571.633 L4504.01 576.171 L4522.5 575.463 L4541 570.112 L4559.49 574.71 L4577.98 571.97 L4596.48 563.626 L4614.97 557.037 L4633.47 558.16 L4633.47 439.901 L4614.97 441.14 L4596.48 439.985 L4577.98 432.383 L4559.49 428.065 L4541 431.84 L4522.5 430.804 L4504.01 436.93 L4485.51 433.25 L4467.02 437.358 L4448.52 439.899 L4430.03 432.651 L4411.54 430.683 L4393.04 435.055 L4374.55 429.09 L4356.05 431.544 L4337.56 432.828 L4319.06 433.232 L4300.57 429.355 L4282.07 431.426 L4263.58 427.69 L4245.09 426.413 L4226.59 430.089 L4208.1 438.179 L4189.6 439.903 L4171.11 440.815 L4152.61 440.001 L4134.12 432.383 L4115.63 428.093 L4097.13 431.833 L4078.64 430.803 L4060.14 437.166 L4041.65 433.245 L4023.15 437.364 L4004.66 439.884 L3986.17 432.634 L3967.67 430.663 L3949.18 435.033 L3930.68 429.048 L3912.19 431.529 L3893.69 432.791 L3875.2 433.225 L3856.7 429.32 L3838.21 430.031 L3819.72 427.607 L3801.22 425.433 L3782.73 429.967 L3764.23 438.017 L3745.74 439.881 L3727.24 441.124 L3708.75 439.974 L3690.26 432.377 L3671.76 428.11 L3653.27 431.834 L3634.77 430.798 L3616.28 437.073 L3597.78 433.249 L3579.29 437.366 L3560.8 439.899 L3542.3 432.658 L3523.81 430.688 L3505.31 435.07 L3486.82 429.105 L3468.32 431.531 L3449.83 432.848 L3431.33 433.25 L3412.84 429.424 L3394.35 431.463 L3375.85 427.742 L3357.36 426.51 L3338.86 430.175 L3320.37 438.283 L3301.87 439.925 L3283.38 440.062 L3264.89 440.008 L3246.39 432.386 L3227.9 428.033 L3209.4 431.826 L3190.91 430.797 L3172.41 436.831 L3153.92 433.229 L3135.43 438.668 L3116.93 439.872 L3098.44 432.615 L3079.94 430.638 L3061.45 435.002 L3042.95 429.007 L3024.46 431.35 L3005.96 432.741 L2987.47 431.919 L2968.98 429.24 L2950.48 429.929 L2931.99 427.496 L2913.49 423.71 L2895 429.823 L2876.5 437.74 L2858.01 439.85 L2839.52 441.103 L2821.02 439.956 L2802.53 432.379 L2784.03 428.109 L2765.54 431.828 L2747.04 430.791 L2728.55 437.39 L2710.06 433.259 L2691.56 437.305 L2673.07 439.835 L2654.57 432.592 L2636.08 430.627 L2617.58 435.027 L2599.09 429.086 L2580.59 431.681 L2562.1 432.89 L2543.61 433.36 L2525.11 431.749 L2506.62 431.048 L2488.12 430.771 L2469.63 426.669 L2451.13 431.874 L2432.64 439.152 L2414.15 440.04 L2395.65 439.466 L2377.16 440.04 L2358.66 432.398 L2340.17 428.008 L2321.67 431.786 L2303.18 430.747 L2284.69 436.299 L2266.19 429.067 L2247.7 435.866 L2229.2 439.416 L2210.71 432.109 L2192.21 430.138 L2173.72 433.202 L2155.22 428.452 L2136.73 430.596 L2118.24 431.618 L2099.74 431.444 L2081.25 426.083 L2062.75 429.609 L2044.26 426.118 L2025.76 423.235 L2007.27 429.396 L1988.78 437.163 L1970.28 439.778 L1951.79 441.053 L1933.29 439.946 L1914.8 432.384 L1896.3 433.605 L1877.81 431.81 L1859.32 431.001 L1840.82 437.397 L1822.33 434.284 L1803.83 441.696 L1785.34 442.912 L1766.84 435.025 L1748.35 431.812 L1729.85 438.842 L1711.36 434.805 L1692.87 436.084 L1674.37 434.781 L1655.88 435.613 L1637.38 437.453 L1618.89 432.432 L1600.39 431.71 L1581.9 429.409 L1563.41 434.49 L1544.91 441.322 L1526.42 440.474 L1507.92 440.228 L1489.43 440.145 L1470.93 433.053 L1452.44 427.488 L1433.95 429.265 L1415.45 430.288 L1396.96 434.111 L1378.46 426.396 L1359.97 436.486 L1341.47 438.668 L1322.98 427.962 L1304.48 426.392 L1285.99 426.513 L1267.5 425.209 L1249 425.095 L1230.51 418.47 L1212.01 417.421 L1193.52 417.65 L1175.02 423.581 L1156.53 420.79 L1138.04 420.638 L1119.54 428.34 L1101.05 436.705 L1082.55 437.47 L1064.06 440.419 L1045.56 435.477 L1027.07 432.464 L1008.58 435.338 L990.081 433.434 L971.587 436.393 L953.092 437.634 L934.598 428.968 L916.104 435.49 L897.609 430.718 L879.115 424.75 L860.621 426.789 L842.126 424.735 L823.632 417.746 L805.137 417.289 L786.643 418.314 L768.149 431.84 L749.654 436.558 L731.16 440.136 L712.666 445.183 L694.171 444.193 L675.677 446.174 L657.183 464.158  Z" fill="#6d6d6d" fill-rule="evenodd" fill-opacity="0.5"/>
<polyline clip-path="url(#clip532)" style="stroke:#6d6d6d; stroke-linecap:round; stroke-linejoin:round; stroke-width:0; stroke-opacity:1; fill:none" points="657.183,464.168 675.677,465.715 694.171,468.023 712.666,470.996 731.16,473.015 749.654,473.067 768.149,471.568 786.643,470.243 805.137,470.886 823.632,473.455 842.126,476.043 860.621,477.562 879.115,478.978 897.609,479.738 916.104,479.877 934.598,480.12 953.092,480.084 971.587,479.569 990.081,479.645 1008.58,479.257 1027.07,478.729 1045.56,477.989 1064.06,477.298 1082.55,477.154 1101.05,476.328 1119.54,475.04 1138.04,474.393 1156.53,474.491 1175.02,475.115 1193.52,475.327 1212.01,474.774 1230.51,474.38 1249,474.951 1267.5,476.328 1285.99,476.971 1304.48,477.364 1322.98,477.803 1341.47,478.39 1359.97,478.626 1378.46,478.21 1396.96,477.855 1415.45,477.507 1433.95,477.992 1452.44,478 1470.93,477.989 1489.43,477.898 1507.92,477.69 1526.42,477.856 1544.91,477.524 1563.41,477.293 1581.9,477.651 1600.39,478.156 1618.89,478.801 1637.38,478.839 1655.88,478.14 1674.37,477.705 1692.87,478.356 1711.36,479.687 1729.85,480.117 1748.35,480.227 1766.84,480.243 1785.34,480.131 1803.83,479.74 1822.33,478.971 1840.82,478.439 1859.32,477.971 1877.81,478.351 1896.3,478.23 1914.8,478.018 1933.29,477.692 1951.79,477.313 1970.28,477.209 1988.78,476.44 2007.27,475.909 2025.76,476.223 2044.26,476.731 2062.75,477.295 2081.25,477.175 2099.74,476.248 2118.24,475.666 2136.73,476.257 2155.22,477.699 2173.72,478.384 2192.21,478.765 2210.71,479.005 2229.2,479.123 2247.7,478.925 2266.19,478.557 2284.69,478.366 2303.18,477.95 2321.67,478.326 2340.17,478.205 2358.66,478.024 2377.16,477.793 2395.65,477.476 2414.15,477.504 2432.64,477.059 2451.13,476.752 2469.63,477.067 2488.12,477.482 2506.62,477.974 2525.11,477.773 2543.61,476.774 2562.1,476.168 2580.59,476.811 2599.09,478.267 2617.58,478.91 2636.08,479.249 2654.57,479.47 2673.07,479.541 2691.56,479.278 2710.06,478.731 2728.55,478.421 2747.04,477.995 2765.54,478.366 2784.03,478.23 2802.53,478.005 2821.02,477.704 2839.52,477.35 2858.01,477.275 2876.5,476.661 2895,476.288 2913.49,476.63 2931.99,477.091 2950.48,477.609 2968.98,477.436 2987.47,476.508 3005.96,476.017 3024.46,476.696 3042.95,478.186 3061.45,478.881 3079.94,479.261 3098.44,479.494 3116.93,479.577 3135.43,479.325 3153.92,478.753 3172.41,478.425 3190.91,477.999 3209.4,478.364 3227.9,478.222 3246.39,478.014 3264.89,477.756 3283.38,477.425 3301.87,477.409 3320.37,476.908 3338.86,476.583 3357.36,476.905 3375.85,477.332 3394.35,477.82 3412.84,477.623 3431.33,476.656 3449.83,476.124 3468.32,476.8 3486.82,478.282 3505.31,478.948 3523.81,479.311 3542.3,479.536 3560.8,479.603 3579.29,479.342 3597.78,478.759 3616.28,478.428 3634.77,478 3653.27,478.37 3671.76,478.23 3690.26,478.006 3708.75,477.72 3727.24,477.37 3745.74,477.32 3764.23,476.756 3782.73,476.409 3801.22,476.748 3819.72,477.196 3838.21,477.704 3856.7,477.523 3875.2,476.583 3893.69,476.066 3912.19,476.741 3930.68,478.223 3949.18,478.91 3967.67,479.281 3986.17,479.511 4004.66,479.587 4023.15,479.332 4041.65,478.756 4060.14,478.429 4078.64,478.004 4097.13,478.37 4115.63,478.227 4134.12,478.008 4152.61,477.747 4171.11,477.41 4189.6,477.379 4208.1,476.854 4226.59,476.521 4245.09,476.848 4263.58,477.283 4282.07,477.78 4300.57,477.585 4319.06,476.628 4337.56,476.103 4356.05,476.778 4374.55,478.263 4393.04,478.932 4411.54,479.301 4430.03,479.526 4448.52,479.602 4467.02,479.337 4485.51,478.76 4504.01,478.43 4522.5,478.004 4541,478.373 4559.49,478.23 4577.98,478.009 4596.48,477.73 4614.97,477.387 4633.47,477.346 "/>
<path clip-path="url(#clip532)" d="M657.183 464.177 L675.677 480.834 L694.171 488.992 L712.666 503.761 L731.16 521.148 L749.654 524.746 L768.149 523.627 L786.643 523.588 L805.137 526.984 L823.632 540.604 L842.126 552.908 L860.621 555.469 L879.115 558.963 L897.609 561.244 L916.104 559.251 L934.598 558.691 L953.092 556.633 L971.587 556.415 L990.081 555.894 L1008.58 554.783 L1027.07 550.828 L1045.56 548.801 L1064.06 544.376 L1082.55 545.722 L1101.05 540.469 L1119.54 539.31 L1138.04 539.143 L1156.53 541.255 L1175.02 547.902 L1193.52 547.829 L1212.01 548.163 L1230.51 546.14 L1249 546.288 L1267.5 551.659 L1285.99 553.475 L1304.48 547.921 L1322.98 556.639 L1341.47 554.736 L1359.97 546.339 L1378.46 547.718 L1396.96 546.282 L1415.45 547.536 L1433.95 551.432 L1452.44 551.051 L1470.93 546.984 L1489.43 546.253 L1507.92 543.127 L1526.42 543.982 L1544.91 541.211 L1563.41 540.475 L1581.9 541.141 L1600.39 543.717 L1618.89 550.322 L1637.38 549.934 L1655.88 549.516 L1674.37 552.359 L1692.87 557.147 L1711.36 560.841 L1729.85 558.67 L1748.35 557.997 L1766.84 562.439 L1785.34 557.403 L1803.83 547.872 L1822.33 549.686 L1840.82 551.523 L1859.32 548.57 L1877.81 551.811 L1896.3 551.536 L1914.8 547.256 L1933.29 546.076 L1951.79 542.763 L1970.28 543.353 L1988.78 540.103 L2007.27 539.144 L2025.76 539.713 L2044.26 542.387 L2062.75 548.889 L2081.25 547.099 L2099.74 547.36 L2118.24 546.921 L2136.73 552.206 L2155.22 555.204 L2173.72 555.321 L2192.21 549.579 L2210.71 557.557 L2229.2 556.4 L2247.7 546.106 L2266.19 549.292 L2284.69 551.343 L2303.18 548.26 L2321.67 551.787 L2340.17 551.434 L2358.66 547.268 L2377.16 546.176 L2395.65 542.929 L2414.15 543.644 L2432.64 540.734 L2451.13 539.983 L2469.63 540.56 L2488.12 543.13 L2506.62 549.562 L2525.11 547.687 L2543.61 547.862 L2562.1 549.523 L2580.59 554.326 L2599.09 556.358 L2617.58 556.926 L2636.08 553.871 L2654.57 558.021 L2673.07 556.82 L2691.56 546.614 L2710.06 549.448 L2728.55 551.467 L2747.04 548.365 L2765.54 551.836 L2784.03 551.473 L2802.53 547.269 L2821.02 546.091 L2839.52 542.809 L2858.01 543.407 L2876.5 540.342 L2895 539.521 L2913.49 540.127 L2931.99 542.752 L2950.48 549.202 L2968.98 547.356 L2987.47 547.605 L3005.96 549.373 L3024.46 554.232 L3042.95 556.002 L3061.45 556.903 L3079.94 551.075 L3098.44 558.055 L3116.93 556.861 L3135.43 546.649 L3153.92 549.479 L3172.41 551.462 L3190.91 548.357 L3209.4 551.842 L3227.9 551.464 L3246.39 547.267 L3264.89 546.145 L3283.38 542.887 L3301.87 543.547 L3320.37 540.595 L3338.86 539.816 L3357.36 540.407 L3375.85 542.988 L3394.35 549.416 L3412.84 547.547 L3431.33 547.755 L3449.83 549.482 L3468.32 554.323 L3486.82 556.102 L3505.31 556.97 L3523.81 552.879 L3542.3 558.101 L3560.8 556.89 L3579.29 546.665 L3597.78 549.502 L3616.28 551.467 L3634.77 548.364 L3653.27 551.854 L3671.76 551.476 L3690.26 547.262 L3708.75 546.111 L3727.24 542.835 L3745.74 543.467 L3764.23 540.448 L3782.73 539.649 L3801.22 540.25 L3819.72 542.864 L3838.21 549.303 L3856.7 547.456 L3875.2 547.685 L3893.69 549.421 L3912.19 554.274 L3930.68 556.042 L3949.18 556.938 L3967.67 551.996 L3986.17 558.078 L4004.66 556.878 L4023.15 546.658 L4041.65 549.483 L4060.14 551.47 L4078.64 548.374 L4097.13 551.857 L4115.63 551.473 L4134.12 547.271 L4152.61 546.146 L4171.11 542.88 L4189.6 543.528 L4208.1 540.549 L4226.59 539.761 L4245.09 540.352 L4263.58 542.955 L4282.07 549.383 L4300.57 547.522 L4319.06 547.727 L4337.56 549.463 L4356.05 554.313 L4374.55 556.083 L4393.04 556.96 L4411.54 552.454 L4430.03 558.098 L4448.52 556.896 L4467.02 546.67 L4485.51 549.506 L4504.01 551.469 L4522.5 548.374 L4541 551.867 L4559.49 551.48 L4577.98 547.274 L4596.48 546.134 L4614.97 542.862 L4633.47 543.482 L4633.47 455.658 L4614.97 455.95 L4596.48 455.027 L4577.98 454.321 L4559.49 451.203 L4541 455.41 L4522.5 455.759 L4504.01 459.664 L4485.51 455.616 L4467.02 458.683 L4448.52 459.388 L4430.03 454.403 L4411.54 454.992 L4393.04 449.888 L4374.55 451.366 L4356.05 452.573 L4337.56 449.929 L4319.06 449.766 L4300.57 453.535 L4282.07 454.52 L4263.58 451.492 L4245.09 453.059 L4226.59 454.015 L4208.1 453.28 L4189.6 455.689 L4171.11 455.976 L4152.61 455.044 L4134.12 454.318 L4115.63 451.192 L4097.13 455.404 L4078.64 455.757 L4060.14 459.663 L4041.65 455.617 L4023.15 458.68 L4004.66 459.373 L3986.17 454.386 L3967.67 454.969 L3949.18 449.831 L3930.68 451.416 L3912.19 452.532 L3893.69 449.777 L3875.2 449.72 L3856.7 452.549 L3838.21 454.441 L3819.72 451.087 L3801.22 452.96 L3782.73 453.9 L3764.23 453.181 L3745.74 455.627 L3727.24 455.93 L3708.75 455.023 L3690.26 454.315 L3671.76 451.201 L3653.27 455.404 L3634.77 455.752 L3616.28 459.661 L3597.78 455.61 L3579.29 458.687 L3560.8 459.384 L3542.3 454.411 L3523.81 454.998 L3505.31 449.892 L3486.82 451.455 L3468.32 452.594 L3449.83 449.956 L3431.33 449.792 L3412.84 453.572 L3394.35 454.557 L3375.85 451.763 L3357.36 453.117 L3338.86 454.074 L3320.37 453.333 L3301.87 455.716 L3283.38 455.988 L3264.89 455.057 L3246.39 454.322 L3227.9 451.186 L3209.4 455.397 L3190.91 455.751 L3172.41 459.66 L3153.92 455.611 L3135.43 458.669 L3116.93 459.356 L3098.44 454.369 L3079.94 454.946 L3061.45 449.785 L3042.95 451.371 L3024.46 452.488 L3005.96 449.725 L2987.47 449.644 L2968.98 452.463 L2950.48 453.896 L2931.99 451.003 L2913.49 452.837 L2895 453.777 L2876.5 453.084 L2858.01 455.584 L2839.52 455.912 L2821.02 455.008 L2802.53 454.312 L2784.03 451.2 L2765.54 455.4 L2747.04 455.746 L2728.55 459.649 L2710.06 455.224 L2691.56 458.621 L2673.07 459.332 L2654.57 454.342 L2636.08 454.93 L2617.58 449.905 L2599.09 451.448 L2580.59 452.601 L2562.1 450.177 L2543.61 450.429 L2525.11 453.72 L2506.62 454.84 L2488.12 451.874 L2469.63 453.274 L2451.13 454.243 L2432.64 453.479 L2414.15 455.812 L2395.65 456.044 L2377.16 454.305 L2358.66 454.33 L2340.17 451.167 L2321.67 455.357 L2303.18 455.701 L2284.69 459.61 L2266.19 454.777 L2247.7 458.265 L2229.2 458.835 L2210.71 453.876 L2192.21 454.451 L2173.72 449.003 L2155.22 450.347 L2136.73 448.879 L2118.24 448.056 L2099.74 448.483 L2081.25 451.732 L2062.75 452.899 L2044.26 450.634 L2025.76 452.436 L2007.27 453.388 L1988.78 452.859 L1970.28 455.508 L1951.79 455.847 L1933.29 455 L1914.8 454.325 L1896.3 451.443 L1877.81 455.165 L1859.32 455.454 L1840.82 459.64 L1822.33 455.824 L1803.83 460.238 L1785.34 460.786 L1766.84 455.391 L1748.35 456.246 L1729.85 453.205 L1711.36 453.256 L1692.87 455.047 L1674.37 452.968 L1655.88 455.2 L1637.38 455.348 L1618.89 456.183 L1600.39 453.393 L1581.9 455.294 L1563.41 455.342 L1544.91 453.951 L1526.42 456.197 L1507.92 456.495 L1489.43 455.099 L1470.93 454.15 L1452.44 450.679 L1433.95 454.47 L1415.45 453.959 L1396.96 458.097 L1378.46 454.566 L1359.97 457.974 L1341.47 456.749 L1322.98 451.671 L1304.48 450.897 L1285.99 447.393 L1267.5 444.7 L1249 444.522 L1230.51 442.933 L1212.01 445.311 L1193.52 448.61 L1175.02 449.951 L1156.53 447.362 L1138.04 448.791 L1119.54 450.539 L1101.05 450.949 L1082.55 453.976 L1064.06 455.304 L1045.56 456.181 L1027.07 456.001 L1008.58 453.816 L990.081 457.095 L971.587 460.868 L953.092 461.444 L934.598 456.469 L916.104 456.167 L897.609 456.421 L879.115 451.124 L860.621 448.871 L842.126 442.569 L823.632 439.971 L805.137 439.661 L786.643 437.12 L768.149 442.679 L749.654 448.073 L731.16 450.62 L712.666 451.835 L694.171 451.802 L675.677 451.52 L657.183 464.161  Z" fill="#383838" fill-rule="evenodd" fill-opacity="0.5"/>
<polyline clip-path="url(#clip532)" style="stroke:#383838; stroke-linecap:round; stroke-linejoin:round; stroke-width:0; stroke-opacity:1; fill:none" points="657.183,464.168 675.677,465.715 694.171,468.023 712.666,470.996 731.16,473.015 749.654,473.067 768.149,471.568 786.643,470.243 805.137,470.886 823.632,473.455 842.126,476.043 860.621,477.562 879.115,478.978 897.609,479.738 916.104,479.877 934.598,480.12 953.092,480.084 971.587,479.569 990.081,479.645 1008.58,479.257 1027.07,478.729 1045.56,477.989 1064.06,477.298 1082.55,477.154 1101.05,476.328 1119.54,475.04 1138.04,474.393 1156.53,474.491 1175.02,475.115 1193.52,475.327 1212.01,474.774 1230.51,474.38 1249,474.951 1267.5,476.328 1285.99,476.971 1304.48,477.364 1322.98,477.803 1341.47,478.39 1359.97,478.626 1378.46,478.21 1396.96,477.855 1415.45,477.507 1433.95,477.992 1452.44,478 1470.93,477.989 1489.43,477.898 1507.92,477.69 1526.42,477.856 1544.91,477.524 1563.41,477.293 1581.9,477.651 1600.39,478.156 1618.89,478.801 1637.38,478.839 1655.88,478.14 1674.37,477.705 1692.87,478.356 1711.36,479.687 1729.85,480.117 1748.35,480.227 1766.84,480.243 1785.34,480.131 1803.83,479.74 1822.33,478.971 1840.82,478.439 1859.32,477.971 1877.81,478.351 1896.3,478.23 1914.8,478.018 1933.29,477.692 1951.79,477.313 1970.28,477.209 1988.78,476.44 2007.27,475.909 2025.76,476.223 2044.26,476.731 2062.75,477.295 2081.25,477.175 2099.74,476.248 2118.24,475.666 2136.73,476.257 2155.22,477.699 2173.72,478.384 2192.21,478.765 2210.71,479.005 2229.2,479.123 2247.7,478.925 2266.19,478.557 2284.69,478.366 2303.18,477.95 2321.67,478.326 2340.17,478.205 2358.66,478.024 2377.16,477.793 2395.65,477.476 2414.15,477.504 2432.64,477.059 2451.13,476.752 2469.63,477.067 2488.12,477.482 2506.62,477.974 2525.11,477.773 2543.61,476.774 2562.1,476.168 2580.59,476.811 2599.09,478.267 2617.58,478.91 2636.08,479.249 2654.57,479.47 2673.07,479.541 2691.56,479.278 2710.06,478.731 2728.55,478.421 2747.04,477.995 2765.54,478.366 2784.03,478.23 2802.53,478.005 2821.02,477.704 2839.52,477.35 2858.01,477.275 2876.5,476.661 2895,476.288 2913.49,476.63 2931.99,477.091 2950.48,477.609 2968.98,477.436 2987.47,476.508 3005.96,476.017 3024.46,476.696 3042.95,478.186 3061.45,478.881 3079.94,479.261 3098.44,479.494 3116.93,479.577 3135.43,479.325 3153.92,478.753 3172.41,478.425 3190.91,477.999 3209.4,478.364 3227.9,478.222 3246.39,478.014 3264.89,477.756 3283.38,477.425 3301.87,477.409 3320.37,476.908 3338.86,476.583 3357.36,476.905 3375.85,477.332 3394.35,477.82 3412.84,477.623 3431.33,476.656 3449.83,476.124 3468.32,476.8 3486.82,478.282 3505.31,478.948 3523.81,479.311 3542.3,479.536 3560.8,479.603 3579.29,479.342 3597.78,478.759 3616.28,478.428 3634.77,478 3653.27,478.37 3671.76,478.23 3690.26,478.006 3708.75,477.72 3727.24,477.37 3745.74,477.32 3764.23,476.756 3782.73,476.409 3801.22,476.748 3819.72,477.196 3838.21,477.704 3856.7,477.523 3875.2,476.583 3893.69,476.066 3912.19,476.741 3930.68,478.223 3949.18,478.91 3967.67,479.281 3986.17,479.511 4004.66,479.587 4023.15,479.332 4041.65,478.756 4060.14,478.429 4078.64,478.004 4097.13,478.37 4115.63,478.227 4134.12,478.008 4152.61,477.747 4171.11,477.41 4189.6,477.379 4208.1,476.854 4226.59,476.521 4245.09,476.848 4263.58,477.283 4282.07,477.78 4300.57,477.585 4319.06,476.628 4337.56,476.103 4356.05,476.778 4374.55,478.263 4393.04,478.932 4411.54,479.301 4430.03,479.526 4448.52,479.602 4467.02,479.337 4485.51,478.76 4504.01,478.43 4522.5,478.004 4541,478.373 4559.49,478.23 4577.98,478.009 4596.48,477.73 4614.97,477.387 4633.47,477.346 "/>
<path clip-path="url(#clip530)" d="M3871.51 593.434 L4612.26 593.434 L4612.26 75.0343 L3871.51 75.0343  Z" fill="#ffffff" fill-rule="evenodd" fill-opacity="1"/>
<polyline clip-path="url(#clip530)" style="stroke:#000000; stroke-linecap:round; stroke-linejoin:round; stroke-width:4; stroke-opacity:1; fill:none" points="3871.51,593.434 4612.26,593.434 4612.26,75.0343 3871.51,75.0343 3871.51,593.434 "/>
<polyline clip-path="url(#clip530)" style="stroke:#dedede; stroke-linecap:round; stroke-linejoin:round; stroke-width:2; stroke-opacity:1; fill:none" points="3918.34,204.634 4199.33,204.634 "/>
<path clip-path="url(#clip530)" d="M4247.84 237.996 L4266.93 237.996 L4266.93 172.082 L4246.16 176.249 L4246.16 165.601 L4266.82 161.434 L4278.51 161.434 L4278.51 237.996 L4297.61 237.996 L4297.61 247.834 L4247.84 247.834 L4247.84 237.996 Z" fill="#000000" fill-rule="nonzero" fill-opacity="1" /><path clip-path="url(#clip530)" d="M4346.22 169.131 Q4337.19 169.131 4332.62 178.043 Q4328.1 186.897 4328.1 204.721 Q4328.1 222.487 4332.62 231.399 Q4337.19 240.253 4346.22 240.253 Q4355.3 240.253 4359.82 231.399 Q4364.39 222.487 4364.39 204.721 Q4364.39 186.897 4359.82 178.043 Q4355.3 169.131 4346.22 169.131 M4346.22 159.872 Q4360.74 159.872 4368.38 171.388 Q4376.08 182.846 4376.08 204.721 Q4376.08 226.538 4368.38 238.054 Q4360.74 249.513 4346.22 249.513 Q4331.69 249.513 4323.99 238.054 Q4316.36 226.538 4316.36 204.721 Q4316.36 182.846 4323.99 171.388 Q4331.69 159.872 4346.22 159.872 Z" fill="#000000" fill-rule="nonzero" fill-opacity="1" /><path clip-path="url(#clip530)" d="M4421.62 169.131 Q4412.59 169.131 4408.02 178.043 Q4403.51 186.897 4403.51 204.721 Q4403.51 222.487 4408.02 231.399 Q4412.59 240.253 4421.62 240.253 Q4430.71 240.253 4435.22 231.399 Q4439.79 222.487 4439.79 204.721 Q4439.79 186.897 4435.22 178.043 Q4430.71 169.131 4421.62 169.131 M4421.62 159.872 Q4436.15 159.872 4443.79 171.388 Q4451.48 182.846 4451.48 204.721 Q4451.48 226.538 4443.79 238.054 Q4436.15 249.513 4421.62 249.513 Q4407.1 249.513 4399.4 238.054 Q4391.76 226.538 4391.76 204.721 Q4391.76 182.846 4399.4 171.388 Q4407.1 159.872 4421.62 159.872 Z" fill="#000000" fill-rule="nonzero" fill-opacity="1" /><path clip-path="url(#clip530)" d="M4545.52 209.814 Q4540.49 209.814 4537.59 214.096 Q4534.76 218.378 4534.76 226.017 Q4534.76 233.54 4537.59 237.881 Q4540.49 242.163 4545.52 242.163 Q4550.44 242.163 4553.28 237.881 Q4556.17 233.54 4556.17 226.017 Q4556.17 218.436 4553.28 214.154 Q4550.44 209.814 4545.52 209.814 M4545.52 202.464 Q4554.66 202.464 4560.05 208.83 Q4565.43 215.196 4565.43 226.017 Q4565.43 236.839 4559.99 243.205 Q4554.61 249.513 4545.52 249.513 Q4536.26 249.513 4530.88 243.205 Q4525.5 236.839 4525.5 226.017 Q4525.5 215.138 4530.88 208.83 Q4536.32 202.464 4545.52 202.464 M4485.8 167.221 Q4480.82 167.221 4477.93 171.562 Q4475.09 175.844 4475.09 183.367 Q4475.09 191.006 4477.93 195.288 Q4480.76 199.571 4485.8 199.571 Q4490.83 199.571 4493.67 195.288 Q4496.56 191.006 4496.56 183.367 Q4496.56 175.902 4493.67 171.562 Q4490.78 167.221 4485.8 167.221 M4538.06 159.872 L4547.32 159.872 L4493.26 249.513 L4484.01 249.513 L4538.06 159.872 M4485.8 159.872 Q4494.94 159.872 4500.38 166.238 Q4505.82 172.545 4505.82 183.367 Q4505.82 194.305 4500.38 200.612 Q4495 206.92 4485.8 206.92 Q4476.6 206.92 4471.22 200.612 Q4465.89 194.247 4465.89 183.367 Q4465.89 172.603 4471.27 166.238 Q4476.66 159.872 4485.8 159.872 Z" fill="#000000" fill-rule="nonzero" fill-opacity="1" /><polyline clip-path="url(#clip530)" style="stroke:#6d6d6d; stroke-linecap:round; stroke-linejoin:round; stroke-width:2; stroke-opacity:1; fill:none" points="3918.34,334.234 4199.33,334.234 "/>
<path clip-path="url(#clip530)" d="M4251.72 375.64 L4251.72 364.992 Q4256.11 367.076 4260.63 368.175 Q4265.14 369.275 4269.48 369.275 Q4281.06 369.275 4287.13 361.52 Q4293.27 353.708 4294.13 337.851 Q4290.78 342.828 4285.63 345.49 Q4280.48 348.152 4274.23 348.152 Q4261.26 348.152 4253.68 340.34 Q4246.16 332.469 4246.16 318.87 Q4246.16 305.56 4254.03 297.516 Q4261.9 289.472 4274.98 289.472 Q4289.97 289.472 4297.84 300.988 Q4305.77 312.446 4305.77 334.321 Q4305.77 354.749 4296.04 366.96 Q4286.38 379.113 4270 379.113 Q4265.6 379.113 4261.09 378.245 Q4256.58 377.376 4251.72 375.64 M4274.98 339.009 Q4282.85 339.009 4287.42 333.627 Q4292.05 328.245 4292.05 318.87 Q4292.05 309.553 4287.42 304.171 Q4282.85 298.731 4274.98 298.731 Q4267.11 298.731 4262.48 304.171 Q4257.91 309.553 4257.91 318.87 Q4257.91 328.245 4262.48 333.627 Q4267.11 339.009 4274.98 339.009 Z" fill="#000000" fill-rule="nonzero" fill-opacity="1" /><path clip-path="url(#clip530)" d="M4351.77 298.731 Q4342.74 298.731 4338.17 307.643 Q4333.66 316.497 4333.66 334.321 Q4333.66 352.087 4338.17 360.999 Q4342.74 369.853 4351.77 369.853 Q4360.86 369.853 4365.37 360.999 Q4369.94 352.087 4369.94 334.321 Q4369.94 316.497 4365.37 307.643 Q4360.86 298.731 4351.77 298.731 M4351.77 289.472 Q4366.3 289.472 4373.94 300.988 Q4381.63 312.446 4381.63 334.321 Q4381.63 356.138 4373.94 367.654 Q4366.3 379.113 4351.77 379.113 Q4337.25 379.113 4329.55 367.654 Q4321.91 356.138 4321.91 334.321 Q4321.91 312.446 4329.55 300.988 Q4337.25 289.472 4351.77 289.472 Z" fill="#000000" fill-rule="nonzero" fill-opacity="1" /><path clip-path="url(#clip530)" d="M4475.67 339.414 Q4470.64 339.414 4467.74 343.696 Q4464.91 347.978 4464.91 355.617 Q4464.91 363.14 4467.74 367.481 Q4470.64 371.763 4475.67 371.763 Q4480.59 371.763 4483.43 367.481 Q4486.32 363.14 4486.32 355.617 Q4486.32 348.036 4483.43 343.754 Q4480.59 339.414 4475.67 339.414 M4475.67 332.064 Q4484.82 332.064 4490.2 338.43 Q4495.58 344.796 4495.58 355.617 Q4495.58 366.439 4490.14 372.805 Q4484.76 379.113 4475.67 379.113 Q4466.41 379.113 4461.03 372.805 Q4455.65 366.439 4455.65 355.617 Q4455.65 344.738 4461.03 338.43 Q4466.47 332.064 4475.67 332.064 M4415.95 296.821 Q4410.97 296.821 4408.08 301.162 Q4405.24 305.444 4405.24 312.967 Q4405.24 320.606 4408.08 324.888 Q4410.92 329.171 4415.95 329.171 Q4420.99 329.171 4423.82 324.888 Q4426.71 320.606 4426.71 312.967 Q4426.71 305.502 4423.82 301.162 Q4420.93 296.821 4415.95 296.821 M4468.21 289.472 L4477.47 289.472 L4423.42 379.113 L4414.16 379.113 L4468.21 289.472 M4415.95 289.472 Q4425.09 289.472 4430.53 295.838 Q4435.97 302.145 4435.97 312.967 Q4435.97 323.905 4430.53 330.212 Q4425.15 336.52 4415.95 336.52 Q4406.75 336.52 4401.37 330.212 Q4396.04 323.847 4396.04 312.967 Q4396.04 302.203 4401.42 295.838 Q4406.81 289.472 4415.95 289.472 Z" fill="#000000" fill-rule="nonzero" fill-opacity="1" /><polyline clip-path="url(#clip530)" style="stroke:#383838; stroke-linecap:round; stroke-linejoin:round; stroke-width:2; stroke-opacity:1; fill:none" points="3918.34,463.834 4199.33,463.834 "/>
<path clip-path="url(#clip530)" d="M4275.79 466.004 Q4267.46 466.004 4262.65 470.46 Q4257.91 474.916 4257.91 482.729 Q4257.91 490.541 4262.65 494.997 Q4267.46 499.453 4275.79 499.453 Q4284.12 499.453 4288.93 494.997 Q4293.73 490.484 4293.73 482.729 Q4293.73 474.916 4288.93 470.46 Q4284.18 466.004 4275.79 466.004 M4264.1 461.028 Q4256.58 459.176 4252.35 454.025 Q4248.19 448.875 4248.19 441.468 Q4248.19 431.109 4255.53 425.09 Q4262.94 419.072 4275.79 419.072 Q4288.69 419.072 4296.04 425.09 Q4303.39 431.109 4303.39 441.468 Q4303.39 448.875 4299.17 454.025 Q4295 459.176 4287.54 461.028 Q4295.99 462.995 4300.67 468.724 Q4305.42 474.453 4305.42 482.729 Q4305.42 495.287 4297.72 502 Q4290.08 508.713 4275.79 508.713 Q4261.5 508.713 4253.8 502 Q4246.16 495.287 4246.16 482.729 Q4246.16 474.453 4250.9 468.724 Q4255.65 462.995 4264.1 461.028 M4259.82 442.567 Q4259.82 449.28 4263.98 453.042 Q4268.21 456.803 4275.79 456.803 Q4283.31 456.803 4287.54 453.042 Q4291.82 449.28 4291.82 442.567 Q4291.82 435.854 4287.54 432.093 Q4283.31 428.331 4275.79 428.331 Q4268.21 428.331 4263.98 432.093 Q4259.82 435.854 4259.82 442.567 Z" fill="#000000" fill-rule="nonzero" fill-opacity="1" /><path clip-path="url(#clip530)" d="M4351.19 428.331 Q4342.17 428.331 4337.59 437.243 Q4333.08 446.097 4333.08 463.921 Q4333.08 481.687 4337.59 490.599 Q4342.17 499.453 4351.19 499.453 Q4360.28 499.453 4364.79 490.599 Q4369.36 481.687 4369.36 463.921 Q4369.36 446.097 4364.79 437.243 Q4360.28 428.331 4351.19 428.331 M4351.19 419.072 Q4365.72 419.072 4373.36 430.588 Q4381.05 442.046 4381.05 463.921 Q4381.05 485.738 4373.36 497.254 Q4365.72 508.713 4351.19 508.713 Q4336.67 508.713 4328.97 497.254 Q4321.33 485.738 4321.33 463.921 Q4321.33 442.046 4328.97 430.588 Q4336.67 419.072 4351.19 419.072 Z" fill="#000000" fill-rule="nonzero" fill-opacity="1" /><path clip-path="url(#clip530)" d="M4475.09 469.014 Q4470.06 469.014 4467.17 473.296 Q4464.33 477.578 4464.33 485.217 Q4464.33 492.74 4467.17 497.081 Q4470.06 501.363 4475.09 501.363 Q4480.01 501.363 4482.85 497.081 Q4485.74 492.74 4485.74 485.217 Q4485.74 477.636 4482.85 473.354 Q4480.01 469.014 4475.09 469.014 M4475.09 461.664 Q4484.24 461.664 4489.62 468.03 Q4495 474.396 4495 485.217 Q4495 496.039 4489.56 502.405 Q4484.18 508.713 4475.09 508.713 Q4465.83 508.713 4460.45 502.405 Q4455.07 496.039 4455.07 485.217 Q4455.07 474.338 4460.45 468.03 Q4465.89 461.664 4475.09 461.664 M4415.37 426.421 Q4410.39 426.421 4407.5 430.762 Q4404.67 435.044 4404.67 442.567 Q4404.67 450.206 4407.5 454.488 Q4410.34 458.771 4415.37 458.771 Q4420.41 458.771 4423.24 454.488 Q4426.14 450.206 4426.14 442.567 Q4426.14 435.102 4423.24 430.762 Q4420.35 426.421 4415.37 426.421 M4467.63 419.072 L4476.89 419.072 L4422.84 508.713 L4413.58 508.713 L4467.63 419.072 M4415.37 419.072 Q4424.52 419.072 4429.95 425.438 Q4435.39 431.745 4435.39 442.567 Q4435.39 453.505 4429.95 459.812 Q4424.57 466.12 4415.37 466.12 Q4406.17 466.12 4400.79 459.812 Q4395.46 453.447 4395.46 442.567 Q4395.46 431.803 4400.85 425.438 Q4406.23 419.072 4415.37 419.072 Z" fill="#000000" fill-rule="nonzero" fill-opacity="1" /></svg>
