<?xml version="1.0" encoding="UTF-8" standalone="no"?>
<svg
   width="700"
   height="450"
   viewBox="0 0 2800 1800"
   version="1.1"
   id="svg161"
   sodipodi:docname="fig6_prod_time.svg"
   inkscape:version="1.3 (0e150ed6c4, 2023-07-21)"
   xmlns:inkscape="http://www.inkscape.org/namespaces/inkscape"
   xmlns:sodipodi="http://sodipodi.sourceforge.net/DTD/sodipodi-0.dtd"
   xmlns="http://www.w3.org/2000/svg"
   xmlns:svg="http://www.w3.org/2000/svg">
  <sodipodi:namedview
     id="namedview161"
     pagecolor="#ffffff"
     bordercolor="#000000"
     borderopacity="0.25"
     inkscape:showpageshadow="2"
     inkscape:pageopacity="0.0"
     inkscape:pagecheckerboard="0"
     inkscape:deskcolor="#d1d1d1"
     inkscape:zoom="0.73357143"
     inkscape:cx="389.19182"
     inkscape:cy="110.4187"
     inkscape:window-width="1920"
     inkscape:window-height="1010"
     inkscape:window-x="-6"
     inkscape:window-y="-6"
     inkscape:window-maximized="1"
     inkscape:current-layer="svg161" />
  <defs
     id="defs1">
    <clipPath
       id="clip790">
      <rect
         x="0"
         y="0"
         width="2800"
         height="1800"
         id="rect1" />
    </clipPath>
    <clipPath
       id="clip730">
      <rect
         x="0"
         y="0"
         width="2800"
         height="1800"
         id="rect1-9" />
    </clipPath>
    <clipPath
       id="clipPath2">
      <rect
         x="0"
         y="0"
         width="2800"
         height="1800"
         id="rect2-0" />
    </clipPath>
    <clipPath
       id="clipPath3">
      <rect
         x="0"
         y="0"
         width="2800"
         height="1800"
         id="rect3-6" />
    </clipPath>
    <clipPath
       id="clipPath4">
      <rect
         x="0"
         y="0"
         width="2800"
         height="1800"
         id="rect4" />
    </clipPath>
    <clipPath
       id="clipPath5">
      <rect
         x="0"
         y="0"
         width="2800"
         height="1800"
         id="rect5" />
    </clipPath>
    <clipPath
       id="clipPath6">
      <rect
         x="0"
         y="0"
         width="2800"
         height="1800"
         id="rect6" />
    </clipPath>
    <clipPath
       id="clipPath7">
      <rect
         x="0"
         y="0"
         width="2800"
         height="1800"
         id="rect7" />
    </clipPath>
    <clipPath
       id="clipPath8">
      <rect
         x="0"
         y="0"
         width="2800"
         height="1800"
         id="rect8" />
    </clipPath>
    <clipPath
       id="clipPath9">
      <rect
         x="0"
         y="0"
         width="2800"
         height="1800"
         id="rect9" />
    </clipPath>
    <clipPath
       id="clipPath10">
      <rect
         x="0"
         y="0"
         width="2800"
         height="1800"
         id="rect10" />
    </clipPath>
    <clipPath
       id="clipPath11">
      <rect
         x="0"
         y="0"
         width="2800"
         height="1800"
         id="rect11" />
    </clipPath>
    <clipPath
       id="clipPath12">
      <rect
         x="0"
         y="0"
         width="2800"
         height="1800"
         id="rect12" />
    </clipPath>
    <clipPath
       id="clipPath13">
      <rect
         x="0"
         y="0"
         width="2800"
         height="1800"
         id="rect13" />
    </clipPath>
    <clipPath
       id="clipPath14">
      <rect
         x="0"
         y="0"
         width="2800"
         height="1800"
         id="rect14" />
    </clipPath>
    <clipPath
       id="clipPath15">
      <rect
         x="0"
         y="0"
         width="2800"
         height="1800"
         id="rect15" />
    </clipPath>
    <clipPath
       id="clipPath16">
      <rect
         x="0"
         y="0"
         width="2800"
         height="1800"
         id="rect16" />
    </clipPath>
    <clipPath
       id="clipPath17">
      <rect
         x="0"
         y="0"
         width="2800"
         height="1800"
         id="rect17" />
    </clipPath>
    <clipPath
       id="clipPath18">
      <rect
         x="0"
         y="0"
         width="2800"
         height="1800"
         id="rect18" />
    </clipPath>
    <clipPath
       id="clipPath19">
      <rect
         x="0"
         y="0"
         width="2800"
         height="1800"
         id="rect19" />
    </clipPath>
    <clipPath
       id="clipPath20">
      <rect
         x="0"
         y="0"
         width="2800"
         height="1800"
         id="rect20" />
    </clipPath>
    <clipPath
       id="clipPath21">
      <rect
         x="0"
         y="0"
         width="2800"
         height="1800"
         id="rect21" />
    </clipPath>
    <clipPath
       id="clipPath22">
      <rect
         x="0"
         y="0"
         width="2800"
         height="1800"
         id="rect22" />
    </clipPath>
    <clipPath
       id="clipPath23">
      <rect
         x="0"
         y="0"
         width="2800"
         height="1800"
         id="rect23" />
    </clipPath>
    <clipPath
       id="clipPath24">
      <rect
         x="0"
         y="0"
         width="2800"
         height="1800"
         id="rect24" />
    </clipPath>
    <clipPath
       id="clipPath25">
      <rect
         x="0"
         y="0"
         width="2800"
         height="1800"
         id="rect25" />
    </clipPath>
    <clipPath
       id="clipPath26">
      <rect
         x="0"
         y="0"
         width="2800"
         height="1800"
         id="rect26" />
    </clipPath>
    <clipPath
       id="clipPath27">
      <rect
         x="0"
         y="0"
         width="2800"
         height="1800"
         id="rect27" />
    </clipPath>
    <clipPath
       id="clipPath28">
      <rect
         x="0"
         y="0"
         width="2800"
         height="1800"
         id="rect28" />
    </clipPath>
  </defs>
  <path
     clip-path="url(#clip790)"
     d="M0 1800 L2800 1800 L2800 -2.27374e-13 L0 -2.27374e-13  Z"
     fill="#ffffff"
     fill-rule="evenodd"
     fill-opacity="1"
     id="path1"
     inkscape:export-filename="..\..\process\rosenbrock\fig6_prod_time.pdf"
     inkscape:export-xdpi="700"
     inkscape:export-ydpi="700" />
  <defs
     id="defs2">
    <clipPath
       id="clip791">
      <rect
         x="560"
         y="0"
         width="1961"
         height="1800"
         id="rect2" />
    </clipPath>
  </defs>
  <path
     clip-path="url(#clip790)"
     d="M538.156 1562.54 L2402.98 1562.54 L2402.98 47.2441 L538.156 47.2441  Z"
     fill="#ffffff"
     fill-rule="evenodd"
     fill-opacity="1"
     id="path2" />
  <defs
     id="defs3">
    <clipPath
       id="clip792">
      <rect
         x="538"
         y="47"
         width="1866"
         height="1516"
         id="rect3" />
    </clipPath>
  </defs>
  <polyline
     clip-path="url(#clip792)"
     style="stroke:#000000; stroke-linecap:round; stroke-linejoin:round; stroke-width:2; stroke-opacity:0.1; fill:none"
     points="590.934,1562.54 590.934,47.2441 "
     id="polyline3" />
  <polyline
     clip-path="url(#clip792)"
     style="stroke:#000000; stroke-linecap:round; stroke-linejoin:round; stroke-width:2; stroke-opacity:0.1; fill:none"
     points="1177.36,1562.54 1177.36,47.2441 "
     id="polyline4" />
  <polyline
     clip-path="url(#clip792)"
     style="stroke:#000000; stroke-linecap:round; stroke-linejoin:round; stroke-width:2; stroke-opacity:0.1; fill:none"
     points="1763.78,1562.54 1763.78,47.2441 "
     id="polyline5" />
  <polyline
     clip-path="url(#clip792)"
     style="stroke:#000000; stroke-linecap:round; stroke-linejoin:round; stroke-width:2; stroke-opacity:0.1; fill:none"
     points="2350.21,1562.54 2350.21,47.2441 "
     id="polyline6" />
  <polyline
     clip-path="url(#clip790)"
     style="stroke:#000000; stroke-linecap:round; stroke-linejoin:round; stroke-width:4; stroke-opacity:1; fill:none"
     points="538.156,1562.54 2402.98,1562.54 "
     id="polyline7" />
  <polyline
     clip-path="url(#clip790)"
     style="stroke:#000000; stroke-linecap:round; stroke-linejoin:round; stroke-width:4; stroke-opacity:1; fill:none"
     points="590.934,1562.54 590.934,1543.64 "
     id="polyline8" />
  <polyline
     clip-path="url(#clip790)"
     style="stroke:#000000; stroke-linecap:round; stroke-linejoin:round; stroke-width:4; stroke-opacity:1; fill:none"
     points="1177.36,1562.54 1177.36,1543.64 "
     id="polyline9" />
  <polyline
     clip-path="url(#clip790)"
     style="stroke:#000000; stroke-linecap:round; stroke-linejoin:round; stroke-width:4; stroke-opacity:1; fill:none"
     points="1763.78,1562.54 1763.78,1543.64 "
     id="polyline10" />
  <polyline
     clip-path="url(#clip790)"
     style="stroke:#000000; stroke-linecap:round; stroke-linejoin:round; stroke-width:4; stroke-opacity:1; fill:none"
     points="2350.21,1562.54 2350.21,1543.64 "
     id="polyline11" />
  <path
     clip-path="url(#clip790)"
     d="M574.102 1653.65 L587.47 1653.65 L587.47 1607.51 L572.927 1610.43 L572.927 1602.98 L587.389 1600.06 L595.572 1600.06 L595.572 1653.65 L608.94 1653.65 L608.94 1660.54 L574.102 1660.54 L574.102 1653.65 Z"
     fill="#000000"
     fill-rule="nonzero"
     fill-opacity="1"
     id="path11" />
  <path
     clip-path="url(#clip790)"
     d="M1168 1653.65 L1196.56 1653.65 L1196.56 1660.54 L1158.16 1660.54 L1158.16 1653.65 Q1162.81 1648.83 1170.84 1640.73 Q1178.9 1632.59 1180.96 1630.24 Q1184.89 1625.82 1186.43 1622.79 Q1188.01 1619.71 1188.01 1616.75 Q1188.01 1611.93 1184.61 1608.89 Q1181.25 1605.85 1175.82 1605.85 Q1171.97 1605.85 1167.68 1607.19 Q1163.42 1608.53 1158.56 1611.24 L1158.56 1602.98 Q1163.5 1600.99 1167.8 1599.98 Q1172.09 1598.97 1175.66 1598.97 Q1185.05 1598.97 1190.64 1603.67 Q1196.23 1608.36 1196.23 1616.22 Q1196.23 1619.95 1194.82 1623.31 Q1193.44 1626.63 1189.75 1631.17 Q1188.74 1632.35 1183.31 1637.98 Q1177.88 1643.57 1168 1653.65 Z"
     fill="#000000"
     fill-rule="nonzero"
     fill-opacity="1"
     id="path12" />
  <path
     clip-path="url(#clip790)"
     d="M1771.22 1627.93 Q1777.09 1629.19 1780.37 1633.16 Q1783.69 1637.13 1783.69 1642.96 Q1783.69 1651.91 1777.53 1656.81 Q1771.38 1661.72 1760.03 1661.72 Q1756.23 1661.72 1752.18 1660.95 Q1748.17 1660.22 1743.87 1658.72 L1743.87 1650.82 Q1747.27 1652.8 1751.33 1653.82 Q1755.38 1654.83 1759.79 1654.83 Q1767.49 1654.83 1771.5 1651.79 Q1775.55 1648.75 1775.55 1642.96 Q1775.55 1637.61 1771.78 1634.61 Q1768.06 1631.58 1761.37 1631.58 L1754.32 1631.58 L1754.32 1624.85 L1761.7 1624.85 Q1767.73 1624.85 1770.93 1622.46 Q1774.13 1620.03 1774.13 1615.49 Q1774.13 1610.84 1770.81 1608.36 Q1767.53 1605.85 1761.37 1605.85 Q1758.01 1605.85 1754.16 1606.58 Q1750.31 1607.31 1745.69 1608.85 L1745.69 1601.56 Q1750.35 1600.26 1754.4 1599.61 Q1758.5 1598.97 1762.1 1598.97 Q1771.42 1598.97 1776.85 1603.22 Q1782.27 1607.43 1782.27 1614.64 Q1782.27 1619.67 1779.4 1623.15 Q1776.52 1626.59 1771.22 1627.93 Z"
     fill="#000000"
     fill-rule="nonzero"
     fill-opacity="1"
     id="path13" />
  <path
     clip-path="url(#clip790)"
     d="M2355.47 1607.19 L2334.81 1639.48 L2355.47 1639.48 L2355.47 1607.19 M2353.32 1600.06 L2363.61 1600.06 L2363.61 1639.48 L2372.24 1639.48 L2372.24 1646.28 L2363.61 1646.28 L2363.61 1660.54 L2355.47 1660.54 L2355.47 1646.28 L2328.17 1646.28 L2328.17 1638.38 L2353.32 1600.06 Z"
     fill="#000000"
     fill-rule="nonzero"
     fill-opacity="1"
     id="path14" />
  <path
     clip-path="url(#clip790)"
     d="M1133.56 1709.08 L1142.91 1709.08 L1142.91 1770.33 L1176.57 1770.33 L1176.57 1778.2 L1133.56 1778.2 L1133.56 1709.08 Z"
     fill="#000000"
     fill-rule="nonzero"
     fill-opacity="1"
     id="path15" />
  <path
     clip-path="url(#clip790)"
     d="M1209.58 1752.14 Q1199.25 1752.14 1195.27 1754.5 Q1191.29 1756.86 1191.29 1762.56 Q1191.29 1767.09 1194.25 1769.78 Q1197.26 1772.42 1202.4 1772.42 Q1209.48 1772.42 1213.74 1767.42 Q1218.05 1762.37 1218.05 1754.04 L1218.05 1752.14 L1209.58 1752.14 M1226.57 1748.62 L1226.57 1778.2 L1218.05 1778.2 L1218.05 1770.33 Q1215.13 1775.06 1210.78 1777.32 Q1206.43 1779.55 1200.13 1779.55 Q1192.17 1779.55 1187.45 1775.1 Q1182.77 1770.61 1182.77 1763.11 Q1182.77 1754.36 1188.6 1749.92 Q1194.48 1745.47 1206.1 1745.47 L1218.05 1745.47 L1218.05 1744.64 Q1218.05 1738.76 1214.16 1735.57 Q1210.32 1732.32 1203.33 1732.32 Q1198.88 1732.32 1194.67 1733.39 Q1190.46 1734.45 1186.57 1736.58 L1186.57 1728.71 Q1191.24 1726.91 1195.64 1726.03 Q1200.04 1725.1 1204.21 1725.1 Q1215.46 1725.1 1221.01 1730.94 Q1226.57 1736.77 1226.57 1748.62 Z"
     fill="#000000"
     fill-rule="nonzero"
     fill-opacity="1"
     id="path16" />
  <path
     clip-path="url(#clip790)"
     d="M1252.54 1711.63 L1252.54 1726.35 L1270.08 1726.35 L1270.08 1732.97 L1252.54 1732.97 L1252.54 1761.12 Q1252.54 1767.46 1254.25 1769.27 Q1256.01 1771.07 1261.33 1771.07 L1270.08 1771.07 L1270.08 1778.2 L1261.33 1778.2 Q1251.47 1778.2 1247.72 1774.55 Q1243.97 1770.84 1243.97 1761.12 L1243.97 1732.97 L1237.72 1732.97 L1237.72 1726.35 L1243.97 1726.35 L1243.97 1711.63 L1252.54 1711.63 Z"
     fill="#000000"
     fill-rule="nonzero"
     fill-opacity="1"
     id="path17" />
  <path
     clip-path="url(#clip790)"
     d="M1325.64 1750.15 L1325.64 1754.32 L1286.47 1754.32 Q1287.03 1763.11 1291.75 1767.74 Q1296.52 1772.32 1304.99 1772.32 Q1309.9 1772.32 1314.48 1771.12 Q1319.11 1769.92 1323.65 1767.51 L1323.65 1775.57 Q1319.07 1777.51 1314.25 1778.53 Q1309.44 1779.55 1304.48 1779.55 Q1292.08 1779.55 1284.81 1772.32 Q1277.58 1765.1 1277.58 1752.79 Q1277.58 1740.06 1284.44 1732.6 Q1291.33 1725.1 1303 1725.1 Q1313.46 1725.1 1319.53 1731.86 Q1325.64 1738.57 1325.64 1750.15 M1317.12 1747.65 Q1317.03 1740.66 1313.19 1736.49 Q1309.39 1732.32 1303.09 1732.32 Q1295.96 1732.32 1291.66 1736.35 Q1287.4 1740.38 1286.75 1747.7 L1317.12 1747.65 Z"
     fill="#000000"
     fill-rule="nonzero"
     fill-opacity="1"
     id="path18" />
  <path
     clip-path="url(#clip790)"
     d="M1382.72 1746.91 L1382.72 1778.2 L1374.2 1778.2 L1374.2 1747.19 Q1374.2 1739.82 1371.33 1736.17 Q1368.46 1732.51 1362.72 1732.51 Q1355.82 1732.51 1351.84 1736.91 Q1347.86 1741.31 1347.86 1748.9 L1347.86 1778.2 L1339.3 1778.2 L1339.3 1726.35 L1347.86 1726.35 L1347.86 1734.41 Q1350.92 1729.73 1355.04 1727.42 Q1359.2 1725.1 1364.62 1725.1 Q1373.56 1725.1 1378.14 1730.66 Q1382.72 1736.17 1382.72 1746.91 Z"
     fill="#000000"
     fill-rule="nonzero"
     fill-opacity="1"
     id="path19" />
  <path
     clip-path="url(#clip790)"
     d="M1408.14 1711.63 L1408.14 1726.35 L1425.69 1726.35 L1425.69 1732.97 L1408.14 1732.97 L1408.14 1761.12 Q1408.14 1767.46 1409.85 1769.27 Q1411.61 1771.07 1416.94 1771.07 L1425.69 1771.07 L1425.69 1778.2 L1416.94 1778.2 Q1407.07 1778.2 1403.32 1774.55 Q1399.57 1770.84 1399.57 1761.12 L1399.57 1732.97 L1393.32 1732.97 L1393.32 1726.35 L1399.57 1726.35 L1399.57 1711.63 L1408.14 1711.63 Z"
     fill="#000000"
     fill-rule="nonzero"
     fill-opacity="1"
     id="path20" />
  <path
     clip-path="url(#clip790)"
     d="M1500.08 1727.88 L1500.08 1735.94 Q1496.47 1734.08 1492.58 1733.16 Q1488.69 1732.23 1484.53 1732.23 Q1478.19 1732.23 1474.99 1734.18 Q1471.84 1736.12 1471.84 1740.01 Q1471.84 1742.97 1474.11 1744.69 Q1476.38 1746.35 1483.23 1747.88 L1486.15 1748.53 Q1495.22 1750.47 1499.02 1754.04 Q1502.86 1757.56 1502.86 1763.9 Q1502.86 1771.12 1497.12 1775.33 Q1491.43 1779.55 1481.43 1779.55 Q1477.26 1779.55 1472.72 1778.71 Q1468.23 1777.93 1463.23 1776.31 L1463.23 1767.51 Q1467.95 1769.96 1472.54 1771.21 Q1477.12 1772.42 1481.61 1772.42 Q1487.63 1772.42 1490.87 1770.38 Q1494.11 1768.3 1494.11 1764.55 Q1494.11 1761.07 1491.75 1759.22 Q1489.44 1757.37 1481.52 1755.66 L1478.56 1754.96 Q1470.64 1753.3 1467.12 1749.87 Q1463.6 1746.4 1463.6 1740.38 Q1463.6 1733.07 1468.79 1729.08 Q1473.97 1725.1 1483.51 1725.1 Q1488.23 1725.1 1492.4 1725.8 Q1496.56 1726.49 1500.08 1727.88 Z"
     fill="#000000"
     fill-rule="nonzero"
     fill-opacity="1"
     id="path21" />
  <path
     clip-path="url(#clip790)"
     d="M1524.67 1770.43 L1524.67 1797.93 L1516.1 1797.93 L1516.1 1726.35 L1524.67 1726.35 L1524.67 1734.22 Q1527.35 1729.59 1531.43 1727.37 Q1535.55 1725.1 1541.24 1725.1 Q1550.69 1725.1 1556.56 1732.6 Q1562.49 1740.1 1562.49 1752.32 Q1562.49 1764.55 1556.56 1772.05 Q1550.69 1779.55 1541.24 1779.55 Q1535.55 1779.55 1531.43 1777.32 Q1527.35 1775.06 1524.67 1770.43 M1553.65 1752.32 Q1553.65 1742.93 1549.76 1737.6 Q1545.92 1732.23 1539.16 1732.23 Q1532.4 1732.23 1528.51 1737.6 Q1524.67 1742.93 1524.67 1752.32 Q1524.67 1761.72 1528.51 1767.09 Q1532.4 1772.42 1539.16 1772.42 Q1545.92 1772.42 1549.76 1767.09 Q1553.65 1761.72 1553.65 1752.32 Z"
     fill="#000000"
     fill-rule="nonzero"
     fill-opacity="1"
     id="path22" />
  <path
     clip-path="url(#clip790)"
     d="M1620.96 1750.15 L1620.96 1754.32 L1581.8 1754.32 Q1582.35 1763.11 1587.07 1767.74 Q1591.84 1772.32 1600.31 1772.32 Q1605.22 1772.32 1609.81 1771.12 Q1614.43 1769.92 1618.97 1767.51 L1618.97 1775.57 Q1614.39 1777.51 1609.57 1778.53 Q1604.76 1779.55 1599.81 1779.55 Q1587.4 1779.55 1580.13 1772.32 Q1572.91 1765.1 1572.91 1752.79 Q1572.91 1740.06 1579.76 1732.6 Q1586.66 1725.1 1598.32 1725.1 Q1608.79 1725.1 1614.85 1731.86 Q1620.96 1738.57 1620.96 1750.15 M1612.44 1747.65 Q1612.35 1740.66 1608.51 1736.49 Q1604.71 1732.32 1598.42 1732.32 Q1591.29 1732.32 1586.98 1736.35 Q1582.72 1740.38 1582.07 1747.7 L1612.44 1747.65 Z"
     fill="#000000"
     fill-rule="nonzero"
     fill-opacity="1"
     id="path23" />
  <path
     clip-path="url(#clip790)"
     d="M1672.26 1728.34 L1672.26 1736.31 Q1668.65 1734.32 1664.99 1733.34 Q1661.38 1732.32 1657.68 1732.32 Q1649.39 1732.32 1644.8 1737.6 Q1640.22 1742.83 1640.22 1752.32 Q1640.22 1761.82 1644.8 1767.09 Q1649.39 1772.32 1657.68 1772.32 Q1661.38 1772.32 1664.99 1771.35 Q1668.65 1770.33 1672.26 1768.34 L1672.26 1776.21 Q1668.69 1777.88 1664.85 1778.71 Q1661.05 1779.55 1656.75 1779.55 Q1645.04 1779.55 1638.14 1772.19 Q1631.24 1764.82 1631.24 1752.32 Q1631.24 1739.64 1638.18 1732.37 Q1645.18 1725.1 1657.3 1725.1 Q1661.24 1725.1 1664.99 1725.94 Q1668.74 1726.72 1672.26 1728.34 Z"
     fill="#000000"
     fill-rule="nonzero"
     fill-opacity="1"
     id="path24" />
  <path
     clip-path="url(#clip790)"
     d="M1687.07 1726.35 L1695.59 1726.35 L1695.59 1778.2 L1687.07 1778.2 L1687.07 1726.35 M1687.07 1706.17 L1695.59 1706.17 L1695.59 1716.95 L1687.07 1716.95 L1687.07 1706.17 Z"
     fill="#000000"
     fill-rule="nonzero"
     fill-opacity="1"
     id="path25" />
  <path
     clip-path="url(#clip790)"
     d="M1757.77 1750.15 L1757.77 1754.32 L1718.6 1754.32 Q1719.16 1763.11 1723.88 1767.74 Q1728.65 1772.32 1737.12 1772.32 Q1742.03 1772.32 1746.61 1771.12 Q1751.24 1769.92 1755.78 1767.51 L1755.78 1775.57 Q1751.19 1777.51 1746.38 1778.53 Q1741.56 1779.55 1736.61 1779.55 Q1724.2 1779.55 1716.93 1772.32 Q1709.71 1765.1 1709.71 1752.79 Q1709.71 1740.06 1716.56 1732.6 Q1723.46 1725.1 1735.13 1725.1 Q1745.59 1725.1 1751.66 1731.86 Q1757.77 1738.57 1757.77 1750.15 M1749.25 1747.65 Q1749.16 1740.66 1745.31 1736.49 Q1741.52 1732.32 1735.22 1732.32 Q1728.09 1732.32 1723.79 1736.35 Q1719.53 1740.38 1718.88 1747.7 L1749.25 1747.65 Z"
     fill="#000000"
     fill-rule="nonzero"
     fill-opacity="1"
     id="path26" />
  <path
     clip-path="url(#clip790)"
     d="M1804.8 1727.88 L1804.8 1735.94 Q1801.19 1734.08 1797.3 1733.16 Q1793.42 1732.23 1789.25 1732.23 Q1782.91 1732.23 1779.71 1734.18 Q1776.56 1736.12 1776.56 1740.01 Q1776.56 1742.97 1778.83 1744.69 Q1781.1 1746.35 1787.95 1747.88 L1790.87 1748.53 Q1799.94 1750.47 1803.74 1754.04 Q1807.58 1757.56 1807.58 1763.9 Q1807.58 1771.12 1801.84 1775.33 Q1796.15 1779.55 1786.15 1779.55 Q1781.98 1779.55 1777.44 1778.71 Q1772.95 1777.93 1767.95 1776.31 L1767.95 1767.51 Q1772.67 1769.96 1777.26 1771.21 Q1781.84 1772.42 1786.33 1772.42 Q1792.35 1772.42 1795.59 1770.38 Q1798.83 1768.3 1798.83 1764.55 Q1798.83 1761.07 1796.47 1759.22 Q1794.16 1757.37 1786.24 1755.66 L1783.28 1754.96 Q1775.36 1753.3 1771.84 1749.87 Q1768.32 1746.4 1768.32 1740.38 Q1768.32 1733.07 1773.51 1729.08 Q1778.69 1725.1 1788.23 1725.1 Q1792.95 1725.1 1797.12 1725.8 Q1801.29 1726.49 1804.8 1727.88 Z"
     fill="#000000"
     fill-rule="nonzero"
     fill-opacity="1"
     id="path27" />
  <polyline
     clip-path="url(#clip790)"
     style="stroke:#000000; stroke-linecap:round; stroke-linejoin:round; stroke-width:4; stroke-opacity:1; fill:none"
     points="538.156,1562.54 538.156,47.2441 "
     id="polyline27" />
  <polyline
     clip-path="url(#clip790)"
     style="stroke:#000000; stroke-linecap:round; stroke-linejoin:round; stroke-width:4; stroke-opacity:1; fill:none"
     points="538.156,1530.61 557.053,1530.61 "
     id="polyline28" />
  <polyline
     clip-path="url(#clip790)"
     style="stroke:#000000; stroke-linecap:round; stroke-linejoin:round; stroke-width:4; stroke-opacity:1; fill:none"
     points="538.156,1285.01 557.053,1285.01 "
     id="polyline29" />
  <polyline
     clip-path="url(#clip790)"
     style="stroke:#000000; stroke-linecap:round; stroke-linejoin:round; stroke-width:4; stroke-opacity:1; fill:none"
     points="538.156,1039.42 557.053,1039.42 "
     id="polyline30" />
  <polyline
     clip-path="url(#clip790)"
     style="stroke:#000000; stroke-linecap:round; stroke-linejoin:round; stroke-width:4; stroke-opacity:1; fill:none"
     points="538.156,793.819 557.053,793.819 "
     id="polyline31" />
  <polyline
     clip-path="url(#clip790)"
     style="stroke:#000000; stroke-linecap:round; stroke-linejoin:round; stroke-width:4; stroke-opacity:1; fill:none"
     points="538.156,548.222 557.053,548.222 "
     id="polyline32" />
  <polyline
     clip-path="url(#clip790)"
     style="stroke:#000000; stroke-linecap:round; stroke-linejoin:round; stroke-width:4; stroke-opacity:1; fill:none"
     points="538.156,302.625 557.053,302.625 "
     id="polyline33" />
  <polyline
     clip-path="url(#clip790)"
     style="stroke:#000000; stroke-linecap:round; stroke-linejoin:round; stroke-width:4; stroke-opacity:1; fill:none"
     points="538.156,57.0272 557.053,57.0272 "
     id="polyline34" />
  <path
     clip-path="url(#clip790)"
     d="M475.253 1505.76 Q468.933 1505.76 465.733 1512 Q462.574 1518.2 462.574 1530.67 Q462.574 1543.11 465.733 1549.35 Q468.933 1555.54 475.253 1555.54 Q481.613 1555.54 484.772 1549.35 Q487.973 1543.11 487.973 1530.67 Q487.973 1518.2 484.772 1512 Q481.613 1505.76 475.253 1505.76 M475.253 1499.28 Q485.421 1499.28 490.768 1507.34 Q496.156 1515.36 496.156 1530.67 Q496.156 1545.94 490.768 1554.01 Q485.421 1562.03 475.253 1562.03 Q465.085 1562.03 459.697 1554.01 Q454.35 1545.94 454.35 1530.67 Q454.35 1515.36 459.697 1507.34 Q465.085 1499.28 475.253 1499.28 Z"
     fill="#000000"
     fill-rule="nonzero"
     fill-opacity="1"
     id="path34" />
  <path
     clip-path="url(#clip790)"
     d="M169.126 1319.65 L182.494 1319.65 L182.494 1273.51 L167.951 1276.43 L167.951 1268.97 L182.413 1266.06 L190.596 1266.06 L190.596 1319.65 L203.964 1319.65 L203.964 1326.54 L169.126 1326.54 L169.126 1319.65 Z"
     fill="#000000"
     fill-rule="nonzero"
     fill-opacity="1"
     id="path35" />
  <path
     clip-path="url(#clip790)"
     d="M220.492 1316.25 L229.039 1316.25 L229.039 1326.54 L220.492 1326.54 L220.492 1316.25 Z"
     fill="#000000"
     fill-rule="nonzero"
     fill-opacity="1"
     id="path36" />
  <path
     clip-path="url(#clip790)"
     d="M264.363 1271.45 Q258.043 1271.45 254.843 1277.68 Q251.683 1283.88 251.683 1296.36 Q251.683 1308.79 254.843 1315.03 Q258.043 1321.23 264.363 1321.23 Q270.723 1321.23 273.882 1315.03 Q277.083 1308.79 277.083 1296.36 Q277.083 1283.88 273.882 1277.68 Q270.723 1271.45 264.363 1271.45 M264.363 1264.96 Q274.531 1264.96 279.878 1273.03 Q285.265 1281.05 285.265 1296.36 Q285.265 1311.63 279.878 1319.69 Q274.531 1327.71 264.363 1327.71 Q254.195 1327.71 248.807 1319.69 Q243.46 1311.63 243.46 1296.36 Q243.46 1281.05 248.807 1273.03 Q254.195 1264.96 264.363 1264.96 Z"
     fill="#000000"
     fill-rule="nonzero"
     fill-opacity="1"
     id="path37" />
  <path
     clip-path="url(#clip790)"
     d="M348.946 1281.98 L330.433 1300.57 L348.946 1319.08 L344.125 1323.99 L325.531 1305.39 L306.938 1323.99 L302.158 1319.08 L320.63 1300.57 L302.158 1281.98 L306.938 1277.08 L325.531 1295.67 L344.125 1277.08 L348.946 1281.98 Z"
     fill="#000000"
     fill-rule="nonzero"
     fill-opacity="1"
     id="path38" />
  <path
     clip-path="url(#clip790)"
     d="M370.578 1319.65 L383.945 1319.65 L383.945 1273.51 L369.403 1276.43 L369.403 1268.97 L383.864 1266.06 L392.047 1266.06 L392.047 1319.65 L405.415 1319.65 L405.415 1326.54 L370.578 1326.54 L370.578 1319.65 Z"
     fill="#000000"
     fill-rule="nonzero"
     fill-opacity="1"
     id="path39" />
  <path
     clip-path="url(#clip790)"
     d="M439.443 1271.45 Q433.123 1271.45 429.923 1277.68 Q426.764 1283.88 426.764 1296.36 Q426.764 1308.79 429.923 1315.03 Q433.123 1321.23 439.443 1321.23 Q445.803 1321.23 448.963 1315.03 Q452.163 1308.79 452.163 1296.36 Q452.163 1283.88 448.963 1277.68 Q445.803 1271.45 439.443 1271.45 M439.443 1264.96 Q449.611 1264.96 454.958 1273.03 Q460.346 1281.05 460.346 1296.36 Q460.346 1311.63 454.958 1319.69 Q449.611 1327.71 439.443 1327.71 Q429.275 1327.71 423.887 1319.69 Q418.54 1311.63 418.54 1296.36 Q418.54 1281.05 423.887 1273.03 Q429.275 1264.96 439.443 1264.96 Z"
     fill="#000000"
     fill-rule="nonzero"
     fill-opacity="1"
     id="path40" />
  <path
     clip-path="url(#clip790)"
     d="M482.529 1235.22 L465.743 1261.45 L482.529 1261.45 L482.529 1235.22 M480.785 1229.43 L489.145 1229.43 L489.145 1261.45 L496.156 1261.45 L496.156 1266.98 L489.145 1266.98 L489.145 1278.57 L482.529 1278.57 L482.529 1266.98 L460.346 1266.98 L460.346 1260.57 L480.785 1229.43 Z"
     fill="#000000"
     fill-rule="nonzero"
     fill-opacity="1"
     id="path41" />
  <path
     clip-path="url(#clip790)"
     d="M174.757 1074.05 L203.316 1074.05 L203.316 1080.94 L164.913 1080.94 L164.913 1074.05 Q169.572 1069.23 177.592 1061.13 Q185.654 1052.99 187.72 1050.64 Q191.649 1046.22 193.188 1043.19 Q194.768 1040.11 194.768 1037.15 Q194.768 1032.33 191.366 1029.29 Q188.003 1026.25 182.575 1026.25 Q178.727 1026.25 174.433 1027.59 Q170.179 1028.93 165.318 1031.64 L165.318 1023.38 Q170.26 1021.39 174.554 1020.38 Q178.848 1019.37 182.413 1019.37 Q191.811 1019.37 197.401 1024.07 Q202.992 1028.76 202.992 1036.62 Q202.992 1040.35 201.574 1043.71 Q200.196 1047.03 196.51 1051.57 Q195.497 1052.75 190.069 1058.38 Q184.641 1063.97 174.757 1074.05 Z"
     fill="#000000"
     fill-rule="nonzero"
     fill-opacity="1"
     id="path42" />
  <path
     clip-path="url(#clip790)"
     d="M220.492 1070.65 L229.039 1070.65 L229.039 1080.94 L220.492 1080.94 L220.492 1070.65 Z"
     fill="#000000"
     fill-rule="nonzero"
     fill-opacity="1"
     id="path43" />
  <path
     clip-path="url(#clip790)"
     d="M264.363 1025.85 Q258.043 1025.85 254.843 1032.09 Q251.683 1038.28 251.683 1050.76 Q251.683 1063.2 254.843 1069.44 Q258.043 1075.63 264.363 1075.63 Q270.723 1075.63 273.882 1069.44 Q277.083 1063.2 277.083 1050.76 Q277.083 1038.28 273.882 1032.09 Q270.723 1025.85 264.363 1025.85 M264.363 1019.37 Q274.531 1019.37 279.878 1027.43 Q285.265 1035.45 285.265 1050.76 Q285.265 1066.03 279.878 1074.09 Q274.531 1082.11 264.363 1082.11 Q254.195 1082.11 248.807 1074.09 Q243.46 1066.03 243.46 1050.76 Q243.46 1035.45 248.807 1027.43 Q254.195 1019.37 264.363 1019.37 Z"
     fill="#000000"
     fill-rule="nonzero"
     fill-opacity="1"
     id="path44" />
  <path
     clip-path="url(#clip790)"
     d="M348.946 1036.38 L330.433 1054.97 L348.946 1073.49 L344.125 1078.39 L325.531 1059.79 L306.938 1078.39 L302.158 1073.49 L320.63 1054.97 L302.158 1036.38 L306.938 1031.48 L325.531 1050.07 L344.125 1031.48 L348.946 1036.38 Z"
     fill="#000000"
     fill-rule="nonzero"
     fill-opacity="1"
     id="path45" />
  <path
     clip-path="url(#clip790)"
     d="M370.578 1074.05 L383.945 1074.05 L383.945 1027.91 L369.403 1030.83 L369.403 1023.38 L383.864 1020.46 L392.047 1020.46 L392.047 1074.05 L405.415 1074.05 L405.415 1080.94 L370.578 1080.94 L370.578 1074.05 Z"
     fill="#000000"
     fill-rule="nonzero"
     fill-opacity="1"
     id="path46" />
  <path
     clip-path="url(#clip790)"
     d="M439.443 1025.85 Q433.123 1025.85 429.923 1032.09 Q426.764 1038.28 426.764 1050.76 Q426.764 1063.2 429.923 1069.44 Q433.123 1075.63 439.443 1075.63 Q445.803 1075.63 448.963 1069.44 Q452.163 1063.2 452.163 1050.76 Q452.163 1038.28 448.963 1032.09 Q445.803 1025.85 439.443 1025.85 M439.443 1019.37 Q449.611 1019.37 454.958 1027.43 Q460.346 1035.45 460.346 1050.76 Q460.346 1066.03 454.958 1074.09 Q449.611 1082.11 439.443 1082.11 Q429.275 1082.11 423.887 1074.09 Q418.54 1066.03 418.54 1050.76 Q418.54 1035.45 423.887 1027.43 Q429.275 1019.37 439.443 1019.37 Z"
     fill="#000000"
     fill-rule="nonzero"
     fill-opacity="1"
     id="path47" />
  <path
     clip-path="url(#clip790)"
     d="M482.529 989.625 L465.743 1015.86 L482.529 1015.86 L482.529 989.625 M480.785 983.832 L489.145 983.832 L489.145 1015.86 L496.156 1015.86 L496.156 1021.39 L489.145 1021.39 L489.145 1032.97 L482.529 1032.97 L482.529 1021.39 L460.346 1021.39 L460.346 1014.97 L480.785 983.832 Z"
     fill="#000000"
     fill-rule="nonzero"
     fill-opacity="1"
     id="path48" />
  <path
     clip-path="url(#clip790)"
     d="M192.5 802.733 Q198.374 803.989 201.655 807.959 Q204.977 811.929 204.977 817.762 Q204.977 826.714 198.819 831.616 Q192.662 836.518 181.319 836.518 Q177.511 836.518 173.461 835.748 Q169.45 835.019 165.156 833.52 L165.156 825.621 Q168.559 827.606 172.61 828.618 Q176.661 829.631 181.076 829.631 Q188.773 829.631 192.783 826.593 Q196.834 823.555 196.834 817.762 Q196.834 812.415 193.067 809.417 Q189.34 806.379 182.656 806.379 L175.607 806.379 L175.607 799.654 L182.98 799.654 Q189.016 799.654 192.216 797.264 Q195.416 794.834 195.416 790.297 Q195.416 785.638 192.095 783.167 Q188.813 780.656 182.656 780.656 Q179.294 780.656 175.445 781.385 Q171.597 782.114 166.979 783.653 L166.979 776.362 Q171.638 775.065 175.689 774.417 Q179.78 773.769 183.385 773.769 Q192.702 773.769 198.131 778.022 Q203.559 782.235 203.559 789.446 Q203.559 794.469 200.683 797.953 Q197.806 801.396 192.5 802.733 Z"
     fill="#000000"
     fill-rule="nonzero"
     fill-opacity="1"
     id="path49" />
  <path
     clip-path="url(#clip790)"
     d="M220.492 825.053 L229.039 825.053 L229.039 835.343 L220.492 835.343 L220.492 825.053 Z"
     fill="#000000"
     fill-rule="nonzero"
     fill-opacity="1"
     id="path50" />
  <path
     clip-path="url(#clip790)"
     d="M264.363 780.25 Q258.043 780.25 254.843 786.489 Q251.683 792.687 251.683 805.164 Q251.683 817.6 254.843 823.838 Q258.043 830.036 264.363 830.036 Q270.723 830.036 273.882 823.838 Q277.083 817.6 277.083 805.164 Q277.083 792.687 273.882 786.489 Q270.723 780.25 264.363 780.25 M264.363 773.769 Q274.531 773.769 279.878 781.83 Q285.265 789.851 285.265 805.164 Q285.265 820.435 279.878 828.497 Q274.531 836.518 264.363 836.518 Q254.195 836.518 248.807 828.497 Q243.46 820.435 243.46 805.164 Q243.46 789.851 248.807 781.83 Q254.195 773.769 264.363 773.769 Z"
     fill="#000000"
     fill-rule="nonzero"
     fill-opacity="1"
     id="path51" />
  <path
     clip-path="url(#clip790)"
     d="M348.946 790.783 L330.433 809.376 L348.946 827.889 L344.125 832.791 L325.531 814.197 L306.938 832.791 L302.158 827.889 L320.63 809.376 L302.158 790.783 L306.938 785.881 L325.531 804.475 L344.125 785.881 L348.946 790.783 Z"
     fill="#000000"
     fill-rule="nonzero"
     fill-opacity="1"
     id="path52" />
  <path
     clip-path="url(#clip790)"
     d="M370.578 828.456 L383.945 828.456 L383.945 782.316 L369.403 785.233 L369.403 777.779 L383.864 774.863 L392.047 774.863 L392.047 828.456 L405.415 828.456 L405.415 835.343 L370.578 835.343 L370.578 828.456 Z"
     fill="#000000"
     fill-rule="nonzero"
     fill-opacity="1"
     id="path53" />
  <path
     clip-path="url(#clip790)"
     d="M439.443 780.25 Q433.123 780.25 429.923 786.489 Q426.764 792.687 426.764 805.164 Q426.764 817.6 429.923 823.838 Q433.123 830.036 439.443 830.036 Q445.803 830.036 448.963 823.838 Q452.163 817.6 452.163 805.164 Q452.163 792.687 448.963 786.489 Q445.803 780.25 439.443 780.25 M439.443 773.769 Q449.611 773.769 454.958 781.83 Q460.346 789.851 460.346 805.164 Q460.346 820.435 454.958 828.497 Q449.611 836.518 439.443 836.518 Q429.275 836.518 423.887 828.497 Q418.54 820.435 418.54 805.164 Q418.54 789.851 423.887 781.83 Q429.275 773.769 439.443 773.769 Z"
     fill="#000000"
     fill-rule="nonzero"
     fill-opacity="1"
     id="path54" />
  <path
     clip-path="url(#clip790)"
     d="M482.529 744.027 L465.743 770.259 L482.529 770.259 L482.529 744.027 M480.785 738.235 L489.145 738.235 L489.145 770.259 L496.156 770.259 L496.156 775.789 L489.145 775.789 L489.145 787.375 L482.529 787.375 L482.529 775.789 L460.346 775.789 L460.346 769.371 L480.785 738.235 Z"
     fill="#000000"
     fill-rule="nonzero"
     fill-opacity="1"
     id="path55" />
  <path
     clip-path="url(#clip790)"
     d="M190.191 536.395 L169.531 568.681 L190.191 568.681 L190.191 536.395 M188.044 529.265 L198.333 529.265 L198.333 568.681 L206.961 568.681 L206.961 575.486 L198.333 575.486 L198.333 589.745 L190.191 589.745 L190.191 575.486 L162.888 575.486 L162.888 567.587 L188.044 529.265 Z"
     fill="#000000"
     fill-rule="nonzero"
     fill-opacity="1"
     id="path56" />
  <path
     clip-path="url(#clip790)"
     d="M220.492 579.456 L229.039 579.456 L229.039 589.745 L220.492 589.745 L220.492 579.456 Z"
     fill="#000000"
     fill-rule="nonzero"
     fill-opacity="1"
     id="path57" />
  <path
     clip-path="url(#clip790)"
     d="M264.363 534.653 Q258.043 534.653 254.843 540.891 Q251.683 547.089 251.683 559.566 Q251.683 572.002 254.843 578.241 Q258.043 584.439 264.363 584.439 Q270.723 584.439 273.882 578.241 Q277.083 572.002 277.083 559.566 Q277.083 547.089 273.882 540.891 Q270.723 534.653 264.363 534.653 M264.363 528.172 Q274.531 528.172 279.878 536.233 Q285.265 544.254 285.265 559.566 Q285.265 574.838 279.878 582.899 Q274.531 590.92 264.363 590.92 Q254.195 590.92 248.807 582.899 Q243.46 574.838 243.46 559.566 Q243.46 544.254 248.807 536.233 Q254.195 528.172 264.363 528.172 Z"
     fill="#000000"
     fill-rule="nonzero"
     fill-opacity="1"
     id="path58" />
  <path
     clip-path="url(#clip790)"
     d="M348.946 545.185 L330.433 563.779 L348.946 582.292 L344.125 587.193 L325.531 568.6 L306.938 587.193 L302.158 582.292 L320.63 563.779 L302.158 545.185 L306.938 540.284 L325.531 558.877 L344.125 540.284 L348.946 545.185 Z"
     fill="#000000"
     fill-rule="nonzero"
     fill-opacity="1"
     id="path59" />
  <path
     clip-path="url(#clip790)"
     d="M370.578 582.859 L383.945 582.859 L383.945 536.719 L369.403 539.636 L369.403 532.182 L383.864 529.265 L392.047 529.265 L392.047 582.859 L405.415 582.859 L405.415 589.745 L370.578 589.745 L370.578 582.859 Z"
     fill="#000000"
     fill-rule="nonzero"
     fill-opacity="1"
     id="path60" />
  <path
     clip-path="url(#clip790)"
     d="M439.443 534.653 Q433.123 534.653 429.923 540.891 Q426.764 547.089 426.764 559.566 Q426.764 572.002 429.923 578.241 Q433.123 584.439 439.443 584.439 Q445.803 584.439 448.963 578.241 Q452.163 572.002 452.163 559.566 Q452.163 547.089 448.963 540.891 Q445.803 534.653 439.443 534.653 M439.443 528.172 Q449.611 528.172 454.958 536.233 Q460.346 544.254 460.346 559.566 Q460.346 574.838 454.958 582.899 Q449.611 590.92 439.443 590.92 Q429.275 590.92 423.887 582.899 Q418.54 574.838 418.54 559.566 Q418.54 544.254 423.887 536.233 Q429.275 528.172 439.443 528.172 Z"
     fill="#000000"
     fill-rule="nonzero"
     fill-opacity="1"
     id="path61" />
  <path
     clip-path="url(#clip790)"
     d="M482.529 498.43 L465.743 524.662 L482.529 524.662 L482.529 498.43 M480.785 492.637 L489.145 492.637 L489.145 524.662 L496.156 524.662 L496.156 530.192 L489.145 530.192 L489.145 541.777 L482.529 541.777 L482.529 530.192 L460.346 530.192 L460.346 523.773 L480.785 492.637 Z"
     fill="#000000"
     fill-rule="nonzero"
     fill-opacity="1"
     id="path62" />
  <path
     clip-path="url(#clip790)"
     d="M167.789 283.668 L199.913 283.668 L199.913 290.554 L175.283 290.554 L175.283 305.381 Q177.066 304.773 178.848 304.49 Q180.631 304.166 182.413 304.166 Q192.54 304.166 198.455 309.715 Q204.369 315.265 204.369 324.744 Q204.369 334.507 198.293 339.935 Q192.216 345.323 181.157 345.323 Q177.349 345.323 173.379 344.675 Q169.45 344.026 165.237 342.73 L165.237 334.507 Q168.883 336.492 172.772 337.464 Q176.661 338.436 180.995 338.436 Q188.003 338.436 192.095 334.75 Q196.186 331.064 196.186 324.744 Q196.186 318.425 192.095 314.738 Q188.003 311.052 180.995 311.052 Q177.714 311.052 174.433 311.781 Q171.192 312.51 167.789 314.05 L167.789 283.668 Z"
     fill="#000000"
     fill-rule="nonzero"
     fill-opacity="1"
     id="path63" />
  <path
     clip-path="url(#clip790)"
     d="M220.492 333.859 L229.039 333.859 L229.039 344.148 L220.492 344.148 L220.492 333.859 Z"
     fill="#000000"
     fill-rule="nonzero"
     fill-opacity="1"
     id="path64" />
  <path
     clip-path="url(#clip790)"
     d="M264.363 289.056 Q258.043 289.056 254.843 295.294 Q251.683 301.492 251.683 313.969 Q251.683 326.405 254.843 332.643 Q258.043 338.841 264.363 338.841 Q270.723 338.841 273.882 332.643 Q277.083 326.405 277.083 313.969 Q277.083 301.492 273.882 295.294 Q270.723 289.056 264.363 289.056 M264.363 282.574 Q274.531 282.574 279.878 290.635 Q285.265 298.656 285.265 313.969 Q285.265 329.241 279.878 337.302 Q274.531 345.323 264.363 345.323 Q254.195 345.323 248.807 337.302 Q243.46 329.241 243.46 313.969 Q243.46 298.656 248.807 290.635 Q254.195 282.574 264.363 282.574 Z"
     fill="#000000"
     fill-rule="nonzero"
     fill-opacity="1"
     id="path65" />
  <path
     clip-path="url(#clip790)"
     d="M348.946 299.588 L330.433 318.182 L348.946 336.694 L344.125 341.596 L325.531 323.002 L306.938 341.596 L302.158 336.694 L320.63 318.182 L302.158 299.588 L306.938 294.686 L325.531 313.28 L344.125 294.686 L348.946 299.588 Z"
     fill="#000000"
     fill-rule="nonzero"
     fill-opacity="1"
     id="path66" />
  <path
     clip-path="url(#clip790)"
     d="M370.578 337.261 L383.945 337.261 L383.945 291.122 L369.403 294.038 L369.403 286.585 L383.864 283.668 L392.047 283.668 L392.047 337.261 L405.415 337.261 L405.415 344.148 L370.578 344.148 L370.578 337.261 Z"
     fill="#000000"
     fill-rule="nonzero"
     fill-opacity="1"
     id="path67" />
  <path
     clip-path="url(#clip790)"
     d="M439.443 289.056 Q433.123 289.056 429.923 295.294 Q426.764 301.492 426.764 313.969 Q426.764 326.405 429.923 332.643 Q433.123 338.841 439.443 338.841 Q445.803 338.841 448.963 332.643 Q452.163 326.405 452.163 313.969 Q452.163 301.492 448.963 295.294 Q445.803 289.056 439.443 289.056 M439.443 282.574 Q449.611 282.574 454.958 290.635 Q460.346 298.656 460.346 313.969 Q460.346 329.241 454.958 337.302 Q449.611 345.323 439.443 345.323 Q429.275 345.323 423.887 337.302 Q418.54 329.241 418.54 313.969 Q418.54 298.656 423.887 290.635 Q429.275 282.574 439.443 282.574 Z"
     fill="#000000"
     fill-rule="nonzero"
     fill-opacity="1"
     id="path68" />
  <path
     clip-path="url(#clip790)"
     d="M482.529 252.833 L465.743 279.065 L482.529 279.065 L482.529 252.833 M480.785 247.04 L489.145 247.04 L489.145 279.065 L496.156 279.065 L496.156 284.594 L489.145 284.594 L489.145 296.18 L482.529 296.18 L482.529 284.594 L460.346 284.594 L460.346 278.176 L480.785 247.04 Z"
     fill="#000000"
     fill-rule="nonzero"
     fill-opacity="1"
     id="path69" />
  <path
     clip-path="url(#clip790)"
     d="M186.221 65.0496 Q180.712 65.0496 177.471 68.8169 Q174.271 72.5842 174.271 79.1467 Q174.271 85.6687 177.471 89.4765 Q180.712 93.2439 186.221 93.2439 Q191.73 93.2439 194.93 89.4765 Q198.171 85.6687 198.171 79.1467 Q198.171 72.5842 194.93 68.8169 Q191.73 65.0496 186.221 65.0496 M202.465 39.4073 L202.465 46.861 Q199.386 45.4027 196.227 44.633 Q193.107 43.8633 190.029 43.8633 Q181.927 43.8633 177.633 49.3321 Q173.379 54.8008 172.772 65.8597 Q175.162 62.3355 178.767 60.472 Q182.372 58.5681 186.707 58.5681 Q195.822 58.5681 201.088 64.1179 Q206.394 69.6271 206.394 79.1467 Q206.394 88.4638 200.885 94.0945 Q195.376 99.7253 186.221 99.7253 Q175.729 99.7253 170.179 91.7045 Q164.63 83.6432 164.63 68.3713 Q164.63 54.0311 171.435 45.5242 Q178.241 36.9768 189.705 36.9768 Q192.783 36.9768 195.903 37.5844 Q199.062 38.1921 202.465 39.4073 Z"
     fill="#000000"
     fill-rule="nonzero"
     fill-opacity="1"
     id="path70" />
  <path
     clip-path="url(#clip790)"
     d="M220.492 88.2612 L229.039 88.2612 L229.039 98.5505 L220.492 98.5505 L220.492 88.2612 Z"
     fill="#000000"
     fill-rule="nonzero"
     fill-opacity="1"
     id="path71" />
  <path
     clip-path="url(#clip790)"
     d="M264.363 43.4582 Q258.043 43.4582 254.843 49.6966 Q251.683 55.8945 251.683 68.3713 Q251.683 80.8076 254.843 87.046 Q258.043 93.2439 264.363 93.2439 Q270.723 93.2439 273.882 87.046 Q277.083 80.8076 277.083 68.3713 Q277.083 55.8945 273.882 49.6966 Q270.723 43.4582 264.363 43.4582 M264.363 36.9768 Q274.531 36.9768 279.878 45.0381 Q285.265 53.0589 285.265 68.3713 Q285.265 83.6432 279.878 91.7045 Q274.531 99.7253 264.363 99.7253 Q254.195 99.7253 248.807 91.7045 Q243.46 83.6432 243.46 68.3713 Q243.46 53.0589 248.807 45.0381 Q254.195 36.9768 264.363 36.9768 Z"
     fill="#000000"
     fill-rule="nonzero"
     fill-opacity="1"
     id="path72" />
  <path
     clip-path="url(#clip790)"
     d="M348.946 53.9906 L330.433 72.5842 L348.946 91.0969 L344.125 95.9985 L325.531 77.4048 L306.938 95.9985 L302.158 91.0969 L320.63 72.5842 L302.158 53.9906 L306.938 49.089 L325.531 67.6826 L344.125 49.089 L348.946 53.9906 Z"
     fill="#000000"
     fill-rule="nonzero"
     fill-opacity="1"
     id="path73" />
  <path
     clip-path="url(#clip790)"
     d="M370.578 91.664 L383.945 91.664 L383.945 45.5242 L369.403 48.4409 L369.403 40.9872 L383.864 38.0705 L392.047 38.0705 L392.047 91.664 L405.415 91.664 L405.415 98.5505 L370.578 98.5505 L370.578 91.664 Z"
     fill="#000000"
     fill-rule="nonzero"
     fill-opacity="1"
     id="path74" />
  <path
     clip-path="url(#clip790)"
     d="M439.443 43.4582 Q433.123 43.4582 429.923 49.6966 Q426.764 55.8945 426.764 68.3713 Q426.764 80.8076 429.923 87.046 Q433.123 93.2439 439.443 93.2439 Q445.803 93.2439 448.963 87.046 Q452.163 80.8076 452.163 68.3713 Q452.163 55.8945 448.963 49.6966 Q445.803 43.4582 439.443 43.4582 M439.443 36.9768 Q449.611 36.9768 454.958 45.0381 Q460.346 53.0589 460.346 68.3713 Q460.346 83.6432 454.958 91.7045 Q449.611 99.7253 439.443 99.7253 Q429.275 99.7253 423.887 91.7045 Q418.54 83.6432 418.54 68.3713 Q418.54 53.0589 423.887 45.0381 Q429.275 36.9768 439.443 36.9768 Z"
     fill="#000000"
     fill-rule="nonzero"
     fill-opacity="1"
     id="path75" />
  <path
     clip-path="url(#clip790)"
     d="M482.529 7.23513 L465.743 33.4673 L482.529 33.4673 L482.529 7.23513 M480.785 1.44234 L489.145 1.44234 L489.145 33.4673 L496.156 33.4673 L496.156 38.9968 L489.145 38.9968 L489.145 50.5823 L482.529 50.5823 L482.529 38.9968 L460.346 38.9968 L460.346 32.5786 L480.785 1.44234 Z"
     fill="#000000"
     fill-rule="nonzero"
     fill-opacity="1"
     id="path76" />
  <path
     clip-path="url(#clip790)"
     d="M38.7168 969.752 L64.6889 969.752 L64.6889 957.993 Q64.6889 951.466 61.3093 947.901 Q57.9297 944.336 51.6797 944.336 Q45.476 944.336 42.0964 947.901 Q38.7168 951.466 38.7168 957.993 L38.7168 969.752 M31.0316 979.104 L31.0316 957.993 Q31.0316 946.373 36.3094 940.447 Q41.5409 934.475 51.6797 934.475 Q61.9111 934.475 67.1426 940.447 Q72.374 946.373 72.374 957.993 L72.374 969.752 L100.152 969.752 L100.152 979.104 L31.0316 979.104 Z"
     fill="#000000"
     fill-rule="nonzero"
     fill-opacity="1"
     id="path77" />
  <path
     clip-path="url(#clip790)"
     d="M56.263 893.92 Q55.4297 895.355 55.0593 897.068 Q54.6426 898.734 54.6426 900.771 Q54.6426 907.994 59.3648 911.882 Q64.0407 915.725 72.837 915.725 L100.152 915.725 L100.152 924.29 L48.3001 924.29 L48.3001 915.725 L56.3556 915.725 Q51.6334 913.04 49.3649 908.734 Q47.0501 904.429 47.0501 898.271 Q47.0501 897.392 47.189 896.327 Q47.2816 895.262 47.513 893.966 L56.263 893.92 Z"
     fill="#000000"
     fill-rule="nonzero"
     fill-opacity="1"
     id="path78" />
  <path
     clip-path="url(#clip790)"
     d="M54.2723 866.975 Q54.2723 873.827 59.6426 877.809 Q64.9667 881.79 74.2722 881.79 Q83.5777 881.79 88.948 877.855 Q94.2721 873.873 94.2721 866.975 Q94.2721 860.17 88.9017 856.188 Q83.5314 852.207 74.2722 852.207 Q65.0592 852.207 59.6889 856.188 Q54.2723 860.17 54.2723 866.975 M47.0501 866.975 Q47.0501 855.864 54.2723 849.522 Q61.4944 843.179 74.2722 843.179 Q87.0036 843.179 94.2721 849.522 Q101.494 855.864 101.494 866.975 Q101.494 878.133 94.2721 884.475 Q87.0036 890.771 74.2722 890.771 Q61.4944 890.771 54.2723 884.475 Q47.0501 878.133 47.0501 866.975 Z"
     fill="#000000"
     fill-rule="nonzero"
     fill-opacity="1"
     id="path79" />
  <path
     clip-path="url(#clip790)"
     d="M56.1704 794.939 L28.115 794.939 L28.115 786.42 L100.152 786.42 L100.152 794.939 L92.3739 794.939 Q97.0035 797.624 99.272 801.744 Q101.494 805.818 101.494 811.559 Q101.494 820.957 93.9943 826.883 Q86.4943 832.762 74.2722 832.762 Q62.05 832.762 54.55 826.883 Q47.0501 820.957 47.0501 811.559 Q47.0501 805.818 49.3186 801.744 Q51.5408 797.624 56.1704 794.939 M74.2722 823.966 Q83.6703 823.966 89.0406 820.124 Q94.3646 816.235 94.3646 809.476 Q94.3646 802.716 89.0406 798.827 Q83.6703 794.939 74.2722 794.939 Q64.8741 794.939 59.55 798.827 Q54.1797 802.716 54.1797 809.476 Q54.1797 816.235 59.55 820.124 Q64.8741 823.966 74.2722 823.966 Z"
     fill="#000000"
     fill-rule="nonzero"
     fill-opacity="1"
     id="path80" />
  <path
     clip-path="url(#clip790)"
     d="M79.6888 769.754 L48.3001 769.754 L48.3001 761.235 L79.3647 761.235 Q86.7258 761.235 90.4295 758.365 Q94.0869 755.494 94.0869 749.754 Q94.0869 742.856 89.6887 738.874 Q85.2906 734.846 77.6981 734.846 L48.3001 734.846 L48.3001 726.328 L100.152 726.328 L100.152 734.846 L92.1887 734.846 Q96.9109 737.948 99.2257 742.069 Q101.494 746.143 101.494 751.559 Q101.494 760.494 95.9387 765.124 Q90.3832 769.754 79.6888 769.754 M47.0501 748.318 L47.0501 748.318 Z"
     fill="#000000"
     fill-rule="nonzero"
     fill-opacity="1"
     id="path81" />
  <path
     clip-path="url(#clip790)"
     d="M50.2908 671.467 L58.2537 671.467 Q56.263 675.078 55.2908 678.736 Q54.2723 682.347 54.2723 686.05 Q54.2723 694.337 59.55 698.921 Q64.7815 703.504 74.2722 703.504 Q83.7628 703.504 89.0406 698.921 Q94.2721 694.337 94.2721 686.05 Q94.2721 682.347 93.2998 678.736 Q92.2813 675.078 90.2906 671.467 L98.1609 671.467 Q99.8276 675.032 100.661 678.874 Q101.494 682.671 101.494 686.976 Q101.494 698.689 94.1332 705.587 Q86.7721 712.485 74.2722 712.485 Q61.587 712.485 54.3186 705.541 Q47.0501 698.55 47.0501 686.421 Q47.0501 682.485 47.8834 678.736 Q48.6704 674.986 50.2908 671.467 Z"
     fill="#000000"
     fill-rule="nonzero"
     fill-opacity="1"
     id="path82" />
  <path
     clip-path="url(#clip790)"
     d="M33.5779 648.226 L48.3001 648.226 L48.3001 630.68 L54.9204 630.68 L54.9204 648.226 L83.0684 648.226 Q89.411 648.226 91.2165 646.513 Q93.0221 644.754 93.0221 639.43 L93.0221 630.68 L100.152 630.68 L100.152 639.43 Q100.152 649.291 96.4943 653.041 Q92.7906 656.791 83.0684 656.791 L54.9204 656.791 L54.9204 663.041 L48.3001 663.041 L48.3001 656.791 L33.5779 656.791 L33.5779 648.226 Z"
     fill="#000000"
     fill-rule="nonzero"
     fill-opacity="1"
     id="path83" />
  <polyline
     clip-path="url(#clip792)"
     style="stroke:#0000ff; stroke-linecap:round; stroke-linejoin:round; stroke-width:4; stroke-opacity:1; fill:none"
     points="590.934,1519.65 1177.36,1355.71 1763.78,961.13 2350.21,90.1298 "
     id="polyline83" />
  <circle
     clip-path="url(#clip792)"
     cx="590.934"
     cy="1519.65"
     r="18"
     fill="#0000ff"
     fill-rule="evenodd"
     fill-opacity="1"
     stroke="#000000"
     stroke-opacity="1"
     stroke-width="3.6"
     id="circle83" />
  <circle
     clip-path="url(#clip792)"
     cx="1177.36"
     cy="1355.71"
     r="18"
     fill="#0000ff"
     fill-rule="evenodd"
     fill-opacity="1"
     stroke="#000000"
     stroke-opacity="1"
     stroke-width="3.6"
     id="circle84" />
  <circle
     clip-path="url(#clip792)"
     cx="1763.78"
     cy="961.13"
     r="18"
     fill="#0000ff"
     fill-rule="evenodd"
     fill-opacity="1"
     stroke="#000000"
     stroke-opacity="1"
     stroke-width="3.6"
     id="circle85" />
  <circle
     clip-path="url(#clip792)"
     cx="2350.21"
     cy="90.1298"
     r="18"
     fill="#0000ff"
     fill-rule="evenodd"
     fill-opacity="1"
     stroke="#000000"
     stroke-opacity="1"
     stroke-width="3.6"
     id="circle86" />
  <polyline
     clip-path="url(#clip792)"
     style="stroke:#000000; stroke-linecap:round; stroke-linejoin:round; stroke-width:2; stroke-opacity:0.1; fill:none"
     points="538.156,1298.91 2402.98,1298.91 "
     id="polyline86" />
  <polyline
     clip-path="url(#clip792)"
     style="stroke:#000000; stroke-linecap:round; stroke-linejoin:round; stroke-width:2; stroke-opacity:0.1; fill:none"
     points="538.156,905.515 2402.98,905.515 "
     id="polyline87" />
  <polyline
     clip-path="url(#clip792)"
     style="stroke:#000000; stroke-linecap:round; stroke-linejoin:round; stroke-width:2; stroke-opacity:0.1; fill:none"
     points="538.156,512.122 2402.98,512.122 "
     id="polyline88" />
  <polyline
     clip-path="url(#clip792)"
     style="stroke:#000000; stroke-linecap:round; stroke-linejoin:round; stroke-width:2; stroke-opacity:0.1; fill:none"
     points="538.156,118.729 2402.98,118.729 "
     id="polyline89" />
  <polyline
     clip-path="url(#clip790)"
     style="stroke:#000000; stroke-linecap:round; stroke-linejoin:round; stroke-width:4; stroke-opacity:1; fill:none"
     points="2402.98,1562.54 2402.98,47.2441 "
     id="polyline90" />
  <polyline
     clip-path="url(#clip790)"
     style="stroke:#000000; stroke-linecap:round; stroke-linejoin:round; stroke-width:4; stroke-opacity:1; fill:none"
     points="2402.98,1298.91 2384.09,1298.91 "
     id="polyline91" />
  <polyline
     clip-path="url(#clip790)"
     style="stroke:#000000; stroke-linecap:round; stroke-linejoin:round; stroke-width:4; stroke-opacity:1; fill:none"
     points="2402.98,905.515 2384.09,905.515 "
     id="polyline92" />
  <polyline
     clip-path="url(#clip790)"
     style="stroke:#000000; stroke-linecap:round; stroke-linejoin:round; stroke-width:4; stroke-opacity:1; fill:none"
     points="2402.98,512.122 2384.09,512.122 "
     id="polyline93" />
  <polyline
     clip-path="url(#clip790)"
     style="stroke:#000000; stroke-linecap:round; stroke-linejoin:round; stroke-width:4; stroke-opacity:1; fill:none"
     points="2402.98,118.729 2384.09,118.729 "
     id="polyline94" />
  <path
     clip-path="url(#clip790)"
     d="M2447.54 1268.67 L2479.66 1268.67 L2479.66 1275.55 L2455.03 1275.55 L2455.03 1290.38 Q2456.81 1289.77 2458.59 1289.49 Q2460.38 1289.17 2462.16 1289.17 Q2472.29 1289.17 2478.2 1294.72 Q2484.12 1300.26 2484.12 1309.74 Q2484.12 1319.51 2478.04 1324.93 Q2471.96 1330.32 2460.9 1330.32 Q2457.1 1330.32 2453.13 1329.67 Q2449.2 1329.03 2444.98 1327.73 L2444.98 1319.51 Q2448.63 1321.49 2452.52 1322.46 Q2456.41 1323.44 2460.74 1323.44 Q2467.75 1323.44 2471.84 1319.75 Q2475.93 1316.06 2475.93 1309.74 Q2475.93 1303.42 2471.84 1299.74 Q2467.75 1296.05 2460.74 1296.05 Q2457.46 1296.05 2454.18 1296.78 Q2450.94 1297.51 2447.54 1299.05 L2447.54 1268.67 Z"
     fill="#000000"
     fill-rule="nonzero"
     fill-opacity="1"
     id="path94" />
  <path
     clip-path="url(#clip790)"
     d="M2446.16 928.868 L2459.53 928.868 L2459.53 882.729 L2444.98 885.645 L2444.98 878.192 L2459.45 875.275 L2467.63 875.275 L2467.63 928.868 L2481 928.868 L2481 935.755 L2446.16 935.755 L2446.16 928.868 Z"
     fill="#000000"
     fill-rule="nonzero"
     fill-opacity="1"
     id="path95" />
  <path
     clip-path="url(#clip790)"
     d="M2515.02 880.663 Q2508.7 880.663 2505.5 886.901 Q2502.34 893.099 2502.34 905.576 Q2502.34 918.012 2505.5 924.25 Q2508.7 930.448 2515.02 930.448 Q2521.38 930.448 2524.54 924.25 Q2527.74 918.012 2527.74 905.576 Q2527.74 893.099 2524.54 886.901 Q2521.38 880.663 2515.02 880.663 M2515.02 874.181 Q2525.19 874.181 2530.54 882.243 Q2535.93 890.263 2535.93 905.576 Q2535.93 920.848 2530.54 928.909 Q2525.19 936.93 2515.02 936.93 Q2504.86 936.93 2499.47 928.909 Q2494.12 920.848 2494.12 905.576 Q2494.12 890.263 2499.47 882.243 Q2504.86 874.181 2515.02 874.181 Z"
     fill="#000000"
     fill-rule="nonzero"
     fill-opacity="1"
     id="path96" />
  <path
     clip-path="url(#clip790)"
     d="M2446.16 535.476 L2459.53 535.476 L2459.53 489.336 L2444.98 492.252 L2444.98 484.799 L2459.45 481.882 L2467.63 481.882 L2467.63 535.476 L2481 535.476 L2481 542.362 L2446.16 542.362 L2446.16 535.476 Z"
     fill="#000000"
     fill-rule="nonzero"
     fill-opacity="1"
     id="path97" />
  <path
     clip-path="url(#clip790)"
     d="M2497.61 481.882 L2529.73 481.882 L2529.73 488.769 L2505.1 488.769 L2505.1 503.595 Q2506.88 502.987 2508.66 502.704 Q2510.45 502.38 2512.23 502.38 Q2522.36 502.38 2528.27 507.929 Q2534.18 513.479 2534.18 522.958 Q2534.18 532.721 2528.11 538.149 Q2522.03 543.537 2510.97 543.537 Q2507.17 543.537 2503.2 542.889 Q2499.27 542.241 2495.05 540.944 L2495.05 532.721 Q2498.7 534.706 2502.59 535.678 Q2506.48 536.65 2510.81 536.65 Q2517.82 536.65 2521.91 532.964 Q2526 529.278 2526 522.958 Q2526 516.639 2521.91 512.953 Q2517.82 509.266 2510.81 509.266 Q2507.53 509.266 2504.25 509.995 Q2501.01 510.725 2497.61 512.264 L2497.61 481.882 Z"
     fill="#000000"
     fill-rule="nonzero"
     fill-opacity="1"
     id="path98" />
  <path
     clip-path="url(#clip790)"
     d="M2454.83 142.083 L2483.39 142.083 L2483.39 148.969 L2444.98 148.969 L2444.98 142.083 Q2449.64 137.262 2457.66 129.16 Q2465.72 121.018 2467.79 118.668 Q2471.72 114.253 2473.26 111.215 Q2474.84 108.136 2474.84 105.179 Q2474.84 100.358 2471.44 97.3202 Q2468.07 94.282 2462.65 94.282 Q2458.8 94.282 2454.5 95.6188 Q2450.25 96.9556 2445.39 99.6697 L2445.39 91.4058 Q2450.33 89.4209 2454.63 88.4082 Q2458.92 87.3955 2462.48 87.3955 Q2471.88 87.3955 2477.47 92.0945 Q2483.06 96.7935 2483.06 104.652 Q2483.06 108.379 2481.64 111.741 Q2480.27 115.063 2476.58 119.6 Q2475.57 120.775 2470.14 126.406 Q2464.71 131.996 2454.83 142.083 Z"
     fill="#000000"
     fill-rule="nonzero"
     fill-opacity="1"
     id="path99" />
  <path
     clip-path="url(#clip790)"
     d="M2518.06 93.8769 Q2511.74 93.8769 2508.54 100.115 Q2505.38 106.313 2505.38 118.79 Q2505.38 131.226 2508.54 137.465 Q2511.74 143.663 2518.06 143.663 Q2524.42 143.663 2527.58 137.465 Q2530.78 131.226 2530.78 118.79 Q2530.78 106.313 2527.58 100.115 Q2524.42 93.8769 2518.06 93.8769 M2518.06 87.3955 Q2528.23 87.3955 2533.58 95.4568 Q2538.96 103.478 2538.96 118.79 Q2538.96 134.062 2533.58 142.123 Q2528.23 150.144 2518.06 150.144 Q2507.89 150.144 2502.51 142.123 Q2497.16 134.062 2497.16 118.79 Q2497.16 103.478 2502.51 95.4568 Q2507.89 87.3955 2518.06 87.3955 Z"
     fill="#000000"
     fill-rule="nonzero"
     fill-opacity="1"
     id="path100" />
  <path
     clip-path="url(#clip790)"
     d="M2582.83 1232.83 L2592.69 1232.83 Q2588.3 1237.55 2586.12 1242.92 Q2583.94 1248.25 2583.94 1254.26 Q2583.94 1266.12 2591.21 1272.41 Q2598.43 1278.71 2612.14 1278.71 Q2625.8 1278.71 2633.06 1272.41 Q2640.29 1266.12 2640.29 1254.26 Q2640.29 1248.25 2638.11 1242.92 Q2635.93 1237.55 2631.54 1232.83 L2641.3 1232.83 Q2644.64 1237.74 2646.3 1243.25 Q2647.97 1248.71 2647.97 1254.82 Q2647.97 1270.51 2638.39 1279.54 Q2628.76 1288.57 2612.14 1288.57 Q2595.47 1288.57 2585.89 1279.54 Q2576.26 1270.51 2576.26 1254.82 Q2576.26 1248.62 2577.93 1243.15 Q2579.55 1237.64 2582.83 1232.83 Z"
     fill="#000000"
     fill-rule="nonzero"
     fill-opacity="1"
     id="path101" />
  <path
     clip-path="url(#clip790)"
     d="M2600.75 1198.66 Q2600.75 1205.52 2606.12 1209.5 Q2611.44 1213.48 2620.75 1213.48 Q2630.05 1213.48 2635.43 1209.54 Q2640.75 1205.56 2640.75 1198.66 Q2640.75 1191.86 2635.38 1187.88 Q2630.01 1183.89 2620.75 1183.89 Q2611.54 1183.89 2606.17 1187.88 Q2600.75 1191.86 2600.75 1198.66 M2593.53 1198.66 Q2593.53 1187.55 2600.75 1181.21 Q2607.97 1174.87 2620.75 1174.87 Q2633.48 1174.87 2640.75 1181.21 Q2647.97 1187.55 2647.97 1198.66 Q2647.97 1209.82 2640.75 1216.16 Q2633.48 1222.46 2620.75 1222.46 Q2607.97 1222.46 2600.75 1216.16 Q2593.53 1209.82 2593.53 1198.66 Z"
     fill="#000000"
     fill-rule="nonzero"
     fill-opacity="1"
     id="path102" />
  <path
     clip-path="url(#clip790)"
     d="M2604.73 1120.38 Q2598.99 1117.18 2596.26 1112.74 Q2593.53 1108.29 2593.53 1102.27 Q2593.53 1094.17 2599.22 1089.77 Q2604.87 1085.38 2615.33 1085.38 L2646.63 1085.38 L2646.63 1093.94 L2615.61 1093.94 Q2608.16 1093.94 2604.55 1096.58 Q2600.93 1099.22 2600.93 1104.64 Q2600.93 1111.26 2605.33 1115.1 Q2609.73 1118.94 2617.32 1118.94 L2646.63 1118.94 L2646.63 1127.51 L2615.61 1127.51 Q2608.11 1127.51 2604.55 1130.15 Q2600.93 1132.78 2600.93 1138.29 Q2600.93 1144.82 2605.38 1148.66 Q2609.78 1152.51 2617.32 1152.51 L2646.63 1152.51 L2646.63 1161.07 L2594.78 1161.07 L2594.78 1152.51 L2602.83 1152.51 Q2598.06 1149.59 2595.8 1145.52 Q2593.53 1141.44 2593.53 1135.84 Q2593.53 1130.19 2596.4 1126.26 Q2599.27 1122.27 2604.73 1120.38 Z"
     fill="#000000"
     fill-rule="nonzero"
     fill-opacity="1"
     id="path103" />
  <path
     clip-path="url(#clip790)"
     d="M2638.85 1060.15 L2666.35 1060.15 L2666.35 1068.71 L2594.78 1068.71 L2594.78 1060.15 L2602.65 1060.15 Q2598.02 1057.46 2595.8 1053.39 Q2593.53 1049.27 2593.53 1043.57 Q2593.53 1034.13 2601.03 1028.25 Q2608.53 1022.32 2620.75 1022.32 Q2632.97 1022.32 2640.47 1028.25 Q2647.97 1034.13 2647.97 1043.57 Q2647.97 1049.27 2645.75 1053.39 Q2643.48 1057.46 2638.85 1060.15 M2620.75 1031.16 Q2611.35 1031.16 2606.03 1035.05 Q2600.66 1038.9 2600.66 1045.65 Q2600.66 1052.41 2606.03 1056.3 Q2611.35 1060.15 2620.75 1060.15 Q2630.15 1060.15 2635.52 1056.3 Q2640.84 1052.41 2640.84 1045.65 Q2640.84 1038.9 2635.52 1035.05 Q2630.15 1031.16 2620.75 1031.16 Z"
     fill="#000000"
     fill-rule="nonzero"
     fill-opacity="1"
     id="path104" />
  <path
     clip-path="url(#clip790)"
     d="M2626.17 1009.08 L2594.78 1009.08 L2594.78 1000.56 L2625.84 1000.56 Q2633.2 1000.56 2636.91 997.692 Q2640.56 994.822 2640.56 989.081 Q2640.56 982.183 2636.17 978.201 Q2631.77 974.174 2624.18 974.174 L2594.78 974.174 L2594.78 965.655 L2646.63 965.655 L2646.63 974.174 L2638.67 974.174 Q2643.39 977.276 2645.7 981.396 Q2647.97 985.47 2647.97 990.887 Q2647.97 999.822 2642.42 1004.45 Q2636.86 1009.08 2626.17 1009.08 M2593.53 987.646 L2593.53 987.646 Z"
     fill="#000000"
     fill-rule="nonzero"
     fill-opacity="1"
     id="path105" />
  <path
     clip-path="url(#clip790)"
     d="M2580.06 939.683 L2594.78 939.683 L2594.78 922.137 L2601.4 922.137 L2601.4 939.683 L2629.55 939.683 Q2635.89 939.683 2637.69 937.97 Q2639.5 936.211 2639.5 930.887 L2639.5 922.137 L2646.63 922.137 L2646.63 930.887 Q2646.63 940.748 2642.97 944.498 Q2639.27 948.248 2629.55 948.248 L2601.4 948.248 L2601.4 954.498 L2594.78 954.498 L2594.78 948.248 L2580.06 948.248 L2580.06 939.683 Z"
     fill="#000000"
     fill-rule="nonzero"
     fill-opacity="1"
     id="path106" />
  <path
     clip-path="url(#clip790)"
     d="M2620.56 887.369 Q2620.56 897.693 2622.93 901.674 Q2625.29 905.656 2630.98 905.656 Q2635.52 905.656 2638.2 902.693 Q2640.84 899.683 2640.84 894.545 Q2640.84 887.461 2635.84 883.202 Q2630.8 878.896 2622.46 878.896 L2620.56 878.896 L2620.56 887.369 M2617.05 870.378 L2646.63 870.378 L2646.63 878.896 L2638.76 878.896 Q2643.48 881.813 2645.75 886.165 Q2647.97 890.517 2647.97 896.813 Q2647.97 904.776 2643.53 909.498 Q2639.04 914.174 2631.54 914.174 Q2622.79 914.174 2618.34 908.341 Q2613.9 902.461 2613.9 890.841 L2613.9 878.896 L2613.06 878.896 Q2607.18 878.896 2603.99 882.785 Q2600.75 886.628 2600.75 893.619 Q2600.75 898.063 2601.81 902.276 Q2602.88 906.489 2605.01 910.378 L2597.14 910.378 Q2595.33 905.702 2594.45 901.304 Q2593.53 896.906 2593.53 892.739 Q2593.53 881.489 2599.36 875.934 Q2605.19 870.378 2617.05 870.378 Z"
     fill="#000000"
     fill-rule="nonzero"
     fill-opacity="1"
     id="path107" />
  <path
     clip-path="url(#clip790)"
     d="M2580.06 844.406 L2594.78 844.406 L2594.78 826.86 L2601.4 826.86 L2601.4 844.406 L2629.55 844.406 Q2635.89 844.406 2637.69 842.693 Q2639.5 840.934 2639.5 835.61 L2639.5 826.86 L2646.63 826.86 L2646.63 835.61 Q2646.63 845.471 2642.97 849.221 Q2639.27 852.971 2629.55 852.971 L2601.4 852.971 L2601.4 859.221 L2594.78 859.221 L2594.78 852.971 L2580.06 852.971 L2580.06 844.406 Z"
     fill="#000000"
     fill-rule="nonzero"
     fill-opacity="1"
     id="path108" />
  <path
     clip-path="url(#clip790)"
     d="M2594.78 815.656 L2594.78 807.138 L2646.63 807.138 L2646.63 815.656 L2594.78 815.656 M2574.59 815.656 L2574.59 807.138 L2585.38 807.138 L2585.38 815.656 L2574.59 815.656 Z"
     fill="#000000"
     fill-rule="nonzero"
     fill-opacity="1"
     id="path109" />
  <path
     clip-path="url(#clip790)"
     d="M2600.75 769.221 Q2600.75 776.073 2606.12 780.054 Q2611.44 784.036 2620.75 784.036 Q2630.05 784.036 2635.43 780.101 Q2640.75 776.119 2640.75 769.221 Q2640.75 762.416 2635.38 758.434 Q2630.01 754.453 2620.75 754.453 Q2611.54 754.453 2606.17 758.434 Q2600.75 762.416 2600.75 769.221 M2593.53 769.221 Q2593.53 758.11 2600.75 751.768 Q2607.97 745.425 2620.75 745.425 Q2633.48 745.425 2640.75 751.768 Q2647.97 758.11 2647.97 769.221 Q2647.97 780.378 2640.75 786.721 Q2633.48 793.017 2620.75 793.017 Q2607.97 793.017 2600.75 786.721 Q2593.53 780.378 2593.53 769.221 Z"
     fill="#000000"
     fill-rule="nonzero"
     fill-opacity="1"
     id="path110" />
  <path
     clip-path="url(#clip790)"
     d="M2615.33 688.203 L2646.63 688.203 L2646.63 696.722 L2615.61 696.722 Q2608.25 696.722 2604.59 699.592 Q2600.93 702.462 2600.93 708.203 Q2600.93 715.101 2605.33 719.083 Q2609.73 723.064 2617.32 723.064 L2646.63 723.064 L2646.63 731.629 L2594.78 731.629 L2594.78 723.064 L2602.83 723.064 Q2598.16 720.008 2595.84 715.888 Q2593.53 711.721 2593.53 706.305 Q2593.53 697.37 2599.08 692.786 Q2604.59 688.203 2615.33 688.203 Z"
     fill="#000000"
     fill-rule="nonzero"
     fill-opacity="1"
     id="path111" />
  <path
     clip-path="url(#clip790)"
     d="M2620.56 647.648 Q2620.56 657.972 2622.93 661.953 Q2625.29 665.935 2630.98 665.935 Q2635.52 665.935 2638.2 662.972 Q2640.84 659.962 2640.84 654.824 Q2640.84 647.74 2635.84 643.481 Q2630.8 639.176 2622.46 639.176 L2620.56 639.176 L2620.56 647.648 M2617.05 630.657 L2646.63 630.657 L2646.63 639.176 L2638.76 639.176 Q2643.48 642.092 2645.75 646.444 Q2647.97 650.796 2647.97 657.092 Q2647.97 665.055 2643.53 669.777 Q2639.04 674.453 2631.54 674.453 Q2622.79 674.453 2618.34 668.62 Q2613.9 662.74 2613.9 651.12 L2613.9 639.176 L2613.06 639.176 Q2607.18 639.176 2603.99 643.064 Q2600.75 646.907 2600.75 653.898 Q2600.75 658.342 2601.81 662.555 Q2602.88 666.768 2605.01 670.657 L2597.14 670.657 Q2595.33 665.981 2594.45 661.583 Q2593.53 657.185 2593.53 653.018 Q2593.53 641.768 2599.36 636.213 Q2605.19 630.657 2617.05 630.657 Z"
     fill="#000000"
     fill-rule="nonzero"
     fill-opacity="1"
     id="path112" />
  <path
     clip-path="url(#clip790)"
     d="M2574.59 613.111 L2574.59 604.592 L2646.63 604.592 L2646.63 613.111 L2574.59 613.111 Z"
     fill="#000000"
     fill-rule="nonzero"
     fill-opacity="1"
     id="path113" />
  <path
     clip-path="url(#clip790)"
     d="M2580.06 548.204 L2594.78 548.204 L2594.78 530.658 L2601.4 530.658 L2601.4 548.204 L2629.55 548.204 Q2635.89 548.204 2637.69 546.491 Q2639.5 544.732 2639.5 539.408 L2639.5 530.658 L2646.63 530.658 L2646.63 539.408 Q2646.63 549.269 2642.97 553.019 Q2639.27 556.769 2629.55 556.769 L2601.4 556.769 L2601.4 563.019 L2594.78 563.019 L2594.78 556.769 L2580.06 556.769 L2580.06 548.204 Z"
     fill="#000000"
     fill-rule="nonzero"
     fill-opacity="1"
     id="path114" />
  <path
     clip-path="url(#clip790)"
     d="M2594.78 519.454 L2594.78 510.935 L2646.63 510.935 L2646.63 519.454 L2594.78 519.454 M2574.59 519.454 L2574.59 510.935 L2585.38 510.935 L2585.38 519.454 L2574.59 519.454 Z"
     fill="#000000"
     fill-rule="nonzero"
     fill-opacity="1"
     id="path115" />
  <path
     clip-path="url(#clip790)"
     d="M2604.73 452.741 Q2598.99 449.547 2596.26 445.102 Q2593.53 440.658 2593.53 434.64 Q2593.53 426.538 2599.22 422.14 Q2604.87 417.742 2615.33 417.742 L2646.63 417.742 L2646.63 426.306 L2615.61 426.306 Q2608.16 426.306 2604.55 428.945 Q2600.93 431.584 2600.93 437.001 Q2600.93 443.621 2605.33 447.464 Q2609.73 451.306 2617.32 451.306 L2646.63 451.306 L2646.63 459.871 L2615.61 459.871 Q2608.11 459.871 2604.55 462.51 Q2600.93 465.149 2600.93 470.658 Q2600.93 477.186 2605.38 481.028 Q2609.78 484.871 2617.32 484.871 L2646.63 484.871 L2646.63 493.436 L2594.78 493.436 L2594.78 484.871 L2602.83 484.871 Q2598.06 481.954 2595.8 477.88 Q2593.53 473.806 2593.53 468.204 Q2593.53 462.556 2596.4 458.621 Q2599.27 454.639 2604.73 452.741 Z"
     fill="#000000"
     fill-rule="nonzero"
     fill-opacity="1"
     id="path116" />
  <path
     clip-path="url(#clip790)"
     d="M2618.57 356.399 L2622.74 356.399 L2622.74 395.566 Q2631.54 395.01 2636.17 390.288 Q2640.75 385.519 2640.75 377.047 Q2640.75 372.14 2639.55 367.557 Q2638.34 362.927 2635.93 358.39 L2643.99 358.39 Q2645.93 362.973 2646.95 367.788 Q2647.97 372.603 2647.97 377.557 Q2647.97 389.964 2640.75 397.232 Q2633.53 404.455 2621.21 404.455 Q2608.48 404.455 2601.03 397.603 Q2593.53 390.705 2593.53 379.038 Q2593.53 368.575 2600.29 362.51 Q2607 356.399 2618.57 356.399 M2616.07 364.918 Q2609.08 365.01 2604.92 368.853 Q2600.75 372.649 2600.75 378.945 Q2600.75 386.075 2604.78 390.381 Q2608.8 394.64 2616.12 395.288 L2616.07 364.918 Z"
     fill="#000000"
     fill-rule="nonzero"
     fill-opacity="1"
     id="path117" />
  <path
     clip-path="url(#clip790)"
     d="M2678.36 1209.91 Q2689.01 1216.12 2699.43 1219.13 Q2709.85 1222.14 2720.54 1222.14 Q2731.23 1222.14 2741.74 1219.13 Q2752.21 1216.07 2762.81 1209.91 L2762.81 1217.32 Q2751.93 1224.26 2741.42 1227.74 Q2730.91 1231.16 2720.54 1231.16 Q2710.22 1231.16 2699.75 1227.74 Q2689.29 1224.31 2678.36 1217.32 L2678.36 1209.91 Z"
     fill="#000000"
     fill-rule="nonzero"
     fill-opacity="1"
     id="path118" />
  <path
     clip-path="url(#clip790)"
     d="M2683.46 1151.58 L2692.58 1151.58 Q2690.03 1156.9 2688.78 1161.63 Q2687.53 1166.35 2687.53 1170.75 Q2687.53 1178.39 2690.49 1182.55 Q2693.46 1186.67 2698.92 1186.67 Q2703.5 1186.67 2705.86 1183.94 Q2708.18 1181.16 2709.61 1173.48 L2710.77 1167.83 Q2712.76 1157.37 2717.81 1152.41 Q2722.81 1147.41 2731.23 1147.41 Q2741.28 1147.41 2746.47 1154.17 Q2751.65 1160.89 2751.65 1173.89 Q2751.65 1178.8 2750.54 1184.36 Q2749.43 1189.87 2747.25 1195.79 L2737.62 1195.79 Q2740.82 1190.1 2742.44 1184.64 Q2744.06 1179.17 2744.06 1173.89 Q2744.06 1165.89 2740.91 1161.53 Q2737.76 1157.18 2731.93 1157.18 Q2726.84 1157.18 2723.97 1160.33 Q2721.1 1163.43 2719.66 1170.56 L2718.55 1176.26 Q2716.47 1186.72 2712.02 1191.39 Q2707.58 1196.07 2699.66 1196.07 Q2690.49 1196.07 2685.22 1189.64 Q2679.94 1183.15 2679.94 1171.81 Q2679.94 1166.95 2680.82 1161.9 Q2681.7 1156.86 2683.46 1151.58 Z"
     fill="#000000"
     fill-rule="nonzero"
     fill-opacity="1"
     id="path119" />
  <path
     clip-path="url(#clip790)"
     d="M2681.19 1132.83 L2681.19 1123.48 L2750.31 1123.48 L2750.31 1132.83 L2681.19 1132.83 Z"
     fill="#000000"
     fill-rule="nonzero"
     fill-opacity="1"
     id="path120" />
  <path
     clip-path="url(#clip790)"
     d="M2681.19 1104.87 L2681.19 1092.27 L2739.01 1061.63 L2681.19 1061.63 L2681.19 1052.55 L2750.31 1052.55 L2750.31 1065.15 L2692.49 1095.79 L2750.31 1095.79 L2750.31 1104.87 L2681.19 1104.87 Z"
     fill="#000000"
     fill-rule="nonzero"
     fill-opacity="1"
     id="path121" />
  <path
     clip-path="url(#clip790)"
     d="M2688.87 1024.59 L2742.62 1024.59 L2742.62 1013.29 Q2742.62 998.988 2736.14 992.368 Q2729.66 985.701 2715.68 985.701 Q2701.79 985.701 2695.36 992.368 Q2688.87 998.988 2688.87 1013.29 L2688.87 1024.59 M2681.19 1033.94 L2681.19 1014.73 Q2681.19 994.637 2689.57 985.238 Q2697.9 975.84 2715.68 975.84 Q2733.55 975.84 2741.93 985.285 Q2750.31 994.729 2750.31 1014.73 L2750.31 1033.94 L2681.19 1033.94 Z"
     fill="#000000"
     fill-rule="nonzero"
     fill-opacity="1"
     id="path122" />
  <path
     clip-path="url(#clip790)"
     d="M2755.12 939.729 Q2764.38 943.341 2767.21 946.766 Q2770.03 950.192 2770.03 955.933 L2770.03 962.739 L2762.9 962.739 L2762.9 957.739 Q2762.9 954.22 2761.23 952.276 Q2759.57 950.331 2753.36 947.97 L2749.48 946.442 L2698.46 967.415 L2698.46 958.387 L2739.01 942.183 L2698.46 925.98 L2698.46 916.952 L2755.12 939.729 Z"
     fill="#000000"
     fill-rule="nonzero"
     fill-opacity="1"
     id="path123" />
  <path
     clip-path="url(#clip790)"
     d="M2681.19 859.915 L2681.19 852.045 L2759.11 876.119 L2759.11 883.989 L2681.19 859.915 Z"
     fill="#000000"
     fill-rule="nonzero"
     fill-opacity="1"
     id="path124" />
  <path
     clip-path="url(#clip790)"
     d="M2706.42 782.925 Q2705.59 784.36 2705.22 786.073 Q2704.8 787.74 2704.8 789.777 Q2704.8 796.999 2709.52 800.888 Q2714.2 804.73 2722.99 804.73 L2750.31 804.73 L2750.31 813.295 L2698.46 813.295 L2698.46 804.73 L2706.51 804.73 Q2701.79 802.045 2699.52 797.739 Q2697.21 793.434 2697.21 787.277 Q2697.21 786.397 2697.35 785.332 Q2697.44 784.267 2697.67 782.971 L2706.42 782.925 Z"
     fill="#000000"
     fill-rule="nonzero"
     fill-opacity="1"
     id="path125" />
  <path
     clip-path="url(#clip790)"
     d="M2722.25 731.721 L2726.42 731.721 L2726.42 770.888 Q2735.22 770.332 2739.85 765.61 Q2744.43 760.842 2744.43 752.369 Q2744.43 747.462 2743.23 742.879 Q2742.02 738.249 2739.61 733.712 L2747.67 733.712 Q2749.61 738.295 2750.63 743.11 Q2751.65 747.925 2751.65 752.879 Q2751.65 765.286 2744.43 772.554 Q2737.21 779.777 2724.89 779.777 Q2712.16 779.777 2704.71 772.925 Q2697.21 766.027 2697.21 754.36 Q2697.21 743.897 2703.97 737.832 Q2710.68 731.721 2722.25 731.721 M2719.75 740.24 Q2712.76 740.332 2708.6 744.175 Q2704.43 747.971 2704.43 754.268 Q2704.43 761.397 2708.46 765.703 Q2712.48 769.962 2719.8 770.61 L2719.75 740.24 Z"
     fill="#000000"
     fill-rule="nonzero"
     fill-opacity="1"
     id="path126" />
  <path
     clip-path="url(#clip790)"
     d="M2678.27 691.49 L2685.36 691.49 L2685.36 699.638 Q2685.36 704.221 2687.21 706.027 Q2689.06 707.786 2693.87 707.786 L2698.46 707.786 L2698.46 693.759 L2705.08 693.759 L2705.08 707.786 L2750.31 707.786 L2750.31 716.351 L2705.08 716.351 L2705.08 724.499 L2698.46 724.499 L2698.46 716.351 L2694.85 716.351 Q2686.19 716.351 2682.25 712.323 Q2678.27 708.296 2678.27 699.546 L2678.27 691.49 Z"
     fill="#000000"
     fill-rule="nonzero"
     fill-opacity="1"
     id="path127" />
  <path
     clip-path="url(#clip790)"
     d="M2722.25 640.009 L2726.42 640.009 L2726.42 679.175 Q2735.22 678.62 2739.85 673.898 Q2744.43 669.129 2744.43 660.657 Q2744.43 655.75 2743.23 651.166 Q2742.02 646.537 2739.61 642 L2747.67 642 Q2749.61 646.583 2750.63 651.398 Q2751.65 656.212 2751.65 661.166 Q2751.65 673.573 2744.43 680.842 Q2737.21 688.064 2724.89 688.064 Q2712.16 688.064 2704.71 681.212 Q2697.21 674.314 2697.21 662.648 Q2697.21 652.185 2703.97 646.12 Q2710.68 640.009 2722.25 640.009 M2719.75 648.527 Q2712.76 648.62 2708.6 652.462 Q2704.43 656.259 2704.43 662.555 Q2704.43 669.685 2708.46 673.99 Q2712.48 678.249 2719.8 678.898 L2719.75 648.527 Z"
     fill="#000000"
     fill-rule="nonzero"
     fill-opacity="1"
     id="path128" />
  <path
     clip-path="url(#clip790)"
     d="M2706.42 595.981 Q2705.59 597.416 2705.22 599.129 Q2704.8 600.796 2704.8 602.833 Q2704.8 610.055 2709.52 613.944 Q2714.2 617.787 2722.99 617.787 L2750.31 617.787 L2750.31 626.352 L2698.46 626.352 L2698.46 617.787 L2706.51 617.787 Q2701.79 615.102 2699.52 610.796 Q2697.21 606.491 2697.21 600.333 Q2697.21 599.454 2697.35 598.389 Q2697.44 597.324 2697.67 596.028 L2706.42 595.981 Z"
     fill="#000000"
     fill-rule="nonzero"
     fill-opacity="1"
     id="path129" />
  <path
     clip-path="url(#clip790)"
     d="M2722.25 544.778 L2726.42 544.778 L2726.42 583.944 Q2735.22 583.389 2739.85 578.667 Q2744.43 573.898 2744.43 565.426 Q2744.43 560.519 2743.23 555.935 Q2742.02 551.306 2739.61 546.769 L2747.67 546.769 Q2749.61 551.352 2750.63 556.167 Q2751.65 560.982 2751.65 565.935 Q2751.65 578.343 2744.43 585.611 Q2737.21 592.833 2724.89 592.833 Q2712.16 592.833 2704.71 585.981 Q2697.21 579.083 2697.21 567.417 Q2697.21 556.954 2703.97 550.889 Q2710.68 544.778 2722.25 544.778 M2719.75 553.296 Q2712.76 553.389 2708.6 557.232 Q2704.43 561.028 2704.43 567.324 Q2704.43 574.454 2708.46 578.759 Q2712.48 583.018 2719.8 583.667 L2719.75 553.296 Z"
     fill="#000000"
     fill-rule="nonzero"
     fill-opacity="1"
     id="path130" />
  <path
     clip-path="url(#clip790)"
     d="M2719.01 487.695 L2750.31 487.695 L2750.31 496.213 L2719.29 496.213 Q2711.93 496.213 2708.27 499.084 Q2704.61 501.954 2704.61 507.695 Q2704.61 514.593 2709.01 518.574 Q2713.41 522.556 2721 522.556 L2750.31 522.556 L2750.31 531.121 L2698.46 531.121 L2698.46 522.556 L2706.51 522.556 Q2701.84 519.5 2699.52 515.38 Q2697.21 511.213 2697.21 505.797 Q2697.21 496.861 2702.76 492.278 Q2708.27 487.695 2719.01 487.695 Z"
     fill="#000000"
     fill-rule="nonzero"
     fill-opacity="1"
     id="path131" />
  <path
     clip-path="url(#clip790)"
     d="M2700.45 433.39 L2708.41 433.39 Q2706.42 437.001 2705.45 440.658 Q2704.43 444.269 2704.43 447.973 Q2704.43 456.26 2709.71 460.843 Q2714.94 465.426 2724.43 465.426 Q2733.92 465.426 2739.2 460.843 Q2744.43 456.26 2744.43 447.973 Q2744.43 444.269 2743.46 440.658 Q2742.44 437.001 2740.45 433.39 L2748.32 433.39 Q2749.98 436.954 2750.82 440.797 Q2751.65 444.593 2751.65 448.899 Q2751.65 460.612 2744.29 467.51 Q2736.93 474.408 2724.43 474.408 Q2711.74 474.408 2704.48 467.463 Q2697.21 460.473 2697.21 448.343 Q2697.21 444.408 2698.04 440.658 Q2698.83 436.908 2700.45 433.39 Z"
     fill="#000000"
     fill-rule="nonzero"
     fill-opacity="1"
     id="path132" />
  <path
     clip-path="url(#clip790)"
     d="M2722.25 374.223 L2726.42 374.223 L2726.42 413.39 Q2735.22 412.834 2739.85 408.112 Q2744.43 403.343 2744.43 394.871 Q2744.43 389.964 2743.23 385.381 Q2742.02 380.751 2739.61 376.214 L2747.67 376.214 Q2749.61 380.797 2750.63 385.612 Q2751.65 390.427 2751.65 395.381 Q2751.65 407.788 2744.43 415.056 Q2737.21 422.279 2724.89 422.279 Q2712.16 422.279 2704.71 415.427 Q2697.21 408.529 2697.21 396.862 Q2697.21 386.399 2703.97 380.334 Q2710.68 374.223 2722.25 374.223 M2719.75 382.742 Q2712.76 382.834 2708.6 386.677 Q2704.43 390.473 2704.43 396.769 Q2704.43 403.899 2708.46 408.205 Q2712.48 412.464 2719.8 413.112 L2719.75 382.742 Z"
     fill="#000000"
     fill-rule="nonzero"
     fill-opacity="1"
     id="path133" />
  <path
     clip-path="url(#clip790)"
     d="M2678.36 361.584 L2678.36 354.177 Q2689.29 347.233 2699.75 343.807 Q2710.22 340.335 2720.54 340.335 Q2730.91 340.335 2741.42 343.807 Q2751.93 347.233 2762.81 354.177 L2762.81 361.584 Q2752.21 355.427 2741.74 352.418 Q2731.23 349.362 2720.54 349.362 Q2709.85 349.362 2699.43 352.418 Q2689.01 355.427 2678.36 361.584 Z"
     fill="#000000"
     fill-rule="nonzero"
     fill-opacity="1"
     id="path134" />
  <polyline
     clip-path="url(#clip792)"
     style="stroke:#ff0000; stroke-linecap:round; stroke-linejoin:round; stroke-width:4; stroke-opacity:1; fill:none"
     points="590.934,1519.65 1177.36,1319.25 1763.78,1100.76 2350.21,90.1298 "
     id="polyline134" />
  <circle
     clip-path="url(#clip792)"
     cx="590.934"
     cy="1519.65"
     r="18"
     fill="#ff0000"
     fill-rule="evenodd"
     fill-opacity="1"
     stroke="#000000"
     stroke-opacity="1"
     stroke-width="3.6"
     id="circle134" />
  <circle
     clip-path="url(#clip792)"
     cx="1177.36"
     cy="1319.25"
     r="18"
     fill="#ff0000"
     fill-rule="evenodd"
     fill-opacity="1"
     stroke="#000000"
     stroke-opacity="1"
     stroke-width="3.6"
     id="circle135" />
  <circle
     clip-path="url(#clip792)"
     cx="1763.78"
     cy="1100.76"
     r="18"
     fill="#ff0000"
     fill-rule="evenodd"
     fill-opacity="1"
     stroke="#000000"
     stroke-opacity="1"
     stroke-width="3.6"
     id="circle136" />
  <circle
     clip-path="url(#clip792)"
     cx="2350.21"
     cy="90.1298"
     r="18"
     fill="#ff0000"
     fill-rule="evenodd"
     fill-opacity="1"
     stroke="#000000"
     stroke-opacity="1"
     stroke-width="3.6"
     id="circle137" />
  <g
     id="g1"
     transform="translate(-482.46042,-27.039319)"
     inkscape:export-filename="figS12_prod_comptime.pdf"
     inkscape:export-xdpi="700"
     inkscape:export-ydpi="700">
    <g
       id="g168"
       transform="translate(-38.556942,284.57951)">
      <polyline
         clip-path="url(#clip730)"
         style="fill:none;stroke:#0000ff;stroke-width:8;stroke-linecap:round;stroke-linejoin:round;stroke-opacity:1"
         points="1248.92,201.434 1369.95,201.434 "
         id="polyline144-4"
         transform="translate(-87.244401,-496.20253)" />
      <circle
         clip-path="url(#clip730)"
         cx="1309.4399"
         cy="201.43401"
         r="8.4050999"
         fill="#0000ff"
         fill-rule="evenodd"
         fill-opacity="1"
         stroke="#000000"
         stroke-opacity="1"
         stroke-width="8.37818"
         id="circle144-3"
         transform="translate(-87.244401,-496.20253)" />
      <path
         clip-path="url(#clip730)"
         d="m 1399.48,174.559 v 25.972 h 11.76 q 6.52,0 10.09,-3.379 3.56,-3.38 3.56,-9.63 0,-6.204 -3.56,-9.583 -3.57,-3.38 -10.09,-3.38 h -11.76 m -9.36,-7.685 h 21.12 q 11.62,0 17.54,5.278 5.97,5.231 5.97,15.37 0,10.231 -5.97,15.463 -5.92,5.231 -17.54,5.231 h -11.76 v 27.778 h -9.36 z"
         fill="#000000"
         fill-rule="nonzero"
         fill-opacity="1"
         id="path144-9"
         transform="translate(-87.244401,-496.20253)" />
      <path
         clip-path="url(#clip730)"
         d="m 1475.31,192.105 q -1.44,-0.833 -3.15,-1.203 -1.67,-0.417 -3.7,-0.417 -7.23,0 -11.11,4.722 -3.85,4.676 -3.85,13.472 v 27.315 h -8.56 v -51.852 h 8.56 v 8.056 q 2.69,-4.722 6.99,-6.991 4.31,-2.315 10.47,-2.315 0.88,0 1.94,0.139 1.07,0.093 2.36,0.324 z"
         fill="#000000"
         fill-rule="nonzero"
         fill-opacity="1"
         id="path145-9"
         transform="translate(-87.244401,-496.20253)" />
      <path
         clip-path="url(#clip730)"
         d="m 1502.25,190.115 q -6.85,0 -10.83,5.37 -3.98,5.324 -3.98,14.629 0,9.306 3.93,14.676 3.98,5.324 10.88,5.324 6.81,0 10.79,-5.37 3.98,-5.37 3.98,-14.63 0,-9.212 -3.98,-14.583 -3.98,-5.416 -10.79,-5.416 m 0,-7.223 q 11.11,0 17.46,7.223 6.34,7.222 6.34,19.999 0,12.732 -6.34,20 -6.35,7.223 -17.46,7.223 -11.15,0 -17.5,-7.223 -6.29,-7.268 -6.29,-20 0,-12.777 6.29,-19.999 6.35,-7.223 17.5,-7.223 z"
         fill="#000000"
         fill-rule="nonzero"
         fill-opacity="1"
         id="path146-4"
         transform="translate(-87.244401,-496.20253)" />
      <path
         clip-path="url(#clip730)"
         d="m 1574.29,192.013 v -28.056 h 8.52 v 72.037 h -8.52 v -7.778 q -2.69,4.63 -6.81,6.898 -4.07,2.223 -9.81,2.223 -9.4,0 -15.32,-7.5 -5.88,-7.5 -5.88,-19.723 0,-12.222 5.88,-19.722 5.92,-7.5 15.32,-7.5 5.74,0 9.81,2.269 4.12,2.222 6.81,6.852 m -29.03,18.101 q 0,9.399 3.84,14.769 3.89,5.324 10.65,5.324 6.76,0 10.65,-5.324 3.89,-5.37 3.89,-14.769 0,-9.398 -3.89,-14.722 -3.89,-5.37 -10.65,-5.37 -6.76,0 -10.65,5.37 -3.84,5.324 -3.84,14.722 z"
         fill="#000000"
         fill-rule="nonzero"
         fill-opacity="1"
         id="path147-2"
         transform="translate(-87.244401,-496.20253)" />
      <path
         clip-path="url(#clip730)"
         d="m 1599.47,215.531 v -31.389 h 8.52 v 31.065 q 0,7.361 2.87,11.065 2.87,3.657 8.61,3.657 6.9,0 10.88,-4.398 4.03,-4.398 4.03,-11.991 v -29.398 h 8.52 v 51.852 h -8.52 v -7.963 q -3.1,4.722 -7.22,7.037 -4.07,2.269 -9.49,2.269 -8.94,0 -13.57,-5.556 -4.63,-5.555 -4.63,-16.25 m 21.44,-32.639 z"
         fill="#000000"
         fill-rule="nonzero"
         fill-opacity="1"
         id="path148-3"
         transform="translate(-87.244401,-496.20253)" />
      <path
         clip-path="url(#clip730)"
         d="m 1697.76,186.133 v 7.963 q -3.61,-1.991 -7.27,-2.963 -3.61,-1.018 -7.31,-1.018 -8.29,0 -12.87,5.277 -4.59,5.232 -4.59,14.722 0,9.491 4.59,14.769 4.58,5.231 12.87,5.231 3.7,0 7.31,-0.972 3.66,-1.018 7.27,-3.009 v 7.87 q -3.56,1.667 -7.41,2.5 -3.79,0.834 -8.1,0.834 -11.71,0 -18.61,-7.362 -6.9,-7.361 -6.9,-19.861 0,-12.685 6.95,-19.953 6.99,-7.269 19.12,-7.269 3.93,0 7.68,0.834 3.75,0.787 7.27,2.407 z"
         fill="#000000"
         fill-rule="nonzero"
         fill-opacity="1"
         id="path149-6"
         transform="translate(-87.244401,-496.20253)" />
      <path
         clip-path="url(#clip730)"
         d="m 1721,169.42 v 14.722 h 17.55 v 6.621 H 1721 v 28.148 q 0,6.342 1.71,8.148 1.76,1.805 7.09,1.805 h 8.75 v 7.13 h -8.75 q -9.86,0 -13.61,-3.657 -3.75,-3.704 -3.75,-13.426 v -28.148 h -6.25 v -6.621 h 6.25 V 169.42 Z"
         fill="#000000"
         fill-rule="nonzero"
         fill-opacity="1"
         id="path150-0"
         transform="translate(-87.244401,-496.20253)" />
    </g>
    <g
       id="g167"
       transform="translate(-38.556942,264.40718)">
      <polyline
         clip-path="url(#clip730)"
         style="fill:none;stroke:#ff0000;stroke-width:8;stroke-linecap:round;stroke-linejoin:round;stroke-opacity:1"
         points="1248.92,305.114 1369.95,305.114 "
         id="polyline150"
         transform="translate(498.92892,-588.8997)" />
      <circle
         clip-path="url(#clip730)"
         cx="1309.4399"
         cy="305.11401"
         r="8.4050999"
         fill="#ff0000"
         fill-rule="evenodd"
         fill-opacity="1"
         stroke="#000000"
         stroke-opacity="1"
         stroke-width="8.37818"
         id="circle150"
         transform="translate(498.92892,-588.8997)" />
      <path
         clip-path="url(#clip730)"
         d="m 1445.86,275.878 v 9.861 q -4.72,-4.398 -10.09,-6.574 -5.32,-2.176 -11.34,-2.176 -11.85,0 -18.15,7.269 -6.29,7.222 -6.29,20.925 0,13.658 6.29,20.926 6.3,7.222 18.15,7.222 6.02,0 11.34,-2.176 5.37,-2.175 10.09,-6.574 v 9.769 q -4.9,3.333 -10.41,5 -5.47,1.667 -11.58,1.667 -15.69,0 -24.72,-9.584 -9.03,-9.629 -9.03,-26.25 0,-16.666 9.03,-26.249 9.03,-9.63 24.72,-9.63 6.21,0 11.67,1.667 5.51,1.62 10.32,4.907 z"
         fill="#000000"
         fill-rule="nonzero"
         fill-opacity="1"
         id="path151-3"
         transform="translate(498.92892,-588.8997)" />
      <path
         clip-path="url(#clip730)"
         d="m 1480.03,293.795 q -6.85,0 -10.83,5.37 -3.98,5.324 -3.98,14.629 0,9.306 3.93,14.676 3.98,5.324 10.88,5.324 6.81,0 10.79,-5.37 3.98,-5.37 3.98,-14.63 0,-9.212 -3.98,-14.583 -3.98,-5.416 -10.79,-5.416 m 0,-7.223 q 11.11,0 17.45,7.223 6.35,7.222 6.35,19.999 0,12.732 -6.35,20 -6.34,7.223 -17.45,7.223 -11.16,0 -17.5,-7.223 -6.3,-7.268 -6.3,-20 0,-12.777 6.3,-19.999 6.34,-7.223 17.5,-7.223 z"
         fill="#000000"
         fill-rule="nonzero"
         fill-opacity="1"
         id="path152-6"
         transform="translate(498.92892,-588.8997)" />
      <path
         clip-path="url(#clip730)"
         d="m 1558.32,297.776 q 3.19,-5.741 7.64,-8.472 4.44,-2.732 10.46,-2.732 8.1,0 12.5,5.695 4.4,5.648 4.4,16.111 v 31.296 h -8.57 v -31.018 q 0,-7.454 -2.64,-11.065 -2.64,-3.611 -8.05,-3.611 -6.62,0 -10.46,4.398 -3.85,4.398 -3.85,11.991 v 29.305 h -8.56 v -31.018 q 0,-7.5 -2.64,-11.065 -2.64,-3.611 -8.15,-3.611 -6.53,0 -10.37,4.444 -3.84,4.398 -3.84,11.945 v 29.305 h -8.57 v -51.852 h 8.57 v 8.056 q 2.91,-4.769 6.99,-7.037 4.07,-2.269 9.67,-2.269 5.65,0 9.59,2.871 3.98,2.87 5.88,8.333 z"
         fill="#000000"
         fill-rule="nonzero"
         fill-opacity="1"
         id="path153-8"
         transform="translate(498.92892,-588.8997)" />
      <path
         clip-path="url(#clip730)"
         d="m 1618.55,331.896 v 27.5 h -8.57 v -71.574 h 8.57 v 7.871 q 2.68,-4.63 6.76,-6.852 4.12,-2.269 9.81,-2.269 9.45,0 15.33,7.5 5.92,7.5 5.92,19.722 0,12.223 -5.92,19.723 -5.88,7.5 -15.33,7.5 -5.69,0 -9.81,-2.223 -4.08,-2.268 -6.76,-6.898 m 28.98,-18.102 q 0,-9.398 -3.89,-14.722 -3.84,-5.37 -10.6,-5.37 -6.76,0 -10.65,5.37 -3.84,5.324 -3.84,14.722 0,9.399 3.84,14.769 3.89,5.324 10.65,5.324 6.76,0 10.6,-5.324 3.89,-5.37 3.89,-14.769 z"
         fill="#000000"
         fill-rule="nonzero"
         fill-opacity="1"
         id="path154-4"
         transform="translate(498.92892,-588.8997)" />
      <path
         clip-path="url(#clip730)"
         d="m 1669.61,319.211 v -31.389 h 8.52 v 31.065 q 0,7.361 2.87,11.065 2.87,3.657 8.61,3.657 6.9,0 10.88,-4.398 4.03,-4.398 4.03,-11.991 v -29.398 h 8.52 v 51.852 h -8.52 v -7.963 q -3.1,4.722 -7.22,7.037 -4.08,2.269 -9.49,2.269 -8.94,0 -13.57,-5.556 -4.63,-5.555 -4.63,-16.25 m 21.44,-32.639 z"
         fill="#000000"
         fill-rule="nonzero"
         fill-opacity="1"
         id="path155-8"
         transform="translate(498.92892,-588.8997)" />
      <path
         clip-path="url(#clip730)"
         d="m 1739.01,273.1 v 14.722 h 17.55 v 6.621 h -17.55 v 28.148 q 0,6.342 1.71,8.148 1.76,1.805 7.09,1.805 h 8.75 v 7.13 h -8.75 q -9.86,0 -13.61,-3.657 -3.75,-3.704 -3.75,-13.426 v -28.148 h -6.25 v -6.621 h 6.25 V 273.1 Z"
         fill="#000000"
         fill-rule="nonzero"
         fill-opacity="1"
         id="path156-4"
         transform="translate(498.92892,-588.8997)" />
      <path
         clip-path="url(#clip730)"
         d="m 1791.33,313.609 q -10.33,0 -14.31,2.361 -3.98,2.361 -3.98,8.056 0,4.537 2.96,7.222 3.01,2.639 8.15,2.639 7.08,0 11.34,-5 4.31,-5.046 4.31,-13.38 v -1.898 h -8.47 m 16.99,-3.518 v 29.583 h -8.52 v -7.87 q -2.92,4.722 -7.27,6.99 -4.35,2.223 -10.65,2.223 -7.96,0 -12.68,-4.445 -4.68,-4.491 -4.68,-11.991 0,-8.749 5.83,-13.194 5.88,-4.444 17.5,-4.444 h 11.95 v -0.834 q 0,-5.879 -3.89,-9.074 -3.84,-3.24 -10.83,-3.24 -4.45,0 -8.66,1.064 -4.21,1.065 -8.1,3.195 v -7.871 q 4.67,-1.805 9.07,-2.685 4.4,-0.926 8.57,-0.926 11.25,0 16.8,5.834 5.56,5.833 5.56,17.685 z"
         fill="#000000"
         fill-rule="nonzero"
         fill-opacity="1"
         id="path157-0"
         transform="translate(498.92892,-588.8997)" />
      <path
         clip-path="url(#clip730)"
         d="m 1834.29,273.1 v 14.722 h 17.54 v 6.621 h -17.54 v 28.148 q 0,6.342 1.71,8.148 1.76,1.805 7.08,1.805 h 8.75 v 7.13 h -8.75 q -9.86,0 -13.61,-3.657 -3.75,-3.704 -3.75,-13.426 v -28.148 h -6.25 v -6.621 h 6.25 V 273.1 Z"
         fill="#000000"
         fill-rule="nonzero"
         fill-opacity="1"
         id="path158-1"
         transform="translate(498.92892,-588.8997)" />
      <path
         clip-path="url(#clip730)"
         d="m 1863.04,287.822 h 8.52 v 51.852 h -8.52 v -51.852 m 0,-20.185 h 8.52 v 10.787 h -8.52 z"
         fill="#000000"
         fill-rule="nonzero"
         fill-opacity="1"
         id="path159-5"
         transform="translate(498.92892,-588.8997)" />
      <path
         clip-path="url(#clip730)"
         d="m 1909.47,293.795 q -6.85,0 -10.83,5.37 -3.98,5.324 -3.98,14.629 0,9.306 3.93,14.676 3.98,5.324 10.88,5.324 6.81,0 10.79,-5.37 3.98,-5.37 3.98,-14.63 0,-9.212 -3.98,-14.583 -3.98,-5.416 -10.79,-5.416 m 0,-7.223 q 11.11,0 17.46,7.223 6.34,7.222 6.34,19.999 0,12.732 -6.34,20 -6.35,7.223 -17.46,7.223 -11.15,0 -17.5,-7.223 -6.29,-7.268 -6.29,-20 0,-12.777 6.29,-19.999 6.35,-7.223 17.5,-7.223 z"
         fill="#000000"
         fill-rule="nonzero"
         fill-opacity="1"
         id="path160-7"
         transform="translate(498.92892,-588.8997)" />
      <path
         clip-path="url(#clip730)"
         d="m 1990.49,308.378 v 31.296 h -8.52 v -31.018 q 0,-7.361 -2.87,-11.019 -2.87,-3.657 -8.61,-3.657 -6.9,0 -10.88,4.398 -3.98,4.398 -3.98,11.991 v 29.305 h -8.56 v -51.852 h 8.56 v 8.056 q 3.06,-4.676 7.18,-6.991 4.16,-2.315 9.58,-2.315 8.93,0 13.52,5.556 4.58,5.509 4.58,16.25 z"
         fill="#000000"
         fill-rule="nonzero"
         fill-opacity="1"
         id="path161-3"
         transform="translate(498.92892,-588.8997)" />
      <path
         clip-path="url(#clip730)"
         d="m 2031.05,313.609 q -10.33,0 -14.31,2.361 -3.98,2.361 -3.98,8.056 0,4.537 2.96,7.222 3.01,2.639 8.15,2.639 7.08,0 11.34,-5 4.31,-5.046 4.31,-13.38 v -1.898 h -8.47 m 16.99,-3.518 v 29.583 h -8.52 v -7.87 q -2.92,4.722 -7.27,6.99 -4.35,2.223 -10.65,2.223 -7.96,0 -12.68,-4.445 -4.68,-4.491 -4.68,-11.991 0,-8.749 5.83,-13.194 5.88,-4.444 17.5,-4.444 h 11.95 v -0.834 q 0,-5.879 -3.89,-9.074 -3.84,-3.24 -10.83,-3.24 -4.45,0 -8.66,1.064 -4.21,1.065 -8.1,3.195 v -7.871 q 4.67,-1.805 9.07,-2.685 4.4,-0.926 8.57,-0.926 11.25,0 16.8,5.834 5.56,5.833 5.56,17.685 z"
         fill="#000000"
         fill-rule="nonzero"
         fill-opacity="1"
         id="path162"
         transform="translate(498.92892,-588.8997)" />
      <path
         clip-path="url(#clip730)"
         d="m 2065.58,267.637 h 8.52 v 72.037 h -8.52 z"
         fill="#000000"
         fill-rule="nonzero"
         fill-opacity="1"
         id="path163"
         transform="translate(498.92892,-588.8997)" />
      <path
         clip-path="url(#clip730)"
         d="m 2130.49,273.1 v 14.722 h 17.55 v 6.621 h -17.55 v 28.148 q 0,6.342 1.71,8.148 1.76,1.805 7.09,1.805 h 8.75 v 7.13 h -8.75 q -9.86,0 -13.61,-3.657 -3.75,-3.704 -3.75,-13.426 v -28.148 h -6.25 v -6.621 h 6.25 V 273.1 Z"
         fill="#000000"
         fill-rule="nonzero"
         fill-opacity="1"
         id="path164"
         transform="translate(498.92892,-588.8997)" />
      <path
         clip-path="url(#clip730)"
         d="m 2159.24,287.822 h 8.52 v 51.852 h -8.52 v -51.852 m 0,-20.185 h 8.52 v 10.787 h -8.52 z"
         fill="#000000"
         fill-rule="nonzero"
         fill-opacity="1"
         id="path165"
         transform="translate(498.92892,-588.8997)" />
      <path
         clip-path="url(#clip730)"
         d="m 2225.95,297.776 q 3.2,-5.741 7.64,-8.472 4.45,-2.732 10.46,-2.732 8.11,0 12.5,5.695 4.4,5.648 4.4,16.111 v 31.296 h -8.56 v -31.018 q 0,-7.454 -2.64,-11.065 -2.64,-3.611 -8.06,-3.611 -6.62,0 -10.46,4.398 -3.84,4.398 -3.84,11.991 v 29.305 h -8.57 v -31.018 q 0,-7.5 -2.64,-11.065 -2.63,-3.611 -8.14,-3.611 -6.53,0 -10.37,4.444 -3.85,4.398 -3.85,11.945 v 29.305 h -8.56 v -51.852 h 8.56 v 8.056 q 2.92,-4.769 6.99,-7.037 4.08,-2.269 9.68,-2.269 5.65,0 9.58,2.871 3.98,2.87 5.88,8.333 z"
         fill="#000000"
         fill-rule="nonzero"
         fill-opacity="1"
         id="path166"
         transform="translate(498.92892,-588.8997)" />
      <path
         clip-path="url(#clip730)"
         d="m 2322.29,311.619 v 4.166 h -39.16 q 0.55,8.796 5.28,13.426 4.76,4.583 13.24,4.583 4.9,0 9.49,-1.203 4.63,-1.204 9.16,-3.611 v 8.055 q -4.58,1.945 -9.39,2.963 -4.82,1.019 -9.77,1.019 -12.41,0 -19.68,-7.223 -7.22,-7.222 -7.22,-19.537 0,-12.731 6.85,-20.185 6.9,-7.5 18.57,-7.5 10.46,0 16.52,6.76 6.11,6.713 6.11,18.287 m -8.51,-2.5 q -0.1,-6.991 -3.94,-11.158 -3.79,-4.166 -10.09,-4.166 -7.13,0 -11.44,4.027 -4.26,4.028 -4.9,11.343 z"
         fill="#000000"
         fill-rule="nonzero"
         fill-opacity="1"
         id="path167"
         transform="translate(498.92892,-588.8997)" />
    </g>
  </g>
</svg>
