<?xml version="1.0" encoding="UTF-8" standalone="no"?>
<svg
   width="1200"
   height="400"
   viewBox="0 0 4800 1600"
   version="1.1"
   id="svg20"
   sodipodi:docname="best_case.svg"
   inkscape:version="1.3 (0e150ed6c4, 2023-07-21)"
   xmlns:inkscape="http://www.inkscape.org/namespaces/inkscape"
   xmlns:sodipodi="http://sodipodi.sourceforge.net/DTD/sodipodi-0.dtd"
   xmlns="http://www.w3.org/2000/svg"
   xmlns:svg="http://www.w3.org/2000/svg">
  <sodipodi:namedview
     id="namedview20"
     pagecolor="#ffffff"
     bordercolor="#000000"
     borderopacity="0.25"
     inkscape:showpageshadow="2"
     inkscape:pageopacity="0.0"
     inkscape:pagecheckerboard="0"
     inkscape:deskcolor="#d1d1d1"
     inkscape:zoom="0.85583333"
     inkscape:cx="600"
     inkscape:cy="199.80526"
     inkscape:window-width="1920"
     inkscape:window-height="1010"
     inkscape:window-x="-6"
     inkscape:window-y="-6"
     inkscape:window-maximized="1"
     inkscape:current-layer="svg20" />
  <defs
     id="defs1">
    <clipPath
       id="clip450">
      <rect
         x="0"
         y="0"
         width="4800"
         height="1600"
         id="rect1" />
    </clipPath>
  </defs>
  <defs
     id="defs2">
    <clipPath
       id="clip451">
      <rect
         x="960"
         y="0"
         width="3361"
         height="1600"
         id="rect2" />
    </clipPath>
  </defs>
  <defs
     id="defs3">
    <clipPath
       id="clip452">
      <rect
         x="305"
         y="47"
         width="4448"
         height="1327"
         id="rect3" />
    </clipPath>
  </defs>
  <g
     id="g20">
    <polyline
       clip-path="url(#clip450)"
       style="stroke:#000000; stroke-linecap:round; stroke-linejoin:round; stroke-width:4; stroke-opacity:1; fill:none"
       points="305.969,1372.77 4752.76,1372.77 "
       id="polyline3" />
    <path
       clip-path="url(#clip450)"
       d="M2351.81 1466.37 L2443.17 1466.37 L2443.17 1478.67 L2404.83 1478.67 L2404.83 1574.37 L2390.15 1574.37 L2390.15 1478.67 L2351.81 1478.67 L2351.81 1466.37 Z"
       fill="#000000"
       fill-rule="nonzero"
       fill-opacity="1"
       id="path3" />
    <path
       clip-path="url(#clip450)"
       d="M2452.14 1493.35 L2465.45 1493.35 L2465.45 1574.37 L2452.14 1574.37 L2452.14 1493.35 M2452.14 1461.81 L2465.45 1461.81 L2465.45 1478.67 L2452.14 1478.67 L2452.14 1461.81 Z"
       fill="#000000"
       fill-rule="nonzero"
       fill-opacity="1"
       id="path4" />
    <path
       clip-path="url(#clip450)"
       d="M2556.38 1508.91 Q2561.37 1499.94 2568.32 1495.67 Q2575.26 1491.4 2584.66 1491.4 Q2597.32 1491.4 2604.2 1500.3 Q2611.07 1509.12 2611.07 1525.47 L2611.07 1574.37 L2597.69 1574.37 L2597.69 1525.91 Q2597.69 1514.26 2593.56 1508.62 Q2589.44 1502.97 2580.98 1502.97 Q2570.63 1502.97 2564.63 1509.85 Q2558.62 1516.72 2558.62 1528.58 L2558.62 1574.37 L2545.24 1574.37 L2545.24 1525.91 Q2545.24 1514.19 2541.12 1508.62 Q2536.99 1502.97 2528.39 1502.97 Q2518.19 1502.97 2512.18 1509.92 Q2506.18 1516.79 2506.18 1528.58 L2506.18 1574.37 L2492.8 1574.37 L2492.8 1493.35 L2506.18 1493.35 L2506.18 1505.94 Q2510.74 1498.49 2517.1 1494.94 Q2523.47 1491.4 2532.22 1491.4 Q2541.04 1491.4 2547.19 1495.89 Q2553.41 1500.37 2556.38 1508.91 Z"
       fill="#000000"
       fill-rule="nonzero"
       fill-opacity="1"
       id="path5" />
    <path
       clip-path="url(#clip450)"
       d="M2706.91 1530.54 L2706.91 1537.05 L2645.72 1537.05 Q2646.59 1550.79 2653.96 1558.02 Q2661.41 1565.18 2674.65 1565.18 Q2682.32 1565.18 2689.48 1563.3 Q2696.72 1561.42 2703.8 1557.66 L2703.8 1570.25 Q2696.64 1573.29 2689.12 1574.88 Q2681.6 1576.47 2673.86 1576.47 Q2654.47 1576.47 2643.11 1565.18 Q2631.83 1553.9 2631.83 1534.66 Q2631.83 1514.77 2642.53 1503.12 Q2653.31 1491.4 2671.54 1491.4 Q2687.89 1491.4 2697.37 1501.96 Q2706.91 1512.45 2706.91 1530.54 M2693.6 1526.63 Q2693.46 1515.71 2687.46 1509.2 Q2681.52 1502.69 2671.69 1502.69 Q2660.55 1502.69 2653.82 1508.98 Q2647.16 1515.27 2646.15 1526.7 L2693.6 1526.63 Z"
       fill="#000000"
       fill-rule="nonzero"
       fill-opacity="1"
       id="path6" />
    <polyline
       clip-path="url(#clip450)"
       style="stroke:#000000; stroke-linecap:round; stroke-linejoin:round; stroke-width:4; stroke-opacity:1; fill:none"
       points="305.969,1372.77 305.969,47.2441 "
       id="polyline6" />
    <path
       clip-path="url(#clip450)"
       d="M29.8873 1136.47 L45.2952 1136.47 Q38.4232 1143.85 35.0233 1152.24 Q31.6234 1160.56 31.6234 1169.97 Q31.6234 1188.48 42.9804 1198.32 Q54.2651 1208.16 75.677 1208.16 Q97.0166 1208.16 108.374 1198.32 Q119.658 1188.48 119.658 1169.97 Q119.658 1160.56 116.258 1152.24 Q112.859 1143.85 105.986 1136.47 L121.25 1136.47 Q126.458 1144.14 129.062 1152.75 Q131.666 1161.29 131.666 1170.83 Q131.666 1195.36 116.692 1209.46 Q101.646 1223.57 75.677 1223.57 Q49.6355 1223.57 34.6616 1209.46 Q19.6154 1195.36 19.6154 1170.83 Q19.6154 1161.14 22.2195 1152.61 Q24.7514 1144 29.8873 1136.47 Z"
       fill="#000000"
       fill-rule="nonzero"
       fill-opacity="1"
       id="path7" />
    <path
       clip-path="url(#clip450)"
       d="M57.882 1083.09 Q57.882 1093.79 66.2731 1100.02 Q74.5919 1106.24 89.1318 1106.24 Q103.672 1106.24 112.063 1100.09 Q120.382 1093.87 120.382 1083.09 Q120.382 1072.46 111.99 1066.23 Q103.599 1060.01 89.1318 1060.01 Q74.7366 1060.01 66.3455 1066.23 Q57.882 1072.46 57.882 1083.09 M46.5973 1083.09 Q46.5973 1065.73 57.882 1055.82 Q69.1666 1045.91 89.1318 1045.91 Q109.025 1045.91 120.382 1055.82 Q131.666 1065.73 131.666 1083.09 Q131.666 1100.52 120.382 1110.43 Q109.025 1120.27 89.1318 1120.27 Q69.1666 1120.27 57.882 1110.43 Q46.5973 1100.52 46.5973 1083.09 Z"
       fill="#000000"
       fill-rule="nonzero"
       fill-opacity="1"
       id="path8" />
    <path
       clip-path="url(#clip450)"
       d="M80.6683 956.498 L129.569 956.498 L129.569 969.808 L81.1023 969.808 Q69.6007 969.808 63.886 974.293 Q58.1713 978.778 58.1713 987.748 Q58.1713 998.526 65.0434 1004.75 Q71.9155 1010.97 83.7788 1010.97 L129.569 1010.97 L129.569 1024.35 L48.5504 1024.35 L48.5504 1010.97 L61.1372 1010.97 Q53.8311 1006.19 50.2142 999.756 Q46.5973 993.246 46.5973 984.782 Q46.5973 970.821 55.2778 963.66 Q63.886 956.498 80.6683 956.498 Z"
       fill="#000000"
       fill-rule="nonzero"
       fill-opacity="1"
       id="path9" />
    <path
       clip-path="url(#clip450)"
       d="M51.6609 871.646 L64.103 871.646 Q60.9925 877.289 59.4734 883.003 Q57.882 888.646 57.882 894.433 Q57.882 907.381 66.1285 914.542 Q74.3026 921.704 89.1318 921.704 Q103.961 921.704 112.207 914.542 Q120.382 907.381 120.382 894.433 Q120.382 888.646 118.863 883.003 Q117.271 877.289 114.161 871.646 L126.458 871.646 Q129.062 877.216 130.364 883.22 Q131.666 889.152 131.666 895.879 Q131.666 914.181 120.165 924.959 Q108.663 935.737 89.1318 935.737 Q69.3113 935.737 57.9543 924.887 Q46.5973 913.964 46.5973 895.011 Q46.5973 888.863 47.8994 883.003 Q49.1291 877.144 51.6609 871.646 Z"
       fill="#000000"
       fill-rule="nonzero"
       fill-opacity="1"
       id="path10" />
    <path
       clip-path="url(#clip450)"
       d="M85.7319 779.199 L92.2423 779.199 L92.2423 840.396 Q105.986 839.528 113.22 832.15 Q120.382 824.699 120.382 811.461 Q120.382 803.794 118.501 796.632 Q116.62 789.398 112.859 782.309 L125.445 782.309 Q128.483 789.471 130.075 796.994 Q131.666 804.517 131.666 812.257 Q131.666 831.644 120.382 843.001 Q109.097 854.285 89.8552 854.285 Q69.9623 854.285 58.316 843.579 Q46.5973 832.801 46.5973 814.572 Q46.5973 798.224 57.1586 788.747 Q67.6475 779.199 85.7319 779.199 M81.8257 792.509 Q70.9027 792.654 64.3923 798.658 Q57.882 804.589 57.882 814.427 Q57.882 825.567 64.1753 832.295 Q70.4687 838.95 81.898 839.962 L81.8257 792.509 Z"
       fill="#000000"
       fill-rule="nonzero"
       fill-opacity="1"
       id="path11" />
    <path
       clip-path="url(#clip450)"
       d="M80.6683 690.007 L129.569 690.007 L129.569 703.317 L81.1023 703.317 Q69.6007 703.317 63.886 707.802 Q58.1713 712.287 58.1713 721.256 Q58.1713 732.035 65.0434 738.256 Q71.9155 744.477 83.7788 744.477 L129.569 744.477 L129.569 757.859 L48.5504 757.859 L48.5504 744.477 L61.1372 744.477 Q53.8311 739.702 50.2142 733.264 Q46.5973 726.754 46.5973 718.291 Q46.5973 704.329 55.2778 697.168 Q63.886 690.007 80.6683 690.007 Z"
       fill="#000000"
       fill-rule="nonzero"
       fill-opacity="1"
       id="path12" />
    <path
       clip-path="url(#clip450)"
       d="M25.5471 650.293 L48.5504 650.293 L48.5504 622.877 L58.8947 622.877 L58.8947 650.293 L102.876 650.293 Q112.786 650.293 115.607 647.617 Q118.429 644.868 118.429 636.549 L118.429 622.877 L129.569 622.877 L129.569 636.549 Q129.569 651.957 123.854 657.816 Q118.067 663.676 102.876 663.676 L58.8947 663.676 L58.8947 673.441 L48.5504 673.441 L48.5504 663.676 L25.5471 663.676 L25.5471 650.293 Z"
       fill="#000000"
       fill-rule="nonzero"
       fill-opacity="1"
       id="path13" />
    <path
       clip-path="url(#clip450)"
       d="M60.9925 558.424 Q59.6904 560.667 59.1117 563.343 Q58.4607 565.948 58.4607 569.13 Q58.4607 580.415 65.8391 586.491 Q73.1452 592.495 86.8893 592.495 L129.569 592.495 L129.569 605.878 L48.5504 605.878 L48.5504 592.495 L61.1372 592.495 Q53.7587 588.3 50.2142 581.573 Q46.5973 574.845 46.5973 565.224 Q46.5973 563.85 46.8143 562.186 Q46.959 560.522 47.3207 558.497 L60.9925 558.424 Z"
       fill="#000000"
       fill-rule="nonzero"
       fill-opacity="1"
       id="path14" />
    <path
       clip-path="url(#clip450)"
       d="M88.8424 507.644 Q88.8424 523.775 92.5317 529.996 Q96.2209 536.217 105.118 536.217 Q112.207 536.217 116.403 531.587 Q120.526 526.885 120.526 518.856 Q120.526 507.788 112.714 501.133 Q104.829 494.406 91.8083 494.406 L88.8424 494.406 L88.8424 507.644 M83.3448 481.096 L129.569 481.096 L129.569 494.406 L117.271 494.406 Q124.65 498.963 128.194 505.763 Q131.666 512.562 131.666 522.4 Q131.666 534.842 124.722 542.221 Q117.705 549.527 105.986 549.527 Q92.3147 549.527 85.3702 540.412 Q78.4258 531.226 78.4258 513.069 L78.4258 494.406 L77.1238 494.406 Q67.9369 494.406 62.9456 500.482 Q57.882 506.486 57.882 517.409 Q57.882 524.353 59.5457 530.936 Q61.2095 537.519 64.537 543.595 L52.2396 543.595 Q49.4185 536.289 48.0441 529.417 Q46.5973 522.545 46.5973 516.035 Q46.5973 498.457 55.7118 489.776 Q64.8264 481.096 83.3448 481.096 Z"
       fill="#000000"
       fill-rule="nonzero"
       fill-opacity="1"
       id="path15" />
    <path
       clip-path="url(#clip450)"
       d="M25.5471 440.514 L48.5504 440.514 L48.5504 413.098 L58.8947 413.098 L58.8947 440.514 L102.876 440.514 Q112.786 440.514 115.607 437.838 Q118.429 435.089 118.429 426.77 L118.429 413.098 L129.569 413.098 L129.569 426.77 Q129.569 442.178 123.854 448.037 Q118.067 453.897 102.876 453.897 L58.8947 453.897 L58.8947 463.662 L48.5504 463.662 L48.5504 453.897 L25.5471 453.897 L25.5471 440.514 Z"
       fill="#000000"
       fill-rule="nonzero"
       fill-opacity="1"
       id="path16" />
    <path
       clip-path="url(#clip450)"
       d="M48.5504 395.593 L48.5504 382.282 L129.569 382.282 L129.569 395.593 L48.5504 395.593 M17.0112 395.593 L17.0112 382.282 L33.8659 382.282 L33.8659 395.593 L17.0112 395.593 Z"
       fill="#000000"
       fill-rule="nonzero"
       fill-opacity="1"
       id="path17" />
    <path
       clip-path="url(#clip450)"
       d="M57.882 323.038 Q57.882 333.744 66.2731 339.965 Q74.5919 346.186 89.1318 346.186 Q103.672 346.186 112.063 340.037 Q120.382 333.816 120.382 323.038 Q120.382 312.404 111.99 306.183 Q103.599 299.962 89.1318 299.962 Q74.7366 299.962 66.3455 306.183 Q57.882 312.404 57.882 323.038 M46.5973 323.038 Q46.5973 305.677 57.882 295.767 Q69.1666 285.857 89.1318 285.857 Q109.025 285.857 120.382 295.767 Q131.666 305.677 131.666 323.038 Q131.666 340.471 120.382 350.382 Q109.025 360.22 89.1318 360.22 Q69.1666 360.22 57.882 350.382 Q46.5973 340.471 46.5973 323.038 Z"
       fill="#000000"
       fill-rule="nonzero"
       fill-opacity="1"
       id="path18" />
    <path
       clip-path="url(#clip450)"
       d="M80.6683 196.447 L129.569 196.447 L129.569 209.757 L81.1023 209.757 Q69.6007 209.757 63.886 214.242 Q58.1713 218.727 58.1713 227.697 Q58.1713 238.475 65.0434 244.696 Q71.9155 250.917 83.7788 250.917 L129.569 250.917 L129.569 264.3 L48.5504 264.3 L48.5504 250.917 L61.1372 250.917 Q53.8311 246.143 50.2142 239.705 Q46.5973 233.195 46.5973 224.731 Q46.5973 210.77 55.2778 203.609 Q63.886 196.447 80.6683 196.447 Z"
       fill="#000000"
       fill-rule="nonzero"
       fill-opacity="1"
       id="path19" />
    <polyline
       clip-path="url(#clip452)"
       style="stroke:#000000; stroke-linecap:round; stroke-linejoin:round; stroke-width:12; stroke-opacity:1; fill:none"
       points="431.821,211.923 451.333,84.793 470.845,198.793 490.357,410.057 509.869,551.732 529.381,609.116 548.893,631.152 568.405,646.933 587.917,672.604 607.429,730.899 626.941,909.525 646.453,1063.94 665.965,1137.08 685.477,1197.41 704.989,1253.4 724.501,1300.12 744.013,1329.48 763.525,1335.26 783.037,1316.07 802.549,1275.42 822.061,1219.67 841.573,1155.6 861.085,1085.68 880.597,606.533 900.109,211.922 919.621,84.7918 939.133,198.791 958.645,410.055 978.157,551.73 997.669,609.114 1017.18,631.15 1036.69,646.932 1056.21,672.602 1075.72,730.897 1095.23,909.53 1114.74,1063.94 1134.25,1137.08 1153.77,1197.41 1173.28,1253.39 1192.79,1300.12 1212.3,1329.47 1231.81,1335.26 1251.33,1316.07 1270.84,1275.42 1290.35,1219.67 1309.86,1155.6 1329.37,1085.92 1348.89,606.564 1368.4,211.915 1387.91,84.769 1407.42,198.76 1426.93,410.033 1446.45,551.71 1465.96,609.117 1485.47,631.146 1504.98,646.929 1524.49,672.6 1544.01,730.894 1563.52,909.536 1583.03,1063.94 1602.54,1137.08 1622.05,1197.41 1641.57,1253.39 1661.08,1300.12 1680.59,1329.47 1700.1,1335.26 1719.61,1316.07 1739.13,1275.42 1758.64,1219.67 1778.15,1155.6 1797.66,1085.69 1817.17,606.533 1836.69,211.919 1856.2,84.7856 1875.71,198.783 1895.22,410.049 1914.73,551.72 1934.25,609.115 1953.76,631.145 1973.27,646.927 1992.78,672.598 2012.29,730.893 2031.81,909.504 2051.32,1063.93 2070.83,1137.07 2090.34,1197.41 2109.85,1253.39 2129.37,1300.12 2148.88,1329.47 2168.39,1335.26 2187.9,1316.07 2207.41,1275.42 2226.93,1219.67 2246.44,1155.6 2265.95,1085.67 2285.46,606.529 2304.97,211.918 2324.49,84.7868 2344,198.781 2363.51,410.044 2383.02,551.712 2402.53,609.115 2422.05,631.143 2441.56,646.926 2461.07,672.596 2480.58,730.891 2500.09,909.551 2519.61,1063.94 2539.12,1137.08 2558.63,1197.41 2578.14,1253.39 2597.65,1300.12 2617.17,1329.47 2636.68,1335.26 2656.19,1316.07 2675.7,1275.42 2695.21,1219.67 2714.73,1155.6 2734.24,1085.74 2753.75,606.536 2773.26,211.913 2792.77,84.7778 2812.29,198.772 2831.8,410.036 2851.31,551.712 2870.82,609.105 2890.33,631.141 2909.85,646.924 2929.36,672.594 2948.87,730.891 2968.38,909.569 2987.89,1063.94 3007.41,1137.08 3026.92,1197.41 3046.43,1253.39 3065.94,1300.12 3085.45,1329.47 3104.97,1335.26 3124.48,1316.07 3143.99,1275.42 3163.5,1219.67 3183.01,1155.6 3202.53,1085.66 3222.04,606.527 3241.55,211.914 3261.06,84.7808 3280.57,198.774 3300.09,410.037 3319.6,551.706 3339.11,609.11 3358.62,631.139 3378.13,646.921 3397.65,672.593 3417.16,730.888 3436.67,909.633 3456.18,1063.95 3475.69,1137.08 3495.21,1197.41 3514.72,1253.39 3534.23,1300.12 3553.74,1329.48 3573.25,1335.26 3592.77,1316.07 3612.28,1275.42 3631.79,1219.67 3651.3,1155.6 3670.81,1085.84 3690.33,606.548 3709.84,211.905 3729.35,84.759 3748.86,198.753 3768.37,410.025 3787.89,551.707 3807.4,609.101 3826.91,631.137 3846.42,646.92 3865.93,672.591 3885.45,730.887 3904.96,909.505 3924.47,1063.93 3943.98,1137.07 3963.5,1197.4 3983.01,1253.39 4002.52,1300.12 4022.03,1329.47 4041.54,1335.26 4061.06,1316.07 4080.57,1275.42 4100.08,1219.67 4119.59,1155.6 4139.1,1085.78 4158.62,606.541 4178.13,211.909 4197.64,84.7677 4217.15,198.762 4236.66,410.03 4256.18,551.708 4275.69,609.1 4295.2,631.136 4314.71,646.918 4334.22,672.589 4353.74,730.885 4373.25,909.504 4392.76,1063.93 4412.27,1137.07 4431.78,1197.4 4451.3,1253.39 4470.81,1300.12 4490.32,1329.47 4509.83,1335.26 4529.34,1316.07 4548.86,1275.42 4568.37,1219.67 4587.88,1155.6 4607.39,1085.77 4626.9,606.541 "
       id="polyline19" />
    <polyline
       clip-path="url(#clip452)"
       style="stroke:#ff0000; stroke-linecap:round; stroke-linejoin:round; stroke-width:20; stroke-opacity:1; fill:none"
       stroke-dasharray="80, 50"
       points="431.821,212.346 451.333,115.724 470.845,147.284 490.357,332.031 509.869,575.535 529.381,765.928 548.893,847.689 568.405,860.316 587.917,862.656 607.429,883.709 626.941,938.662 646.453,1009.69 665.965,1070.91 685.477,1120.79 704.989,1158.92 724.501,1185.66 744.013,1201.76 763.525,1207.86 783.037,1204.32 802.549,1191.34 822.061,1169.26 841.573,1138.78 861.085,1100.63 880.597,904.168 900.109,602.339 919.621,387.807 939.133,344.859 958.645,456.627 978.157,634.97 997.669,776.275 1017.18,836.437 1036.69,848.178 1056.21,855.206 1075.72,879.994 1095.23,936.784 1114.74,1008.9 1134.25,1071.14 1153.77,1121.85 1173.28,1160.52 1192.79,1187.51 1212.3,1203.6 1231.81,1209.51 1251.33,1205.69 1270.84,1192.41 1290.35,1170.06 1309.86,1139.36 1329.37,1100.98 1348.89,904.312 1368.4,602.264 1387.91,387.56 1407.42,344.512 1426.93,456.266 1446.45,634.702 1465.96,776.156 1485.47,836.44 1504.98,848.203 1524.49,855.238 1544.01,880.023 1563.52,936.987 1583.03,1009.08 1602.54,1071.3 1622.05,1121.98 1641.57,1160.61 1661.08,1187.55 1680.59,1203.6 1700.1,1209.48 1719.61,1205.65 1739.13,1192.37 1758.64,1170.03 1778.15,1139.32 1797.66,1102.29 1817.17,904.151 1836.69,602.147 1856.2,387.47 1875.71,344.443 1895.22,456.217 1914.73,634.675 1934.25,776.149 1953.76,836.443 1973.27,848.208 1992.78,855.242 2012.29,880.025 2031.81,937 2051.32,1009.07 2070.83,1071.29 2090.34,1121.97 2109.85,1160.6 2129.37,1187.55 2148.88,1203.6 2168.39,1209.48 2187.9,1205.65 2207.41,1192.37 2226.93,1170.03 2246.44,1139.32 2265.95,1102.86 2285.46,904.126 2304.97,602.132 2324.49,387.465 2344,344.449 2363.51,456.222 2383.02,634.676 2402.53,776.154 2422.05,836.459 2441.56,848.22 2461.07,855.241 2480.58,880.022 2500.09,936.907 2519.61,1009.35 2539.12,1071.53 2558.63,1122.16 2578.14,1160.74 2597.65,1187.64 2617.17,1203.65 2636.68,1209.5 2656.19,1205.65 2675.7,1192.35 2695.21,1169.99 2714.73,1139.28 2734.24,1101.35 2753.75,904.148 2773.26,602.1 2792.77,387.387 2812.29,344.338 2831.8,456.114 2851.31,634.6 2870.82,776.117 2890.33,836.442 2909.85,848.218 2929.36,855.251 2948.87,880.032 2968.38,937.005 2987.89,1009.08 3007.41,1071.3 3026.92,1121.97 3046.43,1160.6 3065.94,1187.55 3085.45,1203.6 3104.97,1209.48 3124.48,1205.65 3143.99,1192.37 3163.5,1170.03 3183.01,1139.32 3202.53,1102.85 3222.04,904.127 3241.55,602.132 3261.06,387.464 3280.57,344.447 3300.09,456.221 3319.6,634.674 3339.11,776.153 3358.62,836.458 3378.13,848.221 3397.65,855.241 3417.16,880.022 3436.67,936.907 3456.18,1009.31 3475.69,1071.49 3495.21,1122.13 3514.72,1160.71 3534.23,1187.62 3553.74,1203.65 3573.25,1209.51 3592.77,1205.66 3612.28,1192.36 3631.79,1170 3651.3,1139.29 3670.81,1100.92 3690.33,904.235 3709.84,602.149 3729.35,387.41 3748.86,344.343 3768.37,456.109 3787.89,634.592 3807.4,776.111 3826.91,836.44 3846.42,848.218 3865.93,855.252 3885.45,880.033 3904.96,937.008 3924.47,1009.08 3943.98,1071.3 3963.5,1121.97 3983.01,1160.6 4002.52,1187.55 4022.03,1203.6 4041.54,1209.48 4061.06,1205.65 4080.57,1192.37 4100.08,1170.03 4119.59,1139.32 4139.1,1102.86 4158.62,904.125 4178.13,602.131 4197.64,387.465 4217.15,344.447 4236.66,456.221 4256.18,634.675 4275.69,776.154 4295.2,836.459 4314.71,848.22 4334.22,855.241 4353.74,880.022 4373.25,936.907 4392.76,1009.36 4412.27,1071.54 4431.78,1122.17 4451.3,1160.74 4470.81,1187.64 4490.32,1203.65 4509.83,1209.51 4529.34,1205.65 4548.86,1192.35 4568.37,1169.99 4587.88,1139.28 4607.39,1101.04 4626.9,904.288 "
       id="polyline20" />
  </g>
</svg>
