<?xml version="1.0" encoding="UTF-8" standalone="no"?>
<svg
   width="1200"
   height="400"
   viewBox="0 0 4800 1600"
   version="1.1"
   id="svg20"
   sodipodi:docname="med_case.svg"
   inkscape:version="1.3 (0e150ed6c4, 2023-07-21)"
   xmlns:inkscape="http://www.inkscape.org/namespaces/inkscape"
   xmlns:sodipodi="http://sodipodi.sourceforge.net/DTD/sodipodi-0.dtd"
   xmlns="http://www.w3.org/2000/svg"
   xmlns:svg="http://www.w3.org/2000/svg">
  <sodipodi:namedview
     id="namedview20"
     pagecolor="#ffffff"
     bordercolor="#000000"
     borderopacity="0.25"
     inkscape:showpageshadow="2"
     inkscape:pageopacity="0.0"
     inkscape:pagecheckerboard="0"
     inkscape:deskcolor="#d1d1d1"
     inkscape:zoom="0.85583333"
     inkscape:cx="600"
     inkscape:cy="199.80526"
     inkscape:window-width="1920"
     inkscape:window-height="1010"
     inkscape:window-x="-6"
     inkscape:window-y="-6"
     inkscape:window-maximized="1"
     inkscape:current-layer="svg20" />
  <defs
     id="defs1">
    <clipPath
       id="clip490">
      <rect
         x="0"
         y="0"
         width="4800"
         height="1600"
         id="rect1" />
    </clipPath>
  </defs>
  <defs
     id="defs2">
    <clipPath
       id="clip491">
      <rect
         x="960"
         y="0"
         width="3361"
         height="1600"
         id="rect2" />
    </clipPath>
  </defs>
  <defs
     id="defs3">
    <clipPath
       id="clip492">
      <rect
         x="305"
         y="47"
         width="4448"
         height="1327"
         id="rect3" />
    </clipPath>
  </defs>
  <g
     id="g20">
    <polyline
       clip-path="url(#clip490)"
       style="stroke:#000000; stroke-linecap:round; stroke-linejoin:round; stroke-width:4; stroke-opacity:1; fill:none"
       points="305.969,1372.77 4752.76,1372.77 "
       id="polyline3" />
    <path
       clip-path="url(#clip490)"
       d="M2351.81 1466.37 L2443.17 1466.37 L2443.17 1478.67 L2404.83 1478.67 L2404.83 1574.37 L2390.15 1574.37 L2390.15 1478.67 L2351.81 1478.67 L2351.81 1466.37 Z"
       fill="#000000"
       fill-rule="nonzero"
       fill-opacity="1"
       id="path3" />
    <path
       clip-path="url(#clip490)"
       d="M2452.14 1493.35 L2465.45 1493.35 L2465.45 1574.37 L2452.14 1574.37 L2452.14 1493.35 M2452.14 1461.81 L2465.45 1461.81 L2465.45 1478.67 L2452.14 1478.67 L2452.14 1461.81 Z"
       fill="#000000"
       fill-rule="nonzero"
       fill-opacity="1"
       id="path4" />
    <path
       clip-path="url(#clip490)"
       d="M2556.38 1508.91 Q2561.37 1499.94 2568.32 1495.67 Q2575.26 1491.4 2584.66 1491.4 Q2597.32 1491.4 2604.2 1500.3 Q2611.07 1509.12 2611.07 1525.47 L2611.07 1574.37 L2597.69 1574.37 L2597.69 1525.91 Q2597.69 1514.26 2593.56 1508.62 Q2589.44 1502.97 2580.98 1502.97 Q2570.63 1502.97 2564.63 1509.85 Q2558.62 1516.72 2558.62 1528.58 L2558.62 1574.37 L2545.24 1574.37 L2545.24 1525.91 Q2545.24 1514.19 2541.12 1508.62 Q2536.99 1502.97 2528.39 1502.97 Q2518.19 1502.97 2512.18 1509.92 Q2506.18 1516.79 2506.18 1528.58 L2506.18 1574.37 L2492.8 1574.37 L2492.8 1493.35 L2506.18 1493.35 L2506.18 1505.94 Q2510.74 1498.49 2517.1 1494.94 Q2523.47 1491.4 2532.22 1491.4 Q2541.04 1491.4 2547.19 1495.89 Q2553.41 1500.37 2556.38 1508.91 Z"
       fill="#000000"
       fill-rule="nonzero"
       fill-opacity="1"
       id="path5" />
    <path
       clip-path="url(#clip490)"
       d="M2706.91 1530.54 L2706.91 1537.05 L2645.72 1537.05 Q2646.59 1550.79 2653.96 1558.02 Q2661.41 1565.18 2674.65 1565.18 Q2682.32 1565.18 2689.48 1563.3 Q2696.72 1561.42 2703.8 1557.66 L2703.8 1570.25 Q2696.64 1573.29 2689.12 1574.88 Q2681.6 1576.47 2673.86 1576.47 Q2654.47 1576.47 2643.11 1565.18 Q2631.83 1553.9 2631.83 1534.66 Q2631.83 1514.77 2642.53 1503.12 Q2653.31 1491.4 2671.54 1491.4 Q2687.89 1491.4 2697.37 1501.96 Q2706.91 1512.45 2706.91 1530.54 M2693.6 1526.63 Q2693.46 1515.71 2687.46 1509.2 Q2681.52 1502.69 2671.69 1502.69 Q2660.55 1502.69 2653.82 1508.98 Q2647.16 1515.27 2646.15 1526.7 L2693.6 1526.63 Z"
       fill="#000000"
       fill-rule="nonzero"
       fill-opacity="1"
       id="path6" />
    <polyline
       clip-path="url(#clip490)"
       style="stroke:#000000; stroke-linecap:round; stroke-linejoin:round; stroke-width:4; stroke-opacity:1; fill:none"
       points="305.969,1372.77 305.969,47.2441 "
       id="polyline6" />
    <path
       clip-path="url(#clip490)"
       d="M29.8873 1136.47 L45.2952 1136.47 Q38.4232 1143.85 35.0233 1152.24 Q31.6234 1160.56 31.6234 1169.97 Q31.6234 1188.48 42.9804 1198.32 Q54.2651 1208.16 75.677 1208.16 Q97.0166 1208.16 108.374 1198.32 Q119.658 1188.48 119.658 1169.97 Q119.658 1160.56 116.258 1152.24 Q112.859 1143.85 105.986 1136.47 L121.25 1136.47 Q126.458 1144.14 129.062 1152.75 Q131.666 1161.29 131.666 1170.83 Q131.666 1195.36 116.692 1209.46 Q101.646 1223.57 75.677 1223.57 Q49.6355 1223.57 34.6616 1209.46 Q19.6154 1195.36 19.6154 1170.83 Q19.6154 1161.14 22.2195 1152.61 Q24.7514 1144 29.8873 1136.47 Z"
       fill="#000000"
       fill-rule="nonzero"
       fill-opacity="1"
       id="path7" />
    <path
       clip-path="url(#clip490)"
       d="M57.882 1083.09 Q57.882 1093.79 66.2731 1100.02 Q74.5919 1106.24 89.1318 1106.24 Q103.672 1106.24 112.063 1100.09 Q120.382 1093.87 120.382 1083.09 Q120.382 1072.46 111.99 1066.23 Q103.599 1060.01 89.1318 1060.01 Q74.7366 1060.01 66.3455 1066.23 Q57.882 1072.46 57.882 1083.09 M46.5973 1083.09 Q46.5973 1065.73 57.882 1055.82 Q69.1666 1045.91 89.1318 1045.91 Q109.025 1045.91 120.382 1055.82 Q131.666 1065.73 131.666 1083.09 Q131.666 1100.52 120.382 1110.43 Q109.025 1120.27 89.1318 1120.27 Q69.1666 1120.27 57.882 1110.43 Q46.5973 1100.52 46.5973 1083.09 Z"
       fill="#000000"
       fill-rule="nonzero"
       fill-opacity="1"
       id="path8" />
    <path
       clip-path="url(#clip490)"
       d="M80.6683 956.498 L129.569 956.498 L129.569 969.808 L81.1023 969.808 Q69.6007 969.808 63.886 974.293 Q58.1713 978.778 58.1713 987.748 Q58.1713 998.526 65.0434 1004.75 Q71.9155 1010.97 83.7788 1010.97 L129.569 1010.97 L129.569 1024.35 L48.5504 1024.35 L48.5504 1010.97 L61.1372 1010.97 Q53.8311 1006.19 50.2142 999.756 Q46.5973 993.246 46.5973 984.782 Q46.5973 970.821 55.2778 963.66 Q63.886 956.498 80.6683 956.498 Z"
       fill="#000000"
       fill-rule="nonzero"
       fill-opacity="1"
       id="path9" />
    <path
       clip-path="url(#clip490)"
       d="M51.6609 871.646 L64.103 871.646 Q60.9925 877.289 59.4734 883.003 Q57.882 888.646 57.882 894.433 Q57.882 907.381 66.1285 914.542 Q74.3026 921.704 89.1318 921.704 Q103.961 921.704 112.207 914.542 Q120.382 907.381 120.382 894.433 Q120.382 888.646 118.863 883.003 Q117.271 877.289 114.161 871.646 L126.458 871.646 Q129.062 877.216 130.364 883.22 Q131.666 889.152 131.666 895.879 Q131.666 914.181 120.165 924.959 Q108.663 935.737 89.1318 935.737 Q69.3113 935.737 57.9543 924.887 Q46.5973 913.964 46.5973 895.011 Q46.5973 888.863 47.8994 883.003 Q49.1291 877.144 51.6609 871.646 Z"
       fill="#000000"
       fill-rule="nonzero"
       fill-opacity="1"
       id="path10" />
    <path
       clip-path="url(#clip490)"
       d="M85.7319 779.199 L92.2423 779.199 L92.2423 840.396 Q105.986 839.528 113.22 832.15 Q120.382 824.699 120.382 811.461 Q120.382 803.794 118.501 796.632 Q116.62 789.398 112.859 782.309 L125.445 782.309 Q128.483 789.471 130.075 796.994 Q131.666 804.517 131.666 812.257 Q131.666 831.644 120.382 843.001 Q109.097 854.285 89.8552 854.285 Q69.9623 854.285 58.316 843.579 Q46.5973 832.801 46.5973 814.572 Q46.5973 798.224 57.1586 788.747 Q67.6475 779.199 85.7319 779.199 M81.8257 792.509 Q70.9027 792.654 64.3923 798.658 Q57.882 804.589 57.882 814.427 Q57.882 825.567 64.1753 832.295 Q70.4687 838.95 81.898 839.962 L81.8257 792.509 Z"
       fill="#000000"
       fill-rule="nonzero"
       fill-opacity="1"
       id="path11" />
    <path
       clip-path="url(#clip490)"
       d="M80.6683 690.007 L129.569 690.007 L129.569 703.317 L81.1023 703.317 Q69.6007 703.317 63.886 707.802 Q58.1713 712.287 58.1713 721.256 Q58.1713 732.035 65.0434 738.256 Q71.9155 744.477 83.7788 744.477 L129.569 744.477 L129.569 757.859 L48.5504 757.859 L48.5504 744.477 L61.1372 744.477 Q53.8311 739.702 50.2142 733.264 Q46.5973 726.754 46.5973 718.291 Q46.5973 704.329 55.2778 697.168 Q63.886 690.007 80.6683 690.007 Z"
       fill="#000000"
       fill-rule="nonzero"
       fill-opacity="1"
       id="path12" />
    <path
       clip-path="url(#clip490)"
       d="M25.5471 650.293 L48.5504 650.293 L48.5504 622.877 L58.8947 622.877 L58.8947 650.293 L102.876 650.293 Q112.786 650.293 115.607 647.617 Q118.429 644.868 118.429 636.549 L118.429 622.877 L129.569 622.877 L129.569 636.549 Q129.569 651.957 123.854 657.816 Q118.067 663.676 102.876 663.676 L58.8947 663.676 L58.8947 673.441 L48.5504 673.441 L48.5504 663.676 L25.5471 663.676 L25.5471 650.293 Z"
       fill="#000000"
       fill-rule="nonzero"
       fill-opacity="1"
       id="path13" />
    <path
       clip-path="url(#clip490)"
       d="M60.9925 558.424 Q59.6904 560.667 59.1117 563.343 Q58.4607 565.948 58.4607 569.13 Q58.4607 580.415 65.8391 586.491 Q73.1452 592.495 86.8893 592.495 L129.569 592.495 L129.569 605.878 L48.5504 605.878 L48.5504 592.495 L61.1372 592.495 Q53.7587 588.3 50.2142 581.573 Q46.5973 574.845 46.5973 565.224 Q46.5973 563.85 46.8143 562.186 Q46.959 560.522 47.3207 558.497 L60.9925 558.424 Z"
       fill="#000000"
       fill-rule="nonzero"
       fill-opacity="1"
       id="path14" />
    <path
       clip-path="url(#clip490)"
       d="M88.8424 507.644 Q88.8424 523.775 92.5317 529.996 Q96.2209 536.217 105.118 536.217 Q112.207 536.217 116.403 531.587 Q120.526 526.885 120.526 518.856 Q120.526 507.788 112.714 501.133 Q104.829 494.406 91.8083 494.406 L88.8424 494.406 L88.8424 507.644 M83.3448 481.096 L129.569 481.096 L129.569 494.406 L117.271 494.406 Q124.65 498.963 128.194 505.763 Q131.666 512.562 131.666 522.4 Q131.666 534.842 124.722 542.221 Q117.705 549.527 105.986 549.527 Q92.3147 549.527 85.3702 540.412 Q78.4258 531.226 78.4258 513.069 L78.4258 494.406 L77.1238 494.406 Q67.9369 494.406 62.9456 500.482 Q57.882 506.486 57.882 517.409 Q57.882 524.353 59.5457 530.936 Q61.2095 537.519 64.537 543.595 L52.2396 543.595 Q49.4185 536.289 48.0441 529.417 Q46.5973 522.545 46.5973 516.035 Q46.5973 498.457 55.7118 489.776 Q64.8264 481.096 83.3448 481.096 Z"
       fill="#000000"
       fill-rule="nonzero"
       fill-opacity="1"
       id="path15" />
    <path
       clip-path="url(#clip490)"
       d="M25.5471 440.514 L48.5504 440.514 L48.5504 413.098 L58.8947 413.098 L58.8947 440.514 L102.876 440.514 Q112.786 440.514 115.607 437.838 Q118.429 435.089 118.429 426.77 L118.429 413.098 L129.569 413.098 L129.569 426.77 Q129.569 442.178 123.854 448.037 Q118.067 453.897 102.876 453.897 L58.8947 453.897 L58.8947 463.662 L48.5504 463.662 L48.5504 453.897 L25.5471 453.897 L25.5471 440.514 Z"
       fill="#000000"
       fill-rule="nonzero"
       fill-opacity="1"
       id="path16" />
    <path
       clip-path="url(#clip490)"
       d="M48.5504 395.593 L48.5504 382.282 L129.569 382.282 L129.569 395.593 L48.5504 395.593 M17.0112 395.593 L17.0112 382.282 L33.8659 382.282 L33.8659 395.593 L17.0112 395.593 Z"
       fill="#000000"
       fill-rule="nonzero"
       fill-opacity="1"
       id="path17" />
    <path
       clip-path="url(#clip490)"
       d="M57.882 323.038 Q57.882 333.744 66.2731 339.965 Q74.5919 346.186 89.1318 346.186 Q103.672 346.186 112.063 340.037 Q120.382 333.816 120.382 323.038 Q120.382 312.404 111.99 306.183 Q103.599 299.962 89.1318 299.962 Q74.7366 299.962 66.3455 306.183 Q57.882 312.404 57.882 323.038 M46.5973 323.038 Q46.5973 305.677 57.882 295.767 Q69.1666 285.857 89.1318 285.857 Q109.025 285.857 120.382 295.767 Q131.666 305.677 131.666 323.038 Q131.666 340.471 120.382 350.382 Q109.025 360.22 89.1318 360.22 Q69.1666 360.22 57.882 350.382 Q46.5973 340.471 46.5973 323.038 Z"
       fill="#000000"
       fill-rule="nonzero"
       fill-opacity="1"
       id="path18" />
    <path
       clip-path="url(#clip490)"
       d="M80.6683 196.447 L129.569 196.447 L129.569 209.757 L81.1023 209.757 Q69.6007 209.757 63.886 214.242 Q58.1713 218.727 58.1713 227.697 Q58.1713 238.475 65.0434 244.696 Q71.9155 250.917 83.7788 250.917 L129.569 250.917 L129.569 264.3 L48.5504 264.3 L48.5504 250.917 L61.1372 250.917 Q53.8311 246.143 50.2142 239.705 Q46.5973 233.195 46.5973 224.731 Q46.5973 210.77 55.2778 203.609 Q63.886 196.447 80.6683 196.447 Z"
       fill="#000000"
       fill-rule="nonzero"
       fill-opacity="1"
       id="path19" />
    <polyline
       clip-path="url(#clip492)"
       style="stroke:#000000; stroke-linecap:round; stroke-linejoin:round; stroke-width:12; stroke-opacity:1; fill:none"
       points="431.821,1239.65 451.333,1253.13 470.845,1263.79 490.357,1271.22 509.869,1274.69 529.381,1273.83 548.893,1268.74 568.405,1259.85 587.917,1247.9 607.429,1233.73 626.941,1182.78 646.453,1021.37 665.965,879.573 685.477,786.345 704.989,745.118 724.501,751.419 744.013,794.52 763.525,859.007 783.037,927.942 802.549,989.241 822.061,1042.67 841.573,1102.36 861.085,1184.41 880.597,1220.54 900.109,1239.34 919.621,1253.03 939.133,1263.76 958.645,1271.21 978.157,1274.68 997.669,1273.83 1017.18,1268.73 1036.69,1259.85 1056.21,1247.89 1075.72,1233.72 1095.23,1182.71 1114.74,1021.03 1134.25,878.845 1153.77,785.247 1173.28,743.708 1192.79,749.793 1212.3,792.787 1231.81,857.426 1251.33,926.643 1270.84,988.335 1290.35,1042.13 1309.86,1102.09 1329.37,1184.32 1348.89,1220.51 1368.4,1239.33 1387.91,1253.02 1407.42,1263.76 1426.93,1271.21 1446.45,1274.68 1465.96,1273.83 1485.47,1268.73 1504.98,1259.85 1524.49,1247.89 1544.01,1233.72 1563.52,1182.71 1583.03,1021.02 1602.54,878.813 1622.05,785.199 1641.57,743.646 1661.08,749.72 1680.59,792.712 1700.1,857.354 1719.61,926.584 1739.13,988.294 1758.64,1042.11 1778.15,1102.08 1797.66,1184.32 1817.17,1220.5 1836.69,1239.33 1856.2,1253.02 1875.71,1263.76 1895.22,1271.21 1914.73,1274.68 1934.25,1273.83 1953.76,1268.73 1973.27,1259.85 1992.78,1247.89 2012.29,1233.72 2031.81,1182.69 2051.32,1021.01 2070.83,878.811 2090.34,785.197 2109.85,743.645 2129.37,749.717 2148.88,792.738 2168.39,857.334 2187.9,926.582 2207.41,988.295 2226.93,1042.11 2246.44,1102.08 2265.95,1184.3 2285.46,1220.5 2304.97,1239.33 2324.49,1253.02 2344,1263.76 2363.51,1271.21 2383.02,1274.68 2402.53,1273.83 2422.05,1268.73 2441.56,1259.85 2461.07,1247.89 2480.58,1233.72 2500.09,1182.7 2519.61,1021.01 2539.12,878.811 2558.63,785.196 2578.14,743.643 2597.65,749.717 2617.17,792.707 2636.68,857.349 2656.19,926.58 2675.7,988.29 2695.21,1042.11 2714.73,1102.07 2734.24,1184.31 2753.75,1220.5 2773.26,1239.33 2792.77,1253.02 2812.29,1263.76 2831.8,1271.21 2851.31,1274.68 2870.82,1273.83 2890.33,1268.73 2909.85,1259.85 2929.36,1247.89 2948.87,1233.72 2968.38,1182.72 2987.89,1021.02 3007.41,878.81 3026.92,785.193 3046.43,743.638 3065.94,749.709 3085.45,792.72 3104.97,857.332 3124.48,926.574 3143.99,988.287 3163.5,1042.1 3183.01,1102.07 3202.53,1184.31 3222.04,1220.5 3241.55,1239.33 3261.06,1253.02 3280.57,1263.76 3300.09,1271.21 3319.6,1274.68 3339.11,1273.83 3358.62,1268.73 3378.13,1259.85 3397.65,1247.89 3417.16,1233.72 3436.67,1182.72 3456.18,1021.02 3475.69,878.809 3495.21,785.192 3514.72,743.637 3534.23,749.708 3553.74,792.727 3573.25,857.327 3592.77,926.573 3612.28,988.287 3631.79,1042.1 3651.3,1102.07 3670.81,1184.31 3690.33,1220.5 3709.84,1239.33 3729.35,1253.02 3748.86,1263.76 3768.37,1271.21 3787.89,1274.68 3807.4,1273.83 3826.91,1268.73 3846.42,1259.85 3865.93,1247.89 3885.45,1233.72 3904.96,1182.7 3924.47,1021.01 3943.98,878.809 3963.5,785.193 3983.01,743.639 4002.52,749.712 4022.03,792.703 4041.54,857.328 4061.06,926.573 4080.57,988.287 4100.08,1042.1 4119.59,1102.07 4139.1,1184.29 4158.62,1220.5 4178.13,1239.33 4197.64,1253.02 4217.15,1263.76 4236.66,1271.21 4256.18,1274.68 4275.69,1273.83 4295.2,1268.73 4314.71,1259.85 4334.22,1247.89 4353.74,1233.72 4373.25,1182.7 4392.76,1021.01 4412.27,878.809 4431.78,785.193 4451.3,743.639 4470.81,749.712 4490.32,792.703 4509.83,857.321 4529.34,926.572 4548.86,988.287 4568.37,1042.1 4587.88,1102.07 4607.39,1184.29 4626.9,1220.5 "
       id="polyline19" />
    <polyline
       clip-path="url(#clip492)"
       style="stroke:#ff0000; stroke-linecap:round; stroke-linejoin:round; stroke-width:20; stroke-opacity:1; fill:none"
       stroke-dasharray="80, 50"
       points="431.821,1239.49 451.333,1318.33 470.845,1331.77 490.357,1335.26 509.869,1333.84 529.381,1327.39 548.893,1313.7 568.405,1290.69 587.917,1258.25 607.429,1219.41 626.941,1152.12 646.453,975.31 665.965,767.644 685.477,488.124 704.989,84.759 724.501,830.222 744.013,1309.37 763.525,1168.13 783.037,1064.46 802.549,1047.65 822.061,1069.76 841.573,1117.27 861.085,1193.12 880.597,1259.72 900.109,1303.19 919.621,1324.63 939.133,1332.55 958.645,1334.46 978.157,1332.63 997.669,1325.6 1017.18,1310.7 1036.69,1285.98 1056.21,1251.95 1075.72,1212.41 1095.23,1146.14 1114.74,971.004 1134.25,762.082 1153.77,470.593 1173.28,99.12 1192.79,884.393 1212.3,1322.65 1231.81,1150.95 1251.33,1055.91 1270.84,1044.32 1290.35,1068.99 1309.86,1117.63 1329.37,1193.84 1348.89,1260.56 1368.4,1303.92 1387.91,1325.09 1407.42,1332.78 1426.93,1334.55 1446.45,1332.66 1465.96,1325.6 1485.47,1310.69 1504.98,1285.96 1524.49,1251.92 1544.01,1212.38 1563.52,1146.12 1583.03,970.99 1602.54,762.063 1622.05,470.535 1641.57,99.278 1661.08,884.601 1680.59,1322.55 1700.1,1150.88 1719.61,1055.91 1739.13,1044.34 1758.64,1069.02 1778.15,1117.66 1797.66,1193.87 1817.17,1260.58 1836.69,1303.93 1856.2,1325.1 1875.71,1332.78 1895.22,1334.55 1914.73,1332.65 1934.25,1325.6 1953.76,1310.68 1973.27,1285.96 1992.78,1251.91 2012.29,1212.37 2031.81,1146.14 2051.32,971.005 2070.83,762.082 2090.34,470.591 2109.85,99.0143 2129.37,884.324 2148.88,1322.54 2168.39,1150.97 2187.9,1055.95 2207.41,1044.35 2226.93,1069.01 2246.44,1117.65 2265.95,1193.86 2285.46,1260.58 2304.97,1303.92 2324.49,1325.09 2344,1332.78 2363.51,1334.55 2383.02,1332.65 2402.53,1325.6 2422.05,1310.68 2441.56,1285.96 2461.07,1251.91 2480.58,1212.37 2500.09,1146.12 2519.61,970.991 2539.12,762.065 2558.63,470.537 2578.14,99.0301 2597.65,884.966 2617.17,1322.69 2636.68,1150.74 2656.19,1055.83 2675.7,1044.3 2695.21,1069 2714.73,1117.65 2734.24,1193.88 2753.75,1260.6 2773.26,1303.94 2792.77,1325.1 2812.29,1332.78 2831.8,1334.55 2851.31,1332.65 2870.82,1325.6 2890.33,1310.68 2909.85,1285.95 2929.36,1251.91 2948.87,1212.37 2968.38,1146.11 2987.89,970.982 3007.41,762.054 3026.92,470.505 3046.43,99.0451 3065.94,884.925 3085.45,1322.72 3104.97,1150.75 3124.48,1055.82 3143.99,1044.29 3163.5,1068.99 3183.01,1117.65 3202.53,1193.88 3222.04,1260.59 3241.55,1303.94 3261.06,1325.1 3280.57,1332.78 3300.09,1334.55 3319.6,1332.65 3339.11,1325.6 3358.62,1310.68 3378.13,1285.95 3397.65,1251.91 3417.16,1212.37 3436.67,1146.11 3456.18,970.985 3475.69,762.058 3495.21,470.515 3514.72,99.0103 3534.23,884.763 3553.74,1322.64 3573.25,1150.8 3592.77,1055.85 3612.28,1044.31 3631.79,1069 3651.3,1117.65 3670.81,1193.86 3690.33,1260.58 3709.84,1303.93 3729.35,1325.1 3748.86,1332.78 3768.37,1334.55 3787.89,1332.66 3807.4,1325.6 3826.91,1310.69 3846.42,1285.96 3865.93,1251.91 3885.45,1212.37 3904.96,1146.11 3924.47,970.986 3943.98,762.059 3963.5,470.522 3983.01,99.292 4002.52,884.617 4022.03,1322.55 4041.54,1150.87 4061.06,1055.91 4080.57,1044.34 4100.08,1069.02 4119.59,1117.66 4139.1,1193.87 4158.62,1260.59 4178.13,1303.93 4197.64,1325.1 4217.15,1332.78 4236.66,1334.55 4256.18,1332.65 4275.69,1325.6 4295.2,1310.68 4314.71,1285.95 4334.22,1251.91 4353.74,1212.37 4373.25,1146.15 4392.76,971.009 4412.27,762.087 4431.78,470.607 4451.3,99.0295 4470.81,884.492 4490.32,1322.59 4509.83,1150.91 4529.34,1055.91 4548.86,1044.33 4568.37,1069.01 4587.88,1117.65 4607.39,1193.88 4626.9,1260.59 "
       id="polyline20" />
  </g>
</svg>
