<?xml version="1.0" encoding="UTF-8" standalone="no"?>
<svg
   width="600"
   height="400"
   viewBox="0 0 2400 1600"
   version="1.1"
   id="svg29"
   sodipodi:docname="pred_conc_raw.svg"
   inkscape:version="1.3 (0e150ed6c4, 2023-07-21)"
   xmlns:inkscape="http://www.inkscape.org/namespaces/inkscape"
   xmlns:sodipodi="http://sodipodi.sourceforge.net/DTD/sodipodi-0.dtd"
   xmlns="http://www.w3.org/2000/svg"
   xmlns:svg="http://www.w3.org/2000/svg">
  <sodipodi:namedview
     id="namedview29"
     pagecolor="#ffffff"
     bordercolor="#000000"
     borderopacity="0.25"
     inkscape:showpageshadow="2"
     inkscape:pageopacity="0.0"
     inkscape:pagecheckerboard="0"
     inkscape:deskcolor="#d1d1d1"
     inkscape:zoom="1.7116667"
     inkscape:cx="300"
     inkscape:cy="199.80526"
     inkscape:window-width="1920"
     inkscape:window-height="1010"
     inkscape:window-x="-6"
     inkscape:window-y="-6"
     inkscape:window-maximized="1"
     inkscape:current-layer="svg29" />
  <defs
     id="defs1">
    <clipPath
       id="clip890">
      <rect
         x="0"
         y="0"
         width="2400"
         height="1600"
         id="rect1" />
    </clipPath>
  </defs>
  <defs
     id="defs2">
    <clipPath
       id="clip891">
      <rect
         x="480"
         y="0"
         width="1681"
         height="1600"
         id="rect2" />
    </clipPath>
  </defs>
  <defs
     id="defs3">
    <clipPath
       id="clip892">
      <rect
         x="218"
         y="47"
         width="2136"
         height="1383"
         id="rect3" />
    </clipPath>
  </defs>
  <g
     id="g29">
    <path
       clip-path="url(#clip890)"
       d="M0 1600 L2400 1600 L2400 0 L0 0  Z"
       fill="#ffffff"
       fill-rule="evenodd"
       fill-opacity="1"
       id="path1" />
    <polyline
       clip-path="url(#clip890)"
       style="stroke:#000000; stroke-linecap:round; stroke-linejoin:round; stroke-width:4; stroke-opacity:1; fill:none"
       points="218.236,1429.01 2352.76,1429.01 "
       id="polyline3" />
    <path
       clip-path="url(#clip890)"
       d="M1107.94 1486.61 L1199.31 1486.61 L1199.31 1498.91 L1160.97 1498.91 L1160.97 1594.61 L1146.28 1594.61 L1146.28 1498.91 L1107.94 1498.91 L1107.94 1486.61 Z"
       fill="#000000"
       fill-rule="nonzero"
       fill-opacity="1"
       id="path3" />
    <path
       clip-path="url(#clip890)"
       d="M1208.28 1513.59 L1221.59 1513.59 L1221.59 1594.61 L1208.28 1594.61 L1208.28 1513.59 M1208.28 1482.05 L1221.59 1482.05 L1221.59 1498.91 L1208.28 1498.91 L1208.28 1482.05 Z"
       fill="#000000"
       fill-rule="nonzero"
       fill-opacity="1"
       id="path4" />
    <path
       clip-path="url(#clip890)"
       d="M1312.51 1529.14 Q1317.51 1520.17 1324.45 1515.9 Q1331.39 1511.64 1340.8 1511.64 Q1353.46 1511.64 1360.33 1520.53 Q1367.2 1529.36 1367.2 1545.71 L1367.2 1594.61 L1353.82 1594.61 L1353.82 1546.14 Q1353.82 1534.5 1349.7 1528.85 Q1345.57 1523.21 1337.11 1523.21 Q1326.76 1523.21 1320.76 1530.08 Q1314.76 1536.95 1314.76 1548.82 L1314.76 1594.61 L1301.37 1594.61 L1301.37 1546.14 Q1301.37 1534.42 1297.25 1528.85 Q1293.13 1523.21 1284.52 1523.21 Q1274.32 1523.21 1268.32 1530.16 Q1262.31 1537.03 1262.31 1548.82 L1262.31 1594.61 L1248.93 1594.61 L1248.93 1513.59 L1262.31 1513.59 L1262.31 1526.18 Q1266.87 1518.73 1273.23 1515.18 Q1279.6 1511.64 1288.35 1511.64 Q1297.18 1511.64 1303.33 1516.12 Q1309.55 1520.61 1312.51 1529.14 Z"
       fill="#000000"
       fill-rule="nonzero"
       fill-opacity="1"
       id="path5" />
    <path
       clip-path="url(#clip890)"
       d="M1463.05 1550.77 L1463.05 1557.28 L1401.85 1557.28 Q1402.72 1571.03 1410.1 1578.26 Q1417.55 1585.42 1430.79 1585.42 Q1438.45 1585.42 1445.62 1583.54 Q1452.85 1581.66 1459.94 1577.9 L1459.94 1590.48 Q1452.78 1593.52 1445.25 1595.11 Q1437.73 1596.71 1429.99 1596.71 Q1410.6 1596.71 1399.25 1585.42 Q1387.96 1574.14 1387.96 1554.89 Q1387.96 1535 1398.67 1523.36 Q1409.45 1511.64 1427.68 1511.64 Q1444.02 1511.64 1453.5 1522.2 Q1463.05 1532.69 1463.05 1550.77 M1449.74 1546.87 Q1449.59 1535.94 1443.59 1529.43 Q1437.66 1522.92 1427.82 1522.92 Q1416.68 1522.92 1409.95 1529.21 Q1403.3 1535.51 1402.29 1546.94 L1449.74 1546.87 Z"
       fill="#000000"
       fill-rule="nonzero"
       fill-opacity="1"
       id="path6" />
    <polyline
       clip-path="url(#clip890)"
       style="stroke:#000000; stroke-linecap:round; stroke-linejoin:round; stroke-width:4; stroke-opacity:1; fill:none"
       points="218.236,1429.01 218.236,47.2441 "
       id="polyline6" />
    <path
       clip-path="url(#clip890)"
       d="M14.155 1164.59 L29.5629 1164.59 Q22.6909 1171.97 19.291 1180.36 Q15.8911 1188.68 15.8911 1198.08 Q15.8911 1216.6 27.2481 1226.44 Q38.5328 1236.28 59.9447 1236.28 Q81.2843 1236.28 92.6413 1226.44 Q103.926 1216.6 103.926 1198.08 Q103.926 1188.68 100.526 1180.36 Q97.1262 1171.97 90.2542 1164.59 L105.517 1164.59 Q110.726 1172.26 113.33 1180.87 Q115.934 1189.4 115.934 1198.95 Q115.934 1223.47 100.96 1237.58 Q85.9139 1251.69 59.9447 1251.69 Q33.9032 1251.69 18.9293 1237.58 Q3.88311 1223.47 3.88311 1198.95 Q3.88311 1189.26 6.48726 1180.72 Q9.01907 1172.12 14.155 1164.59 Z"
       fill="#000000"
       fill-rule="nonzero"
       fill-opacity="1"
       id="path7" />
    <path
       clip-path="url(#clip890)"
       d="M42.1497 1111.21 Q42.1497 1121.91 50.5408 1128.13 Q58.8597 1134.36 73.3995 1134.36 Q87.9394 1134.36 96.3305 1128.21 Q104.649 1121.99 104.649 1111.21 Q104.649 1100.57 96.2582 1094.35 Q87.867 1088.13 73.3995 1088.13 Q59.0043 1088.13 50.6132 1094.35 Q42.1497 1100.57 42.1497 1111.21 M30.865 1111.21 Q30.865 1093.85 42.1497 1083.94 Q53.4343 1074.03 73.3995 1074.03 Q93.2923 1074.03 104.649 1083.94 Q115.934 1093.85 115.934 1111.21 Q115.934 1128.64 104.649 1138.55 Q93.2923 1148.39 73.3995 1148.39 Q53.4343 1148.39 42.1497 1138.55 Q30.865 1128.64 30.865 1111.21 Z"
       fill="#000000"
       fill-rule="nonzero"
       fill-opacity="1"
       id="path8" />
    <path
       clip-path="url(#clip890)"
       d="M64.936 984.616 L113.836 984.616 L113.836 997.926 L65.37 997.926 Q53.8684 997.926 48.1537 1002.41 Q42.439 1006.9 42.439 1015.87 Q42.439 1026.64 49.3111 1032.87 Q56.1832 1039.09 68.0465 1039.09 L113.836 1039.09 L113.836 1052.47 L32.8181 1052.47 L32.8181 1039.09 L45.4049 1039.09 Q38.0988 1034.31 34.4819 1027.87 Q30.865 1021.36 30.865 1012.9 Q30.865 998.939 39.5455 991.778 Q48.1537 984.616 64.936 984.616 Z"
       fill="#000000"
       fill-rule="nonzero"
       fill-opacity="1"
       id="path9" />
    <path
       clip-path="url(#clip890)"
       d="M35.9287 899.764 L48.3707 899.764 Q45.2602 905.407 43.7411 911.121 Q42.1497 916.764 42.1497 922.551 Q42.1497 935.499 50.3962 942.66 Q58.5703 949.822 73.3995 949.822 Q88.2287 949.822 96.4752 942.66 Q104.649 935.499 104.649 922.551 Q104.649 916.764 103.13 911.121 Q101.539 905.407 98.4283 899.764 L110.726 899.764 Q113.33 905.334 114.632 911.338 Q115.934 917.27 115.934 923.997 Q115.934 942.299 104.432 953.077 Q92.9307 963.855 73.3995 963.855 Q53.579 963.855 42.222 953.005 Q30.865 942.082 30.865 923.129 Q30.865 916.981 32.1671 911.121 Q33.3968 905.262 35.9287 899.764 Z"
       fill="#000000"
       fill-rule="nonzero"
       fill-opacity="1"
       id="path10" />
    <path
       clip-path="url(#clip890)"
       d="M69.9996 807.317 L76.51 807.317 L76.51 868.514 Q90.2542 867.646 97.4879 860.268 Q104.649 852.817 104.649 839.579 Q104.649 831.912 102.769 824.75 Q100.888 817.516 97.1262 810.427 L109.713 810.427 Q112.751 817.589 114.343 825.112 Q115.934 832.635 115.934 840.375 Q115.934 859.762 104.649 871.119 Q93.3647 882.403 74.1229 882.403 Q54.2301 882.403 42.5837 871.697 Q30.865 860.919 30.865 842.69 Q30.865 826.342 41.4263 816.865 Q51.9153 807.317 69.9996 807.317 M66.0934 820.627 Q55.1704 820.772 48.6601 826.776 Q42.1497 832.707 42.1497 842.545 Q42.1497 853.685 48.4431 860.413 Q54.7364 867.068 66.1658 868.08 L66.0934 820.627 Z"
       fill="#000000"
       fill-rule="nonzero"
       fill-opacity="1"
       id="path11" />
    <path
       clip-path="url(#clip890)"
       d="M64.936 718.125 L113.836 718.125 L113.836 731.435 L65.37 731.435 Q53.8684 731.435 48.1537 735.92 Q42.439 740.405 42.439 749.374 Q42.439 760.153 49.3111 766.374 Q56.1832 772.595 68.0465 772.595 L113.836 772.595 L113.836 785.977 L32.8181 785.977 L32.8181 772.595 L45.4049 772.595 Q38.0988 767.821 34.4819 761.383 Q30.865 754.872 30.865 746.409 Q30.865 732.447 39.5455 725.286 Q48.1537 718.125 64.936 718.125 Z"
       fill="#000000"
       fill-rule="nonzero"
       fill-opacity="1"
       id="path12" />
    <path
       clip-path="url(#clip890)"
       d="M9.81479 678.411 L32.8181 678.411 L32.8181 650.995 L43.1624 650.995 L43.1624 678.411 L87.1437 678.411 Q97.0539 678.411 99.8751 675.735 Q102.696 672.986 102.696 664.667 L102.696 650.995 L113.836 650.995 L113.836 664.667 Q113.836 680.075 108.122 685.934 Q102.335 691.794 87.1437 691.794 L43.1624 691.794 L43.1624 701.559 L32.8181 701.559 L32.8181 691.794 L9.81479 691.794 L9.81479 678.411 Z"
       fill="#000000"
       fill-rule="nonzero"
       fill-opacity="1"
       id="path13" />
    <path
       clip-path="url(#clip890)"
       d="M45.2602 586.543 Q43.9581 588.785 43.3794 591.462 Q42.7284 594.066 42.7284 597.249 Q42.7284 608.533 50.1068 614.61 Q57.4129 620.614 71.1571 620.614 L113.836 620.614 L113.836 633.996 L32.8181 633.996 L32.8181 620.614 L45.4049 620.614 Q38.0264 616.418 34.4819 609.691 Q30.865 602.963 30.865 593.342 Q30.865 591.968 31.082 590.304 Q31.2267 588.64 31.5884 586.615 L45.2602 586.543 Z"
       fill="#000000"
       fill-rule="nonzero"
       fill-opacity="1"
       id="path14" />
    <path
       clip-path="url(#clip890)"
       d="M73.1102 535.762 Q73.1102 551.893 76.7994 558.114 Q80.4886 564.335 89.3861 564.335 Q96.4752 564.335 100.671 559.705 Q104.794 555.003 104.794 546.974 Q104.794 535.906 96.9816 529.251 Q89.0968 522.524 76.076 522.524 L73.1102 522.524 L73.1102 535.762 M67.6125 509.214 L113.836 509.214 L113.836 522.524 L101.539 522.524 Q108.917 527.081 112.462 533.881 Q115.934 540.681 115.934 550.518 Q115.934 562.961 108.99 570.339 Q101.973 577.645 90.2542 577.645 Q76.5824 577.645 69.638 568.531 Q62.6936 559.344 62.6936 541.187 L62.6936 522.524 L61.3915 522.524 Q52.2046 522.524 47.2133 528.6 Q42.1497 534.604 42.1497 545.527 Q42.1497 552.472 43.8134 559.054 Q45.4772 565.637 48.8047 571.713 L36.5074 571.713 Q33.6862 564.407 32.3118 557.535 Q30.865 550.663 30.865 544.153 Q30.865 526.575 39.9796 517.894 Q49.0941 509.214 67.6125 509.214 Z"
       fill="#000000"
       fill-rule="nonzero"
       fill-opacity="1"
       id="path15" />
    <path
       clip-path="url(#clip890)"
       d="M9.81479 468.632 L32.8181 468.632 L32.8181 441.216 L43.1624 441.216 L43.1624 468.632 L87.1437 468.632 Q97.0539 468.632 99.8751 465.956 Q102.696 463.207 102.696 454.888 L102.696 441.216 L113.836 441.216 L113.836 454.888 Q113.836 470.296 108.122 476.155 Q102.335 482.015 87.1437 482.015 L43.1624 482.015 L43.1624 491.78 L32.8181 491.78 L32.8181 482.015 L9.81479 482.015 L9.81479 468.632 Z"
       fill="#000000"
       fill-rule="nonzero"
       fill-opacity="1"
       id="path16" />
    <path
       clip-path="url(#clip890)"
       d="M32.8181 423.711 L32.8181 410.401 L113.836 410.401 L113.836 423.711 L32.8181 423.711 M1.27895 423.711 L1.27895 410.401 L18.1336 410.401 L18.1336 423.711 L1.27895 423.711 Z"
       fill="#000000"
       fill-rule="nonzero"
       fill-opacity="1"
       id="path17" />
    <path
       clip-path="url(#clip890)"
       d="M42.1497 351.156 Q42.1497 361.862 50.5408 368.083 Q58.8597 374.304 73.3995 374.304 Q87.9394 374.304 96.3305 368.155 Q104.649 361.934 104.649 351.156 Q104.649 340.523 96.2582 334.301 Q87.867 328.08 73.3995 328.08 Q59.0043 328.08 50.6132 334.301 Q42.1497 340.523 42.1497 351.156 M30.865 351.156 Q30.865 333.795 42.1497 323.885 Q53.4343 313.975 73.3995 313.975 Q93.2923 313.975 104.649 323.885 Q115.934 333.795 115.934 351.156 Q115.934 368.589 104.649 378.5 Q93.2923 388.338 73.3995 388.338 Q53.4343 388.338 42.1497 378.5 Q30.865 368.589 30.865 351.156 Z"
       fill="#000000"
       fill-rule="nonzero"
       fill-opacity="1"
       id="path18" />
    <path
       clip-path="url(#clip890)"
       d="M64.936 224.565 L113.836 224.565 L113.836 237.875 L65.37 237.875 Q53.8684 237.875 48.1537 242.36 Q42.439 246.845 42.439 255.815 Q42.439 266.593 49.3111 272.815 Q56.1832 279.036 68.0465 279.036 L113.836 279.036 L113.836 292.418 L32.8181 292.418 L32.8181 279.036 L45.4049 279.036 Q38.0988 274.261 34.4819 267.823 Q30.865 261.313 30.865 252.849 Q30.865 238.888 39.5455 231.727 Q48.1537 224.565 64.936 224.565 Z"
       fill="#000000"
       fill-rule="nonzero"
       fill-opacity="1"
       id="path19" />
    <polyline
       clip-path="url(#clip892)"
       style="stroke:#ffa500; stroke-linecap:round; stroke-linejoin:round; stroke-width:20; stroke-opacity:1; fill:none"
       stroke-dasharray="80, 50"
       points="278.647,1370.52 321.492,1366.52 364.336,1362.83 407.181,1359.25 450.026,1356.19 492.87,1353.65 535.715,1351.52 578.56,1349.65 621.404,1347.96 664.249,1346.48 707.093,1345.24 749.938,1344.3 792.783,1343.73 835.627,1343.55 878.472,1344.7 921.317,1353.02 964.161,1364.02 1007.01,1374.89 1049.85,1383.86 1092.7,1388.16 1135.54,1386.41 1178.38,1381.26 1221.23,1375.79 1264.07,1371.45 1306.92,1368.38 1349.76,1365.73 1392.61,1362.28 1435.45,1358.87 1478.3,1355.95 1521.14,1353.49 1563.99,1351.39 1606.83,1349.51 1649.68,1347.82 1692.52,1346.32 1735.36,1345.07 1778.21,1344.14 1821.05,1343.57 1863.9,1343.4 1906.74,1344.57 1949.59,1352.92 1992.43,1363.96 2035.28,1374.9 2078.12,1384.01 2120.97,1388.43 2163.81,1386.65 2206.66,1381.4 2249.5,1375.84 2292.34,1371.45 "
       id="polyline19" />
    <polyline
       clip-path="url(#clip892)"
       style="stroke:#ff7c00; stroke-linecap:round; stroke-linejoin:round; stroke-width:20; stroke-opacity:1; fill:none"
       stroke-dasharray="80, 50"
       points="278.647,1386.1 321.492,1386.1 364.336,1386.09 407.181,1386.09 450.026,1386.09 492.87,1386.08 535.715,1386.08 578.56,1386.08 621.404,1386.08 664.249,1386.08 707.093,1386.08 749.938,1386.08 792.783,1386.08 835.627,1386.08 878.472,1386.08 921.317,1386.1 964.161,1386.11 1007.01,1386.12 1049.85,1386.13 1092.7,1386.14 1135.54,1386.13 1178.38,1386.12 1221.23,1386.11 1264.07,1386.11 1306.92,1386.1 1349.76,1386.1 1392.61,1386.09 1435.45,1386.09 1478.3,1386.09 1521.14,1386.08 1563.99,1386.08 1606.83,1386.08 1649.68,1386.08 1692.52,1386.08 1735.36,1386.08 1778.21,1386.08 1821.05,1386.08 1863.9,1386.08 1906.74,1386.08 1949.59,1386.1 1992.43,1386.11 2035.28,1386.12 2078.12,1386.13 2120.97,1386.14 2163.81,1386.13 2206.66,1386.12 2249.5,1386.11 2292.34,1386.11 "
       id="polyline20" />
    <polyline
       clip-path="url(#clip892)"
       style="stroke:#ff0000; stroke-linecap:round; stroke-linejoin:round; stroke-width:20; stroke-opacity:1; fill:none"
       stroke-dasharray="80, 50"
       points="278.647,1305.55 321.492,1296.08 364.336,1245.57 407.181,1180.53 450.026,1102.41 492.87,1015.33 535.715,924.008 578.56,831.651 621.404,740.024 664.249,650.416 707.093,564.491 749.938,484.582 792.783,413.514 835.627,354.122 878.472,309.942 921.317,332.238 964.161,450.98 1007.01,646.452 1049.85,892.418 1092.7,1127.56 1135.54,1280.02 1178.38,1346.62 1221.23,1361.6 1264.07,1347.24 1306.92,1317.58 1349.76,1278.66 1392.61,1226.97 1435.45,1161.68 1478.3,1084.5 1521.14,999.169 1563.99,909.731 1606.83,818.905 1649.68,728.312 1692.52,639.29 1735.36,553.672 1778.21,473.968 1821.05,403.155 1863.9,344.192 1906.74,300.593 1949.59,323.264 1992.43,442.788 2035.28,639.874 2078.12,888.714 2120.97,1127.5 2163.81,1281.81 2206.66,1348.28 2249.5,1362.77 2292.34,1347.99 "
       id="polyline21" />
    <polyline
       clip-path="url(#clip892)"
       style="stroke:#1ac938; stroke-linecap:round; stroke-linejoin:round; stroke-width:20; stroke-opacity:1; fill:none"
       stroke-dasharray="80, 50"
       points="278.647,1386.11 321.492,1386.11 364.336,1386.11 407.181,1386.11 450.026,1386.11 492.87,1386.11 535.715,1386.11 578.56,1386.11 621.404,1386.11 664.249,1386.11 707.093,1386.11 749.938,1386.11 792.783,1386.11 835.627,1386.11 878.472,1386.11 921.317,1386.11 964.161,1386.11 1007.01,1386.11 1049.85,1386.11 1092.7,1386.11 1135.54,1386.11 1178.38,1386.11 1221.23,1386.11 1264.07,1386.11 1306.92,1386.11 1349.76,1386.11 1392.61,1386.11 1435.45,1386.11 1478.3,1386.11 1521.14,1386.11 1563.99,1386.11 1606.83,1386.11 1649.68,1386.11 1692.52,1386.11 1735.36,1386.11 1778.21,1386.11 1821.05,1386.11 1863.9,1386.11 1906.74,1386.11 1949.59,1386.11 1992.43,1386.11 2035.28,1386.11 2078.12,1386.11 2120.97,1386.11 2163.81,1386.11 2206.66,1386.11 2249.5,1386.11 2292.34,1386.11 "
       id="polyline22" />
    <polyline
       clip-path="url(#clip892)"
       style="stroke:#e8000b; stroke-linecap:round; stroke-linejoin:round; stroke-width:20; stroke-opacity:1; fill:none"
       stroke-dasharray="80, 50"
       points="278.647,1386.11 321.492,1386.11 364.336,1386.11 407.181,1386.11 450.026,1386.11 492.87,1386.11 535.715,1386.11 578.56,1386.11 621.404,1386.11 664.249,1386.11 707.093,1386.11 749.938,1386.11 792.783,1386.11 835.627,1386.11 878.472,1386.11 921.317,1386.11 964.161,1386.11 1007.01,1386.11 1049.85,1386.11 1092.7,1386.11 1135.54,1386.11 1178.38,1386.11 1221.23,1386.11 1264.07,1386.11 1306.92,1386.11 1349.76,1386.11 1392.61,1386.11 1435.45,1386.11 1478.3,1386.11 1521.14,1386.11 1563.99,1386.11 1606.83,1386.11 1649.68,1386.11 1692.52,1386.11 1735.36,1386.11 1778.21,1386.11 1821.05,1386.11 1863.9,1386.11 1906.74,1386.11 1949.59,1386.11 1992.43,1386.11 2035.28,1386.11 2078.12,1386.11 2120.97,1386.11 2163.81,1386.11 2206.66,1386.11 2249.5,1386.11 2292.34,1386.11 "
       id="polyline23" />
    <polyline
       clip-path="url(#clip892)"
       style="stroke:#0000ff; stroke-linecap:round; stroke-linejoin:round; stroke-width:20; stroke-opacity:1; fill:none"
       stroke-dasharray="80, 50"
       points="278.647,1263.55 321.492,1300.43 364.336,1327.78 407.181,1351.74 450.026,1368.62 492.87,1379.13 535.715,1385.09 578.56,1388.34 621.404,1389.88 664.249,1389.9 707.093,1388.16 749.938,1384.41 792.783,1378.62 835.627,1370.96 878.472,1352.91 921.317,1276.69 964.161,1190.07 1007.01,1116.94 1049.85,1070.04 1092.7,1066.28 1135.54,1107.29 1178.38,1167.26 1221.23,1222.07 1264.07,1261.36 1306.92,1286.09 1349.76,1305.22 1392.61,1330.08 1435.45,1352.42 1478.3,1368.14 1521.14,1378.11 1563.99,1384.06 1606.83,1387.56 1649.68,1389.4 1692.52,1389.64 1735.36,1388.01 1778.21,1384.3 1821.05,1378.48 1863.9,1370.75 1906.74,1352.62 1949.59,1276.23 1992.43,1189.38 2035.28,1115.78 2078.12,1068.01 2120.97,1063.69 2163.81,1105.21 2206.66,1166.19 2249.5,1221.76 2292.34,1261.47 "
       id="polyline24" />
    <polyline
       clip-path="url(#clip892)"
       style="stroke:#000000; stroke-linecap:round; stroke-linejoin:round; stroke-width:20; stroke-opacity:1; fill:none"
       stroke-dasharray="80, 50"
       points="278.647,86.3506 321.492,190.172 364.336,174.66 407.181,159.883 450.026,146.929 492.87,136.67 535.715,129.923 578.56,127.158 621.404,128.646 664.249,134.27 707.093,143.64 749.938,156.231 792.783,171.241 835.627,187.738 878.472,203.455 921.317,220.408 964.161,235.067 1007.01,243.518 1049.85,250.142 1092.7,255.496 1135.54,255.196 1178.38,250.395 1221.23,241.42 1264.07,227.499 1306.92,210.253 1349.76,191.947 1392.61,174.819 1435.45,159.985 1478.3,147.003 1521.14,136.745 1563.99,130.004 1606.83,127.246 1649.68,128.719 1692.52,134.284 1735.36,143.639 1778.21,156.214 1821.05,171.222 1863.9,187.728 1906.74,203.456 1949.59,220.431 1992.43,235.061 2035.28,243.445 2078.12,250.104 2120.97,255.645 2163.81,255.325 2206.66,250.419 2249.5,241.431 2292.34,227.506 "
       id="polyline25" />
    <polyline
       clip-path="url(#clip892)"
       style="stroke:#8b2be2; stroke-linecap:round; stroke-linejoin:round; stroke-width:20; stroke-opacity:1; fill:none"
       stroke-dasharray="80, 50"
       points="278.647,1277.35 321.492,1286.07 364.336,1284.84 407.181,1283.67 450.026,1282.65 492.87,1281.84 535.715,1281.32 578.56,1281.13 621.404,1281.29 664.249,1281.79 707.093,1282.6 749.938,1283.67 792.783,1284.93 835.627,1286.32 878.472,1287.61 921.317,1288.89 964.161,1289.92 1007.01,1290.43 1049.85,1290.82 1092.7,1291.17 1135.54,1291.16 1178.38,1290.84 1221.23,1290.18 1264.07,1289.09 1306.92,1287.71 1349.76,1286.23 1392.61,1284.86 1435.45,1283.69 1478.3,1282.66 1521.14,1281.85 1563.99,1281.33 1606.83,1281.14 1649.68,1281.3 1692.52,1281.79 1735.36,1282.6 1778.21,1283.67 1821.05,1284.94 1863.9,1286.32 1906.74,1287.62 1949.59,1288.89 1992.43,1289.92 2035.28,1290.43 2078.12,1290.81 2120.97,1291.18 2163.81,1291.17 2206.66,1290.84 2249.5,1290.18 2292.34,1289.09 "
       id="polyline26" />
    <polyline
       clip-path="url(#clip892)"
       style="stroke:#9f4800; stroke-linecap:round; stroke-linejoin:round; stroke-width:20; stroke-opacity:1; fill:none"
       stroke-dasharray="80, 50"
       points="278.647,1386.11 321.492,1386.11 364.336,1386.11 407.181,1386.11 450.026,1386.11 492.87,1386.11 535.715,1386.11 578.56,1386.11 621.404,1386.11 664.249,1386.11 707.093,1386.11 749.938,1386.11 792.783,1386.11 835.627,1386.11 878.472,1386.11 921.317,1386.11 964.161,1386.11 1007.01,1386.11 1049.85,1386.11 1092.7,1386.11 1135.54,1386.11 1178.38,1386.11 1221.23,1386.11 1264.07,1386.11 1306.92,1386.11 1349.76,1386.11 1392.61,1386.11 1435.45,1386.11 1478.3,1386.11 1521.14,1386.11 1563.99,1386.11 1606.83,1386.11 1649.68,1386.11 1692.52,1386.11 1735.36,1386.11 1778.21,1386.11 1821.05,1386.11 1863.9,1386.11 1906.74,1386.11 1949.59,1386.11 1992.43,1386.11 2035.28,1386.11 2078.12,1386.11 2120.97,1386.11 2163.81,1386.11 2206.66,1386.11 2249.5,1386.11 2292.34,1386.11 "
       id="polyline27" />
    <polyline
       clip-path="url(#clip892)"
       style="stroke:#f14cc1; stroke-linecap:round; stroke-linejoin:round; stroke-width:20; stroke-opacity:1; fill:none"
       stroke-dasharray="80, 50"
       points="278.647,1386.1 321.492,1386.1 364.336,1386.1 407.181,1386.1 450.026,1386.1 492.87,1386.1 535.715,1386.11 578.56,1386.11 621.404,1386.11 664.249,1386.11 707.093,1386.11 749.938,1386.11 792.783,1386.11 835.627,1386.11 878.472,1386.11 921.317,1386.11 964.161,1386.1 1007.01,1386.1 1049.85,1386.1 1092.7,1386.09 1135.54,1386.09 1178.38,1386.09 1221.23,1386.1 1264.07,1386.1 1306.92,1386.1 1349.76,1386.1 1392.61,1386.1 1435.45,1386.1 1478.3,1386.1 1521.14,1386.1 1563.99,1386.11 1606.83,1386.11 1649.68,1386.11 1692.52,1386.11 1735.36,1386.11 1778.21,1386.11 1821.05,1386.11 1863.9,1386.11 1906.74,1386.11 1949.59,1386.11 1992.43,1386.1 2035.28,1386.1 2078.12,1386.1 2120.97,1386.09 2163.81,1386.09 2206.66,1386.09 2249.5,1386.1 2292.34,1386.1 "
       id="polyline28" />
    <polyline
       clip-path="url(#clip892)"
       style="stroke:#a3a3a3; stroke-linecap:round; stroke-linejoin:round; stroke-width:20; stroke-opacity:1; fill:none"
       stroke-dasharray="80, 50"
       points="278.647,1381.02 321.492,1381.94 364.336,1382.75 407.181,1383.52 450.026,1384.17 492.87,1384.68 535.715,1385.11 578.56,1385.47 621.404,1385.78 664.249,1386.06 707.093,1386.27 749.938,1386.43 792.783,1386.51 835.627,1386.5 878.472,1386.2 921.317,1384.3 964.161,1381.86 1007.01,1379.51 1049.85,1377.63 1092.7,1376.82 1135.54,1377.34 1178.38,1378.58 1221.23,1379.85 1264.07,1380.84 1306.92,1381.53 1349.76,1382.1 1392.61,1382.86 1435.45,1383.6 1478.3,1384.21 1521.14,1384.71 1563.99,1385.12 1606.83,1385.49 1649.68,1385.81 1692.52,1386.08 1735.36,1386.3 1778.21,1386.46 1821.05,1386.53 1863.9,1386.53 1906.74,1386.22 1949.59,1384.32 1992.43,1381.87 2035.28,1379.5 2078.12,1377.59 2120.97,1376.76 2163.81,1377.29 2206.66,1378.55 2249.5,1379.84 2292.34,1380.84 "
       id="polyline29" />
  </g>
</svg>
