<?xml version="1.0" encoding="UTF-8" standalone="no"?>
<svg
   width="1200"
   height="400"
   viewBox="0 0 4800 1600"
   version="1.1"
   id="svg20"
   sodipodi:docname="worst_case.svg"
   inkscape:version="1.3 (0e150ed6c4, 2023-07-21)"
   xmlns:inkscape="http://www.inkscape.org/namespaces/inkscape"
   xmlns:sodipodi="http://sodipodi.sourceforge.net/DTD/sodipodi-0.dtd"
   xmlns="http://www.w3.org/2000/svg"
   xmlns:svg="http://www.w3.org/2000/svg">
  <sodipodi:namedview
     id="namedview20"
     pagecolor="#ffffff"
     bordercolor="#000000"
     borderopacity="0.25"
     inkscape:showpageshadow="2"
     inkscape:pageopacity="0.0"
     inkscape:pagecheckerboard="0"
     inkscape:deskcolor="#d1d1d1"
     inkscape:zoom="0.85583333"
     inkscape:cx="600"
     inkscape:cy="199.80526"
     inkscape:window-width="1920"
     inkscape:window-height="1010"
     inkscape:window-x="-6"
     inkscape:window-y="-6"
     inkscape:window-maximized="1"
     inkscape:current-layer="svg20" />
  <defs
     id="defs1">
    <clipPath
       id="clip290">
      <rect
         x="0"
         y="0"
         width="4800"
         height="1600"
         id="rect1" />
    </clipPath>
  </defs>
  <defs
     id="defs2">
    <clipPath
       id="clip291">
      <rect
         x="960"
         y="0"
         width="3361"
         height="1600"
         id="rect2" />
    </clipPath>
  </defs>
  <defs
     id="defs3">
    <clipPath
       id="clip292">
      <rect
         x="305"
         y="47"
         width="4448"
         height="1327"
         id="rect3" />
    </clipPath>
  </defs>
  <g
     id="g20">
    <polyline
       clip-path="url(#clip290)"
       style="stroke:#000000; stroke-linecap:round; stroke-linejoin:round; stroke-width:4; stroke-opacity:1; fill:none"
       points="305.969,1372.77 4752.76,1372.77 "
       id="polyline3" />
    <path
       clip-path="url(#clip290)"
       d="M2351.81 1466.37 L2443.17 1466.37 L2443.17 1478.67 L2404.83 1478.67 L2404.83 1574.37 L2390.15 1574.37 L2390.15 1478.67 L2351.81 1478.67 L2351.81 1466.37 Z"
       fill="#000000"
       fill-rule="nonzero"
       fill-opacity="1"
       id="path3" />
    <path
       clip-path="url(#clip290)"
       d="M2452.14 1493.35 L2465.45 1493.35 L2465.45 1574.37 L2452.14 1574.37 L2452.14 1493.35 M2452.14 1461.81 L2465.45 1461.81 L2465.45 1478.67 L2452.14 1478.67 L2452.14 1461.81 Z"
       fill="#000000"
       fill-rule="nonzero"
       fill-opacity="1"
       id="path4" />
    <path
       clip-path="url(#clip290)"
       d="M2556.38 1508.91 Q2561.37 1499.94 2568.32 1495.67 Q2575.26 1491.4 2584.66 1491.4 Q2597.32 1491.4 2604.2 1500.3 Q2611.07 1509.12 2611.07 1525.47 L2611.07 1574.37 L2597.69 1574.37 L2597.69 1525.91 Q2597.69 1514.26 2593.56 1508.62 Q2589.44 1502.97 2580.98 1502.97 Q2570.63 1502.97 2564.63 1509.85 Q2558.62 1516.72 2558.62 1528.58 L2558.62 1574.37 L2545.24 1574.37 L2545.24 1525.91 Q2545.24 1514.19 2541.12 1508.62 Q2536.99 1502.97 2528.39 1502.97 Q2518.19 1502.97 2512.18 1509.92 Q2506.18 1516.79 2506.18 1528.58 L2506.18 1574.37 L2492.8 1574.37 L2492.8 1493.35 L2506.18 1493.35 L2506.18 1505.94 Q2510.74 1498.49 2517.1 1494.94 Q2523.47 1491.4 2532.22 1491.4 Q2541.04 1491.4 2547.19 1495.89 Q2553.41 1500.37 2556.38 1508.91 Z"
       fill="#000000"
       fill-rule="nonzero"
       fill-opacity="1"
       id="path5" />
    <path
       clip-path="url(#clip290)"
       d="M2706.91 1530.54 L2706.91 1537.05 L2645.72 1537.05 Q2646.59 1550.79 2653.96 1558.02 Q2661.41 1565.18 2674.65 1565.18 Q2682.32 1565.18 2689.48 1563.3 Q2696.72 1561.42 2703.8 1557.66 L2703.8 1570.25 Q2696.64 1573.29 2689.12 1574.88 Q2681.6 1576.47 2673.86 1576.47 Q2654.47 1576.47 2643.11 1565.18 Q2631.83 1553.9 2631.83 1534.66 Q2631.83 1514.77 2642.53 1503.12 Q2653.31 1491.4 2671.54 1491.4 Q2687.89 1491.4 2697.37 1501.96 Q2706.91 1512.45 2706.91 1530.54 M2693.6 1526.63 Q2693.46 1515.71 2687.46 1509.2 Q2681.52 1502.69 2671.69 1502.69 Q2660.55 1502.69 2653.82 1508.98 Q2647.16 1515.27 2646.15 1526.7 L2693.6 1526.63 Z"
       fill="#000000"
       fill-rule="nonzero"
       fill-opacity="1"
       id="path6" />
    <polyline
       clip-path="url(#clip290)"
       style="stroke:#000000; stroke-linecap:round; stroke-linejoin:round; stroke-width:4; stroke-opacity:1; fill:none"
       points="305.969,1372.77 305.969,47.2441 "
       id="polyline6" />
    <path
       clip-path="url(#clip290)"
       d="M29.8873 1136.47 L45.2952 1136.47 Q38.4232 1143.85 35.0233 1152.24 Q31.6234 1160.56 31.6234 1169.97 Q31.6234 1188.48 42.9804 1198.32 Q54.2651 1208.16 75.677 1208.16 Q97.0166 1208.16 108.374 1198.32 Q119.658 1188.48 119.658 1169.97 Q119.658 1160.56 116.258 1152.24 Q112.859 1143.85 105.986 1136.47 L121.25 1136.47 Q126.458 1144.14 129.062 1152.75 Q131.666 1161.29 131.666 1170.83 Q131.666 1195.36 116.692 1209.46 Q101.646 1223.57 75.677 1223.57 Q49.6355 1223.57 34.6616 1209.46 Q19.6154 1195.36 19.6154 1170.83 Q19.6154 1161.14 22.2195 1152.61 Q24.7514 1144 29.8873 1136.47 Z"
       fill="#000000"
       fill-rule="nonzero"
       fill-opacity="1"
       id="path7" />
    <path
       clip-path="url(#clip290)"
       d="M57.882 1083.09 Q57.882 1093.79 66.2731 1100.02 Q74.5919 1106.24 89.1318 1106.24 Q103.672 1106.24 112.063 1100.09 Q120.382 1093.87 120.382 1083.09 Q120.382 1072.46 111.99 1066.23 Q103.599 1060.01 89.1318 1060.01 Q74.7366 1060.01 66.3455 1066.23 Q57.882 1072.46 57.882 1083.09 M46.5973 1083.09 Q46.5973 1065.73 57.882 1055.82 Q69.1666 1045.91 89.1318 1045.91 Q109.025 1045.91 120.382 1055.82 Q131.666 1065.73 131.666 1083.09 Q131.666 1100.52 120.382 1110.43 Q109.025 1120.27 89.1318 1120.27 Q69.1666 1120.27 57.882 1110.43 Q46.5973 1100.52 46.5973 1083.09 Z"
       fill="#000000"
       fill-rule="nonzero"
       fill-opacity="1"
       id="path8" />
    <path
       clip-path="url(#clip290)"
       d="M80.6683 956.498 L129.569 956.498 L129.569 969.808 L81.1023 969.808 Q69.6007 969.808 63.886 974.293 Q58.1713 978.778 58.1713 987.748 Q58.1713 998.526 65.0434 1004.75 Q71.9155 1010.97 83.7788 1010.97 L129.569 1010.97 L129.569 1024.35 L48.5504 1024.35 L48.5504 1010.97 L61.1372 1010.97 Q53.8311 1006.19 50.2142 999.756 Q46.5973 993.246 46.5973 984.782 Q46.5973 970.821 55.2778 963.66 Q63.886 956.498 80.6683 956.498 Z"
       fill="#000000"
       fill-rule="nonzero"
       fill-opacity="1"
       id="path9" />
    <path
       clip-path="url(#clip290)"
       d="M51.6609 871.646 L64.103 871.646 Q60.9925 877.289 59.4734 883.003 Q57.882 888.646 57.882 894.433 Q57.882 907.381 66.1285 914.542 Q74.3026 921.704 89.1318 921.704 Q103.961 921.704 112.207 914.542 Q120.382 907.381 120.382 894.433 Q120.382 888.646 118.863 883.003 Q117.271 877.289 114.161 871.646 L126.458 871.646 Q129.062 877.216 130.364 883.22 Q131.666 889.152 131.666 895.879 Q131.666 914.181 120.165 924.959 Q108.663 935.737 89.1318 935.737 Q69.3113 935.737 57.9543 924.887 Q46.5973 913.964 46.5973 895.011 Q46.5973 888.863 47.8994 883.003 Q49.1291 877.144 51.6609 871.646 Z"
       fill="#000000"
       fill-rule="nonzero"
       fill-opacity="1"
       id="path10" />
    <path
       clip-path="url(#clip290)"
       d="M85.7319 779.199 L92.2423 779.199 L92.2423 840.396 Q105.986 839.528 113.22 832.15 Q120.382 824.699 120.382 811.461 Q120.382 803.794 118.501 796.632 Q116.62 789.398 112.859 782.309 L125.445 782.309 Q128.483 789.471 130.075 796.994 Q131.666 804.517 131.666 812.257 Q131.666 831.644 120.382 843.001 Q109.097 854.285 89.8552 854.285 Q69.9623 854.285 58.316 843.579 Q46.5973 832.801 46.5973 814.572 Q46.5973 798.224 57.1586 788.747 Q67.6475 779.199 85.7319 779.199 M81.8257 792.509 Q70.9027 792.654 64.3923 798.658 Q57.882 804.589 57.882 814.427 Q57.882 825.567 64.1753 832.295 Q70.4687 838.95 81.898 839.962 L81.8257 792.509 Z"
       fill="#000000"
       fill-rule="nonzero"
       fill-opacity="1"
       id="path11" />
    <path
       clip-path="url(#clip290)"
       d="M80.6683 690.007 L129.569 690.007 L129.569 703.317 L81.1023 703.317 Q69.6007 703.317 63.886 707.802 Q58.1713 712.287 58.1713 721.256 Q58.1713 732.035 65.0434 738.256 Q71.9155 744.477 83.7788 744.477 L129.569 744.477 L129.569 757.859 L48.5504 757.859 L48.5504 744.477 L61.1372 744.477 Q53.8311 739.702 50.2142 733.264 Q46.5973 726.754 46.5973 718.291 Q46.5973 704.329 55.2778 697.168 Q63.886 690.007 80.6683 690.007 Z"
       fill="#000000"
       fill-rule="nonzero"
       fill-opacity="1"
       id="path12" />
    <path
       clip-path="url(#clip290)"
       d="M25.5471 650.293 L48.5504 650.293 L48.5504 622.877 L58.8947 622.877 L58.8947 650.293 L102.876 650.293 Q112.786 650.293 115.607 647.617 Q118.429 644.868 118.429 636.549 L118.429 622.877 L129.569 622.877 L129.569 636.549 Q129.569 651.957 123.854 657.816 Q118.067 663.676 102.876 663.676 L58.8947 663.676 L58.8947 673.441 L48.5504 673.441 L48.5504 663.676 L25.5471 663.676 L25.5471 650.293 Z"
       fill="#000000"
       fill-rule="nonzero"
       fill-opacity="1"
       id="path13" />
    <path
       clip-path="url(#clip290)"
       d="M60.9925 558.424 Q59.6904 560.667 59.1117 563.343 Q58.4607 565.948 58.4607 569.13 Q58.4607 580.415 65.8391 586.491 Q73.1452 592.495 86.8893 592.495 L129.569 592.495 L129.569 605.878 L48.5504 605.878 L48.5504 592.495 L61.1372 592.495 Q53.7587 588.3 50.2142 581.573 Q46.5973 574.845 46.5973 565.224 Q46.5973 563.85 46.8143 562.186 Q46.959 560.522 47.3207 558.497 L60.9925 558.424 Z"
       fill="#000000"
       fill-rule="nonzero"
       fill-opacity="1"
       id="path14" />
    <path
       clip-path="url(#clip290)"
       d="M88.8424 507.644 Q88.8424 523.775 92.5317 529.996 Q96.2209 536.217 105.118 536.217 Q112.207 536.217 116.403 531.587 Q120.526 526.885 120.526 518.856 Q120.526 507.788 112.714 501.133 Q104.829 494.406 91.8083 494.406 L88.8424 494.406 L88.8424 507.644 M83.3448 481.096 L129.569 481.096 L129.569 494.406 L117.271 494.406 Q124.65 498.963 128.194 505.763 Q131.666 512.562 131.666 522.4 Q131.666 534.842 124.722 542.221 Q117.705 549.527 105.986 549.527 Q92.3147 549.527 85.3702 540.412 Q78.4258 531.226 78.4258 513.069 L78.4258 494.406 L77.1238 494.406 Q67.9369 494.406 62.9456 500.482 Q57.882 506.486 57.882 517.409 Q57.882 524.353 59.5457 530.936 Q61.2095 537.519 64.537 543.595 L52.2396 543.595 Q49.4185 536.289 48.0441 529.417 Q46.5973 522.545 46.5973 516.035 Q46.5973 498.457 55.7118 489.776 Q64.8264 481.096 83.3448 481.096 Z"
       fill="#000000"
       fill-rule="nonzero"
       fill-opacity="1"
       id="path15" />
    <path
       clip-path="url(#clip290)"
       d="M25.5471 440.514 L48.5504 440.514 L48.5504 413.098 L58.8947 413.098 L58.8947 440.514 L102.876 440.514 Q112.786 440.514 115.607 437.838 Q118.429 435.089 118.429 426.77 L118.429 413.098 L129.569 413.098 L129.569 426.77 Q129.569 442.178 123.854 448.037 Q118.067 453.897 102.876 453.897 L58.8947 453.897 L58.8947 463.662 L48.5504 463.662 L48.5504 453.897 L25.5471 453.897 L25.5471 440.514 Z"
       fill="#000000"
       fill-rule="nonzero"
       fill-opacity="1"
       id="path16" />
    <path
       clip-path="url(#clip290)"
       d="M48.5504 395.593 L48.5504 382.282 L129.569 382.282 L129.569 395.593 L48.5504 395.593 M17.0112 395.593 L17.0112 382.282 L33.8659 382.282 L33.8659 395.593 L17.0112 395.593 Z"
       fill="#000000"
       fill-rule="nonzero"
       fill-opacity="1"
       id="path17" />
    <path
       clip-path="url(#clip290)"
       d="M57.882 323.038 Q57.882 333.744 66.2731 339.965 Q74.5919 346.186 89.1318 346.186 Q103.672 346.186 112.063 340.037 Q120.382 333.816 120.382 323.038 Q120.382 312.404 111.99 306.183 Q103.599 299.962 89.1318 299.962 Q74.7366 299.962 66.3455 306.183 Q57.882 312.404 57.882 323.038 M46.5973 323.038 Q46.5973 305.677 57.882 295.767 Q69.1666 285.857 89.1318 285.857 Q109.025 285.857 120.382 295.767 Q131.666 305.677 131.666 323.038 Q131.666 340.471 120.382 350.382 Q109.025 360.22 89.1318 360.22 Q69.1666 360.22 57.882 350.382 Q46.5973 340.471 46.5973 323.038 Z"
       fill="#000000"
       fill-rule="nonzero"
       fill-opacity="1"
       id="path18" />
    <path
       clip-path="url(#clip290)"
       d="M80.6683 196.447 L129.569 196.447 L129.569 209.757 L81.1023 209.757 Q69.6007 209.757 63.886 214.242 Q58.1713 218.727 58.1713 227.697 Q58.1713 238.475 65.0434 244.696 Q71.9155 250.917 83.7788 250.917 L129.569 250.917 L129.569 264.3 L48.5504 264.3 L48.5504 250.917 L61.1372 250.917 Q53.8311 246.143 50.2142 239.705 Q46.5973 233.195 46.5973 224.731 Q46.5973 210.77 55.2778 203.609 Q63.886 196.447 80.6683 196.447 Z"
       fill="#000000"
       fill-rule="nonzero"
       fill-opacity="1"
       id="path19" />
    <polyline
       clip-path="url(#clip292)"
       style="stroke:#000000; stroke-linecap:round; stroke-linejoin:round; stroke-width:12; stroke-opacity:1; fill:none"
       points="431.821,309.452 451.333,485.852 470.845,632.449 490.357,710.985 509.869,749.497 529.381,776.72 548.893,811.632 568.405,881.415 587.917,1043.22 607.429,1123.67 626.941,1169.82 646.453,1209.07 665.965,1244.26 685.477,1271.62 704.989,1285.99 724.501,1283.65 744.013,1263.76 763.525,1228.53 783.037,1182.26 802.549,1130 822.061,992.397 841.573,565.373 861.085,288.9 880.597,213.975 900.109,309.422 919.621,485.83 939.133,632.429 958.645,710.967 978.157,749.487 997.669,776.711 1017.18,811.624 1036.69,881.408 1056.21,1043.21 1075.72,1123.66 1095.23,1169.81 1114.74,1209.07 1134.25,1244.26 1153.77,1271.62 1173.28,1285.99 1192.79,1283.65 1212.3,1263.76 1231.81,1228.53 1251.33,1182.26 1270.84,1130 1290.35,992.431 1309.86,565.373 1329.37,288.89 1348.89,213.959 1368.4,309.403 1387.91,485.814 1407.42,632.412 1426.93,710.956 1446.45,749.477 1465.96,776.702 1485.47,811.615 1504.98,881.401 1524.49,1043.21 1544.01,1123.66 1563.52,1169.81 1583.03,1209.07 1602.54,1244.26 1622.05,1271.62 1641.57,1285.99 1661.08,1283.65 1680.59,1263.76 1700.1,1228.53 1719.61,1182.26 1739.13,1130 1758.64,992.436 1778.15,565.369 1797.66,288.881 1817.17,213.947 1836.69,309.391 1856.2,485.796 1875.71,632.4 1895.22,710.953 1914.73,749.468 1934.25,776.693 1953.76,811.607 1973.27,881.393 1992.78,1043.25 2012.29,1123.67 2031.81,1169.81 2051.32,1209.06 2070.83,1244.26 2090.34,1271.62 2109.85,1285.99 2129.37,1283.65 2148.88,1263.76 2168.39,1228.53 2187.9,1182.26 2207.41,1130 2226.93,992.306 2246.44,565.345 2265.95,288.879 2285.46,213.953 2304.97,309.398 2324.49,485.8 2344,632.395 2363.51,710.944 2383.02,749.46 2402.53,776.684 2422.05,811.599 2441.56,881.386 2461.07,1043.24 2480.58,1123.66 2500.09,1169.81 2519.61,1209.06 2539.12,1244.26 2558.63,1271.62 2578.14,1285.98 2597.65,1283.65 2617.17,1263.76 2636.68,1228.53 2656.19,1182.26 2675.7,1130 2695.21,992.352 2714.73,565.347 2734.24,288.868 2753.75,213.935 2773.26,309.374 2792.77,485.776 2812.29,632.384 2831.8,710.928 2851.31,749.449 2870.82,776.676 2890.33,811.591 2909.85,881.379 2929.36,1043.19 2948.87,1123.65 2968.38,1169.81 2987.89,1209.06 3007.41,1244.26 3026.92,1271.62 3046.43,1285.99 3065.94,1283.65 3085.45,1263.76 3104.97,1228.53 3124.48,1182.26 3143.99,1130 3163.5,992.311 3183.01,565.339 3202.53,288.867 3222.04,213.935 3241.55,309.373 3261.06,485.773 3280.57,632.377 3300.09,710.918 3319.6,749.44 3339.11,776.667 3358.62,811.582 3378.13,881.371 3397.65,1043.19 3417.16,1123.64 3436.67,1169.8 3456.18,1209.06 3475.69,1244.25 3495.21,1271.62 3514.72,1285.99 3534.23,1283.65 3553.74,1263.76 3573.25,1228.53 3592.77,1182.26 3612.28,1130 3631.79,992.311 3651.3,565.334 3670.81,288.859 3690.33,213.924 3709.84,309.36 3729.35,485.759 3748.86,632.364 3768.37,710.907 3787.89,749.43 3807.4,776.658 3826.91,811.574 3846.42,881.364 3865.93,1043.18 3885.45,1123.64 3904.96,1169.8 3924.47,1209.06 3943.98,1244.25 3963.5,1271.62 3983.01,1285.98 4002.52,1283.65 4022.03,1263.76 4041.54,1228.53 4061.06,1182.26 4080.57,1130 4100.08,992.416 4119.59,565.343 4139.1,288.843 4158.62,213.897 4178.13,309.329 4197.64,485.735 4217.15,632.342 4236.66,710.893 4256.18,749.42 4275.69,776.648 4295.2,811.565 4314.71,881.357 4334.22,1043.18 4353.74,1123.64 4373.25,1169.8 4392.76,1209.06 4412.27,1244.25 4431.78,1271.62 4451.3,1285.99 4470.81,1283.65 4490.32,1263.76 4509.83,1228.53 4529.34,1182.25 4548.86,1130 4568.37,992.318 4587.88,565.325 4607.39,288.842 4626.9,213.91 "
       id="polyline19" />
    <polyline
       clip-path="url(#clip292)"
       style="stroke:#ff0000; stroke-linecap:round; stroke-linejoin:round; stroke-width:12; stroke-opacity:1; fill:none"
       stroke-dasharray="48, 30"
       points="431.821,309.028 451.333,520.034 470.845,700.837 490.357,771.573 509.869,772.052 529.381,775.609 548.893,811.384 568.405,890.566 587.917,1026.11 607.429,1158.94 626.941,1258.37 646.453,1315.8 665.965,1335.26 685.477,1329.25 704.989,1309.62 724.501,1282.89 744.013,1251.08 763.525,1214.06 783.037,1171.48 802.549,1123.73 822.061,1032.01 841.573,669.758 861.085,284.752 880.597,84.759 900.109,135.144 919.621,374.334 939.133,643.263 958.645,781.316 978.157,795.107 997.669,788.989 1017.18,815.472 1036.69,889.817 1056.21,1023.34 1075.72,1155.11 1095.23,1254.34 1114.74,1312.45 1134.25,1333.05 1153.77,1328.12 1173.28,1309.22 1192.79,1282.92 1212.3,1251.31 1231.81,1214.37 1251.33,1171.82 1270.84,1124.07 1290.35,1032.48 1309.86,670.611 1329.37,286.105 1348.89,86.6117 1368.4,137.267 1387.91,376.254 1407.42,644.34 1426.93,781.414 1446.45,794.829 1465.96,788.768 1485.47,815.364 1504.98,889.782 1524.49,1023.54 1544.01,1155.33 1563.52,1254.53 1583.03,1312.58 1602.54,1333.12 1622.05,1328.13 1641.57,1309.21 1661.08,1282.9 1680.59,1251.29 1700.1,1214.35 1719.61,1171.79 1739.13,1124.06 1758.64,1032.72 1778.15,670.703 1797.66,286.089 1817.17,86.514 1836.69,137.119 1856.2,376.101 1875.71,644.247 1895.22,781.402 1914.73,794.85 1934.25,788.787 1953.76,815.374 1973.27,889.786 1992.78,1023.42 2012.29,1155.22 2031.81,1254.44 2051.32,1312.53 2070.83,1333.1 2090.34,1328.14 2109.85,1309.22 2129.37,1282.91 2148.88,1251.3 2168.39,1214.36 2187.9,1171.81 2207.41,1124.07 2226.93,1032.45 2246.44,670.578 2265.95,286.064 2285.46,86.563 2304.97,137.215 2324.49,376.208 2344,644.313 2363.51,781.411 2383.02,794.835 2402.53,788.773 2422.05,815.368 2441.56,889.783 2461.07,1023.36 2480.58,1155.16 2500.09,1254.39 2519.61,1312.5 2539.12,1333.09 2558.63,1328.14 2578.14,1309.23 2597.65,1282.92 2617.17,1251.31 2636.68,1214.37 2656.19,1171.81 2675.7,1124.07 2695.21,1032.28 2714.73,670.493 2734.24,286.026 2753.75,86.5543 2773.26,137.226 2792.77,376.224 2812.29,644.332 2831.8,781.419 2851.31,794.837 2870.82,788.769 2890.33,815.365 2909.85,889.782 2929.36,1023.5 2948.87,1155.29 2968.38,1254.5 2987.89,1312.56 3007.41,1333.11 3026.92,1328.14 3046.43,1309.22 3065.94,1282.9 3085.45,1251.29 3104.97,1214.35 3124.48,1171.8 3143.99,1124.06 3163.5,1032.71 3183.01,670.7 3202.53,286.093 3222.04,86.5254 3241.55,137.135 3261.06,376.119 3280.57,644.257 3300.09,781.402 3319.6,794.848 3339.11,788.785 3358.62,815.373 3378.13,889.785 3397.65,1023.5 3417.16,1155.3 3436.67,1254.5 3456.18,1312.57 3475.69,1333.11 3495.21,1328.13 3514.72,1309.21 3534.23,1282.9 3553.74,1251.29 3573.25,1214.35 3592.77,1171.8 3612.28,1124.06 3631.79,1032.64 3651.3,670.667 3670.81,286.084 3690.33,86.5319 3709.84,137.151 3729.35,376.136 3748.86,644.271 3768.37,781.406 3787.89,794.848 3807.4,788.781 3826.91,815.372 3846.42,889.785 3865.93,1023.54 3885.45,1155.33 3904.96,1254.53 3924.47,1312.58 3943.98,1333.12 3963.5,1328.13 3983.01,1309.21 4002.52,1282.89 4022.03,1251.28 4041.54,1214.35 4061.06,1171.79 4080.57,1124.05 4100.08,1032.61 4119.59,670.649 4139.1,286.069 4158.62,86.5184 4178.13,137.14 4197.64,376.129 4217.15,644.266 4236.66,781.405 4256.18,794.847 4275.69,788.783 4295.2,815.372 4314.71,889.785 4334.22,1023.6 4353.74,1155.39 4373.25,1254.57 4392.76,1312.61 4412.27,1333.12 4431.78,1328.13 4451.3,1309.2 4470.81,1282.89 4490.32,1251.28 4509.83,1214.34 4529.34,1171.79 4548.86,1124.05 4568.37,1032.74 4587.88,670.706 4607.39,286.08 4626.9,86.5041 "
       id="polyline20" />
  </g>
</svg>
