<?xml version="1.0" encoding="utf-8"?>
<svg xmlns="http://www.w3.org/2000/svg" xmlns:xlink="http://www.w3.org/1999/xlink" width="600" height="630" viewBox="0 0 2400 2520">
<defs>
  <clipPath id="clip080">
    <rect x="0" y="0" width="2400" height="2520"/>
  </clipPath>
</defs>
<path clip-path="url(#clip080)" d="M0 2520 L2400 2520 L2400 0 L0 0  Z" fill="#ffffff" fill-rule="evenodd" fill-opacity="1"/>
<defs>
  <clipPath id="clip081">
    <rect x="504" y="252" width="1765" height="1765"/>
  </clipPath>
</defs>
<path clip-path="url(#clip080)" d="M417.509 2168.92 L2305.51 2168.92 L2305.51 47.2441 L417.509 47.2441  Z" fill="#ffffff" fill-rule="evenodd" fill-opacity="1"/>
<defs>
  <clipPath id="clip082">
    <rect x="417" y="47" width="1889" height="2123"/>
  </clipPath>
</defs>
<polyline clip-path="url(#clip082)" style="stroke:#000000; stroke-linecap:round; stroke-linejoin:round; stroke-width:2; stroke-opacity:0.1; fill:none" points="417.509,2168.92 417.509,47.2441 "/>
<polyline clip-path="url(#clip082)" style="stroke:#000000; stroke-linecap:round; stroke-linejoin:round; stroke-width:2; stroke-opacity:0.1; fill:none" points="606.309,2168.92 606.309,47.2441 "/>
<polyline clip-path="url(#clip082)" style="stroke:#000000; stroke-linecap:round; stroke-linejoin:round; stroke-width:2; stroke-opacity:0.1; fill:none" points="795.11,2168.92 795.11,47.2441 "/>
<polyline clip-path="url(#clip082)" style="stroke:#000000; stroke-linecap:round; stroke-linejoin:round; stroke-width:2; stroke-opacity:0.1; fill:none" points="983.91,2168.92 983.91,47.2441 "/>
<polyline clip-path="url(#clip082)" style="stroke:#000000; stroke-linecap:round; stroke-linejoin:round; stroke-width:2; stroke-opacity:0.1; fill:none" points="1172.71,2168.92 1172.71,47.2441 "/>
<polyline clip-path="url(#clip082)" style="stroke:#000000; stroke-linecap:round; stroke-linejoin:round; stroke-width:2; stroke-opacity:0.1; fill:none" points="1361.51,2168.92 1361.51,47.2441 "/>
<polyline clip-path="url(#clip082)" style="stroke:#000000; stroke-linecap:round; stroke-linejoin:round; stroke-width:2; stroke-opacity:0.1; fill:none" points="1550.31,2168.92 1550.31,47.2441 "/>
<polyline clip-path="url(#clip082)" style="stroke:#000000; stroke-linecap:round; stroke-linejoin:round; stroke-width:2; stroke-opacity:0.1; fill:none" points="1739.11,2168.92 1739.11,47.2441 "/>
<polyline clip-path="url(#clip082)" style="stroke:#000000; stroke-linecap:round; stroke-linejoin:round; stroke-width:2; stroke-opacity:0.1; fill:none" points="1927.91,2168.92 1927.91,47.2441 "/>
<polyline clip-path="url(#clip082)" style="stroke:#000000; stroke-linecap:round; stroke-linejoin:round; stroke-width:2; stroke-opacity:0.1; fill:none" points="2116.71,2168.92 2116.71,47.2441 "/>
<polyline clip-path="url(#clip082)" style="stroke:#000000; stroke-linecap:round; stroke-linejoin:round; stroke-width:2; stroke-opacity:0.1; fill:none" points="2305.51,2168.92 2305.51,47.2441 "/>
<polyline clip-path="url(#clip080)" style="stroke:#000000; stroke-linecap:round; stroke-linejoin:round; stroke-width:4; stroke-opacity:1; fill:none" points="417.509,2168.92 2305.51,2168.92 "/>
<polyline clip-path="url(#clip080)" style="stroke:#000000; stroke-linecap:round; stroke-linejoin:round; stroke-width:4; stroke-opacity:1; fill:none" points="417.509,2168.92 417.509,2150.02 "/>
<polyline clip-path="url(#clip080)" style="stroke:#000000; stroke-linecap:round; stroke-linejoin:round; stroke-width:4; stroke-opacity:1; fill:none" points="606.309,2168.92 606.309,2150.02 "/>
<polyline clip-path="url(#clip080)" style="stroke:#000000; stroke-linecap:round; stroke-linejoin:round; stroke-width:4; stroke-opacity:1; fill:none" points="795.11,2168.92 795.11,2150.02 "/>
<polyline clip-path="url(#clip080)" style="stroke:#000000; stroke-linecap:round; stroke-linejoin:round; stroke-width:4; stroke-opacity:1; fill:none" points="983.91,2168.92 983.91,2150.02 "/>
<polyline clip-path="url(#clip080)" style="stroke:#000000; stroke-linecap:round; stroke-linejoin:round; stroke-width:4; stroke-opacity:1; fill:none" points="1172.71,2168.92 1172.71,2150.02 "/>
<polyline clip-path="url(#clip080)" style="stroke:#000000; stroke-linecap:round; stroke-linejoin:round; stroke-width:4; stroke-opacity:1; fill:none" points="1361.51,2168.92 1361.51,2150.02 "/>
<polyline clip-path="url(#clip080)" style="stroke:#000000; stroke-linecap:round; stroke-linejoin:round; stroke-width:4; stroke-opacity:1; fill:none" points="1550.31,2168.92 1550.31,2150.02 "/>
<polyline clip-path="url(#clip080)" style="stroke:#000000; stroke-linecap:round; stroke-linejoin:round; stroke-width:4; stroke-opacity:1; fill:none" points="1739.11,2168.92 1739.11,2150.02 "/>
<polyline clip-path="url(#clip080)" style="stroke:#000000; stroke-linecap:round; stroke-linejoin:round; stroke-width:4; stroke-opacity:1; fill:none" points="1927.91,2168.92 1927.91,2150.02 "/>
<polyline clip-path="url(#clip080)" style="stroke:#000000; stroke-linecap:round; stroke-linejoin:round; stroke-width:4; stroke-opacity:1; fill:none" points="2116.71,2168.92 2116.71,2150.02 "/>
<polyline clip-path="url(#clip080)" style="stroke:#000000; stroke-linecap:round; stroke-linejoin:round; stroke-width:4; stroke-opacity:1; fill:none" points="2305.51,2168.92 2305.51,2150.02 "/>
<path clip-path="url(#clip080)" d="M393.464 2287.24 L412.561 2287.24 L412.561 2221.32 L391.786 2225.49 L391.786 2214.84 L412.445 2210.68 L424.135 2210.68 L424.135 2287.24 L443.232 2287.24 L443.232 2297.08 L393.464 2297.08 L393.464 2287.24 Z" fill="#000000" fill-rule="nonzero" fill-opacity="1" /><path clip-path="url(#clip080)" d="M592.941 2287.24 L633.74 2287.24 L633.74 2297.08 L578.879 2297.08 L578.879 2287.24 Q585.534 2280.35 596.992 2268.78 Q608.508 2257.15 611.46 2253.79 Q617.073 2247.48 619.272 2243.14 Q621.529 2238.74 621.529 2234.52 Q621.529 2227.63 616.668 2223.29 Q611.865 2218.95 604.11 2218.95 Q598.613 2218.95 592.478 2220.86 Q586.402 2222.77 579.458 2226.65 L579.458 2214.84 Q586.518 2212.01 592.652 2210.56 Q598.786 2209.11 603.879 2209.11 Q617.305 2209.11 625.291 2215.83 Q633.277 2222.54 633.277 2233.77 Q633.277 2239.09 631.251 2243.89 Q629.284 2248.64 624.018 2255.12 Q622.571 2256.8 614.816 2264.84 Q607.062 2272.83 592.941 2287.24 Z" fill="#000000" fill-rule="nonzero" fill-opacity="1" /><path clip-path="url(#clip080)" d="M805.729 2250.49 Q814.12 2252.28 818.807 2257.96 Q823.553 2263.63 823.553 2271.96 Q823.553 2284.75 814.756 2291.75 Q805.96 2298.75 789.757 2298.75 Q784.317 2298.75 778.53 2297.65 Q772.801 2296.61 766.666 2294.47 L766.666 2283.19 Q771.528 2286.02 777.315 2287.47 Q783.102 2288.92 789.409 2288.92 Q800.405 2288.92 806.134 2284.58 Q811.921 2280.24 811.921 2271.96 Q811.921 2264.32 806.539 2260.04 Q801.215 2255.7 791.666 2255.7 L781.597 2255.7 L781.597 2246.09 L792.129 2246.09 Q800.752 2246.09 805.324 2242.68 Q809.895 2239.21 809.895 2232.72 Q809.895 2226.07 805.15 2222.54 Q800.463 2218.95 791.666 2218.95 Q786.863 2218.95 781.365 2219.99 Q775.868 2221.03 769.271 2223.23 L769.271 2212.82 Q775.926 2210.97 781.713 2210.04 Q787.558 2209.11 792.708 2209.11 Q806.018 2209.11 813.773 2215.19 Q821.527 2221.21 821.527 2231.51 Q821.527 2238.69 817.418 2243.66 Q813.31 2248.58 805.729 2250.49 Z" fill="#000000" fill-rule="nonzero" fill-opacity="1" /><path clip-path="url(#clip080)" d="M991.433 2220.86 L961.919 2266.98 L991.433 2266.98 L991.433 2220.86 M988.366 2210.68 L1003.06 2210.68 L1003.06 2266.98 L1015.39 2266.98 L1015.39 2276.71 L1003.06 2276.71 L1003.06 2297.08 L991.433 2297.08 L991.433 2276.71 L952.429 2276.71 L952.429 2265.42 L988.366 2210.68 Z" fill="#000000" fill-rule="nonzero" fill-opacity="1" /><path clip-path="url(#clip080)" d="M1148.4 2210.68 L1194.3 2210.68 L1194.3 2220.51 L1159.11 2220.51 L1159.11 2241.69 Q1161.66 2240.83 1164.2 2240.42 Q1166.75 2239.96 1169.3 2239.96 Q1183.76 2239.96 1192.21 2247.89 Q1200.66 2255.81 1200.66 2269.36 Q1200.66 2283.3 1191.98 2291.06 Q1183.3 2298.75 1167.5 2298.75 Q1162.06 2298.75 1156.39 2297.83 Q1150.78 2296.9 1144.76 2295.05 L1144.76 2283.3 Q1149.97 2286.14 1155.52 2287.53 Q1161.08 2288.92 1167.27 2288.92 Q1177.28 2288.92 1183.13 2283.65 Q1188.97 2278.38 1188.97 2269.36 Q1188.97 2260.33 1183.13 2255.06 Q1177.28 2249.8 1167.27 2249.8 Q1162.58 2249.8 1157.9 2250.84 Q1153.27 2251.88 1148.4 2254.08 L1148.4 2210.68 Z" fill="#000000" fill-rule="nonzero" fill-opacity="1" /><path clip-path="url(#clip080)" d="M1362.52 2249.22 Q1354.65 2249.22 1350.02 2254.6 Q1345.45 2259.98 1345.45 2269.36 Q1345.45 2278.67 1350.02 2284.11 Q1354.65 2289.49 1362.52 2289.49 Q1370.39 2289.49 1374.97 2284.11 Q1379.59 2278.67 1379.59 2269.36 Q1379.59 2259.98 1374.97 2254.6 Q1370.39 2249.22 1362.52 2249.22 M1385.73 2212.59 L1385.73 2223.23 Q1381.33 2221.15 1376.82 2220.05 Q1372.36 2218.95 1367.96 2218.95 Q1356.39 2218.95 1350.25 2226.76 Q1344.18 2234.58 1343.31 2250.37 Q1346.72 2245.34 1351.88 2242.68 Q1357.03 2239.96 1363.22 2239.96 Q1376.24 2239.96 1383.76 2247.89 Q1391.34 2255.76 1391.34 2269.36 Q1391.34 2282.67 1383.47 2290.71 Q1375.6 2298.75 1362.52 2298.75 Q1347.53 2298.75 1339.61 2287.3 Q1331.68 2275.78 1331.68 2253.96 Q1331.68 2233.48 1341.4 2221.32 Q1351.12 2209.11 1367.5 2209.11 Q1371.9 2209.11 1376.35 2209.98 Q1380.87 2210.85 1385.73 2212.59 Z" fill="#000000" fill-rule="nonzero" fill-opacity="1" /><path clip-path="url(#clip080)" d="M1522.53 2210.68 L1578.09 2210.68 L1578.09 2215.65 L1546.72 2297.08 L1534.51 2297.08 L1564.03 2220.51 L1522.53 2220.51 L1522.53 2210.68 Z" fill="#000000" fill-rule="nonzero" fill-opacity="1" /><path clip-path="url(#clip080)" d="M1739.11 2256.05 Q1730.78 2256.05 1725.97 2260.5 Q1721.23 2264.96 1721.23 2272.77 Q1721.23 2280.58 1725.97 2285.04 Q1730.78 2289.49 1739.11 2289.49 Q1747.44 2289.49 1752.25 2285.04 Q1757.05 2280.53 1757.05 2272.77 Q1757.05 2264.96 1752.25 2260.5 Q1747.5 2256.05 1739.11 2256.05 M1727.42 2251.07 Q1719.9 2249.22 1715.67 2244.07 Q1711.51 2238.92 1711.51 2231.51 Q1711.51 2221.15 1718.86 2215.13 Q1726.26 2209.11 1739.11 2209.11 Q1752.02 2209.11 1759.37 2215.13 Q1766.71 2221.15 1766.71 2231.51 Q1766.71 2238.92 1762.49 2244.07 Q1758.32 2249.22 1750.86 2251.07 Q1759.31 2253.04 1764 2258.77 Q1768.74 2264.5 1768.74 2272.77 Q1768.74 2285.33 1761.04 2292.04 Q1753.4 2298.75 1739.11 2298.75 Q1724.82 2298.75 1717.12 2292.04 Q1709.48 2285.33 1709.48 2272.77 Q1709.48 2264.5 1714.23 2258.77 Q1718.97 2253.04 1727.42 2251.07 M1723.14 2232.61 Q1723.14 2239.32 1727.31 2243.08 Q1731.53 2246.84 1739.11 2246.84 Q1746.63 2246.84 1750.86 2243.08 Q1755.14 2239.32 1755.14 2232.61 Q1755.14 2225.9 1750.86 2222.13 Q1746.63 2218.37 1739.11 2218.37 Q1731.53 2218.37 1727.31 2222.13 Q1723.14 2225.9 1723.14 2232.61 Z" fill="#000000" fill-rule="nonzero" fill-opacity="1" /><path clip-path="url(#clip080)" d="M1903.66 2295.28 L1903.66 2284.63 Q1908.06 2286.72 1912.58 2287.82 Q1917.09 2288.92 1921.43 2288.92 Q1933 2288.92 1939.08 2281.16 Q1945.21 2273.35 1946.08 2257.49 Q1942.73 2262.47 1937.58 2265.13 Q1932.43 2267.79 1926.18 2267.79 Q1913.21 2267.79 1905.63 2259.98 Q1898.11 2252.11 1898.11 2238.51 Q1898.11 2225.2 1905.98 2217.16 Q1913.85 2209.11 1926.93 2209.11 Q1941.92 2209.11 1949.79 2220.63 Q1957.71 2232.09 1957.71 2253.96 Q1957.71 2274.39 1947.99 2286.6 Q1938.33 2298.75 1921.95 2298.75 Q1917.55 2298.75 1913.04 2297.89 Q1908.52 2297.02 1903.66 2295.28 M1926.93 2258.65 Q1934.8 2258.65 1939.37 2253.27 Q1944 2247.89 1944 2238.51 Q1944 2229.19 1939.37 2223.81 Q1934.8 2218.37 1926.93 2218.37 Q1919.06 2218.37 1914.43 2223.81 Q1909.86 2229.19 1909.86 2238.51 Q1909.86 2247.89 1914.43 2253.27 Q1919.06 2258.65 1926.93 2258.65 Z" fill="#000000" fill-rule="nonzero" fill-opacity="1" /><path clip-path="url(#clip080)" d="M2053.43 2287.24 L2072.53 2287.24 L2072.53 2221.32 L2051.75 2225.49 L2051.75 2214.84 L2072.41 2210.68 L2084.1 2210.68 L2084.1 2287.24 L2103.2 2287.24 L2103.2 2297.08 L2053.43 2297.08 L2053.43 2287.24 Z" fill="#000000" fill-rule="nonzero" fill-opacity="1" /><path clip-path="url(#clip080)" d="M2151.81 2218.37 Q2142.78 2218.37 2138.21 2227.28 Q2133.7 2236.14 2133.7 2253.96 Q2133.7 2271.73 2138.21 2280.64 Q2142.78 2289.49 2151.81 2289.49 Q2160.9 2289.49 2165.41 2280.64 Q2169.98 2271.73 2169.98 2253.96 Q2169.98 2236.14 2165.41 2227.28 Q2160.9 2218.37 2151.81 2218.37 M2151.81 2209.11 Q2166.34 2209.11 2173.97 2220.63 Q2181.67 2232.09 2181.67 2253.96 Q2181.67 2275.78 2173.97 2287.3 Q2166.34 2298.75 2151.81 2298.75 Q2137.28 2298.75 2129.59 2287.3 Q2121.95 2275.78 2121.95 2253.96 Q2121.95 2232.09 2129.59 2220.63 Q2137.28 2209.11 2151.81 2209.11 Z" fill="#000000" fill-rule="nonzero" fill-opacity="1" /><path clip-path="url(#clip080)" d="M2243.76 2287.24 L2262.86 2287.24 L2262.86 2221.32 L2242.09 2225.49 L2242.09 2214.84 L2262.75 2210.68 L2274.44 2210.68 L2274.44 2287.24 L2293.53 2287.24 L2293.53 2297.08 L2243.76 2297.08 L2243.76 2287.24 Z" fill="#000000" fill-rule="nonzero" fill-opacity="1" /><path clip-path="url(#clip080)" d="M2319.17 2287.24 L2338.27 2287.24 L2338.27 2221.32 L2317.49 2225.49 L2317.49 2214.84 L2338.15 2210.68 L2349.84 2210.68 L2349.84 2287.24 L2368.94 2287.24 L2368.94 2297.08 L2319.17 2297.08 L2319.17 2287.24 Z" fill="#000000" fill-rule="nonzero" fill-opacity="1" /><path clip-path="url(#clip080)" d="M877.056 2356.19 L890.499 2356.19 L890.499 2444.23 L938.881 2444.23 L938.881 2455.55 L877.056 2455.55 L877.056 2356.19 Z" fill="#000000" fill-rule="nonzero" fill-opacity="1" /><path clip-path="url(#clip080)" d="M986.332 2418.08 Q971.491 2418.08 965.767 2421.47 Q960.044 2424.87 960.044 2433.05 Q960.044 2439.58 964.303 2443.44 Q968.629 2447.23 976.016 2447.23 Q986.198 2447.23 992.321 2440.04 Q998.51 2432.79 998.51 2420.81 L998.51 2418.08 L986.332 2418.08 M1010.76 2413.02 L1010.76 2455.55 L998.51 2455.55 L998.51 2444.23 Q994.318 2451.02 988.062 2454.28 Q981.806 2457.48 972.755 2457.48 Q961.309 2457.48 954.52 2451.09 Q947.799 2444.63 947.799 2433.85 Q947.799 2421.27 956.184 2414.89 Q964.636 2408.5 981.34 2408.5 L998.51 2408.5 L998.51 2407.3 Q998.51 2398.85 992.92 2394.25 Q987.396 2389.6 977.347 2389.6 Q970.958 2389.6 964.902 2391.13 Q958.846 2392.66 953.256 2395.72 L953.256 2384.41 Q959.978 2381.81 966.3 2380.55 Q972.622 2379.21 978.612 2379.21 Q994.783 2379.21 1002.77 2387.6 Q1010.76 2395.99 1010.76 2413.02 Z" fill="#000000" fill-rule="nonzero" fill-opacity="1" /><path clip-path="url(#clip080)" d="M1048.09 2359.85 L1048.09 2381.01 L1073.31 2381.01 L1073.31 2390.53 L1048.09 2390.53 L1048.09 2430.99 Q1048.09 2440.11 1050.55 2442.7 Q1053.08 2445.3 1060.74 2445.3 L1073.31 2445.3 L1073.31 2455.55 L1060.74 2455.55 Q1046.56 2455.55 1041.17 2450.29 Q1035.78 2444.97 1035.78 2430.99 L1035.78 2390.53 L1026.79 2390.53 L1026.79 2381.01 L1035.78 2381.01 L1035.78 2359.85 L1048.09 2359.85 Z" fill="#000000" fill-rule="nonzero" fill-opacity="1" /><path clip-path="url(#clip080)" d="M1153.17 2415.22 L1153.17 2421.21 L1096.87 2421.21 Q1097.67 2433.85 1104.46 2440.51 Q1111.31 2447.1 1123.49 2447.1 Q1130.55 2447.1 1137.14 2445.37 Q1143.79 2443.64 1150.31 2440.17 L1150.31 2451.75 Q1143.72 2454.55 1136.8 2456.01 Q1129.88 2457.48 1122.76 2457.48 Q1104.92 2457.48 1094.48 2447.1 Q1084.09 2436.71 1084.09 2419.01 Q1084.09 2400.71 1093.94 2390 Q1103.86 2379.21 1120.63 2379.21 Q1135.67 2379.21 1144.39 2388.93 Q1153.17 2398.58 1153.17 2415.22 M1140.93 2411.62 Q1140.8 2401.58 1135.27 2395.59 Q1129.81 2389.6 1120.76 2389.6 Q1110.51 2389.6 1104.33 2395.39 Q1098.2 2401.18 1097.27 2411.69 L1140.93 2411.62 Z" fill="#000000" fill-rule="nonzero" fill-opacity="1" /><path clip-path="url(#clip080)" d="M1235.23 2410.56 L1235.23 2455.55 L1222.99 2455.55 L1222.99 2410.96 Q1222.99 2400.38 1218.86 2395.12 Q1214.73 2389.86 1206.48 2389.86 Q1196.56 2389.86 1190.84 2396.18 Q1185.12 2402.51 1185.12 2413.42 L1185.12 2455.55 L1172.81 2455.55 L1172.81 2381.01 L1185.12 2381.01 L1185.12 2392.59 Q1189.51 2385.87 1195.43 2382.54 Q1201.42 2379.21 1209.21 2379.21 Q1222.05 2379.21 1228.64 2387.2 Q1235.23 2395.12 1235.23 2410.56 Z" fill="#000000" fill-rule="nonzero" fill-opacity="1" /><path clip-path="url(#clip080)" d="M1271.77 2359.85 L1271.77 2381.01 L1296.99 2381.01 L1296.99 2390.53 L1271.77 2390.53 L1271.77 2430.99 Q1271.77 2440.11 1274.23 2442.7 Q1276.76 2445.3 1284.41 2445.3 L1296.99 2445.3 L1296.99 2455.55 L1284.41 2455.55 Q1270.24 2455.55 1264.85 2450.29 Q1259.46 2444.97 1259.46 2430.99 L1259.46 2390.53 L1250.47 2390.53 L1250.47 2381.01 L1259.46 2381.01 L1259.46 2359.85 L1271.77 2359.85 Z" fill="#000000" fill-rule="nonzero" fill-opacity="1" /><path clip-path="url(#clip080)" d="M1403.94 2383.21 L1403.94 2394.79 Q1398.75 2392.13 1393.16 2390.79 Q1387.56 2389.46 1381.58 2389.46 Q1372.46 2389.46 1367.87 2392.26 Q1363.34 2395.05 1363.34 2400.64 Q1363.34 2404.9 1366.6 2407.37 Q1369.86 2409.76 1379.71 2411.96 L1383.9 2412.89 Q1396.95 2415.68 1402.41 2420.81 Q1407.93 2425.87 1407.93 2434.98 Q1407.93 2445.37 1399.68 2451.42 Q1391.49 2457.48 1377.12 2457.48 Q1371.13 2457.48 1364.61 2456.28 Q1358.15 2455.15 1350.96 2452.82 L1350.96 2440.17 Q1357.75 2443.7 1364.34 2445.5 Q1370.93 2447.23 1377.38 2447.23 Q1386.03 2447.23 1390.69 2444.3 Q1395.35 2441.31 1395.35 2435.92 Q1395.35 2430.92 1391.96 2428.26 Q1388.63 2425.6 1377.25 2423.14 L1372.99 2422.14 Q1361.61 2419.74 1356.55 2414.82 Q1351.49 2409.83 1351.49 2401.18 Q1351.49 2390.66 1358.95 2384.94 Q1366.4 2379.21 1380.11 2379.21 Q1386.9 2379.21 1392.89 2380.21 Q1398.88 2381.21 1403.94 2383.21 Z" fill="#000000" fill-rule="nonzero" fill-opacity="1" /><path clip-path="url(#clip080)" d="M1439.27 2444.37 L1439.27 2483.9 L1426.96 2483.9 L1426.96 2381.01 L1439.27 2381.01 L1439.27 2392.32 Q1443.13 2385.67 1448.99 2382.48 Q1454.91 2379.21 1463.1 2379.21 Q1476.68 2379.21 1485.13 2390 Q1493.65 2400.78 1493.65 2418.35 Q1493.65 2435.92 1485.13 2446.7 Q1476.68 2457.48 1463.1 2457.48 Q1454.91 2457.48 1448.99 2454.28 Q1443.13 2451.02 1439.27 2444.37 M1480.94 2418.35 Q1480.94 2404.84 1475.35 2397.18 Q1469.82 2389.46 1460.11 2389.46 Q1450.39 2389.46 1444.8 2397.18 Q1439.27 2404.84 1439.27 2418.35 Q1439.27 2431.86 1444.8 2439.58 Q1450.39 2447.23 1460.11 2447.23 Q1469.82 2447.23 1475.35 2439.58 Q1480.94 2431.86 1480.94 2418.35 Z" fill="#000000" fill-rule="nonzero" fill-opacity="1" /><path clip-path="url(#clip080)" d="M1577.7 2415.22 L1577.7 2421.21 L1521.4 2421.21 Q1522.2 2433.85 1528.98 2440.51 Q1535.84 2447.1 1548.02 2447.1 Q1555.07 2447.1 1561.66 2445.37 Q1568.32 2443.64 1574.84 2440.17 L1574.84 2451.75 Q1568.25 2454.55 1561.33 2456.01 Q1554.41 2457.48 1547.29 2457.48 Q1529.45 2457.48 1519 2447.1 Q1508.62 2436.71 1508.62 2419.01 Q1508.62 2400.71 1518.47 2390 Q1528.39 2379.21 1545.16 2379.21 Q1560.2 2379.21 1568.92 2388.93 Q1577.7 2398.58 1577.7 2415.22 M1565.45 2411.62 Q1565.32 2401.58 1559.8 2395.59 Q1554.34 2389.6 1545.29 2389.6 Q1535.04 2389.6 1528.85 2395.39 Q1522.73 2401.18 1521.8 2411.69 L1565.45 2411.62 Z" fill="#000000" fill-rule="nonzero" fill-opacity="1" /><path clip-path="url(#clip080)" d="M1651.44 2383.87 L1651.44 2395.32 Q1646.25 2392.46 1640.99 2391.06 Q1635.8 2389.6 1630.47 2389.6 Q1618.56 2389.6 1611.97 2397.18 Q1605.38 2404.7 1605.38 2418.35 Q1605.38 2431.99 1611.97 2439.58 Q1618.56 2447.1 1630.47 2447.1 Q1635.8 2447.1 1640.99 2445.7 Q1646.25 2444.23 1651.44 2441.37 L1651.44 2452.69 Q1646.31 2455.08 1640.79 2456.28 Q1635.33 2457.48 1629.14 2457.48 Q1612.31 2457.48 1602.39 2446.9 Q1592.47 2436.31 1592.47 2418.35 Q1592.47 2400.11 1602.46 2389.66 Q1612.51 2379.21 1629.94 2379.21 Q1635.6 2379.21 1640.99 2380.41 Q1646.38 2381.54 1651.44 2383.87 Z" fill="#000000" fill-rule="nonzero" fill-opacity="1" /><path clip-path="url(#clip080)" d="M1672.73 2381.01 L1684.98 2381.01 L1684.98 2455.55 L1672.73 2455.55 L1672.73 2381.01 M1672.73 2352 L1684.98 2352 L1684.98 2367.5 L1672.73 2367.5 L1672.73 2352 Z" fill="#000000" fill-rule="nonzero" fill-opacity="1" /><path clip-path="url(#clip080)" d="M1774.36 2415.22 L1774.36 2421.21 L1718.06 2421.21 Q1718.85 2433.85 1725.64 2440.51 Q1732.5 2447.1 1744.68 2447.1 Q1751.73 2447.1 1758.32 2445.37 Q1764.97 2443.64 1771.5 2440.17 L1771.5 2451.75 Q1764.91 2454.55 1757.99 2456.01 Q1751.06 2457.48 1743.94 2457.48 Q1726.11 2457.48 1715.66 2447.1 Q1705.28 2436.71 1705.28 2419.01 Q1705.28 2400.71 1715.13 2390 Q1725.04 2379.21 1741.81 2379.21 Q1756.85 2379.21 1765.57 2388.93 Q1774.36 2398.58 1774.36 2415.22 M1762.11 2411.62 Q1761.98 2401.58 1756.45 2395.59 Q1751 2389.6 1741.95 2389.6 Q1731.7 2389.6 1725.51 2395.39 Q1719.39 2401.18 1718.45 2411.69 L1762.11 2411.62 Z" fill="#000000" fill-rule="nonzero" fill-opacity="1" /><path clip-path="url(#clip080)" d="M1841.97 2383.21 L1841.97 2394.79 Q1836.78 2392.13 1831.19 2390.79 Q1825.6 2389.46 1819.61 2389.46 Q1810.49 2389.46 1805.9 2392.26 Q1801.38 2395.05 1801.38 2400.64 Q1801.38 2404.9 1804.64 2407.37 Q1807.9 2409.76 1817.75 2411.96 L1821.94 2412.89 Q1834.98 2415.68 1840.44 2420.81 Q1845.97 2425.87 1845.97 2434.98 Q1845.97 2445.37 1837.71 2451.42 Q1829.53 2457.48 1815.15 2457.48 Q1809.16 2457.48 1802.64 2456.28 Q1796.19 2455.15 1789 2452.82 L1789 2440.17 Q1795.79 2443.7 1802.37 2445.5 Q1808.96 2447.23 1815.42 2447.23 Q1824.07 2447.23 1828.73 2444.3 Q1833.39 2441.31 1833.39 2435.92 Q1833.39 2430.92 1829.99 2428.26 Q1826.67 2425.6 1815.29 2423.14 L1811.03 2422.14 Q1799.65 2419.74 1794.59 2414.82 Q1789.53 2409.83 1789.53 2401.18 Q1789.53 2390.66 1796.98 2384.94 Q1804.44 2379.21 1818.15 2379.21 Q1824.94 2379.21 1830.92 2380.21 Q1836.91 2381.21 1841.97 2383.21 Z" fill="#000000" fill-rule="nonzero" fill-opacity="1" /><polyline clip-path="url(#clip082)" style="stroke:#000000; stroke-linecap:round; stroke-linejoin:round; stroke-width:2; stroke-opacity:0.1; fill:none" points="417.509,2168.92 2305.51,2168.92 "/>
<polyline clip-path="url(#clip082)" style="stroke:#000000; stroke-linecap:round; stroke-linejoin:round; stroke-width:2; stroke-opacity:0.1; fill:none" points="417.509,1870.09 2305.51,1870.09 "/>
<polyline clip-path="url(#clip082)" style="stroke:#000000; stroke-linecap:round; stroke-linejoin:round; stroke-width:2; stroke-opacity:0.1; fill:none" points="417.509,1571.26 2305.51,1571.26 "/>
<polyline clip-path="url(#clip082)" style="stroke:#000000; stroke-linecap:round; stroke-linejoin:round; stroke-width:2; stroke-opacity:0.1; fill:none" points="417.509,1272.43 2305.51,1272.43 "/>
<polyline clip-path="url(#clip082)" style="stroke:#000000; stroke-linecap:round; stroke-linejoin:round; stroke-width:2; stroke-opacity:0.1; fill:none" points="417.509,973.608 2305.51,973.608 "/>
<polyline clip-path="url(#clip082)" style="stroke:#000000; stroke-linecap:round; stroke-linejoin:round; stroke-width:2; stroke-opacity:0.1; fill:none" points="417.509,674.781 2305.51,674.781 "/>
<polyline clip-path="url(#clip082)" style="stroke:#000000; stroke-linecap:round; stroke-linejoin:round; stroke-width:2; stroke-opacity:0.1; fill:none" points="417.509,375.954 2305.51,375.954 "/>
<polyline clip-path="url(#clip082)" style="stroke:#000000; stroke-linecap:round; stroke-linejoin:round; stroke-width:2; stroke-opacity:0.1; fill:none" points="417.509,77.1268 2305.51,77.1268 "/>
<polyline clip-path="url(#clip080)" style="stroke:#000000; stroke-linecap:round; stroke-linejoin:round; stroke-width:4; stroke-opacity:1; fill:none" points="417.509,2168.92 417.509,47.2441 "/>
<polyline clip-path="url(#clip080)" style="stroke:#000000; stroke-linecap:round; stroke-linejoin:round; stroke-width:4; stroke-opacity:1; fill:none" points="417.509,2168.92 436.407,2168.92 "/>
<polyline clip-path="url(#clip080)" style="stroke:#000000; stroke-linecap:round; stroke-linejoin:round; stroke-width:4; stroke-opacity:1; fill:none" points="417.509,1870.09 436.407,1870.09 "/>
<polyline clip-path="url(#clip080)" style="stroke:#000000; stroke-linecap:round; stroke-linejoin:round; stroke-width:4; stroke-opacity:1; fill:none" points="417.509,1571.26 436.407,1571.26 "/>
<polyline clip-path="url(#clip080)" style="stroke:#000000; stroke-linecap:round; stroke-linejoin:round; stroke-width:4; stroke-opacity:1; fill:none" points="417.509,1272.43 436.407,1272.43 "/>
<polyline clip-path="url(#clip080)" style="stroke:#000000; stroke-linecap:round; stroke-linejoin:round; stroke-width:4; stroke-opacity:1; fill:none" points="417.509,973.608 436.407,973.608 "/>
<polyline clip-path="url(#clip080)" style="stroke:#000000; stroke-linecap:round; stroke-linejoin:round; stroke-width:4; stroke-opacity:1; fill:none" points="417.509,674.781 436.407,674.781 "/>
<polyline clip-path="url(#clip080)" style="stroke:#000000; stroke-linecap:round; stroke-linejoin:round; stroke-width:4; stroke-opacity:1; fill:none" points="417.509,375.954 436.407,375.954 "/>
<polyline clip-path="url(#clip080)" style="stroke:#000000; stroke-linecap:round; stroke-linejoin:round; stroke-width:4; stroke-opacity:1; fill:none" points="417.509,77.1268 436.407,77.1268 "/>
<path clip-path="url(#clip080)" d="M238.39 2133.41 Q229.363 2133.41 224.791 2142.32 Q220.277 2151.18 220.277 2169 Q220.277 2186.77 224.791 2195.68 Q229.363 2204.53 238.39 2204.53 Q247.476 2204.53 251.99 2195.68 Q256.561 2186.77 256.561 2169 Q256.561 2151.18 251.99 2142.32 Q247.476 2133.41 238.39 2133.41 M238.39 2124.15 Q252.916 2124.15 260.555 2135.67 Q268.251 2147.13 268.251 2169 Q268.251 2190.82 260.555 2202.34 Q252.916 2213.79 238.39 2213.79 Q223.865 2213.79 216.168 2202.34 Q208.529 2190.82 208.529 2169 Q208.529 2147.13 216.168 2135.67 Q223.865 2124.15 238.39 2124.15 Z" fill="#000000" fill-rule="nonzero" fill-opacity="1" /><path clip-path="url(#clip080)" d="M288.795 2197.42 L301.006 2197.42 L301.006 2212.12 L288.795 2212.12 L288.795 2197.42 Z" fill="#000000" fill-rule="nonzero" fill-opacity="1" /><path clip-path="url(#clip080)" d="M361.885 2165.53 Q370.276 2167.32 374.964 2173 Q379.709 2178.67 379.709 2187 Q379.709 2199.79 370.913 2206.79 Q362.116 2213.79 345.913 2213.79 Q340.473 2213.79 334.686 2212.69 Q328.957 2211.65 322.823 2209.51 L322.823 2198.23 Q327.684 2201.06 333.471 2202.51 Q339.258 2203.96 345.566 2203.96 Q356.561 2203.96 362.29 2199.62 Q368.077 2195.28 368.077 2187 Q368.077 2179.36 362.695 2175.08 Q357.371 2170.74 347.823 2170.74 L337.753 2170.74 L337.753 2161.13 L348.286 2161.13 Q356.908 2161.13 361.48 2157.72 Q366.052 2154.25 366.052 2147.76 Q366.052 2141.11 361.306 2137.58 Q356.619 2133.99 347.823 2133.99 Q343.019 2133.99 337.522 2135.03 Q332.024 2136.07 325.427 2138.27 L325.427 2127.86 Q332.082 2126.01 337.869 2125.08 Q343.714 2124.15 348.864 2124.15 Q362.174 2124.15 369.929 2130.23 Q377.684 2136.25 377.684 2146.55 Q377.684 2153.73 373.575 2158.7 Q369.466 2163.62 361.885 2165.53 Z" fill="#000000" fill-rule="nonzero" fill-opacity="1" /><path clip-path="url(#clip080)" d="M235.555 1834.59 Q226.527 1834.59 221.955 1843.5 Q217.441 1852.35 217.441 1870.18 Q217.441 1887.94 221.955 1896.85 Q226.527 1905.71 235.555 1905.71 Q244.64 1905.71 249.154 1896.85 Q253.726 1887.94 253.726 1870.18 Q253.726 1852.35 249.154 1843.5 Q244.64 1834.59 235.555 1834.59 M235.555 1825.33 Q250.08 1825.33 257.719 1836.84 Q265.416 1848.3 265.416 1870.18 Q265.416 1891.99 257.719 1903.51 Q250.08 1914.97 235.555 1914.97 Q221.029 1914.97 213.333 1903.51 Q205.694 1891.99 205.694 1870.18 Q205.694 1848.3 213.333 1836.84 Q221.029 1825.33 235.555 1825.33 Z" fill="#000000" fill-rule="nonzero" fill-opacity="1" /><path clip-path="url(#clip080)" d="M285.959 1898.59 L298.17 1898.59 L298.17 1913.29 L285.959 1913.29 L285.959 1898.59 Z" fill="#000000" fill-rule="nonzero" fill-opacity="1" /><path clip-path="url(#clip080)" d="M355.751 1837.07 L326.237 1883.2 L355.751 1883.2 L355.751 1837.07 M352.684 1826.89 L367.383 1826.89 L367.383 1883.2 L379.709 1883.2 L379.709 1892.92 L367.383 1892.92 L367.383 1913.29 L355.751 1913.29 L355.751 1892.92 L316.746 1892.92 L316.746 1881.63 L352.684 1826.89 Z" fill="#000000" fill-rule="nonzero" fill-opacity="1" /><path clip-path="url(#clip080)" d="M239.258 1535.76 Q230.231 1535.76 225.659 1544.67 Q221.145 1553.52 221.145 1571.35 Q221.145 1589.11 225.659 1598.03 Q230.231 1606.88 239.258 1606.88 Q248.344 1606.88 252.858 1598.03 Q257.43 1589.11 257.43 1571.35 Q257.43 1553.52 252.858 1544.67 Q248.344 1535.76 239.258 1535.76 M239.258 1526.5 Q253.784 1526.5 261.423 1538.02 Q269.119 1549.47 269.119 1571.35 Q269.119 1593.17 261.423 1604.68 Q253.784 1616.14 239.258 1616.14 Q224.733 1616.14 217.036 1604.68 Q209.397 1593.17 209.397 1571.35 Q209.397 1549.47 217.036 1538.02 Q224.733 1526.5 239.258 1526.5 Z" fill="#000000" fill-rule="nonzero" fill-opacity="1" /><path clip-path="url(#clip080)" d="M289.663 1599.76 L301.874 1599.76 L301.874 1614.46 L289.663 1614.46 L289.663 1599.76 Z" fill="#000000" fill-rule="nonzero" fill-opacity="1" /><path clip-path="url(#clip080)" d="M327.452 1528.06 L373.343 1528.06 L373.343 1537.9 L338.158 1537.9 L338.158 1559.08 Q340.705 1558.21 343.251 1557.81 Q345.797 1557.34 348.343 1557.34 Q362.811 1557.34 371.26 1565.27 Q379.709 1573.2 379.709 1586.74 Q379.709 1600.69 371.028 1608.44 Q362.348 1616.14 346.549 1616.14 Q341.11 1616.14 335.438 1615.21 Q329.825 1614.29 323.807 1612.44 L323.807 1600.69 Q329.015 1603.52 334.57 1604.91 Q340.126 1606.3 346.318 1606.3 Q356.329 1606.3 362.174 1601.04 Q368.019 1595.77 368.019 1586.74 Q368.019 1577.71 362.174 1572.45 Q356.329 1567.18 346.318 1567.18 Q341.63 1567.18 336.943 1568.22 Q332.313 1569.27 327.452 1571.46 L327.452 1528.06 Z" fill="#000000" fill-rule="nonzero" fill-opacity="1" /><path clip-path="url(#clip080)" d="M236.365 1236.93 Q227.337 1236.93 222.765 1245.84 Q218.252 1254.7 218.252 1272.52 Q218.252 1290.29 222.765 1299.2 Q227.337 1308.05 236.365 1308.05 Q245.45 1308.05 249.964 1299.2 Q254.536 1290.29 254.536 1272.52 Q254.536 1254.7 249.964 1245.84 Q245.45 1236.93 236.365 1236.93 M236.365 1227.67 Q250.89 1227.67 258.529 1239.19 Q266.226 1250.65 266.226 1272.52 Q266.226 1294.34 258.529 1305.85 Q250.89 1317.31 236.365 1317.31 Q221.839 1317.31 214.143 1305.85 Q206.504 1294.34 206.504 1272.52 Q206.504 1250.65 214.143 1239.19 Q221.839 1227.67 236.365 1227.67 Z" fill="#000000" fill-rule="nonzero" fill-opacity="1" /><path clip-path="url(#clip080)" d="M286.77 1300.94 L298.98 1300.94 L298.98 1315.63 L286.77 1315.63 L286.77 1300.94 Z" fill="#000000" fill-rule="nonzero" fill-opacity="1" /><path clip-path="url(#clip080)" d="M350.89 1267.78 Q343.019 1267.78 338.39 1273.16 Q333.818 1278.54 333.818 1287.92 Q333.818 1297.23 338.39 1302.67 Q343.019 1308.05 350.89 1308.05 Q358.76 1308.05 363.332 1302.67 Q367.961 1297.23 367.961 1287.92 Q367.961 1278.54 363.332 1273.16 Q358.76 1267.78 350.89 1267.78 M374.096 1231.14 L374.096 1241.79 Q369.697 1239.71 365.184 1238.61 Q360.728 1237.51 356.329 1237.51 Q344.755 1237.51 338.621 1245.32 Q332.545 1253.14 331.677 1268.93 Q335.091 1263.9 340.242 1261.24 Q345.392 1258.52 351.584 1258.52 Q364.605 1258.52 372.128 1266.45 Q379.709 1274.32 379.709 1287.92 Q379.709 1301.23 371.839 1309.27 Q363.968 1317.31 350.89 1317.31 Q335.901 1317.31 327.973 1305.85 Q320.045 1294.34 320.045 1272.52 Q320.045 1252.04 329.767 1239.88 Q339.489 1227.67 355.867 1227.67 Q360.265 1227.67 364.721 1228.54 Q369.235 1229.41 374.096 1231.14 Z" fill="#000000" fill-rule="nonzero" fill-opacity="1" /><path clip-path="url(#clip080)" d="M239.027 938.105 Q229.999 938.105 225.427 947.017 Q220.914 955.871 220.914 973.695 Q220.914 991.461 225.427 1000.37 Q229.999 1009.23 239.027 1009.23 Q248.112 1009.23 252.626 1000.37 Q257.198 991.461 257.198 973.695 Q257.198 955.871 252.626 947.017 Q248.112 938.105 239.027 938.105 M239.027 928.845 Q253.552 928.845 261.191 940.361 Q268.888 951.82 268.888 973.695 Q268.888 995.512 261.191 1007.03 Q253.552 1018.49 239.027 1018.49 Q224.501 1018.49 216.805 1007.03 Q209.166 995.512 209.166 973.695 Q209.166 951.82 216.805 940.361 Q224.501 928.845 239.027 928.845 Z" fill="#000000" fill-rule="nonzero" fill-opacity="1" /><path clip-path="url(#clip080)" d="M289.432 1002.11 L301.642 1002.11 L301.642 1016.81 L289.432 1016.81 L289.432 1002.11 Z" fill="#000000" fill-rule="nonzero" fill-opacity="1" /><path clip-path="url(#clip080)" d="M324.154 930.408 L379.709 930.408 L379.709 935.385 L348.343 1016.81 L336.133 1016.81 L365.647 940.246 L324.154 940.246 L324.154 930.408 Z" fill="#000000" fill-rule="nonzero" fill-opacity="1" /><path clip-path="url(#clip080)" d="M237.001 639.278 Q227.974 639.278 223.402 648.19 Q218.888 657.044 218.888 674.868 Q218.888 692.634 223.402 701.546 Q227.974 710.4 237.001 710.4 Q246.087 710.4 250.601 701.546 Q255.173 692.634 255.173 674.868 Q255.173 657.044 250.601 648.19 Q246.087 639.278 237.001 639.278 M237.001 630.018 Q251.527 630.018 259.166 641.534 Q266.862 652.993 266.862 674.868 Q266.862 696.685 259.166 708.201 Q251.527 719.659 237.001 719.659 Q222.476 719.659 214.779 708.201 Q207.14 696.685 207.14 674.868 Q207.14 652.993 214.779 641.534 Q222.476 630.018 237.001 630.018 Z" fill="#000000" fill-rule="nonzero" fill-opacity="1" /><path clip-path="url(#clip080)" d="M287.406 703.282 L299.617 703.282 L299.617 717.981 L287.406 717.981 L287.406 703.282 Z" fill="#000000" fill-rule="nonzero" fill-opacity="1" /><path clip-path="url(#clip080)" d="M350.08 676.951 Q341.746 676.951 336.943 681.407 Q332.198 685.863 332.198 693.675 Q332.198 701.488 336.943 705.944 Q341.746 710.4 350.08 710.4 Q358.413 710.4 363.216 705.944 Q368.019 701.43 368.019 693.675 Q368.019 685.863 363.216 681.407 Q358.471 676.951 350.08 676.951 M338.39 671.974 Q330.867 670.122 326.642 664.972 Q322.475 659.821 322.475 652.414 Q322.475 642.055 329.825 636.037 Q337.232 630.018 350.08 630.018 Q362.985 630.018 370.334 636.037 Q377.684 642.055 377.684 652.414 Q377.684 659.821 373.459 664.972 Q369.292 670.122 361.827 671.974 Q370.276 673.942 374.964 679.671 Q379.709 685.4 379.709 693.675 Q379.709 706.233 372.012 712.946 Q364.373 719.659 350.08 719.659 Q335.786 719.659 328.089 712.946 Q320.45 706.233 320.45 693.675 Q320.45 685.4 325.195 679.671 Q329.941 673.942 338.39 671.974 M334.107 653.514 Q334.107 660.227 338.274 663.988 Q342.499 667.75 350.08 667.75 Q357.603 667.75 361.827 663.988 Q366.11 660.227 366.11 653.514 Q366.11 646.801 361.827 643.039 Q357.603 639.278 350.08 639.278 Q342.499 639.278 338.274 643.039 Q334.107 646.801 334.107 653.514 Z" fill="#000000" fill-rule="nonzero" fill-opacity="1" /><path clip-path="url(#clip080)" d="M237.233 340.451 Q228.205 340.451 223.633 349.363 Q219.12 358.217 219.12 376.041 Q219.12 393.807 223.633 402.719 Q228.205 411.573 237.233 411.573 Q246.318 411.573 250.832 402.719 Q255.404 393.807 255.404 376.041 Q255.404 358.217 250.832 349.363 Q246.318 340.451 237.233 340.451 M237.233 331.191 Q251.758 331.191 259.397 342.707 Q267.094 354.166 267.094 376.041 Q267.094 397.858 259.397 409.374 Q251.758 420.832 237.233 420.832 Q222.708 420.832 215.011 409.374 Q207.372 397.858 207.372 376.041 Q207.372 354.166 215.011 342.707 Q222.708 331.191 237.233 331.191 Z" fill="#000000" fill-rule="nonzero" fill-opacity="1" /><path clip-path="url(#clip080)" d="M287.638 404.455 L299.848 404.455 L299.848 419.154 L287.638 419.154 L287.638 404.455 Z" fill="#000000" fill-rule="nonzero" fill-opacity="1" /><path clip-path="url(#clip080)" d="M325.658 417.36 L325.658 406.712 Q330.056 408.795 334.57 409.895 Q339.084 410.994 343.424 410.994 Q354.998 410.994 361.075 403.24 Q367.209 395.427 368.077 379.571 Q364.721 384.548 359.57 387.21 Q354.42 389.872 348.17 389.872 Q335.207 389.872 327.626 382.059 Q320.103 374.189 320.103 360.589 Q320.103 347.279 327.973 339.235 Q335.843 331.191 348.922 331.191 Q363.91 331.191 371.781 342.707 Q379.709 354.166 379.709 376.041 Q379.709 396.469 369.987 408.679 Q360.323 420.832 343.945 420.832 Q339.547 420.832 335.033 419.964 Q330.519 419.096 325.658 417.36 M348.922 380.728 Q356.792 380.728 361.364 375.346 Q365.994 369.964 365.994 360.589 Q365.994 351.272 361.364 345.89 Q356.792 340.451 348.922 340.451 Q341.052 340.451 336.422 345.89 Q331.85 351.272 331.85 360.589 Q331.85 369.964 336.422 375.346 Q341.052 380.728 348.922 380.728 Z" fill="#000000" fill-rule="nonzero" fill-opacity="1" /><path clip-path="url(#clip080)" d="M213.796 110.489 L232.893 110.489 L232.893 44.5749 L212.117 48.7415 L212.117 38.0934 L232.777 33.9268 L244.467 33.9268 L244.467 110.489 L263.564 110.489 L263.564 120.327 L213.796 120.327 L213.796 110.489 Z" fill="#000000" fill-rule="nonzero" fill-opacity="1" /><path clip-path="url(#clip080)" d="M287.175 105.628 L299.385 105.628 L299.385 120.327 L287.175 120.327 L287.175 105.628 Z" fill="#000000" fill-rule="nonzero" fill-opacity="1" /><path clip-path="url(#clip080)" d="M349.848 41.6235 Q340.82 41.6235 336.249 50.5355 Q331.735 59.3896 331.735 77.2136 Q331.735 94.9797 336.249 103.892 Q340.82 112.746 349.848 112.746 Q358.934 112.746 363.448 103.892 Q368.019 94.9797 368.019 77.2136 Q368.019 59.3896 363.448 50.5355 Q358.934 41.6235 349.848 41.6235 M349.848 32.3643 Q364.373 32.3643 372.012 43.8804 Q379.709 55.3387 379.709 77.2136 Q379.709 99.0306 372.012 110.547 Q364.373 122.005 349.848 122.005 Q335.323 122.005 327.626 110.547 Q319.987 99.0306 319.987 77.2136 Q319.987 55.3387 327.626 43.8804 Q335.323 32.3643 349.848 32.3643 Z" fill="#000000" fill-rule="nonzero" fill-opacity="1" /><path clip-path="url(#clip080)" d="M38.7257 2016.66 L38.7257 1932.61 L50.0393 1932.61 L50.0393 1967.88 L138.086 1967.88 L138.086 1981.39 L50.0393 1981.39 L50.0393 2016.66 L38.7257 2016.66 Z" fill="#000000" fill-rule="nonzero" fill-opacity="1" /><path clip-path="url(#clip080)" d="M72.1341 1914.44 Q72.1341 1924.29 79.854 1930.01 Q87.5073 1935.74 100.884 1935.74 Q114.261 1935.74 121.98 1930.08 Q129.634 1924.36 129.634 1914.44 Q129.634 1904.66 121.914 1898.93 Q114.194 1893.21 100.884 1893.21 Q87.6404 1893.21 79.9205 1898.93 Q72.1341 1904.66 72.1341 1914.44 M61.7522 1914.44 Q61.7522 1898.47 72.1341 1889.35 Q82.516 1880.23 100.884 1880.23 Q119.185 1880.23 129.634 1889.35 Q140.016 1898.47 140.016 1914.44 Q140.016 1930.48 129.634 1939.6 Q119.185 1948.65 100.884 1948.65 Q82.516 1948.65 72.1341 1939.6 Q61.7522 1930.48 61.7522 1914.44 Z" fill="#000000" fill-rule="nonzero" fill-opacity="1" /><path clip-path="url(#clip080)" d="M42.386 1847.82 L63.5491 1847.82 L63.5491 1822.6 L73.0658 1822.6 L73.0658 1847.82 L113.529 1847.82 Q122.646 1847.82 125.241 1845.36 Q127.837 1842.83 127.837 1835.18 L127.837 1822.6 L138.086 1822.6 L138.086 1835.18 Q138.086 1849.35 132.828 1854.74 Q127.504 1860.13 113.529 1860.13 L73.0658 1860.13 L73.0658 1869.12 L63.5491 1869.12 L63.5491 1860.13 L42.386 1860.13 L42.386 1847.82 Z" fill="#000000" fill-rule="nonzero" fill-opacity="1" /><path clip-path="url(#clip080)" d="M100.618 1772.62 Q100.618 1787.46 104.012 1793.18 Q107.406 1798.91 115.592 1798.91 Q122.114 1798.91 125.974 1794.65 Q129.767 1790.32 129.767 1782.94 Q129.767 1772.75 122.579 1766.63 Q115.325 1760.44 103.346 1760.44 L100.618 1760.44 L100.618 1772.62 M95.5599 1748.2 L138.086 1748.2 L138.086 1760.44 L126.772 1760.44 Q133.56 1764.63 136.821 1770.89 Q140.016 1777.15 140.016 1786.2 Q140.016 1797.64 133.627 1804.43 Q127.171 1811.15 116.39 1811.15 Q103.812 1811.15 97.4233 1802.77 Q91.0345 1794.32 91.0345 1777.61 L91.0345 1760.44 L89.8366 1760.44 Q81.3846 1760.44 76.7926 1766.03 Q72.1341 1771.56 72.1341 1781.61 Q72.1341 1787.99 73.6648 1794.05 Q75.1954 1800.11 78.2568 1805.7 L66.9432 1805.7 Q64.3477 1798.97 63.0832 1792.65 Q61.7522 1786.33 61.7522 1780.34 Q61.7522 1764.17 70.1376 1756.18 Q78.523 1748.2 95.5599 1748.2 Z" fill="#000000" fill-rule="nonzero" fill-opacity="1" /><path clip-path="url(#clip080)" d="M34.533 1722.97 L34.533 1710.73 L138.086 1710.73 L138.086 1722.97 L34.533 1722.97 Z" fill="#000000" fill-rule="nonzero" fill-opacity="1" /><path clip-path="url(#clip080)" d="M63.5491 1650.57 L63.5491 1637.59 L126.107 1614.3 L63.5491 1591 L63.5491 1578.03 L138.086 1605.98 L138.086 1622.62 L63.5491 1650.57 Z" fill="#000000" fill-rule="nonzero" fill-opacity="1" /><path clip-path="url(#clip080)" d="M100.618 1527.25 Q100.618 1542.09 104.012 1547.81 Q107.406 1553.54 115.592 1553.54 Q122.114 1553.54 125.974 1549.28 Q129.767 1544.95 129.767 1537.56 Q129.767 1527.38 122.579 1521.26 Q115.325 1515.07 103.346 1515.07 L100.618 1515.07 L100.618 1527.25 M95.5599 1502.82 L138.086 1502.82 L138.086 1515.07 L126.772 1515.07 Q133.56 1519.26 136.821 1525.52 Q140.016 1531.77 140.016 1540.83 Q140.016 1552.27 133.627 1559.06 Q127.171 1565.78 116.39 1565.78 Q103.812 1565.78 97.4233 1557.4 Q91.0345 1548.94 91.0345 1532.24 L91.0345 1515.07 L89.8366 1515.07 Q81.3846 1515.07 76.7926 1520.66 Q72.1341 1526.18 72.1341 1536.23 Q72.1341 1542.62 73.6648 1548.68 Q75.1954 1554.73 78.2568 1560.32 L66.9432 1560.32 Q64.3477 1553.6 63.0832 1547.28 Q61.7522 1540.96 61.7522 1534.97 Q61.7522 1518.8 70.1376 1510.81 Q78.523 1502.82 95.5599 1502.82 Z" fill="#000000" fill-rule="nonzero" fill-opacity="1" /><path clip-path="url(#clip080)" d="M74.9958 1434.41 Q73.7979 1436.47 73.2655 1438.94 Q72.6665 1441.33 72.6665 1444.26 Q72.6665 1454.64 79.4547 1460.23 Q86.1763 1465.76 98.8209 1465.76 L138.086 1465.76 L138.086 1478.07 L63.5491 1478.07 L63.5491 1465.76 L75.1289 1465.76 Q68.3407 1461.9 65.0797 1455.71 Q61.7522 1449.52 61.7522 1440.67 Q61.7522 1439.4 61.9519 1437.87 Q62.085 1436.34 62.4177 1434.48 L74.9958 1434.41 Z" fill="#000000" fill-rule="nonzero" fill-opacity="1" /><path clip-path="url(#clip080)" d="M63.5491 1421.57 L63.5491 1409.32 L138.086 1409.32 L138.086 1421.57 L63.5491 1421.57 M34.533 1421.57 L34.533 1409.32 L50.0393 1409.32 L50.0393 1421.57 L34.533 1421.57 Z" fill="#000000" fill-rule="nonzero" fill-opacity="1" /><path clip-path="url(#clip080)" d="M100.618 1349.82 Q100.618 1364.67 104.012 1370.39 Q107.406 1376.11 115.592 1376.11 Q122.114 1376.11 125.974 1371.85 Q129.767 1367.53 129.767 1360.14 Q129.767 1349.96 122.579 1343.84 Q115.325 1337.65 103.346 1337.65 L100.618 1337.65 L100.618 1349.82 M95.5599 1325.4 L138.086 1325.4 L138.086 1337.65 L126.772 1337.65 Q133.56 1341.84 136.821 1348.09 Q140.016 1354.35 140.016 1363.4 Q140.016 1374.85 133.627 1381.64 Q127.171 1388.36 116.39 1388.36 Q103.812 1388.36 97.4233 1379.97 Q91.0345 1371.52 91.0345 1354.82 L91.0345 1337.65 L89.8366 1337.65 Q81.3846 1337.65 76.7926 1343.24 Q72.1341 1348.76 72.1341 1358.81 Q72.1341 1365.2 73.6648 1371.25 Q75.1954 1377.31 78.2568 1382.9 L66.9432 1382.9 Q64.3477 1376.18 63.0832 1369.86 Q61.7522 1363.53 61.7522 1357.54 Q61.7522 1341.37 70.1376 1333.39 Q78.523 1325.4 95.5599 1325.4 Z" fill="#000000" fill-rule="nonzero" fill-opacity="1" /><path clip-path="url(#clip080)" d="M93.0975 1238.22 L138.086 1238.22 L138.086 1250.46 L93.4968 1250.46 Q82.9153 1250.46 77.6578 1254.59 Q72.4003 1258.72 72.4003 1266.97 Q72.4003 1276.89 78.7226 1282.61 Q85.0449 1288.33 95.9592 1288.33 L138.086 1288.33 L138.086 1300.64 L63.5491 1300.64 L63.5491 1288.33 L75.1289 1288.33 Q68.4073 1283.94 65.0797 1278.02 Q61.7522 1272.03 61.7522 1264.24 Q61.7522 1251.4 69.7383 1244.81 Q77.6578 1238.22 93.0975 1238.22 Z" fill="#000000" fill-rule="nonzero" fill-opacity="1" /><path clip-path="url(#clip080)" d="M66.4108 1160.16 L77.8575 1160.16 Q74.9958 1165.35 73.5982 1170.6 Q72.1341 1175.8 72.1341 1181.12 Q72.1341 1193.03 79.7209 1199.62 Q87.2411 1206.21 100.884 1206.21 Q114.527 1206.21 122.114 1199.62 Q129.634 1193.03 129.634 1181.12 Q129.634 1175.8 128.236 1170.6 Q126.772 1165.35 123.91 1160.16 L135.224 1160.16 Q137.62 1165.28 138.818 1170.8 Q140.016 1176.26 140.016 1182.45 Q140.016 1199.29 129.434 1209.2 Q118.853 1219.12 100.884 1219.12 Q82.6491 1219.12 72.2007 1209.14 Q61.7522 1199.09 61.7522 1181.65 Q61.7522 1175.99 62.9501 1170.6 Q64.0815 1165.21 66.4108 1160.16 Z" fill="#000000" fill-rule="nonzero" fill-opacity="1" /><path clip-path="url(#clip080)" d="M97.7561 1075.1 L103.746 1075.1 L103.746 1131.41 Q116.39 1130.61 123.045 1123.82 Q129.634 1116.96 129.634 1104.79 Q129.634 1097.73 127.903 1091.14 Q126.173 1084.49 122.713 1077.97 L134.292 1077.97 Q137.087 1084.55 138.552 1091.48 Q140.016 1098.4 140.016 1105.52 Q140.016 1123.35 129.634 1133.8 Q119.252 1144.18 101.549 1144.18 Q83.248 1144.18 72.5334 1134.33 Q61.7522 1124.42 61.7522 1107.65 Q61.7522 1092.61 71.4686 1083.89 Q81.1184 1075.1 97.7561 1075.1 M94.1623 1087.35 Q84.1132 1087.48 78.1237 1093.01 Q72.1341 1098.46 72.1341 1107.51 Q72.1341 1117.76 77.924 1123.95 Q83.7139 1130.07 94.2289 1131.01 L94.1623 1087.35 Z" fill="#000000" fill-rule="nonzero" fill-opacity="1" /><path clip-path="url(#clip080)" d="M108.67 1012.95 L63.5491 1012.95 L63.5491 1000.7 L108.205 1000.7 Q118.786 1000.7 124.11 996.575 Q129.368 992.448 129.368 984.196 Q129.368 974.28 123.045 968.557 Q116.723 962.767 105.809 962.767 L63.5491 962.767 L63.5491 950.522 L138.086 950.522 L138.086 962.767 L126.639 962.767 Q133.427 967.226 136.755 973.149 Q140.016 979.005 140.016 986.792 Q140.016 999.636 132.03 1006.29 Q124.044 1012.95 108.67 1012.95 M61.7522 982.133 L61.7522 982.133 Z" fill="#000000" fill-rule="nonzero" fill-opacity="1" /><path clip-path="url(#clip080)" d="M93.0975 863.34 L138.086 863.34 L138.086 875.586 L93.4968 875.586 Q82.9153 875.586 77.6578 879.712 Q72.4003 883.838 72.4003 892.09 Q72.4003 902.006 78.7226 907.73 Q85.0449 913.453 95.9592 913.453 L138.086 913.453 L138.086 925.765 L63.5491 925.765 L63.5491 913.453 L75.1289 913.453 Q68.4073 909.061 65.0797 903.138 Q61.7522 897.148 61.7522 889.362 Q61.7522 876.517 69.7383 869.929 Q77.6578 863.34 93.0975 863.34 Z" fill="#000000" fill-rule="nonzero" fill-opacity="1" /><path clip-path="url(#clip080)" d="M97.7561 775.161 L103.746 775.161 L103.746 831.463 Q116.39 830.664 123.045 823.876 Q129.634 817.021 129.634 804.842 Q129.634 797.788 127.903 791.199 Q126.173 784.544 122.713 778.022 L134.292 778.022 Q137.087 784.611 138.552 791.532 Q140.016 798.453 140.016 805.574 Q140.016 823.41 129.634 833.858 Q119.252 844.24 101.549 844.24 Q83.248 844.24 72.5334 834.391 Q61.7522 824.475 61.7522 807.704 Q61.7522 792.664 71.4686 783.945 Q81.1184 775.161 97.7561 775.161 M94.1623 787.406 Q84.1132 787.539 78.1237 793.063 Q72.1341 798.52 72.1341 807.571 Q72.1341 817.82 77.924 824.009 Q83.7139 830.132 94.2289 831.063 L94.1623 787.406 Z" fill="#000000" fill-rule="nonzero" fill-opacity="1" /><path clip-path="url(#clip080)" d="M63.5491 695.5 L99.8191 722.453 L138.086 694.102 L138.086 708.544 L108.803 730.239 L138.086 751.935 L138.086 766.376 L99.0871 737.427 L63.5491 763.914 L63.5491 749.472 L90.1028 729.707 L63.5491 709.941 L63.5491 695.5 Z" fill="#000000" fill-rule="nonzero" fill-opacity="1" /><path clip-path="url(#clip080)" d="M126.905 664.953 L166.436 664.953 L166.436 677.265 L63.5491 677.265 L63.5491 664.953 L74.8627 664.953 Q68.2076 661.093 65.0132 655.237 Q61.7522 649.314 61.7522 641.128 Q61.7522 627.552 72.5334 619.1 Q83.3146 610.581 100.884 610.581 Q118.453 610.581 129.234 619.1 Q140.016 627.552 140.016 641.128 Q140.016 649.314 136.821 655.237 Q133.56 661.093 126.905 664.953 M100.884 623.292 Q87.3742 623.292 79.7209 628.883 Q72.001 634.406 72.001 644.123 Q72.001 653.839 79.7209 659.429 Q87.3742 664.953 100.884 664.953 Q114.394 664.953 122.114 659.429 Q129.767 653.839 129.767 644.123 Q129.767 634.406 122.114 628.883 Q114.394 623.292 100.884 623.292 Z" fill="#000000" fill-rule="nonzero" fill-opacity="1" /><path clip-path="url(#clip080)" d="M34.533 590.283 L34.533 578.038 L138.086 578.038 L138.086 590.283 L34.533 590.283 Z" fill="#000000" fill-rule="nonzero" fill-opacity="1" /><path clip-path="url(#clip080)" d="M100.618 518.542 Q100.618 533.383 104.012 539.106 Q107.406 544.829 115.592 544.829 Q122.114 544.829 125.974 540.57 Q129.767 536.244 129.767 528.857 Q129.767 518.675 122.579 512.552 Q115.325 506.363 103.346 506.363 L100.618 506.363 L100.618 518.542 M95.5599 494.118 L138.086 494.118 L138.086 506.363 L126.772 506.363 Q133.56 510.556 136.821 516.811 Q140.016 523.067 140.016 532.118 Q140.016 543.565 133.627 550.353 Q127.171 557.075 116.39 557.075 Q103.812 557.075 97.4233 548.689 Q91.0345 540.237 91.0345 523.533 L91.0345 506.363 L89.8366 506.363 Q81.3846 506.363 76.7926 511.953 Q72.1341 517.477 72.1341 527.526 Q72.1341 533.915 73.6648 539.971 Q75.1954 546.027 78.2568 551.617 L66.9432 551.617 Q64.3477 544.896 63.0832 538.574 Q61.7522 532.251 61.7522 526.262 Q61.7522 510.09 70.1376 502.104 Q78.523 494.118 95.5599 494.118 Z" fill="#000000" fill-rule="nonzero" fill-opacity="1" /><path clip-path="url(#clip080)" d="M63.5491 468.895 L63.5491 456.65 L138.086 456.65 L138.086 468.895 L63.5491 468.895 M34.533 468.895 L34.533 456.65 L50.0393 456.65 L50.0393 468.895 L34.533 468.895 Z" fill="#000000" fill-rule="nonzero" fill-opacity="1" /><path clip-path="url(#clip080)" d="M93.0975 369.069 L138.086 369.069 L138.086 381.315 L93.4968 381.315 Q82.9153 381.315 77.6578 385.441 Q72.4003 389.567 72.4003 397.819 Q72.4003 407.735 78.7226 413.458 Q85.0449 419.182 95.9592 419.182 L138.086 419.182 L138.086 431.494 L63.5491 431.494 L63.5491 419.182 L75.1289 419.182 Q68.4073 414.789 65.0797 408.866 Q61.7522 402.877 61.7522 395.09 Q61.7522 382.246 69.7383 375.658 Q77.6578 369.069 93.0975 369.069 Z" fill="#000000" fill-rule="nonzero" fill-opacity="1" /><path clip-path="url(#clip080)" d="M97.7561 280.89 L103.746 280.89 L103.746 337.191 Q116.39 336.393 123.045 329.605 Q129.634 322.75 129.634 310.571 Q129.634 303.517 127.903 296.928 Q126.173 290.273 122.713 283.751 L134.292 283.751 Q137.087 290.34 138.552 297.261 Q140.016 304.182 140.016 311.303 Q140.016 329.139 129.634 339.587 Q119.252 349.969 101.549 349.969 Q83.248 349.969 72.5334 340.12 Q61.7522 330.204 61.7522 313.433 Q61.7522 298.392 71.4686 289.674 Q81.1184 280.89 97.7561 280.89 M94.1623 293.135 Q84.1132 293.268 78.1237 298.792 Q72.1341 304.249 72.1341 313.3 Q72.1341 323.549 77.924 329.738 Q83.7139 335.86 94.2289 336.792 L94.1623 293.135 Z" fill="#000000" fill-rule="nonzero" fill-opacity="1" /><path clip-path="url(#clip080)" d="M74.8627 211.744 L34.533 211.744 L34.533 199.498 L138.086 199.498 L138.086 211.744 L126.905 211.744 Q133.56 215.604 136.821 221.527 Q140.016 227.383 140.016 235.635 Q140.016 249.145 129.234 257.664 Q118.453 266.115 100.884 266.115 Q83.3146 266.115 72.5334 257.664 Q61.7522 249.145 61.7522 235.635 Q61.7522 227.383 65.0132 221.527 Q68.2076 215.604 74.8627 211.744 M100.884 253.471 Q114.394 253.471 122.114 247.947 Q129.767 242.357 129.767 232.641 Q129.767 222.924 122.114 217.334 Q114.394 211.744 100.884 211.744 Q87.3742 211.744 79.7209 217.334 Q72.001 222.924 72.001 232.641 Q72.001 242.357 79.7209 247.947 Q87.3742 253.471 100.884 253.471 Z" fill="#000000" fill-rule="nonzero" fill-opacity="1" /><polyline clip-path="url(#clip082)" style="stroke:#ff0000; stroke-linecap:round; stroke-linejoin:round; stroke-width:16; stroke-opacity:1; fill:none" points="417.509,1766.6 606.309,957.807 795.11,494.422 983.91,77.9282 1172.71,77.1439 1361.51,77.1303 1550.31,77.1272 1739.11,77.1268 1927.91,77.1268 2116.71,77.1268 2305.51,77.1268 "/>
</svg>
