<?xml version="1.0" encoding="UTF-8" standalone="no"?>
<svg
   width="1200"
   height="300"
   viewBox="0 0 4800 1200"
   version="1.1"
   id="svg94"
   sodipodi:docname="fig5_nspec_NO2_ncomp_3_err.svg"
   inkscape:version="1.3 (0e150ed6c4, 2023-07-21)"
   xmlns:inkscape="http://www.inkscape.org/namespaces/inkscape"
   xmlns:sodipodi="http://sodipodi.sourceforge.net/DTD/sodipodi-0.dtd"
   xmlns="http://www.w3.org/2000/svg"
   xmlns:svg="http://www.w3.org/2000/svg">
  <sodipodi:namedview
     id="namedview94"
     pagecolor="#ffffff"
     bordercolor="#000000"
     borderopacity="0.25"
     inkscape:showpageshadow="2"
     inkscape:pageopacity="0.0"
     inkscape:pagecheckerboard="0"
     inkscape:deskcolor="#d1d1d1"
     inkscape:zoom="0.42916667"
     inkscape:cx="431.06796"
     inkscape:cy="159.61165"
     inkscape:window-width="1920"
     inkscape:window-height="1010"
     inkscape:window-x="1529"
     inkscape:window-y="-6"
     inkscape:window-maximized="1"
     inkscape:current-layer="svg94" />
  <defs
     id="defs1">
    <clipPath
       id="clip520">
      <rect
         x="0"
         y="0"
         width="4800"
         height="1200"
         id="rect1" />
    </clipPath>
  </defs>
  <path
     clip-path="url(#clip520)"
     d="M0 1200 L4800 1200 L4800 0 L0 0  Z"
     fill="#ffffff"
     fill-rule="evenodd"
     fill-opacity="1"
     id="path1" />
  <defs
     id="defs2">
    <clipPath
       id="clip521">
      <rect
         x="960"
         y="0"
         width="3361"
         height="1200"
         id="rect2" />
    </clipPath>
  </defs>
  <path
     clip-path="url(#clip520)"
     d="M541.32 880.951 L4752.76 880.951 L4752.76 47.2441 L541.32 47.2441  Z"
     fill="#ffffff"
     fill-rule="evenodd"
     fill-opacity="1"
     id="path2" />
  <defs
     id="defs3">
    <clipPath
       id="clip522">
      <rect
         x="541"
         y="47"
         width="4212"
         height="835"
         id="rect3" />
    </clipPath>
  </defs>
  <polyline
     clip-path="url(#clip522)"
     style="stroke:#000000; stroke-linecap:round; stroke-linejoin:round; stroke-width:2; stroke-opacity:0.1; fill:none"
     points="1085.54,880.951 1085.54,47.2441 "
     id="polyline3" />
  <polyline
     clip-path="url(#clip522)"
     style="stroke:#000000; stroke-linecap:round; stroke-linejoin:round; stroke-width:2; stroke-opacity:0.1; fill:none"
     points="1972.54,880.951 1972.54,47.2441 "
     id="polyline4" />
  <polyline
     clip-path="url(#clip522)"
     style="stroke:#000000; stroke-linecap:round; stroke-linejoin:round; stroke-width:2; stroke-opacity:0.1; fill:none"
     points="2859.55,880.951 2859.55,47.2441 "
     id="polyline5" />
  <polyline
     clip-path="url(#clip522)"
     style="stroke:#000000; stroke-linecap:round; stroke-linejoin:round; stroke-width:2; stroke-opacity:0.1; fill:none"
     points="3746.56,880.951 3746.56,47.2441 "
     id="polyline6" />
  <polyline
     clip-path="url(#clip522)"
     style="stroke:#000000; stroke-linecap:round; stroke-linejoin:round; stroke-width:2; stroke-opacity:0.1; fill:none"
     points="4633.56,880.951 4633.56,47.2441 "
     id="polyline7" />
  <polyline
     clip-path="url(#clip520)"
     style="stroke:#000000; stroke-linecap:round; stroke-linejoin:round; stroke-width:4; stroke-opacity:1; fill:none"
     points="541.32,880.951 4752.76,880.951 "
     id="polyline8" />
  <polyline
     clip-path="url(#clip520)"
     style="stroke:#000000; stroke-linecap:round; stroke-linejoin:round; stroke-width:4; stroke-opacity:1; fill:none"
     points="1085.54,880.951 1085.54,862.054 "
     id="polyline9" />
  <polyline
     clip-path="url(#clip520)"
     style="stroke:#000000; stroke-linecap:round; stroke-linejoin:round; stroke-width:4; stroke-opacity:1; fill:none"
     points="1972.54,880.951 1972.54,862.054 "
     id="polyline10" />
  <polyline
     clip-path="url(#clip520)"
     style="stroke:#000000; stroke-linecap:round; stroke-linejoin:round; stroke-width:4; stroke-opacity:1; fill:none"
     points="2859.55,880.951 2859.55,862.054 "
     id="polyline11" />
  <polyline
     clip-path="url(#clip520)"
     style="stroke:#000000; stroke-linecap:round; stroke-linejoin:round; stroke-width:4; stroke-opacity:1; fill:none"
     points="3746.56,880.951 3746.56,862.054 "
     id="polyline12" />
  <polyline
     clip-path="url(#clip520)"
     style="stroke:#000000; stroke-linecap:round; stroke-linejoin:round; stroke-width:4; stroke-opacity:1; fill:none"
     points="4633.56,880.951 4633.56,862.054 "
     id="polyline13" />
  <path
     clip-path="url(#clip520)"
     d="M1074.84 997.881 L1107.48 997.881 L1107.48 1005.75 L1063.59 1005.75 L1063.59 997.881 Q1068.92 992.372 1078.08 983.113 Q1087.3 973.807 1089.66 971.122 Q1094.15 966.076 1095.91 962.604 Q1097.71 959.085 1097.71 955.705 Q1097.71 950.196 1093.82 946.724 Q1089.98 943.252 1083.78 943.252 Q1079.38 943.252 1074.47 944.78 Q1069.61 946.307 1064.05 949.409 L1064.05 939.965 Q1069.7 937.696 1074.61 936.539 Q1079.52 935.382 1083.59 935.382 Q1094.33 935.382 1100.72 940.752 Q1107.11 946.122 1107.11 955.104 Q1107.11 959.363 1105.49 963.205 Q1103.92 967.002 1099.7 972.187 Q1098.55 973.529 1092.34 979.965 Q1086.14 986.353 1074.84 997.881 Z"
     fill="#000000"
     fill-rule="nonzero"
     fill-opacity="1"
     id="path13" />
  <path
     clip-path="url(#clip520)"
     d="M1978.56 944.78 L1954.95 981.678 L1978.56 981.678 L1978.56 944.78 M1976.11 936.631 L1987.87 936.631 L1987.87 981.678 L1997.73 981.678 L1997.73 989.455 L1987.87 989.455 L1987.87 1005.75 L1978.56 1005.75 L1978.56 989.455 L1947.36 989.455 L1947.36 980.428 L1976.11 936.631 Z"
     fill="#000000"
     fill-rule="nonzero"
     fill-opacity="1"
     id="path14" />
  <path
     clip-path="url(#clip520)"
     d="M2860.36 967.465 Q2854.06 967.465 2850.36 971.77 Q2846.7 976.076 2846.7 983.576 Q2846.7 991.029 2850.36 995.381 Q2854.06 999.687 2860.36 999.687 Q2866.66 999.687 2870.31 995.381 Q2874.02 991.029 2874.02 983.576 Q2874.02 976.076 2870.31 971.77 Q2866.66 967.465 2860.36 967.465 M2878.93 938.159 L2878.93 946.678 Q2875.41 945.011 2871.8 944.131 Q2868.23 943.252 2864.71 943.252 Q2855.45 943.252 2850.55 949.502 Q2845.68 955.752 2844.99 968.391 Q2847.72 964.363 2851.84 962.233 Q2855.96 960.057 2860.92 960.057 Q2871.33 960.057 2877.35 966.4 Q2883.42 972.696 2883.42 983.576 Q2883.42 994.224 2877.12 1000.66 Q2870.82 1007.09 2860.36 1007.09 Q2848.37 1007.09 2842.03 997.927 Q2835.68 988.715 2835.68 971.261 Q2835.68 954.872 2843.46 945.15 Q2851.24 935.382 2864.34 935.382 Q2867.86 935.382 2871.43 936.076 Q2875.04 936.77 2878.93 938.159 Z"
     fill="#000000"
     fill-rule="nonzero"
     fill-opacity="1"
     id="path15" />
  <path
     clip-path="url(#clip520)"
     d="M3746.56 972.928 Q3739.89 972.928 3736.05 976.492 Q3732.25 980.057 3732.25 986.307 Q3732.25 992.557 3736.05 996.122 Q3739.89 999.687 3746.56 999.687 Q3753.22 999.687 3757.07 996.122 Q3760.91 992.511 3760.91 986.307 Q3760.91 980.057 3757.07 976.492 Q3753.27 972.928 3746.56 972.928 M3737.21 968.946 Q3731.19 967.465 3727.81 963.344 Q3724.47 959.224 3724.47 953.298 Q3724.47 945.011 3730.35 940.196 Q3736.28 935.382 3746.56 935.382 Q3756.88 935.382 3762.76 940.196 Q3768.64 945.011 3768.64 953.298 Q3768.64 959.224 3765.26 963.344 Q3761.93 967.465 3755.96 968.946 Q3762.71 970.52 3766.46 975.104 Q3770.26 979.687 3770.26 986.307 Q3770.26 996.353 3764.1 1001.72 Q3757.99 1007.09 3746.56 1007.09 Q3735.12 1007.09 3728.96 1001.72 Q3722.85 996.353 3722.85 986.307 Q3722.85 979.687 3726.65 975.104 Q3730.45 970.52 3737.21 968.946 M3733.78 954.178 Q3733.78 959.548 3737.11 962.557 Q3740.49 965.567 3746.56 965.567 Q3752.58 965.567 3755.96 962.557 Q3759.38 959.548 3759.38 954.178 Q3759.38 948.807 3755.96 945.798 Q3752.58 942.789 3746.56 942.789 Q3740.49 942.789 3737.11 945.798 Q3733.78 948.807 3733.78 954.178 Z"
     fill="#000000"
     fill-rule="nonzero"
     fill-opacity="1"
     id="path16" />
  <path
     clip-path="url(#clip520)"
     d="M4582.94 997.881 L4598.22 997.881 L4598.22 945.15 L4581.6 948.483 L4581.6 939.965 L4598.12 936.631 L4607.48 936.631 L4607.48 997.881 L4622.75 997.881 L4622.75 1005.75 L4582.94 1005.75 L4582.94 997.881 Z"
     fill="#000000"
     fill-rule="nonzero"
     fill-opacity="1"
     id="path17" />
  <path
     clip-path="url(#clip520)"
     d="M4661.64 942.789 Q4654.42 942.789 4650.76 949.918 Q4647.15 957.002 4647.15 971.261 Q4647.15 985.474 4650.76 992.603 Q4654.42 999.687 4661.64 999.687 Q4668.91 999.687 4672.52 992.603 Q4676.18 985.474 4676.18 971.261 Q4676.18 957.002 4672.52 949.918 Q4668.91 942.789 4661.64 942.789 M4661.64 935.382 Q4673.26 935.382 4679.37 944.594 Q4685.53 953.761 4685.53 971.261 Q4685.53 988.715 4679.37 997.927 Q4673.26 1007.09 4661.64 1007.09 Q4650.02 1007.09 4643.87 997.927 Q4637.75 988.715 4637.75 971.261 Q4637.75 953.761 4643.87 944.594 Q4650.02 935.382 4661.64 935.382 Z"
     fill="#000000"
     fill-rule="nonzero"
     fill-opacity="1"
     id="path18" />
  <path
     clip-path="url(#clip520)"
     d="M2364.28 1072.18 L2430.06 1072.18 L2430.06 1081.04 L2402.46 1081.04 L2402.46 1149.94 L2391.88 1149.94 L2391.88 1081.04 L2364.28 1081.04 L2364.28 1072.18 Z"
     fill="#000000"
     fill-rule="nonzero"
     fill-opacity="1"
     id="path19" />
  <path
     clip-path="url(#clip520)"
     d="M2436.52 1091.61 L2446.1 1091.61 L2446.1 1149.94 L2436.52 1149.94 L2436.52 1091.61 M2436.52 1068.9 L2446.1 1068.9 L2446.1 1081.04 L2436.52 1081.04 L2436.52 1068.9 Z"
     fill="#000000"
     fill-rule="nonzero"
     fill-opacity="1"
     id="path20" />
  <path
     clip-path="url(#clip520)"
     d="M2511.57 1102.81 Q2515.16 1096.35 2520.16 1093.28 Q2525.16 1090.2 2531.93 1090.2 Q2541.05 1090.2 2546 1096.61 Q2550.94 1102.96 2550.94 1114.74 L2550.94 1149.94 L2541.31 1149.94 L2541.31 1115.05 Q2541.31 1106.66 2538.34 1102.6 Q2535.37 1098.54 2529.28 1098.54 Q2521.83 1098.54 2517.51 1103.49 Q2513.18 1108.43 2513.18 1116.97 L2513.18 1149.94 L2503.55 1149.94 L2503.55 1115.05 Q2503.55 1106.61 2500.58 1102.6 Q2497.61 1098.54 2491.41 1098.54 Q2484.07 1098.54 2479.75 1103.54 Q2475.42 1108.49 2475.42 1116.97 L2475.42 1149.94 L2465.79 1149.94 L2465.79 1091.61 L2475.42 1091.61 L2475.42 1100.67 Q2478.71 1095.31 2483.29 1092.76 Q2487.87 1090.2 2494.17 1090.2 Q2500.53 1090.2 2504.96 1093.43 Q2509.43 1096.66 2511.57 1102.81 Z"
     fill="#000000"
     fill-rule="nonzero"
     fill-opacity="1"
     id="path21" />
  <path
     clip-path="url(#clip520)"
     d="M2619.95 1118.38 L2619.95 1123.07 L2575.89 1123.07 Q2576.52 1132.96 2581.83 1138.17 Q2587.19 1143.33 2596.73 1143.33 Q2602.25 1143.33 2607.4 1141.97 Q2612.61 1140.62 2617.72 1137.91 L2617.72 1146.97 Q2612.56 1149.16 2607.14 1150.31 Q2601.73 1151.45 2596.15 1151.45 Q2582.19 1151.45 2574.02 1143.33 Q2565.89 1135.2 2565.89 1121.35 Q2565.89 1107.03 2573.6 1098.64 Q2581.36 1090.2 2594.49 1090.2 Q2606.26 1090.2 2613.08 1097.81 Q2619.95 1105.36 2619.95 1118.38 M2610.37 1115.57 Q2610.27 1107.7 2605.94 1103.02 Q2601.67 1098.33 2594.59 1098.33 Q2586.57 1098.33 2581.73 1102.86 Q2576.93 1107.39 2576.21 1115.62 L2610.37 1115.57 Z"
     fill="#000000"
     fill-rule="nonzero"
     fill-opacity="1"
     id="path22" />
  <path
     clip-path="url(#clip520)"
     d="M2692.61 1069.01 Q2685.63 1080.99 2682.25 1092.7 Q2678.86 1104.42 2678.86 1116.45 Q2678.86 1128.49 2682.25 1140.31 Q2685.68 1152.08 2692.61 1164.01 L2684.28 1164.01 Q2676.46 1151.77 2672.56 1139.94 Q2668.7 1128.12 2668.7 1116.45 Q2668.7 1104.84 2672.56 1093.07 Q2676.41 1081.3 2684.28 1069.01 L2692.61 1069.01 Z"
     fill="#000000"
     fill-rule="nonzero"
     fill-opacity="1"
     id="path23" />
  <path
     clip-path="url(#clip520)"
     d="M2749.59 1100.46 L2749.59 1068.9 L2759.17 1068.9 L2759.17 1149.94 L2749.59 1149.94 L2749.59 1141.19 Q2746.57 1146.4 2741.93 1148.95 Q2737.35 1151.45 2730.89 1151.45 Q2720.32 1151.45 2713.65 1143.02 Q2707.04 1134.58 2707.04 1120.83 Q2707.04 1107.08 2713.65 1098.64 Q2720.32 1090.2 2730.89 1090.2 Q2737.35 1090.2 2741.93 1092.76 Q2746.57 1095.26 2749.59 1100.46 M2716.93 1120.83 Q2716.93 1131.4 2721.26 1137.44 Q2725.63 1143.43 2733.24 1143.43 Q2740.84 1143.43 2745.21 1137.44 Q2749.59 1131.4 2749.59 1120.83 Q2749.59 1110.26 2745.21 1104.27 Q2740.84 1098.23 2733.24 1098.23 Q2725.63 1098.23 2721.26 1104.27 Q2716.93 1110.26 2716.93 1120.83 Z"
     fill="#000000"
     fill-rule="nonzero"
     fill-opacity="1"
     id="path24" />
  <path
     clip-path="url(#clip520)"
     d="M2805.42 1120.62 Q2793.81 1120.62 2789.33 1123.28 Q2784.85 1125.93 2784.85 1132.34 Q2784.85 1137.44 2788.18 1140.46 Q2791.57 1143.43 2797.35 1143.43 Q2805.32 1143.43 2810.11 1137.81 Q2814.95 1132.13 2814.95 1122.76 L2814.95 1120.62 L2805.42 1120.62 M2824.54 1116.66 L2824.54 1149.94 L2814.95 1149.94 L2814.95 1141.09 Q2811.67 1146.4 2806.78 1148.95 Q2801.88 1151.45 2794.8 1151.45 Q2785.84 1151.45 2780.53 1146.45 Q2775.27 1141.4 2775.27 1132.96 Q2775.27 1123.12 2781.83 1118.12 Q2788.44 1113.12 2801.52 1113.12 L2814.95 1113.12 L2814.95 1112.18 Q2814.95 1105.57 2810.58 1101.98 Q2806.26 1098.33 2798.39 1098.33 Q2793.39 1098.33 2788.65 1099.53 Q2783.91 1100.73 2779.54 1103.12 L2779.54 1094.27 Q2784.8 1092.24 2789.75 1091.25 Q2794.69 1090.2 2799.38 1090.2 Q2812.04 1090.2 2818.29 1096.77 Q2824.54 1103.33 2824.54 1116.66 Z"
     fill="#000000"
     fill-rule="nonzero"
     fill-opacity="1"
     id="path25" />
  <path
     clip-path="url(#clip520)"
     d="M2868.55 1155.36 Q2864.48 1165.78 2860.63 1168.95 Q2856.78 1172.13 2850.32 1172.13 L2842.66 1172.13 L2842.66 1164.11 L2848.29 1164.11 Q2852.25 1164.11 2854.43 1162.24 Q2856.62 1160.36 2859.28 1153.38 L2861 1149.01 L2837.4 1091.61 L2847.56 1091.61 L2865.79 1137.24 L2884.02 1091.61 L2894.17 1091.61 L2868.55 1155.36 Z"
     fill="#000000"
     fill-rule="nonzero"
     fill-opacity="1"
     id="path26" />
  <path
     clip-path="url(#clip520)"
     d="M2905.89 1069.01 L2914.22 1069.01 Q2922.04 1081.3 2925.89 1093.07 Q2929.8 1104.84 2929.8 1116.45 Q2929.8 1128.12 2925.89 1139.94 Q2922.04 1151.77 2914.22 1164.01 L2905.89 1164.01 Q2912.82 1152.08 2916.2 1140.31 Q2919.64 1128.49 2919.64 1116.45 Q2919.64 1104.42 2916.2 1092.7 Q2912.82 1080.99 2905.89 1069.01 Z"
     fill="#000000"
     fill-rule="nonzero"
     fill-opacity="1"
     id="path27" />
  <polyline
     clip-path="url(#clip522)"
     style="stroke:#000000; stroke-linecap:round; stroke-linejoin:round; stroke-width:2; stroke-opacity:0.1; fill:none"
     points="541.32,803.193 4752.76,803.193 "
     id="polyline27" />
  <polyline
     clip-path="url(#clip522)"
     style="stroke:#000000; stroke-linecap:round; stroke-linejoin:round; stroke-width:2; stroke-opacity:0.1; fill:none"
     points="541.32,689.983 4752.76,689.983 "
     id="polyline28" />
  <polyline
     clip-path="url(#clip522)"
     style="stroke:#000000; stroke-linecap:round; stroke-linejoin:round; stroke-width:2; stroke-opacity:0.1; fill:none"
     points="541.32,576.773 4752.76,576.773 "
     id="polyline29" />
  <polyline
     clip-path="url(#clip522)"
     style="stroke:#000000; stroke-linecap:round; stroke-linejoin:round; stroke-width:2; stroke-opacity:0.1; fill:none"
     points="541.32,463.564 4752.76,463.564 "
     id="polyline30" />
  <polyline
     clip-path="url(#clip522)"
     style="stroke:#000000; stroke-linecap:round; stroke-linejoin:round; stroke-width:2; stroke-opacity:0.1; fill:none"
     points="541.32,350.354 4752.76,350.354 "
     id="polyline31" />
  <polyline
     clip-path="url(#clip522)"
     style="stroke:#000000; stroke-linecap:round; stroke-linejoin:round; stroke-width:2; stroke-opacity:0.1; fill:none"
     points="541.32,237.144 4752.76,237.144 "
     id="polyline32" />
  <polyline
     clip-path="url(#clip522)"
     style="stroke:#000000; stroke-linecap:round; stroke-linejoin:round; stroke-width:2; stroke-opacity:0.1; fill:none"
     points="541.32,123.934 4752.76,123.934 "
     id="polyline33" />
  <polyline
     clip-path="url(#clip520)"
     style="stroke:#000000; stroke-linecap:round; stroke-linejoin:round; stroke-width:4; stroke-opacity:1; fill:none"
     points="541.32,880.951 541.32,47.2441 "
     id="polyline34" />
  <polyline
     clip-path="url(#clip520)"
     style="stroke:#000000; stroke-linecap:round; stroke-linejoin:round; stroke-width:4; stroke-opacity:1; fill:none"
     points="541.32,803.193 560.218,803.193 "
     id="polyline35" />
  <polyline
     clip-path="url(#clip520)"
     style="stroke:#000000; stroke-linecap:round; stroke-linejoin:round; stroke-width:4; stroke-opacity:1; fill:none"
     points="541.32,689.983 560.218,689.983 "
     id="polyline36" />
  <polyline
     clip-path="url(#clip520)"
     style="stroke:#000000; stroke-linecap:round; stroke-linejoin:round; stroke-width:4; stroke-opacity:1; fill:none"
     points="541.32,576.773 560.218,576.773 "
     id="polyline37" />
  <polyline
     clip-path="url(#clip520)"
     style="stroke:#000000; stroke-linecap:round; stroke-linejoin:round; stroke-width:4; stroke-opacity:1; fill:none"
     points="541.32,463.564 560.218,463.564 "
     id="polyline38" />
  <polyline
     clip-path="url(#clip520)"
     style="stroke:#000000; stroke-linecap:round; stroke-linejoin:round; stroke-width:4; stroke-opacity:1; fill:none"
     points="541.32,350.354 560.218,350.354 "
     id="polyline39" />
  <polyline
     clip-path="url(#clip520)"
     style="stroke:#000000; stroke-linecap:round; stroke-linejoin:round; stroke-width:4; stroke-opacity:1; fill:none"
     points="541.32,237.144 560.218,237.144 "
     id="polyline40" />
  <polyline
     clip-path="url(#clip520)"
     style="stroke:#000000; stroke-linecap:round; stroke-linejoin:round; stroke-width:4; stroke-opacity:1; fill:none"
     points="541.32,123.934 560.218,123.934 "
     id="polyline41" />
  <path
     clip-path="url(#clip520)"
     d="M194.136 804.096 L253.488 804.096 L253.488 811.966 L194.136 811.966 L194.136 804.096 Z"
     fill="#000000"
     fill-rule="nonzero"
     fill-opacity="1"
     id="path41" />
  <path
     clip-path="url(#clip520)"
     d="M293.673 774.791 Q286.451 774.791 282.793 781.92 Q279.182 789.004 279.182 803.263 Q279.182 817.476 282.793 824.605 Q286.451 831.688 293.673 831.688 Q300.941 831.688 304.552 824.605 Q308.21 817.476 308.21 803.263 Q308.21 789.004 304.552 781.92 Q300.941 774.791 293.673 774.791 M293.673 767.383 Q305.293 767.383 311.404 776.596 Q317.562 785.763 317.562 803.263 Q317.562 820.716 311.404 829.929 Q305.293 839.096 293.673 839.096 Q282.053 839.096 275.895 829.929 Q269.784 820.716 269.784 803.263 Q269.784 785.763 275.895 776.596 Q282.053 767.383 293.673 767.383 Z"
     fill="#000000"
     fill-rule="nonzero"
     fill-opacity="1"
     id="path42" />
  <path
     clip-path="url(#clip520)"
     d="M333.997 825.994 L343.765 825.994 L343.765 837.753 L333.997 837.753 L333.997 825.994 Z"
     fill="#000000"
     fill-rule="nonzero"
     fill-opacity="1"
     id="path43" />
  <path
     clip-path="url(#clip520)"
     d="M384.135 774.791 Q376.913 774.791 373.256 781.92 Q369.645 789.004 369.645 803.263 Q369.645 817.476 373.256 824.605 Q376.913 831.688 384.135 831.688 Q391.404 831.688 395.015 824.605 Q398.672 817.476 398.672 803.263 Q398.672 789.004 395.015 781.92 Q391.404 774.791 384.135 774.791 M384.135 767.383 Q395.756 767.383 401.867 776.596 Q408.024 785.763 408.024 803.263 Q408.024 820.716 401.867 829.929 Q395.756 839.096 384.135 839.096 Q372.515 839.096 366.358 829.929 Q360.247 820.716 360.247 803.263 Q360.247 785.763 366.358 776.596 Q372.515 767.383 384.135 767.383 Z"
     fill="#000000"
     fill-rule="nonzero"
     fill-opacity="1"
     id="path44" />
  <path
     clip-path="url(#clip520)"
     d="M450.154 776.781 L426.543 813.679 L450.154 813.679 L450.154 776.781 M447.7 768.633 L459.459 768.633 L459.459 813.679 L469.32 813.679 L469.32 821.457 L459.459 821.457 L459.459 837.753 L450.154 837.753 L450.154 821.457 L418.95 821.457 L418.95 812.429 L447.7 768.633 Z"
     fill="#000000"
     fill-rule="nonzero"
     fill-opacity="1"
     id="path45" />
  <path
     clip-path="url(#clip520)"
     d="M196.405 690.886 L255.756 690.886 L255.756 698.756 L196.405 698.756 L196.405 690.886 Z"
     fill="#000000"
     fill-rule="nonzero"
     fill-opacity="1"
     id="path46" />
  <path
     clip-path="url(#clip520)"
     d="M295.941 661.581 Q288.719 661.581 285.062 668.71 Q281.451 675.794 281.451 690.053 Q281.451 704.266 285.062 711.395 Q288.719 718.479 295.941 718.479 Q303.21 718.479 306.821 711.395 Q310.478 704.266 310.478 690.053 Q310.478 675.794 306.821 668.71 Q303.21 661.581 295.941 661.581 M295.941 654.173 Q307.562 654.173 313.673 663.386 Q319.83 672.553 319.83 690.053 Q319.83 707.506 313.673 716.719 Q307.562 725.886 295.941 725.886 Q284.321 725.886 278.164 716.719 Q272.053 707.506 272.053 690.053 Q272.053 672.553 278.164 663.386 Q284.321 654.173 295.941 654.173 Z"
     fill="#000000"
     fill-rule="nonzero"
     fill-opacity="1"
     id="path47" />
  <path
     clip-path="url(#clip520)"
     d="M336.265 712.784 L346.034 712.784 L346.034 724.543 L336.265 724.543 L336.265 712.784 Z"
     fill="#000000"
     fill-rule="nonzero"
     fill-opacity="1"
     id="path48" />
  <path
     clip-path="url(#clip520)"
     d="M386.404 661.581 Q379.182 661.581 375.524 668.71 Q371.913 675.794 371.913 690.053 Q371.913 704.266 375.524 711.395 Q379.182 718.479 386.404 718.479 Q393.672 718.479 397.283 711.395 Q400.941 704.266 400.941 690.053 Q400.941 675.794 397.283 668.71 Q393.672 661.581 386.404 661.581 M386.404 654.173 Q398.024 654.173 404.135 663.386 Q410.293 672.553 410.293 690.053 Q410.293 707.506 404.135 716.719 Q398.024 725.886 386.404 725.886 Q374.784 725.886 368.626 716.719 Q362.515 707.506 362.515 690.053 Q362.515 672.553 368.626 663.386 Q374.784 654.173 386.404 654.173 Z"
     fill="#000000"
     fill-rule="nonzero"
     fill-opacity="1"
     id="path49" />
  <path
     clip-path="url(#clip520)"
     d="M455.061 687.275 Q461.774 688.71 465.524 693.247 Q469.32 697.784 469.32 704.451 Q469.32 714.682 462.283 720.284 Q455.246 725.886 442.283 725.886 Q437.931 725.886 433.302 725.006 Q428.718 724.173 423.811 722.46 L423.811 713.432 Q427.7 715.701 432.33 716.858 Q436.959 718.016 442.005 718.016 Q450.802 718.016 455.385 714.543 Q460.015 711.071 460.015 704.451 Q460.015 698.34 455.709 694.914 Q451.45 691.442 443.811 691.442 L435.755 691.442 L435.755 683.757 L444.181 683.757 Q451.079 683.757 454.737 681.025 Q458.394 678.247 458.394 673.062 Q458.394 667.738 454.598 664.914 Q450.848 662.044 443.811 662.044 Q439.968 662.044 435.57 662.877 Q431.172 663.71 425.894 665.47 L425.894 657.136 Q431.218 655.655 435.848 654.914 Q440.524 654.173 444.644 654.173 Q455.292 654.173 461.496 659.034 Q467.7 663.849 467.7 672.09 Q467.7 677.831 464.413 681.812 Q461.126 685.747 455.061 687.275 Z"
     fill="#000000"
     fill-rule="nonzero"
     fill-opacity="1"
     id="path50" />
  <path
     clip-path="url(#clip520)"
     d="M198.303 577.676 L257.655 577.676 L257.655 585.547 L198.303 585.547 L198.303 577.676 Z"
     fill="#000000"
     fill-rule="nonzero"
     fill-opacity="1"
     id="path51" />
  <path
     clip-path="url(#clip520)"
     d="M297.84 548.371 Q290.617 548.371 286.96 555.5 Q283.349 562.584 283.349 576.843 Q283.349 591.056 286.96 598.185 Q290.617 605.269 297.84 605.269 Q305.108 605.269 308.719 598.185 Q312.376 591.056 312.376 576.843 Q312.376 562.584 308.719 555.5 Q305.108 548.371 297.84 548.371 M297.84 540.963 Q309.46 540.963 315.571 550.176 Q321.728 559.343 321.728 576.843 Q321.728 594.297 315.571 603.509 Q309.46 612.676 297.84 612.676 Q286.219 612.676 280.062 603.509 Q273.951 594.297 273.951 576.843 Q273.951 559.343 280.062 550.176 Q286.219 540.963 297.84 540.963 Z"
     fill="#000000"
     fill-rule="nonzero"
     fill-opacity="1"
     id="path52" />
  <path
     clip-path="url(#clip520)"
     d="M338.163 599.574 L347.932 599.574 L347.932 611.333 L338.163 611.333 L338.163 599.574 Z"
     fill="#000000"
     fill-rule="nonzero"
     fill-opacity="1"
     id="path53" />
  <path
     clip-path="url(#clip520)"
     d="M388.302 548.371 Q381.08 548.371 377.422 555.5 Q373.811 562.584 373.811 576.843 Q373.811 591.056 377.422 598.185 Q381.08 605.269 388.302 605.269 Q395.57 605.269 399.182 598.185 Q402.839 591.056 402.839 576.843 Q402.839 562.584 399.182 555.5 Q395.57 548.371 388.302 548.371 M388.302 540.963 Q399.922 540.963 406.033 550.176 Q412.191 559.343 412.191 576.843 Q412.191 594.297 406.033 603.509 Q399.922 612.676 388.302 612.676 Q376.682 612.676 370.524 603.509 Q364.413 594.297 364.413 576.843 Q364.413 559.343 370.524 550.176 Q376.682 540.963 388.302 540.963 Z"
     fill="#000000"
     fill-rule="nonzero"
     fill-opacity="1"
     id="path54" />
  <path
     clip-path="url(#clip520)"
     d="M436.681 603.463 L469.32 603.463 L469.32 611.333 L425.431 611.333 L425.431 603.463 Q430.755 597.954 439.922 588.695 Q449.135 579.389 451.496 576.704 Q455.987 571.658 457.746 568.186 Q459.552 564.667 459.552 561.287 Q459.552 555.778 455.663 552.306 Q451.82 548.834 445.617 548.834 Q441.218 548.834 436.311 550.362 Q431.45 551.889 425.894 554.991 L425.894 545.547 Q431.543 543.278 436.45 542.121 Q441.357 540.963 445.431 540.963 Q456.172 540.963 462.561 546.334 Q468.95 551.704 468.95 560.686 Q468.95 564.945 467.329 568.787 Q465.755 572.584 461.542 577.769 Q460.385 579.111 454.181 585.547 Q447.978 591.935 436.681 603.463 Z"
     fill="#000000"
     fill-rule="nonzero"
     fill-opacity="1"
     id="path55" />
  <path
     clip-path="url(#clip520)"
     d="M197.562 464.466 L256.914 464.466 L256.914 472.337 L197.562 472.337 L197.562 464.466 Z"
     fill="#000000"
     fill-rule="nonzero"
     fill-opacity="1"
     id="path56" />
  <path
     clip-path="url(#clip520)"
     d="M297.099 435.161 Q289.877 435.161 286.219 442.291 Q282.608 449.374 282.608 463.633 Q282.608 477.846 286.219 484.975 Q289.877 492.059 297.099 492.059 Q304.367 492.059 307.978 484.975 Q311.636 477.846 311.636 463.633 Q311.636 449.374 307.978 442.291 Q304.367 435.161 297.099 435.161 M297.099 427.754 Q308.719 427.754 314.83 436.966 Q320.988 446.133 320.988 463.633 Q320.988 481.087 314.83 490.3 Q308.719 499.466 297.099 499.466 Q285.478 499.466 279.321 490.3 Q273.21 481.087 273.21 463.633 Q273.21 446.133 279.321 436.966 Q285.478 427.754 297.099 427.754 Z"
     fill="#000000"
     fill-rule="nonzero"
     fill-opacity="1"
     id="path57" />
  <path
     clip-path="url(#clip520)"
     d="M337.423 486.364 L347.191 486.364 L347.191 498.124 L337.423 498.124 L337.423 486.364 Z"
     fill="#000000"
     fill-rule="nonzero"
     fill-opacity="1"
     id="path58" />
  <path
     clip-path="url(#clip520)"
     d="M387.561 435.161 Q380.339 435.161 376.682 442.291 Q373.071 449.374 373.071 463.633 Q373.071 477.846 376.682 484.975 Q380.339 492.059 387.561 492.059 Q394.83 492.059 398.441 484.975 Q402.098 477.846 402.098 463.633 Q402.098 449.374 398.441 442.291 Q394.83 435.161 387.561 435.161 M387.561 427.754 Q399.182 427.754 405.293 436.966 Q411.45 446.133 411.45 463.633 Q411.45 481.087 405.293 490.3 Q399.182 499.466 387.561 499.466 Q375.941 499.466 369.784 490.3 Q363.673 481.087 363.673 463.633 Q363.673 446.133 369.784 436.966 Q375.941 427.754 387.561 427.754 Z"
     fill="#000000"
     fill-rule="nonzero"
     fill-opacity="1"
     id="path59" />
  <path
     clip-path="url(#clip520)"
     d="M429.505 490.253 L444.783 490.253 L444.783 437.522 L428.163 440.855 L428.163 432.337 L444.691 429.004 L454.042 429.004 L454.042 490.253 L469.32 490.253 L469.32 498.124 L429.505 498.124 L429.505 490.253 Z"
     fill="#000000"
     fill-rule="nonzero"
     fill-opacity="1"
     id="path60" />
  <path
     clip-path="url(#clip520)"
     d="M294.645 321.951 Q287.423 321.951 283.766 329.081 Q280.154 336.164 280.154 350.423 Q280.154 364.636 283.766 371.766 Q287.423 378.849 294.645 378.849 Q301.914 378.849 305.525 371.766 Q309.182 364.636 309.182 350.423 Q309.182 336.164 305.525 329.081 Q301.914 321.951 294.645 321.951 M294.645 314.544 Q306.265 314.544 312.376 323.757 Q318.534 332.923 318.534 350.423 Q318.534 367.877 312.376 377.09 Q306.265 386.256 294.645 386.256 Q283.025 386.256 276.867 377.09 Q270.756 367.877 270.756 350.423 Q270.756 332.923 276.867 323.757 Q283.025 314.544 294.645 314.544 Z"
     fill="#000000"
     fill-rule="nonzero"
     fill-opacity="1"
     id="path61" />
  <path
     clip-path="url(#clip520)"
     d="M334.969 373.154 L344.737 373.154 L344.737 384.914 L334.969 384.914 L334.969 373.154 Z"
     fill="#000000"
     fill-rule="nonzero"
     fill-opacity="1"
     id="path62" />
  <path
     clip-path="url(#clip520)"
     d="M385.108 321.951 Q377.885 321.951 374.228 329.081 Q370.617 336.164 370.617 350.423 Q370.617 364.636 374.228 371.766 Q377.885 378.849 385.108 378.849 Q392.376 378.849 395.987 371.766 Q399.645 364.636 399.645 350.423 Q399.645 336.164 395.987 329.081 Q392.376 321.951 385.108 321.951 M385.108 314.544 Q396.728 314.544 402.839 323.757 Q408.996 332.923 408.996 350.423 Q408.996 367.877 402.839 377.09 Q396.728 386.256 385.108 386.256 Q373.487 386.256 367.33 377.09 Q361.219 367.877 361.219 350.423 Q361.219 332.923 367.33 323.757 Q373.487 314.544 385.108 314.544 Z"
     fill="#000000"
     fill-rule="nonzero"
     fill-opacity="1"
     id="path63" />
  <path
     clip-path="url(#clip520)"
     d="M445.431 321.951 Q438.209 321.951 434.552 329.081 Q430.941 336.164 430.941 350.423 Q430.941 364.636 434.552 371.766 Q438.209 378.849 445.431 378.849 Q452.7 378.849 456.311 371.766 Q459.968 364.636 459.968 350.423 Q459.968 336.164 456.311 329.081 Q452.7 321.951 445.431 321.951 M445.431 314.544 Q457.052 314.544 463.163 323.757 Q469.32 332.923 469.32 350.423 Q469.32 367.877 463.163 377.09 Q457.052 386.256 445.431 386.256 Q433.811 386.256 427.654 377.09 Q421.543 367.877 421.543 350.423 Q421.543 332.923 427.654 323.757 Q433.811 314.544 445.431 314.544 Z"
     fill="#000000"
     fill-rule="nonzero"
     fill-opacity="1"
     id="path64" />
  <path
     clip-path="url(#clip520)"
     d="M297.099 208.741 Q289.877 208.741 286.219 215.871 Q282.608 222.954 282.608 237.213 Q282.608 251.426 286.219 258.556 Q289.877 265.639 297.099 265.639 Q304.367 265.639 307.978 258.556 Q311.636 251.426 311.636 237.213 Q311.636 222.954 307.978 215.871 Q304.367 208.741 297.099 208.741 M297.099 201.334 Q308.719 201.334 314.83 210.547 Q320.988 219.713 320.988 237.213 Q320.988 254.667 314.83 263.88 Q308.719 273.046 297.099 273.046 Q285.478 273.046 279.321 263.88 Q273.21 254.667 273.21 237.213 Q273.21 219.713 279.321 210.547 Q285.478 201.334 297.099 201.334 Z"
     fill="#000000"
     fill-rule="nonzero"
     fill-opacity="1"
     id="path65" />
  <path
     clip-path="url(#clip520)"
     d="M337.423 259.945 L347.191 259.945 L347.191 271.704 L337.423 271.704 L337.423 259.945 Z"
     fill="#000000"
     fill-rule="nonzero"
     fill-opacity="1"
     id="path66" />
  <path
     clip-path="url(#clip520)"
     d="M387.561 208.741 Q380.339 208.741 376.682 215.871 Q373.071 222.954 373.071 237.213 Q373.071 251.426 376.682 258.556 Q380.339 265.639 387.561 265.639 Q394.83 265.639 398.441 258.556 Q402.098 251.426 402.098 237.213 Q402.098 222.954 398.441 215.871 Q394.83 208.741 387.561 208.741 M387.561 201.334 Q399.182 201.334 405.293 210.547 Q411.45 219.713 411.45 237.213 Q411.45 254.667 405.293 263.88 Q399.182 273.046 387.561 273.046 Q375.941 273.046 369.784 263.88 Q363.673 254.667 363.673 237.213 Q363.673 219.713 369.784 210.547 Q375.941 201.334 387.561 201.334 Z"
     fill="#000000"
     fill-rule="nonzero"
     fill-opacity="1"
     id="path67" />
  <path
     clip-path="url(#clip520)"
     d="M429.505 263.833 L444.783 263.833 L444.783 211.102 L428.163 214.436 L428.163 205.917 L444.691 202.584 L454.042 202.584 L454.042 263.833 L469.32 263.833 L469.32 271.704 L429.505 271.704 L429.505 263.833 Z"
     fill="#000000"
     fill-rule="nonzero"
     fill-opacity="1"
     id="path68" />
  <path
     clip-path="url(#clip520)"
     d="M297.84 95.5312 Q290.617 95.5312 286.96 102.661 Q283.349 109.744 283.349 124.003 Q283.349 138.216 286.96 145.346 Q290.617 152.429 297.84 152.429 Q305.108 152.429 308.719 145.346 Q312.376 138.216 312.376 124.003 Q312.376 109.744 308.719 102.661 Q305.108 95.5312 297.84 95.5312 M297.84 88.1238 Q309.46 88.1238 315.571 97.3368 Q321.728 106.503 321.728 124.003 Q321.728 141.457 315.571 150.67 Q309.46 159.836 297.84 159.836 Q286.219 159.836 280.062 150.67 Q273.951 141.457 273.951 124.003 Q273.951 106.503 280.062 97.3368 Q286.219 88.1238 297.84 88.1238 Z"
     fill="#000000"
     fill-rule="nonzero"
     fill-opacity="1"
     id="path69" />
  <path
     clip-path="url(#clip520)"
     d="M338.163 146.735 L347.932 146.735 L347.932 158.494 L338.163 158.494 L338.163 146.735 Z"
     fill="#000000"
     fill-rule="nonzero"
     fill-opacity="1"
     id="path70" />
  <path
     clip-path="url(#clip520)"
     d="M388.302 95.5312 Q381.08 95.5312 377.422 102.661 Q373.811 109.744 373.811 124.003 Q373.811 138.216 377.422 145.346 Q381.08 152.429 388.302 152.429 Q395.57 152.429 399.182 145.346 Q402.839 138.216 402.839 124.003 Q402.839 109.744 399.182 102.661 Q395.57 95.5312 388.302 95.5312 M388.302 88.1238 Q399.922 88.1238 406.033 97.3368 Q412.191 106.503 412.191 124.003 Q412.191 141.457 406.033 150.67 Q399.922 159.836 388.302 159.836 Q376.682 159.836 370.524 150.67 Q364.413 141.457 364.413 124.003 Q364.413 106.503 370.524 97.3368 Q376.682 88.1238 388.302 88.1238 Z"
     fill="#000000"
     fill-rule="nonzero"
     fill-opacity="1"
     id="path71" />
  <path
     clip-path="url(#clip520)"
     d="M436.681 150.624 L469.32 150.624 L469.32 158.494 L425.431 158.494 L425.431 150.624 Q430.755 145.114 439.922 135.855 Q449.135 126.55 451.496 123.864 Q455.987 118.818 457.746 115.346 Q459.552 111.827 459.552 108.448 Q459.552 102.939 455.663 99.4664 Q451.82 95.9942 445.617 95.9942 Q441.218 95.9942 436.311 97.5219 Q431.45 99.0497 425.894 102.152 L425.894 92.7072 Q431.543 90.4386 436.45 89.2812 Q441.357 88.1238 445.431 88.1238 Q456.172 88.1238 462.561 93.4942 Q468.95 98.8645 468.95 107.846 Q468.95 112.105 467.329 115.948 Q465.755 119.744 461.542 124.929 Q460.385 126.272 454.181 132.707 Q447.978 139.096 436.681 150.624 Z"
     fill="#000000"
     fill-rule="nonzero"
     fill-opacity="1"
     id="path72" />
  <path
     clip-path="url(#clip520)"
     d="M21.0484 748.315 L21.0484 734.148 L86.1001 699.669 L21.0484 699.669 L21.0484 689.461 L98.8084 689.461 L98.8084 703.628 L33.7566 738.107 L98.8084 738.107 L98.8084 748.315 L21.0484 748.315 Z"
     fill="#000000"
     fill-rule="nonzero"
     fill-opacity="1"
     id="path73" />
  <path
     clip-path="url(#clip520)"
     d="M28.1838 636.961 Q28.1838 648.42 36.7254 655.191 Q45.267 661.909 60.0065 661.909 Q74.6939 661.909 83.2355 655.191 Q91.7772 648.42 91.7772 636.961 Q91.7772 625.503 83.2355 618.837 Q74.6939 612.118 60.0065 612.118 Q45.267 612.118 36.7254 618.837 Q28.1838 625.503 28.1838 636.961 M19.6421 636.961 Q19.6421 620.607 30.6317 610.816 Q41.5691 601.024 60.0065 601.024 Q78.3918 601.024 89.3813 610.816 Q100.319 620.607 100.319 636.961 Q100.319 653.368 89.3813 663.211 Q78.4439 673.003 60.0065 673.003 Q41.5691 673.003 30.6317 663.211 Q19.6421 653.368 19.6421 636.961 Z"
     fill="#000000"
     fill-rule="nonzero"
     fill-opacity="1"
     id="path74" />
  <path
     clip-path="url(#clip520)"
     d="M89.9543 574.566 L89.9543 537.847 L98.8084 537.847 L98.8084 587.222 L89.9543 587.222 Q83.7564 581.233 73.3398 570.92 Q62.8711 560.556 59.8503 557.899 Q54.1732 552.847 50.267 550.868 Q46.3087 548.837 42.5066 548.837 Q36.3087 548.837 32.4025 553.212 Q28.4963 557.535 28.4963 564.514 Q28.4963 569.462 30.215 574.983 Q31.9337 580.451 35.4233 586.701 L24.7984 586.701 Q22.2463 580.347 20.9442 574.826 Q19.6421 569.306 19.6421 564.722 Q19.6421 552.639 25.6838 545.452 Q31.7254 538.264 41.8295 538.264 Q46.6212 538.264 50.9441 540.087 Q55.2149 541.858 61.0482 546.597 Q62.5586 547.899 69.7981 554.879 Q76.9856 561.858 89.9543 574.566 Z"
     fill="#000000"
     fill-rule="nonzero"
     fill-opacity="1"
     id="path75" />
  <path
     clip-path="url(#clip520)"
     d="M17.8713 460.192 Q29.8504 467.171 41.5691 470.556 Q53.2878 473.941 65.319 473.941 Q77.3502 473.941 89.173 470.556 Q100.944 467.119 112.871 460.192 L112.871 468.525 Q100.631 476.337 88.8084 480.244 Q76.9856 484.098 65.319 484.098 Q53.7045 484.098 41.9337 480.244 Q30.1629 476.389 17.8713 468.525 L17.8713 460.192 Z"
     fill="#000000"
     fill-rule="nonzero"
     fill-opacity="1"
     id="path76" />
  <path
     clip-path="url(#clip520)"
     d="M90.0584 432.327 L120.996 432.327 L120.996 441.962 L40.4754 441.962 L40.4754 432.327 L49.3295 432.327 Q44.1212 429.306 41.6212 424.723 Q39.0691 420.088 39.0691 413.681 Q39.0691 403.056 47.5066 396.442 Q55.944 389.775 69.694 389.775 Q83.4439 389.775 91.8813 396.442 Q100.319 403.056 100.319 413.681 Q100.319 420.088 97.8188 424.723 Q95.2667 429.306 90.0584 432.327 M69.694 399.723 Q59.1211 399.723 53.1315 404.098 Q47.0899 408.421 47.0899 416.025 Q47.0899 423.629 53.1315 428.004 Q59.1211 432.327 69.694 432.327 Q80.2668 432.327 86.3084 428.004 Q92.298 423.629 92.298 416.025 Q92.298 408.421 86.3084 404.098 Q80.2668 399.723 69.694 399.723 Z"
     fill="#000000"
     fill-rule="nonzero"
     fill-opacity="1"
     id="path77" />
  <path
     clip-path="url(#clip520)"
     d="M90.0584 364.619 L120.996 364.619 L120.996 374.255 L40.4754 374.255 L40.4754 364.619 L49.3295 364.619 Q44.1212 361.598 41.6212 357.015 Q39.0691 352.38 39.0691 345.973 Q39.0691 335.348 47.5066 328.734 Q55.944 322.067 69.694 322.067 Q83.4439 322.067 91.8813 328.734 Q100.319 335.348 100.319 345.973 Q100.319 352.38 97.8188 357.015 Q95.2667 361.598 90.0584 364.619 M69.694 332.015 Q59.1211 332.015 53.1315 336.39 Q47.0899 340.713 47.0899 348.317 Q47.0899 355.921 53.1315 360.296 Q59.1211 364.619 69.694 364.619 Q80.2668 364.619 86.3084 360.296 Q92.298 355.921 92.298 348.317 Q92.298 340.713 86.3084 336.39 Q80.2668 332.015 69.694 332.015 Z"
     fill="#000000"
     fill-rule="nonzero"
     fill-opacity="1"
     id="path78" />
  <path
     clip-path="url(#clip520)"
     d="M51.6732 260.766 Q45.2149 257.172 42.142 252.172 Q39.0691 247.172 39.0691 240.401 Q39.0691 231.287 45.4753 226.339 Q51.8295 221.391 63.6002 221.391 L98.8084 221.391 L98.8084 231.026 L63.9127 231.026 Q55.5274 231.026 51.4649 233.995 Q47.4024 236.964 47.4024 243.057 Q47.4024 250.505 52.3503 254.828 Q57.2982 259.151 65.8398 259.151 L98.8084 259.151 L98.8084 268.786 L63.9127 268.786 Q55.4753 268.786 51.4649 271.755 Q47.4024 274.724 47.4024 280.922 Q47.4024 288.265 52.4024 292.588 Q57.3503 296.911 65.8398 296.911 L98.8084 296.911 L98.8084 306.547 L40.4754 306.547 L40.4754 296.911 L49.5378 296.911 Q44.1733 293.63 41.6212 289.047 Q39.0691 284.463 39.0691 278.161 Q39.0691 271.807 42.2983 267.38 Q45.5274 262.901 51.6732 260.766 Z"
     fill="#000000"
     fill-rule="nonzero"
     fill-opacity="1"
     id="path79" />
  <path
     clip-path="url(#clip520)"
     d="M17.8713 203.787 L17.8713 195.453 Q30.1629 187.641 41.9337 183.787 Q53.7045 179.881 65.319 179.881 Q76.9856 179.881 88.8084 183.787 Q100.631 187.641 112.871 195.453 L112.871 203.787 Q100.944 196.86 89.173 193.474 Q77.3502 190.037 65.319 190.037 Q53.2878 190.037 41.5691 193.474 Q29.8504 196.86 17.8713 203.787 Z"
     fill="#000000"
     fill-rule="nonzero"
     fill-opacity="1"
     id="path80" />
  <path
     clip-path="url(#clip522)"
     d="M660.512 549.972 L678.991 540.337 L697.47 620.628 L715.95 658.048 L734.429 603.953 L752.908 620.248 L771.388 624.463 L789.867 764.126 L808.346 671.788 L826.826 678.969 L845.305 685.472 L863.784 680.834 L882.263 661.604 L900.743 709.455 L919.222 766.013 L937.701 723.725 L956.181 777.698 L974.66 738.6 L993.139 640.915 L1011.62 707.844 L1030.1 728.987 L1048.58 604.317 L1067.06 791.459 L1085.54 584.249 L1104.02 681.844 L1122.49 831.371 L1140.97 702.939 L1159.45 736.881 L1177.93 695.591 L1196.41 671.566 L1214.89 724.252 L1233.37 708.022 L1251.85 628.709 L1270.33 785.385 L1288.81 683.406 L1307.29 714.163 L1325.77 663.913 L1344.25 724.861 L1362.73 772.607 L1381.2 723.165 L1399.68 710.727 L1418.16 719.391 L1436.64 610.274 L1455.12 711.894 L1473.6 715.004 L1492.08 634.399 L1510.56 765.892 L1529.04 578.538 L1547.52 670.296 L1566 857.356 L1584.48 666.057 L1602.96 764.602 L1621.44 687.143 L1639.92 658.286 L1658.39 717.787 L1676.87 713.562 L1695.35 666.539 L1713.83 763.033 L1732.31 652.723 L1750.79 690.85 L1769.27 657.617 L1787.75 720.425 L1806.23 771.755 L1824.71 721.233 L1843.19 745.673 L1861.67 749.323 L1880.15 613.723 L1898.63 712.404 L1917.11 719.617 L1935.58 625.925 L1954.06 772.784 L1972.54 578.531 L1991.02 674.949 L2009.5 856.851 L2027.98 672.532 L2046.46 766.37 L2064.94 690.276 L2083.42 665.272 L2101.9 715.402 L2120.38 708.337 L2138.86 643.569 L2157.34 763.876 L2175.82 652.254 L2194.29 699.668 L2212.77 657.519 L2231.25 721.183 L2249.73 772.129 L2268.21 721.887 L2286.69 732.705 L2305.17 737.288 L2323.65 608.997 L2342.13 712.088 L2360.61 715.453 L2379.09 629.489 L2397.57 772.073 L2416.05 578.489 L2434.53 673.504 L2453.01 856.618 L2471.48 664.384 L2489.96 766.061 L2508.44 688.659 L2526.92 662.525 L2545.4 715.667 L2563.88 708.311 L2582.36 661.756 L2600.84 764.835 L2619.32 653.026 L2637.8 696.772 L2656.28 657.527 L2674.76 721.886 L2693.24 772.338 L2711.72 722.265 L2730.19 738.45 L2748.67 743.163 L2767.15 608.914 L2785.63 711.778 L2804.11 718.269 L2822.59 627.899 L2841.07 772.447 L2859.55 578.516 L2878.03 673.997 L2896.51 856.753 L2914.99 667.842 L2933.47 765.825 L2951.95 690.117 L2970.43 664.051 L2988.91 714.9 L3007.38 707.875 L3025.86 650.13 L3044.34 763.468 L3062.82 652.28 L3081.3 699.11 L3099.78 657.504 L3118.26 721.773 L3136.74 771.774 L3155.22 721.521 L3173.7 735.276 L3192.18 740.989 L3210.66 608.768 L3229.14 712.165 L3247.62 719.493 L3266.1 628.363 L3284.57 772.372 L3303.05 578.492 L3321.53 673.167 L3340.01 856.828 L3358.49 666.271 L3376.97 766.261 L3395.45 688.802 L3413.93 663.537 L3432.41 717.069 L3450.89 711.376 L3469.37 658.856 L3487.85 764.154 L3506.33 654.23 L3524.81 697.964 L3543.28 657.492 L3561.76 721.727 L3580.24 772.069 L3598.72 722.487 L3617.2 736.618 L3635.68 741.929 L3654.16 612.54 L3672.64 711.898 L3691.12 720.186 L3709.6 628.422 L3728.08 772.372 L3746.56 578.532 L3765.04 673.774 L3783.52 856.903 L3802 664.362 L3820.47 765.812 L3838.95 690.069 L3857.43 662.774 L3875.91 718.415 L3894.39 710.549 L3912.87 652.104 L3931.35 764.454 L3949.83 652.308 L3968.31 698.563 L3986.79 657.475 L4005.27 721.68 L4023.75 772.581 L4042.23 723.092 L4060.71 736.421 L4079.18 741.844 L4097.66 610.569 L4116.14 712.543 L4134.62 718.187 L4153.1 628.18 L4171.58 772.403 L4190.06 578.495 L4208.54 674.07 L4227.02 856.884 L4245.5 665.463 L4263.98 765.824 L4282.46 688.707 L4300.94 664.259 L4319.42 713.278 L4337.9 711.541 L4356.37 657.34 L4374.85 763.59 L4393.33 654.59 L4411.81 698.152 L4430.29 657.555 L4448.77 721.745 L4467.25 771.769 L4485.73 721.755 L4504.21 736.109 L4522.69 741.525 L4541.17 608.798 L4559.65 712.24 L4578.13 718.709 L4596.61 628.566 L4615.09 772.414 L4633.56 578.533 L4633.56 104.417 L4615.09 89.212 L4596.61 76.7409 L4578.13 70.8748 L4559.65 73.4133 L4541.17 83.9791 L4522.69 77.6558 L4504.21 77.3613 L4485.73 71.6784 L4467.25 76.7316 L4448.77 89.646 L4430.29 100.766 L4411.81 92.1685 L4393.33 90.8311 L4374.85 94.8429 L4356.37 84.9772 L4337.9 122.307 L4319.42 120.247 L4300.94 129.117 L4282.46 137.169 L4263.98 129.475 L4245.5 130.563 L4227.02 137.785 L4208.54 140.204 L4190.06 104.505 L4171.58 89.1402 L4153.1 76.7492 L4134.62 70.8522 L4116.14 73.3517 L4097.66 83.8674 L4079.18 77.6444 L4060.71 77.3695 L4042.23 71.6742 L4023.75 76.7079 L4005.27 89.5622 L3986.79 100.674 L3968.31 92.2558 L3949.83 90.8233 L3931.35 94.7027 L3912.87 85.8404 L3894.39 122.253 L3875.91 120.286 L3857.43 129.176 L3838.95 137.196 L3820.47 129.227 L3802 130.588 L3783.52 137.767 L3765.04 140.186 L3746.56 104.287 L3728.08 89.2026 L3709.6 76.7104 L3691.12 70.8396 L3672.64 73.3724 L3654.16 83.9455 L3635.68 77.6583 L3617.2 77.4055 L3598.72 71.6496 L3580.24 76.6811 L3561.76 89.5591 L3543.28 100.666 L3524.81 92.1689 L3506.33 90.7112 L3487.85 94.5975 L3469.37 85.5978 L3450.89 122.281 L3432.41 120.31 L3413.93 129.194 L3395.45 137.202 L3376.97 128.95 L3358.49 130.563 L3340.01 137.757 L3321.53 140.193 L3303.05 104.454 L3284.57 89.1685 L3266.1 76.7699 L3247.62 70.8579 L3229.14 73.291 L3210.66 83.8033 L3192.18 77.6421 L3173.7 77.3384 L3155.22 71.6783 L3136.74 76.7369 L3118.26 89.6381 L3099.78 100.677 L3081.3 92.255 L3062.82 90.9149 L3044.34 94.8225 L3025.86 85.1835 L3007.38 122.212 L2988.91 120.289 L2970.43 129.219 L2951.95 137.168 L2933.47 129.3 L2914.99 130.587 L2896.51 137.772 L2878.03 140.214 L2859.55 103.967 L2841.07 89.0657 L2822.59 76.6982 L2804.11 70.859 L2785.63 73.4265 L2767.15 84.0389 L2748.67 77.6541 L2730.19 77.3653 L2711.72 71.6499 L2693.24 76.7173 L2674.76 89.6561 L2656.28 100.724 L2637.8 92.1482 L2619.32 90.7523 L2600.84 94.7849 L2582.36 85.4033 L2563.88 122.319 L2545.4 120.285 L2526.92 129.121 L2508.44 137.195 L2489.96 128.546 L2471.48 130.558 L2453.01 137.736 L2434.53 139.951 L2416.05 104.282 L2397.57 89.1352 L2379.09 76.7431 L2360.61 70.847 L2342.13 73.386 L2323.65 83.9669 L2305.17 77.5949 L2286.69 77.3159 L2268.21 71.7026 L2249.73 76.7574 L2231.25 89.5401 L2212.77 100.657 L2194.29 92.295 L2175.82 90.9468 L2157.34 94.6757 L2138.86 85.2921 L2120.38 122.182 L2101.9 120.215 L2083.42 129.141 L2064.94 137.2 L2046.46 129.006 L2027.98 130.618 L2009.5 137.796 L1991.02 140.753 L1972.54 104.869 L1954.06 88.9826 L1935.58 76.6037 L1917.11 70.8984 L1898.63 73.4744 L1880.15 84.0952 L1861.67 77.6366 L1843.19 77.4104 L1824.71 71.6797 L1806.23 76.673 L1787.75 89.6681 L1769.27 100.742 L1750.79 92.0655 L1732.31 90.5913 L1713.83 94.7948 L1695.35 85.8616 L1676.87 122.293 L1658.39 120.343 L1639.92 129.313 L1621.44 137.373 L1602.96 129.525 L1584.48 130.346 L1566 137.48 L1547.52 138.963 L1529.04 105.157 L1510.56 88.9993 L1492.08 76.6369 L1473.6 70.8571 L1455.12 73.6462 L1436.64 84.4768 L1418.16 77.7091 L1399.68 77.2108 L1381.2 71.7954 L1362.73 77.0615 L1344.25 89.903 L1325.77 100.482 L1307.29 92.4467 L1288.81 91.5196 L1270.33 94.7143 L1251.85 86.5524 L1233.37 121.915 L1214.89 120.209 L1196.41 129.057 L1177.93 139.208 L1159.45 132.221 L1140.97 131.126 L1122.49 138.804 L1104.02 143.535 L1085.54 96.4736 L1067.06 81.4444 L1048.58 73.9125 L1030.1 75.9322 L1011.62 85.9947 L993.139 84.5464 L974.66 79.9035 L956.181 75.3426 L937.701 77.9983 L919.222 90.5496 L900.743 108.798 L882.263 101.584 L863.784 92.8858 L845.305 92.6304 L826.826 98.1901 L808.346 111.123 L789.867 119.738 L771.388 118.185 L752.908 128.84 L734.429 131.939 L715.95 141.639 L697.47 152.605 L678.991 150.493 L660.512 132.695  Z"
     fill="#b0b0b0"
     fill-rule="evenodd"
     fill-opacity="0.5"
     id="path81" />
  <polyline
     clip-path="url(#clip522)"
     style="stroke:#b0b0b0; stroke-linecap:round; stroke-linejoin:round; stroke-width:0; stroke-opacity:1; fill:none"
     points="660.512,349.419 678.991,333.847 697.47,333.671 715.95,334.845 734.429,335.078 752.908,335.721 771.388,337.259 789.867,339.446 808.346,340.002 826.826,340.588 845.305,342.093 863.784,344.689 882.263,345.785 900.743,346.872 919.222,346.698 937.701,345.166 956.181,343.631 974.66,342.803 993.139,343.9 1011.62,345.91 1030.1,346.185 1048.58,345.173 1067.06,344.622 1085.54,342.206 1104.02,341.121 1122.49,340.269 1140.97,339.104 1159.45,339.158 1177.93,339.381 1196.41,339.464 1214.89,340.337 1233.37,340.032 1251.85,338.166 1270.33,341.011 1288.81,342.995 1307.29,344.447 1325.77,344.001 1344.25,344.762 1362.73,345.628 1381.2,344.443 1399.68,343.186 1418.16,343.033 1436.64,344.406 1455.12,345.896 1473.6,345.938 1492.08,345.172 1510.56,344.618 1529.04,342.42 1547.52,341.161 1566,340.6 1584.48,339.285 1602.96,338.894 1621.44,339.189 1639.92,339.446 1658.39,340.388 1676.87,340.522 1695.35,338.639 1713.83,340.811 1732.31,341.926 1750.79,344.073 1769.27,344.235 1787.75,344.909 1806.23,345.475 1824.71,344.366 1843.19,343.24 1861.67,342.963 1880.15,344.125 1898.63,345.767 1917.11,345.981 1935.58,345.095 1954.06,344.548 1972.54,342.396 1991.02,341.202 2009.5,340.617 2027.98,339.381 2046.46,338.907 2064.94,339.239 2083.42,339.431 2101.9,340.299 2120.38,340.333 2138.86,338.474 2157.34,340.901 2175.82,342.373 2194.29,344.302 2212.77,344.135 2231.25,344.771 2249.73,345.553 2268.21,344.386 2286.69,343.148 2305.17,342.929 2323.65,344.187 2342.13,345.789 2360.61,345.935 2379.09,345.154 2397.57,344.595 2416.05,342.365 2434.53,341.14 2453.01,340.578 2471.48,339.338 2489.96,338.91 2508.44,339.222 2526.92,339.473 2545.4,340.392 2563.88,340.437 2582.36,338.559 2600.84,340.844 2619.32,342.102 2637.8,344.163 2656.28,344.187 2674.76,344.843 2693.24,345.487 2711.72,344.325 2730.19,343.215 2748.67,342.979 2767.15,344.168 2785.63,345.792 2804.11,345.97 2822.59,345.111 2841.07,344.545 2859.55,342.362 2878.03,341.183 2896.51,340.619 2914.99,339.369 2933.47,338.894 2951.95,339.217 2970.43,339.459 2988.91,340.358 3007.38,340.386 3025.86,338.505 3044.34,340.864 3062.82,342.25 3081.3,344.26 3099.78,344.176 3118.26,344.794 3136.74,345.491 3155.22,344.35 3173.7,343.199 3192.18,342.966 3210.66,344.168 3229.14,345.785 3247.62,345.958 3266.1,345.109 3284.57,344.548 3303.05,342.361 3321.53,341.173 3340.01,340.599 3358.49,339.34 3376.97,338.917 3395.45,339.236 3413.93,339.488 3432.41,340.396 3450.89,340.429 3469.37,338.546 3487.85,340.845 3506.33,342.158 3524.81,344.175 3543.28,344.143 3561.76,344.812 3580.24,345.494 3598.72,344.338 3617.2,343.231 3635.68,342.991 3654.16,344.188 3672.64,345.789 3691.12,345.951 3709.6,345.09 3728.08,344.532 3746.56,342.369 3765.04,341.18 3783.52,340.602 3802,339.359 3820.47,338.925 3838.95,339.227 3857.43,339.462 3875.91,340.368 3894.39,340.403 3912.87,338.524 3931.35,340.863 3949.83,342.218 3968.31,344.257 3986.79,344.174 4005.27,344.796 4023.75,345.504 4042.23,344.357 4060.71,343.201 4079.18,342.968 4097.66,344.178 4116.14,345.781 4134.62,345.95 4153.1,345.123 4171.58,344.567 4190.06,342.372 4208.54,341.18 4227.02,340.61 4245.5,339.35 4263.98,338.906 4282.46,339.207 4300.94,339.456 4319.42,340.347 4337.9,340.431 4356.37,338.57 4374.85,340.882 4393.33,342.167 4411.81,344.197 4430.29,344.178 4448.77,344.835 4467.25,345.501 4485.73,344.354 4504.21,343.209 4522.69,342.982 4541.17,344.189 4559.65,345.811 4578.13,345.985 4596.61,345.134 4615.09,344.576 4633.56,342.369 "
     id="polyline81" />
  <path
     clip-path="url(#clip522)"
     d="M660.512 501.37 L678.991 486.314 L697.47 496.937 L715.95 494.812 L734.429 498.465 L752.908 509.05 L771.388 518.036 L789.867 538.218 L808.346 546.727 L826.826 546.672 L845.305 548.002 L863.784 561.409 L882.263 554.278 L900.743 567.694 L919.222 567.889 L937.701 564.348 L956.181 557.824 L974.66 543.651 L993.139 527.951 L1011.62 523.715 L1030.1 520.392 L1048.58 508.026 L1067.06 512.253 L1085.54 517.939 L1104.02 517.264 L1122.49 520.445 L1140.97 524.348 L1159.45 504.776 L1177.93 506.467 L1196.41 516.202 L1214.89 533.687 L1233.37 546.469 L1251.85 543.125 L1270.33 549.015 L1288.81 551.471 L1307.29 561.223 L1325.77 551.637 L1344.25 565.964 L1362.73 563.898 L1381.2 563.694 L1399.68 556.353 L1418.16 542.258 L1436.64 528.656 L1455.12 523.039 L1473.6 520.669 L1492.08 509.212 L1510.56 513.181 L1529.04 517.653 L1547.52 514.686 L1566 521.027 L1584.48 520.947 L1602.96 504.611 L1621.44 506.39 L1639.92 517.278 L1658.39 529.448 L1676.87 548.078 L1695.35 544.67 L1713.83 549.699 L1732.31 550.428 L1750.79 564.733 L1769.27 550.753 L1787.75 566.07 L1806.23 562.822 L1824.71 563.652 L1843.19 556.363 L1861.67 542.388 L1880.15 530.22 L1898.63 524.501 L1917.11 520.552 L1935.58 509.913 L1954.06 513.185 L1972.54 517.542 L1991.02 515.337 L2009.5 521.072 L2027.98 522.156 L2046.46 504.646 L2064.94 507.591 L2083.42 517.304 L2101.9 531.7 L2120.38 546.997 L2138.86 544.597 L2157.34 549.548 L2175.82 550.896 L2194.29 564.148 L2212.77 551.701 L2231.25 565.91 L2249.73 564.488 L2268.21 563.657 L2286.69 556.24 L2305.17 542.277 L2323.65 530.294 L2342.13 524.574 L2360.61 520.565 L2379.09 509.498 L2397.57 513.203 L2416.05 517.524 L2434.53 513.741 L2453.01 520.966 L2471.48 521.153 L2489.96 504.621 L2508.44 507.786 L2526.92 517.356 L2545.4 531.426 L2563.88 547.185 L2582.36 544.173 L2600.84 549.67 L2619.32 550.648 L2637.8 563.999 L2656.28 551.859 L2674.76 566.057 L2693.24 562.796 L2711.72 563.787 L2730.19 556.409 L2748.67 542.39 L2767.15 530.273 L2785.63 524.614 L2804.11 520.58 L2822.59 510.287 L2841.07 513.134 L2859.55 517.535 L2878.03 514.635 L2896.51 520.979 L2914.99 521.511 L2933.47 504.512 L2951.95 507.841 L2970.43 517.294 L2988.91 530.588 L3007.38 547.137 L3025.86 544.172 L3044.34 549.72 L3062.82 550.757 L3081.3 564.132 L3099.78 551.844 L3118.26 566.028 L3136.74 564.419 L3155.22 563.752 L3173.7 556.364 L3192.18 542.368 L3210.66 530.276 L3229.14 524.536 L3247.62 520.636 L3266.1 509.695 L3284.57 513.113 L3303.05 517.635 L3321.53 514.129 L3340.01 520.956 L3358.49 521.343 L3376.97 504.593 L3395.45 507.766 L3413.93 517.351 L3432.41 533.586 L3450.89 547.21 L3469.37 544.132 L3487.85 549.548 L3506.33 550.649 L3524.81 563.954 L3543.28 551.788 L3561.76 566.049 L3580.24 562.861 L3598.72 563.717 L3617.2 556.384 L3635.68 542.384 L3654.16 530.301 L3672.64 524.574 L3691.12 520.624 L3709.6 510.313 L3728.08 513.122 L3746.56 517.643 L3765.04 514.413 L3783.52 521.048 L3802 521.395 L3820.47 504.596 L3838.95 507.87 L3857.43 517.335 L3875.91 531.635 L3894.39 547.226 L3912.87 544.179 L3931.35 549.638 L3949.83 550.746 L3968.31 564.074 L3986.79 551.842 L4005.27 566.003 L4023.75 564.405 L4042.23 563.736 L4060.71 556.386 L4079.18 542.369 L4097.66 530.291 L4116.14 524.6 L4134.62 520.489 L4153.1 509.972 L4171.58 513.13 L4190.06 517.632 L4208.54 514.283 L4227.02 521.019 L4245.5 521.454 L4263.98 504.556 L4282.46 507.777 L4300.94 517.32 L4319.42 530.835 L4337.9 547.111 L4356.37 544.135 L4374.85 549.686 L4393.33 550.645 L4411.81 564.049 L4430.29 551.811 L4448.77 566.056 L4467.25 562.828 L4485.73 563.714 L4504.21 556.361 L4522.69 542.365 L4541.17 530.312 L4559.65 524.607 L4578.13 520.714 L4596.61 510.273 L4615.09 513.14 L4633.56 517.55 L4633.56 203.214 L4615.09 196.878 L4596.61 194.099 L4578.13 193.209 L4559.65 185.601 L4541.17 179.797 L4522.69 175.566 L4504.21 163.414 L4485.73 172.308 L4467.25 171.624 L4448.77 168.709 L4430.29 175.458 L4411.81 168.849 L4393.33 169.819 L4374.85 171.404 L4356.37 173.675 L4337.9 183.931 L4319.42 177.201 L4300.94 183.455 L4282.46 191.107 L4263.98 191.584 L4245.5 195.375 L4227.02 199.101 L4208.54 198.668 L4190.06 203.853 L4171.58 196.885 L4153.1 194.097 L4134.62 192.768 L4116.14 185.503 L4097.66 179.286 L4079.18 175.361 L4060.71 163.083 L4042.23 172.324 L4023.75 171.575 L4005.27 168.874 L3986.79 175.347 L3968.31 168.926 L3949.83 169.844 L3931.35 171.104 L3912.87 173.527 L3894.39 184.026 L3875.91 177.292 L3857.43 183.713 L3838.95 191.143 L3820.47 191.554 L3802 195.498 L3783.52 198.997 L3765.04 198.918 L3746.56 202.905 L3728.08 196.89 L3709.6 194.299 L3691.12 192.908 L3672.64 185.028 L3654.16 178.977 L3635.68 175.379 L3617.2 163.491 L3598.72 172.291 L3580.24 171.561 L3561.76 168.952 L3543.28 175.411 L3524.81 168.822 L3506.33 170.446 L3487.85 171.281 L3469.37 173.653 L3450.89 183.989 L3432.41 177.27 L3413.93 183.471 L3395.45 191.155 L3376.97 191.648 L3358.49 195.416 L3340.01 199.038 L3321.53 198.8 L3303.05 205.114 L3284.57 196.981 L3266.1 194.009 L3247.62 193.099 L3229.14 185.791 L3210.66 179.09 L3192.18 175.409 L3173.7 163.379 L3155.22 172.241 L3136.74 171.45 L3118.26 168.98 L3099.78 175.42 L3081.3 168.923 L3062.82 170.219 L3044.34 171.004 L3025.86 173.584 L3007.38 183.875 L2988.91 177.281 L2970.43 183.638 L2951.95 191.139 L2933.47 191.619 L2914.99 195.459 L2896.51 199.061 L2878.03 198.685 L2859.55 202.232 L2841.07 196.866 L2822.59 193.853 L2804.11 192.332 L2785.63 185.689 L2767.15 179.541 L2748.67 175.525 L2730.19 163.522 L2711.72 172.278 L2693.24 171.712 L2674.76 168.993 L2656.28 175.445 L2637.8 168.823 L2619.32 169.798 L2600.84 170.887 L2582.36 173.574 L2563.88 183.959 L2545.4 177.267 L2526.92 183.621 L2508.44 191.141 L2489.96 191.546 L2471.48 195.425 L2453.01 198.999 L2434.53 198.719 L2416.05 205.924 L2397.57 196.944 L2379.09 194.328 L2360.61 192.64 L2342.13 185.667 L2323.65 179.685 L2305.17 175.556 L2286.69 163.517 L2268.21 172.352 L2249.73 171.722 L2231.25 168.762 L2212.77 175.436 L2194.29 168.888 L2175.82 170.181 L2157.34 170.993 L2138.86 173.333 L2120.38 183.885 L2101.9 177.205 L2083.42 183.673 L2064.94 191.131 L2046.46 191.536 L2027.98 195.495 L2009.5 199.057 L1991.02 200.009 L1972.54 202.25 L1954.06 196.883 L1935.58 194.252 L1917.11 193.623 L1898.63 185.34 L1880.15 179.147 L1861.67 175.546 L1843.19 163.635 L1824.71 172.354 L1806.23 171.868 L1787.75 169.864 L1769.27 175.524 L1750.79 168.694 L1732.31 169.611 L1713.83 171.787 L1695.35 173.611 L1676.87 184.04 L1658.39 177.281 L1639.92 183.648 L1621.44 191.109 L1602.96 191.643 L1584.48 195.414 L1566 198.731 L1547.52 198.858 L1529.04 205.985 L1510.56 196.727 L1492.08 194.256 L1473.6 192.682 L1455.12 185.777 L1436.64 179.29 L1418.16 175.164 L1399.68 163.836 L1381.2 172.595 L1362.73 172.131 L1344.25 168.866 L1325.77 175.168 L1307.29 169.247 L1288.81 171.143 L1270.33 171.794 L1251.85 173.695 L1233.37 183.86 L1214.89 177.363 L1196.41 183.627 L1177.93 192.111 L1159.45 191.263 L1140.97 195.247 L1122.49 199.905 L1104.02 198.534 L1085.54 201.938 L1067.06 196.272 L1048.58 193.675 L1030.1 194.631 L1011.62 184.191 L993.139 178.885 L974.66 174.038 L956.181 168.405 L937.701 174.578 L919.222 174.133 L900.743 171.177 L882.263 172.33 L863.784 179.712 L845.305 175.13 L826.826 175.743 L808.346 184.825 L789.867 187.305 L771.388 184.749 L752.908 184.273 L734.429 196.832 L715.95 192.705 L697.47 195.266 L678.991 200.175 L660.512 235.689  Z"
     fill="#777777"
     fill-rule="evenodd"
     fill-opacity="0.5"
     id="path82" />
  <polyline
     clip-path="url(#clip522)"
     style="stroke:#777777; stroke-linecap:round; stroke-linejoin:round; stroke-width:0; stroke-opacity:1; fill:none"
     points="660.512,349.419 678.991,333.847 697.47,333.671 715.95,334.845 734.429,335.078 752.908,335.721 771.388,337.259 789.867,339.446 808.346,340.002 826.826,340.588 845.305,342.093 863.784,344.689 882.263,345.785 900.743,346.872 919.222,346.698 937.701,345.166 956.181,343.631 974.66,342.803 993.139,343.9 1011.62,345.91 1030.1,346.185 1048.58,345.173 1067.06,344.622 1085.54,342.206 1104.02,341.121 1122.49,340.269 1140.97,339.104 1159.45,339.158 1177.93,339.381 1196.41,339.464 1214.89,340.337 1233.37,340.032 1251.85,338.166 1270.33,341.011 1288.81,342.995 1307.29,344.447 1325.77,344.001 1344.25,344.762 1362.73,345.628 1381.2,344.443 1399.68,343.186 1418.16,343.033 1436.64,344.406 1455.12,345.896 1473.6,345.938 1492.08,345.172 1510.56,344.618 1529.04,342.42 1547.52,341.161 1566,340.6 1584.48,339.285 1602.96,338.894 1621.44,339.189 1639.92,339.446 1658.39,340.388 1676.87,340.522 1695.35,338.639 1713.83,340.811 1732.31,341.926 1750.79,344.073 1769.27,344.235 1787.75,344.909 1806.23,345.475 1824.71,344.366 1843.19,343.24 1861.67,342.963 1880.15,344.125 1898.63,345.767 1917.11,345.981 1935.58,345.095 1954.06,344.548 1972.54,342.396 1991.02,341.202 2009.5,340.617 2027.98,339.381 2046.46,338.907 2064.94,339.239 2083.42,339.431 2101.9,340.299 2120.38,340.333 2138.86,338.474 2157.34,340.901 2175.82,342.373 2194.29,344.302 2212.77,344.135 2231.25,344.771 2249.73,345.553 2268.21,344.386 2286.69,343.148 2305.17,342.929 2323.65,344.187 2342.13,345.789 2360.61,345.935 2379.09,345.154 2397.57,344.595 2416.05,342.365 2434.53,341.14 2453.01,340.578 2471.48,339.338 2489.96,338.91 2508.44,339.222 2526.92,339.473 2545.4,340.392 2563.88,340.437 2582.36,338.559 2600.84,340.844 2619.32,342.102 2637.8,344.163 2656.28,344.187 2674.76,344.843 2693.24,345.487 2711.72,344.325 2730.19,343.215 2748.67,342.979 2767.15,344.168 2785.63,345.792 2804.11,345.97 2822.59,345.111 2841.07,344.545 2859.55,342.362 2878.03,341.183 2896.51,340.619 2914.99,339.369 2933.47,338.894 2951.95,339.217 2970.43,339.459 2988.91,340.358 3007.38,340.386 3025.86,338.505 3044.34,340.864 3062.82,342.25 3081.3,344.26 3099.78,344.176 3118.26,344.794 3136.74,345.491 3155.22,344.35 3173.7,343.199 3192.18,342.966 3210.66,344.168 3229.14,345.785 3247.62,345.958 3266.1,345.109 3284.57,344.548 3303.05,342.361 3321.53,341.173 3340.01,340.599 3358.49,339.34 3376.97,338.917 3395.45,339.236 3413.93,339.488 3432.41,340.396 3450.89,340.429 3469.37,338.546 3487.85,340.845 3506.33,342.158 3524.81,344.175 3543.28,344.143 3561.76,344.812 3580.24,345.494 3598.72,344.338 3617.2,343.231 3635.68,342.991 3654.16,344.188 3672.64,345.789 3691.12,345.951 3709.6,345.09 3728.08,344.532 3746.56,342.369 3765.04,341.18 3783.52,340.602 3802,339.359 3820.47,338.925 3838.95,339.227 3857.43,339.462 3875.91,340.368 3894.39,340.403 3912.87,338.524 3931.35,340.863 3949.83,342.218 3968.31,344.257 3986.79,344.174 4005.27,344.796 4023.75,345.504 4042.23,344.357 4060.71,343.201 4079.18,342.968 4097.66,344.178 4116.14,345.781 4134.62,345.95 4153.1,345.123 4171.58,344.567 4190.06,342.372 4208.54,341.18 4227.02,340.61 4245.5,339.35 4263.98,338.906 4282.46,339.207 4300.94,339.456 4319.42,340.347 4337.9,340.431 4356.37,338.57 4374.85,340.882 4393.33,342.167 4411.81,344.197 4430.29,344.178 4448.77,344.835 4467.25,345.501 4485.73,344.354 4504.21,343.209 4522.69,342.982 4541.17,344.189 4559.65,345.811 4578.13,345.985 4596.61,345.134 4615.09,344.576 4633.56,342.369 "
     id="polyline82" />
  <path
     clip-path="url(#clip522)"
     d="M660.512 456.172 L678.991 446.139 L697.47 458.834 L715.95 463.103 L734.429 466.191 L752.908 465.317 L771.388 471.771 L789.867 487.85 L808.346 487.64 L826.826 491.782 L845.305 505.948 L863.784 518.181 L882.263 518.359 L900.743 522.726 L919.222 518.481 L937.701 510.113 L956.181 493.296 L974.66 494.629 L993.139 498.326 L1011.62 494.716 L1030.1 488.981 L1048.58 485.533 L1067.06 483.792 L1085.54 476.853 L1104.02 472.161 L1122.49 463.176 L1140.97 477.734 L1159.45 474.111 L1177.93 479.916 L1196.41 483.985 L1214.89 494.861 L1233.37 496.078 L1251.85 486.149 L1270.33 505.825 L1288.81 513.314 L1307.29 516.633 L1325.77 509.656 L1344.25 519.396 L1362.73 519.52 L1381.2 507.856 L1399.68 493.574 L1418.16 496.23 L1436.64 501.179 L1455.12 494.984 L1473.6 490.882 L1492.08 484.996 L1510.56 483.851 L1529.04 479.386 L1547.52 469.338 L1566 465.722 L1584.48 479.204 L1602.96 476.192 L1621.44 479.928 L1639.92 484.917 L1658.39 492.673 L1676.87 496.399 L1695.35 490.912 L1713.83 503.498 L1732.31 510.701 L1750.79 516.279 L1769.27 510.636 L1787.75 519.645 L1806.23 518.846 L1824.71 507.843 L1843.19 493.657 L1861.67 492.725 L1880.15 500.439 L1898.63 496.134 L1917.11 491.027 L1935.58 485.2 L1954.06 483.455 L1972.54 479.315 L1991.02 469.702 L2009.5 466.81 L2027.98 479.944 L2046.46 476.945 L2064.94 480.534 L2083.42 484.167 L2101.9 492.592 L2120.38 496.189 L2138.86 491.274 L2157.34 503.57 L2175.82 512.174 L2194.29 516.565 L2212.77 511.13 L2231.25 519.349 L2249.73 519.2 L2268.21 507.786 L2286.69 493.524 L2305.17 494.723 L2323.65 499.89 L2342.13 496.158 L2360.61 490.493 L2379.09 486.415 L2397.57 483.61 L2416.05 479.246 L2434.53 469.535 L2453.01 466.143 L2471.48 479.96 L2489.96 476.227 L2508.44 480.545 L2526.92 484.199 L2545.4 492.674 L2563.88 496.277 L2582.36 491.358 L2600.84 503.564 L2619.32 510.204 L2637.8 516.425 L2656.28 511.237 L2674.76 519.571 L2693.24 518.817 L2711.72 507.806 L2730.19 493.66 L2748.67 493.743 L2767.15 500.265 L2785.63 496.167 L2804.11 490.87 L2822.59 486.127 L2841.07 483.419 L2859.55 479.285 L2878.03 469.601 L2896.51 466.328 L2914.99 480.057 L2933.47 476.576 L2951.95 480.529 L2970.43 484.199 L2988.91 492.654 L3007.38 496.197 L3025.86 491.291 L3044.34 503.56 L3062.82 512.131 L3081.3 516.447 L3099.78 511.271 L3118.26 519.569 L3136.74 518.857 L3155.22 507.885 L3173.7 493.69 L3192.18 494.456 L3210.66 500.378 L3229.14 496.166 L3247.62 490.786 L3266.1 485.247 L3284.57 483.618 L3303.05 479.38 L3321.53 469.672 L3340.01 467.116 L3358.49 480.017 L3376.97 476.345 L3395.45 480.601 L3413.93 484.238 L3432.41 492.697 L3450.89 496.301 L3469.37 491.34 L3487.85 503.569 L3506.33 510.724 L3524.81 516.343 L3543.28 511.218 L3561.76 519.592 L3580.24 518.763 L3598.72 507.82 L3617.2 493.658 L3635.68 493.93 L3654.16 500.22 L3672.64 496.167 L3691.12 490.729 L3709.6 485.118 L3728.08 483.484 L3746.56 479.324 L3765.04 469.597 L3783.52 465.857 L3802 480.067 L3820.47 476.5 L3838.95 480.604 L3857.43 484.208 L3875.91 492.664 L3894.39 496.235 L3912.87 491.328 L3931.35 503.666 L3949.83 511.96 L3968.31 516.55 L3986.79 511.242 L4005.27 519.571 L4023.75 518.907 L4042.23 507.849 L4060.71 493.656 L4079.18 494.283 L4097.66 500.342 L4116.14 496.166 L4134.62 490.751 L4153.1 485.956 L4171.58 483.543 L4190.06 479.324 L4208.54 469.644 L4227.02 466.741 L4245.5 480.004 L4263.98 476.415 L4282.46 480.563 L4300.94 484.214 L4319.42 492.638 L4337.9 496.175 L4356.37 491.376 L4374.85 503.634 L4393.33 511.417 L4411.81 516.497 L4430.29 511.266 L4448.77 519.613 L4467.25 518.905 L4485.73 507.874 L4504.21 493.673 L4522.69 494.14 L4541.17 500.283 L4559.65 496.197 L4578.13 490.791 L4596.61 485.748 L4615.09 483.503 L4633.56 479.372 L4633.56 220.119 L4615.09 221.991 L4596.61 217.107 L4578.13 213.108 L4559.65 213.373 L4541.17 208.398 L4522.69 208.568 L4504.21 207.025 L4485.73 208.934 L4467.25 201.057 L4448.77 201.202 L4430.29 204.905 L4411.81 202.47 L4393.33 200.317 L4374.85 203.728 L4356.37 204.636 L4337.9 209.457 L4319.42 206.275 L4300.94 204.032 L4282.46 205.438 L4263.98 206.541 L4245.5 214.464 L4227.02 220.642 L4208.54 220.406 L4190.06 220.131 L4171.58 221.976 L4153.1 216.925 L4134.62 213.041 L4116.14 213.332 L4097.66 208.409 L4079.18 208.552 L4060.71 207.235 L4042.23 208.995 L4023.75 200.962 L4005.27 201.45 L3986.79 204.828 L3968.31 202.569 L3949.83 201.678 L3931.35 203.725 L3912.87 204.609 L3894.39 209.547 L3875.91 206.294 L3857.43 203.985 L3838.95 205.469 L3820.47 206.722 L3802 214.488 L3783.52 220.561 L3765.04 220.564 L3746.56 220.221 L3728.08 221.947 L3709.6 216.676 L3691.12 213.083 L3672.64 213.366 L3654.16 207.975 L3635.68 208.585 L3617.2 207.045 L3598.72 209.111 L3580.24 200.396 L3561.76 201.357 L3543.28 204.856 L3524.81 202.451 L3506.33 200.944 L3487.85 203.755 L3469.37 204.633 L3450.89 209.431 L3432.41 206.31 L3413.93 203.988 L3395.45 205.431 L3376.97 206.457 L3358.49 214.136 L3340.01 220.666 L3321.53 220.518 L3303.05 220.079 L3284.57 221.981 L3266.1 217.023 L3247.62 213.097 L3229.14 213.346 L3210.66 208.247 L3192.18 208.576 L3173.7 207 L3155.22 209.127 L3136.74 200.481 L3118.26 201.453 L3099.78 204.871 L3081.3 202.506 L3062.82 200.751 L3044.34 203.729 L3025.86 204.58 L3007.38 209.526 L2988.91 206.281 L2970.43 204.019 L2951.95 205.458 L2933.47 206.662 L2914.99 214.484 L2896.51 220.509 L2878.03 220.342 L2859.55 220.065 L2841.07 222.042 L2822.59 216.965 L2804.11 213.079 L2785.63 213.339 L2767.15 207.989 L2748.67 208.556 L2730.19 206.975 L2711.72 209.102 L2693.24 200.912 L2674.76 201.559 L2656.28 204.865 L2637.8 202.461 L2619.32 200.369 L2600.84 203.763 L2582.36 204.642 L2563.88 209.462 L2545.4 206.304 L2526.92 204.017 L2508.44 205.415 L2489.96 206.726 L2471.48 214.345 L2453.01 220.567 L2434.53 219.905 L2416.05 220.196 L2397.57 222.117 L2379.09 216.883 L2360.61 213.074 L2342.13 213.343 L2323.65 208.217 L2305.17 208.513 L2286.69 207.333 L2268.21 209.065 L2249.73 200.311 L2231.25 201.176 L2212.77 204.868 L2194.29 202.62 L2175.82 202.688 L2157.34 203.802 L2138.86 204.565 L2120.38 209.267 L2101.9 206.212 L2083.42 203.887 L2064.94 205.465 L2046.46 206.716 L2027.98 214.157 L2009.5 220.902 L1991.02 220.383 L1972.54 220.114 L1954.06 222.061 L1935.58 216.796 L1917.11 212.732 L1898.63 213.334 L1880.15 207.589 L1861.67 208.556 L1843.19 206.808 L1824.71 209.142 L1806.23 201.095 L1787.75 201.122 L1769.27 205.048 L1750.79 202.37 L1732.31 201.787 L1713.83 203.711 L1695.35 204.729 L1676.87 209.672 L1658.39 206.314 L1639.92 205.09 L1621.44 205.415 L1602.96 206.682 L1584.48 214.471 L1566 220.359 L1547.52 219.928 L1529.04 220.214 L1510.56 222.205 L1492.08 217.006 L1473.6 213.088 L1455.12 213.579 L1436.64 207.457 L1418.16 208.628 L1399.68 207.172 L1381.2 209.272 L1362.73 202.441 L1344.25 197.094 L1325.77 203.184 L1307.29 202.975 L1288.81 203.296 L1270.33 203.473 L1251.85 204.305 L1233.37 207.285 L1214.89 210.266 L1196.41 206.179 L1177.93 207.776 L1159.45 208.22 L1140.97 214.197 L1122.49 221.069 L1104.02 221.945 L1085.54 220.055 L1067.06 222.941 L1048.58 217.199 L1030.1 214.416 L1011.62 213.968 L993.139 207.047 L974.66 208.676 L956.181 209.289 L937.701 212.998 L919.222 208.093 L900.743 207.068 L882.263 206.358 L863.784 206.71 L845.305 205.68 L826.826 204.509 L808.346 211.438 L789.867 211.123 L771.388 209.578 L752.908 210.224 L734.429 207.837 L715.95 210.917 L697.47 212.434 L678.991 217.913 L660.512 250.286  Z"
     fill="#434343"
     fill-rule="evenodd"
     fill-opacity="0.5"
     id="path83" />
  <polyline
     clip-path="url(#clip522)"
     style="stroke:#434343; stroke-linecap:round; stroke-linejoin:round; stroke-width:0; stroke-opacity:1; fill:none"
     points="660.512,349.419 678.991,333.847 697.47,333.671 715.95,334.845 734.429,335.078 752.908,335.721 771.388,337.259 789.867,339.446 808.346,340.002 826.826,340.588 845.305,342.093 863.784,344.689 882.263,345.785 900.743,346.872 919.222,346.698 937.701,345.166 956.181,343.631 974.66,342.803 993.139,343.9 1011.62,345.91 1030.1,346.185 1048.58,345.173 1067.06,344.622 1085.54,342.206 1104.02,341.121 1122.49,340.269 1140.97,339.104 1159.45,339.158 1177.93,339.381 1196.41,339.464 1214.89,340.337 1233.37,340.032 1251.85,338.166 1270.33,341.011 1288.81,342.995 1307.29,344.447 1325.77,344.001 1344.25,344.762 1362.73,345.628 1381.2,344.443 1399.68,343.186 1418.16,343.033 1436.64,344.406 1455.12,345.896 1473.6,345.938 1492.08,345.172 1510.56,344.618 1529.04,342.42 1547.52,341.161 1566,340.6 1584.48,339.285 1602.96,338.894 1621.44,339.189 1639.92,339.446 1658.39,340.388 1676.87,340.522 1695.35,338.639 1713.83,340.811 1732.31,341.926 1750.79,344.073 1769.27,344.235 1787.75,344.909 1806.23,345.475 1824.71,344.366 1843.19,343.24 1861.67,342.963 1880.15,344.125 1898.63,345.767 1917.11,345.981 1935.58,345.095 1954.06,344.548 1972.54,342.396 1991.02,341.202 2009.5,340.617 2027.98,339.381 2046.46,338.907 2064.94,339.239 2083.42,339.431 2101.9,340.299 2120.38,340.333 2138.86,338.474 2157.34,340.901 2175.82,342.373 2194.29,344.302 2212.77,344.135 2231.25,344.771 2249.73,345.553 2268.21,344.386 2286.69,343.148 2305.17,342.929 2323.65,344.187 2342.13,345.789 2360.61,345.935 2379.09,345.154 2397.57,344.595 2416.05,342.365 2434.53,341.14 2453.01,340.578 2471.48,339.338 2489.96,338.91 2508.44,339.222 2526.92,339.473 2545.4,340.392 2563.88,340.437 2582.36,338.559 2600.84,340.844 2619.32,342.102 2637.8,344.163 2656.28,344.187 2674.76,344.843 2693.24,345.487 2711.72,344.325 2730.19,343.215 2748.67,342.979 2767.15,344.168 2785.63,345.792 2804.11,345.97 2822.59,345.111 2841.07,344.545 2859.55,342.362 2878.03,341.183 2896.51,340.619 2914.99,339.369 2933.47,338.894 2951.95,339.217 2970.43,339.459 2988.91,340.358 3007.38,340.386 3025.86,338.505 3044.34,340.864 3062.82,342.25 3081.3,344.26 3099.78,344.176 3118.26,344.794 3136.74,345.491 3155.22,344.35 3173.7,343.199 3192.18,342.966 3210.66,344.168 3229.14,345.785 3247.62,345.958 3266.1,345.109 3284.57,344.548 3303.05,342.361 3321.53,341.173 3340.01,340.599 3358.49,339.34 3376.97,338.917 3395.45,339.236 3413.93,339.488 3432.41,340.396 3450.89,340.429 3469.37,338.546 3487.85,340.845 3506.33,342.158 3524.81,344.175 3543.28,344.143 3561.76,344.812 3580.24,345.494 3598.72,344.338 3617.2,343.231 3635.68,342.991 3654.16,344.188 3672.64,345.789 3691.12,345.951 3709.6,345.09 3728.08,344.532 3746.56,342.369 3765.04,341.18 3783.52,340.602 3802,339.359 3820.47,338.925 3838.95,339.227 3857.43,339.462 3875.91,340.368 3894.39,340.403 3912.87,338.524 3931.35,340.863 3949.83,342.218 3968.31,344.257 3986.79,344.174 4005.27,344.796 4023.75,345.504 4042.23,344.357 4060.71,343.201 4079.18,342.968 4097.66,344.178 4116.14,345.781 4134.62,345.95 4153.1,345.123 4171.58,344.567 4190.06,342.372 4208.54,341.18 4227.02,340.61 4245.5,339.35 4263.98,338.906 4282.46,339.207 4300.94,339.456 4319.42,340.347 4337.9,340.431 4356.37,338.57 4374.85,340.882 4393.33,342.167 4411.81,344.197 4430.29,344.178 4448.77,344.835 4467.25,345.501 4485.73,344.354 4504.21,343.209 4522.69,342.982 4541.17,344.189 4559.65,345.811 4578.13,345.985 4596.61,345.134 4615.09,344.576 4633.56,342.369 "
     id="polyline83" />
  <path
     clip-path="url(#clip520)"
     d="M3871.96 593.434 L4612.37 593.434 L4612.37 75.0343 L3871.96 75.0343  Z"
     fill="#ffffff"
     fill-rule="evenodd"
     fill-opacity="1"
     id="path84" />
  <polyline
     clip-path="url(#clip520)"
     style="stroke:#000000; stroke-linecap:round; stroke-linejoin:round; stroke-width:4; stroke-opacity:1; fill:none"
     points="3871.96,593.434 4612.37,593.434 4612.37,75.0343 3871.96,75.0343 3871.96,593.434 "
     id="polyline84" />
  <polyline
     clip-path="url(#clip520)"
     style="stroke:#b0b0b0; stroke-linecap:round; stroke-linejoin:round; stroke-width:2; stroke-opacity:1; fill:none"
     points="3918.76,204.634 4199.52,204.634 "
     id="polyline85" />
  <path
     clip-path="url(#clip520)"
     d="M4247.99 237.996 L4267.09 237.996 L4267.09 172.082 L4246.31 176.249 L4246.31 165.601 L4266.97 161.434 L4278.66 161.434 L4278.66 237.996 L4297.76 237.996 L4297.76 247.834 L4247.99 247.834 L4247.99 237.996 Z"
     fill="#000000"
     fill-rule="nonzero"
     fill-opacity="1"
     id="path85" />
  <path
     clip-path="url(#clip520)"
     d="M4346.37 169.131 Q4337.34 169.131 4332.77 178.043 Q4328.26 186.897 4328.26 204.721 Q4328.26 222.487 4332.77 231.399 Q4337.34 240.253 4346.37 240.253 Q4355.45 240.253 4359.97 231.399 Q4364.54 222.487 4364.54 204.721 Q4364.54 186.897 4359.97 178.043 Q4355.45 169.131 4346.37 169.131 M4346.37 159.872 Q4360.89 159.872 4368.53 171.388 Q4376.23 182.846 4376.23 204.721 Q4376.23 226.538 4368.53 238.054 Q4360.89 249.513 4346.37 249.513 Q4331.84 249.513 4324.15 238.054 Q4316.51 226.538 4316.51 204.721 Q4316.51 182.846 4324.15 171.388 Q4331.84 159.872 4346.37 159.872 Z"
     fill="#000000"
     fill-rule="nonzero"
     fill-opacity="1"
     id="path86" />
  <path
     clip-path="url(#clip520)"
     d="M4421.77 169.131 Q4412.75 169.131 4408.17 178.043 Q4403.66 186.897 4403.66 204.721 Q4403.66 222.487 4408.17 231.399 Q4412.75 240.253 4421.77 240.253 Q4430.86 240.253 4435.37 231.399 Q4439.95 222.487 4439.95 204.721 Q4439.95 186.897 4435.37 178.043 Q4430.86 169.131 4421.77 169.131 M4421.77 159.872 Q4436.3 159.872 4443.94 171.388 Q4451.63 182.846 4451.63 204.721 Q4451.63 226.538 4443.94 238.054 Q4436.3 249.513 4421.77 249.513 Q4407.25 249.513 4399.55 238.054 Q4391.91 226.538 4391.91 204.721 Q4391.91 182.846 4399.55 171.388 Q4407.25 159.872 4421.77 159.872 Z"
     fill="#000000"
     fill-rule="nonzero"
     fill-opacity="1"
     id="path87" />
  <path
     clip-path="url(#clip520)"
     d="M4545.67 209.814 Q4540.64 209.814 4537.75 214.096 Q4534.91 218.378 4534.91 226.017 Q4534.91 233.54 4537.75 237.881 Q4540.64 242.163 4545.67 242.163 Q4550.59 242.163 4553.43 237.881 Q4556.32 233.54 4556.32 226.017 Q4556.32 218.436 4553.43 214.154 Q4550.59 209.814 4545.67 209.814 M4545.67 202.464 Q4554.82 202.464 4560.2 208.83 Q4565.58 215.196 4565.58 226.017 Q4565.58 236.839 4560.14 243.205 Q4554.76 249.513 4545.67 249.513 Q4536.41 249.513 4531.03 243.205 Q4525.65 236.839 4525.65 226.017 Q4525.65 215.138 4531.03 208.83 Q4536.47 202.464 4545.67 202.464 M4485.95 167.221 Q4480.97 167.221 4478.08 171.562 Q4475.25 175.844 4475.25 183.367 Q4475.25 191.006 4478.08 195.288 Q4480.92 199.571 4485.95 199.571 Q4490.99 199.571 4493.82 195.288 Q4496.72 191.006 4496.72 183.367 Q4496.72 175.902 4493.82 171.562 Q4490.93 167.221 4485.95 167.221 M4538.21 159.872 L4547.47 159.872 L4493.42 249.513 L4484.16 249.513 L4538.21 159.872 M4485.95 159.872 Q4495.1 159.872 4500.54 166.238 Q4505.97 172.545 4505.97 183.367 Q4505.97 194.305 4500.54 200.612 Q4495.15 206.92 4485.95 206.92 Q4476.75 206.92 4471.37 200.612 Q4466.04 194.247 4466.04 183.367 Q4466.04 172.603 4471.43 166.238 Q4476.81 159.872 4485.95 159.872 Z"
     fill="#000000"
     fill-rule="nonzero"
     fill-opacity="1"
     id="path88" />
  <polyline
     clip-path="url(#clip520)"
     style="stroke:#777777; stroke-linecap:round; stroke-linejoin:round; stroke-width:2; stroke-opacity:1; fill:none"
     points="3918.76,334.234 4199.52,334.234 "
     id="polyline88" />
  <path
     clip-path="url(#clip520)"
     d="M4251.87 375.64 L4251.87 364.992 Q4256.27 367.076 4260.78 368.175 Q4265.29 369.275 4269.63 369.275 Q4281.21 369.275 4287.28 361.52 Q4293.42 353.708 4294.29 337.851 Q4290.93 342.828 4285.78 345.49 Q4280.63 348.152 4274.38 348.152 Q4261.42 348.152 4253.83 340.34 Q4246.31 332.469 4246.31 318.87 Q4246.31 305.56 4254.18 297.516 Q4262.05 289.472 4275.13 289.472 Q4290.12 289.472 4297.99 300.988 Q4305.92 312.446 4305.92 334.321 Q4305.92 354.749 4296.2 366.96 Q4286.53 379.113 4270.15 379.113 Q4265.76 379.113 4261.24 378.245 Q4256.73 377.376 4251.87 375.64 M4275.13 339.009 Q4283 339.009 4287.57 333.627 Q4292.2 328.245 4292.2 318.87 Q4292.2 309.553 4287.57 304.171 Q4283 298.731 4275.13 298.731 Q4267.26 298.731 4262.63 304.171 Q4258.06 309.553 4258.06 318.87 Q4258.06 328.245 4262.63 333.627 Q4267.26 339.009 4275.13 339.009 Z"
     fill="#000000"
     fill-rule="nonzero"
     fill-opacity="1"
     id="path89" />
  <path
     clip-path="url(#clip520)"
     d="M4351.92 298.731 Q4342.9 298.731 4338.33 307.643 Q4333.81 316.497 4333.81 334.321 Q4333.81 352.087 4338.33 360.999 Q4342.9 369.853 4351.92 369.853 Q4361.01 369.853 4365.52 360.999 Q4370.1 352.087 4370.1 334.321 Q4370.1 316.497 4365.52 307.643 Q4361.01 298.731 4351.92 298.731 M4351.92 289.472 Q4366.45 289.472 4374.09 300.988 Q4381.79 312.446 4381.79 334.321 Q4381.79 356.138 4374.09 367.654 Q4366.45 379.113 4351.92 379.113 Q4337.4 379.113 4329.7 367.654 Q4322.06 356.138 4322.06 334.321 Q4322.06 312.446 4329.7 300.988 Q4337.4 289.472 4351.92 289.472 Z"
     fill="#000000"
     fill-rule="nonzero"
     fill-opacity="1"
     id="path90" />
  <path
     clip-path="url(#clip520)"
     d="M4475.82 339.414 Q4470.79 339.414 4467.9 343.696 Q4465.06 347.978 4465.06 355.617 Q4465.06 363.14 4467.9 367.481 Q4470.79 371.763 4475.82 371.763 Q4480.74 371.763 4483.58 367.481 Q4486.47 363.14 4486.47 355.617 Q4486.47 348.036 4483.58 343.754 Q4480.74 339.414 4475.82 339.414 M4475.82 332.064 Q4484.97 332.064 4490.35 338.43 Q4495.73 344.796 4495.73 355.617 Q4495.73 366.439 4490.29 372.805 Q4484.91 379.113 4475.82 379.113 Q4466.57 379.113 4461.18 372.805 Q4455.8 366.439 4455.8 355.617 Q4455.8 344.738 4461.18 338.43 Q4466.62 332.064 4475.82 332.064 M4416.1 296.821 Q4411.13 296.821 4408.23 301.162 Q4405.4 305.444 4405.4 312.967 Q4405.4 320.606 4408.23 324.888 Q4411.07 329.171 4416.1 329.171 Q4421.14 329.171 4423.97 324.888 Q4426.87 320.606 4426.87 312.967 Q4426.87 305.502 4423.97 301.162 Q4421.08 296.821 4416.1 296.821 M4468.36 289.472 L4477.62 289.472 L4423.57 379.113 L4414.31 379.113 L4468.36 289.472 M4416.1 289.472 Q4425.25 289.472 4430.69 295.838 Q4436.13 302.145 4436.13 312.967 Q4436.13 323.905 4430.69 330.212 Q4425.3 336.52 4416.1 336.52 Q4406.9 336.52 4401.52 330.212 Q4396.2 323.847 4396.2 312.967 Q4396.2 302.203 4401.58 295.838 Q4406.96 289.472 4416.1 289.472 Z"
     fill="#000000"
     fill-rule="nonzero"
     fill-opacity="1"
     id="path91" />
  <polyline
     clip-path="url(#clip520)"
     style="stroke:#434343; stroke-linecap:round; stroke-linejoin:round; stroke-width:2; stroke-opacity:1; fill:none"
     points="3918.76,463.834 4199.52,463.834 "
     id="polyline91" />
  <path
     clip-path="url(#clip520)"
     d="M4275.94 466.004 Q4267.61 466.004 4262.8 470.46 Q4258.06 474.916 4258.06 482.729 Q4258.06 490.541 4262.8 494.997 Q4267.61 499.453 4275.94 499.453 Q4284.27 499.453 4289.08 494.997 Q4293.88 490.484 4293.88 482.729 Q4293.88 474.916 4289.08 470.46 Q4284.33 466.004 4275.94 466.004 M4264.25 461.028 Q4256.73 459.176 4252.5 454.025 Q4248.34 448.875 4248.34 441.468 Q4248.34 431.109 4255.69 425.09 Q4263.09 419.072 4275.94 419.072 Q4288.85 419.072 4296.2 425.09 Q4303.55 431.109 4303.55 441.468 Q4303.55 448.875 4299.32 454.025 Q4295.15 459.176 4287.69 461.028 Q4296.14 462.995 4300.83 468.724 Q4305.57 474.453 4305.57 482.729 Q4305.57 495.287 4297.87 502 Q4290.24 508.713 4275.94 508.713 Q4261.65 508.713 4253.95 502 Q4246.31 495.287 4246.31 482.729 Q4246.31 474.453 4251.06 468.724 Q4255.8 462.995 4264.25 461.028 M4259.97 442.567 Q4259.97 449.28 4264.14 453.042 Q4268.36 456.803 4275.94 456.803 Q4283.46 456.803 4287.69 453.042 Q4291.97 449.28 4291.97 442.567 Q4291.97 435.854 4287.69 432.093 Q4283.46 428.331 4275.94 428.331 Q4268.36 428.331 4264.14 432.093 Q4259.97 435.854 4259.97 442.567 Z"
     fill="#000000"
     fill-rule="nonzero"
     fill-opacity="1"
     id="path92" />
  <path
     clip-path="url(#clip520)"
     d="M4351.35 428.331 Q4342.32 428.331 4337.75 437.243 Q4333.23 446.097 4333.23 463.921 Q4333.23 481.687 4337.75 490.599 Q4342.32 499.453 4351.35 499.453 Q4360.43 499.453 4364.95 490.599 Q4369.52 481.687 4369.52 463.921 Q4369.52 446.097 4364.95 437.243 Q4360.43 428.331 4351.35 428.331 M4351.35 419.072 Q4365.87 419.072 4373.51 430.588 Q4381.21 442.046 4381.21 463.921 Q4381.21 485.738 4373.51 497.254 Q4365.87 508.713 4351.35 508.713 Q4336.82 508.713 4329.12 497.254 Q4321.49 485.738 4321.49 463.921 Q4321.49 442.046 4329.12 430.588 Q4336.82 419.072 4351.35 419.072 Z"
     fill="#000000"
     fill-rule="nonzero"
     fill-opacity="1"
     id="path93" />
  <path
     clip-path="url(#clip520)"
     d="M4475.25 469.014 Q4470.21 469.014 4467.32 473.296 Q4464.48 477.578 4464.48 485.217 Q4464.48 492.74 4467.32 497.081 Q4470.21 501.363 4475.25 501.363 Q4480.16 501.363 4483 497.081 Q4485.89 492.74 4485.89 485.217 Q4485.89 477.636 4483 473.354 Q4480.16 469.014 4475.25 469.014 M4475.25 461.664 Q4484.39 461.664 4489.77 468.03 Q4495.15 474.396 4495.15 485.217 Q4495.15 496.039 4489.71 502.405 Q4484.33 508.713 4475.25 508.713 Q4465.99 508.713 4460.6 502.405 Q4455.22 496.039 4455.22 485.217 Q4455.22 474.338 4460.6 468.03 Q4466.04 461.664 4475.25 461.664 M4415.52 426.421 Q4410.55 426.421 4407.65 430.762 Q4404.82 435.044 4404.82 442.567 Q4404.82 450.206 4407.65 454.488 Q4410.49 458.771 4415.52 458.771 Q4420.56 458.771 4423.39 454.488 Q4426.29 450.206 4426.29 442.567 Q4426.29 435.102 4423.39 430.762 Q4420.5 426.421 4415.52 426.421 M4467.78 419.072 L4477.04 419.072 L4422.99 508.713 L4413.73 508.713 L4467.78 419.072 M4415.52 419.072 Q4424.67 419.072 4430.11 425.438 Q4435.55 431.745 4435.55 442.567 Q4435.55 453.505 4430.11 459.812 Q4424.73 466.12 4415.52 466.12 Q4406.32 466.12 4400.94 459.812 Q4395.62 453.447 4395.62 442.567 Q4395.62 431.803 4401 425.438 Q4406.38 419.072 4415.52 419.072 Z"
     fill="#000000"
     fill-rule="nonzero"
     fill-opacity="1"
     id="path94" />
</svg>
