<?xml version="1.0" encoding="utf-8"?>
<svg xmlns="http://www.w3.org/2000/svg" xmlns:xlink="http://www.w3.org/1999/xlink" width="1200" height="300" viewBox="0 0 4800 1200">
<defs>
  <clipPath id="clip000">
    <rect x="0" y="0" width="4800" height="1200"/>
  </clipPath>
</defs>
<path clip-path="url(#clip000)" d="M0 1200 L4800 1200 L4800 0 L0 0  Z" fill="#ffffff" fill-rule="evenodd" fill-opacity="1"/>
<defs>
  <clipPath id="clip001">
    <rect x="960" y="0" width="3361" height="1200"/>
  </clipPath>
</defs>
<path clip-path="url(#clip000)" d="M480.996 880.951 L4752.76 880.951 L4752.76 47.2441 L480.996 47.2441  Z" fill="#ffffff" fill-rule="evenodd" fill-opacity="1"/>
<defs>
  <clipPath id="clip002">
    <rect x="480" y="47" width="4273" height="835"/>
  </clipPath>
</defs>
<polyline clip-path="url(#clip002)" style="stroke:#000000; stroke-linecap:round; stroke-linejoin:round; stroke-width:2; stroke-opacity:0.1; fill:none" points="1033.01,880.951 1033.01,47.2441 "/>
<polyline clip-path="url(#clip002)" style="stroke:#000000; stroke-linecap:round; stroke-linejoin:round; stroke-width:2; stroke-opacity:0.1; fill:none" points="1932.72,880.951 1932.72,47.2441 "/>
<polyline clip-path="url(#clip002)" style="stroke:#000000; stroke-linecap:round; stroke-linejoin:round; stroke-width:2; stroke-opacity:0.1; fill:none" points="2832.43,880.951 2832.43,47.2441 "/>
<polyline clip-path="url(#clip002)" style="stroke:#000000; stroke-linecap:round; stroke-linejoin:round; stroke-width:2; stroke-opacity:0.1; fill:none" points="3732.14,880.951 3732.14,47.2441 "/>
<polyline clip-path="url(#clip002)" style="stroke:#000000; stroke-linecap:round; stroke-linejoin:round; stroke-width:2; stroke-opacity:0.1; fill:none" points="4631.86,880.951 4631.86,47.2441 "/>
<polyline clip-path="url(#clip000)" style="stroke:#000000; stroke-linecap:round; stroke-linejoin:round; stroke-width:4; stroke-opacity:1; fill:none" points="480.996,880.951 4752.76,880.951 "/>
<polyline clip-path="url(#clip000)" style="stroke:#000000; stroke-linecap:round; stroke-linejoin:round; stroke-width:4; stroke-opacity:1; fill:none" points="1033.01,880.951 1033.01,862.054 "/>
<polyline clip-path="url(#clip000)" style="stroke:#000000; stroke-linecap:round; stroke-linejoin:round; stroke-width:4; stroke-opacity:1; fill:none" points="1932.72,880.951 1932.72,862.054 "/>
<polyline clip-path="url(#clip000)" style="stroke:#000000; stroke-linecap:round; stroke-linejoin:round; stroke-width:4; stroke-opacity:1; fill:none" points="2832.43,880.951 2832.43,862.054 "/>
<polyline clip-path="url(#clip000)" style="stroke:#000000; stroke-linecap:round; stroke-linejoin:round; stroke-width:4; stroke-opacity:1; fill:none" points="3732.14,880.951 3732.14,862.054 "/>
<polyline clip-path="url(#clip000)" style="stroke:#000000; stroke-linecap:round; stroke-linejoin:round; stroke-width:4; stroke-opacity:1; fill:none" points="4631.86,880.951 4631.86,862.054 "/>
<path clip-path="url(#clip000)" d="M1022.31 997.881 L1054.95 997.881 L1054.95 1005.75 L1011.06 1005.75 L1011.06 997.881 Q1016.39 992.372 1025.55 983.113 Q1034.77 973.807 1037.13 971.122 Q1041.62 966.076 1043.38 962.604 Q1045.18 959.085 1045.18 955.705 Q1045.18 950.196 1041.29 946.724 Q1037.45 943.252 1031.25 943.252 Q1026.85 943.252 1021.94 944.78 Q1017.08 946.307 1011.53 949.409 L1011.53 939.965 Q1017.17 937.696 1022.08 936.539 Q1026.99 935.382 1031.06 935.382 Q1041.8 935.382 1048.19 940.752 Q1054.58 946.122 1054.58 955.104 Q1054.58 959.363 1052.96 963.205 Q1051.39 967.002 1047.17 972.187 Q1046.02 973.529 1039.81 979.965 Q1033.61 986.353 1022.31 997.881 Z" fill="#000000" fill-rule="nonzero" fill-opacity="1" /><path clip-path="url(#clip000)" d="M1938.74 944.78 L1915.13 981.678 L1938.74 981.678 L1938.74 944.78 M1936.28 936.631 L1948.04 936.631 L1948.04 981.678 L1957.9 981.678 L1957.9 989.455 L1948.04 989.455 L1948.04 1005.75 L1938.74 1005.75 L1938.74 989.455 L1907.53 989.455 L1907.53 980.428 L1936.28 936.631 Z" fill="#000000" fill-rule="nonzero" fill-opacity="1" /><path clip-path="url(#clip000)" d="M2833.24 967.465 Q2826.95 967.465 2823.24 971.77 Q2819.59 976.076 2819.59 983.576 Q2819.59 991.029 2823.24 995.381 Q2826.95 999.687 2833.24 999.687 Q2839.54 999.687 2843.2 995.381 Q2846.9 991.029 2846.9 983.576 Q2846.9 976.076 2843.2 971.77 Q2839.54 967.465 2833.24 967.465 M2851.81 938.159 L2851.81 946.678 Q2848.29 945.011 2844.68 944.131 Q2841.11 943.252 2837.59 943.252 Q2828.34 943.252 2823.43 949.502 Q2818.57 955.752 2817.87 968.391 Q2820.6 964.363 2824.72 962.233 Q2828.84 960.057 2833.8 960.057 Q2844.21 960.057 2850.23 966.4 Q2856.3 972.696 2856.3 983.576 Q2856.3 994.224 2850 1000.66 Q2843.71 1007.09 2833.24 1007.09 Q2821.25 1007.09 2814.91 997.927 Q2808.57 988.715 2808.57 971.261 Q2808.57 954.872 2816.34 945.15 Q2824.12 935.382 2837.22 935.382 Q2840.74 935.382 2844.31 936.076 Q2847.92 936.77 2851.81 938.159 Z" fill="#000000" fill-rule="nonzero" fill-opacity="1" /><path clip-path="url(#clip000)" d="M3732.14 972.928 Q3725.48 972.928 3721.64 976.492 Q3717.84 980.057 3717.84 986.307 Q3717.84 992.557 3721.64 996.122 Q3725.48 999.687 3732.14 999.687 Q3738.81 999.687 3742.65 996.122 Q3746.5 992.511 3746.5 986.307 Q3746.5 980.057 3742.65 976.492 Q3738.86 972.928 3732.14 972.928 M3722.79 968.946 Q3716.77 967.465 3713.39 963.344 Q3710.06 959.224 3710.06 953.298 Q3710.06 945.011 3715.94 940.196 Q3721.87 935.382 3732.14 935.382 Q3742.47 935.382 3748.35 940.196 Q3754.23 945.011 3754.23 953.298 Q3754.23 959.224 3750.85 963.344 Q3747.51 967.465 3741.54 968.946 Q3748.3 970.52 3752.05 975.104 Q3755.85 979.687 3755.85 986.307 Q3755.85 996.353 3749.69 1001.72 Q3743.58 1007.09 3732.14 1007.09 Q3720.71 1007.09 3714.55 1001.72 Q3708.44 996.353 3708.44 986.307 Q3708.44 979.687 3712.24 975.104 Q3716.03 970.52 3722.79 968.946 M3719.37 954.178 Q3719.37 959.548 3722.7 962.557 Q3726.08 965.567 3732.14 965.567 Q3738.16 965.567 3741.54 962.557 Q3744.97 959.548 3744.97 954.178 Q3744.97 948.807 3741.54 945.798 Q3738.16 942.789 3732.14 942.789 Q3726.08 942.789 3722.7 945.798 Q3719.37 948.807 3719.37 954.178 Z" fill="#000000" fill-rule="nonzero" fill-opacity="1" /><path clip-path="url(#clip000)" d="M4581.23 997.881 L4596.51 997.881 L4596.51 945.15 L4579.89 948.483 L4579.89 939.965 L4596.42 936.631 L4605.77 936.631 L4605.77 997.881 L4621.05 997.881 L4621.05 1005.75 L4581.23 1005.75 L4581.23 997.881 Z" fill="#000000" fill-rule="nonzero" fill-opacity="1" /><path clip-path="url(#clip000)" d="M4659.94 942.789 Q4652.71 942.789 4649.06 949.918 Q4645.44 957.002 4645.44 971.261 Q4645.44 985.474 4649.06 992.603 Q4652.71 999.687 4659.94 999.687 Q4667.2 999.687 4670.82 992.603 Q4674.47 985.474 4674.47 971.261 Q4674.47 957.002 4670.82 949.918 Q4667.2 942.789 4659.94 942.789 M4659.94 935.382 Q4671.56 935.382 4677.67 944.594 Q4683.82 953.761 4683.82 971.261 Q4683.82 988.715 4677.67 997.927 Q4671.56 1007.09 4659.94 1007.09 Q4648.32 1007.09 4642.16 997.927 Q4636.05 988.715 4636.05 971.261 Q4636.05 953.761 4642.16 944.594 Q4648.32 935.382 4659.94 935.382 Z" fill="#000000" fill-rule="nonzero" fill-opacity="1" /><path clip-path="url(#clip000)" d="M2334.12 1072.18 L2399.9 1072.18 L2399.9 1081.04 L2372.29 1081.04 L2372.29 1149.94 L2361.72 1149.94 L2361.72 1081.04 L2334.12 1081.04 L2334.12 1072.18 Z" fill="#000000" fill-rule="nonzero" fill-opacity="1" /><path clip-path="url(#clip000)" d="M2406.36 1091.61 L2415.94 1091.61 L2415.94 1149.94 L2406.36 1149.94 L2406.36 1091.61 M2406.36 1068.9 L2415.94 1068.9 L2415.94 1081.04 L2406.36 1081.04 L2406.36 1068.9 Z" fill="#000000" fill-rule="nonzero" fill-opacity="1" /><path clip-path="url(#clip000)" d="M2481.41 1102.81 Q2485 1096.35 2490 1093.28 Q2495 1090.2 2501.77 1090.2 Q2510.89 1090.2 2515.83 1096.61 Q2520.78 1102.96 2520.78 1114.74 L2520.78 1149.94 L2511.15 1149.94 L2511.15 1115.05 Q2511.15 1106.66 2508.18 1102.6 Q2505.21 1098.54 2499.12 1098.54 Q2491.67 1098.54 2487.35 1103.49 Q2483.02 1108.43 2483.02 1116.97 L2483.02 1149.94 L2473.39 1149.94 L2473.39 1115.05 Q2473.39 1106.61 2470.42 1102.6 Q2467.45 1098.54 2461.25 1098.54 Q2453.91 1098.54 2449.59 1103.54 Q2445.26 1108.49 2445.26 1116.97 L2445.26 1149.94 L2435.63 1149.94 L2435.63 1091.61 L2445.26 1091.61 L2445.26 1100.67 Q2448.54 1095.31 2453.13 1092.76 Q2457.71 1090.2 2464.01 1090.2 Q2470.37 1090.2 2474.79 1093.43 Q2479.27 1096.66 2481.41 1102.81 Z" fill="#000000" fill-rule="nonzero" fill-opacity="1" /><path clip-path="url(#clip000)" d="M2589.79 1118.38 L2589.79 1123.07 L2545.73 1123.07 Q2546.36 1132.96 2551.67 1138.17 Q2557.03 1143.33 2566.56 1143.33 Q2572.08 1143.33 2577.24 1141.97 Q2582.45 1140.62 2587.55 1137.91 L2587.55 1146.97 Q2582.4 1149.16 2576.98 1150.31 Q2571.56 1151.45 2565.99 1151.45 Q2552.03 1151.45 2543.86 1143.33 Q2535.73 1135.2 2535.73 1121.35 Q2535.73 1107.03 2543.44 1098.64 Q2551.2 1090.2 2564.32 1090.2 Q2576.1 1090.2 2582.92 1097.81 Q2589.79 1105.36 2589.79 1118.38 M2580.21 1115.57 Q2580.11 1107.7 2575.78 1103.02 Q2571.51 1098.33 2564.43 1098.33 Q2556.41 1098.33 2551.56 1102.86 Q2546.77 1107.39 2546.04 1115.62 L2580.21 1115.57 Z" fill="#000000" fill-rule="nonzero" fill-opacity="1" /><path clip-path="url(#clip000)" d="M2662.45 1069.01 Q2655.47 1080.99 2652.08 1092.7 Q2648.7 1104.42 2648.7 1116.45 Q2648.7 1128.49 2652.08 1140.31 Q2655.52 1152.08 2662.45 1164.01 L2654.12 1164.01 Q2646.3 1151.77 2642.4 1139.94 Q2638.54 1128.12 2638.54 1116.45 Q2638.54 1104.84 2642.4 1093.07 Q2646.25 1081.3 2654.12 1069.01 L2662.45 1069.01 Z" fill="#000000" fill-rule="nonzero" fill-opacity="1" /><path clip-path="url(#clip000)" d="M2719.43 1100.46 L2719.43 1068.9 L2729.01 1068.9 L2729.01 1149.94 L2719.43 1149.94 L2719.43 1141.19 Q2716.41 1146.4 2711.77 1148.95 Q2707.19 1151.45 2700.73 1151.45 Q2690.16 1151.45 2683.49 1143.02 Q2676.88 1134.58 2676.88 1120.83 Q2676.88 1107.08 2683.49 1098.64 Q2690.16 1090.2 2700.73 1090.2 Q2707.19 1090.2 2711.77 1092.76 Q2716.41 1095.26 2719.43 1100.46 M2686.77 1120.83 Q2686.77 1131.4 2691.09 1137.44 Q2695.47 1143.43 2703.07 1143.43 Q2710.68 1143.43 2715.05 1137.44 Q2719.43 1131.4 2719.43 1120.83 Q2719.43 1110.26 2715.05 1104.27 Q2710.68 1098.23 2703.07 1098.23 Q2695.47 1098.23 2691.09 1104.27 Q2686.77 1110.26 2686.77 1120.83 Z" fill="#000000" fill-rule="nonzero" fill-opacity="1" /><path clip-path="url(#clip000)" d="M2775.26 1120.62 Q2763.65 1120.62 2759.17 1123.28 Q2754.69 1125.93 2754.69 1132.34 Q2754.69 1137.44 2758.02 1140.46 Q2761.41 1143.43 2767.19 1143.43 Q2775.16 1143.43 2779.95 1137.81 Q2784.79 1132.13 2784.79 1122.76 L2784.79 1120.62 L2775.26 1120.62 M2794.38 1116.66 L2794.38 1149.94 L2784.79 1149.94 L2784.79 1141.09 Q2781.51 1146.4 2776.61 1148.95 Q2771.72 1151.45 2764.64 1151.45 Q2755.68 1151.45 2750.36 1146.45 Q2745.1 1141.4 2745.1 1132.96 Q2745.1 1123.12 2751.67 1118.12 Q2758.28 1113.12 2771.35 1113.12 L2784.79 1113.12 L2784.79 1112.18 Q2784.79 1105.57 2780.42 1101.98 Q2776.09 1098.33 2768.23 1098.33 Q2763.23 1098.33 2758.49 1099.53 Q2753.75 1100.73 2749.38 1103.12 L2749.38 1094.27 Q2754.64 1092.24 2759.58 1091.25 Q2764.53 1090.2 2769.22 1090.2 Q2781.88 1090.2 2788.13 1096.77 Q2794.38 1103.33 2794.38 1116.66 Z" fill="#000000" fill-rule="nonzero" fill-opacity="1" /><path clip-path="url(#clip000)" d="M2838.39 1155.36 Q2834.32 1165.78 2830.47 1168.95 Q2826.61 1172.13 2820.16 1172.13 L2812.5 1172.13 L2812.5 1164.11 L2818.13 1164.11 Q2822.08 1164.11 2824.27 1162.24 Q2826.46 1160.36 2829.11 1153.38 L2830.83 1149.01 L2807.24 1091.61 L2817.4 1091.61 L2835.62 1137.24 L2853.85 1091.61 L2864.01 1091.61 L2838.39 1155.36 Z" fill="#000000" fill-rule="nonzero" fill-opacity="1" /><path clip-path="url(#clip000)" d="M2875.73 1069.01 L2884.06 1069.01 Q2891.87 1081.3 2895.73 1093.07 Q2899.64 1104.84 2899.64 1116.45 Q2899.64 1128.12 2895.73 1139.94 Q2891.87 1151.77 2884.06 1164.01 L2875.73 1164.01 Q2882.66 1152.08 2886.04 1140.31 Q2889.48 1128.49 2889.48 1116.45 Q2889.48 1104.42 2886.04 1092.7 Q2882.66 1080.99 2875.73 1069.01 Z" fill="#000000" fill-rule="nonzero" fill-opacity="1" /><polyline clip-path="url(#clip002)" style="stroke:#000000; stroke-linecap:round; stroke-linejoin:round; stroke-width:2; stroke-opacity:0.1; fill:none" points="480.996,792.989 4752.76,792.989 "/>
<polyline clip-path="url(#clip002)" style="stroke:#000000; stroke-linecap:round; stroke-linejoin:round; stroke-width:2; stroke-opacity:0.1; fill:none" points="480.996,672.637 4752.76,672.637 "/>
<polyline clip-path="url(#clip002)" style="stroke:#000000; stroke-linecap:round; stroke-linejoin:round; stroke-width:2; stroke-opacity:0.1; fill:none" points="480.996,552.286 4752.76,552.286 "/>
<polyline clip-path="url(#clip002)" style="stroke:#000000; stroke-linecap:round; stroke-linejoin:round; stroke-width:2; stroke-opacity:0.1; fill:none" points="480.996,431.934 4752.76,431.934 "/>
<polyline clip-path="url(#clip002)" style="stroke:#000000; stroke-linecap:round; stroke-linejoin:round; stroke-width:2; stroke-opacity:0.1; fill:none" points="480.996,311.583 4752.76,311.583 "/>
<polyline clip-path="url(#clip002)" style="stroke:#000000; stroke-linecap:round; stroke-linejoin:round; stroke-width:2; stroke-opacity:0.1; fill:none" points="480.996,191.231 4752.76,191.231 "/>
<polyline clip-path="url(#clip002)" style="stroke:#000000; stroke-linecap:round; stroke-linejoin:round; stroke-width:2; stroke-opacity:0.1; fill:none" points="480.996,70.8798 4752.76,70.8798 "/>
<polyline clip-path="url(#clip000)" style="stroke:#000000; stroke-linecap:round; stroke-linejoin:round; stroke-width:4; stroke-opacity:1; fill:none" points="480.996,880.951 480.996,47.2441 "/>
<polyline clip-path="url(#clip000)" style="stroke:#000000; stroke-linecap:round; stroke-linejoin:round; stroke-width:4; stroke-opacity:1; fill:none" points="480.996,792.989 499.894,792.989 "/>
<polyline clip-path="url(#clip000)" style="stroke:#000000; stroke-linecap:round; stroke-linejoin:round; stroke-width:4; stroke-opacity:1; fill:none" points="480.996,672.637 499.894,672.637 "/>
<polyline clip-path="url(#clip000)" style="stroke:#000000; stroke-linecap:round; stroke-linejoin:round; stroke-width:4; stroke-opacity:1; fill:none" points="480.996,552.286 499.894,552.286 "/>
<polyline clip-path="url(#clip000)" style="stroke:#000000; stroke-linecap:round; stroke-linejoin:round; stroke-width:4; stroke-opacity:1; fill:none" points="480.996,431.934 499.894,431.934 "/>
<polyline clip-path="url(#clip000)" style="stroke:#000000; stroke-linecap:round; stroke-linejoin:round; stroke-width:4; stroke-opacity:1; fill:none" points="480.996,311.583 499.894,311.583 "/>
<polyline clip-path="url(#clip000)" style="stroke:#000000; stroke-linecap:round; stroke-linejoin:round; stroke-width:4; stroke-opacity:1; fill:none" points="480.996,191.231 499.894,191.231 "/>
<polyline clip-path="url(#clip000)" style="stroke:#000000; stroke-linecap:round; stroke-linejoin:round; stroke-width:4; stroke-opacity:1; fill:none" points="480.996,70.8798 499.894,70.8798 "/>
<path clip-path="url(#clip000)" d="M194.785 793.891 L254.136 793.891 L254.136 801.762 L194.785 801.762 L194.785 793.891 Z" fill="#000000" fill-rule="nonzero" fill-opacity="1" /><path clip-path="url(#clip000)" d="M294.321 764.586 Q287.099 764.586 283.441 771.716 Q279.83 778.799 279.83 793.058 Q279.83 807.271 283.441 814.401 Q287.099 821.484 294.321 821.484 Q301.59 821.484 305.201 814.401 Q308.858 807.271 308.858 793.058 Q308.858 778.799 305.201 771.716 Q301.59 764.586 294.321 764.586 M294.321 757.179 Q305.941 757.179 312.052 766.392 Q318.21 775.558 318.21 793.058 Q318.21 810.512 312.052 819.725 Q305.941 828.891 294.321 828.891 Q282.701 828.891 276.543 819.725 Q270.432 810.512 270.432 793.058 Q270.432 775.558 276.543 766.392 Q282.701 757.179 294.321 757.179 Z" fill="#000000" fill-rule="nonzero" fill-opacity="1" /><path clip-path="url(#clip000)" d="M334.645 815.789 L344.413 815.789 L344.413 827.549 L334.645 827.549 L334.645 815.789 Z" fill="#000000" fill-rule="nonzero" fill-opacity="1" /><path clip-path="url(#clip000)" d="M385.941 789.262 Q379.645 789.262 375.941 793.567 Q372.284 797.873 372.284 805.373 Q372.284 812.827 375.941 817.178 Q379.645 821.484 385.941 821.484 Q392.237 821.484 395.895 817.178 Q399.598 812.827 399.598 805.373 Q399.598 797.873 395.895 793.567 Q392.237 789.262 385.941 789.262 M404.506 759.956 L404.506 768.475 Q400.987 766.808 397.376 765.929 Q393.811 765.049 390.293 765.049 Q381.034 765.049 376.126 771.299 Q371.265 777.549 370.571 790.188 Q373.302 786.16 377.422 784.03 Q381.543 781.854 386.496 781.854 Q396.913 781.854 402.932 788.197 Q408.996 794.493 408.996 805.373 Q408.996 816.021 402.7 822.456 Q396.404 828.891 385.941 828.891 Q373.95 828.891 367.608 819.725 Q361.265 810.512 361.265 793.058 Q361.265 776.669 369.043 766.947 Q376.821 757.179 389.922 757.179 Q393.441 757.179 397.006 757.873 Q400.617 758.568 404.506 759.956 Z" fill="#000000" fill-rule="nonzero" fill-opacity="1" /><path clip-path="url(#clip000)" d="M197.099 673.54 L256.451 673.54 L256.451 681.41 L197.099 681.41 L197.099 673.54 Z" fill="#000000" fill-rule="nonzero" fill-opacity="1" /><path clip-path="url(#clip000)" d="M296.636 644.235 Q289.414 644.235 285.756 651.364 Q282.145 658.447 282.145 672.707 Q282.145 686.92 285.756 694.049 Q289.414 701.132 296.636 701.132 Q303.904 701.132 307.515 694.049 Q311.173 686.92 311.173 672.707 Q311.173 658.447 307.515 651.364 Q303.904 644.235 296.636 644.235 M296.636 636.827 Q308.256 636.827 314.367 646.04 Q320.525 655.207 320.525 672.707 Q320.525 690.16 314.367 699.373 Q308.256 708.54 296.636 708.54 Q285.016 708.54 278.858 699.373 Q272.747 690.16 272.747 672.707 Q272.747 655.207 278.858 646.04 Q285.016 636.827 296.636 636.827 Z" fill="#000000" fill-rule="nonzero" fill-opacity="1" /><path clip-path="url(#clip000)" d="M336.96 695.438 L346.728 695.438 L346.728 707.197 L336.96 707.197 L336.96 695.438 Z" fill="#000000" fill-rule="nonzero" fill-opacity="1" /><path clip-path="url(#clip000)" d="M367.191 638.077 L403.904 638.077 L403.904 645.948 L375.756 645.948 L375.756 662.892 Q377.793 662.197 379.83 661.873 Q381.867 661.503 383.904 661.503 Q395.478 661.503 402.237 667.846 Q408.996 674.188 408.996 685.021 Q408.996 696.179 402.052 702.382 Q395.108 708.54 382.469 708.54 Q378.117 708.54 373.58 707.799 Q369.089 707.058 364.274 705.577 L364.274 696.179 Q368.441 698.447 372.885 699.558 Q377.33 700.669 382.284 700.669 Q390.293 700.669 394.969 696.457 Q399.645 692.244 399.645 685.021 Q399.645 677.799 394.969 673.586 Q390.293 669.373 382.284 669.373 Q378.534 669.373 374.784 670.207 Q371.08 671.04 367.191 672.799 L367.191 638.077 Z" fill="#000000" fill-rule="nonzero" fill-opacity="1" /><path clip-path="url(#clip000)" d="M194.136 553.188 L253.488 553.188 L253.488 561.059 L194.136 561.059 L194.136 553.188 Z" fill="#000000" fill-rule="nonzero" fill-opacity="1" /><path clip-path="url(#clip000)" d="M293.673 523.883 Q286.451 523.883 282.793 531.013 Q279.182 538.096 279.182 552.355 Q279.182 566.568 282.793 573.698 Q286.451 580.781 293.673 580.781 Q300.941 580.781 304.552 573.698 Q308.21 566.568 308.21 552.355 Q308.21 538.096 304.552 531.013 Q300.941 523.883 293.673 523.883 M293.673 516.476 Q305.293 516.476 311.404 525.689 Q317.562 534.855 317.562 552.355 Q317.562 569.809 311.404 579.022 Q305.293 588.188 293.673 588.188 Q282.053 588.188 275.895 579.022 Q269.784 569.809 269.784 552.355 Q269.784 534.855 275.895 525.689 Q282.053 516.476 293.673 516.476 Z" fill="#000000" fill-rule="nonzero" fill-opacity="1" /><path clip-path="url(#clip000)" d="M333.997 575.087 L343.765 575.087 L343.765 586.846 L333.997 586.846 L333.997 575.087 Z" fill="#000000" fill-rule="nonzero" fill-opacity="1" /><path clip-path="url(#clip000)" d="M389.83 525.874 L366.219 562.772 L389.83 562.772 L389.83 525.874 M387.376 517.726 L399.135 517.726 L399.135 562.772 L408.996 562.772 L408.996 570.55 L399.135 570.55 L399.135 586.846 L389.83 586.846 L389.83 570.55 L358.626 570.55 L358.626 561.522 L387.376 517.726 Z" fill="#000000" fill-rule="nonzero" fill-opacity="1" /><path clip-path="url(#clip000)" d="M196.405 432.837 L255.756 432.837 L255.756 440.707 L196.405 440.707 L196.405 432.837 Z" fill="#000000" fill-rule="nonzero" fill-opacity="1" /><path clip-path="url(#clip000)" d="M295.941 403.532 Q288.719 403.532 285.062 410.661 Q281.451 417.745 281.451 432.004 Q281.451 446.217 285.062 453.346 Q288.719 460.429 295.941 460.429 Q303.21 460.429 306.821 453.346 Q310.478 446.217 310.478 432.004 Q310.478 417.745 306.821 410.661 Q303.21 403.532 295.941 403.532 M295.941 396.124 Q307.562 396.124 313.673 405.337 Q319.83 414.504 319.83 432.004 Q319.83 449.457 313.673 458.67 Q307.562 467.837 295.941 467.837 Q284.321 467.837 278.164 458.67 Q272.053 449.457 272.053 432.004 Q272.053 414.504 278.164 405.337 Q284.321 396.124 295.941 396.124 Z" fill="#000000" fill-rule="nonzero" fill-opacity="1" /><path clip-path="url(#clip000)" d="M336.265 454.735 L346.034 454.735 L346.034 466.494 L336.265 466.494 L336.265 454.735 Z" fill="#000000" fill-rule="nonzero" fill-opacity="1" /><path clip-path="url(#clip000)" d="M394.737 429.226 Q401.45 430.661 405.2 435.198 Q408.996 439.735 408.996 446.402 Q408.996 456.633 401.959 462.235 Q394.922 467.837 381.959 467.837 Q377.608 467.837 372.978 466.957 Q368.395 466.124 363.487 464.411 L363.487 455.383 Q367.376 457.652 372.006 458.809 Q376.635 459.967 381.682 459.967 Q390.478 459.967 395.061 456.494 Q399.691 453.022 399.691 446.402 Q399.691 440.291 395.385 436.865 Q391.126 433.393 383.487 433.393 L375.432 433.393 L375.432 425.707 L383.858 425.707 Q390.756 425.707 394.413 422.976 Q398.07 420.198 398.07 415.013 Q398.07 409.689 394.274 406.865 Q390.524 403.995 383.487 403.995 Q379.645 403.995 375.247 404.828 Q370.848 405.661 365.571 407.42 L365.571 399.087 Q370.895 397.606 375.524 396.865 Q380.2 396.124 384.321 396.124 Q394.969 396.124 401.172 400.985 Q407.376 405.8 407.376 414.041 Q407.376 419.782 404.089 423.763 Q400.802 427.698 394.737 429.226 Z" fill="#000000" fill-rule="nonzero" fill-opacity="1" /><path clip-path="url(#clip000)" d="M198.303 312.486 L257.655 312.486 L257.655 320.356 L198.303 320.356 L198.303 312.486 Z" fill="#000000" fill-rule="nonzero" fill-opacity="1" /><path clip-path="url(#clip000)" d="M297.84 283.18 Q290.617 283.18 286.96 290.31 Q283.349 297.393 283.349 311.652 Q283.349 325.865 286.96 332.995 Q290.617 340.078 297.84 340.078 Q305.108 340.078 308.719 332.995 Q312.376 325.865 312.376 311.652 Q312.376 297.393 308.719 290.31 Q305.108 283.18 297.84 283.18 M297.84 275.773 Q309.46 275.773 315.571 284.986 Q321.728 294.152 321.728 311.652 Q321.728 329.106 315.571 338.319 Q309.46 347.485 297.84 347.485 Q286.219 347.485 280.062 338.319 Q273.951 329.106 273.951 311.652 Q273.951 294.152 280.062 284.986 Q286.219 275.773 297.84 275.773 Z" fill="#000000" fill-rule="nonzero" fill-opacity="1" /><path clip-path="url(#clip000)" d="M338.163 334.384 L347.932 334.384 L347.932 346.143 L338.163 346.143 L338.163 334.384 Z" fill="#000000" fill-rule="nonzero" fill-opacity="1" /><path clip-path="url(#clip000)" d="M376.358 338.272 L408.996 338.272 L408.996 346.143 L365.108 346.143 L365.108 338.272 Q370.432 332.763 379.598 323.504 Q388.811 314.198 391.172 311.513 Q395.663 306.467 397.422 302.995 Q399.228 299.476 399.228 296.097 Q399.228 290.588 395.339 287.115 Q391.496 283.643 385.293 283.643 Q380.895 283.643 375.987 285.171 Q371.126 286.699 365.571 289.8 L365.571 280.356 Q371.219 278.088 376.126 276.93 Q381.034 275.773 385.108 275.773 Q395.848 275.773 402.237 281.143 Q408.626 286.513 408.626 295.495 Q408.626 299.754 407.006 303.597 Q405.432 307.393 401.219 312.578 Q400.061 313.921 393.858 320.356 Q387.654 326.745 376.358 338.272 Z" fill="#000000" fill-rule="nonzero" fill-opacity="1" /><path clip-path="url(#clip000)" d="M197.562 192.134 L256.914 192.134 L256.914 200.004 L197.562 200.004 L197.562 192.134 Z" fill="#000000" fill-rule="nonzero" fill-opacity="1" /><path clip-path="url(#clip000)" d="M297.099 162.829 Q289.877 162.829 286.219 169.958 Q282.608 177.042 282.608 191.301 Q282.608 205.514 286.219 212.643 Q289.877 219.727 297.099 219.727 Q304.367 219.727 307.978 212.643 Q311.636 205.514 311.636 191.301 Q311.636 177.042 307.978 169.958 Q304.367 162.829 297.099 162.829 M297.099 155.421 Q308.719 155.421 314.83 164.634 Q320.988 173.801 320.988 191.301 Q320.988 208.754 314.83 217.967 Q308.719 227.134 297.099 227.134 Q285.478 227.134 279.321 217.967 Q273.21 208.754 273.21 191.301 Q273.21 173.801 279.321 164.634 Q285.478 155.421 297.099 155.421 Z" fill="#000000" fill-rule="nonzero" fill-opacity="1" /><path clip-path="url(#clip000)" d="M337.423 214.032 L347.191 214.032 L347.191 225.791 L337.423 225.791 L337.423 214.032 Z" fill="#000000" fill-rule="nonzero" fill-opacity="1" /><path clip-path="url(#clip000)" d="M369.182 217.921 L384.459 217.921 L384.459 165.19 L367.839 168.523 L367.839 160.005 L384.367 156.671 L393.719 156.671 L393.719 217.921 L408.996 217.921 L408.996 225.791 L369.182 225.791 L369.182 217.921 Z" fill="#000000" fill-rule="nonzero" fill-opacity="1" /><path clip-path="url(#clip000)" d="M294.645 42.4772 Q287.423 42.4772 283.766 49.6068 Q280.154 56.6901 280.154 70.9493 Q280.154 85.1621 283.766 92.2917 Q287.423 99.375 294.645 99.375 Q301.914 99.375 305.525 92.2917 Q309.182 85.1621 309.182 70.9493 Q309.182 56.6901 305.525 49.6068 Q301.914 42.4772 294.645 42.4772 M294.645 35.0698 Q306.265 35.0698 312.376 44.2827 Q318.534 53.4493 318.534 70.9493 Q318.534 88.4029 312.376 97.6158 Q306.265 106.782 294.645 106.782 Q283.025 106.782 276.867 97.6158 Q270.756 88.4029 270.756 70.9493 Q270.756 53.4493 276.867 44.2827 Q283.025 35.0698 294.645 35.0698 Z" fill="#000000" fill-rule="nonzero" fill-opacity="1" /><path clip-path="url(#clip000)" d="M334.969 93.6806 L344.737 93.6806 L344.737 105.44 L334.969 105.44 L334.969 93.6806 Z" fill="#000000" fill-rule="nonzero" fill-opacity="1" /><path clip-path="url(#clip000)" d="M385.108 42.4772 Q377.885 42.4772 374.228 49.6068 Q370.617 56.6901 370.617 70.9493 Q370.617 85.1621 374.228 92.2917 Q377.885 99.375 385.108 99.375 Q392.376 99.375 395.987 92.2917 Q399.645 85.1621 399.645 70.9493 Q399.645 56.6901 395.987 49.6068 Q392.376 42.4772 385.108 42.4772 M385.108 35.0698 Q396.728 35.0698 402.839 44.2827 Q408.996 53.4493 408.996 70.9493 Q408.996 88.4029 402.839 97.6158 Q396.728 106.782 385.108 106.782 Q373.487 106.782 367.33 97.6158 Q361.219 88.4029 361.219 70.9493 Q361.219 53.4493 367.33 44.2827 Q373.487 35.0698 385.108 35.0698 Z" fill="#000000" fill-rule="nonzero" fill-opacity="1" /><path clip-path="url(#clip000)" d="M21.0484 748.523 L21.0484 738.003 L52.9232 738.003 L52.9232 699.774 L21.0484 699.774 L21.0484 689.253 L98.8084 689.253 L98.8084 699.774 L61.7773 699.774 L61.7773 738.003 L98.8084 738.003 L98.8084 748.523 L21.0484 748.523 Z" fill="#000000" fill-rule="nonzero" fill-opacity="1" /><path clip-path="url(#clip000)" d="M28.1838 636.753 Q28.1838 648.211 36.7254 654.982 Q45.267 661.701 60.0065 661.701 Q74.6939 661.701 83.2355 654.982 Q91.7772 648.211 91.7772 636.753 Q91.7772 625.295 83.2355 618.628 Q74.6939 611.91 60.0065 611.91 Q45.267 611.91 36.7254 618.628 Q28.1838 625.295 28.1838 636.753 M19.6421 636.753 Q19.6421 620.399 30.6317 610.607 Q41.5691 600.816 60.0065 600.816 Q78.3918 600.816 89.3813 610.607 Q100.319 620.399 100.319 636.753 Q100.319 653.159 89.3813 663.003 Q78.4439 672.795 60.0065 672.795 Q41.5691 672.795 30.6317 663.003 Q19.6421 653.159 19.6421 636.753 Z" fill="#000000" fill-rule="nonzero" fill-opacity="1" /><path clip-path="url(#clip000)" d="M89.9543 574.358 L89.9543 537.639 L98.8084 537.639 L98.8084 587.014 L89.9543 587.014 Q83.7564 581.024 73.3398 570.712 Q62.8711 560.347 59.8503 557.691 Q54.1732 552.639 50.267 550.66 Q46.3087 548.629 42.5066 548.629 Q36.3087 548.629 32.4025 553.004 Q28.4963 557.326 28.4963 564.306 Q28.4963 569.253 30.215 574.774 Q31.9337 580.243 35.4233 586.493 L24.7984 586.493 Q22.2463 580.139 20.9442 574.618 Q19.6421 569.097 19.6421 564.514 Q19.6421 552.431 25.6838 545.243 Q31.7254 538.056 41.8295 538.056 Q46.6212 538.056 50.9441 539.879 Q55.2149 541.649 61.0482 546.389 Q62.5586 547.691 69.7981 554.67 Q76.9856 561.649 89.9543 574.358 Z" fill="#000000" fill-rule="nonzero" fill-opacity="1" /><path clip-path="url(#clip000)" d="M17.8713 459.983 Q29.8504 466.962 41.5691 470.348 Q53.2878 473.733 65.319 473.733 Q77.3502 473.733 89.173 470.348 Q100.944 466.91 112.871 459.983 L112.871 468.317 Q100.631 476.129 88.8084 480.035 Q76.9856 483.889 65.319 483.889 Q53.7045 483.889 41.9337 480.035 Q30.1629 476.181 17.8713 468.317 L17.8713 459.983 Z" fill="#000000" fill-rule="nonzero" fill-opacity="1" /><path clip-path="url(#clip000)" d="M90.0584 432.119 L120.996 432.119 L120.996 441.754 L40.4754 441.754 L40.4754 432.119 L49.3295 432.119 Q44.1212 429.098 41.6212 424.515 Q39.0691 419.879 39.0691 413.473 Q39.0691 402.848 47.5066 396.234 Q55.944 389.567 69.694 389.567 Q83.4439 389.567 91.8813 396.234 Q100.319 402.848 100.319 413.473 Q100.319 419.879 97.8188 424.515 Q95.2667 429.098 90.0584 432.119 M69.694 399.515 Q59.1211 399.515 53.1315 403.89 Q47.0899 408.213 47.0899 415.817 Q47.0899 423.421 53.1315 427.796 Q59.1211 432.119 69.694 432.119 Q80.2668 432.119 86.3084 427.796 Q92.298 423.421 92.298 415.817 Q92.298 408.213 86.3084 403.89 Q80.2668 399.515 69.694 399.515 Z" fill="#000000" fill-rule="nonzero" fill-opacity="1" /><path clip-path="url(#clip000)" d="M90.0584 364.411 L120.996 364.411 L120.996 374.046 L40.4754 374.046 L40.4754 364.411 L49.3295 364.411 Q44.1212 361.39 41.6212 356.807 Q39.0691 352.171 39.0691 345.765 Q39.0691 335.14 47.5066 328.526 Q55.944 321.859 69.694 321.859 Q83.4439 321.859 91.8813 328.526 Q100.319 335.14 100.319 345.765 Q100.319 352.171 97.8188 356.807 Q95.2667 361.39 90.0584 364.411 M69.694 331.807 Q59.1211 331.807 53.1315 336.182 Q47.0899 340.505 47.0899 348.109 Q47.0899 355.713 53.1315 360.088 Q59.1211 364.411 69.694 364.411 Q80.2668 364.411 86.3084 360.088 Q92.298 355.713 92.298 348.109 Q92.298 340.505 86.3084 336.182 Q80.2668 331.807 69.694 331.807 Z" fill="#000000" fill-rule="nonzero" fill-opacity="1" /><path clip-path="url(#clip000)" d="M51.6732 260.557 Q45.2149 256.963 42.142 251.964 Q39.0691 246.964 39.0691 240.193 Q39.0691 231.078 45.4753 226.13 Q51.8295 221.182 63.6002 221.182 L98.8084 221.182 L98.8084 230.818 L63.9127 230.818 Q55.5274 230.818 51.4649 233.787 Q47.4024 236.755 47.4024 242.849 Q47.4024 250.297 52.3503 254.62 Q57.2982 258.943 65.8398 258.943 L98.8084 258.943 L98.8084 268.578 L63.9127 268.578 Q55.4753 268.578 51.4649 271.547 Q47.4024 274.515 47.4024 280.713 Q47.4024 288.057 52.4024 292.38 Q57.3503 296.703 65.8398 296.703 L98.8084 296.703 L98.8084 306.338 L40.4754 306.338 L40.4754 296.703 L49.5378 296.703 Q44.1733 293.422 41.6212 288.838 Q39.0691 284.255 39.0691 277.953 Q39.0691 271.599 42.2983 267.172 Q45.5274 262.693 51.6732 260.557 Z" fill="#000000" fill-rule="nonzero" fill-opacity="1" /><path clip-path="url(#clip000)" d="M17.8713 203.578 L17.8713 195.245 Q30.1629 187.433 41.9337 183.578 Q53.7045 179.672 65.319 179.672 Q76.9856 179.672 88.8084 183.578 Q100.631 187.433 112.871 195.245 L112.871 203.578 Q100.944 196.651 89.173 193.266 Q77.3502 189.828 65.319 189.828 Q53.2878 189.828 41.5691 193.266 Q29.8504 196.651 17.8713 203.578 Z" fill="#000000" fill-rule="nonzero" fill-opacity="1" /><path clip-path="url(#clip002)" d="M601.895 73.3703 L620.639 680.283 L639.383 686.68 L658.127 688.772 L676.871 692.274 L695.615 698.272 L714.359 703.741 L733.103 709.25 L751.847 709.373 L770.591 711.178 L789.335 726.141 L808.079 712.916 L826.823 711.336 L845.567 709.431 L864.311 703.735 L883.055 696.359 L901.799 695.037 L920.543 857.356 L939.287 695.09 L958.031 758.21 L976.775 691.524 L995.519 690.749 L1014.26 689.949 L1033.01 685.701 L1051.75 686.708 L1070.5 731.517 L1089.24 688.645 L1107.98 707.215 L1126.73 692.666 L1145.47 698.609 L1164.22 703.81 L1182.96 709.668 L1201.7 708.847 L1220.45 711.505 L1239.19 713.242 L1257.94 713.649 L1276.68 711.685 L1295.42 709.189 L1314.17 703.474 L1332.91 696.383 L1351.66 689.48 L1370.4 780.58 L1389.14 716.653 L1407.89 752.159 L1426.63 691.404 L1445.38 690.928 L1464.12 689.893 L1482.86 685.767 L1501.61 686.701 L1520.35 690.056 L1539.1 688.403 L1557.84 689.705 L1576.58 692.554 L1595.33 698.614 L1614.07 703.789 L1632.82 709.713 L1651.56 709.019 L1670.3 711.601 L1689.05 713.133 L1707.79 713.63 L1726.54 711.705 L1745.28 709.231 L1764.02 703.47 L1782.77 696.344 L1801.51 689.574 L1820.26 815.292 L1839 705.632 L1857.74 752.308 L1876.49 691.444 L1895.23 690.892 L1913.98 689.932 L1932.72 685.749 L1951.46 686.691 L1970.21 690.039 L1988.95 688.687 L2007.7 689.592 L2026.44 692.608 L2045.18 698.644 L2063.93 703.799 L2082.67 709.728 L2101.42 708.939 L2120.16 711.55 L2138.9 713.182 L2157.65 713.672 L2176.39 711.679 L2195.14 709.207 L2213.88 703.495 L2232.62 696.355 L2251.37 689.53 L2270.11 799.096 L2288.86 710.539 L2307.6 752.342 L2326.34 691.409 L2345.09 690.856 L2363.83 689.997 L2382.58 685.712 L2401.32 686.808 L2420.06 690.042 L2438.81 688.706 L2457.55 689.549 L2476.3 692.566 L2495.04 698.636 L2513.78 703.797 L2532.53 709.728 L2551.27 708.986 L2570.02 711.582 L2588.76 713.161 L2607.5 713.652 L2626.25 711.719 L2644.99 709.241 L2663.74 703.483 L2682.48 696.346 L2701.22 689.564 L2719.97 806.131 L2738.71 708.33 L2757.46 752.979 L2776.2 691.589 L2794.94 690.709 L2813.69 690.026 L2832.43 685.798 L2851.18 686.727 L2869.92 690.046 L2888.66 688.671 L2907.41 689.613 L2926.15 692.574 L2944.9 698.653 L2963.64 703.797 L2982.38 709.718 L3001.13 708.95 L3019.87 711.563 L3038.62 713.171 L3057.36 713.663 L3076.1 711.693 L3094.85 709.208 L3113.59 703.476 L3132.34 696.336 L3151.08 689.562 L3169.82 803.546 L3188.57 709.095 L3207.31 752.257 L3226.06 691.522 L3244.8 690.825 L3263.54 689.891 L3282.29 685.855 L3301.03 686.763 L3319.78 690.05 L3338.52 688.701 L3357.26 689.588 L3376.01 692.575 L3394.75 698.636 L3413.5 703.806 L3432.24 709.736 L3450.98 708.979 L3469.73 711.584 L3488.47 713.177 L3507.22 713.665 L3525.96 711.688 L3544.7 709.22 L3563.45 703.474 L3582.19 696.33 L3600.94 689.552 L3619.68 804.682 L3638.42 708.763 L3657.17 753.244 L3675.91 691.428 L3694.66 690.898 L3713.4 689.909 L3732.14 685.768 L3750.89 686.821 L3769.63 690.048 L3788.38 688.657 L3807.12 689.569 L3825.86 692.581 L3844.61 698.639 L3863.35 703.809 L3882.1 709.724 L3900.84 708.944 L3919.58 711.562 L3938.33 713.178 L3957.07 713.674 L3975.82 711.702 L3994.56 709.21 L4013.3 703.493 L4032.05 696.344 L4050.79 689.554 L4069.54 804.666 L4088.28 708.72 L4107.02 752.184 L4125.77 691.417 L4144.51 690.902 L4163.26 689.919 L4182 685.757 L4200.74 686.672 L4219.49 690.035 L4238.23 688.619 L4256.98 689.663 L4275.72 692.573 L4294.46 698.646 L4313.21 703.792 L4331.95 709.727 L4350.7 708.978 L4369.44 711.578 L4388.18 713.175 L4406.93 713.664 L4425.67 711.682 L4444.42 709.224 L4463.16 703.475 L4481.9 696.339 L4500.65 689.545 L4519.39 804.305 L4538.14 708.79 L4556.88 752.345 L4575.63 691.42 L4594.37 690.888 L4613.11 689.939 L4631.86 685.818 L4631.86 211.83 L4613.11 211.785 L4594.37 209.918 L4575.63 209.568 L4556.88 209.68 L4538.14 207.607 L4519.39 209.887 L4500.65 212.503 L4481.9 213.987 L4463.16 214.692 L4444.42 215.711 L4425.67 215.984 L4406.93 213.104 L4388.18 212.605 L4369.44 215.249 L4350.7 214.215 L4331.95 216.284 L4313.21 216.12 L4294.46 215.454 L4275.72 214.446 L4256.98 213.944 L4238.23 213.663 L4219.49 214.611 L4200.74 212.583 L4182 211.836 L4163.26 211.778 L4144.51 209.912 L4125.77 209.576 L4107.02 209.717 L4088.28 207.611 L4069.54 209.896 L4050.79 212.492 L4032.05 214.012 L4013.3 214.697 L3994.56 215.709 L3975.82 216.054 L3957.07 213.182 L3938.33 212.597 L3919.58 215.206 L3900.84 214.199 L3882.1 216.554 L3863.35 216.113 L3844.61 215.449 L3825.86 214.478 L3807.12 213.903 L3788.38 213.654 L3769.63 214.746 L3750.89 212.579 L3732.14 211.826 L3713.4 211.775 L3694.66 209.922 L3675.91 209.57 L3657.17 209.679 L3638.42 207.617 L3619.68 209.88 L3600.94 212.51 L3582.19 213.978 L3563.45 214.69 L3544.7 215.713 L3525.96 215.989 L3507.22 213.085 L3488.47 212.604 L3469.73 215.251 L3450.98 214.208 L3432.24 216.603 L3413.5 216.135 L3394.75 215.441 L3376.01 214.448 L3357.26 213.931 L3338.52 213.649 L3319.78 214.855 L3301.03 212.579 L3282.29 211.833 L3263.54 211.78 L3244.8 209.915 L3226.06 209.634 L3207.31 209.721 L3188.57 207.631 L3169.82 209.889 L3151.08 212.514 L3132.34 213.991 L3113.59 214.685 L3094.85 215.706 L3076.1 216.033 L3057.36 213.158 L3038.62 212.595 L3019.87 215.224 L3001.13 214.207 L2982.38 216.278 L2963.64 216.108 L2944.9 215.464 L2926.15 214.465 L2907.41 213.904 L2888.66 213.665 L2869.92 214.755 L2851.18 212.573 L2832.43 211.831 L2813.69 211.77 L2794.94 209.927 L2776.2 209.578 L2757.46 209.692 L2738.71 207.612 L2719.97 209.887 L2701.22 212.52 L2682.48 213.993 L2663.74 214.699 L2644.99 215.73 L2626.25 216.029 L2607.5 213.104 L2588.76 212.589 L2570.02 215.254 L2551.27 214.227 L2532.53 216.242 L2513.78 216.122 L2495.04 215.444 L2476.3 214.438 L2457.55 213.937 L2438.81 213.655 L2420.06 214.783 L2401.32 212.57 L2382.58 211.824 L2363.83 211.79 L2345.09 209.918 L2326.34 209.603 L2307.6 209.73 L2288.86 207.626 L2270.11 209.878 L2251.37 212.48 L2232.62 214.009 L2213.88 214.702 L2195.14 215.709 L2176.39 216.029 L2157.65 213.171 L2138.9 212.603 L2120.16 215.209 L2101.42 214.195 L2082.67 216.595 L2063.93 216.109 L2045.18 215.455 L2026.44 214.499 L2007.7 213.898 L1988.95 213.669 L1970.21 214.756 L1951.46 212.577 L1932.72 211.832 L1913.98 211.769 L1895.23 209.924 L1876.49 209.598 L1857.74 209.687 L1839 207.602 L1820.26 209.909 L1801.51 212.531 L1782.77 213.994 L1764.02 214.697 L1745.28 215.757 L1726.54 216.091 L1707.79 213.115 L1689.05 212.548 L1670.3 215.274 L1651.56 214.27 L1632.82 216.372 L1614.07 216.108 L1595.33 215.425 L1576.58 214.436 L1557.84 213.915 L1539.1 213.636 L1520.35 214.853 L1501.61 212.565 L1482.86 211.833 L1464.12 211.751 L1445.38 209.968 L1426.63 209.549 L1407.89 209.699 L1389.14 207.626 L1370.4 209.819 L1351.66 212.445 L1332.91 214.057 L1314.17 214.789 L1295.42 216.014 L1276.68 216.59 L1257.94 213.226 L1239.19 212.56 L1220.45 215.174 L1201.7 214.102 L1182.96 216.24 L1164.22 216.137 L1145.47 215.422 L1126.73 214.552 L1107.98 213.964 L1089.24 213.686 L1070.5 214.977 L1051.75 212.615 L1033.01 211.806 L1014.26 211.918 L995.519 209.923 L976.775 209.698 L958.031 209.636 L939.287 207.39 L920.543 209.68 L901.799 212.554 L883.055 214.488 L864.311 215.52 L845.567 219.414 L826.823 218.669 L808.079 214.673 L789.335 211.389 L770.591 214.494 L751.847 214.584 L733.103 215.683 L714.359 215.611 L695.615 214.683 L676.871 214.008 L658.127 213.662 L639.383 213.269 L620.639 212.701 L601.895 70.8396  Z" fill="#b0b0b0" fill-rule="evenodd" fill-opacity="0.5"/>
<polyline clip-path="url(#clip002)" style="stroke:#b0b0b0; stroke-linecap:round; stroke-linejoin:round; stroke-width:0; stroke-opacity:1; fill:none" points="601.895,70.8866 620.639,232.787 639.383,235.012 658.127,235.084 676.871,234.931 695.615,234.844 714.359,234.736 733.103,235.343 751.847,235.333 770.591,234.856 789.335,235.226 808.079,235.562 826.823,235.352 845.567,235.987 864.311,236.01 883.055,235.61 901.799,235.77 920.543,235.555 939.287,234.967 958.031,235.802 976.775,235.875 995.519,235.273 1014.26,236.343 1033.01,235.4 1051.75,235.52 1070.5,235.885 1089.24,235.624 1107.98,235.454 1126.73,235.435 1145.47,235.512 1164.22,235.261 1182.96,236.247 1201.7,235.072 1220.45,235.341 1239.19,235.551 1257.94,236.052 1276.68,235.421 1295.42,236.017 1314.17,236.087 1332.91,235.597 1351.66,235.591 1370.4,235.481 1389.14,235.109 1407.89,235.918 1426.63,235.839 1445.38,235.405 1464.12,236.242 1482.86,235.466 1501.61,235.501 1520.35,235.837 1539.1,235.598 1557.84,235.416 1576.58,235.326 1595.33,235.51 1614.07,235.228 1632.82,236.252 1651.56,235.267 1670.3,235.421 1689.05,235.439 1707.79,236.031 1726.54,235.443 1745.28,236.063 1764.02,236.073 1782.77,235.569 1801.51,235.678 1820.26,235.559 1839,235.07 1857.74,235.924 1876.49,235.893 1895.23,235.376 1913.98,236.262 1932.72,235.469 1951.46,235.516 1970.21,235.825 1988.95,235.632 2007.7,235.403 2026.44,235.382 2045.18,235.539 2063.93,235.235 2082.67,236.258 2101.42,235.191 2120.16,235.366 2138.9,235.487 2157.65,236.074 2176.39,235.418 2195.14,236.043 2213.88,236.097 2232.62,235.582 2251.37,235.633 2270.11,235.527 2288.86,235.087 2307.6,235.919 2326.34,235.85 2345.09,235.392 2363.83,236.272 2382.58,235.46 2401.32,235.501 2420.06,235.815 2438.81,235.62 2457.55,235.417 2476.3,235.341 2495.04,235.531 2513.78,235.233 2532.53,236.255 2551.27,235.24 2570.02,235.398 2588.76,235.466 2607.5,236.054 2626.25,235.458 2644.99,236.077 2663.74,236.086 2682.48,235.574 2701.22,235.667 2719.97,235.535 2738.71,235.081 2757.46,235.93 2776.2,235.875 2794.94,235.379 2813.69,236.264 2832.43,235.469 2851.18,235.512 2869.92,235.829 2888.66,235.628 2907.41,235.409 2926.15,235.35 2944.9,235.549 2963.64,235.234 2982.38,236.246 3001.13,235.204 3019.87,235.379 3038.62,235.477 3057.36,236.065 3076.1,235.433 3094.85,236.045 3113.59,236.079 3132.34,235.565 3151.08,235.666 3169.82,235.54 3188.57,235.091 3207.31,235.923 3226.06,235.862 3244.8,235.393 3263.54,236.259 3282.29,235.47 3301.03,235.515 3319.78,235.831 3338.52,235.62 3357.26,235.408 3376.01,235.35 3394.75,235.532 3413.5,235.243 3432.24,236.264 3450.98,235.234 3469.73,235.4 3488.47,235.483 3507.22,236.068 3525.96,235.428 3544.7,236.059 3563.45,236.078 3582.19,235.559 3600.94,235.657 3619.68,235.53 3638.42,235.081 3657.17,235.932 3675.91,235.863 3694.66,235.38 3713.4,236.266 3732.14,235.465 3750.89,235.52 3769.63,235.825 3788.38,235.619 3807.12,235.412 3825.86,235.357 3844.61,235.536 3863.35,235.246 3882.1,236.252 3900.84,235.199 3919.58,235.379 3938.33,235.484 3957.07,236.078 3975.82,235.443 3994.56,236.049 4013.3,236.097 4032.05,235.575 4050.79,235.66 4069.54,235.532 4088.28,235.09 4107.02,235.915 4125.77,235.865 4144.51,235.385 4163.26,236.261 4182,235.473 4200.74,235.516 4219.49,235.819 4238.23,235.63 4256.98,235.423 4275.72,235.349 4294.46,235.543 4313.21,235.229 4331.95,236.255 4350.7,235.233 4369.44,235.394 4388.18,235.481 4406.93,236.068 4425.67,235.424 4444.42,236.063 4463.16,236.081 4481.9,235.57 4500.65,235.651 4519.39,235.536 4538.14,235.076 4556.88,235.924 4575.63,235.866 4594.37,235.373 4613.11,236.279 4631.86,235.465 "/>
<path clip-path="url(#clip002)" d="M601.895 70.9125 L620.639 567.725 L639.383 573.993 L658.127 576.653 L676.871 580.539 L695.615 584.997 L714.359 589.65 L733.103 593.481 L751.847 594.758 L770.591 592.181 L789.335 590.759 L808.079 592.021 L826.823 588.673 L845.567 588.553 L864.311 584.108 L883.055 579.827 L901.799 581.879 L920.543 578.755 L939.287 575.351 L958.031 575.709 L976.775 582.739 L995.519 579.257 L1014.26 580.354 L1033.01 574.616 L1051.75 573.764 L1070.5 577 L1089.24 580.023 L1107.98 580.255 L1126.73 584.151 L1145.47 585.885 L1164.22 591.235 L1182.96 594.257 L1201.7 593.242 L1220.45 592.553 L1239.19 593.106 L1257.94 589.77 L1276.68 590.841 L1295.42 588.676 L1314.17 588.681 L1332.91 580.894 L1351.66 581.471 L1370.4 578.651 L1389.14 575.523 L1407.89 581.609 L1426.63 578.264 L1445.38 579.478 L1464.12 580.308 L1482.86 574.616 L1501.61 573.726 L1520.35 576.932 L1539.1 576.007 L1557.84 580.165 L1576.58 583.87 L1595.33 585.836 L1614.07 591.044 L1632.82 594.367 L1651.56 594.517 L1670.3 592.779 L1689.05 592.751 L1707.79 590.812 L1726.54 590.882 L1745.28 588.577 L1764.02 588.708 L1782.77 580.064 L1801.51 581.531 L1820.26 578.7 L1839 575.359 L1857.74 580.25 L1876.49 582.308 L1895.23 579.508 L1913.98 580.376 L1932.72 574.571 L1951.46 573.744 L1970.21 576.901 L1988.95 576.055 L2007.7 580.149 L2026.44 583.961 L2045.18 585.855 L2063.93 591.12 L2082.67 594.318 L2101.42 593.2 L2120.16 592.668 L2138.9 593.041 L2157.65 590.887 L2176.39 590.81 L2195.14 588.626 L2213.88 588.74 L2232.62 580.515 L2251.37 581.566 L2270.11 578.63 L2288.86 575.296 L2307.6 581.734 L2326.34 578.119 L2345.09 579.539 L2363.83 580.69 L2382.58 574.657 L2401.32 573.72 L2420.06 576.951 L2438.81 575.949 L2457.55 580.162 L2476.3 583.931 L2495.04 585.839 L2513.78 591.076 L2532.53 594.345 L2551.27 594.498 L2570.02 592.748 L2588.76 593.007 L2607.5 590.826 L2626.25 590.94 L2644.99 588.636 L2663.74 588.732 L2682.48 580.268 L2701.22 581.459 L2719.97 578.689 L2738.71 575.413 L2757.46 581.677 L2776.2 582.03 L2794.94 579.5 L2813.69 580.352 L2832.43 574.722 L2851.18 573.726 L2869.92 576.912 L2888.66 576.051 L2907.41 580.153 L2926.15 583.925 L2944.9 585.856 L2963.64 591.135 L2982.38 594.307 L3001.13 593.228 L3019.87 592.693 L3038.62 593.037 L3057.36 590.862 L3076.1 590.551 L3094.85 588.775 L3113.59 588.724 L3132.34 580.37 L3151.08 581.497 L3169.82 578.64 L3188.57 575.267 L3207.31 582.249 L3226.06 578.119 L3244.8 579.543 L3263.54 580.35 L3282.29 574.606 L3301.03 573.714 L3319.78 576.949 L3338.52 575.97 L3357.26 580.162 L3376.01 584.104 L3394.75 585.832 L3413.5 591.116 L3432.24 594.33 L3450.98 594.503 L3469.73 592.725 L3488.47 593.03 L3507.22 590.839 L3525.96 590.852 L3544.7 588.721 L3563.45 588.726 L3582.19 580.32 L3600.94 581.518 L3619.68 578.637 L3638.42 575.322 L3657.17 580.721 L3675.91 580.453 L3694.66 579.54 L3713.4 580.323 L3732.14 574.699 L3750.89 573.75 L3769.63 576.903 L3788.38 576.047 L3807.12 580.169 L3825.86 583.94 L3844.61 585.834 L3863.35 591.075 L3882.1 594.346 L3900.84 593.255 L3919.58 592.71 L3938.33 593.032 L3957.07 590.859 L3975.82 590.821 L3994.56 588.623 L4013.3 588.746 L4032.05 580.368 L4050.79 581.516 L4069.54 578.687 L4088.28 575.397 L4107.02 581.404 L4125.77 578.901 L4144.51 579.513 L4163.26 580.338 L4182 574.627 L4200.74 573.699 L4219.49 576.934 L4238.23 576.014 L4256.98 580.2 L4275.72 584.04 L4294.46 585.837 L4313.21 591.104 L4331.95 594.308 L4350.7 594.514 L4369.44 592.721 L4388.18 593.053 L4406.93 590.842 L4425.67 590.832 L4444.42 588.651 L4463.16 588.733 L4481.9 580.336 L4500.65 581.494 L4519.39 578.636 L4538.14 575.252 L4556.88 581.886 L4575.63 579.558 L4594.37 579.543 L4613.11 580.37 L4631.86 574.578 L4631.86 259.332 L4613.11 259.54 L4594.37 258.792 L4575.63 257.756 L4556.88 258.103 L4538.14 257.244 L4519.39 257.983 L4500.65 257.81 L4481.9 258.384 L4463.16 258.754 L4444.42 259.281 L4425.67 257.793 L4406.93 259.003 L4388.18 259.58 L4369.44 260.518 L4350.7 260.306 L4331.95 261.937 L4313.21 261.166 L4294.46 259.038 L4275.72 260.146 L4256.98 259.647 L4238.23 258.522 L4219.49 258.642 L4200.74 257.431 L4182 259.377 L4163.26 259.501 L4144.51 258.827 L4125.77 257.704 L4107.02 258.114 L4088.28 257.39 L4069.54 257.877 L4050.79 257.376 L4032.05 258.359 L4013.3 258.807 L3994.56 259.368 L3975.82 257.84 L3957.07 259.21 L3938.33 259.535 L3919.58 260.483 L3900.84 260.36 L3882.1 261.931 L3863.35 261.141 L3844.61 259.037 L3825.86 260.142 L3807.12 259.651 L3788.38 258.63 L3769.63 258.684 L3750.89 257.388 L3732.14 259.548 L3713.4 259.54 L3694.66 259.105 L3675.91 257.726 L3657.17 258.003 L3638.42 257.489 L3619.68 257.803 L3600.94 257.268 L3582.19 258.484 L3563.45 258.719 L3544.7 259.096 L3525.96 257.846 L3507.22 259.123 L3488.47 259.598 L3469.73 260.444 L3450.98 260.363 L3432.24 261.938 L3413.5 261.092 L3394.75 259.229 L3376.01 260.161 L3357.26 259.653 L3338.52 258.347 L3319.78 258.717 L3301.03 257.487 L3282.29 259.469 L3263.54 259.528 L3244.8 258.793 L3226.06 257.745 L3207.31 258.081 L3188.57 257.356 L3169.82 257.788 L3151.08 257.382 L3132.34 258.417 L3113.59 258.767 L3094.85 259.343 L3076.1 257.839 L3057.36 259.18 L3038.62 259.584 L3019.87 260.412 L3001.13 260.328 L2982.38 261.933 L2963.64 261.239 L2944.9 258.987 L2926.15 260.096 L2907.41 259.698 L2888.66 258.358 L2869.92 258.681 L2851.18 257.498 L2832.43 259.432 L2813.69 259.553 L2794.94 258.79 L2776.2 257.78 L2757.46 258.184 L2738.71 257.353 L2719.97 257.817 L2701.22 257.38 L2682.48 258.402 L2663.74 258.723 L2644.99 259.336 L2626.25 257.877 L2607.5 259.141 L2588.76 259.507 L2570.02 260.468 L2551.27 260.434 L2532.53 261.964 L2513.78 261.038 L2495.04 258.881 L2476.3 260.133 L2457.55 259.937 L2438.81 258.569 L2420.06 258.633 L2401.32 257.494 L2382.58 259.611 L2363.83 259.551 L2345.09 259.129 L2326.34 257.735 L2307.6 258.049 L2288.86 257.507 L2270.11 257.822 L2251.37 257.217 L2232.62 258.52 L2213.88 258.839 L2195.14 259.357 L2176.39 257.807 L2157.65 259.216 L2138.9 259.618 L2120.16 260.469 L2101.42 260.303 L2082.67 261.926 L2063.93 261.068 L2045.18 259.119 L2026.44 260.165 L2007.7 259.79 L1988.95 258.539 L1970.21 258.751 L1951.46 257.528 L1932.72 259.459 L1913.98 259.494 L1895.23 259.022 L1876.49 257.756 L1857.74 258.12 L1839 257.432 L1820.26 257.926 L1801.51 257.505 L1782.77 258.37 L1764.02 258.743 L1745.28 259.244 L1726.54 257.836 L1707.79 258.829 L1689.05 259.483 L1670.3 260.598 L1651.56 260.108 L1632.82 261.837 L1614.07 261.16 L1595.33 258.72 L1576.58 260.045 L1557.84 259.952 L1539.1 258.426 L1520.35 258.594 L1501.61 257.586 L1482.86 259.186 L1464.12 259.552 L1445.38 258.948 L1426.63 257.704 L1407.89 258.088 L1389.14 257.426 L1370.4 257.954 L1351.66 257.168 L1332.91 258.421 L1314.17 258.803 L1295.42 259.192 L1276.68 257.816 L1257.94 259.134 L1239.19 259.618 L1220.45 260.119 L1201.7 259.865 L1182.96 261.793 L1164.22 260.84 L1145.47 258.904 L1126.73 260.155 L1107.98 258.546 L1089.24 258.455 L1070.5 258.463 L1051.75 257.604 L1033.01 258.673 L1014.26 259.612 L995.519 259.017 L976.775 257.76 L958.031 257.963 L939.287 257.34 L920.543 257.881 L901.799 257.287 L883.055 257.701 L864.311 258.787 L845.567 259.058 L826.823 257.826 L808.079 258.918 L789.335 259.046 L770.591 259.307 L751.847 260.12 L733.103 260.846 L714.359 260.302 L695.615 258.726 L676.871 257.71 L658.127 257.946 L639.383 257.953 L620.639 255.872 L601.895 70.8579  Z" fill="#777777" fill-rule="evenodd" fill-opacity="0.5"/>
<polyline clip-path="url(#clip002)" style="stroke:#777777; stroke-linecap:round; stroke-linejoin:round; stroke-width:0; stroke-opacity:1; fill:none" points="601.895,70.8866 620.639,232.787 639.383,235.012 658.127,235.084 676.871,234.931 695.615,234.844 714.359,234.736 733.103,235.343 751.847,235.333 770.591,234.856 789.335,235.226 808.079,235.562 826.823,235.352 845.567,235.987 864.311,236.01 883.055,235.61 901.799,235.77 920.543,235.555 939.287,234.967 958.031,235.802 976.775,235.875 995.519,235.273 1014.26,236.343 1033.01,235.4 1051.75,235.52 1070.5,235.885 1089.24,235.624 1107.98,235.454 1126.73,235.435 1145.47,235.512 1164.22,235.261 1182.96,236.247 1201.7,235.072 1220.45,235.341 1239.19,235.551 1257.94,236.052 1276.68,235.421 1295.42,236.017 1314.17,236.087 1332.91,235.597 1351.66,235.591 1370.4,235.481 1389.14,235.109 1407.89,235.918 1426.63,235.839 1445.38,235.405 1464.12,236.242 1482.86,235.466 1501.61,235.501 1520.35,235.837 1539.1,235.598 1557.84,235.416 1576.58,235.326 1595.33,235.51 1614.07,235.228 1632.82,236.252 1651.56,235.267 1670.3,235.421 1689.05,235.439 1707.79,236.031 1726.54,235.443 1745.28,236.063 1764.02,236.073 1782.77,235.569 1801.51,235.678 1820.26,235.559 1839,235.07 1857.74,235.924 1876.49,235.893 1895.23,235.376 1913.98,236.262 1932.72,235.469 1951.46,235.516 1970.21,235.825 1988.95,235.632 2007.7,235.403 2026.44,235.382 2045.18,235.539 2063.93,235.235 2082.67,236.258 2101.42,235.191 2120.16,235.366 2138.9,235.487 2157.65,236.074 2176.39,235.418 2195.14,236.043 2213.88,236.097 2232.62,235.582 2251.37,235.633 2270.11,235.527 2288.86,235.087 2307.6,235.919 2326.34,235.85 2345.09,235.392 2363.83,236.272 2382.58,235.46 2401.32,235.501 2420.06,235.815 2438.81,235.62 2457.55,235.417 2476.3,235.341 2495.04,235.531 2513.78,235.233 2532.53,236.255 2551.27,235.24 2570.02,235.398 2588.76,235.466 2607.5,236.054 2626.25,235.458 2644.99,236.077 2663.74,236.086 2682.48,235.574 2701.22,235.667 2719.97,235.535 2738.71,235.081 2757.46,235.93 2776.2,235.875 2794.94,235.379 2813.69,236.264 2832.43,235.469 2851.18,235.512 2869.92,235.829 2888.66,235.628 2907.41,235.409 2926.15,235.35 2944.9,235.549 2963.64,235.234 2982.38,236.246 3001.13,235.204 3019.87,235.379 3038.62,235.477 3057.36,236.065 3076.1,235.433 3094.85,236.045 3113.59,236.079 3132.34,235.565 3151.08,235.666 3169.82,235.54 3188.57,235.091 3207.31,235.923 3226.06,235.862 3244.8,235.393 3263.54,236.259 3282.29,235.47 3301.03,235.515 3319.78,235.831 3338.52,235.62 3357.26,235.408 3376.01,235.35 3394.75,235.532 3413.5,235.243 3432.24,236.264 3450.98,235.234 3469.73,235.4 3488.47,235.483 3507.22,236.068 3525.96,235.428 3544.7,236.059 3563.45,236.078 3582.19,235.559 3600.94,235.657 3619.68,235.53 3638.42,235.081 3657.17,235.932 3675.91,235.863 3694.66,235.38 3713.4,236.266 3732.14,235.465 3750.89,235.52 3769.63,235.825 3788.38,235.619 3807.12,235.412 3825.86,235.357 3844.61,235.536 3863.35,235.246 3882.1,236.252 3900.84,235.199 3919.58,235.379 3938.33,235.484 3957.07,236.078 3975.82,235.443 3994.56,236.049 4013.3,236.097 4032.05,235.575 4050.79,235.66 4069.54,235.532 4088.28,235.09 4107.02,235.915 4125.77,235.865 4144.51,235.385 4163.26,236.261 4182,235.473 4200.74,235.516 4219.49,235.819 4238.23,235.63 4256.98,235.423 4275.72,235.349 4294.46,235.543 4313.21,235.229 4331.95,236.255 4350.7,235.233 4369.44,235.394 4388.18,235.481 4406.93,236.068 4425.67,235.424 4444.42,236.063 4463.16,236.081 4481.9,235.57 4500.65,235.651 4519.39,235.536 4538.14,235.076 4556.88,235.924 4575.63,235.866 4594.37,235.373 4613.11,236.279 4631.86,235.465 "/>
<path clip-path="url(#clip002)" d="M601.895 70.9072 L620.639 530.92 L639.383 535.095 L658.127 535.369 L676.871 535.832 L695.615 535.035 L714.359 533.628 L733.103 534.58 L751.847 536.328 L770.591 534.235 L789.335 533.102 L808.079 535.567 L826.823 534.841 L845.567 538.274 L864.311 539.193 L883.055 538.027 L901.799 542.677 L920.543 542.095 L939.287 539.89 L958.031 540.861 L976.775 538.784 L995.519 537.947 L1014.26 543.516 L1033.01 540.963 L1051.75 539.188 L1070.5 541.736 L1089.24 537.441 L1107.98 536.304 L1126.73 536.503 L1145.47 535.746 L1164.22 536.06 L1182.96 536.085 L1201.7 536.16 L1220.45 534.913 L1239.19 533.663 L1257.94 537.329 L1276.68 534.663 L1295.42 538.192 L1314.17 539.786 L1332.91 537.647 L1351.66 542.653 L1370.4 542.136 L1389.14 540.062 L1407.89 540.916 L1426.63 538.683 L1445.38 538.093 L1464.12 543.124 L1482.86 540.662 L1501.61 539.275 L1520.35 541.661 L1539.1 537.386 L1557.84 536.39 L1576.58 537.473 L1595.33 535.752 L1614.07 536.038 L1632.82 536.359 L1651.56 536.272 L1670.3 537.994 L1689.05 533.271 L1707.79 537.248 L1726.54 534.671 L1745.28 538.081 L1764.02 540.205 L1782.77 537.666 L1801.51 542.673 L1820.26 542.164 L1839 540.099 L1857.74 540.898 L1876.49 538.759 L1895.23 538.121 L1913.98 543.192 L1932.72 541.05 L1951.46 539.207 L1970.21 541.679 L1988.95 537.451 L2007.7 536.355 L2026.44 537.54 L2045.18 535.78 L2063.93 536.041 L2082.67 536.205 L2101.42 536.205 L2120.16 536.25 L2138.9 533.309 L2157.65 537.285 L2176.39 534.674 L2195.14 538.304 L2213.88 540.093 L2232.62 537.625 L2251.37 542.197 L2270.11 542.123 L2288.86 540.046 L2307.6 540.92 L2326.34 538.609 L2345.09 537.877 L2363.83 543.169 L2382.58 541.046 L2401.32 539.176 L2420.06 541.649 L2438.81 537.449 L2457.55 536.372 L2476.3 537.489 L2495.04 535.799 L2513.78 536.051 L2532.53 536.364 L2551.27 536.273 L2570.02 536.279 L2588.76 533.266 L2607.5 537.281 L2626.25 534.671 L2644.99 538.083 L2663.74 540.199 L2682.48 537.619 L2701.22 542.776 L2719.97 542.232 L2738.71 540.043 L2757.46 540.904 L2776.2 538.602 L2794.94 538.01 L2813.69 543.2 L2832.43 540.944 L2851.18 539.209 L2869.92 541.658 L2888.66 537.407 L2907.41 536.341 L2926.15 537.496 L2944.9 535.774 L2963.64 536.04 L2982.38 536.189 L3001.13 536.291 L3019.87 536.246 L3038.62 533.297 L3057.36 537.296 L3076.1 534.703 L3094.85 538.028 L3113.59 539.93 L3132.34 537.637 L3151.08 542.799 L3169.82 542.179 L3188.57 540.105 L3207.31 540.924 L3226.06 538.581 L3244.8 538.171 L3263.54 543.15 L3282.29 540.716 L3301.03 539.312 L3319.78 541.688 L3338.52 537.425 L3357.26 536.361 L3376.01 537.485 L3394.75 535.79 L3413.5 536.052 L3432.24 536.264 L3450.98 536.231 L3469.73 536.374 L3488.47 533.318 L3507.22 537.301 L3525.96 534.666 L3544.7 538.023 L3563.45 540.029 L3582.19 537.664 L3600.94 542.798 L3619.68 542.134 L3638.42 540.058 L3657.17 540.913 L3675.91 538.646 L3694.66 538.165 L3713.4 543.15 L3732.14 540.573 L3750.89 539.329 L3769.63 541.646 L3788.38 537.438 L3807.12 536.393 L3825.86 537.471 L3844.61 535.751 L3863.35 536.052 L3882.1 536.19 L3900.84 536.227 L3919.58 536.446 L3938.33 533.335 L3957.07 537.327 L3975.82 534.66 L3994.56 538.194 L4013.3 539.861 L4032.05 537.618 L4050.79 542.794 L4069.54 542.145 L4088.28 540.078 L4107.02 541.069 L4125.77 538.749 L4144.51 538.148 L4163.26 543.175 L4182 540.836 L4200.74 539.332 L4219.49 541.676 L4238.23 537.426 L4256.98 536.416 L4275.72 537.48 L4294.46 535.791 L4313.21 536.035 L4331.95 536.352 L4350.7 536.269 L4369.44 536.285 L4388.18 533.276 L4406.93 537.327 L4425.67 534.607 L4444.42 538.117 L4463.16 540.085 L4481.9 537.606 L4500.65 542.899 L4519.39 542.098 L4538.14 540.084 L4556.88 540.953 L4575.63 538.755 L4594.37 537.93 L4613.11 543.221 L4631.86 540.917 L4631.86 276.966 L4613.11 276.262 L4594.37 274.931 L4575.63 275.621 L4556.88 276.059 L4538.14 273.454 L4519.39 273.384 L4500.65 275.163 L4481.9 275.721 L4463.16 275.068 L4444.42 275.524 L4425.67 274.33 L4406.93 276.007 L4388.18 278.076 L4369.44 277.415 L4350.7 277.25 L4331.95 278.06 L4313.21 277.394 L4294.46 276.65 L4275.72 276.996 L4256.98 276.68 L4238.23 276.75 L4219.49 277.575 L4200.74 277.848 L4182 276.923 L4163.26 276.241 L4144.51 274.972 L4125.77 275.614 L4107.02 275.729 L4088.28 273.423 L4069.54 273.399 L4050.79 275.168 L4032.05 275.678 L4013.3 274.858 L3994.56 275.853 L3975.82 274.35 L3957.07 275.923 L3938.33 278.162 L3919.58 277.467 L3900.84 276.924 L3882.1 277.894 L3863.35 277.402 L3844.61 276.34 L3825.86 277.001 L3807.12 277.003 L3788.38 276.743 L3769.63 277.545 L3750.89 277.829 L3732.14 276.967 L3713.4 276.261 L3694.66 274.905 L3675.91 275.547 L3657.17 275.91 L3638.42 273.585 L3619.68 273.493 L3600.94 275.208 L3582.19 275.553 L3563.45 274.876 L3544.7 275.37 L3525.96 274.222 L3507.22 276.069 L3488.47 278.089 L3469.73 277.12 L3450.98 277.147 L3432.24 278.116 L3413.5 277.379 L3394.75 276.404 L3376.01 276.974 L3357.26 276.942 L3338.52 276.93 L3319.78 277.561 L3301.03 277.959 L3282.29 277.013 L3263.54 276.273 L3244.8 275.064 L3226.06 275.463 L3207.31 275.931 L3188.57 273.555 L3169.82 273.527 L3151.08 275.119 L3132.34 275.695 L3113.59 275.111 L3094.85 275.212 L3076.1 274.375 L3057.36 276.033 L3038.62 277.977 L3019.87 277.363 L3001.13 276.904 L2982.38 278.011 L2963.64 277.238 L2944.9 276.626 L2926.15 276.956 L2907.41 276.694 L2888.66 276.746 L2869.92 277.527 L2851.18 277.901 L2832.43 276.986 L2813.69 276.246 L2794.94 275.085 L2776.2 275.583 L2757.46 275.758 L2738.71 273.556 L2719.97 273.552 L2701.22 274.841 L2682.48 275.87 L2663.74 275.271 L2644.99 275.294 L2626.25 274.292 L2607.5 276.051 L2588.76 278.027 L2570.02 277.07 L2551.27 277.099 L2532.53 278.174 L2513.78 277.413 L2495.04 276.583 L2476.3 276.999 L2457.55 276.733 L2438.81 276.754 L2420.06 277.515 L2401.32 277.856 L2382.58 277.046 L2363.83 276.295 L2345.09 274.937 L2326.34 275.517 L2307.6 275.824 L2288.86 273.575 L2270.11 273.389 L2251.37 275.091 L2232.62 275.874 L2213.88 275.116 L2195.14 275.28 L2176.39 274.327 L2157.65 275.936 L2138.9 278.114 L2120.16 277.433 L2101.42 277.271 L2082.67 278.266 L2063.93 277.381 L2045.18 276.485 L2026.44 277.024 L2007.7 276.749 L1988.95 276.944 L1970.21 277.626 L1951.46 277.895 L1932.72 277.059 L1913.98 276.22 L1895.23 274.916 L1876.49 275.595 L1857.74 275.884 L1839 273.634 L1820.26 273.505 L1801.51 275.182 L1782.77 275.64 L1764.02 274.812 L1745.28 275.233 L1726.54 274.288 L1707.79 276.021 L1689.05 278.006 L1670.3 277.097 L1651.56 277.084 L1632.82 278.412 L1614.07 277.391 L1595.33 276.477 L1576.58 276.942 L1557.84 276.992 L1539.1 276.725 L1520.35 277.488 L1501.61 277.861 L1482.86 277.002 L1464.12 276.27 L1445.38 274.956 L1426.63 275.571 L1407.89 275.896 L1389.14 273.337 L1370.4 273.447 L1351.66 275 L1332.91 275.574 L1314.17 274.839 L1295.42 275.151 L1276.68 274.349 L1257.94 275.938 L1239.19 278.193 L1220.45 277.556 L1201.7 276.952 L1182.96 277.736 L1164.22 276.806 L1145.47 276.413 L1126.73 277.035 L1107.98 276.606 L1089.24 276.808 L1070.5 277.547 L1051.75 277.866 L1033.01 276.778 L1014.26 276.281 L995.519 274.18 L976.775 275.522 L958.031 275.841 L939.287 273.463 L920.543 273.584 L901.799 275.112 L883.055 275.626 L864.311 275.214 L845.567 275.385 L826.823 274.62 L808.079 275.197 L789.335 277.911 L770.591 277.175 L751.847 277.629 L733.103 277.608 L714.359 276.783 L695.615 276.684 L676.871 276.868 L658.127 277.777 L639.383 277.309 L620.639 273.747 L601.895 70.8637  Z" fill="#434343" fill-rule="evenodd" fill-opacity="0.5"/>
<polyline clip-path="url(#clip002)" style="stroke:#434343; stroke-linecap:round; stroke-linejoin:round; stroke-width:0; stroke-opacity:1; fill:none" points="601.895,70.8866 620.639,232.787 639.383,235.012 658.127,235.084 676.871,234.931 695.615,234.844 714.359,234.736 733.103,235.343 751.847,235.333 770.591,234.856 789.335,235.226 808.079,235.562 826.823,235.352 845.567,235.987 864.311,236.01 883.055,235.61 901.799,235.77 920.543,235.555 939.287,234.967 958.031,235.802 976.775,235.875 995.519,235.273 1014.26,236.343 1033.01,235.4 1051.75,235.52 1070.5,235.885 1089.24,235.624 1107.98,235.454 1126.73,235.435 1145.47,235.512 1164.22,235.261 1182.96,236.247 1201.7,235.072 1220.45,235.341 1239.19,235.551 1257.94,236.052 1276.68,235.421 1295.42,236.017 1314.17,236.087 1332.91,235.597 1351.66,235.591 1370.4,235.481 1389.14,235.109 1407.89,235.918 1426.63,235.839 1445.38,235.405 1464.12,236.242 1482.86,235.466 1501.61,235.501 1520.35,235.837 1539.1,235.598 1557.84,235.416 1576.58,235.326 1595.33,235.51 1614.07,235.228 1632.82,236.252 1651.56,235.267 1670.3,235.421 1689.05,235.439 1707.79,236.031 1726.54,235.443 1745.28,236.063 1764.02,236.073 1782.77,235.569 1801.51,235.678 1820.26,235.559 1839,235.07 1857.74,235.924 1876.49,235.893 1895.23,235.376 1913.98,236.262 1932.72,235.469 1951.46,235.516 1970.21,235.825 1988.95,235.632 2007.7,235.403 2026.44,235.382 2045.18,235.539 2063.93,235.235 2082.67,236.258 2101.42,235.191 2120.16,235.366 2138.9,235.487 2157.65,236.074 2176.39,235.418 2195.14,236.043 2213.88,236.097 2232.62,235.582 2251.37,235.633 2270.11,235.527 2288.86,235.087 2307.6,235.919 2326.34,235.85 2345.09,235.392 2363.83,236.272 2382.58,235.46 2401.32,235.501 2420.06,235.815 2438.81,235.62 2457.55,235.417 2476.3,235.341 2495.04,235.531 2513.78,235.233 2532.53,236.255 2551.27,235.24 2570.02,235.398 2588.76,235.466 2607.5,236.054 2626.25,235.458 2644.99,236.077 2663.74,236.086 2682.48,235.574 2701.22,235.667 2719.97,235.535 2738.71,235.081 2757.46,235.93 2776.2,235.875 2794.94,235.379 2813.69,236.264 2832.43,235.469 2851.18,235.512 2869.92,235.829 2888.66,235.628 2907.41,235.409 2926.15,235.35 2944.9,235.549 2963.64,235.234 2982.38,236.246 3001.13,235.204 3019.87,235.379 3038.62,235.477 3057.36,236.065 3076.1,235.433 3094.85,236.045 3113.59,236.079 3132.34,235.565 3151.08,235.666 3169.82,235.54 3188.57,235.091 3207.31,235.923 3226.06,235.862 3244.8,235.393 3263.54,236.259 3282.29,235.47 3301.03,235.515 3319.78,235.831 3338.52,235.62 3357.26,235.408 3376.01,235.35 3394.75,235.532 3413.5,235.243 3432.24,236.264 3450.98,235.234 3469.73,235.4 3488.47,235.483 3507.22,236.068 3525.96,235.428 3544.7,236.059 3563.45,236.078 3582.19,235.559 3600.94,235.657 3619.68,235.53 3638.42,235.081 3657.17,235.932 3675.91,235.863 3694.66,235.38 3713.4,236.266 3732.14,235.465 3750.89,235.52 3769.63,235.825 3788.38,235.619 3807.12,235.412 3825.86,235.357 3844.61,235.536 3863.35,235.246 3882.1,236.252 3900.84,235.199 3919.58,235.379 3938.33,235.484 3957.07,236.078 3975.82,235.443 3994.56,236.049 4013.3,236.097 4032.05,235.575 4050.79,235.66 4069.54,235.532 4088.28,235.09 4107.02,235.915 4125.77,235.865 4144.51,235.385 4163.26,236.261 4182,235.473 4200.74,235.516 4219.49,235.819 4238.23,235.63 4256.98,235.423 4275.72,235.349 4294.46,235.543 4313.21,235.229 4331.95,236.255 4350.7,235.233 4369.44,235.394 4388.18,235.481 4406.93,236.068 4425.67,235.424 4444.42,236.063 4463.16,236.081 4481.9,235.57 4500.65,235.651 4519.39,235.536 4538.14,235.076 4556.88,235.924 4575.63,235.866 4594.37,235.373 4613.11,236.279 4631.86,235.465 "/>
<path clip-path="url(#clip000)" d="M3863.92 853.161 L4610.36 853.161 L4610.36 334.761 L3863.92 334.761  Z" fill="#ffffff" fill-rule="evenodd" fill-opacity="1"/>
<polyline clip-path="url(#clip000)" style="stroke:#000000; stroke-linecap:round; stroke-linejoin:round; stroke-width:4; stroke-opacity:1; fill:none" points="3863.92,853.161 4610.36,853.161 4610.36,334.761 3863.92,334.761 3863.92,853.161 "/>
<polyline clip-path="url(#clip000)" style="stroke:#b0b0b0; stroke-linecap:round; stroke-linejoin:round; stroke-width:2; stroke-opacity:1; fill:none" points="3911.38,464.361 4196.17,464.361 "/>
<path clip-path="url(#clip000)" d="M4245.31 497.723 L4264.41 497.723 L4264.41 431.809 L4243.63 435.976 L4243.63 425.328 L4264.29 421.161 L4275.98 421.161 L4275.98 497.723 L4295.08 497.723 L4295.08 507.561 L4245.31 507.561 L4245.31 497.723 Z" fill="#000000" fill-rule="nonzero" fill-opacity="1" /><path clip-path="url(#clip000)" d="M4343.69 428.858 Q4334.66 428.858 4330.09 437.77 Q4325.57 446.624 4325.57 464.448 Q4325.57 482.214 4330.09 491.126 Q4334.66 499.98 4343.69 499.98 Q4352.77 499.98 4357.29 491.126 Q4361.86 482.214 4361.86 464.448 Q4361.86 446.624 4357.29 437.77 Q4352.77 428.858 4343.69 428.858 M4343.69 419.599 Q4358.21 419.599 4365.85 431.115 Q4373.55 442.573 4373.55 464.448 Q4373.55 486.265 4365.85 497.781 Q4358.21 509.239 4343.69 509.239 Q4329.16 509.239 4321.47 497.781 Q4313.83 486.265 4313.83 464.448 Q4313.83 442.573 4321.47 431.115 Q4329.16 419.599 4343.69 419.599 Z" fill="#000000" fill-rule="nonzero" fill-opacity="1" /><path clip-path="url(#clip000)" d="M4419.09 428.858 Q4410.07 428.858 4405.49 437.77 Q4400.98 446.624 4400.98 464.448 Q4400.98 482.214 4405.49 491.126 Q4410.07 499.98 4419.09 499.98 Q4428.18 499.98 4432.69 491.126 Q4437.26 482.214 4437.26 464.448 Q4437.26 446.624 4432.69 437.77 Q4428.18 428.858 4419.09 428.858 M4419.09 419.599 Q4433.62 419.599 4441.26 431.115 Q4448.95 442.573 4448.95 464.448 Q4448.95 486.265 4441.26 497.781 Q4433.62 509.239 4419.09 509.239 Q4404.57 509.239 4396.87 497.781 Q4389.23 486.265 4389.23 464.448 Q4389.23 442.573 4396.87 431.115 Q4404.57 419.599 4419.09 419.599 Z" fill="#000000" fill-rule="nonzero" fill-opacity="1" /><path clip-path="url(#clip000)" d="M4542.99 469.541 Q4537.96 469.541 4535.06 473.823 Q4532.23 478.105 4532.23 485.744 Q4532.23 493.267 4535.06 497.608 Q4537.96 501.89 4542.99 501.89 Q4547.91 501.89 4550.75 497.608 Q4553.64 493.267 4553.64 485.744 Q4553.64 478.163 4550.75 473.881 Q4547.91 469.541 4542.99 469.541 M4542.99 462.191 Q4552.14 462.191 4557.52 468.557 Q4562.9 474.923 4562.9 485.744 Q4562.9 496.566 4557.46 502.932 Q4552.08 509.239 4542.99 509.239 Q4533.73 509.239 4528.35 502.932 Q4522.97 496.566 4522.97 485.744 Q4522.97 474.865 4528.35 468.557 Q4533.79 462.191 4542.99 462.191 M4483.27 426.948 Q4478.29 426.948 4475.4 431.289 Q4472.56 435.571 4472.56 443.094 Q4472.56 450.733 4475.4 455.015 Q4478.24 459.298 4483.27 459.298 Q4488.31 459.298 4491.14 455.015 Q4494.03 450.733 4494.03 443.094 Q4494.03 435.629 4491.14 431.289 Q4488.25 426.948 4483.27 426.948 M4535.53 419.599 L4544.79 419.599 L4490.74 509.239 L4481.48 509.239 L4535.53 419.599 M4483.27 419.599 Q4492.41 419.599 4497.85 425.964 Q4503.29 432.272 4503.29 443.094 Q4503.29 454.031 4497.85 460.339 Q4492.47 466.647 4483.27 466.647 Q4474.07 466.647 4468.69 460.339 Q4463.36 453.974 4463.36 443.094 Q4463.36 432.33 4468.75 425.964 Q4474.13 419.599 4483.27 419.599 Z" fill="#000000" fill-rule="nonzero" fill-opacity="1" /><polyline clip-path="url(#clip000)" style="stroke:#777777; stroke-linecap:round; stroke-linejoin:round; stroke-width:2; stroke-opacity:1; fill:none" points="3911.38,593.961 4196.17,593.961 "/>
<path clip-path="url(#clip000)" d="M4249.19 635.367 L4249.19 624.719 Q4253.58 626.803 4258.1 627.902 Q4262.61 629.002 4266.95 629.002 Q4278.53 629.002 4284.6 621.247 Q4290.74 613.435 4291.61 597.578 Q4288.25 602.555 4283.1 605.217 Q4277.95 607.879 4271.7 607.879 Q4258.73 607.879 4251.15 600.067 Q4243.63 592.196 4243.63 578.597 Q4243.63 565.287 4251.5 557.243 Q4259.37 549.199 4272.45 549.199 Q4287.44 549.199 4295.31 560.715 Q4303.24 572.173 4303.24 594.048 Q4303.24 614.476 4293.51 626.687 Q4283.85 638.839 4267.47 638.839 Q4263.08 638.839 4258.56 637.971 Q4254.05 637.103 4249.19 635.367 M4272.45 598.736 Q4280.32 598.736 4284.89 593.354 Q4289.52 587.972 4289.52 578.597 Q4289.52 569.28 4284.89 563.898 Q4280.32 558.458 4272.45 558.458 Q4264.58 558.458 4259.95 563.898 Q4255.38 569.28 4255.38 578.597 Q4255.38 587.972 4259.95 593.354 Q4264.58 598.736 4272.45 598.736 Z" fill="#000000" fill-rule="nonzero" fill-opacity="1" /><path clip-path="url(#clip000)" d="M4349.24 558.458 Q4340.22 558.458 4335.64 567.37 Q4331.13 576.224 4331.13 594.048 Q4331.13 611.814 4335.64 620.726 Q4340.22 629.58 4349.24 629.58 Q4358.33 629.58 4362.84 620.726 Q4367.41 611.814 4367.41 594.048 Q4367.41 576.224 4362.84 567.37 Q4358.33 558.458 4349.24 558.458 M4349.24 549.199 Q4363.77 549.199 4371.41 560.715 Q4379.1 572.173 4379.1 594.048 Q4379.1 615.865 4371.41 627.381 Q4363.77 638.839 4349.24 638.839 Q4334.72 638.839 4327.02 627.381 Q4319.38 615.865 4319.38 594.048 Q4319.38 572.173 4327.02 560.715 Q4334.72 549.199 4349.24 549.199 Z" fill="#000000" fill-rule="nonzero" fill-opacity="1" /><path clip-path="url(#clip000)" d="M4473.14 599.141 Q4468.11 599.141 4465.22 603.423 Q4462.38 607.705 4462.38 615.344 Q4462.38 622.867 4465.22 627.208 Q4468.11 631.49 4473.14 631.49 Q4478.06 631.49 4480.9 627.208 Q4483.79 622.867 4483.79 615.344 Q4483.79 607.763 4480.9 603.481 Q4478.06 599.141 4473.14 599.141 M4473.14 591.791 Q4482.29 591.791 4487.67 598.157 Q4493.05 604.523 4493.05 615.344 Q4493.05 626.166 4487.61 632.532 Q4482.23 638.839 4473.14 638.839 Q4463.88 638.839 4458.5 632.532 Q4453.12 626.166 4453.12 615.344 Q4453.12 604.465 4458.5 598.157 Q4463.94 591.791 4473.14 591.791 M4413.42 556.548 Q4408.44 556.548 4405.55 560.889 Q4402.72 565.171 4402.72 572.694 Q4402.72 580.333 4405.55 584.615 Q4408.39 588.898 4413.42 588.898 Q4418.46 588.898 4421.29 584.615 Q4424.19 580.333 4424.19 572.694 Q4424.19 565.229 4421.29 560.889 Q4418.4 556.548 4413.42 556.548 M4465.68 549.199 L4474.94 549.199 L4420.89 638.839 L4411.63 638.839 L4465.68 549.199 M4413.42 549.199 Q4422.57 549.199 4428 555.564 Q4433.44 561.872 4433.44 572.694 Q4433.44 583.631 4428 589.939 Q4422.62 596.247 4413.42 596.247 Q4404.22 596.247 4398.84 589.939 Q4393.51 583.574 4393.51 572.694 Q4393.51 561.93 4398.9 555.564 Q4404.28 549.199 4413.42 549.199 Z" fill="#000000" fill-rule="nonzero" fill-opacity="1" /><polyline clip-path="url(#clip000)" style="stroke:#434343; stroke-linecap:round; stroke-linejoin:round; stroke-width:2; stroke-opacity:1; fill:none" points="3911.38,723.561 4196.17,723.561 "/>
<path clip-path="url(#clip000)" d="M4273.26 725.731 Q4264.93 725.731 4260.12 730.187 Q4255.38 734.643 4255.38 742.456 Q4255.38 750.268 4260.12 754.724 Q4264.93 759.18 4273.26 759.18 Q4281.59 759.18 4286.4 754.724 Q4291.2 750.21 4291.2 742.456 Q4291.2 734.643 4286.4 730.187 Q4281.65 725.731 4273.26 725.731 M4261.57 720.755 Q4254.05 718.903 4249.82 713.752 Q4245.66 708.602 4245.66 701.194 Q4245.66 690.836 4253.01 684.817 Q4260.41 678.799 4273.26 678.799 Q4286.17 678.799 4293.51 684.817 Q4300.86 690.836 4300.86 701.194 Q4300.86 708.602 4296.64 713.752 Q4292.47 718.903 4285.01 720.755 Q4293.46 722.722 4298.14 728.451 Q4302.89 734.18 4302.89 742.456 Q4302.89 755.014 4295.19 761.727 Q4287.55 768.439 4273.26 768.439 Q4258.97 768.439 4251.27 761.727 Q4243.63 755.014 4243.63 742.456 Q4243.63 734.18 4248.38 728.451 Q4253.12 722.722 4261.57 720.755 M4257.29 702.294 Q4257.29 709.007 4261.45 712.768 Q4265.68 716.53 4273.26 716.53 Q4280.78 716.53 4285.01 712.768 Q4289.29 709.007 4289.29 702.294 Q4289.29 695.581 4285.01 691.82 Q4280.78 688.058 4273.26 688.058 Q4265.68 688.058 4261.45 691.82 Q4257.29 695.581 4257.29 702.294 Z" fill="#000000" fill-rule="nonzero" fill-opacity="1" /><path clip-path="url(#clip000)" d="M4348.66 688.058 Q4339.64 688.058 4335.07 696.97 Q4330.55 705.824 4330.55 723.648 Q4330.55 741.414 4335.07 750.326 Q4339.64 759.18 4348.66 759.18 Q4357.75 759.18 4362.26 750.326 Q4366.84 741.414 4366.84 723.648 Q4366.84 705.824 4362.26 696.97 Q4357.75 688.058 4348.66 688.058 M4348.66 678.799 Q4363.19 678.799 4370.83 690.315 Q4378.53 701.773 4378.53 723.648 Q4378.53 745.465 4370.83 756.981 Q4363.19 768.439 4348.66 768.439 Q4334.14 768.439 4326.44 756.981 Q4318.8 745.465 4318.8 723.648 Q4318.8 701.773 4326.44 690.315 Q4334.14 678.799 4348.66 678.799 Z" fill="#000000" fill-rule="nonzero" fill-opacity="1" /><path clip-path="url(#clip000)" d="M4472.56 728.741 Q4467.53 728.741 4464.64 733.023 Q4461.8 737.305 4461.8 744.944 Q4461.8 752.467 4464.64 756.808 Q4467.53 761.09 4472.56 761.09 Q4477.48 761.09 4480.32 756.808 Q4483.21 752.467 4483.21 744.944 Q4483.21 737.363 4480.32 733.081 Q4477.48 728.741 4472.56 728.741 M4472.56 721.391 Q4481.71 721.391 4487.09 727.757 Q4492.47 734.123 4492.47 744.944 Q4492.47 755.766 4487.03 762.132 Q4481.65 768.439 4472.56 768.439 Q4463.31 768.439 4457.92 762.132 Q4452.54 755.766 4452.54 744.944 Q4452.54 734.065 4457.92 727.757 Q4463.36 721.391 4472.56 721.391 M4412.84 686.148 Q4407.87 686.148 4404.97 690.489 Q4402.14 694.771 4402.14 702.294 Q4402.14 709.933 4404.97 714.215 Q4407.81 718.498 4412.84 718.498 Q4417.88 718.498 4420.71 714.215 Q4423.61 709.933 4423.61 702.294 Q4423.61 694.829 4420.71 690.489 Q4417.82 686.148 4412.84 686.148 M4465.1 678.799 L4474.36 678.799 L4420.31 768.439 L4411.05 768.439 L4465.1 678.799 M4412.84 678.799 Q4421.99 678.799 4427.43 685.164 Q4432.87 691.472 4432.87 702.294 Q4432.87 713.231 4427.43 719.539 Q4422.04 725.847 4412.84 725.847 Q4403.64 725.847 4398.26 719.539 Q4392.94 713.174 4392.94 702.294 Q4392.94 691.53 4398.32 685.164 Q4403.7 678.799 4412.84 678.799 Z" fill="#000000" fill-rule="nonzero" fill-opacity="1" /></svg>
