<?xml version="1.0" encoding="UTF-8" standalone="no"?>
<svg
   width="1200"
   height="300"
   viewBox="0 0 4800 1200"
   version="1.1"
   id="svg74"
   sodipodi:docname="fig5_nspec_O3_ncomp_3_err.svg"
   inkscape:version="1.3 (0e150ed6c4, 2023-07-21)"
   xmlns:inkscape="http://www.inkscape.org/namespaces/inkscape"
   xmlns:sodipodi="http://sodipodi.sourceforge.net/DTD/sodipodi-0.dtd"
   xmlns="http://www.w3.org/2000/svg"
   xmlns:svg="http://www.w3.org/2000/svg">
  <sodipodi:namedview
     id="namedview74"
     pagecolor="#ffffff"
     bordercolor="#000000"
     borderopacity="0.25"
     inkscape:showpageshadow="2"
     inkscape:pageopacity="0.0"
     inkscape:pagecheckerboard="0"
     inkscape:deskcolor="#d1d1d1"
     inkscape:zoom="0.42916667"
     inkscape:cx="188.73786"
     inkscape:cy="-106.01942"
     inkscape:window-width="1920"
     inkscape:window-height="1010"
     inkscape:window-x="1529"
     inkscape:window-y="-6"
     inkscape:window-maximized="1"
     inkscape:current-layer="svg74" />
  <defs
     id="defs1">
    <clipPath
       id="clip920">
      <rect
         x="0"
         y="0"
         width="4800"
         height="1200"
         id="rect1" />
    </clipPath>
  </defs>
  <path
     clip-path="url(#clip920)"
     d="M0 1200 L4800 1200 L4800 0 L0 0  Z"
     fill="#ffffff"
     fill-rule="evenodd"
     fill-opacity="1"
     id="path1" />
  <defs
     id="defs2">
    <clipPath
       id="clip921">
      <rect
         x="960"
         y="0"
         width="3361"
         height="1200"
         id="rect2" />
    </clipPath>
  </defs>
  <path
     clip-path="url(#clip920)"
     d="M477.57 880.951 L4752.76 880.951 L4752.76 47.2441 L477.57 47.2441  Z"
     fill="#ffffff"
     fill-rule="evenodd"
     fill-opacity="1"
     id="path2" />
  <defs
     id="defs3">
    <clipPath
       id="clip922">
      <rect
         x="477"
         y="47"
         width="4276"
         height="835"
         id="rect3" />
    </clipPath>
  </defs>
  <polyline
     clip-path="url(#clip922)"
     style="stroke:#000000; stroke-linecap:round; stroke-linejoin:round; stroke-width:2; stroke-opacity:0.1; fill:none"
     points="1030.02,880.951 1030.02,47.2441 "
     id="polyline3" />
  <polyline
     clip-path="url(#clip922)"
     style="stroke:#000000; stroke-linecap:round; stroke-linejoin:round; stroke-width:2; stroke-opacity:0.1; fill:none"
     points="1930.46,880.951 1930.46,47.2441 "
     id="polyline4" />
  <polyline
     clip-path="url(#clip922)"
     style="stroke:#000000; stroke-linecap:round; stroke-linejoin:round; stroke-width:2; stroke-opacity:0.1; fill:none"
     points="2830.89,880.951 2830.89,47.2441 "
     id="polyline5" />
  <polyline
     clip-path="url(#clip922)"
     style="stroke:#000000; stroke-linecap:round; stroke-linejoin:round; stroke-width:2; stroke-opacity:0.1; fill:none"
     points="3731.33,880.951 3731.33,47.2441 "
     id="polyline6" />
  <polyline
     clip-path="url(#clip922)"
     style="stroke:#000000; stroke-linecap:round; stroke-linejoin:round; stroke-width:2; stroke-opacity:0.1; fill:none"
     points="4631.76,880.951 4631.76,47.2441 "
     id="polyline7" />
  <polyline
     clip-path="url(#clip920)"
     style="stroke:#000000; stroke-linecap:round; stroke-linejoin:round; stroke-width:4; stroke-opacity:1; fill:none"
     points="477.57,880.951 4752.76,880.951 "
     id="polyline8" />
  <polyline
     clip-path="url(#clip920)"
     style="stroke:#000000; stroke-linecap:round; stroke-linejoin:round; stroke-width:4; stroke-opacity:1; fill:none"
     points="1030.02,880.951 1030.02,862.054 "
     id="polyline9" />
  <polyline
     clip-path="url(#clip920)"
     style="stroke:#000000; stroke-linecap:round; stroke-linejoin:round; stroke-width:4; stroke-opacity:1; fill:none"
     points="1930.46,880.951 1930.46,862.054 "
     id="polyline10" />
  <polyline
     clip-path="url(#clip920)"
     style="stroke:#000000; stroke-linecap:round; stroke-linejoin:round; stroke-width:4; stroke-opacity:1; fill:none"
     points="2830.89,880.951 2830.89,862.054 "
     id="polyline11" />
  <polyline
     clip-path="url(#clip920)"
     style="stroke:#000000; stroke-linecap:round; stroke-linejoin:round; stroke-width:4; stroke-opacity:1; fill:none"
     points="3731.33,880.951 3731.33,862.054 "
     id="polyline12" />
  <polyline
     clip-path="url(#clip920)"
     style="stroke:#000000; stroke-linecap:round; stroke-linejoin:round; stroke-width:4; stroke-opacity:1; fill:none"
     points="4631.76,880.951 4631.76,862.054 "
     id="polyline13" />
  <path
     clip-path="url(#clip920)"
     d="M1019.33 997.881 L1051.97 997.881 L1051.97 1005.75 L1008.08 1005.75 L1008.08 997.881 Q1013.4 992.372 1022.57 983.113 Q1031.78 973.807 1034.14 971.122 Q1038.64 966.076 1040.39 962.604 Q1042.2 959.085 1042.2 955.705 Q1042.2 950.196 1038.31 946.724 Q1034.47 943.252 1028.26 943.252 Q1023.87 943.252 1018.96 944.78 Q1014.1 946.307 1008.54 949.409 L1008.54 939.965 Q1014.19 937.696 1019.1 936.539 Q1024.01 935.382 1028.08 935.382 Q1038.82 935.382 1045.21 940.752 Q1051.6 946.122 1051.6 955.104 Q1051.6 959.363 1049.98 963.205 Q1048.4 967.002 1044.19 972.187 Q1043.03 973.529 1036.83 979.965 Q1030.63 986.353 1019.33 997.881 Z"
     fill="#000000"
     fill-rule="nonzero"
     fill-opacity="1"
     id="path13" />
  <path
     clip-path="url(#clip920)"
     d="M1936.48 944.78 L1912.87 981.678 L1936.48 981.678 L1936.48 944.78 M1934.02 936.631 L1945.78 936.631 L1945.78 981.678 L1955.64 981.678 L1955.64 989.455 L1945.78 989.455 L1945.78 1005.75 L1936.48 1005.75 L1936.48 989.455 L1905.27 989.455 L1905.27 980.428 L1934.02 936.631 Z"
     fill="#000000"
     fill-rule="nonzero"
     fill-opacity="1"
     id="path14" />
  <path
     clip-path="url(#clip920)"
     d="M2831.7 967.465 Q2825.41 967.465 2821.7 971.77 Q2818.04 976.076 2818.04 983.576 Q2818.04 991.029 2821.7 995.381 Q2825.41 999.687 2831.7 999.687 Q2838 999.687 2841.66 995.381 Q2845.36 991.029 2845.36 983.576 Q2845.36 976.076 2841.66 971.77 Q2838 967.465 2831.7 967.465 M2850.27 938.159 L2850.27 946.678 Q2846.75 945.011 2843.14 944.131 Q2839.57 943.252 2836.05 943.252 Q2826.79 943.252 2821.89 949.502 Q2817.03 955.752 2816.33 968.391 Q2819.06 964.363 2823.18 962.233 Q2827.3 960.057 2832.26 960.057 Q2842.67 960.057 2848.69 966.4 Q2854.76 972.696 2854.76 983.576 Q2854.76 994.224 2848.46 1000.66 Q2842.17 1007.09 2831.7 1007.09 Q2819.71 1007.09 2813.37 997.927 Q2807.03 988.715 2807.03 971.261 Q2807.03 954.872 2814.8 945.15 Q2822.58 935.382 2835.68 935.382 Q2839.2 935.382 2842.77 936.076 Q2846.38 936.77 2850.27 938.159 Z"
     fill="#000000"
     fill-rule="nonzero"
     fill-opacity="1"
     id="path15" />
  <path
     clip-path="url(#clip920)"
     d="M3731.33 972.928 Q3724.66 972.928 3720.82 976.492 Q3717.02 980.057 3717.02 986.307 Q3717.02 992.557 3720.82 996.122 Q3724.66 999.687 3731.33 999.687 Q3737.99 999.687 3741.84 996.122 Q3745.68 992.511 3745.68 986.307 Q3745.68 980.057 3741.84 976.492 Q3738.04 972.928 3731.33 972.928 M3721.97 968.946 Q3715.96 967.465 3712.58 963.344 Q3709.24 959.224 3709.24 953.298 Q3709.24 945.011 3715.12 940.196 Q3721.05 935.382 3731.33 935.382 Q3741.65 935.382 3747.53 940.196 Q3753.41 945.011 3753.41 953.298 Q3753.41 959.224 3750.03 963.344 Q3746.7 967.465 3740.72 968.946 Q3747.48 970.52 3751.23 975.104 Q3755.03 979.687 3755.03 986.307 Q3755.03 996.353 3748.87 1001.72 Q3742.76 1007.09 3731.33 1007.09 Q3719.89 1007.09 3713.73 1001.72 Q3707.62 996.353 3707.62 986.307 Q3707.62 979.687 3711.42 975.104 Q3715.22 970.52 3721.97 968.946 M3718.55 954.178 Q3718.55 959.548 3721.88 962.557 Q3725.26 965.567 3731.33 965.567 Q3737.34 965.567 3740.72 962.557 Q3744.15 959.548 3744.15 954.178 Q3744.15 948.807 3740.72 945.798 Q3737.34 942.789 3731.33 942.789 Q3725.26 942.789 3721.88 945.798 Q3718.55 948.807 3718.55 954.178 Z"
     fill="#000000"
     fill-rule="nonzero"
     fill-opacity="1"
     id="path16" />
  <path
     clip-path="url(#clip920)"
     d="M4581.14 997.881 L4596.41 997.881 L4596.41 945.15 L4579.79 948.483 L4579.79 939.965 L4596.32 936.631 L4605.67 936.631 L4605.67 997.881 L4620.95 997.881 L4620.95 1005.75 L4581.14 1005.75 L4581.14 997.881 Z"
     fill="#000000"
     fill-rule="nonzero"
     fill-opacity="1"
     id="path17" />
  <path
     clip-path="url(#clip920)"
     d="M4659.84 942.789 Q4652.62 942.789 4648.96 949.918 Q4645.35 957.002 4645.35 971.261 Q4645.35 985.474 4648.96 992.603 Q4652.62 999.687 4659.84 999.687 Q4667.11 999.687 4670.72 992.603 Q4674.38 985.474 4674.38 971.261 Q4674.38 957.002 4670.72 949.918 Q4667.11 942.789 4659.84 942.789 M4659.84 935.382 Q4671.46 935.382 4677.57 944.594 Q4683.73 953.761 4683.73 971.261 Q4683.73 988.715 4677.57 997.927 Q4671.46 1007.09 4659.84 1007.09 Q4648.22 1007.09 4642.06 997.927 Q4635.95 988.715 4635.95 971.261 Q4635.95 953.761 4642.06 944.594 Q4648.22 935.382 4659.84 935.382 Z"
     fill="#000000"
     fill-rule="nonzero"
     fill-opacity="1"
     id="path18" />
  <path
     clip-path="url(#clip920)"
     d="M2332.4 1072.18 L2398.19 1072.18 L2398.19 1081.04 L2370.58 1081.04 L2370.58 1149.94 L2360.01 1149.94 L2360.01 1081.04 L2332.4 1081.04 L2332.4 1072.18 Z"
     fill="#000000"
     fill-rule="nonzero"
     fill-opacity="1"
     id="path19" />
  <path
     clip-path="url(#clip920)"
     d="M2404.64 1091.61 L2414.23 1091.61 L2414.23 1149.94 L2404.64 1149.94 L2404.64 1091.61 M2404.64 1068.9 L2414.23 1068.9 L2414.23 1081.04 L2404.64 1081.04 L2404.64 1068.9 Z"
     fill="#000000"
     fill-rule="nonzero"
     fill-opacity="1"
     id="path20" />
  <path
     clip-path="url(#clip920)"
     d="M2479.7 1102.81 Q2483.29 1096.35 2488.29 1093.28 Q2493.29 1090.2 2500.06 1090.2 Q2509.17 1090.2 2514.12 1096.61 Q2519.07 1102.96 2519.07 1114.74 L2519.07 1149.94 L2509.43 1149.94 L2509.43 1115.05 Q2509.43 1106.66 2506.47 1102.6 Q2503.5 1098.54 2497.4 1098.54 Q2489.96 1098.54 2485.63 1103.49 Q2481.31 1108.43 2481.31 1116.97 L2481.31 1149.94 L2471.67 1149.94 L2471.67 1115.05 Q2471.67 1106.61 2468.71 1102.6 Q2465.74 1098.54 2459.54 1098.54 Q2452.2 1098.54 2447.87 1103.54 Q2443.55 1108.49 2443.55 1116.97 L2443.55 1149.94 L2433.91 1149.94 L2433.91 1091.61 L2443.55 1091.61 L2443.55 1100.67 Q2446.83 1095.31 2451.41 1092.76 Q2456 1090.2 2462.3 1090.2 Q2468.65 1090.2 2473.08 1093.43 Q2477.56 1096.66 2479.7 1102.81 Z"
     fill="#000000"
     fill-rule="nonzero"
     fill-opacity="1"
     id="path21" />
  <path
     clip-path="url(#clip920)"
     d="M2588.08 1118.38 L2588.08 1123.07 L2544.02 1123.07 Q2544.64 1132.96 2549.96 1138.17 Q2555.32 1143.33 2564.85 1143.33 Q2570.37 1143.33 2575.53 1141.97 Q2580.74 1140.62 2585.84 1137.91 L2585.84 1146.97 Q2580.68 1149.16 2575.27 1150.31 Q2569.85 1151.45 2564.28 1151.45 Q2550.32 1151.45 2542.14 1143.33 Q2534.02 1135.2 2534.02 1121.35 Q2534.02 1107.03 2541.73 1098.64 Q2549.49 1090.2 2562.61 1090.2 Q2574.38 1090.2 2581.21 1097.81 Q2588.08 1105.36 2588.08 1118.38 M2578.5 1115.57 Q2578.39 1107.7 2574.07 1103.02 Q2569.8 1098.33 2562.72 1098.33 Q2554.69 1098.33 2549.85 1102.86 Q2545.06 1107.39 2544.33 1115.62 L2578.5 1115.57 Z"
     fill="#000000"
     fill-rule="nonzero"
     fill-opacity="1"
     id="path22" />
  <path
     clip-path="url(#clip920)"
     d="M2660.74 1069.01 Q2653.76 1080.99 2650.37 1092.7 Q2646.99 1104.42 2646.99 1116.45 Q2646.99 1128.49 2650.37 1140.31 Q2653.81 1152.08 2660.74 1164.01 L2652.4 1164.01 Q2644.59 1151.77 2640.68 1139.94 Q2636.83 1128.12 2636.83 1116.45 Q2636.83 1104.84 2640.68 1093.07 Q2644.54 1081.3 2652.4 1069.01 L2660.74 1069.01 Z"
     fill="#000000"
     fill-rule="nonzero"
     fill-opacity="1"
     id="path23" />
  <path
     clip-path="url(#clip920)"
     d="M2717.71 1100.46 L2717.71 1068.9 L2727.3 1068.9 L2727.3 1149.94 L2717.71 1149.94 L2717.71 1141.19 Q2714.69 1146.4 2710.06 1148.95 Q2705.48 1151.45 2699.02 1151.45 Q2688.44 1151.45 2681.78 1143.02 Q2675.16 1134.58 2675.16 1120.83 Q2675.16 1107.08 2681.78 1098.64 Q2688.44 1090.2 2699.02 1090.2 Q2705.48 1090.2 2710.06 1092.76 Q2714.69 1095.26 2717.71 1100.46 M2685.06 1120.83 Q2685.06 1131.4 2689.38 1137.44 Q2693.76 1143.43 2701.36 1143.43 Q2708.96 1143.43 2713.34 1137.44 Q2717.71 1131.4 2717.71 1120.83 Q2717.71 1110.26 2713.34 1104.27 Q2708.96 1098.23 2701.36 1098.23 Q2693.76 1098.23 2689.38 1104.27 Q2685.06 1110.26 2685.06 1120.83 Z"
     fill="#000000"
     fill-rule="nonzero"
     fill-opacity="1"
     id="path24" />
  <path
     clip-path="url(#clip920)"
     d="M2773.55 1120.62 Q2761.93 1120.62 2757.45 1123.28 Q2752.97 1125.93 2752.97 1132.34 Q2752.97 1137.44 2756.31 1140.46 Q2759.69 1143.43 2765.47 1143.43 Q2773.44 1143.43 2778.24 1137.81 Q2783.08 1132.13 2783.08 1122.76 L2783.08 1120.62 L2773.55 1120.62 M2792.66 1116.66 L2792.66 1149.94 L2783.08 1149.94 L2783.08 1141.09 Q2779.8 1146.4 2774.9 1148.95 Q2770.01 1151.45 2762.92 1151.45 Q2753.96 1151.45 2748.65 1146.45 Q2743.39 1141.4 2743.39 1132.96 Q2743.39 1123.12 2749.95 1118.12 Q2756.57 1113.12 2769.64 1113.12 L2783.08 1113.12 L2783.08 1112.18 Q2783.08 1105.57 2778.7 1101.98 Q2774.38 1098.33 2766.52 1098.33 Q2761.52 1098.33 2756.78 1099.53 Q2752.04 1100.73 2747.66 1103.12 L2747.66 1094.27 Q2752.92 1092.24 2757.87 1091.25 Q2762.82 1090.2 2767.51 1090.2 Q2780.16 1090.2 2786.41 1096.77 Q2792.66 1103.33 2792.66 1116.66 Z"
     fill="#000000"
     fill-rule="nonzero"
     fill-opacity="1"
     id="path25" />
  <path
     clip-path="url(#clip920)"
     d="M2836.67 1155.36 Q2832.61 1165.78 2828.76 1168.95 Q2824.9 1172.13 2818.44 1172.13 L2810.79 1172.13 L2810.79 1164.11 L2816.41 1164.11 Q2820.37 1164.11 2822.56 1162.24 Q2824.75 1160.36 2827.4 1153.38 L2829.12 1149.01 L2805.53 1091.61 L2815.68 1091.61 L2833.91 1137.24 L2852.14 1091.61 L2862.3 1091.61 L2836.67 1155.36 Z"
     fill="#000000"
     fill-rule="nonzero"
     fill-opacity="1"
     id="path26" />
  <path
     clip-path="url(#clip920)"
     d="M2874.02 1069.01 L2882.35 1069.01 Q2890.16 1081.3 2894.02 1093.07 Q2897.92 1104.84 2897.92 1116.45 Q2897.92 1128.12 2894.02 1139.94 Q2890.16 1151.77 2882.35 1164.01 L2874.02 1164.01 Q2880.94 1152.08 2884.33 1140.31 Q2887.77 1128.49 2887.77 1116.45 Q2887.77 1104.42 2884.33 1092.7 Q2880.94 1080.99 2874.02 1069.01 Z"
     fill="#000000"
     fill-rule="nonzero"
     fill-opacity="1"
     id="path27" />
  <polyline
     clip-path="url(#clip922)"
     style="stroke:#000000; stroke-linecap:round; stroke-linejoin:round; stroke-width:2; stroke-opacity:0.1; fill:none"
     points="477.57,751.853 4752.76,751.853 "
     id="polyline27" />
  <polyline
     clip-path="url(#clip922)"
     style="stroke:#000000; stroke-linecap:round; stroke-linejoin:round; stroke-width:2; stroke-opacity:0.1; fill:none"
     points="477.57,598.499 4752.76,598.499 "
     id="polyline28" />
  <polyline
     clip-path="url(#clip922)"
     style="stroke:#000000; stroke-linecap:round; stroke-linejoin:round; stroke-width:2; stroke-opacity:0.1; fill:none"
     points="477.57,445.145 4752.76,445.145 "
     id="polyline29" />
  <polyline
     clip-path="url(#clip922)"
     style="stroke:#000000; stroke-linecap:round; stroke-linejoin:round; stroke-width:2; stroke-opacity:0.1; fill:none"
     points="477.57,291.79 4752.76,291.79 "
     id="polyline30" />
  <polyline
     clip-path="url(#clip922)"
     style="stroke:#000000; stroke-linecap:round; stroke-linejoin:round; stroke-width:2; stroke-opacity:0.1; fill:none"
     points="477.57,138.436 4752.76,138.436 "
     id="polyline31" />
  <polyline
     clip-path="url(#clip920)"
     style="stroke:#000000; stroke-linecap:round; stroke-linejoin:round; stroke-width:4; stroke-opacity:1; fill:none"
     points="477.57,880.951 477.57,47.2441 "
     id="polyline32" />
  <polyline
     clip-path="url(#clip920)"
     style="stroke:#000000; stroke-linecap:round; stroke-linejoin:round; stroke-width:4; stroke-opacity:1; fill:none"
     points="477.57,751.853 496.468,751.853 "
     id="polyline33" />
  <polyline
     clip-path="url(#clip920)"
     style="stroke:#000000; stroke-linecap:round; stroke-linejoin:round; stroke-width:4; stroke-opacity:1; fill:none"
     points="477.57,598.499 496.468,598.499 "
     id="polyline34" />
  <polyline
     clip-path="url(#clip920)"
     style="stroke:#000000; stroke-linecap:round; stroke-linejoin:round; stroke-width:4; stroke-opacity:1; fill:none"
     points="477.57,445.145 496.468,445.145 "
     id="polyline35" />
  <polyline
     clip-path="url(#clip920)"
     style="stroke:#000000; stroke-linecap:round; stroke-linejoin:round; stroke-width:4; stroke-opacity:1; fill:none"
     points="477.57,291.79 496.468,291.79 "
     id="polyline36" />
  <polyline
     clip-path="url(#clip920)"
     style="stroke:#000000; stroke-linecap:round; stroke-linejoin:round; stroke-width:4; stroke-opacity:1; fill:none"
     points="477.57,138.436 496.468,138.436 "
     id="polyline37" />
  <path
     clip-path="url(#clip920)"
     d="M194.877 752.756 L254.229 752.756 L254.229 760.626 L194.877 760.626 L194.877 752.756 Z"
     fill="#000000"
     fill-rule="nonzero"
     fill-opacity="1"
     id="path37" />
  <path
     clip-path="url(#clip920)"
     d="M294.414 723.45 Q287.191 723.45 283.534 730.58 Q279.923 737.663 279.923 751.922 Q279.923 766.135 283.534 773.265 Q287.191 780.348 294.414 780.348 Q301.682 780.348 305.293 773.265 Q308.951 766.135 308.951 751.922 Q308.951 737.663 305.293 730.58 Q301.682 723.45 294.414 723.45 M294.414 716.043 Q306.034 716.043 312.145 725.256 Q318.302 734.422 318.302 751.922 Q318.302 769.376 312.145 778.589 Q306.034 787.755 294.414 787.755 Q282.793 787.755 276.636 778.589 Q270.525 769.376 270.525 751.922 Q270.525 734.422 276.636 725.256 Q282.793 716.043 294.414 716.043 Z"
     fill="#000000"
     fill-rule="nonzero"
     fill-opacity="1"
     id="path38" />
  <path
     clip-path="url(#clip920)"
     d="M334.737 774.654 L344.506 774.654 L344.506 786.413 L334.737 786.413 L334.737 774.654 Z"
     fill="#000000"
     fill-rule="nonzero"
     fill-opacity="1"
     id="path39" />
  <path
     clip-path="url(#clip920)"
     d="M372.932 778.543 L405.57 778.543 L405.57 786.413 L361.682 786.413 L361.682 778.543 Q367.006 773.033 376.172 763.774 Q385.385 754.469 387.746 751.783 Q392.237 746.737 393.996 743.265 Q395.802 739.746 395.802 736.367 Q395.802 730.858 391.913 727.385 Q388.071 723.913 381.867 723.913 Q377.469 723.913 372.561 725.441 Q367.7 726.969 362.145 730.071 L362.145 720.626 Q367.793 718.358 372.7 717.2 Q377.608 716.043 381.682 716.043 Q392.422 716.043 398.811 721.413 Q405.2 726.784 405.2 735.765 Q405.2 740.024 403.58 743.867 Q402.006 747.663 397.793 752.848 Q396.635 754.191 390.432 760.626 Q384.228 767.015 372.932 778.543 Z"
     fill="#000000"
     fill-rule="nonzero"
     fill-opacity="1"
     id="path40" />
  <path
     clip-path="url(#clip920)"
     d="M194.136 599.401 L253.488 599.401 L253.488 607.272 L194.136 607.272 L194.136 599.401 Z"
     fill="#000000"
     fill-rule="nonzero"
     fill-opacity="1"
     id="path41" />
  <path
     clip-path="url(#clip920)"
     d="M293.673 570.096 Q286.451 570.096 282.793 577.226 Q279.182 584.309 279.182 598.568 Q279.182 612.781 282.793 619.911 Q286.451 626.994 293.673 626.994 Q300.941 626.994 304.552 619.911 Q308.21 612.781 308.21 598.568 Q308.21 584.309 304.552 577.226 Q300.941 570.096 293.673 570.096 M293.673 562.689 Q305.293 562.689 311.404 571.902 Q317.562 581.068 317.562 598.568 Q317.562 616.022 311.404 625.235 Q305.293 634.401 293.673 634.401 Q282.053 634.401 275.895 625.235 Q269.784 616.022 269.784 598.568 Q269.784 581.068 275.895 571.902 Q282.053 562.689 293.673 562.689 Z"
     fill="#000000"
     fill-rule="nonzero"
     fill-opacity="1"
     id="path42" />
  <path
     clip-path="url(#clip920)"
     d="M333.997 621.3 L343.765 621.3 L343.765 633.059 L333.997 633.059 L333.997 621.3 Z"
     fill="#000000"
     fill-rule="nonzero"
     fill-opacity="1"
     id="path43" />
  <path
     clip-path="url(#clip920)"
     d="M365.756 625.188 L381.034 625.188 L381.034 572.457 L364.413 575.791 L364.413 567.272 L380.941 563.939 L390.293 563.939 L390.293 625.188 L405.57 625.188 L405.57 633.059 L365.756 633.059 L365.756 625.188 Z"
     fill="#000000"
     fill-rule="nonzero"
     fill-opacity="1"
     id="path44" />
  <path
     clip-path="url(#clip920)"
     d="M291.219 416.742 Q283.997 416.742 280.34 423.872 Q276.729 430.955 276.729 445.214 Q276.729 459.427 280.34 466.557 Q283.997 473.64 291.219 473.64 Q298.488 473.64 302.099 466.557 Q305.756 459.427 305.756 445.214 Q305.756 430.955 302.099 423.872 Q298.488 416.742 291.219 416.742 M291.219 409.335 Q302.839 409.335 308.951 418.548 Q315.108 427.714 315.108 445.214 Q315.108 462.668 308.951 471.881 Q302.839 481.047 291.219 481.047 Q279.599 481.047 273.442 471.881 Q267.33 462.668 267.33 445.214 Q267.33 427.714 273.442 418.548 Q279.599 409.335 291.219 409.335 Z"
     fill="#000000"
     fill-rule="nonzero"
     fill-opacity="1"
     id="path45" />
  <path
     clip-path="url(#clip920)"
     d="M331.543 467.945 L341.312 467.945 L341.312 479.705 L331.543 479.705 L331.543 467.945 Z"
     fill="#000000"
     fill-rule="nonzero"
     fill-opacity="1"
     id="path46" />
  <path
     clip-path="url(#clip920)"
     d="M381.682 416.742 Q374.459 416.742 370.802 423.872 Q367.191 430.955 367.191 445.214 Q367.191 459.427 370.802 466.557 Q374.459 473.64 381.682 473.64 Q388.95 473.64 392.561 466.557 Q396.219 459.427 396.219 445.214 Q396.219 430.955 392.561 423.872 Q388.95 416.742 381.682 416.742 M381.682 409.335 Q393.302 409.335 399.413 418.548 Q405.57 427.714 405.57 445.214 Q405.57 462.668 399.413 471.881 Q393.302 481.047 381.682 481.047 Q370.061 481.047 363.904 471.881 Q357.793 462.668 357.793 445.214 Q357.793 427.714 363.904 418.548 Q370.061 409.335 381.682 409.335 Z"
     fill="#000000"
     fill-rule="nonzero"
     fill-opacity="1"
     id="path47" />
  <path
     clip-path="url(#clip920)"
     d="M293.673 263.388 Q286.451 263.388 282.793 270.517 Q279.182 277.601 279.182 291.86 Q279.182 306.073 282.793 313.202 Q286.451 320.286 293.673 320.286 Q300.941 320.286 304.552 313.202 Q308.21 306.073 308.21 291.86 Q308.21 277.601 304.552 270.517 Q300.941 263.388 293.673 263.388 M293.673 255.98 Q305.293 255.98 311.404 265.193 Q317.562 274.36 317.562 291.86 Q317.562 309.314 311.404 318.526 Q305.293 327.693 293.673 327.693 Q282.053 327.693 275.895 318.526 Q269.784 309.314 269.784 291.86 Q269.784 274.36 275.895 265.193 Q282.053 255.98 293.673 255.98 Z"
     fill="#000000"
     fill-rule="nonzero"
     fill-opacity="1"
     id="path48" />
  <path
     clip-path="url(#clip920)"
     d="M333.997 314.591 L343.765 314.591 L343.765 326.35 L333.997 326.35 L333.997 314.591 Z"
     fill="#000000"
     fill-rule="nonzero"
     fill-opacity="1"
     id="path49" />
  <path
     clip-path="url(#clip920)"
     d="M365.756 318.48 L381.034 318.48 L381.034 265.749 L364.413 269.082 L364.413 260.564 L380.941 257.23 L390.293 257.23 L390.293 318.48 L405.57 318.48 L405.57 326.35 L365.756 326.35 L365.756 318.48 Z"
     fill="#000000"
     fill-rule="nonzero"
     fill-opacity="1"
     id="path50" />
  <path
     clip-path="url(#clip920)"
     d="M294.414 110.034 Q287.191 110.034 283.534 117.163 Q279.923 124.247 279.923 138.506 Q279.923 152.719 283.534 159.848 Q287.191 166.932 294.414 166.932 Q301.682 166.932 305.293 159.848 Q308.951 152.719 308.951 138.506 Q308.951 124.247 305.293 117.163 Q301.682 110.034 294.414 110.034 M294.414 102.626 Q306.034 102.626 312.145 111.839 Q318.302 121.006 318.302 138.506 Q318.302 155.959 312.145 165.172 Q306.034 174.339 294.414 174.339 Q282.793 174.339 276.636 165.172 Q270.525 155.959 270.525 138.506 Q270.525 121.006 276.636 111.839 Q282.793 102.626 294.414 102.626 Z"
     fill="#000000"
     fill-rule="nonzero"
     fill-opacity="1"
     id="path51" />
  <path
     clip-path="url(#clip920)"
     d="M334.737 161.237 L344.506 161.237 L344.506 172.996 L334.737 172.996 L334.737 161.237 Z"
     fill="#000000"
     fill-rule="nonzero"
     fill-opacity="1"
     id="path52" />
  <path
     clip-path="url(#clip920)"
     d="M372.932 165.126 L405.57 165.126 L405.57 172.996 L361.682 172.996 L361.682 165.126 Q367.006 159.617 376.172 150.358 Q385.385 141.052 387.746 138.367 Q392.237 133.321 393.996 129.848 Q395.802 126.33 395.802 122.95 Q395.802 117.441 391.913 113.969 Q388.071 110.497 381.867 110.497 Q377.469 110.497 372.561 112.024 Q367.7 113.552 362.145 116.654 L362.145 107.21 Q367.793 104.941 372.7 103.784 Q377.608 102.626 381.682 102.626 Q392.422 102.626 398.811 107.997 Q405.2 113.367 405.2 122.348 Q405.2 126.608 403.58 130.45 Q402.006 134.247 397.793 139.432 Q396.635 140.774 390.432 147.209 Q384.228 153.598 372.932 165.126 Z"
     fill="#000000"
     fill-rule="nonzero"
     fill-opacity="1"
     id="path53" />
  <path
     clip-path="url(#clip920)"
     d="M28.1838 674.618 Q28.1838 686.076 36.7254 692.847 Q45.267 699.565 60.0065 699.565 Q74.6939 699.565 83.2355 692.847 Q91.7772 686.076 91.7772 674.618 Q91.7772 663.159 83.2355 656.493 Q74.6939 649.774 60.0065 649.774 Q45.267 649.774 36.7254 656.493 Q28.1838 663.159 28.1838 674.618 M19.6421 674.618 Q19.6421 658.263 30.6317 648.472 Q41.5691 638.68 60.0065 638.68 Q78.3918 638.68 89.3813 648.472 Q100.319 658.263 100.319 674.618 Q100.319 691.024 89.3813 700.867 Q78.4439 710.659 60.0065 710.659 Q41.5691 710.659 30.6317 700.867 Q19.6421 691.024 19.6421 674.618 Z"
     fill="#000000"
     fill-rule="nonzero"
     fill-opacity="1"
     id="path54" />
  <path
     clip-path="url(#clip920)"
     d="M56.8815 589.41 Q58.4961 581.858 63.6002 577.639 Q68.7044 573.368 76.2043 573.368 Q87.7147 573.368 94.0167 581.285 Q100.319 589.201 100.319 603.785 Q100.319 608.68 99.3292 613.889 Q98.3917 619.045 96.4646 624.566 L86.3084 624.566 Q88.8605 620.191 90.1626 614.982 Q91.4647 609.774 91.4647 604.097 Q91.4647 594.201 87.5584 589.045 Q83.6522 583.837 76.2043 583.837 Q69.3294 583.837 65.4752 588.68 Q61.569 593.472 61.569 602.066 L61.569 611.128 L52.9232 611.128 L52.9232 601.649 Q52.9232 593.889 49.8503 589.774 Q46.7253 585.66 40.892 585.66 Q34.9025 585.66 31.7254 589.93 Q28.4963 594.149 28.4963 602.066 Q28.4963 606.389 29.4337 611.337 Q30.3712 616.284 32.3504 622.222 L22.9755 622.222 Q21.3088 616.232 20.4755 611.024 Q19.6421 605.764 19.6421 601.128 Q19.6421 589.149 25.1109 582.17 Q30.5275 575.191 39.7983 575.191 Q46.2566 575.191 50.7357 578.889 Q55.1628 582.587 56.8815 589.41 Z"
     fill="#000000"
     fill-rule="nonzero"
     fill-opacity="1"
     id="path55" />
  <path
     clip-path="url(#clip920)"
     d="M17.8713 497.848 Q29.8504 504.827 41.5691 508.212 Q53.2878 511.598 65.319 511.598 Q77.3502 511.598 89.173 508.212 Q100.944 504.775 112.871 497.848 L112.871 506.181 Q100.631 513.993 88.8084 517.9 Q76.9856 521.754 65.319 521.754 Q53.7045 521.754 41.9337 517.9 Q30.1629 514.045 17.8713 506.181 L17.8713 497.848 Z"
     fill="#000000"
     fill-rule="nonzero"
     fill-opacity="1"
     id="path56" />
  <path
     clip-path="url(#clip920)"
     d="M90.0584 469.983 L120.996 469.983 L120.996 479.619 L40.4754 479.619 L40.4754 469.983 L49.3295 469.983 Q44.1212 466.962 41.6212 462.379 Q39.0691 457.744 39.0691 451.337 Q39.0691 440.713 47.5066 434.098 Q55.944 427.431 69.694 427.431 Q83.4439 427.431 91.8813 434.098 Q100.319 440.713 100.319 451.337 Q100.319 457.744 97.8188 462.379 Q95.2667 466.962 90.0584 469.983 M69.694 437.379 Q59.1211 437.379 53.1315 441.754 Q47.0899 446.077 47.0899 453.681 Q47.0899 461.285 53.1315 465.66 Q59.1211 469.983 69.694 469.983 Q80.2668 469.983 86.3084 465.66 Q92.298 461.285 92.298 453.681 Q92.298 446.077 86.3084 441.754 Q80.2668 437.379 69.694 437.379 Z"
     fill="#000000"
     fill-rule="nonzero"
     fill-opacity="1"
     id="path57" />
  <path
     clip-path="url(#clip920)"
     d="M90.0584 402.275 L120.996 402.275 L120.996 411.911 L40.4754 411.911 L40.4754 402.275 L49.3295 402.275 Q44.1212 399.254 41.6212 394.671 Q39.0691 390.036 39.0691 383.629 Q39.0691 373.005 47.5066 366.39 Q55.944 359.723 69.694 359.723 Q83.4439 359.723 91.8813 366.39 Q100.319 373.005 100.319 383.629 Q100.319 390.036 97.8188 394.671 Q95.2667 399.254 90.0584 402.275 M69.694 369.671 Q59.1211 369.671 53.1315 374.046 Q47.0899 378.369 47.0899 385.973 Q47.0899 393.577 53.1315 397.952 Q59.1211 402.275 69.694 402.275 Q80.2668 402.275 86.3084 397.952 Q92.298 393.577 92.298 385.973 Q92.298 378.369 86.3084 374.046 Q80.2668 369.671 69.694 369.671 Z"
     fill="#000000"
     fill-rule="nonzero"
     fill-opacity="1"
     id="path58" />
  <path
     clip-path="url(#clip920)"
     d="M51.6732 298.422 Q45.2149 294.828 42.142 289.828 Q39.0691 284.828 39.0691 278.057 Q39.0691 268.943 45.4753 263.995 Q51.8295 259.047 63.6002 259.047 L98.8084 259.047 L98.8084 268.682 L63.9127 268.682 Q55.5274 268.682 51.4649 271.651 Q47.4024 274.62 47.4024 280.713 Q47.4024 288.161 52.3503 292.484 Q57.2982 296.807 65.8398 296.807 L98.8084 296.807 L98.8084 306.442 L63.9127 306.442 Q55.4753 306.442 51.4649 309.411 Q47.4024 312.38 47.4024 318.578 Q47.4024 325.921 52.4024 330.244 Q57.3503 334.567 65.8398 334.567 L98.8084 334.567 L98.8084 344.203 L40.4754 344.203 L40.4754 334.567 L49.5378 334.567 Q44.1733 331.286 41.6212 326.703 Q39.0691 322.119 39.0691 315.817 Q39.0691 309.463 42.2983 305.036 Q45.5274 300.557 51.6732 298.422 Z"
     fill="#000000"
     fill-rule="nonzero"
     fill-opacity="1"
     id="path59" />
  <path
     clip-path="url(#clip920)"
     d="M17.8713 241.443 L17.8713 233.109 Q30.1629 225.297 41.9337 221.443 Q53.7045 217.537 65.319 217.537 Q76.9856 217.537 88.8084 221.443 Q100.631 225.297 112.871 233.109 L112.871 241.443 Q100.944 234.516 89.173 231.13 Q77.3502 227.693 65.319 227.693 Q53.2878 227.693 41.5691 231.13 Q29.8504 234.516 17.8713 241.443 Z"
     fill="#000000"
     fill-rule="nonzero"
     fill-opacity="1"
     id="path60" />
  <path
     clip-path="url(#clip922)"
     d="M598.566 445.427 L617.325 555.322 L636.084 553.223 L654.843 559.704 L673.602 553.716 L692.361 581 L711.12 598.158 L729.88 555.612 L748.639 556.872 L767.398 741.347 L786.157 612.024 L804.916 657.356 L823.675 687.917 L842.434 572.008 L861.193 596.235 L879.952 747.547 L898.711 746.152 L917.47 775.258 L936.229 726.233 L954.988 695.21 L973.747 806.149 L992.506 679.074 L1011.27 690.576 L1030.02 622.411 L1048.78 763.54 L1067.54 616.96 L1086.3 845.075 L1105.06 718.4 L1123.82 676.825 L1142.58 716.216 L1161.34 628.186 L1180.1 658.251 L1198.86 852.436 L1217.61 727.404 L1236.37 607.551 L1255.13 811.33 L1273.89 664.588 L1292.65 671.935 L1311.41 609.149 L1330.17 753.223 L1348.93 754.164 L1367.69 747.31 L1386.45 686.218 L1405.21 630.724 L1423.96 773.584 L1442.72 689.299 L1461.48 666.766 L1480.24 629.764 L1499 741.763 L1517.76 629.014 L1536.52 690.283 L1555.28 782.803 L1574.04 626.587 L1592.8 712.812 L1611.55 610.49 L1630.31 637.554 L1649.07 855.422 L1667.83 734.574 L1686.59 607.052 L1705.35 811.613 L1724.11 608.574 L1742.87 649.463 L1761.63 609.983 L1780.39 754.892 L1799.14 753.363 L1817.9 748.379 L1836.66 686.112 L1855.42 683.073 L1874.18 777.679 L1892.94 687.315 L1911.7 672.958 L1930.46 628.068 L1949.22 749.222 L1967.98 624.002 L1986.74 687.468 L2005.49 783.883 L2024.25 616.231 L2043.01 717.265 L2061.77 616.904 L2080.53 640.172 L2099.29 856.67 L2118.05 734.099 L2136.81 611.052 L2155.57 811.676 L2174.33 608.32 L2193.08 654.698 L2211.84 607.85 L2230.6 751.181 L2249.36 753.793 L2268.12 749.518 L2286.88 685.543 L2305.64 661.418 L2324.4 772.391 L2343.16 689.805 L2361.92 666.098 L2380.68 629.792 L2399.43 748.035 L2418.19 624.511 L2436.95 685.273 L2455.71 784.742 L2474.47 619.955 L2493.23 715.921 L2511.99 613.624 L2530.75 640.242 L2549.51 856.143 L2568.27 734.25 L2587.02 607.416 L2605.78 811.854 L2624.54 607.863 L2643.3 653.698 L2662.06 609.054 L2680.82 754.637 L2699.58 754.001 L2718.34 740.084 L2737.1 689.415 L2755.86 671.624 L2774.62 772.218 L2793.37 689.92 L2812.13 670.749 L2830.89 628.788 L2849.65 748.434 L2868.41 624.137 L2887.17 688.676 L2905.93 783.409 L2924.69 621.343 L2943.45 717.025 L2962.21 616.755 L2980.96 639.403 L2999.72 857.001 L3018.48 734.154 L3037.24 608.742 L3056 811.735 L3074.76 608.38 L3093.52 653.688 L3112.28 608.002 L3131.04 751.241 L3149.8 753.411 L3168.55 740.496 L3187.31 689.322 L3206.07 667.884 L3224.83 768.608 L3243.59 691.567 L3262.35 672.533 L3281.11 628.194 L3299.87 748.332 L3318.63 624.225 L3337.39 687.179 L3356.15 783.984 L3374.9 617.686 L3393.66 716.479 L3412.42 613.898 L3431.18 639.84 L3449.94 855.678 L3468.7 734.496 L3487.46 609.297 L3506.22 811.863 L3524.98 608.182 L3543.74 653.905 L3562.49 608.416 L3581.25 754.662 L3600.01 753.688 L3618.77 736.354 L3637.53 691.052 L3656.29 669.509 L3675.05 775.193 L3693.81 688.444 L3712.57 673.802 L3731.33 627.77 L3750.09 748.366 L3768.84 624.215 L3787.6 688.443 L3806.36 783.478 L3825.12 617.429 L3843.88 717.081 L3862.64 616.647 L3881.4 639.768 L3900.16 854.979 L3918.92 734.462 L3937.68 608.395 L3956.43 811.675 L3975.19 608.126 L3993.95 653.66 L4012.71 613.58 L4031.47 751.317 L4050.23 754.329 L4068.99 740.162 L4087.75 689.521 L4106.51 669.368 L4125.27 774.576 L4144.03 688.842 L4162.78 670.786 L4181.54 628.625 L4200.3 748.356 L4219.06 624.211 L4237.82 689.269 L4256.58 783.141 L4275.34 619.277 L4294.1 717.143 L4312.86 613.881 L4331.62 639.725 L4350.37 857.356 L4369.13 734.462 L4387.89 608.557 L4406.65 811.758 L4425.41 608.351 L4444.17 653.886 L4462.93 608.639 L4481.69 754.853 L4500.45 753.4 L4519.21 742.814 L4537.96 688.325 L4556.72 668.746 L4575.48 771.681 L4594.24 690.189 L4613 670.917 L4631.76 628.585 L4631.76 183.802 L4613 107.901 L4594.24 211.229 L4575.48 164.205 L4556.72 108.81 L4537.96 189.42 L4519.21 153.255 L4500.45 163.052 L4481.69 142.528 L4462.93 78.9988 L4444.17 134.291 L4425.41 176.284 L4406.65 165.516 L4387.89 160.617 L4369.13 86.1239 L4350.37 222.355 L4331.62 153.676 L4312.86 116.426 L4294.1 194.345 L4275.34 149.665 L4256.58 161.893 L4237.82 154.647 L4219.06 100.78 L4200.3 112.144 L4181.54 183.737 L4162.78 107.685 L4144.03 211.443 L4125.27 164.816 L4106.51 107.858 L4087.75 187.184 L4068.99 153.154 L4050.23 163.902 L4031.47 145.582 L4012.71 81.4141 L3993.95 134.325 L3975.19 176.368 L3956.43 165.306 L3937.68 160.509 L3918.92 85.5626 L3900.16 223.142 L3881.4 153.505 L3862.64 112.103 L3843.88 193.3 L3825.12 149.342 L3806.36 161.843 L3787.6 154.56 L3768.84 99.9533 L3750.09 112.155 L3731.33 183.742 L3712.57 107.937 L3693.81 211.269 L3675.05 164.543 L3656.29 111.114 L3637.53 185.606 L3618.77 153.063 L3600.01 163.347 L3581.25 149.405 L3562.49 79.845 L3543.74 134.294 L3524.98 176.297 L3506.22 165.352 L3487.46 160.64 L3468.7 85.7833 L3449.94 222.752 L3431.18 154.14 L3412.42 113.075 L3393.66 194.465 L3374.9 149.5 L3356.15 159.329 L3337.39 154.528 L3318.63 99.2446 L3299.87 112.185 L3281.11 183.722 L3262.35 107.694 L3243.59 211.453 L3224.83 164.331 L3206.07 108.808 L3187.31 191.425 L3168.55 153.28 L3149.8 163.879 L3131.04 145.023 L3112.28 79.0435 L3093.52 134.316 L3074.76 176.333 L3056 165.062 L3037.24 160.368 L3018.48 86.1623 L2999.72 223.103 L2980.96 154.052 L2962.21 115.221 L2943.45 194.501 L2924.69 149.304 L2905.93 161.637 L2887.17 154.612 L2868.41 100.5 L2849.65 112.272 L2830.89 183.825 L2812.13 107.934 L2793.37 211.23 L2774.62 164.406 L2755.86 110.81 L2737.1 188.799 L2718.34 152.688 L2699.58 163.006 L2680.82 145.021 L2662.06 80.6475 L2643.3 134.271 L2624.54 176.375 L2605.78 165.701 L2587.02 160.728 L2568.27 85.2691 L2549.51 222.111 L2530.75 151.937 L2511.99 114.267 L2493.23 193.531 L2474.47 149.525 L2455.71 158.828 L2436.95 154.616 L2418.19 98.3018 L2399.43 112.552 L2380.68 183.418 L2361.92 107.753 L2343.16 211.301 L2324.4 165.16 L2305.64 109.154 L2286.88 188.731 L2268.12 154.084 L2249.36 162.897 L2230.6 136.588 L2211.84 79.7946 L2193.08 134.433 L2174.33 175.397 L2155.57 166.495 L2136.81 154.124 L2118.05 85.8314 L2099.29 225.683 L2080.53 159.794 L2061.77 114.743 L2043.01 194.244 L2024.25 148.938 L2005.49 160.334 L1986.74 154.537 L1967.98 99.4283 L1949.22 113.237 L1930.46 184.762 L1911.7 106.082 L1892.94 213.492 L1874.18 164.402 L1855.42 108.275 L1836.66 184.427 L1817.9 153.44 L1799.14 164.671 L1780.39 137.977 L1761.63 79.04 L1742.87 133.733 L1724.11 180.349 L1705.35 169.654 L1686.59 172.106 L1667.83 86.6225 L1649.07 225.075 L1630.31 139.489 L1611.55 112.658 L1592.8 192.953 L1574.04 149.784 L1555.28 157.246 L1536.52 154.543 L1517.76 100.297 L1499 112.917 L1480.24 179.471 L1461.48 108.547 L1442.72 210.291 L1423.96 165.753 L1405.21 109.372 L1386.45 187.541 L1367.69 161.523 L1348.93 163.088 L1330.17 138.274 L1311.41 80.601 L1292.65 137.19 L1273.89 159.842 L1255.13 174.444 L1236.37 92.0404 L1217.61 71.2824 L1198.86 233.256 L1180.1 182.27 L1161.34 106.997 L1142.58 198.931 L1123.82 148.177 L1105.06 233.102 L1086.3 153.812 L1067.54 203.656 L1048.78 104.38 L1030.02 193.734 L1011.27 105.665 L992.506 212.412 L973.747 166.635 L954.988 126.644 L936.229 159.553 L917.47 235.172 L898.711 155.503 L879.952 108.906 L861.193 70.8396 L842.434 132.665 L823.675 239.205 L804.916 180.141 L786.157 239.488 L767.398 216.541 L748.639 236.279 L729.88 107.282 L711.12 313.049 L692.361 292.95 L673.602 350.456 L654.843 270.377 L636.084 320.348 L617.325 416.204 L598.566 444.839  Z"
     fill="#b0b0b0"
     fill-rule="evenodd"
     fill-opacity="0.5"
     id="path61" />
  <polyline
     clip-path="url(#clip922)"
     style="stroke:#b0b0b0; stroke-linecap:round; stroke-linejoin:round; stroke-width:0; stroke-opacity:1; fill:none"
     points="598.566,445.143 617.325,468.519 636.084,465.042 654.843,461.325 673.602,459.1 692.361,456.619 711.12,453.703 729.88,450.774 748.639,450.541 767.398,450.251 786.157,448.64 804.916,446.237 823.675,445.83 842.434,445.897 861.193,447.857 879.952,450.297 898.711,451.817 917.47,452.14 936.229,450.47 954.988,448.337 973.747,447.784 992.506,448.299 1011.27,448.827 1030.02,451.201 1048.78,451.765 1067.54,451.959 1086.3,452.436 1105.06,452.037 1123.82,451.332 1142.58,451.022 1161.34,449.638 1180.1,450.855 1198.86,452.414 1217.61,449.561 1236.37,447.747 1255.13,447.068 1273.89,448.027 1292.65,448.162 1311.41,448.623 1330.17,450.617 1348.93,451.669 1367.69,451.286 1386.45,449.682 1405.21,448.304 1423.96,447.931 1442.72,448.262 1461.48,448.673 1480.24,450.936 1499,451.696 1517.76,451.431 1536.52,452.292 1555.28,452.247 1574.04,451.423 1592.8,450.87 1611.55,449.42 1630.31,450.096 1649.07,451.979 1667.83,449.947 1686.59,448.959 1705.35,447.184 1724.11,447.602 1742.87,447.931 1761.63,448.735 1780.39,450.603 1799.14,451.567 1817.9,451.364 1836.66,449.933 1855.42,448.349 1874.18,447.831 1892.94,448.292 1911.7,448.723 1930.46,450.914 1949.22,451.622 1967.98,451.385 1986.74,452.193 2005.49,452.254 2024.25,451.402 2043.01,450.957 2061.77,449.556 2080.53,450.341 2099.29,452.091 2118.05,449.75 2136.81,448.429 2155.57,447.053 2174.33,447.782 2193.08,448.104 2211.84,448.666 2230.6,450.622 2249.36,451.684 2268.12,451.383 2286.88,449.871 2305.64,448.347 2324.4,447.868 2343.16,448.228 2361.92,448.678 2380.68,450.958 2399.43,451.686 2418.19,451.414 2436.95,452.213 2455.71,452.229 2474.47,451.39 2493.23,450.868 2511.99,449.435 2530.75,450.222 2549.51,452.051 2568.27,449.88 2587.02,448.763 2605.78,447.146 2624.54,447.699 2643.3,448.026 2662.06,448.737 2680.82,450.662 2699.58,451.592 2718.34,451.331 2737.1,449.893 2755.86,448.342 2774.62,447.851 2793.37,448.287 2812.13,448.741 2830.89,450.958 2849.65,451.64 2868.41,451.384 2887.17,452.199 2905.93,452.268 2924.69,451.41 2943.45,450.907 2962.21,449.485 2980.96,450.282 2999.72,452.08 3018.48,449.819 3037.24,448.578 3056,447.068 3074.76,447.727 3093.52,448.084 3112.28,448.731 3131.04,450.642 3149.8,451.618 3168.55,451.351 3187.31,449.897 3206.07,448.351 3224.83,447.856 3243.59,448.283 3262.35,448.728 3281.11,450.953 3299.87,451.643 3318.63,451.396 3337.39,452.215 3356.15,452.223 3374.9,451.38 3393.66,450.865 3412.42,449.442 3431.18,450.243 3449.94,452.063 3468.7,449.874 3487.46,448.703 3506.22,447.161 3524.98,447.751 3543.74,448.057 3562.49,448.719 3581.25,450.646 3600.01,451.576 3618.77,451.323 3637.53,449.88 3656.29,448.357 3675.05,447.878 3693.81,448.31 3712.57,448.75 3731.33,450.948 3750.09,451.646 3768.84,451.401 3787.6,452.201 3806.36,452.229 3825.12,451.404 3843.88,450.901 3862.64,449.477 3881.4,450.264 3900.16,452.068 3918.92,449.831 3937.68,448.622 3956.43,447.07 3975.19,447.738 3993.95,448.083 4012.71,448.728 4031.47,450.645 4050.23,451.623 4068.99,451.353 4087.75,449.891 4106.51,448.362 4125.27,447.871 4144.03,448.271 4162.78,448.713 4181.54,450.95 4200.3,451.646 4219.06,451.395 4237.82,452.219 4256.58,452.252 4275.34,451.422 4294.1,450.906 4312.86,449.492 4331.62,450.225 4350.37,452.031 4369.13,449.834 4387.89,448.7 4406.65,447.138 4425.41,447.723 4444.17,448.051 4462.93,448.729 4481.69,450.648 4500.45,451.612 4519.21,451.339 4537.96,449.88 4556.72,448.333 4575.48,447.841 4594.24,448.272 4613,448.715 4631.76,450.965 "
     id="polyline61" />
  <path
     clip-path="url(#clip922)"
     d="M598.566 445.356 L617.325 527.159 L636.084 523.851 L654.843 514.5 L673.602 510.124 L692.361 504.948 L711.12 503.33 L729.88 498.647 L748.639 504.044 L767.398 499.978 L786.157 496.891 L804.916 493.522 L823.675 491.597 L842.434 495.871 L861.193 499.516 L879.952 512.607 L898.711 526.343 L917.47 528.585 L936.229 515.605 L954.988 505.267 L973.747 501.491 L992.506 506.155 L1011.27 510.472 L1030.02 514.942 L1048.78 516.791 L1067.54 511.222 L1086.3 516.526 L1105.06 506.776 L1123.82 513.351 L1142.58 503.989 L1161.34 505.14 L1180.1 510.57 L1198.86 514.17 L1217.61 508.014 L1236.37 502.633 L1255.13 498.572 L1273.89 497.868 L1292.65 515.618 L1311.41 523.027 L1330.17 514.224 L1348.93 523.349 L1367.69 525.798 L1386.45 520.327 L1405.21 510.007 L1423.96 503.946 L1442.72 508.957 L1461.48 509.841 L1480.24 518.827 L1499 517.475 L1517.76 514.339 L1536.52 519.26 L1555.28 509.1 L1574.04 521.428 L1592.8 503.218 L1611.55 504.905 L1630.31 510.365 L1649.07 513.477 L1667.83 514.204 L1686.59 504.843 L1705.35 502.242 L1724.11 498.613 L1742.87 508.594 L1761.63 522.888 L1780.39 518.905 L1799.14 519.585 L1817.9 527.392 L1836.66 518.631 L1855.42 510.219 L1874.18 503.837 L1892.94 509.284 L1911.7 511.025 L1930.46 519.053 L1949.22 517.557 L1967.98 512.984 L1986.74 519.078 L2005.49 509.116 L2024.25 520.713 L2043.01 503.844 L2061.77 505.328 L2080.53 511.043 L2099.29 513.44 L2118.05 509.691 L2136.81 503.994 L2155.57 500.726 L2174.33 498.784 L2193.08 517.089 L2211.84 522.858 L2230.6 518.932 L2249.36 523.119 L2268.12 527.302 L2286.88 520.852 L2305.64 510.129 L2324.4 503.895 L2343.16 509.243 L2361.92 511.166 L2380.68 518.99 L2399.43 517.897 L2418.19 514.992 L2436.95 519.16 L2455.71 509.111 L2474.47 520.485 L2493.23 503.635 L2511.99 504.919 L2530.75 510.831 L2549.51 513.069 L2568.27 509.667 L2587.02 505.374 L2605.78 501.923 L2624.54 498.785 L2643.3 511.717 L2662.06 522.893 L2680.82 519.093 L2699.58 522.136 L2718.34 526.903 L2737.1 520.549 L2755.86 510.365 L2774.62 503.869 L2793.37 509.204 L2812.13 511.286 L2830.89 518.749 L2849.65 517.304 L2868.41 514.511 L2887.17 519.302 L2905.93 509.051 L2924.69 520.372 L2943.45 503.699 L2962.21 504.859 L2980.96 510.873 L2999.72 513.328 L3018.48 509.652 L3037.24 504.207 L3056 500.665 L3074.76 498.743 L3093.52 516.476 L3112.28 522.892 L3131.04 519.047 L3149.8 522.379 L3168.55 527.311 L3187.31 519.658 L3206.07 510.113 L3224.83 503.865 L3243.59 509.174 L3262.35 511.133 L3281.11 519.005 L3299.87 517.765 L3318.63 514.9 L3337.39 519.137 L3356.15 508.956 L3374.9 520.373 L3393.66 503.599 L3412.42 505.032 L3431.18 510.956 L3449.94 513.079 L3468.7 509.645 L3487.46 504.869 L3506.22 502.112 L3524.98 498.622 L3543.74 512.949 L3562.49 522.867 L3581.25 518.954 L3600.01 522.343 L3618.77 527.049 L3637.53 520.231 L3656.29 510.15 L3675.05 503.886 L3693.81 509.07 L3712.57 511.144 L3731.33 519.017 L3750.09 517.411 L3768.84 514.973 L3787.6 519.371 L3806.36 509.047 L3825.12 520.87 L3843.88 503.718 L3862.64 505.366 L3881.4 510.966 L3900.16 513.457 L3918.92 509.512 L3937.68 505.049 L3956.43 501.816 L3975.19 498.8 L3993.95 515.687 L4012.71 522.908 L4031.47 519.052 L4050.23 522.247 L4068.99 527.424 L4087.75 519.596 L4106.51 510.318 L4125.27 503.886 L4144.03 509.161 L4162.78 511.126 L4181.54 518.946 L4200.3 517.42 L4219.06 514.969 L4237.82 519.204 L4256.58 509.136 L4275.34 521.028 L4294.1 503.651 L4312.86 504.967 L4331.62 510.796 L4350.37 513.352 L4369.13 509.633 L4387.89 504.528 L4406.65 502.185 L4425.41 498.61 L4444.17 513.789 L4462.93 522.885 L4481.69 519.023 L4500.45 522.351 L4519.21 527.292 L4537.96 520.63 L4556.72 510.097 L4575.48 503.882 L4594.24 508.958 L4613 510.956 L4631.76 518.974 L4631.76 351.633 L4613 340.453 L4594.24 353.738 L4575.48 348.97 L4556.72 332.024 L4537.96 361.019 L4519.21 344.007 L4500.45 352.969 L4481.69 351.226 L4462.93 363.891 L4444.17 347.549 L4425.41 366.066 L4406.65 354.177 L4387.89 345.394 L4369.13 356.218 L4350.37 367.486 L4331.62 370.149 L4312.86 355.879 L4294.1 374.441 L4275.34 366.769 L4256.58 365.473 L4237.82 354.714 L4219.06 348.889 L4200.3 347.602 L4181.54 351.674 L4162.78 340.096 L4144.03 353.438 L4125.27 349.049 L4106.51 332.415 L4087.75 360.992 L4068.99 344.224 L4050.23 352.154 L4031.47 351.064 L4012.71 363.849 L3993.95 347.95 L3975.19 366.258 L3956.43 354.481 L3937.68 345.375 L3918.92 356.251 L3900.16 367.477 L3881.4 370.215 L3862.64 355.723 L3843.88 374.276 L3825.12 366.835 L3806.36 365.586 L3787.6 354.643 L3768.84 348.478 L3750.09 347.612 L3731.33 351.491 L3712.57 340.271 L3693.81 353.512 L3675.05 349.098 L3656.29 332.212 L3637.53 360.784 L3618.77 343.545 L3600.01 352.889 L3581.25 351.237 L3562.49 363.945 L3543.74 347.951 L3524.98 365.804 L3506.22 355.032 L3487.46 345.552 L3468.7 356.344 L3449.94 367.644 L3431.18 370.121 L3412.42 355.742 L3393.66 373.623 L3374.9 366.986 L3356.15 362.057 L3337.39 355.013 L3318.63 348.648 L3299.87 347.487 L3281.11 351.49 L3262.35 340.359 L3243.59 354.244 L3224.83 349.122 L3206.07 331.531 L3187.31 360.911 L3168.55 344.019 L3149.8 352.48 L3131.04 351.037 L3112.28 363.815 L3093.52 347.985 L3074.76 366.235 L3056 354.585 L3037.24 345.425 L3018.48 356.249 L2999.72 367.553 L2980.96 370.1 L2962.21 355.735 L2943.45 374.567 L2924.69 366.91 L2905.93 365.384 L2887.17 354.625 L2868.41 348.754 L2849.65 347.683 L2830.89 351.607 L2812.13 340.35 L2793.37 353.578 L2774.62 349.063 L2755.86 332.319 L2737.1 361.04 L2718.34 343.601 L2699.58 352.509 L2680.82 351.254 L2662.06 364.205 L2643.3 347.567 L2624.54 365.407 L2605.78 354.732 L2587.02 345.461 L2568.27 356.135 L2549.51 365.98 L2530.75 370.144 L2511.99 355.698 L2493.23 374.399 L2474.47 366.758 L2455.71 361.536 L2436.95 354.998 L2418.19 348.646 L2399.43 347.584 L2380.68 351.51 L2361.92 340.159 L2343.16 353.349 L2324.4 349.117 L2305.64 332.354 L2286.88 360.935 L2268.12 343.98 L2249.36 352.826 L2230.6 351.031 L2211.84 364.117 L2193.08 347.451 L2174.33 366.338 L2155.57 354.913 L2136.81 344.961 L2118.05 356.294 L2099.29 367.409 L2080.53 370.426 L2061.77 355.841 L2043.01 374.358 L2024.25 366.922 L2005.49 365.559 L1986.74 354.56 L1967.98 348.764 L1949.22 347.466 L1930.46 351.523 L1911.7 340.247 L1892.94 354.472 L1874.18 348.84 L1855.42 332.256 L1836.66 360.918 L1817.9 344.15 L1799.14 352.666 L1780.39 351.198 L1761.63 363.692 L1742.87 348.105 L1724.11 365.299 L1705.35 354.716 L1686.59 345.766 L1667.83 356.419 L1649.07 363.357 L1630.31 369.204 L1611.55 355.773 L1592.8 375.086 L1574.04 368.811 L1555.28 360.977 L1536.52 354.969 L1517.76 348.982 L1499 347.753 L1480.24 351.743 L1461.48 340.319 L1442.72 352.147 L1423.96 349.091 L1405.21 333.709 L1386.45 361.137 L1367.69 343 L1348.93 352.682 L1330.17 351.24 L1311.41 364.243 L1292.65 349.788 L1273.89 365.32 L1255.13 353.971 L1236.37 341.144 L1217.61 353.425 L1198.86 368.17 L1180.1 371.589 L1161.34 353.53 L1142.58 372.646 L1123.82 369.768 L1105.06 366.879 L1086.3 354.879 L1067.54 352.22 L1048.78 350.413 L1030.02 355.681 L1011.27 342.674 L992.506 354.399 L973.747 349.315 L954.988 337.861 L936.229 359.68 L917.47 343.301 L898.711 354.449 L879.952 352.631 L861.193 368.711 L842.434 353.031 L823.675 350.954 L804.916 364.569 L786.157 367.282 L767.398 377.68 L748.639 385.605 L729.88 381.033 L711.12 393.834 L692.361 410.484 L673.602 421.541 L654.843 422.669 L636.084 433.762 L617.325 455.922 L598.566 444.984  Z"
     fill="#777777"
     fill-rule="evenodd"
     fill-opacity="0.5"
     id="path62" />
  <polyline
     clip-path="url(#clip922)"
     style="stroke:#777777; stroke-linecap:round; stroke-linejoin:round; stroke-width:0; stroke-opacity:1; fill:none"
     points="598.566,445.143 617.325,468.519 636.084,465.042 654.843,461.325 673.602,459.1 692.361,456.619 711.12,453.703 729.88,450.774 748.639,450.541 767.398,450.251 786.157,448.64 804.916,446.237 823.675,445.83 842.434,445.897 861.193,447.857 879.952,450.297 898.711,451.817 917.47,452.14 936.229,450.47 954.988,448.337 973.747,447.784 992.506,448.299 1011.27,448.827 1030.02,451.201 1048.78,451.765 1067.54,451.959 1086.3,452.436 1105.06,452.037 1123.82,451.332 1142.58,451.022 1161.34,449.638 1180.1,450.855 1198.86,452.414 1217.61,449.561 1236.37,447.747 1255.13,447.068 1273.89,448.027 1292.65,448.162 1311.41,448.623 1330.17,450.617 1348.93,451.669 1367.69,451.286 1386.45,449.682 1405.21,448.304 1423.96,447.931 1442.72,448.262 1461.48,448.673 1480.24,450.936 1499,451.696 1517.76,451.431 1536.52,452.292 1555.28,452.247 1574.04,451.423 1592.8,450.87 1611.55,449.42 1630.31,450.096 1649.07,451.979 1667.83,449.947 1686.59,448.959 1705.35,447.184 1724.11,447.602 1742.87,447.931 1761.63,448.735 1780.39,450.603 1799.14,451.567 1817.9,451.364 1836.66,449.933 1855.42,448.349 1874.18,447.831 1892.94,448.292 1911.7,448.723 1930.46,450.914 1949.22,451.622 1967.98,451.385 1986.74,452.193 2005.49,452.254 2024.25,451.402 2043.01,450.957 2061.77,449.556 2080.53,450.341 2099.29,452.091 2118.05,449.75 2136.81,448.429 2155.57,447.053 2174.33,447.782 2193.08,448.104 2211.84,448.666 2230.6,450.622 2249.36,451.684 2268.12,451.383 2286.88,449.871 2305.64,448.347 2324.4,447.868 2343.16,448.228 2361.92,448.678 2380.68,450.958 2399.43,451.686 2418.19,451.414 2436.95,452.213 2455.71,452.229 2474.47,451.39 2493.23,450.868 2511.99,449.435 2530.75,450.222 2549.51,452.051 2568.27,449.88 2587.02,448.763 2605.78,447.146 2624.54,447.699 2643.3,448.026 2662.06,448.737 2680.82,450.662 2699.58,451.592 2718.34,451.331 2737.1,449.893 2755.86,448.342 2774.62,447.851 2793.37,448.287 2812.13,448.741 2830.89,450.958 2849.65,451.64 2868.41,451.384 2887.17,452.199 2905.93,452.268 2924.69,451.41 2943.45,450.907 2962.21,449.485 2980.96,450.282 2999.72,452.08 3018.48,449.819 3037.24,448.578 3056,447.068 3074.76,447.727 3093.52,448.084 3112.28,448.731 3131.04,450.642 3149.8,451.618 3168.55,451.351 3187.31,449.897 3206.07,448.351 3224.83,447.856 3243.59,448.283 3262.35,448.728 3281.11,450.953 3299.87,451.643 3318.63,451.396 3337.39,452.215 3356.15,452.223 3374.9,451.38 3393.66,450.865 3412.42,449.442 3431.18,450.243 3449.94,452.063 3468.7,449.874 3487.46,448.703 3506.22,447.161 3524.98,447.751 3543.74,448.057 3562.49,448.719 3581.25,450.646 3600.01,451.576 3618.77,451.323 3637.53,449.88 3656.29,448.357 3675.05,447.878 3693.81,448.31 3712.57,448.75 3731.33,450.948 3750.09,451.646 3768.84,451.401 3787.6,452.201 3806.36,452.229 3825.12,451.404 3843.88,450.901 3862.64,449.477 3881.4,450.264 3900.16,452.068 3918.92,449.831 3937.68,448.622 3956.43,447.07 3975.19,447.738 3993.95,448.083 4012.71,448.728 4031.47,450.645 4050.23,451.623 4068.99,451.353 4087.75,449.891 4106.51,448.362 4125.27,447.871 4144.03,448.271 4162.78,448.713 4181.54,450.95 4200.3,451.646 4219.06,451.395 4237.82,452.219 4256.58,452.252 4275.34,451.422 4294.1,450.906 4312.86,449.492 4331.62,450.225 4350.37,452.031 4369.13,449.834 4387.89,448.7 4406.65,447.138 4425.41,447.723 4444.17,448.051 4462.93,448.729 4481.69,450.648 4500.45,451.612 4519.21,451.339 4537.96,449.88 4556.72,448.333 4575.48,447.841 4594.24,448.272 4613,448.715 4631.76,450.965 "
     id="polyline62" />
  <path
     clip-path="url(#clip922)"
     d="M598.566 445.295 L617.325 516.353 L636.084 514.783 L654.843 506.252 L673.602 502.519 L692.361 497.579 L711.12 495.085 L729.88 491.421 L748.639 491.758 L767.398 488.808 L786.157 488.615 L804.916 484.054 L823.675 481.751 L842.434 481.222 L861.193 485.608 L879.952 495.41 L898.711 499.183 L917.47 500.41 L936.229 496.448 L954.988 488.559 L973.747 485.03 L992.506 488.503 L1011.27 493.277 L1030.02 497.598 L1048.78 500.759 L1067.54 495.95 L1086.3 496.845 L1105.06 493.612 L1123.82 495.777 L1142.58 492.623 L1161.34 490.806 L1180.1 494.152 L1198.86 495.985 L1217.61 491.851 L1236.37 489.96 L1255.13 485.98 L1273.89 488.304 L1292.65 487.192 L1311.41 488.271 L1330.17 497.128 L1348.93 497.788 L1367.69 499.609 L1386.45 494.191 L1405.21 489.334 L1423.96 485.739 L1442.72 488.692 L1461.48 494.579 L1480.24 498.015 L1499 500.323 L1517.76 496.009 L1536.52 498.401 L1555.28 494.321 L1574.04 496.346 L1592.8 492.97 L1611.55 490.696 L1630.31 493.431 L1649.07 494.277 L1667.83 493.099 L1686.59 491.549 L1705.35 486.241 L1724.11 487.859 L1742.87 487.164 L1761.63 488.701 L1780.39 496.755 L1799.14 499.539 L1817.9 498.601 L1836.66 494.421 L1855.42 488.962 L1874.18 485.281 L1892.94 488.896 L1911.7 494.265 L1930.46 497.986 L1949.22 500.389 L1967.98 496.313 L1986.74 498.062 L2005.49 493.838 L2024.25 496.469 L2043.01 492.192 L2061.77 490.882 L2080.53 493.987 L2099.29 494.355 L2118.05 492.054 L2136.81 491.037 L2155.57 486.154 L2174.33 487.702 L2193.08 487.084 L2211.84 488.995 L2230.6 497.325 L2249.36 499.341 L2268.12 498.909 L2286.88 494.445 L2305.64 488.964 L2324.4 485.504 L2343.16 488.687 L2361.92 494.911 L2380.68 498.005 L2399.43 500.286 L2418.19 496.197 L2436.95 498.243 L2455.71 493.936 L2474.47 496.374 L2493.23 492.138 L2511.99 491.079 L2530.75 493.834 L2549.51 494.497 L2568.27 492.784 L2587.02 491.407 L2605.78 486.261 L2624.54 487.708 L2643.3 487.001 L2662.06 488.749 L2680.82 496.924 L2699.58 499.564 L2718.34 498.919 L2737.1 494.538 L2755.86 489.067 L2774.62 485.421 L2793.37 488.735 L2812.13 495.2 L2830.89 497.999 L2849.65 500.359 L2868.41 496.392 L2887.17 498.157 L2905.93 493.976 L2924.69 496.389 L2943.45 492.196 L2962.21 491.041 L2980.96 493.904 L2999.72 494.434 L3018.48 493.034 L3037.24 491.222 L3056 486.164 L3074.76 487.609 L3093.52 487.125 L3112.28 489.116 L3131.04 496.744 L3149.8 499.475 L3168.55 498.966 L3187.31 494.315 L3206.07 489.08 L3224.83 485.458 L3243.59 488.746 L3262.35 495.07 L3281.11 498.003 L3299.87 500.282 L3318.63 496.271 L3337.39 498.182 L3356.15 493.87 L3374.9 496.346 L3393.66 492.122 L3412.42 491.108 L3431.18 493.806 L3449.94 494.385 L3468.7 492.975 L3487.46 491.348 L3506.22 486.242 L3524.98 487.636 L3543.74 486.93 L3562.49 488.669 L3581.25 496.942 L3600.01 498.842 L3618.77 498.892 L3637.53 494.607 L3656.29 489.165 L3675.05 485.491 L3693.81 488.789 L3712.57 495.128 L3731.33 497.993 L3750.09 500.257 L3768.84 496.199 L3787.6 498.217 L3806.36 493.825 L3825.12 496.392 L3843.88 492.137 L3862.64 490.909 L3881.4 493.968 L3900.16 494.668 L3918.92 493.052 L3937.68 491.265 L3956.43 486.177 L3975.19 487.654 L3993.95 487.037 L4012.71 489.103 L4031.47 496.816 L4050.23 499.519 L4068.99 498.916 L4087.75 494.58 L4106.51 489.147 L4125.27 485.425 L4144.03 488.736 L4162.78 495.048 L4181.54 497.996 L4200.3 500.301 L4219.06 496.012 L4237.82 498.193 L4256.58 493.946 L4275.34 496.345 L4294.1 492.091 L4312.86 491.084 L4331.62 493.861 L4350.37 494.385 L4369.13 493.107 L4387.89 491.349 L4406.65 486.219 L4425.41 487.542 L4444.17 487.017 L4462.93 488.727 L4481.69 496.864 L4500.45 499.578 L4519.21 499.046 L4537.96 494.557 L4556.72 489.057 L4575.48 485.449 L4594.24 488.779 L4613 495.13 L4631.76 498.021 L4631.76 399.939 L4613 391.72 L4594.24 393.384 L4575.48 387.617 L4556.72 391.176 L4537.96 397.066 L4519.21 397.348 L4500.45 394.834 L4481.69 399.521 L4462.93 395.484 L4444.17 394.982 L4425.41 395.474 L4406.65 393.685 L4387.89 391.757 L4369.13 400.776 L4350.37 400.41 L4331.62 404.741 L4312.86 404.236 L4294.1 402.496 L4275.34 402.76 L4256.58 408.567 L4237.82 406.339 L4219.06 406.129 L4200.3 406.281 L4181.54 399.799 L4162.78 391.546 L4144.03 393.24 L4125.27 387.713 L4106.51 391.328 L4087.75 396.888 L4068.99 397.43 L4050.23 393.22 L4031.47 399.368 L4012.71 395.488 L3993.95 394.984 L3975.19 395.678 L3956.43 393.469 L3937.68 391.572 L3918.92 399.404 L3900.16 400.278 L3881.4 404.838 L3862.64 404.323 L3843.88 402.447 L3825.12 402.574 L3806.36 408.412 L3787.6 406.382 L3768.84 406.074 L3750.09 406.396 L3731.33 399.538 L3712.57 391.658 L3693.81 393.492 L3675.05 387.67 L3656.29 391.306 L3637.53 396.682 L3618.77 397.293 L3600.01 391.1 L3581.25 399.426 L3562.49 395.443 L3543.74 394.99 L3524.98 395.659 L3506.22 393.643 L3487.46 391.752 L3468.7 400.768 L3449.94 400.202 L3431.18 404.731 L3412.42 404.034 L3393.66 402.355 L3374.9 402.794 L3356.15 408.416 L3337.39 406.404 L3318.63 405.936 L3299.87 406.302 L3281.11 399.744 L3262.35 391.603 L3243.59 393.135 L3224.83 387.74 L3206.07 391.036 L3187.31 396.687 L3168.55 397.816 L3149.8 393.469 L3131.04 399.404 L3112.28 395.556 L3093.52 395.061 L3074.76 395.535 L3056 393.581 L3037.24 391.622 L3018.48 399.381 L2999.72 400.17 L2980.96 404.859 L2962.21 404.276 L2943.45 402.4 L2924.69 402.401 L2905.93 408.511 L2887.17 406.312 L2868.41 405.98 L2849.65 406.563 L2830.89 399.624 L2812.13 391.423 L2793.37 393.342 L2774.62 387.648 L2755.86 391.249 L2737.1 396.711 L2718.34 397.388 L2699.58 393.446 L2680.82 399.41 L2662.06 395.517 L2643.3 394.938 L2624.54 395.639 L2605.78 393.496 L2587.02 391.655 L2568.27 400.789 L2549.51 400.144 L2530.75 404.932 L2511.99 404.322 L2493.23 402.428 L2474.47 402.598 L2455.71 408.384 L2436.95 406.419 L2418.19 406.127 L2399.43 406.357 L2380.68 399.918 L2361.92 391.276 L2343.16 393.334 L2324.4 387.657 L2305.64 391.325 L2286.88 396.481 L2268.12 397.465 L2249.36 394.895 L2230.6 399.401 L2211.84 395.48 L2193.08 394.952 L2174.33 395.603 L2155.57 393.597 L2136.81 391.451 L2118.05 399.33 L2099.29 400.251 L2080.53 404.862 L2061.77 404.303 L2043.01 402.451 L2024.25 402.71 L2005.49 408.424 L1986.74 406.456 L1967.98 406.025 L1949.22 406.014 L1930.46 399.824 L1911.7 391.844 L1892.94 395.825 L1874.18 387.598 L1855.42 391.391 L1836.66 396.706 L1817.9 397.078 L1799.14 394.891 L1780.39 399.356 L1761.63 395.606 L1742.87 394.887 L1724.11 392.878 L1705.35 393.662 L1686.59 392.004 L1667.83 400.995 L1649.07 399.846 L1630.31 404.581 L1611.55 404.036 L1592.8 402.431 L1574.04 402.76 L1555.28 408.651 L1536.52 406.418 L1517.76 402.395 L1499 406.018 L1480.24 400.175 L1461.48 391.117 L1442.72 393.856 L1423.96 387.152 L1405.21 391.307 L1386.45 395.613 L1367.69 397.223 L1348.93 394.801 L1330.17 400.102 L1311.41 395.859 L1292.65 395.034 L1273.89 397.662 L1255.13 392.918 L1236.37 390.998 L1217.61 398.331 L1198.86 401.127 L1180.1 405.489 L1161.34 404.603 L1142.58 403.64 L1123.82 403.321 L1105.06 404.396 L1086.3 405.046 L1067.54 403.799 L1048.78 407.921 L1030.02 400.228 L1011.27 390.777 L992.506 394.808 L973.747 388.829 L954.988 392.216 L936.229 389.971 L917.47 395.829 L898.711 386.833 L879.952 394.396 L861.193 399.361 L842.434 397.523 L823.675 394.438 L804.916 390.508 L786.157 398.253 L767.398 409.688 L748.639 409.839 L729.88 416.552 L711.12 421.123 L692.361 428.556 L673.602 438.881 L654.843 444.537 L636.084 455.508 L617.325 469.986 L598.566 445.003  Z"
     fill="#434343"
     fill-rule="evenodd"
     fill-opacity="0.5"
     id="path63" />
  <polyline
     clip-path="url(#clip922)"
     style="stroke:#434343; stroke-linecap:round; stroke-linejoin:round; stroke-width:0; stroke-opacity:1; fill:none"
     points="598.566,445.143 617.325,468.519 636.084,465.042 654.843,461.325 673.602,459.1 692.361,456.619 711.12,453.703 729.88,450.774 748.639,450.541 767.398,450.251 786.157,448.64 804.916,446.237 823.675,445.83 842.434,445.897 861.193,447.857 879.952,450.297 898.711,451.817 917.47,452.14 936.229,450.47 954.988,448.337 973.747,447.784 992.506,448.299 1011.27,448.827 1030.02,451.201 1048.78,451.765 1067.54,451.959 1086.3,452.436 1105.06,452.037 1123.82,451.332 1142.58,451.022 1161.34,449.638 1180.1,450.855 1198.86,452.414 1217.61,449.561 1236.37,447.747 1255.13,447.068 1273.89,448.027 1292.65,448.162 1311.41,448.623 1330.17,450.617 1348.93,451.669 1367.69,451.286 1386.45,449.682 1405.21,448.304 1423.96,447.931 1442.72,448.262 1461.48,448.673 1480.24,450.936 1499,451.696 1517.76,451.431 1536.52,452.292 1555.28,452.247 1574.04,451.423 1592.8,450.87 1611.55,449.42 1630.31,450.096 1649.07,451.979 1667.83,449.947 1686.59,448.959 1705.35,447.184 1724.11,447.602 1742.87,447.931 1761.63,448.735 1780.39,450.603 1799.14,451.567 1817.9,451.364 1836.66,449.933 1855.42,448.349 1874.18,447.831 1892.94,448.292 1911.7,448.723 1930.46,450.914 1949.22,451.622 1967.98,451.385 1986.74,452.193 2005.49,452.254 2024.25,451.402 2043.01,450.957 2061.77,449.556 2080.53,450.341 2099.29,452.091 2118.05,449.75 2136.81,448.429 2155.57,447.053 2174.33,447.782 2193.08,448.104 2211.84,448.666 2230.6,450.622 2249.36,451.684 2268.12,451.383 2286.88,449.871 2305.64,448.347 2324.4,447.868 2343.16,448.228 2361.92,448.678 2380.68,450.958 2399.43,451.686 2418.19,451.414 2436.95,452.213 2455.71,452.229 2474.47,451.39 2493.23,450.868 2511.99,449.435 2530.75,450.222 2549.51,452.051 2568.27,449.88 2587.02,448.763 2605.78,447.146 2624.54,447.699 2643.3,448.026 2662.06,448.737 2680.82,450.662 2699.58,451.592 2718.34,451.331 2737.1,449.893 2755.86,448.342 2774.62,447.851 2793.37,448.287 2812.13,448.741 2830.89,450.958 2849.65,451.64 2868.41,451.384 2887.17,452.199 2905.93,452.268 2924.69,451.41 2943.45,450.907 2962.21,449.485 2980.96,450.282 2999.72,452.08 3018.48,449.819 3037.24,448.578 3056,447.068 3074.76,447.727 3093.52,448.084 3112.28,448.731 3131.04,450.642 3149.8,451.618 3168.55,451.351 3187.31,449.897 3206.07,448.351 3224.83,447.856 3243.59,448.283 3262.35,448.728 3281.11,450.953 3299.87,451.643 3318.63,451.396 3337.39,452.215 3356.15,452.223 3374.9,451.38 3393.66,450.865 3412.42,449.442 3431.18,450.243 3449.94,452.063 3468.7,449.874 3487.46,448.703 3506.22,447.161 3524.98,447.751 3543.74,448.057 3562.49,448.719 3581.25,450.646 3600.01,451.576 3618.77,451.323 3637.53,449.88 3656.29,448.357 3675.05,447.878 3693.81,448.31 3712.57,448.75 3731.33,450.948 3750.09,451.646 3768.84,451.401 3787.6,452.201 3806.36,452.229 3825.12,451.404 3843.88,450.901 3862.64,449.477 3881.4,450.264 3900.16,452.068 3918.92,449.831 3937.68,448.622 3956.43,447.07 3975.19,447.738 3993.95,448.083 4012.71,448.728 4031.47,450.645 4050.23,451.623 4068.99,451.353 4087.75,449.891 4106.51,448.362 4125.27,447.871 4144.03,448.271 4162.78,448.713 4181.54,450.95 4200.3,451.646 4219.06,451.395 4237.82,452.219 4256.58,452.252 4275.34,451.422 4294.1,450.906 4312.86,449.492 4331.62,450.225 4350.37,452.031 4369.13,449.834 4387.89,448.7 4406.65,447.138 4425.41,447.723 4444.17,448.051 4462.93,448.729 4481.69,450.648 4500.45,451.612 4519.21,451.339 4537.96,449.88 4556.72,448.333 4575.48,447.841 4594.24,448.272 4613,448.715 4631.76,450.965 "
     id="polyline63" />
  <path
     clip-path="url(#clip920)"
     d="M3863.46 593.434 L4610.25 593.434 L4610.25 75.0343 L3863.46 75.0343  Z"
     fill="#ffffff"
     fill-rule="evenodd"
     fill-opacity="1"
     id="path64" />
  <polyline
     clip-path="url(#clip920)"
     style="stroke:#000000; stroke-linecap:round; stroke-linejoin:round; stroke-width:4; stroke-opacity:1; fill:none"
     points="3863.46,593.434 4610.25,593.434 4610.25,75.0343 3863.46,75.0343 3863.46,593.434 "
     id="polyline64" />
  <polyline
     clip-path="url(#clip920)"
     style="stroke:#b0b0b0; stroke-linecap:round; stroke-linejoin:round; stroke-width:2; stroke-opacity:1; fill:none"
     points="3910.96,204.634 4195.98,204.634 "
     id="polyline65" />
  <path
     clip-path="url(#clip920)"
     d="M4245.16 237.996 L4264.25 237.996 L4264.25 172.082 L4243.48 176.249 L4243.48 165.601 L4264.14 161.434 L4275.83 161.434 L4275.83 237.996 L4294.93 237.996 L4294.93 247.834 L4245.16 247.834 L4245.16 237.996 Z"
     fill="#000000"
     fill-rule="nonzero"
     fill-opacity="1"
     id="path65" />
  <path
     clip-path="url(#clip920)"
     d="M4343.54 169.131 Q4334.51 169.131 4329.94 178.043 Q4325.42 186.897 4325.42 204.721 Q4325.42 222.487 4329.94 231.399 Q4334.51 240.253 4343.54 240.253 Q4352.62 240.253 4357.14 231.399 Q4361.71 222.487 4361.71 204.721 Q4361.71 186.897 4357.14 178.043 Q4352.62 169.131 4343.54 169.131 M4343.54 159.872 Q4358.06 159.872 4365.7 171.388 Q4373.4 182.846 4373.4 204.721 Q4373.4 226.538 4365.7 238.054 Q4358.06 249.513 4343.54 249.513 Q4329.01 249.513 4321.31 238.054 Q4313.67 226.538 4313.67 204.721 Q4313.67 182.846 4321.31 171.388 Q4329.01 159.872 4343.54 159.872 Z"
     fill="#000000"
     fill-rule="nonzero"
     fill-opacity="1"
     id="path66" />
  <path
     clip-path="url(#clip920)"
     d="M4418.94 169.131 Q4409.91 169.131 4405.34 178.043 Q4400.83 186.897 4400.83 204.721 Q4400.83 222.487 4405.34 231.399 Q4409.91 240.253 4418.94 240.253 Q4428.03 240.253 4432.54 231.399 Q4437.11 222.487 4437.11 204.721 Q4437.11 186.897 4432.54 178.043 Q4428.03 169.131 4418.94 169.131 M4418.94 159.872 Q4433.47 159.872 4441.1 171.388 Q4448.8 182.846 4448.8 204.721 Q4448.8 226.538 4441.1 238.054 Q4433.47 249.513 4418.94 249.513 Q4404.42 249.513 4396.72 238.054 Q4389.08 226.538 4389.08 204.721 Q4389.08 182.846 4396.72 171.388 Q4404.42 159.872 4418.94 159.872 Z"
     fill="#000000"
     fill-rule="nonzero"
     fill-opacity="1"
     id="path67" />
  <path
     clip-path="url(#clip920)"
     d="M4542.84 209.814 Q4537.81 209.814 4534.91 214.096 Q4532.08 218.378 4532.08 226.017 Q4532.08 233.54 4534.91 237.881 Q4537.81 242.163 4542.84 242.163 Q4547.76 242.163 4550.59 237.881 Q4553.49 233.54 4553.49 226.017 Q4553.49 218.436 4550.59 214.154 Q4547.76 209.814 4542.84 209.814 M4542.84 202.464 Q4551.98 202.464 4557.37 208.83 Q4562.75 215.196 4562.75 226.017 Q4562.75 236.839 4557.31 243.205 Q4551.93 249.513 4542.84 249.513 Q4533.58 249.513 4528.2 243.205 Q4522.82 236.839 4522.82 226.017 Q4522.82 215.138 4528.2 208.83 Q4533.64 202.464 4542.84 202.464 M4483.12 167.221 Q4478.14 167.221 4475.25 171.562 Q4472.41 175.844 4472.41 183.367 Q4472.41 191.006 4475.25 195.288 Q4478.08 199.571 4483.12 199.571 Q4488.15 199.571 4490.99 195.288 Q4493.88 191.006 4493.88 183.367 Q4493.88 175.902 4490.99 171.562 Q4488.1 167.221 4483.12 167.221 M4535.38 159.872 L4544.63 159.872 L4490.58 249.513 L4481.32 249.513 L4535.38 159.872 M4483.12 159.872 Q4492.26 159.872 4497.7 166.238 Q4503.14 172.545 4503.14 183.367 Q4503.14 194.305 4497.7 200.612 Q4492.32 206.92 4483.12 206.92 Q4473.92 206.92 4468.54 200.612 Q4463.21 194.247 4463.21 183.367 Q4463.21 172.603 4468.59 166.238 Q4473.97 159.872 4483.12 159.872 Z"
     fill="#000000"
     fill-rule="nonzero"
     fill-opacity="1"
     id="path68" />
  <polyline
     clip-path="url(#clip920)"
     style="stroke:#777777; stroke-linecap:round; stroke-linejoin:round; stroke-width:2; stroke-opacity:1; fill:none"
     points="3910.96,334.234 4195.98,334.234 "
     id="polyline68" />
  <path
     clip-path="url(#clip920)"
     d="M4249.03 375.64 L4249.03 364.992 Q4253.43 367.076 4257.95 368.175 Q4262.46 369.275 4266.8 369.275 Q4278.37 369.275 4284.45 361.52 Q4290.58 353.708 4291.45 337.851 Q4288.1 342.828 4282.95 345.49 Q4277.8 348.152 4271.55 348.152 Q4258.58 348.152 4251 340.34 Q4243.48 332.469 4243.48 318.87 Q4243.48 305.56 4251.35 297.516 Q4259.22 289.472 4272.3 289.472 Q4287.29 289.472 4295.16 300.988 Q4303.08 312.446 4303.08 334.321 Q4303.08 354.749 4293.36 366.96 Q4283.7 379.113 4267.32 379.113 Q4262.92 379.113 4258.41 378.245 Q4253.9 377.376 4249.03 375.64 M4272.3 339.009 Q4280.17 339.009 4284.74 333.627 Q4289.37 328.245 4289.37 318.87 Q4289.37 309.553 4284.74 304.171 Q4280.17 298.731 4272.3 298.731 Q4264.43 298.731 4259.8 304.171 Q4255.23 309.553 4255.23 318.87 Q4255.23 328.245 4259.8 333.627 Q4264.43 339.009 4272.3 339.009 Z"
     fill="#000000"
     fill-rule="nonzero"
     fill-opacity="1"
     id="path69" />
  <path
     clip-path="url(#clip920)"
     d="M4349.09 298.731 Q4340.06 298.731 4335.49 307.643 Q4330.98 316.497 4330.98 334.321 Q4330.98 352.087 4335.49 360.999 Q4340.06 369.853 4349.09 369.853 Q4358.18 369.853 4362.69 360.999 Q4367.26 352.087 4367.26 334.321 Q4367.26 316.497 4362.69 307.643 Q4358.18 298.731 4349.09 298.731 M4349.09 289.472 Q4363.62 289.472 4371.26 300.988 Q4378.95 312.446 4378.95 334.321 Q4378.95 356.138 4371.26 367.654 Q4363.62 379.113 4349.09 379.113 Q4334.57 379.113 4326.87 367.654 Q4319.23 356.138 4319.23 334.321 Q4319.23 312.446 4326.87 300.988 Q4334.57 289.472 4349.09 289.472 Z"
     fill="#000000"
     fill-rule="nonzero"
     fill-opacity="1"
     id="path70" />
  <path
     clip-path="url(#clip920)"
     d="M4472.99 339.414 Q4467.96 339.414 4465.06 343.696 Q4462.23 347.978 4462.23 355.617 Q4462.23 363.14 4465.06 367.481 Q4467.96 371.763 4472.99 371.763 Q4477.91 371.763 4480.75 367.481 Q4483.64 363.14 4483.64 355.617 Q4483.64 348.036 4480.75 343.754 Q4477.91 339.414 4472.99 339.414 M4472.99 332.064 Q4482.13 332.064 4487.52 338.43 Q4492.9 344.796 4492.9 355.617 Q4492.9 366.439 4487.46 372.805 Q4482.08 379.113 4472.99 379.113 Q4463.73 379.113 4458.35 372.805 Q4452.97 366.439 4452.97 355.617 Q4452.97 344.738 4458.35 338.43 Q4463.79 332.064 4472.99 332.064 M4413.27 296.821 Q4408.29 296.821 4405.4 301.162 Q4402.56 305.444 4402.56 312.967 Q4402.56 320.606 4405.4 324.888 Q4408.23 329.171 4413.27 329.171 Q4418.3 329.171 4421.14 324.888 Q4424.03 320.606 4424.03 312.967 Q4424.03 305.502 4421.14 301.162 Q4418.25 296.821 4413.27 296.821 M4465.53 289.472 L4474.79 289.472 L4420.73 379.113 L4411.48 379.113 L4465.53 289.472 M4413.27 289.472 Q4422.41 289.472 4427.85 295.838 Q4433.29 302.145 4433.29 312.967 Q4433.29 323.905 4427.85 330.212 Q4422.47 336.52 4413.27 336.52 Q4404.07 336.52 4398.69 330.212 Q4393.36 323.847 4393.36 312.967 Q4393.36 302.203 4398.74 295.838 Q4404.13 289.472 4413.27 289.472 Z"
     fill="#000000"
     fill-rule="nonzero"
     fill-opacity="1"
     id="path71" />
  <polyline
     clip-path="url(#clip920)"
     style="stroke:#434343; stroke-linecap:round; stroke-linejoin:round; stroke-width:2; stroke-opacity:1; fill:none"
     points="3910.96,463.834 4195.98,463.834 "
     id="polyline71" />
  <path
     clip-path="url(#clip920)"
     d="M4273.11 466.004 Q4264.77 466.004 4259.97 470.46 Q4255.23 474.916 4255.23 482.729 Q4255.23 490.541 4259.97 494.997 Q4264.77 499.453 4273.11 499.453 Q4281.44 499.453 4286.24 494.997 Q4291.05 490.484 4291.05 482.729 Q4291.05 474.916 4286.24 470.46 Q4281.5 466.004 4273.11 466.004 M4261.42 461.028 Q4253.9 459.176 4249.67 454.025 Q4245.5 448.875 4245.5 441.468 Q4245.5 431.109 4252.85 425.09 Q4260.26 419.072 4273.11 419.072 Q4286.01 419.072 4293.36 425.09 Q4300.71 431.109 4300.71 441.468 Q4300.71 448.875 4296.49 454.025 Q4292.32 459.176 4284.86 461.028 Q4293.3 462.995 4297.99 468.724 Q4302.74 474.453 4302.74 482.729 Q4302.74 495.287 4295.04 502 Q4287.4 508.713 4273.11 508.713 Q4258.81 508.713 4251.12 502 Q4243.48 495.287 4243.48 482.729 Q4243.48 474.453 4248.22 468.724 Q4252.97 462.995 4261.42 461.028 M4257.14 442.567 Q4257.14 449.28 4261.3 453.042 Q4265.53 456.803 4273.11 456.803 Q4280.63 456.803 4284.86 453.042 Q4289.14 449.28 4289.14 442.567 Q4289.14 435.854 4284.86 432.093 Q4280.63 428.331 4273.11 428.331 Q4265.53 428.331 4261.3 432.093 Q4257.14 435.854 4257.14 442.567 Z"
     fill="#000000"
     fill-rule="nonzero"
     fill-opacity="1"
     id="path72" />
  <path
     clip-path="url(#clip920)"
     d="M4348.51 428.331 Q4339.48 428.331 4334.91 437.243 Q4330.4 446.097 4330.4 463.921 Q4330.4 481.687 4334.91 490.599 Q4339.48 499.453 4348.51 499.453 Q4357.6 499.453 4362.11 490.599 Q4366.68 481.687 4366.68 463.921 Q4366.68 446.097 4362.11 437.243 Q4357.6 428.331 4348.51 428.331 M4348.51 419.072 Q4363.04 419.072 4370.68 430.588 Q4378.37 442.046 4378.37 463.921 Q4378.37 485.738 4370.68 497.254 Q4363.04 508.713 4348.51 508.713 Q4333.99 508.713 4326.29 497.254 Q4318.65 485.738 4318.65 463.921 Q4318.65 442.046 4326.29 430.588 Q4333.99 419.072 4348.51 419.072 Z"
     fill="#000000"
     fill-rule="nonzero"
     fill-opacity="1"
     id="path73" />
  <path
     clip-path="url(#clip920)"
     d="M4472.41 469.014 Q4467.38 469.014 4464.48 473.296 Q4461.65 477.578 4461.65 485.217 Q4461.65 492.74 4464.48 497.081 Q4467.38 501.363 4472.41 501.363 Q4477.33 501.363 4480.17 497.081 Q4483.06 492.74 4483.06 485.217 Q4483.06 477.636 4480.17 473.354 Q4477.33 469.014 4472.41 469.014 M4472.41 461.664 Q4481.56 461.664 4486.94 468.03 Q4492.32 474.396 4492.32 485.217 Q4492.32 496.039 4486.88 502.405 Q4481.5 508.713 4472.41 508.713 Q4463.15 508.713 4457.77 502.405 Q4452.39 496.039 4452.39 485.217 Q4452.39 474.338 4457.77 468.03 Q4463.21 461.664 4472.41 461.664 M4412.69 426.421 Q4407.71 426.421 4404.82 430.762 Q4401.98 435.044 4401.98 442.567 Q4401.98 450.206 4404.82 454.488 Q4407.66 458.771 4412.69 458.771 Q4417.73 458.771 4420.56 454.488 Q4423.45 450.206 4423.45 442.567 Q4423.45 435.102 4420.56 430.762 Q4417.67 426.421 4412.69 426.421 M4464.95 419.072 L4474.21 419.072 L4420.16 508.713 L4410.9 508.713 L4464.95 419.072 M4412.69 419.072 Q4421.83 419.072 4427.27 425.438 Q4432.71 431.745 4432.71 442.567 Q4432.71 453.505 4427.27 459.812 Q4421.89 466.12 4412.69 466.12 Q4403.49 466.12 4398.11 459.812 Q4392.78 453.447 4392.78 442.567 Q4392.78 431.803 4398.17 425.438 Q4403.55 419.072 4412.69 419.072 Z"
     fill="#000000"
     fill-rule="nonzero"
     fill-opacity="1"
     id="path74" />
  <path
     clip-path="url(#clip920)"
     d="m 381.682,416.742 q -7.223,0 -10.88,7.13 -3.611,7.083 -3.611,21.342 0,14.213 3.611,21.343 3.657,7.083 10.88,7.083 7.268,0 10.879,-7.083 3.658,-7.13 3.658,-21.343 0,-14.259 -3.658,-21.342 -3.611,-7.13 -10.879,-7.13 m 0,-7.407 q 11.62,0 17.731,9.213 6.157,9.166 6.157,26.666 0,17.454 -6.157,26.667 -6.111,9.166 -17.731,9.166 -11.621,0 -17.778,-9.166 -6.111,-9.213 -6.111,-26.667 0,-17.5 6.111,-26.666 6.157,-9.213 17.778,-9.213 z"
     fill="#000000"
     fill-rule="nonzero"
     fill-opacity="1"
     id="path75"
     transform="translate(56)" />
  <path
     clip-path="url(#clip920)"
     d="m 381.682,416.742 q -7.223,0 -10.88,7.13 -3.611,7.083 -3.611,21.342 0,14.213 3.611,21.343 3.657,7.083 10.88,7.083 7.268,0 10.879,-7.083 3.658,-7.13 3.658,-21.343 0,-14.259 -3.658,-21.342 -3.611,-7.13 -10.879,-7.13 m 0,-7.407 q 11.62,0 17.731,9.213 6.157,9.166 6.157,26.666 0,17.454 -6.157,26.667 -6.111,9.166 -17.731,9.166 -11.621,0 -17.778,-9.166 -6.111,-9.213 -6.111,-26.667 0,-17.5 6.111,-26.666 6.157,-9.213 17.778,-9.213 z"
     fill="#000000"
     fill-rule="nonzero"
     fill-opacity="1"
     id="path76"
     transform="translate(56,153.353)" />
  <path
     clip-path="url(#clip920)"
     d="m 294.414,723.45 q -7.223,0 -10.88,7.13 -3.611,7.083 -3.611,21.342 0,14.213 3.611,21.343 3.657,7.083 10.88,7.083 7.268,0 10.879,-7.083 3.658,-7.13 3.658,-21.343 0,-14.259 -3.658,-21.342 -3.611,-7.13 -10.879,-7.13 m 0,-7.407 q 11.62,0 17.731,9.213 6.157,9.166 6.157,26.666 0,17.454 -6.157,26.667 -6.111,9.166 -17.731,9.166 -11.621,0 -17.778,-9.166 -6.111,-9.213 -6.111,-26.667 0,-17.5 6.111,-26.666 6.157,-9.213 17.778,-9.213 z"
     fill="#000000"
     fill-rule="nonzero"
     fill-opacity="1"
     id="path77"
     transform="translate(144)" />
  <path
     clip-path="url(#clip920)"
     d="m 293.673,263.388 q -7.222,0 -10.88,7.129 -3.611,7.084 -3.611,21.343 0,14.213 3.611,21.342 3.658,7.084 10.88,7.084 7.268,0 10.879,-7.084 3.658,-7.129 3.658,-21.342 0,-14.259 -3.658,-21.343 -3.611,-7.129 -10.879,-7.129 m 0,-7.408 q 11.62,0 17.731,9.213 6.158,9.167 6.158,26.667 0,17.454 -6.158,26.666 -6.111,9.167 -17.731,9.167 -11.62,0 -17.778,-9.167 -6.111,-9.212 -6.111,-26.666 0,-17.5 6.111,-26.667 6.158,-9.213 17.778,-9.213 z"
     fill="#000000"
     fill-rule="nonzero"
     fill-opacity="1"
     id="path78"
     transform="translate(144)" />
  <path
     clip-path="url(#clip920)"
     d="m 294.414,110.034 q -7.223,0 -10.88,7.129 -3.611,7.084 -3.611,21.343 0,14.213 3.611,21.342 3.657,7.084 10.88,7.084 7.268,0 10.879,-7.084 3.658,-7.129 3.658,-21.342 0,-14.259 -3.658,-21.343 -3.611,-7.129 -10.879,-7.129 m 0,-7.408 q 11.62,0 17.731,9.213 6.157,9.167 6.157,26.667 0,17.453 -6.157,26.666 -6.111,9.167 -17.731,9.167 -11.621,0 -17.778,-9.167 -6.111,-9.213 -6.111,-26.666 0,-17.5 6.111,-26.667 6.157,-9.213 17.778,-9.213 z"
     fill="#000000"
     fill-rule="nonzero"
     fill-opacity="1"
     id="path79"
     transform="translate(144)" />
</svg>
