<?xml version="1.0" encoding="utf-8"?>
<svg xmlns="http://www.w3.org/2000/svg" xmlns:xlink="http://www.w3.org/1999/xlink" width="1200" height="300" viewBox="0 0 4800 1200">
<defs>
  <clipPath id="clip840">
    <rect x="0" y="0" width="4800" height="1200"/>
  </clipPath>
</defs>
<path clip-path="url(#clip840)" d="M0 1200 L4800 1200 L4800 0 L0 0  Z" fill="#ffffff" fill-rule="evenodd" fill-opacity="1"/>
<defs>
  <clipPath id="clip841">
    <rect x="960" y="0" width="3361" height="1200"/>
  </clipPath>
</defs>
<path clip-path="url(#clip840)" d="M829.412 880.951 L4752.76 880.951 L4752.76 47.2441 L829.412 47.2441  Z" fill="#ffffff" fill-rule="evenodd" fill-opacity="1"/>
<defs>
  <clipPath id="clip842">
    <rect x="829" y="47" width="3924" height="835"/>
  </clipPath>
</defs>
<polyline clip-path="url(#clip842)" style="stroke:#000000; stroke-linecap:round; stroke-linejoin:round; stroke-width:2; stroke-opacity:0.1; fill:none" points="1336.4,880.951 1336.4,47.2441 "/>
<polyline clip-path="url(#clip842)" style="stroke:#000000; stroke-linecap:round; stroke-linejoin:round; stroke-width:2; stroke-opacity:0.1; fill:none" points="2162.73,880.951 2162.73,47.2441 "/>
<polyline clip-path="url(#clip842)" style="stroke:#000000; stroke-linecap:round; stroke-linejoin:round; stroke-width:2; stroke-opacity:0.1; fill:none" points="2989.06,880.951 2989.06,47.2441 "/>
<polyline clip-path="url(#clip842)" style="stroke:#000000; stroke-linecap:round; stroke-linejoin:round; stroke-width:2; stroke-opacity:0.1; fill:none" points="3815.39,880.951 3815.39,47.2441 "/>
<polyline clip-path="url(#clip842)" style="stroke:#000000; stroke-linecap:round; stroke-linejoin:round; stroke-width:2; stroke-opacity:0.1; fill:none" points="4641.72,880.951 4641.72,47.2441 "/>
<polyline clip-path="url(#clip840)" style="stroke:#000000; stroke-linecap:round; stroke-linejoin:round; stroke-width:4; stroke-opacity:1; fill:none" points="829.412,880.951 4752.76,880.951 "/>
<polyline clip-path="url(#clip840)" style="stroke:#000000; stroke-linecap:round; stroke-linejoin:round; stroke-width:4; stroke-opacity:1; fill:none" points="1336.4,880.951 1336.4,862.054 "/>
<polyline clip-path="url(#clip840)" style="stroke:#000000; stroke-linecap:round; stroke-linejoin:round; stroke-width:4; stroke-opacity:1; fill:none" points="2162.73,880.951 2162.73,862.054 "/>
<polyline clip-path="url(#clip840)" style="stroke:#000000; stroke-linecap:round; stroke-linejoin:round; stroke-width:4; stroke-opacity:1; fill:none" points="2989.06,880.951 2989.06,862.054 "/>
<polyline clip-path="url(#clip840)" style="stroke:#000000; stroke-linecap:round; stroke-linejoin:round; stroke-width:4; stroke-opacity:1; fill:none" points="3815.39,880.951 3815.39,862.054 "/>
<polyline clip-path="url(#clip840)" style="stroke:#000000; stroke-linecap:round; stroke-linejoin:round; stroke-width:4; stroke-opacity:1; fill:none" points="4641.72,880.951 4641.72,862.054 "/>
<path clip-path="url(#clip840)" d="M1325.7 997.881 L1358.34 997.881 L1358.34 1005.75 L1314.46 1005.75 L1314.46 997.881 Q1319.78 992.372 1328.95 983.113 Q1338.16 973.807 1340.52 971.122 Q1345.01 966.076 1346.77 962.604 Q1348.58 959.085 1348.58 955.705 Q1348.58 950.196 1344.69 946.724 Q1340.84 943.252 1334.64 943.252 Q1330.24 943.252 1325.33 944.78 Q1320.47 946.307 1314.92 949.409 L1314.92 939.965 Q1320.57 937.696 1325.47 936.539 Q1330.38 935.382 1334.45 935.382 Q1345.2 935.382 1351.58 940.752 Q1357.97 946.122 1357.97 955.104 Q1357.97 959.363 1356.35 963.205 Q1354.78 967.002 1350.57 972.187 Q1349.41 973.529 1343.2 979.965 Q1337 986.353 1325.7 997.881 Z" fill="#000000" fill-rule="nonzero" fill-opacity="1" /><path clip-path="url(#clip840)" d="M2168.75 944.78 L2145.14 981.678 L2168.75 981.678 L2168.75 944.78 M2166.29 936.631 L2178.05 936.631 L2178.05 981.678 L2187.91 981.678 L2187.91 989.455 L2178.05 989.455 L2178.05 1005.75 L2168.75 1005.75 L2168.75 989.455 L2137.54 989.455 L2137.54 980.428 L2166.29 936.631 Z" fill="#000000" fill-rule="nonzero" fill-opacity="1" /><path clip-path="url(#clip840)" d="M2989.87 967.465 Q2983.57 967.465 2979.87 971.77 Q2976.21 976.076 2976.21 983.576 Q2976.21 991.029 2979.87 995.381 Q2983.57 999.687 2989.87 999.687 Q2996.17 999.687 2999.82 995.381 Q3003.53 991.029 3003.53 983.576 Q3003.53 976.076 2999.82 971.77 Q2996.17 967.465 2989.87 967.465 M3008.43 938.159 L3008.43 946.678 Q3004.92 945.011 3001.3 944.131 Q2997.74 943.252 2994.22 943.252 Q2984.96 943.252 2980.05 949.502 Q2975.19 955.752 2974.5 968.391 Q2977.23 964.363 2981.35 962.233 Q2985.47 960.057 2990.42 960.057 Q3000.84 960.057 3006.86 966.4 Q3012.92 972.696 3012.92 983.576 Q3012.92 994.224 3006.63 1000.66 Q3000.33 1007.09 2989.87 1007.09 Q2977.88 1007.09 2971.54 997.927 Q2965.19 988.715 2965.19 971.261 Q2965.19 954.872 2972.97 945.15 Q2980.75 935.382 2993.85 935.382 Q2997.37 935.382 3000.93 936.076 Q3004.54 936.77 3008.43 938.159 Z" fill="#000000" fill-rule="nonzero" fill-opacity="1" /><path clip-path="url(#clip840)" d="M3815.39 972.928 Q3808.72 972.928 3804.88 976.492 Q3801.08 980.057 3801.08 986.307 Q3801.08 992.557 3804.88 996.122 Q3808.72 999.687 3815.39 999.687 Q3822.05 999.687 3825.9 996.122 Q3829.74 992.511 3829.74 986.307 Q3829.74 980.057 3825.9 976.492 Q3822.1 972.928 3815.39 972.928 M3806.04 968.946 Q3800.02 967.465 3796.64 963.344 Q3793.31 959.224 3793.31 953.298 Q3793.31 945.011 3799.18 940.196 Q3805.11 935.382 3815.39 935.382 Q3825.71 935.382 3831.59 940.196 Q3837.47 945.011 3837.47 953.298 Q3837.47 959.224 3834.09 963.344 Q3830.76 967.465 3824.79 968.946 Q3831.55 970.52 3835.3 975.104 Q3839.09 979.687 3839.09 986.307 Q3839.09 996.353 3832.93 1001.72 Q3826.82 1007.09 3815.39 1007.09 Q3803.95 1007.09 3797.8 1001.72 Q3791.68 996.353 3791.68 986.307 Q3791.68 979.687 3795.48 975.104 Q3799.28 970.52 3806.04 968.946 M3802.61 954.178 Q3802.61 959.548 3805.94 962.557 Q3809.32 965.567 3815.39 965.567 Q3821.41 965.567 3824.79 962.557 Q3828.21 959.548 3828.21 954.178 Q3828.21 948.807 3824.79 945.798 Q3821.41 942.789 3815.39 942.789 Q3809.32 942.789 3805.94 945.798 Q3802.61 948.807 3802.61 954.178 Z" fill="#000000" fill-rule="nonzero" fill-opacity="1" /><path clip-path="url(#clip840)" d="M4591.09 997.881 L4606.37 997.881 L4606.37 945.15 L4589.75 948.483 L4589.75 939.965 L4606.28 936.631 L4615.63 936.631 L4615.63 997.881 L4630.91 997.881 L4630.91 1005.75 L4591.09 1005.75 L4591.09 997.881 Z" fill="#000000" fill-rule="nonzero" fill-opacity="1" /><path clip-path="url(#clip840)" d="M4669.8 942.789 Q4662.57 942.789 4658.92 949.918 Q4655.31 957.002 4655.31 971.261 Q4655.31 985.474 4658.92 992.603 Q4662.57 999.687 4669.8 999.687 Q4677.06 999.687 4680.68 992.603 Q4684.33 985.474 4684.33 971.261 Q4684.33 957.002 4680.68 949.918 Q4677.06 942.789 4669.8 942.789 M4669.8 935.382 Q4681.42 935.382 4687.53 944.594 Q4693.69 953.761 4693.69 971.261 Q4693.69 988.715 4687.53 997.927 Q4681.42 1007.09 4669.8 1007.09 Q4658.18 1007.09 4652.02 997.927 Q4645.91 988.715 4645.91 971.261 Q4645.91 953.761 4652.02 944.594 Q4658.18 935.382 4669.8 935.382 Z" fill="#000000" fill-rule="nonzero" fill-opacity="1" /><path clip-path="url(#clip840)" d="M2508.32 1072.18 L2574.11 1072.18 L2574.11 1081.04 L2546.5 1081.04 L2546.5 1149.94 L2535.93 1149.94 L2535.93 1081.04 L2508.32 1081.04 L2508.32 1072.18 Z" fill="#000000" fill-rule="nonzero" fill-opacity="1" /><path clip-path="url(#clip840)" d="M2580.56 1091.61 L2590.15 1091.61 L2590.15 1149.94 L2580.56 1149.94 L2580.56 1091.61 M2580.56 1068.9 L2590.15 1068.9 L2590.15 1081.04 L2580.56 1081.04 L2580.56 1068.9 Z" fill="#000000" fill-rule="nonzero" fill-opacity="1" /><path clip-path="url(#clip840)" d="M2655.62 1102.81 Q2659.21 1096.35 2664.21 1093.28 Q2669.21 1090.2 2675.98 1090.2 Q2685.09 1090.2 2690.04 1096.61 Q2694.99 1102.96 2694.99 1114.74 L2694.99 1149.94 L2685.36 1149.94 L2685.36 1115.05 Q2685.36 1106.66 2682.39 1102.6 Q2679.42 1098.54 2673.32 1098.54 Q2665.88 1098.54 2661.55 1103.49 Q2657.23 1108.43 2657.23 1116.97 L2657.23 1149.94 L2647.59 1149.94 L2647.59 1115.05 Q2647.59 1106.61 2644.63 1102.6 Q2641.66 1098.54 2635.46 1098.54 Q2628.12 1098.54 2623.79 1103.54 Q2619.47 1108.49 2619.47 1116.97 L2619.47 1149.94 L2609.83 1149.94 L2609.83 1091.61 L2619.47 1091.61 L2619.47 1100.67 Q2622.75 1095.31 2627.33 1092.76 Q2631.92 1090.2 2638.22 1090.2 Q2644.57 1090.2 2649 1093.43 Q2653.48 1096.66 2655.62 1102.81 Z" fill="#000000" fill-rule="nonzero" fill-opacity="1" /><path clip-path="url(#clip840)" d="M2764 1118.38 L2764 1123.07 L2719.94 1123.07 Q2720.56 1132.96 2725.88 1138.17 Q2731.24 1143.33 2740.77 1143.33 Q2746.29 1143.33 2751.45 1141.97 Q2756.66 1140.62 2761.76 1137.91 L2761.76 1146.97 Q2756.6 1149.16 2751.19 1150.31 Q2745.77 1151.45 2740.2 1151.45 Q2726.24 1151.45 2718.06 1143.33 Q2709.94 1135.2 2709.94 1121.35 Q2709.94 1107.03 2717.65 1098.64 Q2725.41 1090.2 2738.53 1090.2 Q2750.3 1090.2 2757.13 1097.81 Q2764 1105.36 2764 1118.38 M2754.42 1115.57 Q2754.31 1107.7 2749.99 1103.02 Q2745.72 1098.33 2738.64 1098.33 Q2730.62 1098.33 2725.77 1102.86 Q2720.98 1107.39 2720.25 1115.62 L2754.42 1115.57 Z" fill="#000000" fill-rule="nonzero" fill-opacity="1" /><path clip-path="url(#clip840)" d="M2836.66 1069.01 Q2829.68 1080.99 2826.29 1092.7 Q2822.91 1104.42 2822.91 1116.45 Q2822.91 1128.49 2826.29 1140.31 Q2829.73 1152.08 2836.66 1164.01 L2828.32 1164.01 Q2820.51 1151.77 2816.6 1139.94 Q2812.75 1128.12 2812.75 1116.45 Q2812.75 1104.84 2816.6 1093.07 Q2820.46 1081.3 2828.32 1069.01 L2836.66 1069.01 Z" fill="#000000" fill-rule="nonzero" fill-opacity="1" /><path clip-path="url(#clip840)" d="M2893.64 1100.46 L2893.64 1068.9 L2903.22 1068.9 L2903.22 1149.94 L2893.64 1149.94 L2893.64 1141.19 Q2890.61 1146.4 2885.98 1148.95 Q2881.4 1151.45 2874.94 1151.45 Q2864.36 1151.45 2857.7 1143.02 Q2851.08 1134.58 2851.08 1120.83 Q2851.08 1107.08 2857.7 1098.64 Q2864.36 1090.2 2874.94 1090.2 Q2881.4 1090.2 2885.98 1092.76 Q2890.61 1095.26 2893.64 1100.46 M2860.98 1120.83 Q2860.98 1131.4 2865.3 1137.44 Q2869.68 1143.43 2877.28 1143.43 Q2884.89 1143.43 2889.26 1137.44 Q2893.64 1131.4 2893.64 1120.83 Q2893.64 1110.26 2889.26 1104.27 Q2884.89 1098.23 2877.28 1098.23 Q2869.68 1098.23 2865.3 1104.27 Q2860.98 1110.26 2860.98 1120.83 Z" fill="#000000" fill-rule="nonzero" fill-opacity="1" /><path clip-path="url(#clip840)" d="M2949.47 1120.62 Q2937.85 1120.62 2933.37 1123.28 Q2928.9 1125.93 2928.9 1132.34 Q2928.9 1137.44 2932.23 1140.46 Q2935.61 1143.43 2941.4 1143.43 Q2949.36 1143.43 2954.16 1137.81 Q2959 1132.13 2959 1122.76 L2959 1120.62 L2949.47 1120.62 M2968.58 1116.66 L2968.58 1149.94 L2959 1149.94 L2959 1141.09 Q2955.72 1146.4 2950.82 1148.95 Q2945.93 1151.45 2938.84 1151.45 Q2929.89 1151.45 2924.57 1146.45 Q2919.31 1141.4 2919.31 1132.96 Q2919.31 1123.12 2925.87 1118.12 Q2932.49 1113.12 2945.56 1113.12 L2959 1113.12 L2959 1112.18 Q2959 1105.57 2954.62 1101.98 Q2950.3 1098.33 2942.44 1098.33 Q2937.44 1098.33 2932.7 1099.53 Q2927.96 1100.73 2923.58 1103.12 L2923.58 1094.27 Q2928.84 1092.24 2933.79 1091.25 Q2938.74 1090.2 2943.43 1090.2 Q2956.08 1090.2 2962.33 1096.77 Q2968.58 1103.33 2968.58 1116.66 Z" fill="#000000" fill-rule="nonzero" fill-opacity="1" /><path clip-path="url(#clip840)" d="M3012.59 1155.36 Q3008.53 1165.78 3004.68 1168.95 Q3000.82 1172.13 2994.36 1172.13 L2986.71 1172.13 L2986.71 1164.11 L2992.33 1164.11 Q2996.29 1164.11 2998.48 1162.24 Q3000.67 1160.36 3003.32 1153.38 L3005.04 1149.01 L2981.45 1091.61 L2991.6 1091.61 L3009.83 1137.24 L3028.06 1091.61 L3038.22 1091.61 L3012.59 1155.36 Z" fill="#000000" fill-rule="nonzero" fill-opacity="1" /><path clip-path="url(#clip840)" d="M3049.94 1069.01 L3058.27 1069.01 Q3066.08 1081.3 3069.94 1093.07 Q3073.84 1104.84 3073.84 1116.45 Q3073.84 1128.12 3069.94 1139.94 Q3066.08 1151.77 3058.27 1164.01 L3049.94 1164.01 Q3056.86 1152.08 3060.25 1140.31 Q3063.69 1128.49 3063.69 1116.45 Q3063.69 1104.42 3060.25 1092.7 Q3056.86 1080.99 3049.94 1069.01 Z" fill="#000000" fill-rule="nonzero" fill-opacity="1" /><polyline clip-path="url(#clip842)" style="stroke:#000000; stroke-linecap:round; stroke-linejoin:round; stroke-width:2; stroke-opacity:0.1; fill:none" points="829.412,848.759 4752.76,848.759 "/>
<polyline clip-path="url(#clip842)" style="stroke:#000000; stroke-linecap:round; stroke-linejoin:round; stroke-width:2; stroke-opacity:0.1; fill:none" points="829.412,662.699 4752.76,662.699 "/>
<polyline clip-path="url(#clip842)" style="stroke:#000000; stroke-linecap:round; stroke-linejoin:round; stroke-width:2; stroke-opacity:0.1; fill:none" points="829.412,476.639 4752.76,476.639 "/>
<polyline clip-path="url(#clip842)" style="stroke:#000000; stroke-linecap:round; stroke-linejoin:round; stroke-width:2; stroke-opacity:0.1; fill:none" points="829.412,290.578 4752.76,290.578 "/>
<polyline clip-path="url(#clip842)" style="stroke:#000000; stroke-linecap:round; stroke-linejoin:round; stroke-width:2; stroke-opacity:0.1; fill:none" points="829.412,104.518 4752.76,104.518 "/>
<polyline clip-path="url(#clip840)" style="stroke:#000000; stroke-linecap:round; stroke-linejoin:round; stroke-width:4; stroke-opacity:1; fill:none" points="829.412,880.951 829.412,47.2441 "/>
<polyline clip-path="url(#clip840)" style="stroke:#000000; stroke-linecap:round; stroke-linejoin:round; stroke-width:4; stroke-opacity:1; fill:none" points="829.412,848.759 848.309,848.759 "/>
<polyline clip-path="url(#clip840)" style="stroke:#000000; stroke-linecap:round; stroke-linejoin:round; stroke-width:4; stroke-opacity:1; fill:none" points="829.412,662.699 848.309,662.699 "/>
<polyline clip-path="url(#clip840)" style="stroke:#000000; stroke-linecap:round; stroke-linejoin:round; stroke-width:4; stroke-opacity:1; fill:none" points="829.412,476.639 848.309,476.639 "/>
<polyline clip-path="url(#clip840)" style="stroke:#000000; stroke-linecap:round; stroke-linejoin:round; stroke-width:4; stroke-opacity:1; fill:none" points="829.412,290.578 848.309,290.578 "/>
<polyline clip-path="url(#clip840)" style="stroke:#000000; stroke-linecap:round; stroke-linejoin:round; stroke-width:4; stroke-opacity:1; fill:none" points="829.412,104.518 848.309,104.518 "/>
<path clip-path="url(#clip840)" d="M243.45 862.557 L302.802 862.557 L302.802 870.427 L243.45 870.427 L243.45 862.557 Z" fill="#000000" fill-rule="nonzero" fill-opacity="1" /><path clip-path="url(#clip840)" d="M324.607 888.344 L339.885 888.344 L339.885 835.613 L323.265 838.946 L323.265 830.427 L339.792 827.094 L349.144 827.094 L349.144 888.344 L364.422 888.344 L364.422 896.214 L324.607 896.214 L324.607 888.344 Z" fill="#000000" fill-rule="nonzero" fill-opacity="1" /><path clip-path="url(#clip840)" d="M383.311 884.455 L393.079 884.455 L393.079 896.214 L383.311 896.214 L383.311 884.455 Z" fill="#000000" fill-rule="nonzero" fill-opacity="1" /><path clip-path="url(#clip840)" d="M433.449 833.251 Q426.227 833.251 422.57 840.381 Q418.959 847.464 418.959 861.724 Q418.959 875.936 422.57 883.066 Q426.227 890.149 433.449 890.149 Q440.718 890.149 444.329 883.066 Q447.986 875.936 447.986 861.724 Q447.986 847.464 444.329 840.381 Q440.718 833.251 433.449 833.251 M433.449 825.844 Q445.07 825.844 451.181 835.057 Q457.338 844.224 457.338 861.724 Q457.338 879.177 451.181 888.39 Q445.07 897.557 433.449 897.557 Q421.829 897.557 415.672 888.39 Q409.561 879.177 409.561 861.724 Q409.561 844.224 415.672 835.057 Q421.829 825.844 433.449 825.844 Z" fill="#000000" fill-rule="nonzero" fill-opacity="1" /><path clip-path="url(#clip840)" d="M530.115 845.288 L508.958 866.538 L530.115 887.696 L524.606 893.297 L503.356 872.048 L482.106 893.297 L476.644 887.696 L497.755 866.538 L476.644 845.288 L482.106 839.687 L503.356 860.937 L524.606 839.687 L530.115 845.288 Z" fill="#000000" fill-rule="nonzero" fill-opacity="1" /><path clip-path="url(#clip840)" d="M554.838 888.344 L570.115 888.344 L570.115 835.613 L553.495 838.946 L553.495 830.427 L570.023 827.094 L579.374 827.094 L579.374 888.344 L594.652 888.344 L594.652 896.214 L554.838 896.214 L554.838 888.344 Z" fill="#000000" fill-rule="nonzero" fill-opacity="1" /><path clip-path="url(#clip840)" d="M633.541 833.251 Q626.319 833.251 622.661 840.381 Q619.05 847.464 619.05 861.724 Q619.05 875.936 622.661 883.066 Q626.319 890.149 633.541 890.149 Q640.809 890.149 644.42 883.066 Q648.078 875.936 648.078 861.724 Q648.078 847.464 644.42 840.381 Q640.809 833.251 633.541 833.251 M633.541 825.844 Q645.161 825.844 651.272 835.057 Q657.43 844.224 657.43 861.724 Q657.43 879.177 651.272 888.39 Q645.161 897.557 633.541 897.557 Q621.921 897.557 615.763 888.39 Q609.652 879.177 609.652 861.724 Q609.652 844.224 615.763 835.057 Q621.921 825.844 633.541 825.844 Z" fill="#000000" fill-rule="nonzero" fill-opacity="1" /><path clip-path="url(#clip840)" d="M657.43 814.047 L705.653 814.047 L705.653 820.441 L657.43 820.441 L657.43 814.047 Z" fill="#000000" fill-rule="nonzero" fill-opacity="1" /><path clip-path="url(#clip840)" d="M722.279 840.227 L722.279 833.306 Q725.138 834.66 728.072 835.375 Q731.006 836.09 733.827 836.09 Q741.35 836.09 745.3 831.049 Q749.287 825.971 749.851 815.664 Q747.669 818.899 744.322 820.63 Q740.974 822.36 736.911 822.36 Q728.485 822.36 723.558 817.282 Q718.668 812.166 718.668 803.326 Q718.668 794.675 723.783 789.446 Q728.899 784.218 737.4 784.218 Q747.143 784.218 752.258 791.703 Q757.412 799.151 757.412 813.37 Q757.412 826.648 751.092 834.585 Q744.811 842.484 734.165 842.484 Q731.307 842.484 728.373 841.92 Q725.439 841.356 722.279 840.227 M737.4 816.417 Q742.516 816.417 745.488 812.918 Q748.497 809.42 748.497 803.326 Q748.497 797.27 745.488 793.772 Q742.516 790.236 737.4 790.236 Q732.285 790.236 729.275 793.772 Q726.304 797.27 726.304 803.326 Q726.304 809.42 729.275 812.918 Q732.285 816.417 737.4 816.417 Z" fill="#000000" fill-rule="nonzero" fill-opacity="1" /><path clip-path="url(#clip840)" d="M194.136 676.497 L253.488 676.497 L253.488 684.367 L194.136 684.367 L194.136 676.497 Z" fill="#000000" fill-rule="nonzero" fill-opacity="1" /><path clip-path="url(#clip840)" d="M273.766 641.034 L310.478 641.034 L310.478 648.904 L282.33 648.904 L282.33 665.849 Q284.367 665.154 286.404 664.83 Q288.441 664.46 290.478 664.46 Q302.052 664.46 308.812 670.802 Q315.571 677.145 315.571 687.978 Q315.571 699.136 308.627 705.339 Q301.682 711.497 289.043 711.497 Q284.691 711.497 280.154 710.756 Q275.664 710.015 270.849 708.534 L270.849 699.136 Q275.016 701.404 279.46 702.515 Q283.904 703.626 288.858 703.626 Q296.867 703.626 301.543 699.413 Q306.219 695.2 306.219 687.978 Q306.219 680.756 301.543 676.543 Q296.867 672.33 288.858 672.33 Q285.108 672.33 281.358 673.163 Q277.654 673.997 273.766 675.756 L273.766 641.034 Z" fill="#000000" fill-rule="nonzero" fill-opacity="1" /><path clip-path="url(#clip840)" d="M333.997 698.395 L343.765 698.395 L343.765 710.154 L333.997 710.154 L333.997 698.395 Z" fill="#000000" fill-rule="nonzero" fill-opacity="1" /><path clip-path="url(#clip840)" d="M384.135 647.191 Q376.913 647.191 373.256 654.321 Q369.645 661.404 369.645 675.663 Q369.645 689.876 373.256 697.006 Q376.913 704.089 384.135 704.089 Q391.404 704.089 395.015 697.006 Q398.672 689.876 398.672 675.663 Q398.672 661.404 395.015 654.321 Q391.404 647.191 384.135 647.191 M384.135 639.784 Q395.756 639.784 401.867 648.997 Q408.024 658.163 408.024 675.663 Q408.024 693.117 401.867 702.33 Q395.756 711.497 384.135 711.497 Q372.515 711.497 366.358 702.33 Q360.247 693.117 360.247 675.663 Q360.247 658.163 366.358 648.997 Q372.515 639.784 384.135 639.784 Z" fill="#000000" fill-rule="nonzero" fill-opacity="1" /><path clip-path="url(#clip840)" d="M480.802 659.228 L459.644 680.478 L480.802 701.635 L475.292 707.237 L454.042 685.987 L432.793 707.237 L427.33 701.635 L448.441 680.478 L427.33 659.228 L432.793 653.626 L454.042 674.876 L475.292 653.626 L480.802 659.228 Z" fill="#000000" fill-rule="nonzero" fill-opacity="1" /><path clip-path="url(#clip840)" d="M505.524 702.284 L520.801 702.284 L520.801 649.552 L504.181 652.886 L504.181 644.367 L520.709 641.034 L530.061 641.034 L530.061 702.284 L545.338 702.284 L545.338 710.154 L505.524 710.154 L505.524 702.284 Z" fill="#000000" fill-rule="nonzero" fill-opacity="1" /><path clip-path="url(#clip840)" d="M584.227 647.191 Q577.005 647.191 573.347 654.321 Q569.736 661.404 569.736 675.663 Q569.736 689.876 573.347 697.006 Q577.005 704.089 584.227 704.089 Q591.495 704.089 595.106 697.006 Q598.764 689.876 598.764 675.663 Q598.764 661.404 595.106 654.321 Q591.495 647.191 584.227 647.191 M584.227 639.784 Q595.847 639.784 601.958 648.997 Q608.116 658.163 608.116 675.663 Q608.116 693.117 601.958 702.33 Q595.847 711.497 584.227 711.497 Q572.607 711.497 566.449 702.33 Q560.338 693.117 560.338 675.663 Q560.338 658.163 566.449 648.997 Q572.607 639.784 584.227 639.784 Z" fill="#000000" fill-rule="nonzero" fill-opacity="1" /><path clip-path="url(#clip840)" d="M608.116 627.987 L656.339 627.987 L656.339 634.381 L608.116 634.381 L608.116 627.987 Z" fill="#000000" fill-rule="nonzero" fill-opacity="1" /><path clip-path="url(#clip840)" d="M674.056 648.939 L686.469 648.939 L686.469 606.094 L672.965 608.803 L672.965 601.881 L686.394 599.173 L693.992 599.173 L693.992 648.939 L706.405 648.939 L706.405 655.333 L674.056 655.333 L674.056 648.939 Z" fill="#000000" fill-rule="nonzero" fill-opacity="1" /><path clip-path="url(#clip840)" d="M738.002 604.176 Q732.134 604.176 729.162 609.969 Q726.228 615.724 726.228 627.31 Q726.228 638.858 729.162 644.65 Q732.134 650.406 738.002 650.406 Q743.908 650.406 746.842 644.65 Q749.813 638.858 749.813 627.31 Q749.813 615.724 746.842 609.969 Q743.908 604.176 738.002 604.176 M738.002 598.158 Q747.444 598.158 752.409 605.643 Q757.412 613.091 757.412 627.31 Q757.412 641.491 752.409 648.976 Q747.444 656.424 738.002 656.424 Q728.561 656.424 723.558 648.976 Q718.592 641.491 718.592 627.31 Q718.592 613.091 723.558 605.643 Q728.561 598.158 738.002 598.158 Z" fill="#000000" fill-rule="nonzero" fill-opacity="1" /><path clip-path="url(#clip840)" d="M733.523 448.236 Q726.301 448.236 722.643 455.366 Q719.032 462.449 719.032 476.708 Q719.032 490.921 722.643 498.051 Q726.301 505.134 733.523 505.134 Q740.791 505.134 744.403 498.051 Q748.06 490.921 748.06 476.708 Q748.06 462.449 744.403 455.366 Q740.791 448.236 733.523 448.236 M733.523 440.829 Q745.143 440.829 751.254 450.042 Q757.412 459.208 757.412 476.708 Q757.412 494.162 751.254 503.375 Q745.143 512.541 733.523 512.541 Q721.903 512.541 715.745 503.375 Q709.634 494.162 709.634 476.708 Q709.634 459.208 715.745 450.042 Q721.903 440.829 733.523 440.829 Z" fill="#000000" fill-rule="nonzero" fill-opacity="1" /><path clip-path="url(#clip840)" d="M273.766 268.914 L310.478 268.914 L310.478 276.784 L282.33 276.784 L282.33 293.728 Q284.367 293.034 286.404 292.71 Q288.441 292.339 290.478 292.339 Q302.052 292.339 308.812 298.682 Q315.571 305.025 315.571 315.858 Q315.571 327.015 308.627 333.219 Q301.682 339.376 289.043 339.376 Q284.691 339.376 280.154 338.636 Q275.664 337.895 270.849 336.413 L270.849 327.015 Q275.016 329.284 279.46 330.395 Q283.904 331.506 288.858 331.506 Q296.867 331.506 301.543 327.293 Q306.219 323.08 306.219 315.858 Q306.219 308.636 301.543 304.423 Q296.867 300.21 288.858 300.21 Q285.108 300.21 281.358 301.043 Q277.654 301.876 273.766 303.636 L273.766 268.914 Z" fill="#000000" fill-rule="nonzero" fill-opacity="1" /><path clip-path="url(#clip840)" d="M333.997 326.274 L343.765 326.274 L343.765 338.034 L333.997 338.034 L333.997 326.274 Z" fill="#000000" fill-rule="nonzero" fill-opacity="1" /><path clip-path="url(#clip840)" d="M384.135 275.071 Q376.913 275.071 373.256 282.201 Q369.645 289.284 369.645 303.543 Q369.645 317.756 373.256 324.886 Q376.913 331.969 384.135 331.969 Q391.404 331.969 395.015 324.886 Q398.672 317.756 398.672 303.543 Q398.672 289.284 395.015 282.201 Q391.404 275.071 384.135 275.071 M384.135 267.664 Q395.756 267.664 401.867 276.877 Q408.024 286.043 408.024 303.543 Q408.024 320.997 401.867 330.21 Q395.756 339.376 384.135 339.376 Q372.515 339.376 366.358 330.21 Q360.247 320.997 360.247 303.543 Q360.247 286.043 366.358 276.877 Q372.515 267.664 384.135 267.664 Z" fill="#000000" fill-rule="nonzero" fill-opacity="1" /><path clip-path="url(#clip840)" d="M480.802 287.108 L459.644 308.358 L480.802 329.515 L475.292 335.117 L454.042 313.867 L432.793 335.117 L427.33 329.515 L448.441 308.358 L427.33 287.108 L432.793 281.506 L454.042 302.756 L475.292 281.506 L480.802 287.108 Z" fill="#000000" fill-rule="nonzero" fill-opacity="1" /><path clip-path="url(#clip840)" d="M505.524 330.163 L520.801 330.163 L520.801 277.432 L504.181 280.765 L504.181 272.247 L520.709 268.914 L530.061 268.914 L530.061 330.163 L545.338 330.163 L545.338 338.034 L505.524 338.034 L505.524 330.163 Z" fill="#000000" fill-rule="nonzero" fill-opacity="1" /><path clip-path="url(#clip840)" d="M584.227 275.071 Q577.005 275.071 573.347 282.201 Q569.736 289.284 569.736 303.543 Q569.736 317.756 573.347 324.886 Q577.005 331.969 584.227 331.969 Q591.495 331.969 595.106 324.886 Q598.764 317.756 598.764 303.543 Q598.764 289.284 595.106 282.201 Q591.495 275.071 584.227 275.071 M584.227 267.664 Q595.847 267.664 601.958 276.877 Q608.116 286.043 608.116 303.543 Q608.116 320.997 601.958 330.21 Q595.847 339.376 584.227 339.376 Q572.607 339.376 566.449 330.21 Q560.338 320.997 560.338 303.543 Q560.338 286.043 566.449 276.877 Q572.607 267.664 584.227 267.664 Z" fill="#000000" fill-rule="nonzero" fill-opacity="1" /><path clip-path="url(#clip840)" d="M608.116 255.866 L656.339 255.866 L656.339 262.261 L608.116 262.261 L608.116 255.866 Z" fill="#000000" fill-rule="nonzero" fill-opacity="1" /><path clip-path="url(#clip840)" d="M674.056 276.818 L686.469 276.818 L686.469 233.974 L672.965 236.682 L672.965 229.761 L686.394 227.053 L693.992 227.053 L693.992 276.818 L706.405 276.818 L706.405 283.213 L674.056 283.213 L674.056 276.818 Z" fill="#000000" fill-rule="nonzero" fill-opacity="1" /><path clip-path="url(#clip840)" d="M738.002 232.056 Q732.134 232.056 729.162 237.849 Q726.228 243.604 726.228 255.189 Q726.228 266.737 729.162 272.53 Q732.134 278.285 738.002 278.285 Q743.908 278.285 746.842 272.53 Q749.813 266.737 749.813 255.189 Q749.813 243.604 746.842 237.849 Q743.908 232.056 738.002 232.056 M738.002 226.037 Q747.444 226.037 752.409 233.523 Q757.412 240.971 757.412 255.189 Q757.412 269.37 752.409 276.856 Q747.444 284.304 738.002 284.304 Q728.561 284.304 723.558 276.856 Q718.592 269.37 718.592 255.189 Q718.592 240.971 723.558 233.523 Q728.561 226.037 738.002 226.037 Z" fill="#000000" fill-rule="nonzero" fill-opacity="1" /><path clip-path="url(#clip840)" d="M324.607 144.103 L339.885 144.103 L339.885 91.372 L323.265 94.7053 L323.265 86.1868 L339.792 82.8535 L349.144 82.8535 L349.144 144.103 L364.422 144.103 L364.422 151.974 L324.607 151.974 L324.607 144.103 Z" fill="#000000" fill-rule="nonzero" fill-opacity="1" /><path clip-path="url(#clip840)" d="M383.311 140.214 L393.079 140.214 L393.079 151.974 L383.311 151.974 L383.311 140.214 Z" fill="#000000" fill-rule="nonzero" fill-opacity="1" /><path clip-path="url(#clip840)" d="M433.449 89.0109 Q426.227 89.0109 422.57 96.1405 Q418.959 103.224 418.959 117.483 Q418.959 131.696 422.57 138.825 Q426.227 145.909 433.449 145.909 Q440.718 145.909 444.329 138.825 Q447.986 131.696 447.986 117.483 Q447.986 103.224 444.329 96.1405 Q440.718 89.0109 433.449 89.0109 M433.449 81.6035 Q445.07 81.6035 451.181 90.8164 Q457.338 99.9831 457.338 117.483 Q457.338 134.937 451.181 144.149 Q445.07 153.316 433.449 153.316 Q421.829 153.316 415.672 144.149 Q409.561 134.937 409.561 117.483 Q409.561 99.9831 415.672 90.8164 Q421.829 81.6035 433.449 81.6035 Z" fill="#000000" fill-rule="nonzero" fill-opacity="1" /><path clip-path="url(#clip840)" d="M530.115 101.048 L508.958 122.298 L530.115 143.455 L524.606 149.057 L503.356 127.807 L482.106 149.057 L476.644 143.455 L497.755 122.298 L476.644 101.048 L482.106 95.4461 L503.356 116.696 L524.606 95.4461 L530.115 101.048 Z" fill="#000000" fill-rule="nonzero" fill-opacity="1" /><path clip-path="url(#clip840)" d="M554.838 144.103 L570.115 144.103 L570.115 91.372 L553.495 94.7053 L553.495 86.1868 L570.023 82.8535 L579.374 82.8535 L579.374 144.103 L594.652 144.103 L594.652 151.974 L554.838 151.974 L554.838 144.103 Z" fill="#000000" fill-rule="nonzero" fill-opacity="1" /><path clip-path="url(#clip840)" d="M633.541 89.0109 Q626.319 89.0109 622.661 96.1405 Q619.05 103.224 619.05 117.483 Q619.05 131.696 622.661 138.825 Q626.319 145.909 633.541 145.909 Q640.809 145.909 644.42 138.825 Q648.078 131.696 648.078 117.483 Q648.078 103.224 644.42 96.1405 Q640.809 89.0109 633.541 89.0109 M633.541 81.6035 Q645.161 81.6035 651.272 90.8164 Q657.43 99.9831 657.43 117.483 Q657.43 134.937 651.272 144.149 Q645.161 153.316 633.541 153.316 Q621.921 153.316 615.763 144.149 Q609.652 134.937 609.652 117.483 Q609.652 99.9831 615.763 90.8164 Q621.921 81.6035 633.541 81.6035 Z" fill="#000000" fill-rule="nonzero" fill-opacity="1" /><path clip-path="url(#clip840)" d="M657.43 69.8062 L705.653 69.8062 L705.653 76.2009 L657.43 76.2009 L657.43 69.8062 Z" fill="#000000" fill-rule="nonzero" fill-opacity="1" /><path clip-path="url(#clip840)" d="M722.279 95.9866 L722.279 89.0654 Q725.138 90.4195 728.072 91.1342 Q731.006 91.8489 733.827 91.8489 Q741.35 91.8489 745.3 86.8085 Q749.287 81.7304 749.851 71.4237 Q747.669 74.6586 744.322 76.3889 Q740.974 78.1193 736.911 78.1193 Q728.485 78.1193 723.558 73.0412 Q718.668 67.9255 718.668 59.0858 Q718.668 50.4342 723.783 45.2057 Q728.899 39.9771 737.4 39.9771 Q747.143 39.9771 752.258 47.4626 Q757.412 54.9105 757.412 69.1292 Q757.412 82.4074 751.092 90.3443 Q744.811 98.2436 734.165 98.2436 Q731.307 98.2436 728.373 97.6793 Q725.439 97.1151 722.279 95.9866 M737.4 72.176 Q742.516 72.176 745.488 68.6778 Q748.497 65.1795 748.497 59.0858 Q748.497 53.0297 745.488 49.5315 Q742.516 45.9956 737.4 45.9956 Q732.285 45.9956 729.275 49.5315 Q726.304 53.0297 726.304 59.0858 Q726.304 65.1795 729.275 68.6778 Q732.285 72.176 737.4 72.176 Z" fill="#000000" fill-rule="nonzero" fill-opacity="1" /><path clip-path="url(#clip840)" d="M28.1838 640.685 Q28.1838 652.144 36.7254 658.914 Q45.267 665.633 60.0065 665.633 Q74.6939 665.633 83.2355 658.914 Q91.7772 652.144 91.7772 640.685 Q91.7772 629.227 83.2355 622.56 Q74.6939 615.842 60.0065 615.842 Q45.267 615.842 36.7254 622.56 Q28.1838 629.227 28.1838 640.685 M19.6421 640.685 Q19.6421 624.331 30.6317 614.54 Q41.5691 604.748 60.0065 604.748 Q78.3918 604.748 89.3813 614.54 Q100.319 624.331 100.319 640.685 Q100.319 657.092 89.3813 666.935 Q78.4439 676.727 60.0065 676.727 Q41.5691 676.727 30.6317 666.935 Q19.6421 657.092 19.6421 640.685 Z" fill="#000000" fill-rule="nonzero" fill-opacity="1" /><path clip-path="url(#clip840)" d="M17.8713 531.78 Q29.8504 538.759 41.5691 542.144 Q53.2878 545.53 65.319 545.53 Q77.3502 545.53 89.173 542.144 Q100.944 538.707 112.871 531.78 L112.871 540.113 Q100.631 547.925 88.8084 551.832 Q76.9856 555.686 65.319 555.686 Q53.7045 555.686 41.9337 551.832 Q30.1629 547.978 17.8713 540.113 L17.8713 531.78 Z" fill="#000000" fill-rule="nonzero" fill-opacity="1" /><path clip-path="url(#clip840)" d="M90.0584 503.915 L120.996 503.915 L120.996 513.551 L40.4754 513.551 L40.4754 503.915 L49.3295 503.915 Q44.1212 500.894 41.6212 496.311 Q39.0691 491.676 39.0691 485.27 Q39.0691 474.645 47.5066 468.03 Q55.944 461.363 69.694 461.363 Q83.4439 461.363 91.8813 468.03 Q100.319 474.645 100.319 485.27 Q100.319 491.676 97.8188 496.311 Q95.2667 500.894 90.0584 503.915 M69.694 471.311 Q59.1211 471.311 53.1315 475.686 Q47.0899 480.009 47.0899 487.613 Q47.0899 495.217 53.1315 499.592 Q59.1211 503.915 69.694 503.915 Q80.2668 503.915 86.3084 499.592 Q92.298 495.217 92.298 487.613 Q92.298 480.009 86.3084 475.686 Q80.2668 471.311 69.694 471.311 Z" fill="#000000" fill-rule="nonzero" fill-opacity="1" /><path clip-path="url(#clip840)" d="M90.0584 436.207 L120.996 436.207 L120.996 445.843 L40.4754 445.843 L40.4754 436.207 L49.3295 436.207 Q44.1212 433.187 41.6212 428.603 Q39.0691 423.968 39.0691 417.562 Q39.0691 406.937 47.5066 400.322 Q55.944 393.655 69.694 393.655 Q83.4439 393.655 91.8813 400.322 Q100.319 406.937 100.319 417.562 Q100.319 423.968 97.8188 428.603 Q95.2667 433.187 90.0584 436.207 M69.694 403.603 Q59.1211 403.603 53.1315 407.978 Q47.0899 412.301 47.0899 419.905 Q47.0899 427.509 53.1315 431.884 Q59.1211 436.207 69.694 436.207 Q80.2668 436.207 86.3084 431.884 Q92.298 427.509 92.298 419.905 Q92.298 412.301 86.3084 407.978 Q80.2668 403.603 69.694 403.603 Z" fill="#000000" fill-rule="nonzero" fill-opacity="1" /><path clip-path="url(#clip840)" d="M51.6732 332.354 Q45.2149 328.76 42.142 323.76 Q39.0691 318.76 39.0691 311.989 Q39.0691 302.875 45.4753 297.927 Q51.8295 292.979 63.6002 292.979 L98.8084 292.979 L98.8084 302.614 L63.9127 302.614 Q55.5274 302.614 51.4649 305.583 Q47.4024 308.552 47.4024 314.645 Q47.4024 322.093 52.3503 326.416 Q57.2982 330.739 65.8398 330.739 L98.8084 330.739 L98.8084 340.374 L63.9127 340.374 Q55.4753 340.374 51.4649 343.343 Q47.4024 346.312 47.4024 352.51 Q47.4024 359.854 52.4024 364.176 Q57.3503 368.499 65.8398 368.499 L98.8084 368.499 L98.8084 378.135 L40.4754 378.135 L40.4754 368.499 L49.5378 368.499 Q44.1733 365.218 41.6212 360.635 Q39.0691 356.051 39.0691 349.749 Q39.0691 343.395 42.2983 338.968 Q45.5274 334.489 51.6732 332.354 Z" fill="#000000" fill-rule="nonzero" fill-opacity="1" /><path clip-path="url(#clip840)" d="M17.8713 275.375 L17.8713 267.042 Q30.1629 259.229 41.9337 255.375 Q53.7045 251.469 65.319 251.469 Q76.9856 251.469 88.8084 255.375 Q100.631 259.229 112.871 267.042 L112.871 275.375 Q100.944 268.448 89.173 265.062 Q77.3502 261.625 65.319 261.625 Q53.2878 261.625 41.5691 265.062 Q29.8504 268.448 17.8713 275.375 Z" fill="#000000" fill-rule="nonzero" fill-opacity="1" /><path clip-path="url(#clip842)" d="M940.45 648.82 L957.665 722.9 L974.88 721.119 L992.095 736.788 L1009.31 711.521 L1026.53 773.971 L1043.74 718.629 L1060.96 672.645 L1078.17 682.37 L1095.39 747.89 L1112.6 676.576 L1129.82 681.235 L1147.03 692.072 L1164.25 711.352 L1181.46 707.943 L1198.68 786.269 L1215.89 799.225 L1233.11 851.112 L1250.32 750.47 L1267.54 686.721 L1284.75 807.041 L1301.97 734.593 L1319.18 774.872 L1336.4 726.657 L1353.61 765.871 L1370.83 740.278 L1388.04 823.099 L1405.26 722.319 L1422.48 741.387 L1439.69 778.411 L1456.91 729.33 L1474.12 697.281 L1491.34 847.676 L1508.55 725.838 L1525.77 671.557 L1542.98 819.373 L1560.2 696.852 L1577.41 714.617 L1594.63 709.873 L1611.84 830.96 L1629.06 805.515 L1646.27 825.683 L1663.49 726.038 L1680.7 686.74 L1697.92 777.559 L1715.13 733.753 L1732.35 751.068 L1749.56 728.218 L1766.78 766.913 L1783.99 741.069 L1801.21 710.835 L1818.42 728.852 L1835.64 726.279 L1852.86 780.145 L1870.07 731.194 L1887.29 678.895 L1904.5 851.969 L1921.72 737.271 L1938.93 673.023 L1956.15 822.76 L1973.36 711.565 L1990.58 715.306 L2007.79 710.74 L2025.01 821.886 L2042.22 805.561 L2059.44 827.582 L2076.65 726.556 L2093.87 688.911 L2111.08 781.818 L2128.3 734.455 L2145.51 758.81 L2162.73 728.572 L2179.94 767.752 L2197.16 741.79 L2214.37 711.783 L2231.59 730.518 L2248.8 727.036 L2266.02 781.188 L2283.24 732.336 L2300.45 681.908 L2317.67 853.952 L2334.88 736.534 L2352.1 673.752 L2369.31 823.309 L2386.53 709.809 L2403.74 715.308 L2420.96 710.838 L2438.17 824.139 L2455.39 806.33 L2472.6 829.398 L2489.82 726.585 L2507.03 688.033 L2524.25 777.335 L2541.46 734.842 L2558.68 752.579 L2575.89 729.015 L2593.11 768.588 L2610.32 742.667 L2627.54 712.865 L2644.75 731.884 L2661.97 727.773 L2679.19 782.025 L2696.4 733.234 L2713.62 682.492 L2730.83 853.856 L2748.05 737.076 L2765.26 674.575 L2782.48 823.894 L2799.69 712.733 L2816.91 715.566 L2834.12 711.385 L2851.34 825.64 L2868.55 807.036 L2885.77 821.281 L2902.98 731.701 L2920.2 688.705 L2937.41 777.615 L2954.63 735.026 L2971.84 757.424 L2989.06 730.016 L3006.27 769.721 L3023.49 743.448 L3040.7 713.747 L3057.92 730.787 L3075.13 728.546 L3092.35 783.062 L3109.57 734.358 L3126.78 682.238 L3144 855.457 L3161.21 737.315 L3178.43 674.589 L3195.64 824.537 L3212.86 711.151 L3230.07 716.569 L3247.29 712.096 L3264.5 826.027 L3281.72 807.087 L3298.93 822.444 L3316.15 732.245 L3333.36 688.901 L3350.58 774.665 L3367.79 735.68 L3385.01 759.504 L3402.22 730.899 L3419.44 770.802 L3436.65 744.295 L3453.87 714.684 L3471.08 731.83 L3488.3 729.371 L3505.51 783.976 L3522.73 735.359 L3539.95 683.173 L3557.16 854.325 L3574.38 738.515 L3591.59 675.854 L3608.81 825.167 L3626.02 716.696 L3643.24 717.124 L3660.45 712.664 L3677.67 826.437 L3694.88 807.833 L3712.1 819.414 L3729.31 734.922 L3746.53 690.05 L3763.74 781.2 L3780.96 736.823 L3798.17 761.023 L3815.39 731.383 L3832.6 771.59 L3849.82 745.078 L3867.03 715.897 L3884.25 731.666 L3901.46 730.182 L3918.68 784.996 L3935.89 736.468 L3953.11 683.608 L3970.33 853.934 L3987.54 738.732 L4004.76 676.257 L4021.97 825.494 L4039.19 712.511 L4056.4 717.196 L4073.62 713.008 L4090.83 826.925 L4108.05 808.902 L4125.26 823.833 L4142.48 733.868 L4159.69 690.472 L4176.91 781.157 L4194.12 736.379 L4211.34 758.509 L4228.55 733.072 L4245.77 773.085 L4262.98 745.878 L4280.2 717.015 L4297.41 731.695 L4314.63 730.982 L4331.84 785.979 L4349.06 737.526 L4366.27 684.109 L4383.49 857.356 L4400.71 739.322 L4417.92 676.869 L4435.14 826.273 L4452.35 718.652 L4469.57 717.308 L4486.78 713.344 L4504 827.463 L4521.21 808.978 L4538.43 827.125 L4555.64 733.189 L4572.86 690.972 L4590.07 778.944 L4607.29 736.598 L4624.5 759.064 L4641.72 733.249 L4641.72 190.388 L4624.5 98.0495 L4607.29 179.588 L4590.07 216.263 L4572.86 119.021 L4555.64 164.93 L4538.43 134.26 L4521.21 201.966 L4504 231.446 L4486.78 98.3122 L4469.57 118.248 L4452.35 149.593 L4435.14 167.027 L4417.92 167.457 L4400.71 105.352 L4383.49 203.611 L4366.27 159.3 L4349.06 121.562 L4331.84 185.344 L4314.63 174.889 L4297.41 234.407 L4280.2 180.716 L4262.98 76.4599 L4245.77 173.97 L4228.55 189.935 L4211.34 97.6593 L4194.12 177.024 L4176.91 216.131 L4159.69 117.265 L4142.48 162.377 L4125.26 133.595 L4108.05 202.111 L4090.83 232.962 L4073.62 99.1364 L4056.4 120.482 L4039.19 149.187 L4021.97 168.06 L4004.76 166.977 L3987.54 104.164 L3970.33 201.731 L3953.11 158.829 L3935.89 117.216 L3918.68 182.901 L3901.46 174.393 L3884.25 235.122 L3867.03 178.754 L3849.82 74.8125 L3832.6 173.213 L3815.39 189.518 L3798.17 97.3318 L3780.96 177.728 L3763.74 215.402 L3746.53 120.889 L3729.31 160.542 L3712.1 132.786 L3694.88 201.101 L3677.67 235.216 L3660.45 99.2009 L3643.24 117.214 L3626.02 148.63 L3608.81 165.817 L3591.59 166.548 L3574.38 103.597 L3557.16 203.471 L3539.95 159.119 L3522.73 117.298 L3505.51 184.457 L3488.3 173.402 L3471.08 234.214 L3453.87 180.879 L3436.65 73.2754 L3419.44 172.507 L3402.22 189.046 L3385.01 96.8777 L3367.79 175.068 L3350.58 214.491 L3333.36 117.245 L3316.15 165.19 L3298.93 131.966 L3281.72 201.084 L3264.5 230.588 L3247.29 98.6335 L3230.07 119.378 L3212.86 148.188 L3195.64 168.538 L3178.43 165.94 L3161.21 103.059 L3144 199.526 L3126.78 158.864 L3109.57 118.641 L3092.35 184.353 L3075.13 173.071 L3057.92 234.391 L3040.7 176.225 L3023.49 74.4332 L3006.27 171.83 L2989.06 188.719 L2971.84 96.6351 L2954.63 175.801 L2937.41 215.534 L2920.2 119.265 L2902.98 162.281 L2885.77 131.395 L2868.55 199.804 L2851.34 229.605 L2834.12 97.0137 L2816.91 116.021 L2799.69 147.719 L2782.48 161.139 L2765.26 165.775 L2748.05 101.661 L2730.83 202.535 L2713.62 156.851 L2696.4 117.028 L2679.19 181.99 L2661.97 172.085 L2644.75 233.519 L2627.54 180.826 L2610.32 70.8396 L2593.11 171.292 L2575.89 187.933 L2558.68 95.9777 L2541.46 175.823 L2524.25 211.894 L2507.03 116.593 L2489.82 161.701 L2472.6 130.036 L2455.39 199.129 L2438.17 221.479 L2420.96 96.1094 L2403.74 118.223 L2386.53 146.45 L2369.31 168.312 L2352.1 159.406 L2334.88 101.274 L2317.67 198.886 L2300.45 162.598 L2283.24 116.917 L2266.02 183.791 L2248.8 171.33 L2231.59 234.025 L2214.37 172.2 L2197.16 71.9763 L2179.94 171.051 L2162.73 188.649 L2145.51 94.6862 L2128.3 174.698 L2111.08 217.508 L2093.87 114.951 L2076.65 157.327 L2059.44 133.713 L2042.22 200.026 L2025.01 221.643 L2007.79 96.6556 L1990.58 114.454 L1973.36 150.042 L1956.15 151.997 L1938.93 175.223 L1921.72 101.242 L1904.5 202.165 L1887.29 147.043 L1870.07 114.444 L1852.86 178.63 L1835.64 170.526 L1818.42 230.183 L1801.21 188.763 L1783.99 72.8871 L1766.78 170.238 L1749.56 183.758 L1732.35 93.9041 L1715.13 176.779 L1697.92 212.501 L1680.7 115.743 L1663.49 159.578 L1646.27 131.144 L1629.06 198.239 L1611.84 220.952 L1594.63 98.8992 L1577.41 115.666 L1560.2 132.834 L1542.98 177.893 L1525.77 105.951 L1508.55 89.123 L1491.34 201.515 L1474.12 191.28 L1456.91 108.84 L1439.69 192.226 L1422.48 171.362 L1405.26 230.838 L1388.04 163.67 L1370.83 202.847 L1353.61 163.203 L1336.4 211.778 L1319.18 111.961 L1301.97 168.597 L1284.75 231.428 L1267.54 137.578 L1250.32 133.999 L1233.11 216.362 L1215.89 191.788 L1198.68 196.057 L1181.46 110.351 L1164.25 116.695 L1147.03 200.476 L1129.82 152.259 L1112.6 285.177 L1095.39 227.294 L1078.17 222.071 L1060.96 112.149 L1043.74 267.745 L1026.53 249.907 L1009.31 325.742 L992.095 323.555 L974.88 289.981 L957.665 352.812 L940.45 384.346  Z" fill="#b0b0b0" fill-rule="evenodd" fill-opacity="0.5"/>
<polyline clip-path="url(#clip842)" style="stroke:#b0b0b0; stroke-linecap:round; stroke-linejoin:round; stroke-width:0; stroke-opacity:1; fill:none" points="940.45,476.568 957.665,501.876 974.88,496.98 992.095,492.594 1009.31,489.897 1026.53,486.614 1043.74,483.813 1060.96,480.728 1078.17,479.935 1095.39,479.188 1112.6,477.155 1129.82,474.73 1147.03,474.991 1164.25,475.68 1181.46,477.94 1198.68,481.026 1215.89,482.837 1233.11,482.654 1250.32,480.45 1267.54,478.112 1284.75,477.294 1301.97,478.512 1319.18,479.5 1336.4,481.61 1353.61,481.994 1370.83,481.987 1388.04,482.101 1405.26,481.787 1422.48,481.177 1439.69,480.634 1456.91,479.651 1474.12,481.189 1491.34,481.792 1508.55,478.533 1525.77,476.432 1542.98,475.855 1560.2,477.344 1577.41,477.99 1594.63,478.66 1611.84,481.269 1629.06,482.554 1646.27,481.713 1663.49,479.704 1680.7,478.197 1697.92,477.52 1715.13,478.582 1732.35,479.441 1749.56,481.497 1766.78,482.054 1783.99,481.546 1801.21,482.108 1818.42,482.094 1835.64,481.358 1852.86,480.547 1870.07,479.51 1887.29,480.509 1904.5,481.547 1921.72,479.11 1938.93,477.773 1956.15,476.004 1973.36,477 1990.58,477.875 2007.79,478.874 2025.01,481.353 2042.22,482.562 2059.44,481.93 2076.65,480.065 2093.87,478.334 2111.08,477.54 2128.3,478.722 2145.51,479.602 2162.73,481.578 2179.94,482.103 2197.16,481.611 2214.37,482.156 2231.59,482.254 2248.8,481.489 2266.02,480.796 2283.24,479.799 2300.45,480.889 2317.67,481.778 2334.88,479.019 2352.1,477.374 2369.31,476.048 2386.53,477.336 2403.74,478.194 2420.96,478.943 2438.17,481.524 2455.39,482.824 2472.6,482.038 2489.82,480.145 2507.03,478.476 2524.25,477.7 2541.46,478.804 2558.68,479.709 2575.89,481.745 2593.11,482.301 2610.32,481.783 2627.54,482.275 2644.75,482.364 2661.97,481.605 2679.19,480.844 2696.4,479.818 2713.62,480.922 2730.83,481.899 2748.05,479.317 2765.26,477.856 2782.48,476.255 2799.69,477.38 2816.91,478.235 2834.12,479.159 2851.34,481.692 2868.55,482.878 2885.77,482.168 2902.98,480.306 2920.2,478.588 2937.41,477.832 2954.63,479.001 2971.84,479.913 2989.06,481.887 3006.27,482.398 3023.49,481.9 3040.7,482.418 3057.92,482.551 3075.13,481.773 3092.35,481.03 3109.57,480.014 3126.78,481.119 3144,482.06 3161.21,479.381 3178.43,477.807 3195.64,476.339 3212.86,477.552 3230.07,478.458 3247.29,479.276 3264.5,481.816 3281.72,483.048 3298.93,482.33 3316.15,480.455 3333.36,478.746 3350.58,477.955 3367.79,479.134 3385.01,480.002 3402.22,482.025 3419.44,482.537 3436.65,482.047 3453.87,482.578 3471.08,482.633 3488.3,481.887 3505.51,481.119 3522.73,480.11 3539.95,481.233 3557.16,482.188 3574.38,479.592 3591.59,478.081 3608.81,476.568 3626.02,477.708 3643.24,478.565 3660.45,479.417 3677.67,481.952 3694.88,483.139 3712.1,482.447 3729.31,480.574 3746.53,478.906 3763.74,478.135 3780.96,479.301 3798.17,480.194 3815.39,482.171 3832.6,482.679 3849.82,482.206 3867.03,482.721 3884.25,482.797 3901.46,482.062 3918.68,481.298 3935.89,480.294 3953.11,481.385 3970.33,482.32 3987.54,479.679 4004.76,478.131 4021.97,476.606 4039.19,477.842 4056.4,478.739 4073.62,479.565 4090.83,482.096 4108.05,483.327 4125.26,482.615 4142.48,480.724 4159.69,479.044 4176.91,478.265 4194.12,479.401 4211.34,480.292 4228.55,482.303 4245.77,482.823 4262.98,482.348 4280.2,482.875 4297.41,482.953 4314.63,482.216 4331.84,481.451 4349.06,480.442 4366.27,481.506 4383.49,482.45 4400.71,479.837 4417.92,478.375 4435.14,476.803 4452.35,477.976 4469.57,478.856 4486.78,479.712 4504,482.242 4521.21,483.448 4538.43,482.724 4555.64,480.856 4572.86,479.154 4590.07,478.376 4607.29,479.538 4624.5,480.444 4641.72,482.465 "/>
<path clip-path="url(#clip842)" d="M940.45 536.953 L957.665 592.086 L974.88 591.39 L992.095 575.648 L1009.31 587.188 L1026.53 589.483 L1043.74 578.698 L1060.96 583.577 L1078.17 581.034 L1095.39 571.742 L1112.6 568.097 L1129.82 568.911 L1147.03 575.418 L1164.25 563.15 L1181.46 579.487 L1198.68 592.721 L1215.89 606.096 L1233.11 610.319 L1250.32 593.171 L1267.54 579.186 L1284.75 552.278 L1301.97 571.337 L1319.18 580.244 L1336.4 583.077 L1353.61 593.449 L1370.83 582.257 L1388.04 595.573 L1405.26 574.481 L1422.48 583.241 L1439.69 569.369 L1456.91 578.308 L1474.12 598.02 L1491.34 598.813 L1508.55 583.782 L1525.77 571.455 L1542.98 569.107 L1560.2 584.543 L1577.41 589.833 L1594.63 588.408 L1611.84 596.784 L1629.06 603.507 L1646.27 609.13 L1663.49 591.905 L1680.7 576.057 L1697.92 558.606 L1715.13 576.973 L1732.35 581.717 L1749.56 582.418 L1766.78 599.428 L1783.99 587.887 L1801.21 592.016 L1818.42 572.68 L1835.64 583.667 L1852.86 573.646 L1870.07 581.618 L1887.29 591.595 L1904.5 598.674 L1921.72 581.536 L1938.93 576.258 L1956.15 573.331 L1973.36 580.543 L1990.58 590.425 L2007.79 592.168 L2025.01 597.13 L2042.22 603.673 L2059.44 609.607 L2076.65 592.597 L2093.87 578.274 L2111.08 558.697 L2128.3 574.424 L2145.51 588.386 L2162.73 583.243 L2179.94 597.013 L2197.16 586.614 L2214.37 593.287 L2231.59 572.031 L2248.8 584.027 L2266.02 573.782 L2283.24 580.463 L2300.45 597.564 L2317.67 599.221 L2334.88 584.84 L2352.1 574.341 L2369.31 572.719 L2386.53 586.269 L2403.74 591.157 L2420.96 594.136 L2438.17 597.74 L2455.39 604.191 L2472.6 609.896 L2489.82 593.25 L2507.03 578.6 L2524.25 559.318 L2541.46 573.979 L2558.68 582.957 L2575.89 583.493 L2593.11 598.986 L2610.32 587.514 L2627.54 592.93 L2644.75 571.315 L2661.97 584.472 L2679.19 574.14 L2696.4 581.033 L2713.62 593.215 L2730.83 599.585 L2748.05 582.325 L2765.26 575.647 L2782.48 573.288 L2799.69 581.884 L2816.91 592.02 L2834.12 594.472 L2851.34 597.91 L2868.55 604.466 L2885.77 610.224 L2902.98 593.679 L2920.2 579.413 L2937.41 559.424 L2954.63 575.302 L2971.84 584.482 L2989.06 584.072 L3006.27 598.578 L3023.49 587.908 L3040.7 593.581 L3057.92 572.174 L3075.13 584.887 L3092.35 574.638 L3109.57 580.892 L3126.78 597.235 L3144 600.063 L3161.21 582.928 L3178.43 575.663 L3195.64 573.094 L3212.86 582.375 L3230.07 592.685 L3247.29 595.335 L3264.5 598.336 L3281.72 604.956 L3298.93 610.756 L3316.15 594.163 L3333.36 580.056 L3350.58 559.661 L3367.79 575.756 L3385.01 584.395 L3402.22 584.478 L3419.44 599.583 L3436.65 588.439 L3453.87 594.434 L3471.08 572.183 L3488.3 585.22 L3505.51 575.314 L3522.73 581.348 L3539.95 596.51 L3557.16 600.564 L3574.38 584.938 L3591.59 575.733 L3608.81 574.186 L3626.02 582.875 L3643.24 593.609 L3660.45 596.003 L3677.67 598.816 L3694.88 605.338 L3712.1 610.984 L3729.31 594.37 L3746.53 580.623 L3763.74 560.112 L3780.96 576.199 L3798.17 584.586 L3815.39 584.999 L3832.6 599.876 L3849.82 588.826 L3867.03 595.144 L3884.25 573.362 L3901.46 585.746 L3918.68 576.218 L3935.89 582.055 L3953.11 596.957 L3970.33 600.968 L3987.54 584.008 L4004.76 577.259 L4021.97 573.324 L4039.19 583.348 L4056.4 594.269 L4073.62 596.791 L4090.83 599.204 L4108.05 605.771 L4125.26 611.263 L4142.48 594.858 L4159.69 580.84 L4176.91 560.402 L4194.12 576.635 L4211.34 585.528 L4228.55 585.171 L4245.77 600.504 L4262.98 589.259 L4280.2 595.818 L4297.41 573.062 L4314.63 586.165 L4331.84 577.019 L4349.06 582.208 L4366.27 597.132 L4383.49 601.35 L4400.71 584.535 L4417.92 576.803 L4435.14 575.412 L4452.35 583.839 L4469.57 595.123 L4486.78 597.543 L4504 599.523 L4521.21 606.243 L4538.43 611.747 L4555.64 595.265 L4572.86 581.702 L4590.07 560.674 L4607.29 577.056 L4624.5 586.139 L4641.72 584.565 L4641.72 375.509 L4624.5 369.939 L4607.29 375.859 L4590.07 378.156 L4572.86 364.515 L4555.64 376.301 L4538.43 381.676 L4521.21 363.321 L4504 366.911 L4486.78 375.784 L4469.57 365.07 L4452.35 376.497 L4435.14 362.923 L4417.92 354.152 L4400.71 382.292 L4383.49 394.49 L4366.27 377.895 L4349.06 376.643 L4331.84 376.967 L4314.63 369.812 L4297.41 364.578 L4280.2 368.125 L4262.98 373.615 L4245.77 363.477 L4228.55 375.109 L4211.34 369.214 L4194.12 375.204 L4176.91 377.85 L4159.69 366.739 L4142.48 375.945 L4125.26 380.854 L4108.05 362.763 L4090.83 366.378 L4073.62 375.437 L4056.4 364.9 L4039.19 376.038 L4021.97 362.182 L4004.76 353.982 L3987.54 381.777 L3970.33 394.464 L3953.11 377.182 L3935.89 376.146 L3918.68 376.547 L3901.46 369.34 L3884.25 363.449 L3867.03 367.941 L3849.82 372.733 L3832.6 363.185 L3815.39 374.541 L3798.17 369.036 L3780.96 374.645 L3763.74 377.562 L3746.53 367.807 L3729.31 375.131 L3712.1 380.22 L3694.88 362.166 L3677.67 366.072 L3660.45 375.38 L3643.24 363.942 L3626.02 375.819 L3608.81 362.468 L3591.59 352.02 L3574.38 381.077 L3557.16 395.26 L3539.95 377.135 L3522.73 375.244 L3505.51 375.844 L3488.3 369.124 L3471.08 363.005 L3453.87 367.228 L3436.65 372.493 L3419.44 362.735 L3402.22 374.103 L3385.01 368.415 L3367.79 373.998 L3350.58 377.168 L3333.36 361.245 L3316.15 375.198 L3298.93 380.74 L3281.72 361.857 L3264.5 365.637 L3247.29 374.754 L3230.07 363.564 L3212.86 375.404 L3195.64 362.033 L3178.43 351.633 L3161.21 378.742 L3144 393.35 L3126.78 376.846 L3109.57 374.987 L3092.35 374.912 L3075.13 368.781 L3057.92 364.3 L3040.7 367.131 L3023.49 371.893 L3006.27 362.304 L2989.06 373.662 L2971.84 368.083 L2954.63 373.45 L2937.41 376.738 L2920.2 363.387 L2902.98 374.805 L2885.77 379.536 L2868.55 361.408 L2851.34 365.453 L2834.12 374.48 L2816.91 363.51 L2799.69 374.848 L2782.48 361.734 L2765.26 352.017 L2748.05 380.132 L2730.83 389.64 L2713.62 376.349 L2696.4 374.514 L2679.19 374.911 L2661.97 368.906 L2644.75 363.128 L2627.54 366.23 L2610.32 371.452 L2593.11 361.987 L2575.89 373.142 L2558.68 366.843 L2541.46 372.767 L2524.25 376.383 L2507.03 363.062 L2489.82 374.167 L2472.6 379.088 L2455.39 361.035 L2438.17 365.267 L2420.96 374.049 L2403.74 363.794 L2386.53 374.633 L2369.31 360.942 L2352.1 350.42 L2334.88 372.068 L2317.67 394.099 L2300.45 375.957 L2283.24 374.252 L2266.02 374.34 L2248.8 369.169 L2231.59 362.5 L2214.37 365.179 L2197.16 370.768 L2179.94 361.411 L2162.73 372.651 L2145.51 366.976 L2128.3 372.32 L2111.08 375.902 L2093.87 367.844 L2076.65 373.74 L2059.44 378.31 L2042.22 360.626 L2025.01 363.436 L2007.79 373.83 L1990.58 362.894 L1973.36 372.998 L1956.15 361.042 L1938.93 351.267 L1921.72 379.103 L1904.5 384.733 L1887.29 376.084 L1870.07 373.903 L1852.86 374.244 L1835.64 368.87 L1818.42 361.78 L1801.21 364.368 L1783.99 370.547 L1766.78 361.124 L1749.56 372.603 L1732.35 367.134 L1715.13 368.668 L1697.92 375.095 L1680.7 363.388 L1663.49 373.307 L1646.27 378.524 L1629.06 362.265 L1611.84 364.153 L1594.63 374.844 L1577.41 361.278 L1560.2 368.428 L1542.98 364.375 L1525.77 347.466 L1508.55 371.854 L1491.34 391.97 L1474.12 379.556 L1456.91 376.639 L1439.69 381.847 L1422.48 368.081 L1405.26 368.051 L1388.04 364.131 L1370.83 367.465 L1353.61 361.79 L1336.4 375.396 L1319.18 371.325 L1301.97 375.211 L1284.75 373.751 L1267.54 370.171 L1250.32 377.538 L1233.11 373.589 L1215.89 364.158 L1198.68 360.821 L1181.46 375.49 L1164.25 362.083 L1147.03 354.794 L1129.82 367.026 L1112.6 376.242 L1095.39 391.189 L1078.17 402.096 L1060.96 404.276 L1043.74 408.442 L1026.53 416.546 L1009.31 429.369 L992.095 440.703 L974.88 458.986 L957.665 474.016 L940.45 436.118  Z" fill="#777777" fill-rule="evenodd" fill-opacity="0.5"/>
<polyline clip-path="url(#clip842)" style="stroke:#777777; stroke-linecap:round; stroke-linejoin:round; stroke-width:0; stroke-opacity:1; fill:none" points="940.45,476.568 957.665,501.876 974.88,496.98 992.095,492.594 1009.31,489.897 1026.53,486.614 1043.74,483.813 1060.96,480.728 1078.17,479.935 1095.39,479.188 1112.6,477.155 1129.82,474.73 1147.03,474.991 1164.25,475.68 1181.46,477.94 1198.68,481.026 1215.89,482.837 1233.11,482.654 1250.32,480.45 1267.54,478.112 1284.75,477.294 1301.97,478.512 1319.18,479.5 1336.4,481.61 1353.61,481.994 1370.83,481.987 1388.04,482.101 1405.26,481.787 1422.48,481.177 1439.69,480.634 1456.91,479.651 1474.12,481.189 1491.34,481.792 1508.55,478.533 1525.77,476.432 1542.98,475.855 1560.2,477.344 1577.41,477.99 1594.63,478.66 1611.84,481.269 1629.06,482.554 1646.27,481.713 1663.49,479.704 1680.7,478.197 1697.92,477.52 1715.13,478.582 1732.35,479.441 1749.56,481.497 1766.78,482.054 1783.99,481.546 1801.21,482.108 1818.42,482.094 1835.64,481.358 1852.86,480.547 1870.07,479.51 1887.29,480.509 1904.5,481.547 1921.72,479.11 1938.93,477.773 1956.15,476.004 1973.36,477 1990.58,477.875 2007.79,478.874 2025.01,481.353 2042.22,482.562 2059.44,481.93 2076.65,480.065 2093.87,478.334 2111.08,477.54 2128.3,478.722 2145.51,479.602 2162.73,481.578 2179.94,482.103 2197.16,481.611 2214.37,482.156 2231.59,482.254 2248.8,481.489 2266.02,480.796 2283.24,479.799 2300.45,480.889 2317.67,481.778 2334.88,479.019 2352.1,477.374 2369.31,476.048 2386.53,477.336 2403.74,478.194 2420.96,478.943 2438.17,481.524 2455.39,482.824 2472.6,482.038 2489.82,480.145 2507.03,478.476 2524.25,477.7 2541.46,478.804 2558.68,479.709 2575.89,481.745 2593.11,482.301 2610.32,481.783 2627.54,482.275 2644.75,482.364 2661.97,481.605 2679.19,480.844 2696.4,479.818 2713.62,480.922 2730.83,481.899 2748.05,479.317 2765.26,477.856 2782.48,476.255 2799.69,477.38 2816.91,478.235 2834.12,479.159 2851.34,481.692 2868.55,482.878 2885.77,482.168 2902.98,480.306 2920.2,478.588 2937.41,477.832 2954.63,479.001 2971.84,479.913 2989.06,481.887 3006.27,482.398 3023.49,481.9 3040.7,482.418 3057.92,482.551 3075.13,481.773 3092.35,481.03 3109.57,480.014 3126.78,481.119 3144,482.06 3161.21,479.381 3178.43,477.807 3195.64,476.339 3212.86,477.552 3230.07,478.458 3247.29,479.276 3264.5,481.816 3281.72,483.048 3298.93,482.33 3316.15,480.455 3333.36,478.746 3350.58,477.955 3367.79,479.134 3385.01,480.002 3402.22,482.025 3419.44,482.537 3436.65,482.047 3453.87,482.578 3471.08,482.633 3488.3,481.887 3505.51,481.119 3522.73,480.11 3539.95,481.233 3557.16,482.188 3574.38,479.592 3591.59,478.081 3608.81,476.568 3626.02,477.708 3643.24,478.565 3660.45,479.417 3677.67,481.952 3694.88,483.139 3712.1,482.447 3729.31,480.574 3746.53,478.906 3763.74,478.135 3780.96,479.301 3798.17,480.194 3815.39,482.171 3832.6,482.679 3849.82,482.206 3867.03,482.721 3884.25,482.797 3901.46,482.062 3918.68,481.298 3935.89,480.294 3953.11,481.385 3970.33,482.32 3987.54,479.679 4004.76,478.131 4021.97,476.606 4039.19,477.842 4056.4,478.739 4073.62,479.565 4090.83,482.096 4108.05,483.327 4125.26,482.615 4142.48,480.724 4159.69,479.044 4176.91,478.265 4194.12,479.401 4211.34,480.292 4228.55,482.303 4245.77,482.823 4262.98,482.348 4280.2,482.875 4297.41,482.953 4314.63,482.216 4331.84,481.451 4349.06,480.442 4366.27,481.506 4383.49,482.45 4400.71,479.837 4417.92,478.375 4435.14,476.803 4452.35,477.976 4469.57,478.856 4486.78,479.712 4504,482.242 4521.21,483.448 4538.43,482.724 4555.64,480.856 4572.86,479.154 4590.07,478.376 4607.29,479.538 4624.5,480.444 4641.72,482.465 "/>
<path clip-path="url(#clip842)" d="M940.45 511.622 L957.665 571.521 L974.88 569.435 L992.095 557.316 L1009.31 560.691 L1026.53 557.84 L1043.74 547.068 L1060.96 545.267 L1078.17 541.061 L1095.39 539.52 L1112.6 539.703 L1129.82 529.127 L1147.03 532.665 L1164.25 524.661 L1181.46 536.355 L1198.68 558.485 L1215.89 553.701 L1233.11 561.019 L1250.32 551.254 L1267.54 538.572 L1284.75 530.558 L1301.97 535.228 L1319.18 538.006 L1336.4 546.225 L1353.61 551.143 L1370.83 549.089 L1388.04 547.727 L1405.26 542.473 L1422.48 546.321 L1439.69 550.71 L1456.91 545.722 L1474.12 554.84 L1491.34 548.75 L1508.55 548.85 L1525.77 544.815 L1542.98 536.412 L1560.2 538.147 L1577.41 539.04 L1594.63 544.061 L1611.84 556.528 L1629.06 547.515 L1646.27 557.767 L1663.49 550.812 L1680.7 541.115 L1697.92 531.455 L1715.13 540.029 L1732.35 537.423 L1749.56 549.809 L1766.78 550.873 L1783.99 550.2 L1801.21 549.761 L1818.42 543.485 L1835.64 549.315 L1852.86 550.747 L1870.07 545.862 L1887.29 554.657 L1904.5 548.56 L1921.72 552.161 L1938.93 550.36 L1956.15 539.385 L1973.36 537.726 L1990.58 538.657 L2007.79 544.74 L2025.01 560.562 L2042.22 550.505 L2059.44 556.285 L2076.65 550.982 L2093.87 541.572 L2111.08 531.995 L2128.3 539.029 L2145.51 538.452 L2162.73 550.149 L2179.94 550.841 L2197.16 550.457 L2214.37 549.882 L2231.59 544.089 L2248.8 549.452 L2266.02 551.281 L2283.24 546.99 L2300.45 555.343 L2317.67 548.937 L2334.88 552.742 L2352.1 550.035 L2369.31 539.956 L2386.53 537.639 L2403.74 540.183 L2420.96 545.084 L2438.17 561.251 L2455.39 551.593 L2472.6 557.379 L2489.82 551.236 L2507.03 541.862 L2524.25 532.1 L2541.46 539.441 L2558.68 538.638 L2575.89 550.048 L2593.11 551.415 L2610.32 551.145 L2627.54 549.734 L2644.75 544.574 L2661.97 549.579 L2679.19 551.702 L2696.4 546.645 L2713.62 555.393 L2730.83 549.395 L2748.05 553.13 L2765.26 551.276 L2782.48 540.194 L2799.69 538.478 L2816.91 539.275 L2834.12 545.71 L2851.34 561.399 L2868.55 551.702 L2885.77 557.397 L2902.98 551.97 L2920.2 542.232 L2937.41 533.051 L2954.63 539.721 L2971.84 539.209 L2989.06 550.146 L3006.27 551.685 L3023.49 551.157 L3040.7 550.227 L3057.92 545.112 L3075.13 550.251 L3092.35 552.196 L3109.57 547.14 L3126.78 555.897 L3144 549.841 L3161.21 553.468 L3178.43 551.021 L3195.64 540.798 L3212.86 538.913 L3230.07 541.701 L3247.29 545.914 L3264.5 562.015 L3281.72 552.057 L3298.93 558.344 L3316.15 552.167 L3333.36 542.588 L3350.58 533.391 L3367.79 540.039 L3385.01 539.488 L3402.22 550.61 L3419.44 550.796 L3436.65 551.811 L3453.87 550.53 L3471.08 545.508 L3488.3 550.264 L3505.51 552.538 L3522.73 547.667 L3539.95 556.346 L3557.16 550.347 L3574.38 553.857 L3591.59 552.265 L3608.81 541.394 L3626.02 539.29 L3643.24 541.121 L3660.45 546.319 L3677.67 562.584 L3694.88 552.605 L3712.1 558.517 L3729.31 552.581 L3746.53 542.955 L3763.74 533.915 L3780.96 540.384 L3798.17 539.961 L3815.39 551.41 L3832.6 551.367 L3849.82 551.861 L3867.03 551.046 L3884.25 545.852 L3901.46 550.91 L3918.68 553.161 L3935.89 548.1 L3953.11 556.683 L3970.33 550.695 L3987.54 554.096 L4004.76 551.699 L4021.97 541.648 L4039.19 539.745 L4056.4 542.073 L4073.62 546.686 L4090.83 562.381 L4108.05 553.178 L4125.26 559.044 L4142.48 552.247 L4159.69 543.318 L4176.91 533.773 L4194.12 540.65 L4211.34 540.248 L4228.55 551.508 L4245.77 552.563 L4262.98 552.167 L4280.2 551.463 L4297.41 546.589 L4314.63 551.068 L4331.84 553.607 L4349.06 548.165 L4366.27 556.869 L4383.49 551.134 L4400.71 554.584 L4417.92 552.906 L4435.14 541.98 L4452.35 540.137 L4469.57 542.103 L4486.78 547.098 L4504 563.264 L4521.21 552.996 L4538.43 559.48 L4555.64 552.812 L4572.86 543.637 L4590.07 534.481 L4607.29 540.971 L4624.5 540.566 L4641.72 552.236 L4641.72 428.538 L4624.5 416.656 L4607.29 419.931 L4590.07 411.454 L4572.86 417.976 L4555.64 419.326 L4538.43 410.736 L4521.21 422.43 L4504 419.971 L4486.78 427.281 L4469.57 413.193 L4452.35 415.018 L4435.14 410.606 L4417.92 417.626 L4400.71 426.112 L4383.49 424.257 L4366.27 431.125 L4349.06 421.177 L4331.84 427.632 L4314.63 422.472 L4297.41 431.313 L4280.2 426.082 L4262.98 420.086 L4245.77 419.607 L4228.55 428.217 L4211.34 416.308 L4194.12 420.159 L4176.91 410.862 L4159.69 417.529 L4142.48 418.991 L4125.26 410.596 L4108.05 421.849 L4090.83 419.637 L4073.62 426.799 L4056.4 413.835 L4039.19 414.306 L4021.97 410.133 L4004.76 415.118 L3987.54 425.517 L3970.33 424.021 L3953.11 430.72 L3935.89 419.466 L3918.68 426.033 L3901.46 422.218 L3884.25 431.072 L3867.03 425.652 L3849.82 419.977 L3832.6 419.206 L3815.39 427.777 L3798.17 416.256 L3780.96 419.539 L3763.74 410.263 L3746.53 417.097 L3729.31 418.519 L3712.1 409.882 L3694.88 421.612 L3677.67 419.273 L3660.45 426.443 L3643.24 412.877 L3626.02 414.331 L3608.81 409.882 L3591.59 416.672 L3574.38 425.116 L3557.16 423.77 L3539.95 429.776 L3522.73 420.321 L3505.51 425.954 L3488.3 421.607 L3471.08 430.847 L3453.87 425.208 L3436.65 419.517 L3419.44 418.874 L3402.22 427.485 L3385.01 415.39 L3367.79 418.93 L3350.58 409.746 L3333.36 416.666 L3316.15 418.183 L3298.93 409.826 L3281.72 421.122 L3264.5 418.871 L3247.29 426.086 L3230.07 412.956 L3212.86 413.865 L3195.64 409.614 L3178.43 415.997 L3161.21 424.726 L3144 423.547 L3126.78 429.733 L3109.57 419.854 L3092.35 424.096 L3075.13 421.191 L3057.92 430.285 L3040.7 424.75 L3023.49 419.318 L3006.27 418.52 L2989.06 426.909 L2971.84 415.233 L2954.63 418.252 L2937.41 409.276 L2920.2 415.947 L2902.98 417.775 L2885.77 409.404 L2868.55 420.842 L2851.34 418.528 L2834.12 425.734 L2816.91 411.827 L2799.69 413.77 L2782.48 409.483 L2765.26 415.815 L2748.05 424.519 L2730.83 423.331 L2713.62 429.057 L2696.4 418.173 L2679.19 424.474 L2661.97 420.774 L2644.75 430.125 L2627.54 424.303 L2610.32 418.781 L2593.11 418.13 L2575.89 426.848 L2558.68 414.85 L2541.46 417.557 L2524.25 408.786 L2507.03 415.509 L2489.82 417.324 L2472.6 409.224 L2455.39 420.441 L2438.17 417.99 L2420.96 425.402 L2403.74 412.464 L2386.53 413.124 L2369.31 409.18 L2352.1 414.272 L2334.88 423.991 L2317.67 423.204 L2300.45 428.739 L2283.24 419.155 L2266.02 423.852 L2248.8 421.12 L2231.59 428.644 L2214.37 423.99 L2197.16 418.08 L2179.94 417.588 L2162.73 425.788 L2145.51 413.507 L2128.3 418.351 L2111.08 409.742 L2093.87 415.131 L2076.65 416.994 L2059.44 408.835 L2042.22 419.906 L2025.01 417.621 L2007.79 425.209 L1990.58 413.365 L1973.36 411.658 L1956.15 408.991 L1938.93 416.108 L1921.72 427.751 L1904.5 421.656 L1887.29 427.762 L1870.07 417.343 L1852.86 423.086 L1835.64 420.329 L1818.42 429.333 L1801.21 423.478 L1783.99 421.658 L1766.78 417.892 L1749.56 426.619 L1732.35 414.493 L1715.13 416.971 L1697.92 407.721 L1680.7 414.717 L1663.49 413.841 L1646.27 408.378 L1629.06 419.629 L1611.84 417.614 L1594.63 424.985 L1577.41 410.607 L1560.2 413.167 L1542.98 409.047 L1525.77 411.991 L1508.55 423.153 L1491.34 423.789 L1474.12 427.869 L1456.91 418.95 L1439.69 422.231 L1422.48 420.594 L1405.26 425.123 L1388.04 419.491 L1370.83 414.99 L1353.61 417.218 L1336.4 422.819 L1319.18 413.654 L1301.97 420.375 L1284.75 409.099 L1267.54 418.636 L1250.32 417.768 L1233.11 406.053 L1215.89 419.129 L1198.68 414.931 L1181.46 423.213 L1164.25 411.132 L1147.03 408.951 L1129.82 405.223 L1112.6 412.04 L1095.39 429.414 L1078.17 431.026 L1060.96 435.535 L1043.74 439.424 L1026.53 450.418 L1009.31 459.63 L992.095 467.504 L974.88 475.617 L957.665 488.957 L940.45 444.643  Z" fill="#434343" fill-rule="evenodd" fill-opacity="0.5"/>
<polyline clip-path="url(#clip842)" style="stroke:#434343; stroke-linecap:round; stroke-linejoin:round; stroke-width:0; stroke-opacity:1; fill:none" points="940.45,476.568 957.665,501.876 974.88,496.98 992.095,492.594 1009.31,489.897 1026.53,486.614 1043.74,483.813 1060.96,480.728 1078.17,479.935 1095.39,479.188 1112.6,477.155 1129.82,474.73 1147.03,474.991 1164.25,475.68 1181.46,477.94 1198.68,481.026 1215.89,482.837 1233.11,482.654 1250.32,480.45 1267.54,478.112 1284.75,477.294 1301.97,478.512 1319.18,479.5 1336.4,481.61 1353.61,481.994 1370.83,481.987 1388.04,482.101 1405.26,481.787 1422.48,481.177 1439.69,480.634 1456.91,479.651 1474.12,481.189 1491.34,481.792 1508.55,478.533 1525.77,476.432 1542.98,475.855 1560.2,477.344 1577.41,477.99 1594.63,478.66 1611.84,481.269 1629.06,482.554 1646.27,481.713 1663.49,479.704 1680.7,478.197 1697.92,477.52 1715.13,478.582 1732.35,479.441 1749.56,481.497 1766.78,482.054 1783.99,481.546 1801.21,482.108 1818.42,482.094 1835.64,481.358 1852.86,480.547 1870.07,479.51 1887.29,480.509 1904.5,481.547 1921.72,479.11 1938.93,477.773 1956.15,476.004 1973.36,477 1990.58,477.875 2007.79,478.874 2025.01,481.353 2042.22,482.562 2059.44,481.93 2076.65,480.065 2093.87,478.334 2111.08,477.54 2128.3,478.722 2145.51,479.602 2162.73,481.578 2179.94,482.103 2197.16,481.611 2214.37,482.156 2231.59,482.254 2248.8,481.489 2266.02,480.796 2283.24,479.799 2300.45,480.889 2317.67,481.778 2334.88,479.019 2352.1,477.374 2369.31,476.048 2386.53,477.336 2403.74,478.194 2420.96,478.943 2438.17,481.524 2455.39,482.824 2472.6,482.038 2489.82,480.145 2507.03,478.476 2524.25,477.7 2541.46,478.804 2558.68,479.709 2575.89,481.745 2593.11,482.301 2610.32,481.783 2627.54,482.275 2644.75,482.364 2661.97,481.605 2679.19,480.844 2696.4,479.818 2713.62,480.922 2730.83,481.899 2748.05,479.317 2765.26,477.856 2782.48,476.255 2799.69,477.38 2816.91,478.235 2834.12,479.159 2851.34,481.692 2868.55,482.878 2885.77,482.168 2902.98,480.306 2920.2,478.588 2937.41,477.832 2954.63,479.001 2971.84,479.913 2989.06,481.887 3006.27,482.398 3023.49,481.9 3040.7,482.418 3057.92,482.551 3075.13,481.773 3092.35,481.03 3109.57,480.014 3126.78,481.119 3144,482.06 3161.21,479.381 3178.43,477.807 3195.64,476.339 3212.86,477.552 3230.07,478.458 3247.29,479.276 3264.5,481.816 3281.72,483.048 3298.93,482.33 3316.15,480.455 3333.36,478.746 3350.58,477.955 3367.79,479.134 3385.01,480.002 3402.22,482.025 3419.44,482.537 3436.65,482.047 3453.87,482.578 3471.08,482.633 3488.3,481.887 3505.51,481.119 3522.73,480.11 3539.95,481.233 3557.16,482.188 3574.38,479.592 3591.59,478.081 3608.81,476.568 3626.02,477.708 3643.24,478.565 3660.45,479.417 3677.67,481.952 3694.88,483.139 3712.1,482.447 3729.31,480.574 3746.53,478.906 3763.74,478.135 3780.96,479.301 3798.17,480.194 3815.39,482.171 3832.6,482.679 3849.82,482.206 3867.03,482.721 3884.25,482.797 3901.46,482.062 3918.68,481.298 3935.89,480.294 3953.11,481.385 3970.33,482.32 3987.54,479.679 4004.76,478.131 4021.97,476.606 4039.19,477.842 4056.4,478.739 4073.62,479.565 4090.83,482.096 4108.05,483.327 4125.26,482.615 4142.48,480.724 4159.69,479.044 4176.91,478.265 4194.12,479.401 4211.34,480.292 4228.55,482.303 4245.77,482.823 4262.98,482.348 4280.2,482.875 4297.41,482.953 4314.63,482.216 4331.84,481.451 4349.06,480.442 4366.27,481.506 4383.49,482.45 4400.71,479.837 4417.92,478.375 4435.14,476.803 4452.35,477.976 4469.57,478.856 4486.78,479.712 4504,482.242 4521.21,483.448 4538.43,482.724 4555.64,480.856 4572.86,479.154 4590.07,478.376 4607.29,479.538 4624.5,480.444 4641.72,482.465 "/>
<path clip-path="url(#clip840)" d="M3910.37 593.434 L4621.98 593.434 L4621.98 75.0343 L3910.37 75.0343  Z" fill="#ffffff" fill-rule="evenodd" fill-opacity="1"/>
<polyline clip-path="url(#clip840)" style="stroke:#000000; stroke-linecap:round; stroke-linejoin:round; stroke-width:4; stroke-opacity:1; fill:none" points="3910.37,593.434 4621.98,593.434 4621.98,75.0343 3910.37,75.0343 3910.37,593.434 "/>
<polyline clip-path="url(#clip840)" style="stroke:#b0b0b0; stroke-linecap:round; stroke-linejoin:round; stroke-width:2; stroke-opacity:1; fill:none" points="3953.97,204.634 4215.52,204.634 "/>
<path clip-path="url(#clip840)" d="M4260.79 237.996 L4279.89 237.996 L4279.89 172.082 L4259.12 176.249 L4259.12 165.601 L4279.78 161.434 L4291.47 161.434 L4291.47 237.996 L4310.56 237.996 L4310.56 247.834 L4260.79 247.834 L4260.79 237.996 Z" fill="#000000" fill-rule="nonzero" fill-opacity="1" /><path clip-path="url(#clip840)" d="M4359.17 169.131 Q4350.15 169.131 4345.57 178.043 Q4341.06 186.897 4341.06 204.721 Q4341.06 222.487 4345.57 231.399 Q4350.15 240.253 4359.17 240.253 Q4368.26 240.253 4372.77 231.399 Q4377.34 222.487 4377.34 204.721 Q4377.34 186.897 4372.77 178.043 Q4368.26 169.131 4359.17 169.131 M4359.17 159.872 Q4373.7 159.872 4381.34 171.388 Q4389.03 182.846 4389.03 204.721 Q4389.03 226.538 4381.34 238.054 Q4373.7 249.513 4359.17 249.513 Q4344.65 249.513 4336.95 238.054 Q4329.31 226.538 4329.31 204.721 Q4329.31 182.846 4336.95 171.388 Q4344.65 159.872 4359.17 159.872 Z" fill="#000000" fill-rule="nonzero" fill-opacity="1" /><path clip-path="url(#clip840)" d="M4434.58 169.131 Q4425.55 169.131 4420.98 178.043 Q4416.46 186.897 4416.46 204.721 Q4416.46 222.487 4420.98 231.399 Q4425.55 240.253 4434.58 240.253 Q4443.66 240.253 4448.18 231.399 Q4452.75 222.487 4452.75 204.721 Q4452.75 186.897 4448.18 178.043 Q4443.66 169.131 4434.58 169.131 M4434.58 159.872 Q4449.1 159.872 4456.74 171.388 Q4464.44 182.846 4464.44 204.721 Q4464.44 226.538 4456.74 238.054 Q4449.1 249.513 4434.58 249.513 Q4420.05 249.513 4412.36 238.054 Q4404.72 226.538 4404.72 204.721 Q4404.72 182.846 4412.36 171.388 Q4420.05 159.872 4434.58 159.872 Z" fill="#000000" fill-rule="nonzero" fill-opacity="1" /><path clip-path="url(#clip840)" d="M4558.48 209.814 Q4553.44 209.814 4550.55 214.096 Q4547.71 218.378 4547.71 226.017 Q4547.71 233.54 4550.55 237.881 Q4553.44 242.163 4558.48 242.163 Q4563.4 242.163 4566.23 237.881 Q4569.13 233.54 4569.13 226.017 Q4569.13 218.436 4566.23 214.154 Q4563.4 209.814 4558.48 209.814 M4558.48 202.464 Q4567.62 202.464 4573 208.83 Q4578.39 215.196 4578.39 226.017 Q4578.39 236.839 4572.95 243.205 Q4567.56 249.513 4558.48 249.513 Q4549.22 249.513 4543.84 243.205 Q4538.45 236.839 4538.45 226.017 Q4538.45 215.138 4543.84 208.83 Q4549.28 202.464 4558.48 202.464 M4498.76 167.221 Q4493.78 167.221 4490.89 171.562 Q4488.05 175.844 4488.05 183.367 Q4488.05 191.006 4490.89 195.288 Q4493.72 199.571 4498.76 199.571 Q4503.79 199.571 4506.63 195.288 Q4509.52 191.006 4509.52 183.367 Q4509.52 175.902 4506.63 171.562 Q4503.73 167.221 4498.76 167.221 M4551.01 159.872 L4560.27 159.872 L4506.22 249.513 L4496.96 249.513 L4551.01 159.872 M4498.76 159.872 Q4507.9 159.872 4513.34 166.238 Q4518.78 172.545 4518.78 183.367 Q4518.78 194.305 4513.34 200.612 Q4507.96 206.92 4498.76 206.92 Q4489.55 206.92 4484.17 200.612 Q4478.85 194.247 4478.85 183.367 Q4478.85 172.603 4484.23 166.238 Q4489.61 159.872 4498.76 159.872 Z" fill="#000000" fill-rule="nonzero" fill-opacity="1" /><polyline clip-path="url(#clip840)" style="stroke:#777777; stroke-linecap:round; stroke-linejoin:round; stroke-width:2; stroke-opacity:1; fill:none" points="3953.97,334.234 4215.52,334.234 "/>
<path clip-path="url(#clip840)" d="M4264.67 375.64 L4264.67 364.992 Q4269.07 367.076 4273.58 368.175 Q4278.1 369.275 4282.44 369.275 Q4294.01 369.275 4300.09 361.52 Q4306.22 353.708 4307.09 337.851 Q4303.73 342.828 4298.58 345.49 Q4293.43 348.152 4287.18 348.152 Q4274.22 348.152 4266.64 340.34 Q4259.12 332.469 4259.12 318.87 Q4259.12 305.56 4266.99 297.516 Q4274.86 289.472 4287.94 289.472 Q4302.92 289.472 4310.79 300.988 Q4318.72 312.446 4318.72 334.321 Q4318.72 354.749 4309 366.96 Q4299.34 379.113 4282.96 379.113 Q4278.56 379.113 4274.05 378.245 Q4269.53 377.376 4264.67 375.64 M4287.94 339.009 Q4295.81 339.009 4300.38 333.627 Q4305.01 328.245 4305.01 318.87 Q4305.01 309.553 4300.38 304.171 Q4295.81 298.731 4287.94 298.731 Q4280.06 298.731 4275.44 304.171 Q4270.86 309.553 4270.86 318.87 Q4270.86 328.245 4275.44 333.627 Q4280.06 339.009 4287.94 339.009 Z" fill="#000000" fill-rule="nonzero" fill-opacity="1" /><path clip-path="url(#clip840)" d="M4364.73 298.731 Q4355.7 298.731 4351.13 307.643 Q4346.62 316.497 4346.62 334.321 Q4346.62 352.087 4351.13 360.999 Q4355.7 369.853 4364.73 369.853 Q4373.81 369.853 4378.33 360.999 Q4382.9 352.087 4382.9 334.321 Q4382.9 316.497 4378.33 307.643 Q4373.81 298.731 4364.73 298.731 M4364.73 289.472 Q4379.25 289.472 4386.89 300.988 Q4394.59 312.446 4394.59 334.321 Q4394.59 356.138 4386.89 367.654 Q4379.25 379.113 4364.73 379.113 Q4350.2 379.113 4342.51 367.654 Q4334.87 356.138 4334.87 334.321 Q4334.87 312.446 4342.51 300.988 Q4350.2 289.472 4364.73 289.472 Z" fill="#000000" fill-rule="nonzero" fill-opacity="1" /><path clip-path="url(#clip840)" d="M4488.63 339.414 Q4483.59 339.414 4480.7 343.696 Q4477.86 347.978 4477.86 355.617 Q4477.86 363.14 4480.7 367.481 Q4483.59 371.763 4488.63 371.763 Q4493.55 371.763 4496.38 367.481 Q4499.28 363.14 4499.28 355.617 Q4499.28 348.036 4496.38 343.754 Q4493.55 339.414 4488.63 339.414 M4488.63 332.064 Q4497.77 332.064 4503.15 338.43 Q4508.54 344.796 4508.54 355.617 Q4508.54 366.439 4503.1 372.805 Q4497.71 379.113 4488.63 379.113 Q4479.37 379.113 4473.99 372.805 Q4468.61 366.439 4468.61 355.617 Q4468.61 344.738 4473.99 338.43 Q4479.43 332.064 4488.63 332.064 M4428.91 296.821 Q4423.93 296.821 4421.04 301.162 Q4418.2 305.444 4418.2 312.967 Q4418.2 320.606 4421.04 324.888 Q4423.87 329.171 4428.91 329.171 Q4433.94 329.171 4436.78 324.888 Q4439.67 320.606 4439.67 312.967 Q4439.67 305.502 4436.78 301.162 Q4433.88 296.821 4428.91 296.821 M4481.16 289.472 L4490.42 289.472 L4436.37 379.113 L4427.11 379.113 L4481.16 289.472 M4428.91 289.472 Q4438.05 289.472 4443.49 295.838 Q4448.93 302.145 4448.93 312.967 Q4448.93 323.905 4443.49 330.212 Q4438.11 336.52 4428.91 336.52 Q4419.71 336.52 4414.32 330.212 Q4409 323.847 4409 312.967 Q4409 302.203 4414.38 295.838 Q4419.76 289.472 4428.91 289.472 Z" fill="#000000" fill-rule="nonzero" fill-opacity="1" /><polyline clip-path="url(#clip840)" style="stroke:#434343; stroke-linecap:round; stroke-linejoin:round; stroke-width:2; stroke-opacity:1; fill:none" points="3953.97,463.834 4215.52,463.834 "/>
<path clip-path="url(#clip840)" d="M4288.75 466.004 Q4280.41 466.004 4275.61 470.46 Q4270.86 474.916 4270.86 482.729 Q4270.86 490.541 4275.61 494.997 Q4280.41 499.453 4288.75 499.453 Q4297.08 499.453 4301.88 494.997 Q4306.69 490.484 4306.69 482.729 Q4306.69 474.916 4301.88 470.46 Q4297.14 466.004 4288.75 466.004 M4277.06 461.028 Q4269.53 459.176 4265.31 454.025 Q4261.14 448.875 4261.14 441.468 Q4261.14 431.109 4268.49 425.09 Q4275.9 419.072 4288.75 419.072 Q4301.65 419.072 4309 425.09 Q4316.35 431.109 4316.35 441.468 Q4316.35 448.875 4312.12 454.025 Q4307.96 459.176 4300.49 461.028 Q4308.94 462.995 4313.63 468.724 Q4318.37 474.453 4318.37 482.729 Q4318.37 495.287 4310.68 502 Q4303.04 508.713 4288.75 508.713 Q4274.45 508.713 4266.75 502 Q4259.12 495.287 4259.12 482.729 Q4259.12 474.453 4263.86 468.724 Q4268.61 462.995 4277.06 461.028 M4272.77 442.567 Q4272.77 449.28 4276.94 453.042 Q4281.16 456.803 4288.75 456.803 Q4296.27 456.803 4300.49 453.042 Q4304.78 449.28 4304.78 442.567 Q4304.78 435.854 4300.49 432.093 Q4296.27 428.331 4288.75 428.331 Q4281.16 428.331 4276.94 432.093 Q4272.77 435.854 4272.77 442.567 Z" fill="#000000" fill-rule="nonzero" fill-opacity="1" /><path clip-path="url(#clip840)" d="M4364.15 428.331 Q4355.12 428.331 4350.55 437.243 Q4346.04 446.097 4346.04 463.921 Q4346.04 481.687 4350.55 490.599 Q4355.12 499.453 4364.15 499.453 Q4373.24 499.453 4377.75 490.599 Q4382.32 481.687 4382.32 463.921 Q4382.32 446.097 4377.75 437.243 Q4373.24 428.331 4364.15 428.331 M4364.15 419.072 Q4378.68 419.072 4386.31 430.588 Q4394.01 442.046 4394.01 463.921 Q4394.01 485.738 4386.31 497.254 Q4378.68 508.713 4364.15 508.713 Q4349.62 508.713 4341.93 497.254 Q4334.29 485.738 4334.29 463.921 Q4334.29 442.046 4341.93 430.588 Q4349.62 419.072 4364.15 419.072 Z" fill="#000000" fill-rule="nonzero" fill-opacity="1" /><path clip-path="url(#clip840)" d="M4488.05 469.014 Q4483.02 469.014 4480.12 473.296 Q4477.29 477.578 4477.29 485.217 Q4477.29 492.74 4480.12 497.081 Q4483.02 501.363 4488.05 501.363 Q4492.97 501.363 4495.8 497.081 Q4498.7 492.74 4498.7 485.217 Q4498.7 477.636 4495.8 473.354 Q4492.97 469.014 4488.05 469.014 M4488.05 461.664 Q4497.19 461.664 4502.58 468.03 Q4507.96 474.396 4507.96 485.217 Q4507.96 496.039 4502.52 502.405 Q4497.14 508.713 4488.05 508.713 Q4478.79 508.713 4473.41 502.405 Q4468.03 496.039 4468.03 485.217 Q4468.03 474.338 4473.41 468.03 Q4478.85 461.664 4488.05 461.664 M4428.33 426.421 Q4423.35 426.421 4420.46 430.762 Q4417.62 435.044 4417.62 442.567 Q4417.62 450.206 4420.46 454.488 Q4423.29 458.771 4428.33 458.771 Q4433.36 458.771 4436.2 454.488 Q4439.09 450.206 4439.09 442.567 Q4439.09 435.102 4436.2 430.762 Q4433.3 426.421 4428.33 426.421 M4480.58 419.072 L4489.84 419.072 L4435.79 508.713 L4426.53 508.713 L4480.58 419.072 M4428.33 419.072 Q4437.47 419.072 4442.91 425.438 Q4448.35 431.745 4448.35 442.567 Q4448.35 453.505 4442.91 459.812 Q4437.53 466.12 4428.33 466.12 Q4419.13 466.12 4413.74 459.812 Q4408.42 453.447 4408.42 442.567 Q4408.42 431.803 4413.8 425.438 Q4419.18 419.072 4428.33 419.072 Z" fill="#000000" fill-rule="nonzero" fill-opacity="1" /></svg>
