<?xml version="1.0" encoding="utf-8"?>
<svg xmlns="http://www.w3.org/2000/svg" xmlns:xlink="http://www.w3.org/1999/xlink" width="1200" height="300" viewBox="0 0 4800 1200">
<defs>
  <clipPath id="clip320">
    <rect x="0" y="0" width="4800" height="1200"/>
  </clipPath>
</defs>
<path clip-path="url(#clip320)" d="M0 1200 L4800 1200 L4800 0 L0 0  Z" fill="#ffffff" fill-rule="evenodd" fill-opacity="1"/>
<defs>
  <clipPath id="clip321">
    <rect x="960" y="0" width="3361" height="1200"/>
  </clipPath>
</defs>
<path clip-path="url(#clip320)" d="M598.681 880.951 L4752.76 880.951 L4752.76 47.2441 L598.681 47.2441  Z" fill="#ffffff" fill-rule="evenodd" fill-opacity="1"/>
<defs>
  <clipPath id="clip322">
    <rect x="598" y="47" width="4155" height="835"/>
  </clipPath>
</defs>
<polyline clip-path="url(#clip322)" style="stroke:#000000; stroke-linecap:round; stroke-linejoin:round; stroke-width:2; stroke-opacity:0.1; fill:none" points="1135.48,880.951 1135.48,47.2441 "/>
<polyline clip-path="url(#clip322)" style="stroke:#000000; stroke-linecap:round; stroke-linejoin:round; stroke-width:2; stroke-opacity:0.1; fill:none" points="2010.41,880.951 2010.41,47.2441 "/>
<polyline clip-path="url(#clip322)" style="stroke:#000000; stroke-linecap:round; stroke-linejoin:round; stroke-width:2; stroke-opacity:0.1; fill:none" points="2885.34,880.951 2885.34,47.2441 "/>
<polyline clip-path="url(#clip322)" style="stroke:#000000; stroke-linecap:round; stroke-linejoin:round; stroke-width:2; stroke-opacity:0.1; fill:none" points="3760.26,880.951 3760.26,47.2441 "/>
<polyline clip-path="url(#clip322)" style="stroke:#000000; stroke-linecap:round; stroke-linejoin:round; stroke-width:2; stroke-opacity:0.1; fill:none" points="4635.19,880.951 4635.19,47.2441 "/>
<polyline clip-path="url(#clip320)" style="stroke:#000000; stroke-linecap:round; stroke-linejoin:round; stroke-width:4; stroke-opacity:1; fill:none" points="598.681,880.951 4752.76,880.951 "/>
<polyline clip-path="url(#clip320)" style="stroke:#000000; stroke-linecap:round; stroke-linejoin:round; stroke-width:4; stroke-opacity:1; fill:none" points="1135.48,880.951 1135.48,862.054 "/>
<polyline clip-path="url(#clip320)" style="stroke:#000000; stroke-linecap:round; stroke-linejoin:round; stroke-width:4; stroke-opacity:1; fill:none" points="2010.41,880.951 2010.41,862.054 "/>
<polyline clip-path="url(#clip320)" style="stroke:#000000; stroke-linecap:round; stroke-linejoin:round; stroke-width:4; stroke-opacity:1; fill:none" points="2885.34,880.951 2885.34,862.054 "/>
<polyline clip-path="url(#clip320)" style="stroke:#000000; stroke-linecap:round; stroke-linejoin:round; stroke-width:4; stroke-opacity:1; fill:none" points="3760.26,880.951 3760.26,862.054 "/>
<polyline clip-path="url(#clip320)" style="stroke:#000000; stroke-linecap:round; stroke-linejoin:round; stroke-width:4; stroke-opacity:1; fill:none" points="4635.19,880.951 4635.19,862.054 "/>
<path clip-path="url(#clip320)" d="M1124.79 997.881 L1157.43 997.881 L1157.43 1005.75 L1113.54 1005.75 L1113.54 997.881 Q1118.86 992.372 1128.03 983.113 Q1137.24 973.807 1139.6 971.122 Q1144.1 966.076 1145.85 962.604 Q1147.66 959.085 1147.66 955.705 Q1147.66 950.196 1143.77 946.724 Q1139.93 943.252 1133.73 943.252 Q1129.33 943.252 1124.42 944.78 Q1119.56 946.307 1114 949.409 L1114 939.965 Q1119.65 937.696 1124.56 936.539 Q1129.47 935.382 1133.54 935.382 Q1144.28 935.382 1150.67 940.752 Q1157.06 946.122 1157.06 955.104 Q1157.06 959.363 1155.44 963.205 Q1153.86 967.002 1149.65 972.187 Q1148.49 973.529 1142.29 979.965 Q1136.09 986.353 1124.79 997.881 Z" fill="#000000" fill-rule="nonzero" fill-opacity="1" /><path clip-path="url(#clip320)" d="M2016.43 944.78 L1992.82 981.678 L2016.43 981.678 L2016.43 944.78 M2013.97 936.631 L2025.73 936.631 L2025.73 981.678 L2035.6 981.678 L2035.6 989.455 L2025.73 989.455 L2025.73 1005.75 L2016.43 1005.75 L2016.43 989.455 L1985.23 989.455 L1985.23 980.428 L2013.97 936.631 Z" fill="#000000" fill-rule="nonzero" fill-opacity="1" /><path clip-path="url(#clip320)" d="M2886.15 967.465 Q2879.85 967.465 2876.15 971.77 Q2872.49 976.076 2872.49 983.576 Q2872.49 991.029 2876.15 995.381 Q2879.85 999.687 2886.15 999.687 Q2892.44 999.687 2896.1 995.381 Q2899.8 991.029 2899.8 983.576 Q2899.8 976.076 2896.1 971.77 Q2892.44 967.465 2886.15 967.465 M2904.71 938.159 L2904.71 946.678 Q2901.19 945.011 2897.58 944.131 Q2894.02 943.252 2890.5 943.252 Q2881.24 943.252 2876.33 949.502 Q2871.47 955.752 2870.78 968.391 Q2873.51 964.363 2877.63 962.233 Q2881.75 960.057 2886.7 960.057 Q2897.12 960.057 2903.14 966.4 Q2909.2 972.696 2909.2 983.576 Q2909.2 994.224 2902.91 1000.66 Q2896.61 1007.09 2886.15 1007.09 Q2874.16 1007.09 2867.81 997.927 Q2861.47 988.715 2861.47 971.261 Q2861.47 954.872 2869.25 945.15 Q2877.03 935.382 2890.13 935.382 Q2893.65 935.382 2897.21 936.076 Q2900.82 936.77 2904.71 938.159 Z" fill="#000000" fill-rule="nonzero" fill-opacity="1" /><path clip-path="url(#clip320)" d="M3760.26 972.928 Q3753.6 972.928 3749.75 976.492 Q3745.96 980.057 3745.96 986.307 Q3745.96 992.557 3749.75 996.122 Q3753.6 999.687 3760.26 999.687 Q3766.93 999.687 3770.77 996.122 Q3774.61 992.511 3774.61 986.307 Q3774.61 980.057 3770.77 976.492 Q3766.97 972.928 3760.26 972.928 M3750.91 968.946 Q3744.89 967.465 3741.51 963.344 Q3738.18 959.224 3738.18 953.298 Q3738.18 945.011 3744.06 940.196 Q3749.98 935.382 3760.26 935.382 Q3770.59 935.382 3776.47 940.196 Q3782.35 945.011 3782.35 953.298 Q3782.35 959.224 3778.97 963.344 Q3775.63 967.465 3769.66 968.946 Q3776.42 970.52 3780.17 975.104 Q3783.97 979.687 3783.97 986.307 Q3783.97 996.353 3777.81 1001.72 Q3771.7 1007.09 3760.26 1007.09 Q3748.83 1007.09 3742.67 1001.72 Q3736.56 996.353 3736.56 986.307 Q3736.56 979.687 3740.35 975.104 Q3744.15 970.52 3750.91 968.946 M3747.48 954.178 Q3747.48 959.548 3750.82 962.557 Q3754.2 965.567 3760.26 965.567 Q3766.28 965.567 3769.66 962.557 Q3773.09 959.548 3773.09 954.178 Q3773.09 948.807 3769.66 945.798 Q3766.28 942.789 3760.26 942.789 Q3754.2 942.789 3750.82 945.798 Q3747.48 948.807 3747.48 954.178 Z" fill="#000000" fill-rule="nonzero" fill-opacity="1" /><path clip-path="url(#clip320)" d="M4584.56 997.881 L4599.84 997.881 L4599.84 945.15 L4583.22 948.483 L4583.22 939.965 L4599.75 936.631 L4609.1 936.631 L4609.1 997.881 L4624.38 997.881 L4624.38 1005.75 L4584.56 1005.75 L4584.56 997.881 Z" fill="#000000" fill-rule="nonzero" fill-opacity="1" /><path clip-path="url(#clip320)" d="M4663.27 942.789 Q4656.04 942.789 4652.39 949.918 Q4648.78 957.002 4648.78 971.261 Q4648.78 985.474 4652.39 992.603 Q4656.04 999.687 4663.27 999.687 Q4670.53 999.687 4674.15 992.603 Q4677.8 985.474 4677.8 971.261 Q4677.8 957.002 4674.15 949.918 Q4670.53 942.789 4663.27 942.789 M4663.27 935.382 Q4674.89 935.382 4681 944.594 Q4687.16 953.761 4687.16 971.261 Q4687.16 988.715 4681 997.927 Q4674.89 1007.09 4663.27 1007.09 Q4651.65 1007.09 4645.49 997.927 Q4639.38 988.715 4639.38 971.261 Q4639.38 953.761 4645.49 944.594 Q4651.65 935.382 4663.27 935.382 Z" fill="#000000" fill-rule="nonzero" fill-opacity="1" /><path clip-path="url(#clip320)" d="M2392.96 1072.18 L2458.74 1072.18 L2458.74 1081.04 L2431.14 1081.04 L2431.14 1149.94 L2420.56 1149.94 L2420.56 1081.04 L2392.96 1081.04 L2392.96 1072.18 Z" fill="#000000" fill-rule="nonzero" fill-opacity="1" /><path clip-path="url(#clip320)" d="M2465.2 1091.61 L2474.78 1091.61 L2474.78 1149.94 L2465.2 1149.94 L2465.2 1091.61 M2465.2 1068.9 L2474.78 1068.9 L2474.78 1081.04 L2465.2 1081.04 L2465.2 1068.9 Z" fill="#000000" fill-rule="nonzero" fill-opacity="1" /><path clip-path="url(#clip320)" d="M2540.25 1102.81 Q2543.84 1096.35 2548.84 1093.28 Q2553.84 1090.2 2560.61 1090.2 Q2569.73 1090.2 2574.68 1096.61 Q2579.63 1102.96 2579.63 1114.74 L2579.63 1149.94 L2569.99 1149.94 L2569.99 1115.05 Q2569.99 1106.66 2567.02 1102.6 Q2564.05 1098.54 2557.96 1098.54 Q2550.51 1098.54 2546.19 1103.49 Q2541.86 1108.43 2541.86 1116.97 L2541.86 1149.94 L2532.23 1149.94 L2532.23 1115.05 Q2532.23 1106.61 2529.26 1102.6 Q2526.29 1098.54 2520.09 1098.54 Q2512.75 1098.54 2508.43 1103.54 Q2504.1 1108.49 2504.1 1116.97 L2504.1 1149.94 L2494.47 1149.94 L2494.47 1091.61 L2504.1 1091.61 L2504.1 1100.67 Q2507.39 1095.31 2511.97 1092.76 Q2516.55 1090.2 2522.85 1090.2 Q2529.21 1090.2 2533.64 1093.43 Q2538.11 1096.66 2540.25 1102.81 Z" fill="#000000" fill-rule="nonzero" fill-opacity="1" /><path clip-path="url(#clip320)" d="M2648.64 1118.38 L2648.64 1123.07 L2604.57 1123.07 Q2605.2 1132.96 2610.51 1138.17 Q2615.87 1143.33 2625.41 1143.33 Q2630.93 1143.33 2636.08 1141.97 Q2641.29 1140.62 2646.4 1137.91 L2646.4 1146.97 Q2641.24 1149.16 2635.82 1150.31 Q2630.41 1151.45 2624.83 1151.45 Q2610.87 1151.45 2602.7 1143.33 Q2594.57 1135.2 2594.57 1121.35 Q2594.57 1107.03 2602.28 1098.64 Q2610.04 1090.2 2623.17 1090.2 Q2634.94 1090.2 2641.76 1097.81 Q2648.64 1105.36 2648.64 1118.38 M2639.05 1115.57 Q2638.95 1107.7 2634.62 1103.02 Q2630.35 1098.33 2623.27 1098.33 Q2615.25 1098.33 2610.41 1102.86 Q2605.61 1107.39 2604.89 1115.62 L2639.05 1115.57 Z" fill="#000000" fill-rule="nonzero" fill-opacity="1" /><path clip-path="url(#clip320)" d="M2721.29 1069.01 Q2714.31 1080.99 2710.93 1092.7 Q2707.54 1104.42 2707.54 1116.45 Q2707.54 1128.49 2710.93 1140.31 Q2714.36 1152.08 2721.29 1164.01 L2712.96 1164.01 Q2705.15 1151.77 2701.24 1139.94 Q2697.38 1128.12 2697.38 1116.45 Q2697.38 1104.84 2701.24 1093.07 Q2705.09 1081.3 2712.96 1069.01 L2721.29 1069.01 Z" fill="#000000" fill-rule="nonzero" fill-opacity="1" /><path clip-path="url(#clip320)" d="M2778.27 1100.46 L2778.27 1068.9 L2787.85 1068.9 L2787.85 1149.94 L2778.27 1149.94 L2778.27 1141.19 Q2775.25 1146.4 2770.61 1148.95 Q2766.03 1151.45 2759.57 1151.45 Q2749 1151.45 2742.33 1143.02 Q2735.72 1134.58 2735.72 1120.83 Q2735.72 1107.08 2742.33 1098.64 Q2749 1090.2 2759.57 1090.2 Q2766.03 1090.2 2770.61 1092.76 Q2775.25 1095.26 2778.27 1100.46 M2745.61 1120.83 Q2745.61 1131.4 2749.94 1137.44 Q2754.31 1143.43 2761.92 1143.43 Q2769.52 1143.43 2773.89 1137.44 Q2778.27 1131.4 2778.27 1120.83 Q2778.27 1110.26 2773.89 1104.27 Q2769.52 1098.23 2761.92 1098.23 Q2754.31 1098.23 2749.94 1104.27 Q2745.61 1110.26 2745.61 1120.83 Z" fill="#000000" fill-rule="nonzero" fill-opacity="1" /><path clip-path="url(#clip320)" d="M2834.1 1120.62 Q2822.49 1120.62 2818.01 1123.28 Q2813.53 1125.93 2813.53 1132.34 Q2813.53 1137.44 2816.86 1140.46 Q2820.25 1143.43 2826.03 1143.43 Q2834 1143.43 2838.79 1137.81 Q2843.63 1132.13 2843.63 1122.76 L2843.63 1120.62 L2834.1 1120.62 M2853.22 1116.66 L2853.22 1149.94 L2843.63 1149.94 L2843.63 1141.09 Q2840.35 1146.4 2835.46 1148.95 Q2830.56 1151.45 2823.48 1151.45 Q2814.52 1151.45 2809.21 1146.45 Q2803.95 1141.4 2803.95 1132.96 Q2803.95 1123.12 2810.51 1118.12 Q2817.12 1113.12 2830.2 1113.12 L2843.63 1113.12 L2843.63 1112.18 Q2843.63 1105.57 2839.26 1101.98 Q2834.94 1098.33 2827.07 1098.33 Q2822.07 1098.33 2817.33 1099.53 Q2812.59 1100.73 2808.22 1103.12 L2808.22 1094.27 Q2813.48 1092.24 2818.43 1091.25 Q2823.37 1090.2 2828.06 1090.2 Q2840.72 1090.2 2846.97 1096.77 Q2853.22 1103.33 2853.22 1116.66 Z" fill="#000000" fill-rule="nonzero" fill-opacity="1" /><path clip-path="url(#clip320)" d="M2897.23 1155.36 Q2893.17 1165.78 2889.31 1168.95 Q2885.46 1172.13 2879 1172.13 L2871.34 1172.13 L2871.34 1164.11 L2876.97 1164.11 Q2880.93 1164.11 2883.11 1162.24 Q2885.3 1160.36 2887.96 1153.38 L2889.68 1149.01 L2866.08 1091.61 L2876.24 1091.61 L2894.47 1137.24 L2912.7 1091.61 L2922.85 1091.61 L2897.23 1155.36 Z" fill="#000000" fill-rule="nonzero" fill-opacity="1" /><path clip-path="url(#clip320)" d="M2934.57 1069.01 L2942.9 1069.01 Q2950.72 1081.3 2954.57 1093.07 Q2958.48 1104.84 2958.48 1116.45 Q2958.48 1128.12 2954.57 1139.94 Q2950.72 1151.77 2942.9 1164.01 L2934.57 1164.01 Q2941.5 1152.08 2944.88 1140.31 Q2948.32 1128.49 2948.32 1116.45 Q2948.32 1104.42 2944.88 1092.7 Q2941.5 1080.99 2934.57 1069.01 Z" fill="#000000" fill-rule="nonzero" fill-opacity="1" /><polyline clip-path="url(#clip322)" style="stroke:#000000; stroke-linecap:round; stroke-linejoin:round; stroke-width:2; stroke-opacity:0.1; fill:none" points="598.681,798.657 4752.76,798.657 "/>
<polyline clip-path="url(#clip322)" style="stroke:#000000; stroke-linecap:round; stroke-linejoin:round; stroke-width:2; stroke-opacity:0.1; fill:none" points="598.681,562.806 4752.76,562.806 "/>
<polyline clip-path="url(#clip322)" style="stroke:#000000; stroke-linecap:round; stroke-linejoin:round; stroke-width:2; stroke-opacity:0.1; fill:none" points="598.681,326.956 4752.76,326.956 "/>
<polyline clip-path="url(#clip322)" style="stroke:#000000; stroke-linecap:round; stroke-linejoin:round; stroke-width:2; stroke-opacity:0.1; fill:none" points="598.681,91.1054 4752.76,91.1054 "/>
<polyline clip-path="url(#clip320)" style="stroke:#000000; stroke-linecap:round; stroke-linejoin:round; stroke-width:4; stroke-opacity:1; fill:none" points="598.681,880.951 598.681,47.2441 "/>
<polyline clip-path="url(#clip320)" style="stroke:#000000; stroke-linecap:round; stroke-linejoin:round; stroke-width:4; stroke-opacity:1; fill:none" points="598.681,798.657 617.579,798.657 "/>
<polyline clip-path="url(#clip320)" style="stroke:#000000; stroke-linecap:round; stroke-linejoin:round; stroke-width:4; stroke-opacity:1; fill:none" points="598.681,562.806 617.579,562.806 "/>
<polyline clip-path="url(#clip320)" style="stroke:#000000; stroke-linecap:round; stroke-linejoin:round; stroke-width:4; stroke-opacity:1; fill:none" points="598.681,326.956 617.579,326.956 "/>
<polyline clip-path="url(#clip320)" style="stroke:#000000; stroke-linecap:round; stroke-linejoin:round; stroke-width:4; stroke-opacity:1; fill:none" points="598.681,91.1054 617.579,91.1054 "/>
<path clip-path="url(#clip320)" d="M194.136 799.56 L253.488 799.56 L253.488 807.43 L194.136 807.43 L194.136 799.56 Z" fill="#000000" fill-rule="nonzero" fill-opacity="1" /><path clip-path="url(#clip320)" d="M293.673 770.254 Q286.451 770.254 282.793 777.384 Q279.182 784.467 279.182 798.726 Q279.182 812.939 282.793 820.069 Q286.451 827.152 293.673 827.152 Q300.941 827.152 304.552 820.069 Q308.21 812.939 308.21 798.726 Q308.21 784.467 304.552 777.384 Q300.941 770.254 293.673 770.254 M293.673 762.847 Q305.293 762.847 311.404 772.06 Q317.562 781.226 317.562 798.726 Q317.562 816.18 311.404 825.393 Q305.293 834.559 293.673 834.559 Q282.053 834.559 275.895 825.393 Q269.784 816.18 269.784 798.726 Q269.784 781.226 275.895 772.06 Q282.053 762.847 293.673 762.847 Z" fill="#000000" fill-rule="nonzero" fill-opacity="1" /><path clip-path="url(#clip320)" d="M333.997 821.458 L343.765 821.458 L343.765 833.217 L333.997 833.217 L333.997 821.458 Z" fill="#000000" fill-rule="nonzero" fill-opacity="1" /><path clip-path="url(#clip320)" d="M384.135 770.254 Q376.913 770.254 373.256 777.384 Q369.645 784.467 369.645 798.726 Q369.645 812.939 373.256 820.069 Q376.913 827.152 384.135 827.152 Q391.404 827.152 395.015 820.069 Q398.672 812.939 398.672 798.726 Q398.672 784.467 395.015 777.384 Q391.404 770.254 384.135 770.254 M384.135 762.847 Q395.756 762.847 401.867 772.06 Q408.024 781.226 408.024 798.726 Q408.024 816.18 401.867 825.393 Q395.756 834.559 384.135 834.559 Q372.515 834.559 366.358 825.393 Q360.247 816.18 360.247 798.726 Q360.247 781.226 366.358 772.06 Q372.515 762.847 384.135 762.847 Z" fill="#000000" fill-rule="nonzero" fill-opacity="1" /><path clip-path="url(#clip320)" d="M444.459 770.254 Q437.237 770.254 433.58 777.384 Q429.968 784.467 429.968 798.726 Q429.968 812.939 433.58 820.069 Q437.237 827.152 444.459 827.152 Q451.728 827.152 455.339 820.069 Q458.996 812.939 458.996 798.726 Q458.996 784.467 455.339 777.384 Q451.728 770.254 444.459 770.254 M444.459 762.847 Q456.079 762.847 462.19 772.06 Q468.348 781.226 468.348 798.726 Q468.348 816.18 462.19 825.393 Q456.079 834.559 444.459 834.559 Q432.839 834.559 426.681 825.393 Q420.57 816.18 420.57 798.726 Q420.57 781.226 426.681 772.06 Q432.839 762.847 444.459 762.847 Z" fill="#000000" fill-rule="nonzero" fill-opacity="1" /><path clip-path="url(#clip320)" d="M484.876 764.097 L521.588 764.097 L521.588 771.967 L493.44 771.967 L493.44 788.911 Q495.477 788.217 497.514 787.893 Q499.551 787.523 501.588 787.523 Q513.162 787.523 519.922 793.865 Q526.681 800.208 526.681 811.041 Q526.681 822.198 519.736 828.402 Q512.792 834.559 500.153 834.559 Q495.801 834.559 491.264 833.819 Q486.774 833.078 481.959 831.596 L481.959 822.198 Q486.126 824.467 490.57 825.578 Q495.014 826.689 499.968 826.689 Q507.977 826.689 512.653 822.476 Q517.329 818.263 517.329 811.041 Q517.329 803.819 512.653 799.606 Q507.977 795.393 499.968 795.393 Q496.218 795.393 492.468 796.226 Q488.764 797.06 484.876 798.819 L484.876 764.097 Z" fill="#000000" fill-rule="nonzero" fill-opacity="1" /><path clip-path="url(#clip320)" d="M291.682 534.404 Q284.46 534.404 280.803 541.533 Q277.191 548.617 277.191 562.876 Q277.191 577.089 280.803 584.218 Q284.46 591.302 291.682 591.302 Q298.951 591.302 302.562 584.218 Q306.219 577.089 306.219 562.876 Q306.219 548.617 302.562 541.533 Q298.951 534.404 291.682 534.404 M291.682 526.996 Q303.302 526.996 309.414 536.209 Q315.571 545.376 315.571 562.876 Q315.571 580.329 309.414 589.542 Q303.302 598.709 291.682 598.709 Q280.062 598.709 273.904 589.542 Q267.793 580.329 267.793 562.876 Q267.793 545.376 273.904 536.209 Q280.062 526.996 291.682 526.996 Z" fill="#000000" fill-rule="nonzero" fill-opacity="1" /><path clip-path="url(#clip320)" d="M332.006 585.607 L341.774 585.607 L341.774 597.366 L332.006 597.366 L332.006 585.607 Z" fill="#000000" fill-rule="nonzero" fill-opacity="1" /><path clip-path="url(#clip320)" d="M382.145 534.404 Q374.922 534.404 371.265 541.533 Q367.654 548.617 367.654 562.876 Q367.654 577.089 371.265 584.218 Q374.922 591.302 382.145 591.302 Q389.413 591.302 393.024 584.218 Q396.682 577.089 396.682 562.876 Q396.682 548.617 393.024 541.533 Q389.413 534.404 382.145 534.404 M382.145 526.996 Q393.765 526.996 399.876 536.209 Q406.033 545.376 406.033 562.876 Q406.033 580.329 399.876 589.542 Q393.765 598.709 382.145 598.709 Q370.524 598.709 364.367 589.542 Q358.256 580.329 358.256 562.876 Q358.256 545.376 364.367 536.209 Q370.524 526.996 382.145 526.996 Z" fill="#000000" fill-rule="nonzero" fill-opacity="1" /><path clip-path="url(#clip320)" d="M442.468 534.404 Q435.246 534.404 431.589 541.533 Q427.978 548.617 427.978 562.876 Q427.978 577.089 431.589 584.218 Q435.246 591.302 442.468 591.302 Q449.737 591.302 453.348 584.218 Q457.005 577.089 457.005 562.876 Q457.005 548.617 453.348 541.533 Q449.737 534.404 442.468 534.404 M442.468 526.996 Q454.089 526.996 460.2 536.209 Q466.357 545.376 466.357 562.876 Q466.357 580.329 460.2 589.542 Q454.089 598.709 442.468 598.709 Q430.848 598.709 424.691 589.542 Q418.58 580.329 418.58 562.876 Q418.58 545.376 424.691 536.209 Q430.848 526.996 442.468 526.996 Z" fill="#000000" fill-rule="nonzero" fill-opacity="1" /><path clip-path="url(#clip320)" d="M502.792 534.404 Q495.57 534.404 491.913 541.533 Q488.301 548.617 488.301 562.876 Q488.301 577.089 491.913 584.218 Q495.57 591.302 502.792 591.302 Q510.061 591.302 513.672 584.218 Q517.329 577.089 517.329 562.876 Q517.329 548.617 513.672 541.533 Q510.061 534.404 502.792 534.404 M502.792 526.996 Q514.412 526.996 520.524 536.209 Q526.681 545.376 526.681 562.876 Q526.681 580.329 520.524 589.542 Q514.412 598.709 502.792 598.709 Q491.172 598.709 485.014 589.542 Q478.903 580.329 478.903 562.876 Q478.903 545.376 485.014 536.209 Q491.172 526.996 502.792 526.996 Z" fill="#000000" fill-rule="nonzero" fill-opacity="1" /><path clip-path="url(#clip320)" d="M293.673 298.553 Q286.451 298.553 282.793 305.683 Q279.182 312.766 279.182 327.025 Q279.182 341.238 282.793 348.368 Q286.451 355.451 293.673 355.451 Q300.941 355.451 304.552 348.368 Q308.21 341.238 308.21 327.025 Q308.21 312.766 304.552 305.683 Q300.941 298.553 293.673 298.553 M293.673 291.146 Q305.293 291.146 311.404 300.359 Q317.562 309.525 317.562 327.025 Q317.562 344.479 311.404 353.692 Q305.293 362.858 293.673 362.858 Q282.053 362.858 275.895 353.692 Q269.784 344.479 269.784 327.025 Q269.784 309.525 275.895 300.359 Q282.053 291.146 293.673 291.146 Z" fill="#000000" fill-rule="nonzero" fill-opacity="1" /><path clip-path="url(#clip320)" d="M333.997 349.757 L343.765 349.757 L343.765 361.516 L333.997 361.516 L333.997 349.757 Z" fill="#000000" fill-rule="nonzero" fill-opacity="1" /><path clip-path="url(#clip320)" d="M384.135 298.553 Q376.913 298.553 373.256 305.683 Q369.645 312.766 369.645 327.025 Q369.645 341.238 373.256 348.368 Q376.913 355.451 384.135 355.451 Q391.404 355.451 395.015 348.368 Q398.672 341.238 398.672 327.025 Q398.672 312.766 395.015 305.683 Q391.404 298.553 384.135 298.553 M384.135 291.146 Q395.756 291.146 401.867 300.359 Q408.024 309.525 408.024 327.025 Q408.024 344.479 401.867 353.692 Q395.756 362.858 384.135 362.858 Q372.515 362.858 366.358 353.692 Q360.247 344.479 360.247 327.025 Q360.247 309.525 366.358 300.359 Q372.515 291.146 384.135 291.146 Z" fill="#000000" fill-rule="nonzero" fill-opacity="1" /><path clip-path="url(#clip320)" d="M444.459 298.553 Q437.237 298.553 433.58 305.683 Q429.968 312.766 429.968 327.025 Q429.968 341.238 433.58 348.368 Q437.237 355.451 444.459 355.451 Q451.728 355.451 455.339 348.368 Q458.996 341.238 458.996 327.025 Q458.996 312.766 455.339 305.683 Q451.728 298.553 444.459 298.553 M444.459 291.146 Q456.079 291.146 462.19 300.359 Q468.348 309.525 468.348 327.025 Q468.348 344.479 462.19 353.692 Q456.079 362.858 444.459 362.858 Q432.839 362.858 426.681 353.692 Q420.57 344.479 420.57 327.025 Q420.57 309.525 426.681 300.359 Q432.839 291.146 444.459 291.146 Z" fill="#000000" fill-rule="nonzero" fill-opacity="1" /><path clip-path="url(#clip320)" d="M484.876 292.396 L521.588 292.396 L521.588 300.266 L493.44 300.266 L493.44 317.211 Q495.477 316.516 497.514 316.192 Q499.551 315.822 501.588 315.822 Q513.162 315.822 519.922 322.164 Q526.681 328.507 526.681 339.34 Q526.681 350.497 519.736 356.701 Q512.792 362.858 500.153 362.858 Q495.801 362.858 491.264 362.118 Q486.774 361.377 481.959 359.896 L481.959 350.497 Q486.126 352.766 490.57 353.877 Q495.014 354.988 499.968 354.988 Q507.977 354.988 512.653 350.775 Q517.329 346.562 517.329 339.34 Q517.329 332.118 512.653 327.905 Q507.977 323.692 499.968 323.692 Q496.218 323.692 492.468 324.525 Q488.764 325.359 484.876 327.118 L484.876 292.396 Z" fill="#000000" fill-rule="nonzero" fill-opacity="1" /><path clip-path="url(#clip320)" d="M291.682 62.7028 Q284.46 62.7028 280.803 69.8324 Q277.191 76.9157 277.191 91.1749 Q277.191 105.388 280.803 112.517 Q284.46 119.601 291.682 119.601 Q298.951 119.601 302.562 112.517 Q306.219 105.388 306.219 91.1749 Q306.219 76.9157 302.562 69.8324 Q298.951 62.7028 291.682 62.7028 M291.682 55.2954 Q303.302 55.2954 309.414 64.5084 Q315.571 73.675 315.571 91.1749 Q315.571 108.628 309.414 117.841 Q303.302 127.008 291.682 127.008 Q280.062 127.008 273.904 117.841 Q267.793 108.628 267.793 91.1749 Q267.793 73.675 273.904 64.5084 Q280.062 55.2954 291.682 55.2954 Z" fill="#000000" fill-rule="nonzero" fill-opacity="1" /><path clip-path="url(#clip320)" d="M332.006 113.906 L341.774 113.906 L341.774 125.665 L332.006 125.665 L332.006 113.906 Z" fill="#000000" fill-rule="nonzero" fill-opacity="1" /><path clip-path="url(#clip320)" d="M382.145 62.7028 Q374.922 62.7028 371.265 69.8324 Q367.654 76.9157 367.654 91.1749 Q367.654 105.388 371.265 112.517 Q374.922 119.601 382.145 119.601 Q389.413 119.601 393.024 112.517 Q396.682 105.388 396.682 91.1749 Q396.682 76.9157 393.024 69.8324 Q389.413 62.7028 382.145 62.7028 M382.145 55.2954 Q393.765 55.2954 399.876 64.5084 Q406.033 73.675 406.033 91.1749 Q406.033 108.628 399.876 117.841 Q393.765 127.008 382.145 127.008 Q370.524 127.008 364.367 117.841 Q358.256 108.628 358.256 91.1749 Q358.256 73.675 364.367 64.5084 Q370.524 55.2954 382.145 55.2954 Z" fill="#000000" fill-rule="nonzero" fill-opacity="1" /><path clip-path="url(#clip320)" d="M424.089 117.795 L439.367 117.795 L439.367 65.0639 L422.746 68.3972 L422.746 59.8787 L439.274 56.5454 L448.626 56.5454 L448.626 117.795 L463.903 117.795 L463.903 125.665 L424.089 125.665 L424.089 117.795 Z" fill="#000000" fill-rule="nonzero" fill-opacity="1" /><path clip-path="url(#clip320)" d="M502.792 62.7028 Q495.57 62.7028 491.913 69.8324 Q488.301 76.9157 488.301 91.1749 Q488.301 105.388 491.913 112.517 Q495.57 119.601 502.792 119.601 Q510.061 119.601 513.672 112.517 Q517.329 105.388 517.329 91.1749 Q517.329 76.9157 513.672 69.8324 Q510.061 62.7028 502.792 62.7028 M502.792 55.2954 Q514.412 55.2954 520.524 64.5084 Q526.681 73.675 526.681 91.1749 Q526.681 108.628 520.524 117.841 Q514.412 127.008 502.792 127.008 Q491.172 127.008 485.014 117.841 Q478.903 108.628 478.903 91.1749 Q478.903 73.675 485.014 64.5084 Q491.172 55.2954 502.792 55.2954 Z" fill="#000000" fill-rule="nonzero" fill-opacity="1" /><path clip-path="url(#clip320)" d="M21.0484 788.419 L21.0484 777.898 L52.9232 777.898 L52.9232 739.669 L21.0484 739.669 L21.0484 729.148 L98.8084 729.148 L98.8084 739.669 L61.7773 739.669 L61.7773 777.898 L98.8084 777.898 L98.8084 788.419 L21.0484 788.419 Z" fill="#000000" fill-rule="nonzero" fill-opacity="1" /><path clip-path="url(#clip320)" d="M21.0484 708.211 L21.0484 694.044 L86.1001 659.565 L21.0484 659.565 L21.0484 649.357 L98.8084 649.357 L98.8084 663.524 L33.7566 698.003 L98.8084 698.003 L98.8084 708.211 L21.0484 708.211 Z" fill="#000000" fill-rule="nonzero" fill-opacity="1" /><path clip-path="url(#clip320)" d="M28.1838 596.858 Q28.1838 608.316 36.7254 615.087 Q45.267 621.805 60.0065 621.805 Q74.6939 621.805 83.2355 615.087 Q91.7772 608.316 91.7772 596.858 Q91.7772 585.399 83.2355 578.733 Q74.6939 572.014 60.0065 572.014 Q45.267 572.014 36.7254 578.733 Q28.1838 585.399 28.1838 596.858 M19.6421 596.858 Q19.6421 580.503 30.6317 570.712 Q41.5691 560.92 60.0065 560.92 Q78.3918 560.92 89.3813 570.712 Q100.319 580.503 100.319 596.858 Q100.319 613.264 89.3813 623.107 Q78.4439 632.899 60.0065 632.899 Q41.5691 632.899 30.6317 623.107 Q19.6421 613.264 19.6421 596.858 Z" fill="#000000" fill-rule="nonzero" fill-opacity="1" /><path clip-path="url(#clip320)" d="M56.8815 511.65 Q58.4961 504.098 63.6002 499.879 Q68.7044 495.608 76.2043 495.608 Q87.7147 495.608 94.0167 503.525 Q100.319 511.441 100.319 526.025 Q100.319 530.92 99.3292 536.129 Q98.3917 541.285 96.4646 546.806 L86.3084 546.806 Q88.8605 542.431 90.1626 537.222 Q91.4647 532.014 91.4647 526.337 Q91.4647 516.441 87.5584 511.285 Q83.6522 506.077 76.2043 506.077 Q69.3294 506.077 65.4752 510.92 Q61.569 515.712 61.569 524.306 L61.569 533.368 L52.9232 533.368 L52.9232 523.889 Q52.9232 516.129 49.8503 512.014 Q46.7253 507.9 40.892 507.9 Q34.9025 507.9 31.7254 512.17 Q28.4963 516.389 28.4963 524.306 Q28.4963 528.629 29.4337 533.577 Q30.3712 538.524 32.3504 544.462 L22.9755 544.462 Q21.3088 538.472 20.4755 533.264 Q19.6421 528.004 19.6421 523.368 Q19.6421 511.389 25.1109 504.41 Q30.5275 497.431 39.7983 497.431 Q46.2566 497.431 50.7357 501.129 Q55.1628 504.827 56.8815 511.65 Z" fill="#000000" fill-rule="nonzero" fill-opacity="1" /><path clip-path="url(#clip320)" d="M17.8713 420.088 Q29.8504 427.067 41.5691 430.452 Q53.2878 433.838 65.319 433.838 Q77.3502 433.838 89.173 430.452 Q100.944 427.015 112.871 420.088 L112.871 428.421 Q100.631 436.233 88.8084 440.14 Q76.9856 443.994 65.319 443.994 Q53.7045 443.994 41.9337 440.14 Q30.1629 436.285 17.8713 428.421 L17.8713 420.088 Z" fill="#000000" fill-rule="nonzero" fill-opacity="1" /><path clip-path="url(#clip320)" d="M90.0584 392.223 L120.996 392.223 L120.996 401.859 L40.4754 401.859 L40.4754 392.223 L49.3295 392.223 Q44.1212 389.202 41.6212 384.619 Q39.0691 379.984 39.0691 373.577 Q39.0691 362.953 47.5066 356.338 Q55.944 349.671 69.694 349.671 Q83.4439 349.671 91.8813 356.338 Q100.319 362.953 100.319 373.577 Q100.319 379.984 97.8188 384.619 Q95.2667 389.202 90.0584 392.223 M69.694 359.619 Q59.1211 359.619 53.1315 363.994 Q47.0899 368.317 47.0899 375.921 Q47.0899 383.525 53.1315 387.9 Q59.1211 392.223 69.694 392.223 Q80.2668 392.223 86.3084 387.9 Q92.298 383.525 92.298 375.921 Q92.298 368.317 86.3084 363.994 Q80.2668 359.619 69.694 359.619 Z" fill="#000000" fill-rule="nonzero" fill-opacity="1" /><path clip-path="url(#clip320)" d="M90.0584 324.515 L120.996 324.515 L120.996 334.151 L40.4754 334.151 L40.4754 324.515 L49.3295 324.515 Q44.1212 321.494 41.6212 316.911 Q39.0691 312.276 39.0691 305.869 Q39.0691 295.245 47.5066 288.63 Q55.944 281.963 69.694 281.963 Q83.4439 281.963 91.8813 288.63 Q100.319 295.245 100.319 305.869 Q100.319 312.276 97.8188 316.911 Q95.2667 321.494 90.0584 324.515 M69.694 291.911 Q59.1211 291.911 53.1315 296.286 Q47.0899 300.609 47.0899 308.213 Q47.0899 315.817 53.1315 320.192 Q59.1211 324.515 69.694 324.515 Q80.2668 324.515 86.3084 320.192 Q92.298 315.817 92.298 308.213 Q92.298 300.609 86.3084 296.286 Q80.2668 291.911 69.694 291.911 Z" fill="#000000" fill-rule="nonzero" fill-opacity="1" /><path clip-path="url(#clip320)" d="M51.6732 220.662 Q45.2149 217.068 42.142 212.068 Q39.0691 207.068 39.0691 200.297 Q39.0691 191.183 45.4753 186.235 Q51.8295 181.287 63.6002 181.287 L98.8084 181.287 L98.8084 190.922 L63.9127 190.922 Q55.5274 190.922 51.4649 193.891 Q47.4024 196.86 47.4024 202.953 Q47.4024 210.401 52.3503 214.724 Q57.2982 219.047 65.8398 219.047 L98.8084 219.047 L98.8084 228.682 L63.9127 228.682 Q55.4753 228.682 51.4649 231.651 Q47.4024 234.62 47.4024 240.818 Q47.4024 248.161 52.4024 252.484 Q57.3503 256.807 65.8398 256.807 L98.8084 256.807 L98.8084 266.443 L40.4754 266.443 L40.4754 256.807 L49.5378 256.807 Q44.1733 253.526 41.6212 248.943 Q39.0691 244.359 39.0691 238.057 Q39.0691 231.703 42.2983 227.276 Q45.5274 222.797 51.6732 220.662 Z" fill="#000000" fill-rule="nonzero" fill-opacity="1" /><path clip-path="url(#clip320)" d="M17.8713 163.683 L17.8713 155.349 Q30.1629 147.537 41.9337 143.683 Q53.7045 139.777 65.319 139.777 Q76.9856 139.777 88.8084 143.683 Q100.631 147.537 112.871 155.349 L112.871 163.683 Q100.944 156.756 89.173 153.37 Q77.3502 149.933 65.319 149.933 Q53.2878 149.933 41.5691 153.37 Q29.8504 156.756 17.8713 163.683 Z" fill="#000000" fill-rule="nonzero" fill-opacity="1" /><path clip-path="url(#clip322)" d="M716.249 753.333 L734.477 794.58 L752.704 801.207 L770.932 802.789 L789.16 805.689 L807.387 798.09 L825.615 807.364 L843.842 801.985 L862.07 788.765 L880.298 766.909 L898.525 749.448 L916.753 758.822 L934.981 766.736 L953.208 767.617 L971.436 779.91 L989.663 759.767 L1007.89 770.976 L1026.12 768.478 L1044.35 857.356 L1062.57 833.577 L1080.8 773.196 L1099.03 781.421 L1117.26 794.547 L1135.48 802.165 L1153.71 805.159 L1171.94 789.301 L1190.17 788.84 L1208.39 785.316 L1226.62 797.766 L1244.85 796.397 L1263.08 803.731 L1281.31 799.895 L1299.53 791.738 L1317.76 766.179 L1335.99 749.13 L1354.22 764.97 L1372.44 759.868 L1390.67 768.406 L1408.9 765.872 L1427.13 759.637 L1445.35 771.192 L1463.58 768.09 L1481.81 763.568 L1500.04 812.346 L1518.26 800.484 L1536.49 781.237 L1554.72 795.671 L1572.95 801.88 L1591.17 801.787 L1609.4 788.912 L1627.63 788.653 L1645.86 808.479 L1664.09 797.939 L1682.31 796.341 L1700.54 803.66 L1718.77 799.42 L1737 792.715 L1755.22 766.392 L1773.45 749.741 L1791.68 764.187 L1809.91 760.33 L1828.13 768.266 L1846.36 765.991 L1864.59 759.672 L1882.82 771.148 L1901.04 768.13 L1919.27 806.492 L1937.5 807.118 L1955.73 789.74 L1973.95 781.314 L1992.18 795.71 L2010.41 801.895 L2028.64 801.73 L2046.87 788.905 L2065.09 788.563 L2083.32 809.037 L2101.55 797.894 L2119.78 796.365 L2138 803.749 L2156.23 799.6 L2174.46 793.337 L2192.69 766.293 L2210.91 749.362 L2229.14 764.001 L2247.37 759.817 L2265.6 768.39 L2283.82 765.92 L2302.05 759.671 L2320.28 771.229 L2338.51 768.152 L2356.74 790.471 L2374.96 810.142 L2393.19 795.907 L2411.42 781.248 L2429.65 795.666 L2447.87 801.922 L2466.1 801.793 L2484.33 788.941 L2502.56 788.598 L2520.78 809.518 L2539.01 797.907 L2557.24 796.32 L2575.47 803.655 L2593.69 799.5 L2611.92 793.166 L2630.15 766.358 L2648.38 749.633 L2666.6 764.125 L2684.83 759.756 L2703.06 768.317 L2721.29 766.001 L2739.52 759.723 L2757.74 771.169 L2775.97 768.104 L2794.2 797.519 L2812.43 808.915 L2830.65 793.432 L2848.88 781.301 L2867.11 795.715 L2885.34 801.926 L2903.56 801.756 L2921.79 788.897 L2940.02 788.572 L2958.25 808.738 L2976.47 797.911 L2994.7 796.338 L3012.93 803.689 L3031.16 799.553 L3049.38 793.462 L3067.61 766.332 L3085.84 749.475 L3104.07 764.033 L3122.3 759.771 L3140.52 768.368 L3158.75 765.977 L3176.98 759.699 L3195.21 771.18 L3213.43 768.133 L3231.66 793.681 L3249.89 809.71 L3268.12 794.355 L3286.34 781.291 L3304.57 795.709 L3322.8 801.928 L3341.03 801.758 L3359.25 788.898 L3377.48 788.596 L3395.71 809.089 L3413.94 797.892 L3432.16 796.309 L3450.39 803.652 L3468.62 799.51 L3486.85 792.948 L3505.08 766.352 L3523.3 749.595 L3541.53 764.112 L3559.76 759.793 L3577.99 768.345 L3596.21 765.98 L3614.44 759.7 L3632.67 771.146 L3650.9 768.098 L3669.12 795.3 L3687.35 809.405 L3705.58 793.962 L3723.81 781.319 L3742.03 795.723 L3760.26 801.916 L3778.49 801.752 L3796.72 788.917 L3814.94 788.579 L3833.17 808.803 L3851.4 797.899 L3869.63 796.333 L3887.86 803.686 L3906.08 799.531 L3924.31 792.659 L3942.54 766.328 L3960.77 749.524 L3978.99 764.041 L3997.22 759.767 L4015.45 768.367 L4033.68 765.956 L4051.9 759.689 L4070.13 771.178 L4088.36 768.126 L4106.59 794.994 L4124.81 809.383 L4143.04 793.985 L4161.27 781.28 L4179.5 795.693 L4197.72 801.918 L4215.95 801.757 L4234.18 788.912 L4252.41 788.586 L4270.64 808.56 L4288.86 797.919 L4307.09 796.338 L4325.32 803.698 L4343.55 799.511 L4361.77 793.676 L4380 766.317 L4398.23 749.553 L4416.46 764.086 L4434.68 759.77 L4452.91 768.323 L4471.14 765.963 L4489.37 759.676 L4507.59 771.171 L4525.82 768.113 L4544.05 794.684 L4562.28 809.499 L4580.5 794.097 L4598.73 781.279 L4616.96 795.685 L4635.19 801.905 L4635.19 227.35 L4616.96 94.7394 L4598.73 271.164 L4580.5 177.63 L4562.28 92.7407 L4544.05 231.598 L4525.82 228.803 L4507.59 199.657 L4489.37 206.366 L4471.14 71.2337 L4452.91 118.031 L4434.68 251.68 L4416.46 204.133 L4398.23 169.551 L4380 159.231 L4361.77 280.615 L4343.55 193.761 L4325.32 198.834 L4307.09 245.976 L4288.86 163.4 L4270.64 199.591 L4252.41 154.898 L4234.18 147.131 L4215.95 164.617 L4197.72 227.319 L4179.5 94.7149 L4161.27 271.386 L4143.04 178.122 L4124.81 92.366 L4106.59 231.352 L4088.36 228.014 L4070.13 200.632 L4051.9 209.78 L4033.68 70.9716 L4015.45 118.087 L3997.22 251.756 L3978.99 203.697 L3960.77 171.257 L3942.54 158.486 L3924.31 280.877 L3906.08 194.017 L3887.86 194.254 L3869.63 246.956 L3851.4 164.495 L3833.17 199.594 L3814.94 156.353 L3796.72 146.992 L3778.49 164.637 L3760.26 227.327 L3742.03 94.7783 L3723.81 271.203 L3705.58 176.549 L3687.35 93.3471 L3669.12 231.278 L3650.9 228.483 L3632.67 200.06 L3614.44 213.897 L3596.21 71.1295 L3577.99 118.046 L3559.76 251.692 L3541.53 201.416 L3523.3 169.819 L3505.08 158.748 L3486.85 280.518 L3468.62 194.914 L3450.39 195.431 L3432.16 246.546 L3413.94 163.749 L3395.71 198.875 L3377.48 154.261 L3359.25 146.944 L3341.03 164.69 L3322.8 227.307 L3304.57 94.7316 L3286.34 271.401 L3268.12 177.049 L3249.89 92.7981 L3231.66 231.396 L3213.43 228.2 L3195.21 200.564 L3176.98 209.105 L3158.75 71.2359 L3140.52 118.014 L3122.3 251.73 L3104.07 202.716 L3085.84 171.268 L3067.61 159.331 L3049.38 281.763 L3031.16 193.643 L3012.93 197.412 L2994.7 246.16 L2976.47 165.182 L2958.25 199.555 L2940.02 155.631 L2921.79 147.189 L2903.56 164.804 L2885.34 227.411 L2867.11 94.7682 L2848.88 271.174 L2830.65 177.997 L2812.43 93.3947 L2794.2 231.763 L2775.97 228.609 L2757.74 199.632 L2739.52 209.091 L2721.29 71.0439 L2703.06 117.921 L2684.83 251.803 L2666.6 203.842 L2648.38 170.734 L2630.15 158.151 L2611.92 283.302 L2593.69 193.73 L2575.47 196.682 L2557.24 247.182 L2539.01 163.319 L2520.78 198.954 L2502.56 155.718 L2484.33 146.965 L2466.1 165.157 L2447.87 226.987 L2429.65 94.7219 L2411.42 271.256 L2393.19 180.266 L2374.96 92.9109 L2356.74 233.4 L2338.51 228.829 L2320.28 199.572 L2302.05 200.039 L2283.82 71.0766 L2265.6 118.484 L2247.37 250.667 L2229.14 202.19 L2210.91 171.27 L2192.69 158.969 L2174.46 275.321 L2156.23 193.879 L2138 196.958 L2119.78 245.184 L2101.55 161.245 L2083.32 198.943 L2065.09 154.2 L2046.87 146.956 L2028.64 166.057 L2010.41 228.443 L1992.18 94.8341 L1973.95 273.381 L1955.73 176.965 L1937.5 92.5379 L1919.27 232.781 L1901.04 227.204 L1882.82 201.626 L1864.59 201.591 L1846.36 71.2511 L1828.13 118.961 L1809.91 256.227 L1791.68 199.618 L1773.45 171.05 L1755.22 159.733 L1737 299.563 L1718.77 182.474 L1700.54 194.819 L1682.31 250.341 L1664.09 160.562 L1645.86 199.835 L1627.63 154.431 L1609.4 146.699 L1591.17 165.367 L1572.95 222.789 L1554.72 94.765 L1536.49 270.335 L1518.26 180.699 L1500.04 93.1064 L1481.81 231.702 L1463.58 228.537 L1445.35 199.835 L1427.13 201.909 L1408.9 70.8396 L1390.67 116.085 L1372.44 233.018 L1354.22 202.042 L1335.99 144.717 L1317.76 140.324 L1299.53 256.09 L1281.31 207.748 L1263.08 189.023 L1244.85 241.069 L1226.62 155.296 L1208.39 235.492 L1190.17 155.608 L1171.94 182.065 L1153.71 154.62 L1135.48 216.059 L1117.26 94.5679 L1099.03 273.069 L1080.8 170.127 L1062.57 98.9167 L1044.35 233.955 L1026.12 235.821 L1007.89 191.282 L989.663 168.745 L971.436 74.5594 L953.208 134.092 L934.981 275.678 L916.753 276.385 L898.525 247.746 L880.298 309.364 L862.07 336.909 L843.842 158.82 L825.615 375.513 L807.387 372.088 L789.16 391.189 L770.932 322.979 L752.704 372.196 L734.477 429.939 L716.249 438.143  Z" fill="#b0b0b0" fill-rule="evenodd" fill-opacity="0.5"/>
<polyline clip-path="url(#clip322)" style="stroke:#b0b0b0; stroke-linecap:round; stroke-linejoin:round; stroke-width:0; stroke-opacity:1; fill:none" points="716.249,563.038 734.477,578.395 752.704,577.731 770.932,576.235 789.16,575.832 807.387,574.988 825.615,573.5 843.842,571.484 862.07,570.613 880.298,569.965 898.525,568.582 916.753,566.204 934.981,565.455 953.208,564.637 971.436,565.069 989.663,567.074 1007.89,568.654 1026.12,569.082 1044.35,567.744 1062.57,566.078 1080.8,565.709 1099.03,566.849 1117.26,567.366 1135.48,569.439 1153.71,570.352 1171.94,570.978 1190.17,571.665 1208.39,571.524 1226.62,571.359 1244.85,571.272 1263.08,570.524 1281.31,571.037 1299.53,572.29 1317.76,569.53 1335.99,567.751 1354.22,566.507 1372.44,567.143 1390.67,566.585 1408.9,565.999 1427.13,567.67 1445.35,568.967 1463.58,568.775 1481.81,567.235 1500.04,566.082 1518.26,565.918 1536.49,566.841 1554.72,567.343 1572.95,569.235 1591.17,570.31 1609.4,570.643 1627.63,571.502 1645.86,571.756 1664.09,571.518 1682.31,571.262 1700.54,570.451 1718.77,570.548 1737,571.863 1755.22,569.74 1773.45,568.751 1791.68,566.81 1809.91,566.9 1828.13,566.437 1846.36,566.131 1864.59,567.727 1882.82,568.91 1901.04,568.84 1919.27,567.488 1937.5,566.187 1955.73,565.87 1973.95,566.905 1992.18,567.404 2010.41,569.25 2028.64,570.266 2046.87,570.623 2065.09,571.414 2083.32,571.747 2101.55,571.476 2119.78,571.285 2138,570.54 2156.23,570.729 2174.46,572.005 2192.69,569.642 2210.91,568.329 2229.14,566.614 2247.37,567.003 2265.6,566.568 2283.82,566.06 2302.05,567.713 2320.28,568.998 2338.51,568.865 2356.74,567.43 2374.96,566.17 2393.19,565.91 2411.42,566.85 2429.65,567.361 2447.87,569.28 2466.1,570.323 2484.33,570.657 2502.56,571.448 2520.78,571.741 2539.01,571.487 2557.24,571.241 2575.47,570.45 2593.69,570.631 2611.92,571.935 2630.15,569.705 2648.38,568.586 2666.6,566.734 2684.83,566.951 2703.06,566.5 2721.29,566.121 2739.52,567.766 2757.74,568.933 2775.97,568.821 2794.2,567.448 2812.43,566.166 2830.65,565.881 2848.88,566.892 2867.11,567.409 2885.34,569.281 2903.56,570.283 2921.79,570.62 2940.02,571.423 2958.25,571.759 2976.47,571.494 2994.7,571.257 3012.93,570.483 3031.16,570.68 3049.38,571.98 3067.61,569.681 3085.84,568.446 3104.07,566.65 3122.3,566.963 3140.52,566.547 3158.75,566.118 3176.98,567.744 3195.21,568.949 3213.43,568.834 3231.66,567.449 3249.89,566.173 3268.12,565.89 3286.34,566.893 3304.57,567.404 3322.8,569.282 3341.03,570.291 3359.25,570.637 3377.48,571.447 3395.71,571.734 3413.94,571.474 3432.16,571.228 3450.39,570.448 3468.62,570.64 3486.85,571.946 3505.08,569.704 3523.3,568.533 3541.53,566.729 3559.76,566.991 3577.99,566.529 3596.21,566.113 3614.44,567.753 3632.67,568.918 3650.9,568.811 3669.12,567.431 3687.35,566.17 3705.58,565.898 3723.81,566.91 3742.03,567.42 3760.26,569.275 3778.49,570.286 3796.72,570.635 3814.94,571.431 3833.17,571.729 3851.4,571.485 3869.63,571.253 3887.86,570.475 3906.08,570.664 3924.31,571.964 3942.54,569.684 3960.77,568.476 3978.99,566.652 3997.22,566.965 4015.45,566.545 4033.68,566.106 4051.9,567.739 4070.13,568.948 4088.36,568.833 4106.59,567.44 4124.81,566.177 4143.04,565.899 4161.27,566.88 4179.5,567.389 4197.72,569.274 4215.95,570.286 4234.18,570.63 4252.41,571.441 4270.64,571.746 4288.86,571.502 4307.09,571.259 4325.32,570.493 4343.55,570.636 4361.77,571.923 4380,569.669 4398.23,568.526 4416.46,566.706 4434.68,566.961 4452.91,566.51 4471.14,566.11 4489.37,567.741 4507.59,568.94 4525.82,568.821 4544.05,567.43 4562.28,566.15 4580.5,565.867 4598.73,566.871 4616.96,567.381 4635.19,569.278 "/>
<path clip-path="url(#clip322)" d="M716.249 689.555 L734.477 727.861 L752.704 731.317 L770.932 728.111 L789.16 717.672 L807.387 717.122 L825.615 714.934 L843.842 710.609 L862.07 696.199 L880.298 695.69 L898.525 691.581 L916.753 687.558 L934.981 691.54 L953.208 691.154 L971.436 698.503 L989.663 698.722 L1007.89 706.872 L1026.12 701.167 L1044.35 695.36 L1062.57 698.689 L1080.8 699.864 L1099.03 706.704 L1117.26 712.025 L1135.48 718.11 L1153.71 726.455 L1171.94 722.238 L1190.17 714.435 L1208.39 714.448 L1226.62 715.406 L1244.85 708.015 L1263.08 702.704 L1281.31 707.793 L1299.53 708.883 L1317.76 707.391 L1335.99 694.634 L1354.22 689.368 L1372.44 696.317 L1390.67 699.011 L1408.9 700.103 L1427.13 699.07 L1445.35 706.859 L1463.58 701.705 L1481.81 693.547 L1500.04 698.304 L1518.26 700.665 L1536.49 706.904 L1554.72 713.288 L1572.95 717.918 L1591.17 727.945 L1609.4 721.488 L1627.63 713.662 L1645.86 714.815 L1664.09 715.303 L1682.31 708.048 L1700.54 705.084 L1718.77 705.657 L1737 709.209 L1755.22 707.921 L1773.45 699.688 L1791.68 689.848 L1809.91 696.441 L1828.13 690.342 L1846.36 703.418 L1864.59 699.17 L1882.82 706.553 L1901.04 701.851 L1919.27 693.811 L1937.5 698.852 L1955.73 700.593 L1973.95 706.877 L1992.18 713.154 L2010.41 717.946 L2028.64 727.604 L2046.87 721.444 L2065.09 713.673 L2083.32 714.805 L2101.55 715.291 L2119.78 708.081 L2138 705.333 L2156.23 705.936 L2174.46 709.079 L2192.69 706.462 L2210.91 696.445 L2229.14 689.691 L2247.37 696.411 L2265.6 696.145 L2283.82 703.357 L2302.05 699.103 L2320.28 707.02 L2338.51 701.911 L2356.74 693.796 L2374.96 698.216 L2393.19 700.665 L2411.42 706.844 L2429.65 712.92 L2447.87 717.961 L2466.1 727.953 L2484.33 721.473 L2502.56 713.643 L2520.78 714.796 L2539.01 715.232 L2557.24 708.031 L2575.47 705.062 L2593.69 705.844 L2611.92 709.369 L2630.15 707.444 L2648.38 696.848 L2666.6 689.75 L2684.83 696.185 L2703.06 690.379 L2721.29 703.415 L2739.52 699.157 L2757.74 706.849 L2775.97 701.827 L2794.2 693.856 L2812.43 698.821 L2830.65 700.863 L2848.88 706.738 L2867.11 712.792 L2885.34 717.97 L2903.56 727.942 L2921.79 721.442 L2940.02 713.602 L2958.25 714.811 L2976.47 714.96 L2994.7 708.055 L3012.93 705.253 L3031.16 705.827 L3049.38 709.227 L3067.61 707.183 L3085.84 696.703 L3104.07 689.743 L3122.3 696.345 L3140.52 694.956 L3158.75 703.41 L3176.98 699.135 L3195.21 707.002 L3213.43 701.949 L3231.66 693.79 L3249.89 698.262 L3268.12 700.618 L3286.34 706.824 L3304.57 713.186 L3322.8 717.97 L3341.03 727.903 L3359.25 721.468 L3377.48 713.628 L3395.71 714.796 L3413.94 715.224 L3432.16 708.016 L3450.39 705.082 L3468.62 705.782 L3486.85 709.327 L3505.08 707.248 L3523.3 696.746 L3541.53 689.775 L3559.76 696.392 L3577.99 691.9 L3596.21 703.404 L3614.44 699.104 L3632.67 706.957 L3650.9 701.854 L3669.12 693.83 L3687.35 698.466 L3705.58 700.6 L3723.81 706.791 L3742.03 713.187 L3760.26 717.961 L3778.49 727.828 L3796.72 721.461 L3814.94 713.663 L3833.17 714.775 L3851.4 715.064 L3869.63 708.04 L3887.86 705.189 L3906.08 705.764 L3924.31 708.978 L3942.54 707.02 L3960.77 696.658 L3978.99 689.834 L3997.22 696.361 L4015.45 693.994 L4033.68 703.395 L4051.9 699.23 L4070.13 706.933 L4088.36 701.887 L4106.59 693.799 L4124.81 698.49 L4143.04 700.821 L4161.27 706.619 L4179.5 712.771 L4197.72 717.952 L4215.95 727.963 L4234.18 721.463 L4252.41 713.611 L4270.64 714.794 L4288.86 715.347 L4307.09 708.05 L4325.32 705.213 L4343.55 705.727 L4361.77 709.112 L4380 707.342 L4398.23 696.796 L4416.46 689.87 L4434.68 696.542 L4452.91 691.987 L4471.14 703.392 L4489.37 699.004 L4507.59 706.975 L4525.82 701.837 L4544.05 693.72 L4562.28 698.256 L4580.5 700.527 L4598.73 706.882 L4616.96 712.975 L4635.19 717.953 L4635.19 440.701 L4616.96 430.657 L4598.73 432.919 L4580.5 429.135 L4562.28 417.049 L4544.05 444.901 L4525.82 442.529 L4507.59 436.129 L4489.37 449.227 L4471.14 434.458 L4452.91 442.435 L4434.68 464.061 L4416.46 443.728 L4398.23 444.054 L4380 452.522 L4361.77 460.59 L4343.55 458.099 L4325.32 455.739 L4307.09 460.676 L4288.86 470.672 L4270.64 453.691 L4252.41 438.873 L4234.18 427.397 L4215.95 424.232 L4197.72 440.498 L4179.5 430.346 L4161.27 432.999 L4143.04 428.911 L4124.81 417.242 L4106.59 444.475 L4088.36 442.338 L4070.13 436.142 L4051.9 449.009 L4033.68 434.726 L4015.45 442.522 L3997.22 463.749 L3978.99 444.276 L3960.77 443.733 L3942.54 452.535 L3924.31 460.656 L3906.08 459.086 L3887.86 455.779 L3869.63 460.658 L3851.4 470.669 L3833.17 454.027 L3814.94 438.925 L3796.72 427.477 L3778.49 424.222 L3760.26 440.676 L3742.03 430.357 L3723.81 432.8 L3705.58 429.225 L3687.35 416.743 L3669.12 444.631 L3650.9 442.471 L3632.67 436.099 L3614.44 449.269 L3596.21 435.02 L3577.99 442.349 L3559.76 464.242 L3541.53 444.157 L3523.3 444 L3505.08 452.52 L3486.85 460.568 L3468.62 457.652 L3450.39 455.642 L3432.16 460.643 L3413.94 470.545 L3395.71 453.004 L3377.48 439.595 L3359.25 427.518 L3341.03 424.121 L3322.8 440.691 L3304.57 430.757 L3286.34 433.065 L3268.12 430.117 L3249.89 417.916 L3231.66 444.541 L3213.43 442.481 L3195.21 436.127 L3176.98 449.03 L3158.75 434.956 L3140.52 442.426 L3122.3 463.431 L3104.07 444.016 L3085.84 443.761 L3067.61 452.532 L3049.38 460.635 L3031.16 459.132 L3012.93 455.774 L2994.7 460.706 L2976.47 470.558 L2958.25 454.774 L2940.02 438.962 L2921.79 427.491 L2903.56 424.304 L2885.34 440.745 L2867.11 430.446 L2848.88 432.873 L2830.65 428.89 L2812.43 416.649 L2794.2 444.828 L2775.97 442.557 L2757.74 436.09 L2739.52 449.255 L2721.29 434.734 L2703.06 442.3 L2684.83 464.664 L2666.6 444.209 L2648.38 444.037 L2630.15 452.476 L2611.92 460.563 L2593.69 457.681 L2575.47 455.688 L2557.24 460.642 L2539.01 470.738 L2520.78 453.205 L2502.56 439.734 L2484.33 427.021 L2466.1 424.265 L2447.87 440.712 L2429.65 430.247 L2411.42 433.031 L2393.19 428.632 L2374.96 419.072 L2356.74 445.005 L2338.51 442.508 L2320.28 436.218 L2302.05 448.983 L2283.82 434.91 L2265.6 442.563 L2247.37 465.54 L2229.14 444.255 L2210.91 443.974 L2192.69 452.525 L2174.46 460.67 L2156.23 459.14 L2138 455.827 L2119.78 460.72 L2101.55 470.589 L2083.32 456.126 L2065.09 439.242 L2046.87 426.745 L2028.64 424.09 L2010.41 440.684 L1992.18 430.478 L1973.95 432.506 L1955.73 429.773 L1937.5 416.431 L1919.27 444.163 L1901.04 442.578 L1882.82 436.084 L1864.59 449.248 L1846.36 434.803 L1828.13 442.494 L1809.91 466.767 L1791.68 444.519 L1773.45 444.328 L1755.22 452.734 L1737 460.543 L1718.77 457.638 L1700.54 455.701 L1682.31 460.642 L1664.09 470.936 L1645.86 454.604 L1627.63 440.051 L1609.4 426.801 L1591.17 424.32 L1572.95 440.716 L1554.72 431.783 L1536.49 432.434 L1518.26 428.276 L1500.04 421.256 L1481.81 444.952 L1463.58 442.774 L1445.35 436.228 L1427.13 449.136 L1408.9 435.488 L1390.67 443.327 L1372.44 467.121 L1354.22 440.099 L1335.99 443.954 L1317.76 451.584 L1299.53 466.594 L1281.31 460.83 L1263.08 455.984 L1244.85 462.134 L1226.62 472.419 L1208.39 463.285 L1190.17 438.948 L1171.94 431.963 L1153.71 435.92 L1135.48 442.131 L1117.26 433.734 L1099.03 437.349 L1080.8 427.24 L1062.57 416.058 L1044.35 445.811 L1026.12 444.081 L1007.89 438.253 L989.663 455.346 L971.436 448.406 L953.208 445.227 L934.981 464.236 L916.753 453.65 L898.525 462.218 L880.298 461.816 L862.07 471.521 L843.842 480.913 L825.615 475.216 L807.387 483.692 L789.16 482.52 L770.932 473.756 L752.704 470.71 L734.477 487.606 L716.249 486.151  Z" fill="#777777" fill-rule="evenodd" fill-opacity="0.5"/>
<polyline clip-path="url(#clip322)" style="stroke:#777777; stroke-linecap:round; stroke-linejoin:round; stroke-width:0; stroke-opacity:1; fill:none" points="716.249,563.038 734.477,578.395 752.704,577.731 770.932,576.235 789.16,575.832 807.387,574.988 825.615,573.5 843.842,571.484 862.07,570.613 880.298,569.965 898.525,568.582 916.753,566.204 934.981,565.455 953.208,564.637 971.436,565.069 989.663,567.074 1007.89,568.654 1026.12,569.082 1044.35,567.744 1062.57,566.078 1080.8,565.709 1099.03,566.849 1117.26,567.366 1135.48,569.439 1153.71,570.352 1171.94,570.978 1190.17,571.665 1208.39,571.524 1226.62,571.359 1244.85,571.272 1263.08,570.524 1281.31,571.037 1299.53,572.29 1317.76,569.53 1335.99,567.751 1354.22,566.507 1372.44,567.143 1390.67,566.585 1408.9,565.999 1427.13,567.67 1445.35,568.967 1463.58,568.775 1481.81,567.235 1500.04,566.082 1518.26,565.918 1536.49,566.841 1554.72,567.343 1572.95,569.235 1591.17,570.31 1609.4,570.643 1627.63,571.502 1645.86,571.756 1664.09,571.518 1682.31,571.262 1700.54,570.451 1718.77,570.548 1737,571.863 1755.22,569.74 1773.45,568.751 1791.68,566.81 1809.91,566.9 1828.13,566.437 1846.36,566.131 1864.59,567.727 1882.82,568.91 1901.04,568.84 1919.27,567.488 1937.5,566.187 1955.73,565.87 1973.95,566.905 1992.18,567.404 2010.41,569.25 2028.64,570.266 2046.87,570.623 2065.09,571.414 2083.32,571.747 2101.55,571.476 2119.78,571.285 2138,570.54 2156.23,570.729 2174.46,572.005 2192.69,569.642 2210.91,568.329 2229.14,566.614 2247.37,567.003 2265.6,566.568 2283.82,566.06 2302.05,567.713 2320.28,568.998 2338.51,568.865 2356.74,567.43 2374.96,566.17 2393.19,565.91 2411.42,566.85 2429.65,567.361 2447.87,569.28 2466.1,570.323 2484.33,570.657 2502.56,571.448 2520.78,571.741 2539.01,571.487 2557.24,571.241 2575.47,570.45 2593.69,570.631 2611.92,571.935 2630.15,569.705 2648.38,568.586 2666.6,566.734 2684.83,566.951 2703.06,566.5 2721.29,566.121 2739.52,567.766 2757.74,568.933 2775.97,568.821 2794.2,567.448 2812.43,566.166 2830.65,565.881 2848.88,566.892 2867.11,567.409 2885.34,569.281 2903.56,570.283 2921.79,570.62 2940.02,571.423 2958.25,571.759 2976.47,571.494 2994.7,571.257 3012.93,570.483 3031.16,570.68 3049.38,571.98 3067.61,569.681 3085.84,568.446 3104.07,566.65 3122.3,566.963 3140.52,566.547 3158.75,566.118 3176.98,567.744 3195.21,568.949 3213.43,568.834 3231.66,567.449 3249.89,566.173 3268.12,565.89 3286.34,566.893 3304.57,567.404 3322.8,569.282 3341.03,570.291 3359.25,570.637 3377.48,571.447 3395.71,571.734 3413.94,571.474 3432.16,571.228 3450.39,570.448 3468.62,570.64 3486.85,571.946 3505.08,569.704 3523.3,568.533 3541.53,566.729 3559.76,566.991 3577.99,566.529 3596.21,566.113 3614.44,567.753 3632.67,568.918 3650.9,568.811 3669.12,567.431 3687.35,566.17 3705.58,565.898 3723.81,566.91 3742.03,567.42 3760.26,569.275 3778.49,570.286 3796.72,570.635 3814.94,571.431 3833.17,571.729 3851.4,571.485 3869.63,571.253 3887.86,570.475 3906.08,570.664 3924.31,571.964 3942.54,569.684 3960.77,568.476 3978.99,566.652 3997.22,566.965 4015.45,566.545 4033.68,566.106 4051.9,567.739 4070.13,568.948 4088.36,568.833 4106.59,567.44 4124.81,566.177 4143.04,565.899 4161.27,566.88 4179.5,567.389 4197.72,569.274 4215.95,570.286 4234.18,570.63 4252.41,571.441 4270.64,571.746 4288.86,571.502 4307.09,571.259 4325.32,570.493 4343.55,570.636 4361.77,571.923 4380,569.669 4398.23,568.526 4416.46,566.706 4434.68,566.961 4452.91,566.51 4471.14,566.11 4489.37,567.741 4507.59,568.94 4525.82,568.821 4544.05,567.43 4562.28,566.15 4580.5,565.867 4598.73,566.871 4616.96,567.381 4635.19,569.278 "/>
<path clip-path="url(#clip322)" d="M716.249 660.194 L734.477 693.432 L752.704 695.219 L770.932 688.433 L789.16 679.9 L807.387 684.016 L825.615 680.25 L843.842 679.71 L862.07 674.351 L880.298 675.474 L898.525 661.44 L916.753 656.553 L934.981 655.566 L953.208 659.185 L971.436 656.235 L989.663 670.782 L1007.89 674.962 L1026.12 674.48 L1044.35 669.627 L1062.57 654.2 L1080.8 662.332 L1099.03 672.773 L1117.26 686.689 L1135.48 687.703 L1153.71 699.325 L1171.94 690.507 L1190.17 685.08 L1208.39 683.887 L1226.62 674.524 L1244.85 673.451 L1263.08 678.737 L1281.31 680.553 L1299.53 682.922 L1317.76 675.914 L1335.99 661.658 L1354.22 661.498 L1372.44 657.313 L1390.67 661.079 L1408.9 661.812 L1427.13 673.756 L1445.35 674.836 L1463.58 673.518 L1481.81 667.043 L1500.04 654.196 L1518.26 663.035 L1536.49 677.397 L1554.72 686.627 L1572.95 687.716 L1591.17 699.832 L1609.4 690.388 L1627.63 683.787 L1645.86 686.306 L1664.09 674.508 L1682.31 673.675 L1700.54 678.265 L1718.77 676.247 L1737 682.384 L1755.22 674.227 L1773.45 667.049 L1791.68 665.027 L1809.91 657.076 L1828.13 661.413 L1846.36 661.129 L1864.59 675.248 L1882.82 674.527 L1901.04 674.898 L1919.27 667.231 L1937.5 654.279 L1955.73 662.683 L1973.95 676.961 L1992.18 683.981 L2010.41 687.749 L2028.64 699.766 L2046.87 690.151 L2065.09 683.937 L2083.32 686.303 L2101.55 674.455 L2119.78 673.554 L2138 678.358 L2156.23 678.125 L2174.46 682.485 L2192.69 674.237 L2210.91 663.702 L2229.14 661.305 L2247.37 657.18 L2265.6 661.539 L2283.82 661.401 L2302.05 674.063 L2320.28 674.665 L2338.51 673.655 L2356.74 667.201 L2374.96 654.358 L2393.19 662.192 L2411.42 677.426 L2429.65 684.837 L2447.87 687.777 L2466.1 699.798 L2484.33 690.899 L2502.56 683.425 L2520.78 686.271 L2539.01 674.488 L2557.24 674.528 L2575.47 678.268 L2593.69 677.989 L2611.92 682.428 L2630.15 674.097 L2648.38 665.622 L2666.6 664.663 L2684.83 657.128 L2703.06 661.702 L2721.29 661.319 L2739.52 675.07 L2757.74 674.845 L2775.97 673.719 L2794.2 667.205 L2812.43 654.271 L2830.65 662.083 L2848.88 677.451 L2867.11 684.533 L2885.34 687.779 L2903.56 699.791 L2921.79 690.055 L2940.02 683.369 L2958.25 686.314 L2976.47 674.481 L2994.7 673.571 L3012.93 678.301 L3031.16 678.071 L3049.38 682.477 L3067.61 674.271 L3085.84 663.816 L3104.07 661.782 L3122.3 657.151 L3140.52 661.516 L3158.75 661.485 L3176.98 674.534 L3195.21 674.637 L3213.43 673.911 L3231.66 667.195 L3249.89 654.362 L3268.12 662.192 L3286.34 677.366 L3304.57 684.633 L3322.8 687.768 L3341.03 699.795 L3359.25 690.225 L3377.48 683.399 L3395.71 686.229 L3413.94 674.456 L3432.16 673.634 L3450.39 678.273 L3468.62 678.04 L3486.85 682.434 L3505.08 674.229 L3523.3 666.269 L3541.53 664.645 L3559.76 657.167 L3577.99 661.699 L3596.21 661.44 L3614.44 674.624 L3632.67 674.577 L3650.9 673.706 L3669.12 667.192 L3687.35 654.386 L3705.58 662.097 L3723.81 677.383 L3742.03 684.514 L3760.26 687.768 L3778.49 699.808 L3796.72 690.209 L3814.94 683.733 L3833.17 686.264 L3851.4 674.474 L3869.63 673.423 L3887.86 678.27 L3906.08 678.049 L3924.31 682.458 L3942.54 674.468 L3960.77 665.046 L3978.99 662.373 L3997.22 657.145 L4015.45 661.669 L4033.68 661.348 L4051.9 674.448 L4070.13 674.511 L4088.36 673.665 L4106.59 667.201 L4124.81 654.339 L4143.04 662.026 L4161.27 677.466 L4179.5 684.569 L4197.72 687.775 L4215.95 699.809 L4234.18 689.832 L4252.41 683.699 L4270.64 686.278 L4288.86 674.491 L4307.09 673.64 L4325.32 678.281 L4343.55 678.01 L4361.77 682.42 L4380 674.348 L4398.23 666.318 L4416.46 664.608 L4434.68 657.138 L4452.91 661.536 L4471.14 661.441 L4489.37 674.485 L4507.59 674.645 L4525.82 673.398 L4544.05 667.191 L4562.28 654.179 L4580.5 661.926 L4598.73 677.417 L4616.96 684.43 L4635.19 687.766 L4635.19 500.492 L4616.96 500.917 L4598.73 498.481 L4580.5 486.507 L4562.28 506.714 L4544.05 502.893 L4525.82 492.248 L4507.59 498.244 L4489.37 500.015 L4471.14 494.876 L4452.91 501.518 L4434.68 499.341 L4416.46 500.55 L4398.23 497.79 L4380 504.704 L4361.77 506.538 L4343.55 509.899 L4325.32 503.994 L4307.09 509.317 L4288.86 515.901 L4270.64 513.454 L4252.41 510.119 L4234.18 500.823 L4215.95 507.932 L4197.72 500.578 L4179.5 501.055 L4161.27 498.629 L4143.04 486.934 L4124.81 506.664 L4106.59 502.888 L4088.36 492.502 L4070.13 498.023 L4051.9 499.941 L4033.68 494.892 L4015.45 501.504 L3997.22 500.063 L3978.99 500.748 L3960.77 496.781 L3942.54 504.75 L3924.31 506.531 L3906.08 509.943 L3887.86 503.956 L3869.63 509.387 L3851.4 515.877 L3833.17 513.37 L3814.94 510.141 L3796.72 498.879 L3778.49 508.019 L3760.26 500.312 L3742.03 500.913 L3723.81 498.697 L3705.58 486.54 L3687.35 506.631 L3669.12 502.798 L3650.9 492.479 L3632.67 497.974 L3614.44 499.885 L3596.21 494.899 L3577.99 501.543 L3559.76 499.398 L3541.53 500.191 L3523.3 498.76 L3505.08 504.754 L3486.85 506.497 L3468.62 509.945 L3450.39 503.819 L3432.16 509.648 L3413.94 514.603 L3395.71 513.489 L3377.48 510.009 L3359.25 499.574 L3341.03 507.935 L3322.8 500.444 L3304.57 500.932 L3286.34 498.711 L3268.12 486.625 L3249.89 506.709 L3231.66 502.901 L3213.43 492.585 L3195.21 498.164 L3176.98 499.863 L3158.75 494.905 L3140.52 501.552 L3122.3 500.339 L3104.07 500.311 L3085.84 496.733 L3067.61 503.092 L3049.38 506.591 L3031.16 509.997 L3012.93 503.989 L2994.7 509.341 L2976.47 515.885 L2958.25 513.436 L2940.02 510.178 L2921.79 501.872 L2903.56 507.82 L2885.34 500.418 L2867.11 501.048 L2848.88 498.968 L2830.65 486.611 L2812.43 506.665 L2794.2 502.876 L2775.97 492.346 L2757.74 497.832 L2739.52 499.865 L2721.29 494.93 L2703.06 501.474 L2684.83 499.274 L2666.6 500.304 L2648.38 499.112 L2630.15 504.774 L2611.92 506.564 L2593.69 509.949 L2575.47 503.914 L2557.24 509.204 L2539.01 514.358 L2520.78 513.456 L2502.56 510.026 L2484.33 502.296 L2466.1 507.989 L2447.87 500.545 L2429.65 500.862 L2411.42 498.581 L2393.19 486.711 L2374.96 506.72 L2356.74 502.905 L2338.51 492.333 L2320.28 498.161 L2302.05 499.87 L2283.82 494.964 L2265.6 501.545 L2247.37 500.426 L2229.14 500.424 L2210.91 496.622 L2192.69 502.174 L2174.46 506.589 L2156.23 510.011 L2138 503.958 L2119.78 509.272 L2101.55 515.636 L2083.32 513.327 L2065.09 510.062 L2046.87 501.162 L2028.64 507.847 L2010.41 500.468 L1992.18 500.965 L1973.95 499.131 L1955.73 487.686 L1937.5 506.659 L1919.27 502.925 L1901.04 492.478 L1882.82 497.956 L1864.59 499.886 L1846.36 494.922 L1828.13 501.444 L1809.91 499.283 L1791.68 500.37 L1773.45 499.286 L1755.22 506.527 L1737 506.383 L1718.77 509.904 L1700.54 503.968 L1682.31 509.982 L1664.09 514.203 L1645.86 513.508 L1627.63 510.354 L1609.4 502.927 L1591.17 507.786 L1572.95 500.401 L1554.72 501.09 L1536.49 498.311 L1518.26 486.324 L1500.04 506.732 L1481.81 502.564 L1463.58 492.614 L1445.35 500.467 L1427.13 499.578 L1408.9 494.931 L1390.67 501.71 L1372.44 502.819 L1354.22 501.286 L1335.99 495.977 L1317.76 502.25 L1299.53 504.57 L1281.31 510.304 L1263.08 504.245 L1244.85 507.323 L1226.62 513.943 L1208.39 514.299 L1190.17 510.347 L1171.94 504.095 L1153.71 509.649 L1135.48 502.14 L1117.26 499.413 L1099.03 498.314 L1080.8 493.414 L1062.57 504.203 L1044.35 501.969 L1026.12 494.854 L1007.89 497.892 L989.663 496.988 L971.436 494.683 L953.208 496.756 L934.981 496.307 L916.753 500.024 L898.525 498.558 L880.298 505.07 L862.07 504.235 L843.842 504.49 L825.615 508.195 L807.387 516.826 L789.16 520.335 L770.932 523.127 L752.704 521.384 L734.477 520.935 L716.249 502.376  Z" fill="#434343" fill-rule="evenodd" fill-opacity="0.5"/>
<polyline clip-path="url(#clip322)" style="stroke:#434343; stroke-linecap:round; stroke-linejoin:round; stroke-width:0; stroke-opacity:1; fill:none" points="716.249,563.038 734.477,578.395 752.704,577.731 770.932,576.235 789.16,575.832 807.387,574.988 825.615,573.5 843.842,571.484 862.07,570.613 880.298,569.965 898.525,568.582 916.753,566.204 934.981,565.455 953.208,564.637 971.436,565.069 989.663,567.074 1007.89,568.654 1026.12,569.082 1044.35,567.744 1062.57,566.078 1080.8,565.709 1099.03,566.849 1117.26,567.366 1135.48,569.439 1153.71,570.352 1171.94,570.978 1190.17,571.665 1208.39,571.524 1226.62,571.359 1244.85,571.272 1263.08,570.524 1281.31,571.037 1299.53,572.29 1317.76,569.53 1335.99,567.751 1354.22,566.507 1372.44,567.143 1390.67,566.585 1408.9,565.999 1427.13,567.67 1445.35,568.967 1463.58,568.775 1481.81,567.235 1500.04,566.082 1518.26,565.918 1536.49,566.841 1554.72,567.343 1572.95,569.235 1591.17,570.31 1609.4,570.643 1627.63,571.502 1645.86,571.756 1664.09,571.518 1682.31,571.262 1700.54,570.451 1718.77,570.548 1737,571.863 1755.22,569.74 1773.45,568.751 1791.68,566.81 1809.91,566.9 1828.13,566.437 1846.36,566.131 1864.59,567.727 1882.82,568.91 1901.04,568.84 1919.27,567.488 1937.5,566.187 1955.73,565.87 1973.95,566.905 1992.18,567.404 2010.41,569.25 2028.64,570.266 2046.87,570.623 2065.09,571.414 2083.32,571.747 2101.55,571.476 2119.78,571.285 2138,570.54 2156.23,570.729 2174.46,572.005 2192.69,569.642 2210.91,568.329 2229.14,566.614 2247.37,567.003 2265.6,566.568 2283.82,566.06 2302.05,567.713 2320.28,568.998 2338.51,568.865 2356.74,567.43 2374.96,566.17 2393.19,565.91 2411.42,566.85 2429.65,567.361 2447.87,569.28 2466.1,570.323 2484.33,570.657 2502.56,571.448 2520.78,571.741 2539.01,571.487 2557.24,571.241 2575.47,570.45 2593.69,570.631 2611.92,571.935 2630.15,569.705 2648.38,568.586 2666.6,566.734 2684.83,566.951 2703.06,566.5 2721.29,566.121 2739.52,567.766 2757.74,568.933 2775.97,568.821 2794.2,567.448 2812.43,566.166 2830.65,565.881 2848.88,566.892 2867.11,567.409 2885.34,569.281 2903.56,570.283 2921.79,570.62 2940.02,571.423 2958.25,571.759 2976.47,571.494 2994.7,571.257 3012.93,570.483 3031.16,570.68 3049.38,571.98 3067.61,569.681 3085.84,568.446 3104.07,566.65 3122.3,566.963 3140.52,566.547 3158.75,566.118 3176.98,567.744 3195.21,568.949 3213.43,568.834 3231.66,567.449 3249.89,566.173 3268.12,565.89 3286.34,566.893 3304.57,567.404 3322.8,569.282 3341.03,570.291 3359.25,570.637 3377.48,571.447 3395.71,571.734 3413.94,571.474 3432.16,571.228 3450.39,570.448 3468.62,570.64 3486.85,571.946 3505.08,569.704 3523.3,568.533 3541.53,566.729 3559.76,566.991 3577.99,566.529 3596.21,566.113 3614.44,567.753 3632.67,568.918 3650.9,568.811 3669.12,567.431 3687.35,566.17 3705.58,565.898 3723.81,566.91 3742.03,567.42 3760.26,569.275 3778.49,570.286 3796.72,570.635 3814.94,571.431 3833.17,571.729 3851.4,571.485 3869.63,571.253 3887.86,570.475 3906.08,570.664 3924.31,571.964 3942.54,569.684 3960.77,568.476 3978.99,566.652 3997.22,566.965 4015.45,566.545 4033.68,566.106 4051.9,567.739 4070.13,568.948 4088.36,568.833 4106.59,567.44 4124.81,566.177 4143.04,565.899 4161.27,566.88 4179.5,567.389 4197.72,569.274 4215.95,570.286 4234.18,570.63 4252.41,571.441 4270.64,571.746 4288.86,571.502 4307.09,571.259 4325.32,570.493 4343.55,570.636 4361.77,571.923 4380,569.669 4398.23,568.526 4416.46,566.706 4434.68,566.961 4452.91,566.51 4471.14,566.11 4489.37,567.741 4507.59,568.94 4525.82,568.821 4544.05,567.43 4562.28,566.15 4580.5,565.867 4598.73,566.871 4616.96,567.381 4635.19,569.278 "/>
<path clip-path="url(#clip320)" d="M3879.61 593.434 L4614.29 593.434 L4614.29 75.0343 L3879.61 75.0343  Z" fill="#ffffff" fill-rule="evenodd" fill-opacity="1"/>
<polyline clip-path="url(#clip320)" style="stroke:#000000; stroke-linecap:round; stroke-linejoin:round; stroke-width:4; stroke-opacity:1; fill:none" points="3879.61,593.434 4614.29,593.434 4614.29,75.0343 3879.61,75.0343 3879.61,593.434 "/>
<polyline clip-path="url(#clip320)" style="stroke:#b0b0b0; stroke-linecap:round; stroke-linejoin:round; stroke-width:2; stroke-opacity:1; fill:none" points="3925.77,204.634 4202.7,204.634 "/>
<path clip-path="url(#clip320)" d="M4250.54 237.996 L4269.64 237.996 L4269.64 172.082 L4248.86 176.249 L4248.86 165.601 L4269.52 161.434 L4281.21 161.434 L4281.21 237.996 L4300.31 237.996 L4300.31 247.834 L4250.54 247.834 L4250.54 237.996 Z" fill="#000000" fill-rule="nonzero" fill-opacity="1" /><path clip-path="url(#clip320)" d="M4348.92 169.131 Q4339.89 169.131 4335.32 178.043 Q4330.81 186.897 4330.81 204.721 Q4330.81 222.487 4335.32 231.399 Q4339.89 240.253 4348.92 240.253 Q4358 240.253 4362.52 231.399 Q4367.09 222.487 4367.09 204.721 Q4367.09 186.897 4362.52 178.043 Q4358 169.131 4348.92 169.131 M4348.92 159.872 Q4363.44 159.872 4371.08 171.388 Q4378.78 182.846 4378.78 204.721 Q4378.78 226.538 4371.08 238.054 Q4363.44 249.513 4348.92 249.513 Q4334.39 249.513 4326.7 238.054 Q4319.06 226.538 4319.06 204.721 Q4319.06 182.846 4326.7 171.388 Q4334.39 159.872 4348.92 159.872 Z" fill="#000000" fill-rule="nonzero" fill-opacity="1" /><path clip-path="url(#clip320)" d="M4424.32 169.131 Q4415.3 169.131 4410.72 178.043 Q4406.21 186.897 4406.21 204.721 Q4406.21 222.487 4410.72 231.399 Q4415.3 240.253 4424.32 240.253 Q4433.41 240.253 4437.92 231.399 Q4442.49 222.487 4442.49 204.721 Q4442.49 186.897 4437.92 178.043 Q4433.41 169.131 4424.32 169.131 M4424.32 159.872 Q4438.85 159.872 4446.49 171.388 Q4454.18 182.846 4454.18 204.721 Q4454.18 226.538 4446.49 238.054 Q4438.85 249.513 4424.32 249.513 Q4409.8 249.513 4402.1 238.054 Q4394.46 226.538 4394.46 204.721 Q4394.46 182.846 4402.1 171.388 Q4409.8 159.872 4424.32 159.872 Z" fill="#000000" fill-rule="nonzero" fill-opacity="1" /><path clip-path="url(#clip320)" d="M4548.22 209.814 Q4543.19 209.814 4540.29 214.096 Q4537.46 218.378 4537.46 226.017 Q4537.46 233.54 4540.29 237.881 Q4543.19 242.163 4548.22 242.163 Q4553.14 242.163 4555.98 237.881 Q4558.87 233.54 4558.87 226.017 Q4558.87 218.436 4555.98 214.154 Q4553.14 209.814 4548.22 209.814 M4548.22 202.464 Q4557.37 202.464 4562.75 208.83 Q4568.13 215.196 4568.13 226.017 Q4568.13 236.839 4562.69 243.205 Q4557.31 249.513 4548.22 249.513 Q4538.96 249.513 4533.58 243.205 Q4528.2 236.839 4528.2 226.017 Q4528.2 215.138 4533.58 208.83 Q4539.02 202.464 4548.22 202.464 M4488.5 167.221 Q4483.52 167.221 4480.63 171.562 Q4477.8 175.844 4477.8 183.367 Q4477.8 191.006 4480.63 195.288 Q4483.47 199.571 4488.5 199.571 Q4493.54 199.571 4496.37 195.288 Q4499.26 191.006 4499.26 183.367 Q4499.26 175.902 4496.37 171.562 Q4493.48 167.221 4488.5 167.221 M4540.76 159.872 L4550.02 159.872 L4495.97 249.513 L4486.71 249.513 L4540.76 159.872 M4488.5 159.872 Q4497.64 159.872 4503.08 166.238 Q4508.52 172.545 4508.52 183.367 Q4508.52 194.305 4503.08 200.612 Q4497.7 206.92 4488.5 206.92 Q4479.3 206.92 4473.92 200.612 Q4468.59 194.247 4468.59 183.367 Q4468.59 172.603 4473.98 166.238 Q4479.36 159.872 4488.5 159.872 Z" fill="#000000" fill-rule="nonzero" fill-opacity="1" /><polyline clip-path="url(#clip320)" style="stroke:#777777; stroke-linecap:round; stroke-linejoin:round; stroke-width:2; stroke-opacity:1; fill:none" points="3925.77,334.234 4202.7,334.234 "/>
<path clip-path="url(#clip320)" d="M4254.42 375.64 L4254.42 364.992 Q4258.81 367.076 4263.33 368.175 Q4267.84 369.275 4272.18 369.275 Q4283.76 369.275 4289.83 361.52 Q4295.97 353.708 4296.84 337.851 Q4293.48 342.828 4288.33 345.49 Q4283.18 348.152 4276.93 348.152 Q4263.97 348.152 4256.38 340.34 Q4248.86 332.469 4248.86 318.87 Q4248.86 305.56 4256.73 297.516 Q4264.6 289.472 4277.68 289.472 Q4292.67 289.472 4300.54 300.988 Q4308.47 312.446 4308.47 334.321 Q4308.47 354.749 4298.75 366.96 Q4289.08 379.113 4272.7 379.113 Q4268.31 379.113 4263.79 378.245 Q4259.28 377.376 4254.42 375.64 M4277.68 339.009 Q4285.55 339.009 4290.12 333.627 Q4294.75 328.245 4294.75 318.87 Q4294.75 309.553 4290.12 304.171 Q4285.55 298.731 4277.68 298.731 Q4269.81 298.731 4265.18 304.171 Q4260.61 309.553 4260.61 318.87 Q4260.61 328.245 4265.18 333.627 Q4269.81 339.009 4277.68 339.009 Z" fill="#000000" fill-rule="nonzero" fill-opacity="1" /><path clip-path="url(#clip320)" d="M4354.47 298.731 Q4345.45 298.731 4340.87 307.643 Q4336.36 316.497 4336.36 334.321 Q4336.36 352.087 4340.87 360.999 Q4345.45 369.853 4354.47 369.853 Q4363.56 369.853 4368.07 360.999 Q4372.65 352.087 4372.65 334.321 Q4372.65 316.497 4368.07 307.643 Q4363.56 298.731 4354.47 298.731 M4354.47 289.472 Q4369 289.472 4376.64 300.988 Q4384.34 312.446 4384.34 334.321 Q4384.34 356.138 4376.64 367.654 Q4369 379.113 4354.47 379.113 Q4339.95 379.113 4332.25 367.654 Q4324.61 356.138 4324.61 334.321 Q4324.61 312.446 4332.25 300.988 Q4339.95 289.472 4354.47 289.472 Z" fill="#000000" fill-rule="nonzero" fill-opacity="1" /><path clip-path="url(#clip320)" d="M4478.37 339.414 Q4473.34 339.414 4470.45 343.696 Q4467.61 347.978 4467.61 355.617 Q4467.61 363.14 4470.45 367.481 Q4473.34 371.763 4478.37 371.763 Q4483.29 371.763 4486.13 367.481 Q4489.02 363.14 4489.02 355.617 Q4489.02 348.036 4486.13 343.754 Q4483.29 339.414 4478.37 339.414 M4478.37 332.064 Q4487.52 332.064 4492.9 338.43 Q4498.28 344.796 4498.28 355.617 Q4498.28 366.439 4492.84 372.805 Q4487.46 379.113 4478.37 379.113 Q4469.11 379.113 4463.73 372.805 Q4458.35 366.439 4458.35 355.617 Q4458.35 344.738 4463.73 338.43 Q4469.17 332.064 4478.37 332.064 M4418.65 296.821 Q4413.68 296.821 4410.78 301.162 Q4407.95 305.444 4407.95 312.967 Q4407.95 320.606 4410.78 324.888 Q4413.62 329.171 4418.65 329.171 Q4423.69 329.171 4426.52 324.888 Q4429.42 320.606 4429.42 312.967 Q4429.42 305.502 4426.52 301.162 Q4423.63 296.821 4418.65 296.821 M4470.91 289.472 L4480.17 289.472 L4426.12 379.113 L4416.86 379.113 L4470.91 289.472 M4418.65 289.472 Q4427.8 289.472 4433.24 295.838 Q4438.68 302.145 4438.68 312.967 Q4438.68 323.905 4433.24 330.212 Q4427.85 336.52 4418.65 336.52 Q4409.45 336.52 4404.07 330.212 Q4398.74 323.847 4398.74 312.967 Q4398.74 302.203 4404.13 295.838 Q4409.51 289.472 4418.65 289.472 Z" fill="#000000" fill-rule="nonzero" fill-opacity="1" /><polyline clip-path="url(#clip320)" style="stroke:#434343; stroke-linecap:round; stroke-linejoin:round; stroke-width:2; stroke-opacity:1; fill:none" points="3925.77,463.834 4202.7,463.834 "/>
<path clip-path="url(#clip320)" d="M4278.49 466.004 Q4270.16 466.004 4265.35 470.46 Q4260.61 474.916 4260.61 482.729 Q4260.61 490.541 4265.35 494.997 Q4270.16 499.453 4278.49 499.453 Q4286.82 499.453 4291.63 494.997 Q4296.43 490.484 4296.43 482.729 Q4296.43 474.916 4291.63 470.46 Q4286.88 466.004 4278.49 466.004 M4266.8 461.028 Q4259.28 459.176 4255.05 454.025 Q4250.89 448.875 4250.89 441.468 Q4250.89 431.109 4258.24 425.09 Q4265.64 419.072 4278.49 419.072 Q4291.4 419.072 4298.75 425.09 Q4306.09 431.109 4306.09 441.468 Q4306.09 448.875 4301.87 454.025 Q4297.7 459.176 4290.24 461.028 Q4298.69 462.995 4303.37 468.724 Q4308.12 474.453 4308.12 482.729 Q4308.12 495.287 4300.42 502 Q4292.78 508.713 4278.49 508.713 Q4264.2 508.713 4256.5 502 Q4248.86 495.287 4248.86 482.729 Q4248.86 474.453 4253.61 468.724 Q4258.35 462.995 4266.8 461.028 M4262.52 442.567 Q4262.52 449.28 4266.69 453.042 Q4270.91 456.803 4278.49 456.803 Q4286.01 456.803 4290.24 453.042 Q4294.52 449.28 4294.52 442.567 Q4294.52 435.854 4290.24 432.093 Q4286.01 428.331 4278.49 428.331 Q4270.91 428.331 4266.69 432.093 Q4262.52 435.854 4262.52 442.567 Z" fill="#000000" fill-rule="nonzero" fill-opacity="1" /><path clip-path="url(#clip320)" d="M4353.9 428.331 Q4344.87 428.331 4340.3 437.243 Q4335.78 446.097 4335.78 463.921 Q4335.78 481.687 4340.3 490.599 Q4344.87 499.453 4353.9 499.453 Q4362.98 499.453 4367.49 490.599 Q4372.07 481.687 4372.07 463.921 Q4372.07 446.097 4367.49 437.243 Q4362.98 428.331 4353.9 428.331 M4353.9 419.072 Q4368.42 419.072 4376.06 430.588 Q4383.76 442.046 4383.76 463.921 Q4383.76 485.738 4376.06 497.254 Q4368.42 508.713 4353.9 508.713 Q4339.37 508.713 4331.67 497.254 Q4324.03 485.738 4324.03 463.921 Q4324.03 442.046 4331.67 430.588 Q4339.37 419.072 4353.9 419.072 Z" fill="#000000" fill-rule="nonzero" fill-opacity="1" /><path clip-path="url(#clip320)" d="M4477.8 469.014 Q4472.76 469.014 4469.87 473.296 Q4467.03 477.578 4467.03 485.217 Q4467.03 492.74 4469.87 497.081 Q4472.76 501.363 4477.8 501.363 Q4482.71 501.363 4485.55 497.081 Q4488.44 492.74 4488.44 485.217 Q4488.44 477.636 4485.55 473.354 Q4482.71 469.014 4477.8 469.014 M4477.8 461.664 Q4486.94 461.664 4492.32 468.03 Q4497.7 474.396 4497.7 485.217 Q4497.7 496.039 4492.26 502.405 Q4486.88 508.713 4477.8 508.713 Q4468.54 508.713 4463.15 502.405 Q4457.77 496.039 4457.77 485.217 Q4457.77 474.338 4463.15 468.03 Q4468.59 461.664 4477.8 461.664 M4418.07 426.421 Q4413.1 426.421 4410.2 430.762 Q4407.37 435.044 4407.37 442.567 Q4407.37 450.206 4410.2 454.488 Q4413.04 458.771 4418.07 458.771 Q4423.11 458.771 4425.94 454.488 Q4428.84 450.206 4428.84 442.567 Q4428.84 435.102 4425.94 430.762 Q4423.05 426.421 4418.07 426.421 M4470.33 419.072 L4479.59 419.072 L4425.54 508.713 L4416.28 508.713 L4470.33 419.072 M4418.07 419.072 Q4427.22 419.072 4432.66 425.438 Q4438.1 431.745 4438.1 442.567 Q4438.1 453.505 4432.66 459.812 Q4427.27 466.12 4418.07 466.12 Q4408.87 466.12 4403.49 459.812 Q4398.17 453.447 4398.17 442.567 Q4398.17 431.803 4403.55 425.438 Q4408.93 419.072 4418.07 419.072 Z" fill="#000000" fill-rule="nonzero" fill-opacity="1" /></svg>
