<?xml version="1.0" encoding="utf-8"?>
<svg xmlns="http://www.w3.org/2000/svg" xmlns:xlink="http://www.w3.org/1999/xlink" width="1200" height="300" viewBox="0 0 4800 1200">
<defs>
  <clipPath id="clip160">
    <rect x="0" y="0" width="4800" height="1200"/>
  </clipPath>
</defs>
<path clip-path="url(#clip160)" d="M0 1200 L4800 1200 L4800 0 L0 0  Z" fill="#ffffff" fill-rule="evenodd" fill-opacity="1"/>
<defs>
  <clipPath id="clip161">
    <rect x="960" y="0" width="3361" height="1200"/>
  </clipPath>
</defs>
<path clip-path="url(#clip160)" d="M827.418 880.951 L4752.76 880.951 L4752.76 47.2441 L827.418 47.2441  Z" fill="#ffffff" fill-rule="evenodd" fill-opacity="1"/>
<defs>
  <clipPath id="clip162">
    <rect x="827" y="47" width="3926" height="835"/>
  </clipPath>
</defs>
<polyline clip-path="url(#clip162)" style="stroke:#000000; stroke-linecap:round; stroke-linejoin:round; stroke-width:2; stroke-opacity:0.1; fill:none" points="1334.66,880.951 1334.66,47.2441 "/>
<polyline clip-path="url(#clip162)" style="stroke:#000000; stroke-linecap:round; stroke-linejoin:round; stroke-width:2; stroke-opacity:0.1; fill:none" points="2161.41,880.951 2161.41,47.2441 "/>
<polyline clip-path="url(#clip162)" style="stroke:#000000; stroke-linecap:round; stroke-linejoin:round; stroke-width:2; stroke-opacity:0.1; fill:none" points="2988.16,880.951 2988.16,47.2441 "/>
<polyline clip-path="url(#clip162)" style="stroke:#000000; stroke-linecap:round; stroke-linejoin:round; stroke-width:2; stroke-opacity:0.1; fill:none" points="3814.91,880.951 3814.91,47.2441 "/>
<polyline clip-path="url(#clip162)" style="stroke:#000000; stroke-linecap:round; stroke-linejoin:round; stroke-width:2; stroke-opacity:0.1; fill:none" points="4641.66,880.951 4641.66,47.2441 "/>
<polyline clip-path="url(#clip160)" style="stroke:#000000; stroke-linecap:round; stroke-linejoin:round; stroke-width:4; stroke-opacity:1; fill:none" points="827.418,880.951 4752.76,880.951 "/>
<polyline clip-path="url(#clip160)" style="stroke:#000000; stroke-linecap:round; stroke-linejoin:round; stroke-width:4; stroke-opacity:1; fill:none" points="1334.66,880.951 1334.66,862.054 "/>
<polyline clip-path="url(#clip160)" style="stroke:#000000; stroke-linecap:round; stroke-linejoin:round; stroke-width:4; stroke-opacity:1; fill:none" points="2161.41,880.951 2161.41,862.054 "/>
<polyline clip-path="url(#clip160)" style="stroke:#000000; stroke-linecap:round; stroke-linejoin:round; stroke-width:4; stroke-opacity:1; fill:none" points="2988.16,880.951 2988.16,862.054 "/>
<polyline clip-path="url(#clip160)" style="stroke:#000000; stroke-linecap:round; stroke-linejoin:round; stroke-width:4; stroke-opacity:1; fill:none" points="3814.91,880.951 3814.91,862.054 "/>
<polyline clip-path="url(#clip160)" style="stroke:#000000; stroke-linecap:round; stroke-linejoin:round; stroke-width:4; stroke-opacity:1; fill:none" points="4641.66,880.951 4641.66,862.054 "/>
<path clip-path="url(#clip160)" d="M1323.97 997.881 L1356.61 997.881 L1356.61 1005.75 L1312.72 1005.75 L1312.72 997.881 Q1318.04 992.372 1327.21 983.113 Q1336.42 973.807 1338.78 971.122 Q1343.27 966.076 1345.03 962.604 Q1346.84 959.085 1346.84 955.705 Q1346.84 950.196 1342.95 946.724 Q1339.11 943.252 1332.9 943.252 Q1328.51 943.252 1323.6 944.78 Q1318.74 946.307 1313.18 949.409 L1313.18 939.965 Q1318.83 937.696 1323.74 936.539 Q1328.64 935.382 1332.72 935.382 Q1343.46 935.382 1349.85 940.752 Q1356.24 946.122 1356.24 955.104 Q1356.24 959.363 1354.62 963.205 Q1353.04 967.002 1348.83 972.187 Q1347.67 973.529 1341.47 979.965 Q1335.27 986.353 1323.97 997.881 Z" fill="#000000" fill-rule="nonzero" fill-opacity="1" /><path clip-path="url(#clip160)" d="M2167.43 944.78 L2143.82 981.678 L2167.43 981.678 L2167.43 944.78 M2164.98 936.631 L2176.74 936.631 L2176.74 981.678 L2186.6 981.678 L2186.6 989.455 L2176.74 989.455 L2176.74 1005.75 L2167.43 1005.75 L2167.43 989.455 L2136.23 989.455 L2136.23 980.428 L2164.98 936.631 Z" fill="#000000" fill-rule="nonzero" fill-opacity="1" /><path clip-path="url(#clip160)" d="M2988.97 967.465 Q2982.68 967.465 2978.97 971.77 Q2975.32 976.076 2975.32 983.576 Q2975.32 991.029 2978.97 995.381 Q2982.68 999.687 2988.97 999.687 Q2995.27 999.687 2998.93 995.381 Q3002.63 991.029 3002.63 983.576 Q3002.63 976.076 2998.93 971.77 Q2995.27 967.465 2988.97 967.465 M3007.54 938.159 L3007.54 946.678 Q3004.02 945.011 3000.41 944.131 Q2996.84 943.252 2993.32 943.252 Q2984.07 943.252 2979.16 949.502 Q2974.3 955.752 2973.6 968.391 Q2976.33 964.363 2980.45 962.233 Q2984.57 960.057 2989.53 960.057 Q2999.94 960.057 3005.96 966.4 Q3012.03 972.696 3012.03 983.576 Q3012.03 994.224 3005.73 1000.66 Q2999.44 1007.09 2988.97 1007.09 Q2976.98 1007.09 2970.64 997.927 Q2964.3 988.715 2964.3 971.261 Q2964.3 954.872 2972.07 945.15 Q2979.85 935.382 2992.95 935.382 Q2996.47 935.382 3000.04 936.076 Q3003.65 936.77 3007.54 938.159 Z" fill="#000000" fill-rule="nonzero" fill-opacity="1" /><path clip-path="url(#clip160)" d="M3814.91 972.928 Q3808.25 972.928 3804.4 976.492 Q3800.61 980.057 3800.61 986.307 Q3800.61 992.557 3804.4 996.122 Q3808.25 999.687 3814.91 999.687 Q3821.58 999.687 3825.42 996.122 Q3829.26 992.511 3829.26 986.307 Q3829.26 980.057 3825.42 976.492 Q3821.62 972.928 3814.91 972.928 M3805.56 968.946 Q3799.54 967.465 3796.16 963.344 Q3792.83 959.224 3792.83 953.298 Q3792.83 945.011 3798.71 940.196 Q3804.63 935.382 3814.91 935.382 Q3825.24 935.382 3831.12 940.196 Q3837 945.011 3837 953.298 Q3837 959.224 3833.62 963.344 Q3830.28 967.465 3824.31 968.946 Q3831.07 970.52 3834.82 975.104 Q3838.62 979.687 3838.62 986.307 Q3838.62 996.353 3832.46 1001.72 Q3826.35 1007.09 3814.91 1007.09 Q3803.48 1007.09 3797.32 1001.72 Q3791.21 996.353 3791.21 986.307 Q3791.21 979.687 3795 975.104 Q3798.8 970.52 3805.56 968.946 M3802.13 954.178 Q3802.13 959.548 3805.47 962.557 Q3808.85 965.567 3814.91 965.567 Q3820.93 965.567 3824.31 962.557 Q3827.74 959.548 3827.74 954.178 Q3827.74 948.807 3824.31 945.798 Q3820.93 942.789 3814.91 942.789 Q3808.85 942.789 3805.47 945.798 Q3802.13 948.807 3802.13 954.178 Z" fill="#000000" fill-rule="nonzero" fill-opacity="1" /><path clip-path="url(#clip160)" d="M4591.04 997.881 L4606.31 997.881 L4606.31 945.15 L4589.69 948.483 L4589.69 939.965 L4606.22 936.631 L4615.57 936.631 L4615.57 997.881 L4630.85 997.881 L4630.85 1005.75 L4591.04 1005.75 L4591.04 997.881 Z" fill="#000000" fill-rule="nonzero" fill-opacity="1" /><path clip-path="url(#clip160)" d="M4669.74 942.789 Q4662.52 942.789 4658.86 949.918 Q4655.25 957.002 4655.25 971.261 Q4655.25 985.474 4658.86 992.603 Q4662.52 999.687 4669.74 999.687 Q4677.01 999.687 4680.62 992.603 Q4684.28 985.474 4684.28 971.261 Q4684.28 957.002 4680.62 949.918 Q4677.01 942.789 4669.74 942.789 M4669.74 935.382 Q4681.36 935.382 4687.47 944.594 Q4693.63 953.761 4693.63 971.261 Q4693.63 988.715 4687.47 997.927 Q4681.36 1007.09 4669.74 1007.09 Q4658.12 1007.09 4651.96 997.927 Q4645.85 988.715 4645.85 971.261 Q4645.85 953.761 4651.96 944.594 Q4658.12 935.382 4669.74 935.382 Z" fill="#000000" fill-rule="nonzero" fill-opacity="1" /><path clip-path="url(#clip160)" d="M2507.33 1072.18 L2573.11 1072.18 L2573.11 1081.04 L2545.5 1081.04 L2545.5 1149.94 L2534.93 1149.94 L2534.93 1081.04 L2507.33 1081.04 L2507.33 1072.18 Z" fill="#000000" fill-rule="nonzero" fill-opacity="1" /><path clip-path="url(#clip160)" d="M2579.57 1091.61 L2589.15 1091.61 L2589.15 1149.94 L2579.57 1149.94 L2579.57 1091.61 M2579.57 1068.9 L2589.15 1068.9 L2589.15 1081.04 L2579.57 1081.04 L2579.57 1068.9 Z" fill="#000000" fill-rule="nonzero" fill-opacity="1" /><path clip-path="url(#clip160)" d="M2654.62 1102.81 Q2658.21 1096.35 2663.21 1093.28 Q2668.21 1090.2 2674.98 1090.2 Q2684.1 1090.2 2689.05 1096.61 Q2693.99 1102.96 2693.99 1114.74 L2693.99 1149.94 L2684.36 1149.94 L2684.36 1115.05 Q2684.36 1106.66 2681.39 1102.6 Q2678.42 1098.54 2672.33 1098.54 Q2664.88 1098.54 2660.56 1103.49 Q2656.23 1108.43 2656.23 1116.97 L2656.23 1149.94 L2646.6 1149.94 L2646.6 1115.05 Q2646.6 1106.61 2643.63 1102.6 Q2640.66 1098.54 2634.46 1098.54 Q2627.12 1098.54 2622.8 1103.54 Q2618.47 1108.49 2618.47 1116.97 L2618.47 1149.94 L2608.84 1149.94 L2608.84 1091.61 L2618.47 1091.61 L2618.47 1100.67 Q2621.75 1095.31 2626.34 1092.76 Q2630.92 1090.2 2637.22 1090.2 Q2643.58 1090.2 2648 1093.43 Q2652.48 1096.66 2654.62 1102.81 Z" fill="#000000" fill-rule="nonzero" fill-opacity="1" /><path clip-path="url(#clip160)" d="M2763 1118.38 L2763 1123.07 L2718.94 1123.07 Q2719.57 1132.96 2724.88 1138.17 Q2730.24 1143.33 2739.77 1143.33 Q2745.3 1143.33 2750.45 1141.97 Q2755.66 1140.62 2760.76 1137.91 L2760.76 1146.97 Q2755.61 1149.16 2750.19 1150.31 Q2744.77 1151.45 2739.2 1151.45 Q2725.24 1151.45 2717.07 1143.33 Q2708.94 1135.2 2708.94 1121.35 Q2708.94 1107.03 2716.65 1098.64 Q2724.41 1090.2 2737.54 1090.2 Q2749.31 1090.2 2756.13 1097.81 Q2763 1105.36 2763 1118.38 M2753.42 1115.57 Q2753.32 1107.7 2748.99 1103.02 Q2744.72 1098.33 2737.64 1098.33 Q2729.62 1098.33 2724.77 1102.86 Q2719.98 1107.39 2719.25 1115.62 L2753.42 1115.57 Z" fill="#000000" fill-rule="nonzero" fill-opacity="1" /><path clip-path="url(#clip160)" d="M2835.66 1069.01 Q2828.68 1080.99 2825.3 1092.7 Q2821.91 1104.42 2821.91 1116.45 Q2821.91 1128.49 2825.3 1140.31 Q2828.73 1152.08 2835.66 1164.01 L2827.33 1164.01 Q2819.51 1151.77 2815.61 1139.94 Q2811.75 1128.12 2811.75 1116.45 Q2811.75 1104.84 2815.61 1093.07 Q2819.46 1081.3 2827.33 1069.01 L2835.66 1069.01 Z" fill="#000000" fill-rule="nonzero" fill-opacity="1" /><path clip-path="url(#clip160)" d="M2892.64 1100.46 L2892.64 1068.9 L2902.22 1068.9 L2902.22 1149.94 L2892.64 1149.94 L2892.64 1141.19 Q2889.62 1146.4 2884.98 1148.95 Q2880.4 1151.45 2873.94 1151.45 Q2863.37 1151.45 2856.7 1143.02 Q2850.09 1134.58 2850.09 1120.83 Q2850.09 1107.08 2856.7 1098.64 Q2863.37 1090.2 2873.94 1090.2 Q2880.4 1090.2 2884.98 1092.76 Q2889.62 1095.26 2892.64 1100.46 M2859.98 1120.83 Q2859.98 1131.4 2864.31 1137.44 Q2868.68 1143.43 2876.28 1143.43 Q2883.89 1143.43 2888.26 1137.44 Q2892.64 1131.4 2892.64 1120.83 Q2892.64 1110.26 2888.26 1104.27 Q2883.89 1098.23 2876.28 1098.23 Q2868.68 1098.23 2864.31 1104.27 Q2859.98 1110.26 2859.98 1120.83 Z" fill="#000000" fill-rule="nonzero" fill-opacity="1" /><path clip-path="url(#clip160)" d="M2948.47 1120.62 Q2936.86 1120.62 2932.38 1123.28 Q2927.9 1125.93 2927.9 1132.34 Q2927.9 1137.44 2931.23 1140.46 Q2934.62 1143.43 2940.4 1143.43 Q2948.37 1143.43 2953.16 1137.81 Q2958 1132.13 2958 1122.76 L2958 1120.62 L2948.47 1120.62 M2967.59 1116.66 L2967.59 1149.94 L2958 1149.94 L2958 1141.09 Q2954.72 1146.4 2949.83 1148.95 Q2944.93 1151.45 2937.85 1151.45 Q2928.89 1151.45 2923.58 1146.45 Q2918.32 1141.4 2918.32 1132.96 Q2918.32 1123.12 2924.88 1118.12 Q2931.49 1113.12 2944.57 1113.12 L2958 1113.12 L2958 1112.18 Q2958 1105.57 2953.63 1101.98 Q2949.3 1098.33 2941.44 1098.33 Q2936.44 1098.33 2931.7 1099.53 Q2926.96 1100.73 2922.59 1103.12 L2922.59 1094.27 Q2927.85 1092.24 2932.79 1091.25 Q2937.74 1090.2 2942.43 1090.2 Q2955.09 1090.2 2961.34 1096.77 Q2967.59 1103.33 2967.59 1116.66 Z" fill="#000000" fill-rule="nonzero" fill-opacity="1" /><path clip-path="url(#clip160)" d="M3011.6 1155.36 Q3007.53 1165.78 3003.68 1168.95 Q2999.83 1172.13 2993.37 1172.13 L2985.71 1172.13 L2985.71 1164.11 L2991.34 1164.11 Q2995.29 1164.11 2997.48 1162.24 Q2999.67 1160.36 3002.33 1153.38 L3004.04 1149.01 L2980.45 1091.61 L2990.61 1091.61 L3008.84 1137.24 L3027.06 1091.61 L3037.22 1091.61 L3011.6 1155.36 Z" fill="#000000" fill-rule="nonzero" fill-opacity="1" /><path clip-path="url(#clip160)" d="M3048.94 1069.01 L3057.27 1069.01 Q3065.09 1081.3 3068.94 1093.07 Q3072.85 1104.84 3072.85 1116.45 Q3072.85 1128.12 3068.94 1139.94 Q3065.09 1151.77 3057.27 1164.01 L3048.94 1164.01 Q3055.87 1152.08 3059.25 1140.31 Q3062.69 1128.49 3062.69 1116.45 Q3062.69 1104.42 3059.25 1092.7 Q3055.87 1080.99 3048.94 1069.01 Z" fill="#000000" fill-rule="nonzero" fill-opacity="1" /><polyline clip-path="url(#clip162)" style="stroke:#000000; stroke-linecap:round; stroke-linejoin:round; stroke-width:2; stroke-opacity:0.1; fill:none" points="827.418,751.269 4752.76,751.269 "/>
<polyline clip-path="url(#clip162)" style="stroke:#000000; stroke-linecap:round; stroke-linejoin:round; stroke-width:2; stroke-opacity:0.1; fill:none" points="827.418,618.967 4752.76,618.967 "/>
<polyline clip-path="url(#clip162)" style="stroke:#000000; stroke-linecap:round; stroke-linejoin:round; stroke-width:2; stroke-opacity:0.1; fill:none" points="827.418,486.665 4752.76,486.665 "/>
<polyline clip-path="url(#clip162)" style="stroke:#000000; stroke-linecap:round; stroke-linejoin:round; stroke-width:2; stroke-opacity:0.1; fill:none" points="827.418,354.363 4752.76,354.363 "/>
<polyline clip-path="url(#clip162)" style="stroke:#000000; stroke-linecap:round; stroke-linejoin:round; stroke-width:2; stroke-opacity:0.1; fill:none" points="827.418,222.061 4752.76,222.061 "/>
<polyline clip-path="url(#clip162)" style="stroke:#000000; stroke-linecap:round; stroke-linejoin:round; stroke-width:2; stroke-opacity:0.1; fill:none" points="827.418,89.7587 4752.76,89.7587 "/>
<polyline clip-path="url(#clip160)" style="stroke:#000000; stroke-linecap:round; stroke-linejoin:round; stroke-width:4; stroke-opacity:1; fill:none" points="827.418,880.951 827.418,47.2441 "/>
<polyline clip-path="url(#clip160)" style="stroke:#000000; stroke-linecap:round; stroke-linejoin:round; stroke-width:4; stroke-opacity:1; fill:none" points="827.418,751.269 846.316,751.269 "/>
<polyline clip-path="url(#clip160)" style="stroke:#000000; stroke-linecap:round; stroke-linejoin:round; stroke-width:4; stroke-opacity:1; fill:none" points="827.418,618.967 846.316,618.967 "/>
<polyline clip-path="url(#clip160)" style="stroke:#000000; stroke-linecap:round; stroke-linejoin:round; stroke-width:4; stroke-opacity:1; fill:none" points="827.418,486.665 846.316,486.665 "/>
<polyline clip-path="url(#clip160)" style="stroke:#000000; stroke-linecap:round; stroke-linejoin:round; stroke-width:4; stroke-opacity:1; fill:none" points="827.418,354.363 846.316,354.363 "/>
<polyline clip-path="url(#clip160)" style="stroke:#000000; stroke-linecap:round; stroke-linejoin:round; stroke-width:4; stroke-opacity:1; fill:none" points="827.418,222.061 846.316,222.061 "/>
<polyline clip-path="url(#clip160)" style="stroke:#000000; stroke-linecap:round; stroke-linejoin:round; stroke-width:4; stroke-opacity:1; fill:none" points="827.418,89.7587 846.316,89.7587 "/>
<path clip-path="url(#clip160)" d="M194.136 765.067 L253.488 765.067 L253.488 772.938 L194.136 772.938 L194.136 765.067 Z" fill="#000000" fill-rule="nonzero" fill-opacity="1" /><path clip-path="url(#clip160)" d="M273.766 729.605 L310.478 729.605 L310.478 737.475 L282.33 737.475 L282.33 754.419 Q284.367 753.725 286.404 753.401 Q288.441 753.03 290.478 753.03 Q302.052 753.03 308.812 759.373 Q315.571 765.715 315.571 776.549 Q315.571 787.706 308.627 793.91 Q301.682 800.067 289.043 800.067 Q284.691 800.067 280.154 799.326 Q275.664 798.586 270.849 797.104 L270.849 787.706 Q275.016 789.975 279.46 791.086 Q283.904 792.197 288.858 792.197 Q296.867 792.197 301.543 787.984 Q306.219 783.771 306.219 776.549 Q306.219 769.327 301.543 765.114 Q296.867 760.901 288.858 760.901 Q285.108 760.901 281.358 761.734 Q277.654 762.567 273.766 764.327 L273.766 729.605 Z" fill="#000000" fill-rule="nonzero" fill-opacity="1" /><path clip-path="url(#clip160)" d="M333.997 786.965 L343.765 786.965 L343.765 798.725 L333.997 798.725 L333.997 786.965 Z" fill="#000000" fill-rule="nonzero" fill-opacity="1" /><path clip-path="url(#clip160)" d="M384.135 735.762 Q376.913 735.762 373.256 742.892 Q369.645 749.975 369.645 764.234 Q369.645 778.447 373.256 785.576 Q376.913 792.66 384.135 792.66 Q391.404 792.66 395.015 785.576 Q398.672 778.447 398.672 764.234 Q398.672 749.975 395.015 742.892 Q391.404 735.762 384.135 735.762 M384.135 728.355 Q395.756 728.355 401.867 737.567 Q408.024 746.734 408.024 764.234 Q408.024 781.688 401.867 790.901 Q395.756 800.067 384.135 800.067 Q372.515 800.067 366.358 790.901 Q360.247 781.688 360.247 764.234 Q360.247 746.734 366.358 737.567 Q372.515 728.355 384.135 728.355 Z" fill="#000000" fill-rule="nonzero" fill-opacity="1" /><path clip-path="url(#clip160)" d="M480.802 747.799 L459.644 769.049 L480.802 790.206 L475.292 795.808 L454.042 774.558 L432.793 795.808 L427.33 790.206 L448.441 769.049 L427.33 747.799 L432.793 742.197 L454.042 763.447 L475.292 742.197 L480.802 747.799 Z" fill="#000000" fill-rule="nonzero" fill-opacity="1" /><path clip-path="url(#clip160)" d="M505.524 790.854 L520.801 790.854 L520.801 738.123 L504.181 741.456 L504.181 732.938 L520.709 729.605 L530.061 729.605 L530.061 790.854 L545.338 790.854 L545.338 798.725 L505.524 798.725 L505.524 790.854 Z" fill="#000000" fill-rule="nonzero" fill-opacity="1" /><path clip-path="url(#clip160)" d="M584.227 735.762 Q577.005 735.762 573.347 742.892 Q569.736 749.975 569.736 764.234 Q569.736 778.447 573.347 785.576 Q577.005 792.66 584.227 792.66 Q591.495 792.66 595.106 785.576 Q598.764 778.447 598.764 764.234 Q598.764 749.975 595.106 742.892 Q591.495 735.762 584.227 735.762 M584.227 728.355 Q595.847 728.355 601.958 737.567 Q608.116 746.734 608.116 764.234 Q608.116 781.688 601.958 790.901 Q595.847 800.067 584.227 800.067 Q572.607 800.067 566.449 790.901 Q560.338 781.688 560.338 764.234 Q560.338 746.734 566.449 737.567 Q572.607 728.355 584.227 728.355 Z" fill="#000000" fill-rule="nonzero" fill-opacity="1" /><path clip-path="url(#clip160)" d="M608.116 716.557 L656.339 716.557 L656.339 722.952 L608.116 722.952 L608.116 716.557 Z" fill="#000000" fill-rule="nonzero" fill-opacity="1" /><path clip-path="url(#clip160)" d="M674.056 737.509 L686.469 737.509 L686.469 694.665 L672.965 697.373 L672.965 690.452 L686.394 687.744 L693.992 687.744 L693.992 737.509 L706.405 737.509 L706.405 743.904 L674.056 743.904 L674.056 737.509 Z" fill="#000000" fill-rule="nonzero" fill-opacity="1" /><path clip-path="url(#clip160)" d="M723.069 737.509 L735.482 737.509 L735.482 694.665 L721.978 697.373 L721.978 690.452 L735.407 687.744 L743.005 687.744 L743.005 737.509 L755.418 737.509 L755.418 743.904 L723.069 743.904 L723.069 737.509 Z" fill="#000000" fill-rule="nonzero" fill-opacity="1" /><path clip-path="url(#clip160)" d="M194.136 632.765 L253.488 632.765 L253.488 640.636 L194.136 640.636 L194.136 632.765 Z" fill="#000000" fill-rule="nonzero" fill-opacity="1" /><path clip-path="url(#clip160)" d="M299.367 605.451 L275.756 642.348 L299.367 642.348 L299.367 605.451 M296.914 597.302 L308.673 597.302 L308.673 642.348 L318.534 642.348 L318.534 650.126 L308.673 650.126 L308.673 666.422 L299.367 666.422 L299.367 650.126 L268.164 650.126 L268.164 641.098 L296.914 597.302 Z" fill="#000000" fill-rule="nonzero" fill-opacity="1" /><path clip-path="url(#clip160)" d="M333.997 654.663 L343.765 654.663 L343.765 666.422 L333.997 666.422 L333.997 654.663 Z" fill="#000000" fill-rule="nonzero" fill-opacity="1" /><path clip-path="url(#clip160)" d="M384.135 603.46 Q376.913 603.46 373.256 610.589 Q369.645 617.673 369.645 631.932 Q369.645 646.145 373.256 653.274 Q376.913 660.358 384.135 660.358 Q391.404 660.358 395.015 653.274 Q398.672 646.145 398.672 631.932 Q398.672 617.673 395.015 610.589 Q391.404 603.46 384.135 603.46 M384.135 596.052 Q395.756 596.052 401.867 605.265 Q408.024 614.432 408.024 631.932 Q408.024 649.385 401.867 658.598 Q395.756 667.765 384.135 667.765 Q372.515 667.765 366.358 658.598 Q360.247 649.385 360.247 631.932 Q360.247 614.432 366.358 605.265 Q372.515 596.052 384.135 596.052 Z" fill="#000000" fill-rule="nonzero" fill-opacity="1" /><path clip-path="url(#clip160)" d="M480.802 615.497 L459.644 636.747 L480.802 657.904 L475.292 663.506 L454.042 642.256 L432.793 663.506 L427.33 657.904 L448.441 636.747 L427.33 615.497 L432.793 609.895 L454.042 631.145 L475.292 609.895 L480.802 615.497 Z" fill="#000000" fill-rule="nonzero" fill-opacity="1" /><path clip-path="url(#clip160)" d="M505.524 658.552 L520.801 658.552 L520.801 605.821 L504.181 609.154 L504.181 600.636 L520.709 597.302 L530.061 597.302 L530.061 658.552 L545.338 658.552 L545.338 666.422 L505.524 666.422 L505.524 658.552 Z" fill="#000000" fill-rule="nonzero" fill-opacity="1" /><path clip-path="url(#clip160)" d="M584.227 603.46 Q577.005 603.46 573.347 610.589 Q569.736 617.673 569.736 631.932 Q569.736 646.145 573.347 653.274 Q577.005 660.358 584.227 660.358 Q591.495 660.358 595.106 653.274 Q598.764 646.145 598.764 631.932 Q598.764 617.673 595.106 610.589 Q591.495 603.46 584.227 603.46 M584.227 596.052 Q595.847 596.052 601.958 605.265 Q608.116 614.432 608.116 631.932 Q608.116 649.385 601.958 658.598 Q595.847 667.765 584.227 667.765 Q572.607 667.765 566.449 658.598 Q560.338 649.385 560.338 631.932 Q560.338 614.432 566.449 605.265 Q572.607 596.052 584.227 596.052 Z" fill="#000000" fill-rule="nonzero" fill-opacity="1" /><path clip-path="url(#clip160)" d="M608.116 584.255 L656.339 584.255 L656.339 590.65 L608.116 590.65 L608.116 584.255 Z" fill="#000000" fill-rule="nonzero" fill-opacity="1" /><path clip-path="url(#clip160)" d="M674.056 605.207 L686.469 605.207 L686.469 562.363 L672.965 565.071 L672.965 558.15 L686.394 555.442 L693.992 555.442 L693.992 605.207 L706.405 605.207 L706.405 611.602 L674.056 611.602 L674.056 605.207 Z" fill="#000000" fill-rule="nonzero" fill-opacity="1" /><path clip-path="url(#clip160)" d="M723.069 605.207 L735.482 605.207 L735.482 562.363 L721.978 565.071 L721.978 558.15 L735.407 555.442 L743.005 555.442 L743.005 605.207 L755.418 605.207 L755.418 611.602 L723.069 611.602 L723.069 605.207 Z" fill="#000000" fill-rule="nonzero" fill-opacity="1" /><path clip-path="url(#clip160)" d="M194.136 500.463 L253.488 500.463 L253.488 508.333 L194.136 508.333 L194.136 500.463 Z" fill="#000000" fill-rule="nonzero" fill-opacity="1" /><path clip-path="url(#clip160)" d="M302.006 496.852 Q308.719 498.287 312.469 502.824 Q316.265 507.361 316.265 514.028 Q316.265 524.259 309.228 529.861 Q302.191 535.463 289.228 535.463 Q284.877 535.463 280.247 534.583 Q275.664 533.75 270.756 532.037 L270.756 523.009 Q274.645 525.278 279.275 526.435 Q283.904 527.593 288.951 527.593 Q297.747 527.593 302.33 524.12 Q306.96 520.648 306.96 514.028 Q306.96 507.917 302.654 504.491 Q298.395 501.019 290.756 501.019 L282.701 501.019 L282.701 493.333 L291.127 493.333 Q298.025 493.333 301.682 490.602 Q305.339 487.824 305.339 482.639 Q305.339 477.315 301.543 474.491 Q297.793 471.621 290.756 471.621 Q286.914 471.621 282.516 472.454 Q278.117 473.287 272.84 475.047 L272.84 466.713 Q278.164 465.232 282.793 464.491 Q287.469 463.75 291.59 463.75 Q302.238 463.75 308.441 468.611 Q314.645 473.426 314.645 481.667 Q314.645 487.408 311.358 491.389 Q308.071 495.324 302.006 496.852 Z" fill="#000000" fill-rule="nonzero" fill-opacity="1" /><path clip-path="url(#clip160)" d="M333.997 522.361 L343.765 522.361 L343.765 534.12 L333.997 534.12 L333.997 522.361 Z" fill="#000000" fill-rule="nonzero" fill-opacity="1" /><path clip-path="url(#clip160)" d="M384.135 471.158 Q376.913 471.158 373.256 478.287 Q369.645 485.371 369.645 499.63 Q369.645 513.843 373.256 520.972 Q376.913 528.055 384.135 528.055 Q391.404 528.055 395.015 520.972 Q398.672 513.843 398.672 499.63 Q398.672 485.371 395.015 478.287 Q391.404 471.158 384.135 471.158 M384.135 463.75 Q395.756 463.75 401.867 472.963 Q408.024 482.13 408.024 499.63 Q408.024 517.083 401.867 526.296 Q395.756 535.463 384.135 535.463 Q372.515 535.463 366.358 526.296 Q360.247 517.083 360.247 499.63 Q360.247 482.13 366.358 472.963 Q372.515 463.75 384.135 463.75 Z" fill="#000000" fill-rule="nonzero" fill-opacity="1" /><path clip-path="url(#clip160)" d="M480.802 483.195 L459.644 504.445 L480.802 525.602 L475.292 531.204 L454.042 509.954 L432.793 531.204 L427.33 525.602 L448.441 504.445 L427.33 483.195 L432.793 477.593 L454.042 498.843 L475.292 477.593 L480.802 483.195 Z" fill="#000000" fill-rule="nonzero" fill-opacity="1" /><path clip-path="url(#clip160)" d="M505.524 526.25 L520.801 526.25 L520.801 473.519 L504.181 476.852 L504.181 468.334 L520.709 465 L530.061 465 L530.061 526.25 L545.338 526.25 L545.338 534.12 L505.524 534.12 L505.524 526.25 Z" fill="#000000" fill-rule="nonzero" fill-opacity="1" /><path clip-path="url(#clip160)" d="M584.227 471.158 Q577.005 471.158 573.347 478.287 Q569.736 485.371 569.736 499.63 Q569.736 513.843 573.347 520.972 Q577.005 528.055 584.227 528.055 Q591.495 528.055 595.106 520.972 Q598.764 513.843 598.764 499.63 Q598.764 485.371 595.106 478.287 Q591.495 471.158 584.227 471.158 M584.227 463.75 Q595.847 463.75 601.958 472.963 Q608.116 482.13 608.116 499.63 Q608.116 517.083 601.958 526.296 Q595.847 535.463 584.227 535.463 Q572.607 535.463 566.449 526.296 Q560.338 517.083 560.338 499.63 Q560.338 482.13 566.449 472.963 Q572.607 463.75 584.227 463.75 Z" fill="#000000" fill-rule="nonzero" fill-opacity="1" /><path clip-path="url(#clip160)" d="M608.116 451.953 L656.339 451.953 L656.339 458.348 L608.116 458.348 L608.116 451.953 Z" fill="#000000" fill-rule="nonzero" fill-opacity="1" /><path clip-path="url(#clip160)" d="M674.056 472.905 L686.469 472.905 L686.469 430.061 L672.965 432.769 L672.965 425.848 L686.394 423.139 L693.992 423.139 L693.992 472.905 L706.405 472.905 L706.405 479.299 L674.056 479.299 L674.056 472.905 Z" fill="#000000" fill-rule="nonzero" fill-opacity="1" /><path clip-path="url(#clip160)" d="M723.069 472.905 L735.482 472.905 L735.482 430.061 L721.978 432.769 L721.978 425.848 L735.407 423.139 L743.005 423.139 L743.005 472.905 L755.418 472.905 L755.418 479.299 L723.069 479.299 L723.069 472.905 Z" fill="#000000" fill-rule="nonzero" fill-opacity="1" /><path clip-path="url(#clip160)" d="M194.136 368.161 L253.488 368.161 L253.488 376.031 L194.136 376.031 L194.136 368.161 Z" fill="#000000" fill-rule="nonzero" fill-opacity="1" /><path clip-path="url(#clip160)" d="M281.729 393.948 L314.367 393.948 L314.367 401.818 L270.479 401.818 L270.479 393.948 Q275.803 388.439 284.969 379.179 Q294.182 369.874 296.543 367.189 Q301.034 362.142 302.793 358.67 Q304.599 355.152 304.599 351.772 Q304.599 346.263 300.71 342.791 Q296.867 339.318 290.664 339.318 Q286.266 339.318 281.358 340.846 Q276.497 342.374 270.942 345.476 L270.942 336.031 Q276.59 333.763 281.497 332.606 Q286.404 331.448 290.478 331.448 Q301.219 331.448 307.608 336.818 Q313.997 342.189 313.997 351.17 Q313.997 355.429 312.376 359.272 Q310.802 363.068 306.589 368.254 Q305.432 369.596 299.228 376.031 Q293.025 382.42 281.729 393.948 Z" fill="#000000" fill-rule="nonzero" fill-opacity="1" /><path clip-path="url(#clip160)" d="M333.997 390.059 L343.765 390.059 L343.765 401.818 L333.997 401.818 L333.997 390.059 Z" fill="#000000" fill-rule="nonzero" fill-opacity="1" /><path clip-path="url(#clip160)" d="M384.135 338.856 Q376.913 338.856 373.256 345.985 Q369.645 353.068 369.645 367.328 Q369.645 381.54 373.256 388.67 Q376.913 395.753 384.135 395.753 Q391.404 395.753 395.015 388.67 Q398.672 381.54 398.672 367.328 Q398.672 353.068 395.015 345.985 Q391.404 338.856 384.135 338.856 M384.135 331.448 Q395.756 331.448 401.867 340.661 Q408.024 349.828 408.024 367.328 Q408.024 384.781 401.867 393.994 Q395.756 403.161 384.135 403.161 Q372.515 403.161 366.358 393.994 Q360.247 384.781 360.247 367.328 Q360.247 349.828 366.358 340.661 Q372.515 331.448 384.135 331.448 Z" fill="#000000" fill-rule="nonzero" fill-opacity="1" /><path clip-path="url(#clip160)" d="M480.802 350.892 L459.644 372.142 L480.802 393.3 L475.292 398.901 L454.042 377.652 L432.793 398.901 L427.33 393.3 L448.441 372.142 L427.33 350.892 L432.793 345.291 L454.042 366.541 L475.292 345.291 L480.802 350.892 Z" fill="#000000" fill-rule="nonzero" fill-opacity="1" /><path clip-path="url(#clip160)" d="M505.524 393.948 L520.801 393.948 L520.801 341.217 L504.181 344.55 L504.181 336.031 L520.709 332.698 L530.061 332.698 L530.061 393.948 L545.338 393.948 L545.338 401.818 L505.524 401.818 L505.524 393.948 Z" fill="#000000" fill-rule="nonzero" fill-opacity="1" /><path clip-path="url(#clip160)" d="M584.227 338.856 Q577.005 338.856 573.347 345.985 Q569.736 353.068 569.736 367.328 Q569.736 381.54 573.347 388.67 Q577.005 395.753 584.227 395.753 Q591.495 395.753 595.106 388.67 Q598.764 381.54 598.764 367.328 Q598.764 353.068 595.106 345.985 Q591.495 338.856 584.227 338.856 M584.227 331.448 Q595.847 331.448 601.958 340.661 Q608.116 349.828 608.116 367.328 Q608.116 384.781 601.958 393.994 Q595.847 403.161 584.227 403.161 Q572.607 403.161 566.449 393.994 Q560.338 384.781 560.338 367.328 Q560.338 349.828 566.449 340.661 Q572.607 331.448 584.227 331.448 Z" fill="#000000" fill-rule="nonzero" fill-opacity="1" /><path clip-path="url(#clip160)" d="M608.116 319.651 L656.339 319.651 L656.339 326.045 L608.116 326.045 L608.116 319.651 Z" fill="#000000" fill-rule="nonzero" fill-opacity="1" /><path clip-path="url(#clip160)" d="M674.056 340.603 L686.469 340.603 L686.469 297.759 L672.965 300.467 L672.965 293.546 L686.394 290.837 L693.992 290.837 L693.992 340.603 L706.405 340.603 L706.405 346.997 L674.056 346.997 L674.056 340.603 Z" fill="#000000" fill-rule="nonzero" fill-opacity="1" /><path clip-path="url(#clip160)" d="M723.069 340.603 L735.482 340.603 L735.482 297.759 L721.978 300.467 L721.978 293.546 L735.407 290.837 L743.005 290.837 L743.005 340.603 L755.418 340.603 L755.418 346.997 L723.069 346.997 L723.069 340.603 Z" fill="#000000" fill-rule="nonzero" fill-opacity="1" /><path clip-path="url(#clip160)" d="M194.136 235.859 L253.488 235.859 L253.488 243.729 L194.136 243.729 L194.136 235.859 Z" fill="#000000" fill-rule="nonzero" fill-opacity="1" /><path clip-path="url(#clip160)" d="M275.293 261.646 L290.571 261.646 L290.571 208.914 L273.951 212.248 L273.951 203.729 L290.478 200.396 L299.83 200.396 L299.83 261.646 L315.108 261.646 L315.108 269.516 L275.293 269.516 L275.293 261.646 Z" fill="#000000" fill-rule="nonzero" fill-opacity="1" /><path clip-path="url(#clip160)" d="M333.997 257.757 L343.765 257.757 L343.765 269.516 L333.997 269.516 L333.997 257.757 Z" fill="#000000" fill-rule="nonzero" fill-opacity="1" /><path clip-path="url(#clip160)" d="M384.135 206.553 Q376.913 206.553 373.256 213.683 Q369.645 220.766 369.645 235.025 Q369.645 249.238 373.256 256.368 Q376.913 263.451 384.135 263.451 Q391.404 263.451 395.015 256.368 Q398.672 249.238 398.672 235.025 Q398.672 220.766 395.015 213.683 Q391.404 206.553 384.135 206.553 M384.135 199.146 Q395.756 199.146 401.867 208.359 Q408.024 217.526 408.024 235.025 Q408.024 252.479 401.867 261.692 Q395.756 270.859 384.135 270.859 Q372.515 270.859 366.358 261.692 Q360.247 252.479 360.247 235.025 Q360.247 217.526 366.358 208.359 Q372.515 199.146 384.135 199.146 Z" fill="#000000" fill-rule="nonzero" fill-opacity="1" /><path clip-path="url(#clip160)" d="M480.802 218.59 L459.644 239.84 L480.802 260.998 L475.292 266.599 L454.042 245.349 L432.793 266.599 L427.33 260.998 L448.441 239.84 L427.33 218.59 L432.793 212.989 L454.042 234.238 L475.292 212.989 L480.802 218.59 Z" fill="#000000" fill-rule="nonzero" fill-opacity="1" /><path clip-path="url(#clip160)" d="M505.524 261.646 L520.801 261.646 L520.801 208.914 L504.181 212.248 L504.181 203.729 L520.709 200.396 L530.061 200.396 L530.061 261.646 L545.338 261.646 L545.338 269.516 L505.524 269.516 L505.524 261.646 Z" fill="#000000" fill-rule="nonzero" fill-opacity="1" /><path clip-path="url(#clip160)" d="M584.227 206.553 Q577.005 206.553 573.347 213.683 Q569.736 220.766 569.736 235.025 Q569.736 249.238 573.347 256.368 Q577.005 263.451 584.227 263.451 Q591.495 263.451 595.106 256.368 Q598.764 249.238 598.764 235.025 Q598.764 220.766 595.106 213.683 Q591.495 206.553 584.227 206.553 M584.227 199.146 Q595.847 199.146 601.958 208.359 Q608.116 217.526 608.116 235.025 Q608.116 252.479 601.958 261.692 Q595.847 270.859 584.227 270.859 Q572.607 270.859 566.449 261.692 Q560.338 252.479 560.338 235.025 Q560.338 217.526 566.449 208.359 Q572.607 199.146 584.227 199.146 Z" fill="#000000" fill-rule="nonzero" fill-opacity="1" /><path clip-path="url(#clip160)" d="M608.116 187.349 L656.339 187.349 L656.339 193.743 L608.116 193.743 L608.116 187.349 Z" fill="#000000" fill-rule="nonzero" fill-opacity="1" /><path clip-path="url(#clip160)" d="M674.056 208.301 L686.469 208.301 L686.469 165.456 L672.965 168.165 L672.965 161.244 L686.394 158.535 L693.992 158.535 L693.992 208.301 L706.405 208.301 L706.405 214.695 L674.056 214.695 L674.056 208.301 Z" fill="#000000" fill-rule="nonzero" fill-opacity="1" /><path clip-path="url(#clip160)" d="M723.069 208.301 L735.482 208.301 L735.482 165.456 L721.978 168.165 L721.978 161.244 L735.407 158.535 L743.005 158.535 L743.005 208.301 L755.418 208.301 L755.418 214.695 L723.069 214.695 L723.069 208.301 Z" fill="#000000" fill-rule="nonzero" fill-opacity="1" /><path clip-path="url(#clip160)" d="M731.529 61.356 Q724.307 61.356 720.65 68.4856 Q717.039 75.5689 717.039 89.8281 Q717.039 104.041 720.65 111.171 Q724.307 118.254 731.529 118.254 Q738.798 118.254 742.409 111.171 Q746.066 104.041 746.066 89.8281 Q746.066 75.5689 742.409 68.4856 Q738.798 61.356 731.529 61.356 M731.529 53.9487 Q743.15 53.9487 749.261 63.1616 Q755.418 72.3282 755.418 89.8281 Q755.418 107.282 749.261 116.495 Q743.15 125.661 731.529 125.661 Q719.909 125.661 713.752 116.495 Q707.641 107.282 707.641 89.8281 Q707.641 72.3282 713.752 63.1616 Q719.909 53.9487 731.529 53.9487 Z" fill="#000000" fill-rule="nonzero" fill-opacity="1" /><path clip-path="url(#clip160)" d="M21.0484 706.544 L21.0484 696.024 L52.9232 696.024 L52.9232 657.795 L21.0484 657.795 L21.0484 647.274 L98.8084 647.274 L98.8084 657.795 L61.7773 657.795 L61.7773 696.024 L98.8084 696.024 L98.8084 706.544 L21.0484 706.544 Z" fill="#000000" fill-rule="nonzero" fill-opacity="1" /><path clip-path="url(#clip160)" d="M89.9543 616.337 L89.9543 579.618 L98.8084 579.618 L98.8084 628.993 L89.9543 628.993 Q83.7564 623.003 73.3398 612.691 Q62.8711 602.326 59.8503 599.67 Q54.1732 594.618 50.267 592.639 Q46.3087 590.608 42.5066 590.608 Q36.3087 590.608 32.4025 594.983 Q28.4963 599.305 28.4963 606.285 Q28.4963 611.232 30.215 616.753 Q31.9337 622.222 35.4233 628.472 L24.7984 628.472 Q22.2463 622.118 20.9442 616.597 Q19.6421 611.076 19.6421 606.493 Q19.6421 594.41 25.6838 587.222 Q31.7254 580.035 41.8295 580.035 Q46.6212 580.035 50.9441 581.858 Q55.2149 583.628 61.0482 588.368 Q62.5586 589.67 69.7981 596.649 Q76.9856 603.628 89.9543 616.337 Z" fill="#000000" fill-rule="nonzero" fill-opacity="1" /><path clip-path="url(#clip160)" d="M17.8713 501.962 Q29.8504 508.941 41.5691 512.327 Q53.2878 515.712 65.319 515.712 Q77.3502 515.712 89.173 512.327 Q100.944 508.889 112.871 501.962 L112.871 510.295 Q100.631 518.108 88.8084 522.014 Q76.9856 525.868 65.319 525.868 Q53.7045 525.868 41.9337 522.014 Q30.1629 518.16 17.8713 510.295 L17.8713 501.962 Z" fill="#000000" fill-rule="nonzero" fill-opacity="1" /><path clip-path="url(#clip160)" d="M90.0584 474.098 L120.996 474.098 L120.996 483.733 L40.4754 483.733 L40.4754 474.098 L49.3295 474.098 Q44.1212 471.077 41.6212 466.494 Q39.0691 461.858 39.0691 455.452 Q39.0691 444.827 47.5066 438.213 Q55.944 431.546 69.694 431.546 Q83.4439 431.546 91.8813 438.213 Q100.319 444.827 100.319 455.452 Q100.319 461.858 97.8188 466.494 Q95.2667 471.077 90.0584 474.098 M69.694 441.494 Q59.1211 441.494 53.1315 445.869 Q47.0899 450.192 47.0899 457.796 Q47.0899 465.4 53.1315 469.775 Q59.1211 474.098 69.694 474.098 Q80.2668 474.098 86.3084 469.775 Q92.298 465.4 92.298 457.796 Q92.298 450.192 86.3084 445.869 Q80.2668 441.494 69.694 441.494 Z" fill="#000000" fill-rule="nonzero" fill-opacity="1" /><path clip-path="url(#clip160)" d="M90.0584 406.39 L120.996 406.39 L120.996 416.025 L40.4754 416.025 L40.4754 406.39 L49.3295 406.39 Q44.1212 403.369 41.6212 398.786 Q39.0691 394.15 39.0691 387.744 Q39.0691 377.119 47.5066 370.505 Q55.944 363.838 69.694 363.838 Q83.4439 363.838 91.8813 370.505 Q100.319 377.119 100.319 387.744 Q100.319 394.15 97.8188 398.786 Q95.2667 403.369 90.0584 406.39 M69.694 373.786 Q59.1211 373.786 53.1315 378.161 Q47.0899 382.484 47.0899 390.088 Q47.0899 397.692 53.1315 402.067 Q59.1211 406.39 69.694 406.39 Q80.2668 406.39 86.3084 402.067 Q92.298 397.692 92.298 390.088 Q92.298 382.484 86.3084 378.161 Q80.2668 373.786 69.694 373.786 Z" fill="#000000" fill-rule="nonzero" fill-opacity="1" /><path clip-path="url(#clip160)" d="M51.6732 302.536 Q45.2149 298.942 42.142 293.942 Q39.0691 288.942 39.0691 282.172 Q39.0691 273.057 45.4753 268.109 Q51.8295 263.161 63.6002 263.161 L98.8084 263.161 L98.8084 272.797 L63.9127 272.797 Q55.5274 272.797 51.4649 275.765 Q47.4024 278.734 47.4024 284.828 Q47.4024 292.276 52.3503 296.599 Q57.2982 300.922 65.8398 300.922 L98.8084 300.922 L98.8084 310.557 L63.9127 310.557 Q55.4753 310.557 51.4649 313.526 Q47.4024 316.494 47.4024 322.692 Q47.4024 330.036 52.4024 334.359 Q57.3503 338.682 65.8398 338.682 L98.8084 338.682 L98.8084 348.317 L40.4754 348.317 L40.4754 338.682 L49.5378 338.682 Q44.1733 335.401 41.6212 330.817 Q39.0691 326.234 39.0691 319.932 Q39.0691 313.578 42.2983 309.151 Q45.5274 304.672 51.6732 302.536 Z" fill="#000000" fill-rule="nonzero" fill-opacity="1" /><path clip-path="url(#clip160)" d="M17.8713 245.557 L17.8713 237.224 Q30.1629 229.412 41.9337 225.557 Q53.7045 221.651 65.319 221.651 Q76.9856 221.651 88.8084 225.557 Q100.631 229.412 112.871 237.224 L112.871 245.557 Q100.944 238.63 89.173 235.245 Q77.3502 231.807 65.319 231.807 Q53.2878 231.807 41.5691 235.245 Q29.8504 238.63 17.8713 245.557 Z" fill="#000000" fill-rule="nonzero" fill-opacity="1" /><path clip-path="url(#clip162)" d="M938.513 125.847 L955.737 640.332 L972.96 648.472 L990.184 650.925 L1007.41 650.066 L1024.63 656.092 L1041.86 661.958 L1059.08 667.995 L1076.3 671.879 L1093.53 674.936 L1110.75 677.979 L1127.98 679.858 L1145.2 680.811 L1162.42 681.394 L1179.65 678.328 L1196.87 673.19 L1214.1 667.662 L1231.32 808.568 L1248.54 669.353 L1265.77 706.405 L1282.99 663.412 L1300.22 664.228 L1317.44 664.778 L1334.66 662.179 L1351.89 659.405 L1369.11 687.1 L1386.34 662.68 L1403.56 668.217 L1420.78 662.838 L1438.01 667.806 L1455.23 673.599 L1472.45 680.151 L1489.68 683.384 L1506.9 687.406 L1524.13 690.547 L1541.35 693.076 L1558.57 693.744 L1575.8 693.632 L1593.02 690.236 L1610.25 685.152 L1627.47 679.481 L1644.69 750.348 L1661.92 697.145 L1679.14 712.206 L1696.37 674.532 L1713.59 675.617 L1730.81 675.959 L1748.04 673.455 L1765.26 670.571 L1782.49 674.009 L1799.71 674.939 L1816.93 676.736 L1834.16 675.109 L1851.38 679.686 L1868.61 685.561 L1885.83 692.263 L1903.05 695.697 L1920.28 699.722 L1937.5 702.727 L1954.73 705.333 L1971.95 706.006 L1989.17 705.868 L2006.4 702.367 L2023.62 697.164 L2040.85 691.512 L2058.07 793.754 L2075.29 699.987 L2092.52 723.833 L2109.74 685.85 L2126.96 686.891 L2144.19 687.301 L2161.41 684.721 L2178.64 681.823 L2195.86 686.482 L2213.08 687.731 L2230.31 689.182 L2247.53 687.685 L2264.76 691.654 L2281.98 697.619 L2299.2 704.427 L2316.43 707.855 L2333.65 711.963 L2350.88 715.089 L2368.1 717.701 L2385.32 718.297 L2402.55 718.116 L2419.77 714.586 L2437 709.281 L2454.22 703.483 L2471.44 791.179 L2488.67 716.073 L2505.89 735.429 L2523.12 697.156 L2540.34 698.219 L2557.56 698.723 L2574.79 696.026 L2592.01 694.412 L2609.24 699.041 L2626.46 700.351 L2643.68 701.762 L2660.91 700.367 L2678.13 703.649 L2695.36 709.728 L2712.58 716.635 L2729.8 720.191 L2747.03 724.35 L2764.25 727.467 L2781.48 730.085 L2798.7 730.712 L2815.92 730.478 L2833.15 726.839 L2850.37 721.449 L2867.59 715.586 L2884.82 809.703 L2902.04 726.362 L2919.27 747.64 L2936.49 708.716 L2953.71 709.505 L2970.94 710.172 L2988.16 707.502 L3005.39 706.89 L3022.61 711.668 L3039.83 712.99 L3057.06 714.512 L3074.28 713.035 L3091.51 715.733 L3108.73 721.905 L3125.95 728.904 L3143.18 732.52 L3160.4 736.754 L3177.63 739.932 L3194.85 742.56 L3212.07 743.135 L3229.3 742.847 L3246.52 739.161 L3263.75 733.679 L3280.97 727.723 L3298.19 819.592 L3315.42 739.18 L3332.64 758.653 L3349.87 720.111 L3367.09 721.091 L3384.31 721.527 L3401.54 719.01 L3418.76 719.544 L3435.99 724.366 L3453.21 725.759 L3470.43 727.248 L3487.66 725.682 L3504.88 727.849 L3522.1 734.156 L3539.33 741.263 L3556.55 744.973 L3573.78 749.263 L3591 752.465 L3608.22 755.098 L3625.45 755.643 L3642.67 755.325 L3659.9 751.555 L3677.12 745.978 L3694.34 739.917 L3711.57 832.913 L3728.79 751.157 L3746.02 771.306 L3763.24 731.536 L3780.46 732.698 L3797.69 733.083 L3814.91 730.444 L3832.14 732.285 L3849.36 737.125 L3866.58 738.525 L3883.81 740.056 L3901.03 738.652 L3918.26 740.051 L3935.48 746.468 L3952.7 753.662 L3969.93 757.436 L3987.15 761.8 L4004.38 765.058 L4021.6 767.706 L4038.82 768.237 L4056.05 767.849 L4073.27 764.034 L4090.5 758.363 L4107.72 752.19 L4124.94 845.257 L4142.17 763.434 L4159.39 782.128 L4176.61 743.099 L4193.84 744.299 L4211.06 744.69 L4228.29 742.006 L4245.51 744.905 L4262.73 749.945 L4279.96 751.366 L4297.18 753.04 L4314.41 751.366 L4331.63 752.322 L4348.85 758.828 L4366.08 766.141 L4383.3 770.028 L4400.53 774.439 L4417.75 777.718 L4434.97 780.368 L4452.2 780.868 L4469.42 780.462 L4486.65 776.547 L4503.87 770.797 L4521.09 764.517 L4538.32 857.356 L4555.54 775.869 L4572.77 794.148 L4589.99 754.731 L4607.21 755.943 L4624.44 756.366 L4641.66 753.697 L4641.66 271.479 L4624.44 273.29 L4607.21 271.725 L4589.99 273.675 L4572.77 273.299 L4555.54 272.216 L4538.32 272.099 L4521.09 271.761 L4503.87 271.585 L4486.65 270.614 L4469.42 270.865 L4452.2 269.649 L4434.97 270.077 L4417.75 269.514 L4400.53 268.807 L4383.3 267.574 L4366.08 268.449 L4348.85 268.483 L4331.63 270.375 L4314.41 271.88 L4297.18 271.489 L4279.96 268.537 L4262.73 265.995 L4245.51 264.841 L4228.29 265.448 L4211.06 267.575 L4193.84 265.882 L4176.61 267.764 L4159.39 267.347 L4142.17 266.276 L4124.94 266.29 L4107.72 266.068 L4090.5 265.612 L4073.27 264.576 L4056.05 265.175 L4038.82 264.338 L4021.6 264.386 L4004.38 263.876 L3987.15 263.035 L3969.93 261.769 L3952.7 262.825 L3935.48 262.848 L3918.26 264.463 L3901.03 265.987 L3883.81 265.446 L3866.58 262.328 L3849.36 260.138 L3832.14 259.092 L3814.91 259.461 L3797.69 261.661 L3780.46 259.959 L3763.24 261.75 L3746.02 261.458 L3728.79 260.412 L3711.57 260.442 L3694.34 260.187 L3677.12 259.754 L3659.9 258.857 L3642.67 259.425 L3625.45 258.26 L3608.22 257.543 L3591 258.208 L3573.78 257.269 L3556.55 256.03 L3539.33 257.02 L3522.1 256.993 L3504.88 258.576 L3487.66 260.062 L3470.43 259.482 L3453.21 256.394 L3435.99 254.299 L3418.76 253.323 L3401.54 253.602 L3384.31 255.259 L3367.09 254.091 L3349.87 256.031 L3332.64 255.586 L3315.42 254.551 L3298.19 254.493 L3280.97 254.424 L3263.75 254.216 L3246.52 253.073 L3229.3 253.324 L3212.07 252.613 L3194.85 252.863 L3177.63 252.557 L3160.4 251.422 L3143.18 250.017 L3125.95 250.894 L3108.73 250.875 L3091.51 252.662 L3074.28 254.152 L3057.06 253.734 L3039.83 250.511 L3022.61 248.111 L3005.39 247.182 L2988.16 247.641 L2970.94 249.664 L2953.71 247.984 L2936.49 248.696 L2919.27 247.666 L2902.04 247.994 L2884.82 248.738 L2867.59 248.498 L2850.37 248.379 L2833.15 247.486 L2815.92 247.798 L2798.7 246.714 L2781.48 244.981 L2764.25 245.104 L2747.03 245.61 L2729.8 244.258 L2712.58 245.058 L2695.36 245.008 L2678.13 246.813 L2660.91 248.17 L2643.68 247.755 L2626.46 244.742 L2609.24 242.161 L2592.01 241.049 L2574.79 241.643 L2557.56 243.671 L2540.34 241.811 L2523.12 240.749 L2505.89 239.702 L2488.67 239.993 L2471.44 241.739 L2454.22 242.871 L2437 242.54 L2419.77 241.548 L2402.55 241.253 L2385.32 240.288 L2368.1 237.232 L2350.88 237.355 L2333.65 239.947 L2316.43 238.679 L2299.2 239.606 L2281.98 239.5 L2264.76 241.042 L2247.53 240.609 L2230.31 240.081 L2213.08 238.746 L2195.86 236.639 L2178.64 235.592 L2161.41 235.881 L2144.19 236.14 L2126.96 233.92 L2109.74 232.809 L2092.52 231.699 L2075.29 231.993 L2058.07 233.786 L2040.85 235.244 L2023.62 235.34 L2006.4 234.157 L1989.17 233.418 L1971.95 232.515 L1954.73 229.411 L1937.5 229.594 L1920.28 233.414 L1903.05 232.817 L1885.83 233.641 L1868.61 233.543 L1851.38 233.86 L1834.16 232.97 L1816.93 232.497 L1799.71 231.931 L1782.49 230.483 L1765.26 229.598 L1748.04 228.98 L1730.81 228.309 L1713.59 226.103 L1696.37 224.872 L1679.14 223.791 L1661.92 224.077 L1644.69 225.769 L1627.47 227.246 L1610.25 227.496 L1593.02 226.352 L1575.8 225.777 L1558.57 225.12 L1541.35 221.72 L1524.13 221.89 L1506.9 225.693 L1489.68 226.142 L1472.45 227.677 L1455.23 226.855 L1438.01 226.348 L1420.78 225.558 L1403.56 225 L1386.34 224.414 L1369.11 224.401 L1351.89 222.691 L1334.66 221.272 L1317.44 220.74 L1300.22 218.309 L1282.99 217.229 L1265.77 215.943 L1248.54 216.09 L1231.32 217.921 L1214.1 217.042 L1196.87 217.703 L1179.65 219.245 L1162.42 220.612 L1145.2 221.079 L1127.98 214.808 L1110.75 213.047 L1093.53 217.552 L1076.3 218.646 L1059.08 217.686 L1041.86 216.342 L1024.63 215.594 L1007.41 216.978 L990.184 216.887 L972.96 216.282 L955.737 214.216 L938.513 70.8396  Z" fill="#b0b0b0" fill-rule="evenodd" fill-opacity="0.5"/>
<polyline clip-path="url(#clip162)" style="stroke:#b0b0b0; stroke-linecap:round; stroke-linejoin:round; stroke-width:0; stroke-opacity:1; fill:none" points="938.513,85.9465 955.737,235.796 972.96,238.026 990.184,238.351 1007.41,238.284 1024.63,238.375 1041.86,238.476 1059.08,239.096 1076.3,239.247 1093.53,239.082 1110.75,239.438 1127.98,239.852 1145.2,239.891 1162.42,240.526 1179.65,240.721 1196.87,240.702 1214.1,240.904 1231.32,240.875 1248.54,240.591 1265.77,241.38 1282.99,241.596 1300.22,241.306 1317.44,242.388 1334.66,241.74 1351.89,242.181 1369.11,242.576 1386.34,242.52 1403.56,242.638 1420.78,242.691 1438.01,242.941 1455.23,242.921 1472.45,243.937 1489.68,243.063 1506.9,243.543 1524.13,243.742 1541.35,244.329 1558.57,244.012 1575.8,244.62 1593.02,244.839 1610.25,244.731 1627.47,244.776 1644.69,244.831 1661.92,244.741 1679.14,245.515 1696.37,245.597 1713.59,245.458 1730.81,246.326 1748.04,245.829 1765.26,246.196 1782.49,246.559 1799.71,246.527 1816.93,246.644 1834.16,246.632 1851.38,246.977 1868.61,246.928 1885.83,247.971 1903.05,247.274 1920.28,247.661 1937.5,247.7 1954.73,248.36 1971.95,248.07 1989.17,248.703 2006.4,248.873 2023.62,248.75 2040.85,248.9 2058.07,248.95 2075.29,248.756 2092.52,249.57 2109.74,249.694 2126.96,249.481 2144.19,250.395 2161.41,249.883 2178.64,250.26 2195.86,250.6 2213.08,250.61 2230.31,250.686 2247.53,250.738 2264.76,251.061 2281.98,250.993 2299.2,252.038 2316.43,251.266 2333.65,251.668 2350.88,251.795 2368.1,252.455 2385.32,252.109 2402.55,252.748 2419.77,252.955 2437,252.824 2454.22,252.923 2471.44,252.985 2488.67,252.835 2505.89,253.631 2523.12,253.721 2540.34,253.562 2557.56,254.471 2574.79,253.944 2592.01,254.317 2609.24,254.663 2626.46,254.672 2643.68,254.772 2660.91,254.774 2678.13,255.127 2695.36,255.065 2712.58,256.11 2729.8,255.385 2747.03,255.775 2764.25,255.86 2781.48,256.518 2798.7,256.225 2815.92,256.858 2833.15,257.026 2850.37,256.899 2867.59,257.035 2884.82,257.074 2902.04,256.913 2919.27,257.725 2936.49,257.83 2953.71,257.637 2970.94,258.552 2988.16,258.04 3005.39,258.415 3022.61,258.764 3039.83,258.77 3057.06,258.856 3074.28,258.875 3091.51,259.237 3108.73,259.16 3125.95,260.197 3143.18,259.449 3160.4,259.854 3177.63,259.963 3194.85,260.624 3212.07,260.3 3229.3,260.928 3246.52,261.12 3263.75,260.991 3280.97,261.135 3298.19,261.18 3315.42,261.024 3332.64,261.822 3349.87,261.922 3367.09,261.754 3384.31,262.653 3401.54,262.148 3418.76,262.526 3435.99,262.875 3453.21,262.872 3470.43,262.966 3487.66,262.986 3504.88,263.333 3522.1,263.281 3539.33,264.326 3556.55,263.59 3573.78,263.989 3591,264.087 3608.22,264.745 3625.45,264.413 3642.67,265.058 3659.9,265.237 3677.12,265.104 3694.34,265.246 3711.57,265.29 3728.79,265.135 3746.02,265.952 3763.24,266.045 3780.46,265.867 3797.69,266.784 3814.91,266.269 3832.14,266.657 3849.36,266.997 3866.58,267 3883.81,267.098 3901.03,267.123 3918.26,267.468 3935.48,267.416 3952.7,268.449 3969.93,267.692 3987.15,268.103 4004.38,268.221 4021.6,268.887 4038.82,268.562 4056.05,269.186 4073.27,269.391 4090.5,269.255 4107.72,269.387 4124.94,269.432 4142.17,269.284 4159.39,270.077 4176.61,270.189 4193.84,270.013 4211.06,270.923 4228.29,270.421 4245.51,270.798 4262.73,271.139 4279.96,271.158 4297.18,271.257 4314.41,271.266 4331.63,271.626 4348.85,271.553 4366.08,272.604 4383.3,271.875 4400.53,272.27 4417.75,272.374 4434.97,273.034 4452.2,272.699 4469.42,273.354 4486.65,273.532 4503.87,273.408 4521.09,273.537 4538.32,273.594 4555.54,273.43 4572.77,274.245 4589.99,274.35 4607.21,274.163 4624.44,275.102 4641.66,274.577 "/>
<path clip-path="url(#clip162)" d="M938.513 87.5261 L955.737 540.452 L972.96 547.126 L990.184 545.971 L1007.41 548.556 L1024.63 552.972 L1041.86 557.294 L1059.08 563.077 L1076.3 566.255 L1093.53 565.635 L1110.75 565.629 L1127.98 570.16 L1145.2 565.666 L1162.42 565.132 L1179.65 562.227 L1196.87 559.936 L1214.1 561.392 L1231.32 559.569 L1248.54 556.724 L1265.77 555.032 L1282.99 561.368 L1300.22 558.702 L1317.44 562.006 L1334.66 557.854 L1351.89 555.889 L1369.11 558.352 L1386.34 558.692 L1403.56 558.622 L1420.78 562.129 L1438.01 564.799 L1455.23 570.716 L1472.45 575.035 L1489.68 575.934 L1506.9 578.733 L1524.13 577.426 L1541.35 576.956 L1558.57 578.63 L1575.8 573.922 L1593.02 573.01 L1610.25 570.553 L1627.47 569.667 L1644.69 570.172 L1661.92 567.041 L1679.14 565.224 L1696.37 566.599 L1713.59 568.769 L1730.81 573.592 L1748.04 568.244 L1765.26 564.95 L1782.49 567.236 L1799.71 566.615 L1816.93 568.932 L1834.16 571.462 L1851.38 575.865 L1868.61 581.794 L1885.83 586.49 L1903.05 587.973 L1920.28 589.627 L1937.5 588.266 L1954.73 589.568 L1971.95 589.003 L1989.17 586.699 L2006.4 584.074 L2023.62 581.455 L2040.85 580.926 L2058.07 580.465 L2075.29 577.107 L2092.52 576.254 L2109.74 577.728 L2126.96 579.655 L2144.19 584.366 L2161.41 578.574 L2178.64 575.008 L2195.86 578.275 L2213.08 577.102 L2230.31 579.798 L2247.53 582.642 L2264.76 587.049 L2281.98 593.256 L2299.2 597.859 L2316.43 598.177 L2333.65 600.622 L2350.88 600.289 L2368.1 599.479 L2385.32 600.159 L2402.55 595.887 L2419.77 595.389 L2437 593.03 L2454.22 592.097 L2471.44 590.079 L2488.67 587.309 L2505.89 587.434 L2523.12 588.452 L2540.34 589.777 L2557.56 594.534 L2574.79 588.284 L2592.01 584.643 L2609.24 589.358 L2626.46 588.019 L2643.68 591.59 L2660.91 593.72 L2678.13 598.258 L2695.36 604.581 L2712.58 609.106 L2729.8 609.443 L2747.03 612.589 L2764.25 611.805 L2781.48 610.728 L2798.7 611.273 L2815.92 607.119 L2833.15 606.772 L2850.37 603.964 L2867.59 603.196 L2884.82 600.566 L2902.04 597.872 L2919.27 597.628 L2936.49 598.158 L2953.71 599.527 L2970.94 604.315 L2988.16 598.062 L3005.39 595.194 L3022.61 600.406 L3039.83 599.196 L3057.06 603.465 L3074.28 604.915 L3091.51 609.555 L3108.73 616.144 L3125.95 620.462 L3143.18 620.672 L3160.4 624.607 L3177.63 623.422 L3194.85 621.837 L3212.07 621.804 L3229.3 617.151 L3246.52 617.364 L3263.75 614.15 L3280.97 614.343 L3298.19 611.91 L3315.42 609.039 L3332.64 607.852 L3349.87 607.465 L3367.09 609.29 L3384.31 614.147 L3401.54 607.872 L3418.76 606.005 L3435.99 611.48 L3453.21 610.992 L3470.43 615.003 L3487.66 616.803 L3504.88 620.872 L3522.1 627.599 L3539.33 631.79 L3556.55 632.378 L3573.78 636.664 L3591 635.391 L3608.22 633.061 L3625.45 631.709 L3642.67 628.436 L3659.9 628.204 L3677.12 625.521 L3694.34 626.134 L3711.57 623.212 L3728.79 620.322 L3746.02 618.4 L3763.24 616.925 L3780.46 619.078 L3797.69 623.991 L3814.91 617.749 L3832.14 617.799 L3849.36 623.045 L3866.58 622.505 L3883.81 626.48 L3901.03 628.652 L3918.26 632.273 L3935.48 639.14 L3952.7 643.297 L3969.93 644.285 L3987.15 648.863 L4004.38 646.697 L4021.6 645.067 L4038.82 641.256 L4056.05 639.556 L4073.27 639.014 L4090.5 636.705 L4107.72 636.802 L4124.94 634.88 L4142.17 631.215 L4159.39 628.741 L4176.61 627.117 L4193.84 628.947 L4211.06 633.87 L4228.29 627.772 L4245.51 629.646 L4262.73 635.163 L4279.96 634.073 L4297.18 637.987 L4314.41 640.614 L4331.63 643.734 L4348.85 650.763 L4366.08 654.727 L4383.3 656.358 L4400.53 660.939 L4417.75 658.02 L4434.97 657.168 L4452.2 652.214 L4469.42 650.937 L4486.65 649.897 L4503.87 647.996 L4521.09 648.886 L4538.32 646.1 L4555.54 641.904 L4572.77 639.219 L4589.99 636.933 L4607.21 638.846 L4624.44 644.023 L4641.66 639.646 L4641.66 317.831 L4624.44 319.661 L4607.21 318.083 L4589.99 317.162 L4572.77 316.555 L4555.54 315.102 L4538.32 314.662 L4521.09 315.516 L4503.87 315.302 L4486.65 316.443 L4469.42 316.028 L4452.2 315.477 L4434.97 316.911 L4417.75 316.311 L4400.53 313.977 L4383.3 313.56 L4366.08 315.623 L4348.85 314.534 L4331.63 312.835 L4314.41 313.31 L4297.18 313.166 L4279.96 312.544 L4262.73 312.285 L4245.51 312.096 L4228.29 311.194 L4211.06 312.994 L4193.84 311.323 L4176.61 311.232 L4159.39 310.787 L4142.17 308.587 L4124.94 308.494 L4107.72 308.228 L4090.5 308.278 L4073.27 309.14 L4056.05 308.906 L4038.82 307.969 L4021.6 309.074 L4004.38 308.566 L3987.15 307.601 L3969.93 307.514 L3952.7 308.801 L3935.48 307.759 L3918.26 306.697 L3901.03 306.361 L3883.81 306.293 L3866.58 304.634 L3849.36 303.848 L3832.14 304.046 L3814.91 303.599 L3797.69 304.68 L3780.46 303.614 L3763.24 302.908 L3746.02 303.228 L3728.79 302.476 L3711.57 301.603 L3694.34 299.638 L3677.12 300.529 L3659.9 301.154 L3642.67 300.919 L3625.45 300.323 L3608.22 302.048 L3591 300.935 L3573.78 300.074 L3556.55 299.669 L3539.33 300.506 L3522.1 300.807 L3504.88 300.075 L3487.66 298.515 L3470.43 297.735 L3453.21 296.924 L3435.99 296.308 L3418.76 296.228 L3401.54 296.124 L3384.31 297.383 L3367.09 296.609 L3349.87 295.844 L3332.64 295.931 L3315.42 295.053 L3298.19 294.416 L3280.97 293.357 L3263.75 294.256 L3246.52 293.89 L3229.3 294.477 L3212.07 293.501 L3194.85 293.999 L3177.63 292.403 L3160.4 293.201 L3143.18 292.982 L3125.95 294.219 L3108.73 294.674 L3091.51 293.829 L3074.28 292.997 L3057.06 292.14 L3039.83 291.158 L3022.61 290.668 L3005.39 291.093 L2988.16 290.604 L2970.94 291.837 L2953.71 290.622 L2936.49 289.936 L2919.27 289.566 L2902.04 287.859 L2884.82 287.462 L2867.59 287.308 L2850.37 288.161 L2833.15 287.853 L2815.92 288.563 L2798.7 287.302 L2781.48 286.222 L2764.25 286.785 L2747.03 286.819 L2729.8 286.917 L2712.58 287.785 L2695.36 287.721 L2678.13 286.989 L2660.91 285.599 L2643.68 284.834 L2626.46 284.24 L2609.24 284.116 L2592.01 283.879 L2574.79 283.854 L2557.56 285.467 L2540.34 284.032 L2523.12 283.579 L2505.89 283.235 L2488.67 281.648 L2471.44 280.767 L2454.22 280.389 L2437 281.628 L2419.77 281.385 L2402.55 280.878 L2385.32 280.001 L2368.1 280.777 L2350.88 281.054 L2333.65 280.585 L2316.43 280.456 L2299.2 281.243 L2281.98 280.367 L2264.76 279.946 L2247.53 278.714 L2230.31 278.049 L2213.08 277.628 L2195.86 277.443 L2178.64 277.059 L2161.41 277.369 L2144.19 278.839 L2126.96 277.752 L2109.74 277.449 L2092.52 276.662 L2075.29 274.668 L2058.07 274.256 L2040.85 274.005 L2023.62 273.965 L2006.4 274.168 L1989.17 274.448 L1971.95 274.024 L1954.73 274.113 L1937.5 273.216 L1920.28 272.683 L1903.05 272.737 L1885.83 274.571 L1868.61 272.797 L1851.38 272.926 L1834.16 271.466 L1816.93 271.903 L1799.71 271.481 L1782.49 270.884 L1765.26 269.893 L1748.04 270.15 L1730.81 271.114 L1713.59 270.423 L1696.37 270.03 L1679.14 268.9 L1661.92 268.336 L1644.69 267.794 L1627.47 267.23 L1610.25 267.604 L1593.02 266.492 L1575.8 265.603 L1558.57 265.807 L1541.35 266.435 L1524.13 265.499 L1506.9 265.531 L1489.68 264.451 L1472.45 268.559 L1455.23 266.715 L1438.01 263.245 L1420.78 262.722 L1403.56 264.176 L1386.34 264.83 L1369.11 264.543 L1351.89 263.114 L1334.66 263.193 L1317.44 263.696 L1300.22 263.014 L1282.99 263.64 L1265.77 262.706 L1248.54 262.056 L1231.32 261.661 L1214.1 261.199 L1196.87 260.647 L1179.65 260.045 L1162.42 259.583 L1145.2 260.219 L1127.98 260.428 L1110.75 259.604 L1093.53 258.656 L1076.3 259.491 L1059.08 260.821 L1041.86 258.786 L1024.63 257.351 L1007.41 256.809 L990.184 258.174 L972.96 258.5 L955.737 255.345 L938.513 75.7206  Z" fill="#777777" fill-rule="evenodd" fill-opacity="0.5"/>
<polyline clip-path="url(#clip162)" style="stroke:#777777; stroke-linecap:round; stroke-linejoin:round; stroke-width:0; stroke-opacity:1; fill:none" points="938.513,85.9465 955.737,235.796 972.96,238.026 990.184,238.351 1007.41,238.284 1024.63,238.375 1041.86,238.476 1059.08,239.096 1076.3,239.247 1093.53,239.082 1110.75,239.438 1127.98,239.852 1145.2,239.891 1162.42,240.526 1179.65,240.721 1196.87,240.702 1214.1,240.904 1231.32,240.875 1248.54,240.591 1265.77,241.38 1282.99,241.596 1300.22,241.306 1317.44,242.388 1334.66,241.74 1351.89,242.181 1369.11,242.576 1386.34,242.52 1403.56,242.638 1420.78,242.691 1438.01,242.941 1455.23,242.921 1472.45,243.937 1489.68,243.063 1506.9,243.543 1524.13,243.742 1541.35,244.329 1558.57,244.012 1575.8,244.62 1593.02,244.839 1610.25,244.731 1627.47,244.776 1644.69,244.831 1661.92,244.741 1679.14,245.515 1696.37,245.597 1713.59,245.458 1730.81,246.326 1748.04,245.829 1765.26,246.196 1782.49,246.559 1799.71,246.527 1816.93,246.644 1834.16,246.632 1851.38,246.977 1868.61,246.928 1885.83,247.971 1903.05,247.274 1920.28,247.661 1937.5,247.7 1954.73,248.36 1971.95,248.07 1989.17,248.703 2006.4,248.873 2023.62,248.75 2040.85,248.9 2058.07,248.95 2075.29,248.756 2092.52,249.57 2109.74,249.694 2126.96,249.481 2144.19,250.395 2161.41,249.883 2178.64,250.26 2195.86,250.6 2213.08,250.61 2230.31,250.686 2247.53,250.738 2264.76,251.061 2281.98,250.993 2299.2,252.038 2316.43,251.266 2333.65,251.668 2350.88,251.795 2368.1,252.455 2385.32,252.109 2402.55,252.748 2419.77,252.955 2437,252.824 2454.22,252.923 2471.44,252.985 2488.67,252.835 2505.89,253.631 2523.12,253.721 2540.34,253.562 2557.56,254.471 2574.79,253.944 2592.01,254.317 2609.24,254.663 2626.46,254.672 2643.68,254.772 2660.91,254.774 2678.13,255.127 2695.36,255.065 2712.58,256.11 2729.8,255.385 2747.03,255.775 2764.25,255.86 2781.48,256.518 2798.7,256.225 2815.92,256.858 2833.15,257.026 2850.37,256.899 2867.59,257.035 2884.82,257.074 2902.04,256.913 2919.27,257.725 2936.49,257.83 2953.71,257.637 2970.94,258.552 2988.16,258.04 3005.39,258.415 3022.61,258.764 3039.83,258.77 3057.06,258.856 3074.28,258.875 3091.51,259.237 3108.73,259.16 3125.95,260.197 3143.18,259.449 3160.4,259.854 3177.63,259.963 3194.85,260.624 3212.07,260.3 3229.3,260.928 3246.52,261.12 3263.75,260.991 3280.97,261.135 3298.19,261.18 3315.42,261.024 3332.64,261.822 3349.87,261.922 3367.09,261.754 3384.31,262.653 3401.54,262.148 3418.76,262.526 3435.99,262.875 3453.21,262.872 3470.43,262.966 3487.66,262.986 3504.88,263.333 3522.1,263.281 3539.33,264.326 3556.55,263.59 3573.78,263.989 3591,264.087 3608.22,264.745 3625.45,264.413 3642.67,265.058 3659.9,265.237 3677.12,265.104 3694.34,265.246 3711.57,265.29 3728.79,265.135 3746.02,265.952 3763.24,266.045 3780.46,265.867 3797.69,266.784 3814.91,266.269 3832.14,266.657 3849.36,266.997 3866.58,267 3883.81,267.098 3901.03,267.123 3918.26,267.468 3935.48,267.416 3952.7,268.449 3969.93,267.692 3987.15,268.103 4004.38,268.221 4021.6,268.887 4038.82,268.562 4056.05,269.186 4073.27,269.391 4090.5,269.255 4107.72,269.387 4124.94,269.432 4142.17,269.284 4159.39,270.077 4176.61,270.189 4193.84,270.013 4211.06,270.923 4228.29,270.421 4245.51,270.798 4262.73,271.139 4279.96,271.158 4297.18,271.257 4314.41,271.266 4331.63,271.626 4348.85,271.553 4366.08,272.604 4383.3,271.875 4400.53,272.27 4417.75,272.374 4434.97,273.034 4452.2,272.699 4469.42,273.354 4486.65,273.532 4503.87,273.408 4521.09,273.537 4538.32,273.594 4555.54,273.43 4572.77,274.245 4589.99,274.35 4607.21,274.163 4624.44,275.102 4641.66,274.577 "/>
<path clip-path="url(#clip162)" d="M938.513 86.4325 L955.737 506.478 L972.96 511.915 L990.184 512.705 L1007.41 512.009 L1024.63 511.879 L1041.86 511.99 L1059.08 512.826 L1076.3 513.663 L1093.53 513.884 L1110.75 511.862 L1127.98 511.241 L1145.2 512.638 L1162.42 516.552 L1179.65 517.561 L1196.87 516.266 L1214.1 519.368 L1231.32 520.965 L1248.54 522.075 L1265.77 523.835 L1282.99 520.997 L1300.22 520.086 L1317.44 522.594 L1334.66 522.091 L1351.89 523.977 L1369.11 525.336 L1386.34 525.121 L1403.56 523.477 L1420.78 523.185 L1438.01 522.298 L1455.23 521.358 L1472.45 523.272 L1489.68 523.154 L1506.9 523.587 L1524.13 522.462 L1541.35 524.034 L1558.57 522.702 L1575.8 525.487 L1593.02 527.39 L1610.25 527.259 L1627.47 528.885 L1644.69 532.063 L1661.92 532.61 L1679.14 534.245 L1696.37 531.383 L1713.59 530.921 L1730.81 532.374 L1748.04 532.116 L1765.26 533.429 L1782.49 535.238 L1799.71 535.627 L1816.93 534.543 L1834.16 534.966 L1851.38 532.579 L1868.61 530.965 L1885.83 532.792 L1903.05 533.607 L1920.28 533.92 L1937.5 530.331 L1954.73 533.8 L1971.95 532.66 L1989.17 534.441 L2006.4 537.79 L2023.62 538.266 L2040.85 539.926 L2058.07 542.315 L2075.29 542.965 L2092.52 543.555 L2109.74 543.059 L2126.96 541.532 L2144.19 542.74 L2161.41 542.009 L2178.64 543.105 L2195.86 546.002 L2213.08 545.679 L2230.31 545.273 L2247.53 545.078 L2264.76 543.256 L2281.98 541.581 L2299.2 542.587 L2316.43 544.295 L2333.65 543.598 L2350.88 540.313 L2368.1 543.922 L2385.32 542.189 L2402.55 544.554 L2419.77 548.692 L2437 548.622 L2454.22 550.86 L2471.44 552.598 L2488.67 551.895 L2505.89 553.711 L2523.12 552.338 L2540.34 553.073 L2557.56 553.559 L2574.79 552.795 L2592.01 553.7 L2609.24 556.112 L2626.46 556.003 L2643.68 557.213 L2660.91 556.151 L2678.13 553.998 L2695.36 551.527 L2712.58 551.551 L2729.8 554.667 L2747.03 554.797 L2764.25 552.305 L2781.48 554.63 L2798.7 551.93 L2815.92 555.438 L2833.15 559.172 L2850.37 558.541 L2867.59 561.636 L2884.82 561.32 L2902.04 562.162 L2919.27 563.555 L2936.49 562.842 L2953.71 564.341 L2970.94 564.592 L2988.16 563.734 L3005.39 564.31 L3022.61 565.931 L3039.83 565.971 L3057.06 566.505 L3074.28 566.817 L3091.51 564.658 L3108.73 562.038 L3125.95 562.533 L3143.18 563.469 L3160.4 565 L3177.63 562.981 L3194.85 565.501 L3212.07 562.503 L3229.3 566.154 L3246.52 569.489 L3263.75 568.986 L3280.97 571.216 L3298.19 571.085 L3315.42 571.909 L3332.64 574.312 L3349.87 573.515 L3367.09 574.472 L3384.31 575.91 L3401.54 573.621 L3418.76 575.14 L3435.99 576.857 L3453.21 576.553 L3470.43 578.369 L3487.66 577.108 L3504.88 575.075 L3522.1 573.494 L3539.33 574.738 L3556.55 573.652 L3573.78 575.933 L3591 573.762 L3608.22 575.971 L3625.45 574.227 L3642.67 576.67 L3659.9 580.081 L3677.12 578.869 L3694.34 581.969 L3711.57 580.257 L3728.79 581.791 L3746.02 585.406 L3763.24 584.447 L3780.46 584.773 L3797.69 587.679 L3814.91 585.414 L3832.14 585.758 L3849.36 587.454 L3866.58 587.598 L3883.81 588.36 L3901.03 588.205 L3918.26 586.646 L3935.48 584.753 L3952.7 585.851 L3969.93 583.238 L3987.15 586.436 L4004.38 584.16 L4021.6 586.43 L4038.82 585.676 L4056.05 585.876 L4073.27 591.539 L4090.5 589.611 L4107.72 592.561 L4124.94 591.061 L4142.17 591.534 L4159.39 594.345 L4176.61 595.424 L4193.84 595.752 L4211.06 598.912 L4228.29 596.787 L4245.51 596.228 L4262.73 597.859 L4279.96 598.85 L4297.18 599.181 L4314.41 598.529 L4331.63 598.774 L4348.85 596.598 L4366.08 596.468 L4383.3 592.681 L4400.53 597.157 L4417.75 594.12 L4434.97 595.43 L4452.2 595.893 L4469.42 597.292 L4486.65 602.146 L4503.87 602.057 L4521.09 602.938 L4538.32 602.237 L4555.54 601.603 L4572.77 604.895 L4589.99 606.356 L4607.21 606.959 L4624.44 609.523 L4641.66 608.278 L4641.66 333.217 L4624.44 333.976 L4607.21 333.903 L4589.99 332.288 L4572.77 332.1 L4555.54 330.488 L4538.32 330.904 L4521.09 330.758 L4503.87 331.127 L4486.65 329.755 L4469.42 329.053 L4452.2 327.843 L4434.97 328.931 L4417.75 329.628 L4400.53 328.286 L4383.3 327.775 L4366.08 330.409 L4348.85 330.715 L4331.63 328.351 L4314.41 327.93 L4297.18 326.796 L4279.96 326.927 L4262.73 327.133 L4245.51 328.301 L4228.29 325.695 L4211.06 325.637 L4193.84 327.187 L4176.61 324.742 L4159.39 325.153 L4142.17 324.611 L4124.94 325.164 L4107.72 323.698 L4090.5 324.727 L4073.27 322.233 L4056.05 321.831 L4038.82 321.871 L4021.6 323.061 L4004.38 323.266 L3987.15 322.407 L3969.93 321.925 L3952.7 323.782 L3935.48 323.233 L3918.26 322.23 L3901.03 321.755 L3883.81 321.431 L3866.58 321.778 L3849.36 321.348 L3832.14 321.347 L3814.91 319.72 L3797.69 319.736 L3780.46 320.592 L3763.24 318.718 L3746.02 319.782 L3728.79 319.425 L3711.57 319.078 L3694.34 317.637 L3677.12 318.766 L3659.9 316.455 L3642.67 315.725 L3625.45 315.501 L3608.22 316.646 L3591 316.811 L3573.78 316.145 L3556.55 315.495 L3539.33 317.323 L3522.1 316.885 L3504.88 316.1 L3487.66 315.483 L3470.43 315.43 L3453.21 315.116 L3435.99 314.957 L3418.76 314.677 L3401.54 313.036 L3384.31 312.749 L3367.09 313.47 L3349.87 312.66 L3332.64 314.346 L3315.42 313.891 L3298.19 312.743 L3280.97 311.656 L3263.75 311.01 L3246.52 310.17 L3229.3 309.983 L3212.07 309.399 L3194.85 310.294 L3177.63 310.621 L3160.4 310.128 L3143.18 309.703 L3125.95 311.556 L3108.73 310.441 L3091.51 309.995 L3074.28 309.503 L3057.06 308.829 L3039.83 307.677 L3022.61 308.194 L3005.39 307.521 L2988.16 306.076 L2970.94 306.325 L2953.71 305.617 L2936.49 305.822 L2919.27 306.076 L2902.04 305.58 L2884.82 306.341 L2867.59 305.668 L2850.37 304.242 L2833.15 303.634 L2815.92 302.914 L2798.7 303.032 L2781.48 304.17 L2764.25 304.032 L2747.03 304.639 L2729.8 302.411 L2712.58 305.854 L2695.36 304.207 L2678.13 301.815 L2660.91 301.094 L2643.68 300.726 L2626.46 300.248 L2609.24 301.346 L2592.01 300.73 L2574.79 298.169 L2557.56 299.196 L2540.34 299.547 L2523.12 298.554 L2505.89 298.985 L2488.67 298.752 L2471.44 299.929 L2454.22 299.53 L2437 298.262 L2419.77 296.925 L2402.55 296.092 L2385.32 297.231 L2368.1 297.978 L2350.88 298.529 L2333.65 298.017 L2316.43 297.146 L2299.2 298.614 L2281.98 296.3 L2264.76 294.367 L2247.53 293.871 L2230.31 294.079 L2213.08 294.513 L2195.86 295.019 L2178.64 294.385 L2161.41 292.042 L2144.19 293.293 L2126.96 293.016 L2109.74 292.307 L2092.52 291.962 L2075.29 291.093 L2058.07 291.194 L2040.85 290.847 L2023.62 289.675 L2006.4 289.783 L1989.17 289.119 L1971.95 290.267 L1954.73 291.457 L1937.5 290.654 L1920.28 289.473 L1903.05 288.131 L1885.83 290.297 L1868.61 289.039 L1851.38 287.802 L1834.16 287.43 L1816.93 288.367 L1799.71 288.151 L1782.49 287.956 L1765.26 286.445 L1748.04 285.256 L1730.81 285.763 L1713.59 285.888 L1696.37 284.883 L1679.14 284.765 L1661.92 283.412 L1644.69 283.244 L1627.47 283.582 L1610.25 283.419 L1593.02 282.296 L1575.8 282.832 L1558.57 282.96 L1541.35 285.123 L1524.13 284.37 L1506.9 282.784 L1489.68 280.75 L1472.45 284.55 L1455.23 283.547 L1438.01 282.443 L1420.78 281.83 L1403.56 282.258 L1386.34 281.39 L1369.11 281.569 L1351.89 280.103 L1334.66 278.467 L1317.44 278.659 L1300.22 277.414 L1282.99 279.026 L1265.77 278.793 L1248.54 277.686 L1231.32 277.001 L1214.1 277.29 L1196.87 277.421 L1179.65 276.74 L1162.42 276.479 L1145.2 276.948 L1127.98 278.037 L1110.75 277.468 L1093.53 276.736 L1076.3 276.305 L1059.08 277.375 L1041.86 275.911 L1024.63 276.117 L1007.41 275.707 L990.184 274.87 L972.96 275.088 L955.737 271.77 L938.513 77.1346  Z" fill="#434343" fill-rule="evenodd" fill-opacity="0.5"/>
<polyline clip-path="url(#clip162)" style="stroke:#434343; stroke-linecap:round; stroke-linejoin:round; stroke-width:0; stroke-opacity:1; fill:none" points="938.513,85.9465 955.737,235.796 972.96,238.026 990.184,238.351 1007.41,238.284 1024.63,238.375 1041.86,238.476 1059.08,239.096 1076.3,239.247 1093.53,239.082 1110.75,239.438 1127.98,239.852 1145.2,239.891 1162.42,240.526 1179.65,240.721 1196.87,240.702 1214.1,240.904 1231.32,240.875 1248.54,240.591 1265.77,241.38 1282.99,241.596 1300.22,241.306 1317.44,242.388 1334.66,241.74 1351.89,242.181 1369.11,242.576 1386.34,242.52 1403.56,242.638 1420.78,242.691 1438.01,242.941 1455.23,242.921 1472.45,243.937 1489.68,243.063 1506.9,243.543 1524.13,243.742 1541.35,244.329 1558.57,244.012 1575.8,244.62 1593.02,244.839 1610.25,244.731 1627.47,244.776 1644.69,244.831 1661.92,244.741 1679.14,245.515 1696.37,245.597 1713.59,245.458 1730.81,246.326 1748.04,245.829 1765.26,246.196 1782.49,246.559 1799.71,246.527 1816.93,246.644 1834.16,246.632 1851.38,246.977 1868.61,246.928 1885.83,247.971 1903.05,247.274 1920.28,247.661 1937.5,247.7 1954.73,248.36 1971.95,248.07 1989.17,248.703 2006.4,248.873 2023.62,248.75 2040.85,248.9 2058.07,248.95 2075.29,248.756 2092.52,249.57 2109.74,249.694 2126.96,249.481 2144.19,250.395 2161.41,249.883 2178.64,250.26 2195.86,250.6 2213.08,250.61 2230.31,250.686 2247.53,250.738 2264.76,251.061 2281.98,250.993 2299.2,252.038 2316.43,251.266 2333.65,251.668 2350.88,251.795 2368.1,252.455 2385.32,252.109 2402.55,252.748 2419.77,252.955 2437,252.824 2454.22,252.923 2471.44,252.985 2488.67,252.835 2505.89,253.631 2523.12,253.721 2540.34,253.562 2557.56,254.471 2574.79,253.944 2592.01,254.317 2609.24,254.663 2626.46,254.672 2643.68,254.772 2660.91,254.774 2678.13,255.127 2695.36,255.065 2712.58,256.11 2729.8,255.385 2747.03,255.775 2764.25,255.86 2781.48,256.518 2798.7,256.225 2815.92,256.858 2833.15,257.026 2850.37,256.899 2867.59,257.035 2884.82,257.074 2902.04,256.913 2919.27,257.725 2936.49,257.83 2953.71,257.637 2970.94,258.552 2988.16,258.04 3005.39,258.415 3022.61,258.764 3039.83,258.77 3057.06,258.856 3074.28,258.875 3091.51,259.237 3108.73,259.16 3125.95,260.197 3143.18,259.449 3160.4,259.854 3177.63,259.963 3194.85,260.624 3212.07,260.3 3229.3,260.928 3246.52,261.12 3263.75,260.991 3280.97,261.135 3298.19,261.18 3315.42,261.024 3332.64,261.822 3349.87,261.922 3367.09,261.754 3384.31,262.653 3401.54,262.148 3418.76,262.526 3435.99,262.875 3453.21,262.872 3470.43,262.966 3487.66,262.986 3504.88,263.333 3522.1,263.281 3539.33,264.326 3556.55,263.59 3573.78,263.989 3591,264.087 3608.22,264.745 3625.45,264.413 3642.67,265.058 3659.9,265.237 3677.12,265.104 3694.34,265.246 3711.57,265.29 3728.79,265.135 3746.02,265.952 3763.24,266.045 3780.46,265.867 3797.69,266.784 3814.91,266.269 3832.14,266.657 3849.36,266.997 3866.58,267 3883.81,267.098 3901.03,267.123 3918.26,267.468 3935.48,267.416 3952.7,268.449 3969.93,267.692 3987.15,268.103 4004.38,268.221 4021.6,268.887 4038.82,268.562 4056.05,269.186 4073.27,269.391 4090.5,269.255 4107.72,269.387 4124.94,269.432 4142.17,269.284 4159.39,270.077 4176.61,270.189 4193.84,270.013 4211.06,270.923 4228.29,270.421 4245.51,270.798 4262.73,271.139 4279.96,271.158 4297.18,271.257 4314.41,271.266 4331.63,271.626 4348.85,271.553 4366.08,272.604 4383.3,271.875 4400.53,272.27 4417.75,272.374 4434.97,273.034 4452.2,272.699 4469.42,273.354 4486.65,273.532 4503.87,273.408 4521.09,273.537 4538.32,273.594 4555.54,273.43 4572.77,274.245 4589.99,274.35 4607.21,274.163 4624.44,275.102 4641.66,274.577 "/>
<path clip-path="url(#clip160)" d="M3910.11 593.434 L4621.91 593.434 L4621.91 75.0343 L3910.11 75.0343  Z" fill="#ffffff" fill-rule="evenodd" fill-opacity="1"/>
<polyline clip-path="url(#clip160)" style="stroke:#000000; stroke-linecap:round; stroke-linejoin:round; stroke-width:4; stroke-opacity:1; fill:none" points="3910.11,593.434 4621.91,593.434 4621.91,75.0343 3910.11,75.0343 3910.11,593.434 "/>
<polyline clip-path="url(#clip160)" style="stroke:#b0b0b0; stroke-linecap:round; stroke-linejoin:round; stroke-width:2; stroke-opacity:1; fill:none" points="3953.72,204.634 4215.41,204.634 "/>
<path clip-path="url(#clip160)" d="M4260.71 237.996 L4279.8 237.996 L4279.8 172.082 L4259.03 176.249 L4259.03 165.601 L4279.69 161.434 L4291.38 161.434 L4291.38 237.996 L4310.47 237.996 L4310.47 247.834 L4260.71 247.834 L4260.71 237.996 Z" fill="#000000" fill-rule="nonzero" fill-opacity="1" /><path clip-path="url(#clip160)" d="M4359.08 169.131 Q4350.06 169.131 4345.49 178.043 Q4340.97 186.897 4340.97 204.721 Q4340.97 222.487 4345.49 231.399 Q4350.06 240.253 4359.08 240.253 Q4368.17 240.253 4372.68 231.399 Q4377.26 222.487 4377.26 204.721 Q4377.26 186.897 4372.68 178.043 Q4368.17 169.131 4359.08 169.131 M4359.08 159.872 Q4373.61 159.872 4381.25 171.388 Q4388.95 182.846 4388.95 204.721 Q4388.95 226.538 4381.25 238.054 Q4373.61 249.513 4359.08 249.513 Q4344.56 249.513 4336.86 238.054 Q4329.22 226.538 4329.22 204.721 Q4329.22 182.846 4336.86 171.388 Q4344.56 159.872 4359.08 159.872 Z" fill="#000000" fill-rule="nonzero" fill-opacity="1" /><path clip-path="url(#clip160)" d="M4434.49 169.131 Q4425.46 169.131 4420.89 178.043 Q4416.38 186.897 4416.38 204.721 Q4416.38 222.487 4420.89 231.399 Q4425.46 240.253 4434.49 240.253 Q4443.57 240.253 4448.09 231.399 Q4452.66 222.487 4452.66 204.721 Q4452.66 186.897 4448.09 178.043 Q4443.57 169.131 4434.49 169.131 M4434.49 159.872 Q4449.01 159.872 4456.65 171.388 Q4464.35 182.846 4464.35 204.721 Q4464.35 226.538 4456.65 238.054 Q4449.01 249.513 4434.49 249.513 Q4419.96 249.513 4412.27 238.054 Q4404.63 226.538 4404.63 204.721 Q4404.63 182.846 4412.27 171.388 Q4419.96 159.872 4434.49 159.872 Z" fill="#000000" fill-rule="nonzero" fill-opacity="1" /><path clip-path="url(#clip160)" d="M4558.39 209.814 Q4553.35 209.814 4550.46 214.096 Q4547.63 218.378 4547.63 226.017 Q4547.63 233.54 4550.46 237.881 Q4553.35 242.163 4558.39 242.163 Q4563.31 242.163 4566.14 237.881 Q4569.04 233.54 4569.04 226.017 Q4569.04 218.436 4566.14 214.154 Q4563.31 209.814 4558.39 209.814 M4558.39 202.464 Q4567.53 202.464 4572.91 208.83 Q4578.3 215.196 4578.3 226.017 Q4578.3 236.839 4572.86 243.205 Q4567.47 249.513 4558.39 249.513 Q4549.13 249.513 4543.75 243.205 Q4538.37 236.839 4538.37 226.017 Q4538.37 215.138 4543.75 208.83 Q4549.19 202.464 4558.39 202.464 M4498.67 167.221 Q4493.69 167.221 4490.8 171.562 Q4487.96 175.844 4487.96 183.367 Q4487.96 191.006 4490.8 195.288 Q4493.63 199.571 4498.67 199.571 Q4503.7 199.571 4506.54 195.288 Q4509.43 191.006 4509.43 183.367 Q4509.43 175.902 4506.54 171.562 Q4503.64 167.221 4498.67 167.221 M4550.92 159.872 L4560.18 159.872 L4506.13 249.513 L4496.87 249.513 L4550.92 159.872 M4498.67 159.872 Q4507.81 159.872 4513.25 166.238 Q4518.69 172.545 4518.69 183.367 Q4518.69 194.305 4513.25 200.612 Q4507.87 206.92 4498.67 206.92 Q4489.47 206.92 4484.08 200.612 Q4478.76 194.247 4478.76 183.367 Q4478.76 172.603 4484.14 166.238 Q4489.52 159.872 4498.67 159.872 Z" fill="#000000" fill-rule="nonzero" fill-opacity="1" /><polyline clip-path="url(#clip160)" style="stroke:#777777; stroke-linecap:round; stroke-linejoin:round; stroke-width:2; stroke-opacity:1; fill:none" points="3953.72,334.234 4215.41,334.234 "/>
<path clip-path="url(#clip160)" d="M4264.58 375.64 L4264.58 364.992 Q4268.98 367.076 4273.49 368.175 Q4278.01 369.275 4282.35 369.275 Q4293.92 369.275 4300 361.52 Q4306.13 353.708 4307 337.851 Q4303.65 342.828 4298.49 345.49 Q4293.34 348.152 4287.09 348.152 Q4274.13 348.152 4266.55 340.34 Q4259.03 332.469 4259.03 318.87 Q4259.03 305.56 4266.9 297.516 Q4274.77 289.472 4287.85 289.472 Q4302.83 289.472 4310.71 300.988 Q4318.63 312.446 4318.63 334.321 Q4318.63 354.749 4308.91 366.96 Q4299.25 379.113 4282.87 379.113 Q4278.47 379.113 4273.96 378.245 Q4269.44 377.376 4264.58 375.64 M4287.85 339.009 Q4295.72 339.009 4300.29 333.627 Q4304.92 328.245 4304.92 318.87 Q4304.92 309.553 4300.29 304.171 Q4295.72 298.731 4287.85 298.731 Q4279.98 298.731 4275.35 304.171 Q4270.77 309.553 4270.77 318.87 Q4270.77 328.245 4275.35 333.627 Q4279.98 339.009 4287.85 339.009 Z" fill="#000000" fill-rule="nonzero" fill-opacity="1" /><path clip-path="url(#clip160)" d="M4364.64 298.731 Q4355.61 298.731 4351.04 307.643 Q4346.53 316.497 4346.53 334.321 Q4346.53 352.087 4351.04 360.999 Q4355.61 369.853 4364.64 369.853 Q4373.73 369.853 4378.24 360.999 Q4382.81 352.087 4382.81 334.321 Q4382.81 316.497 4378.24 307.643 Q4373.73 298.731 4364.64 298.731 M4364.64 289.472 Q4379.17 289.472 4386.8 300.988 Q4394.5 312.446 4394.5 334.321 Q4394.5 356.138 4386.8 367.654 Q4379.17 379.113 4364.64 379.113 Q4350.11 379.113 4342.42 367.654 Q4334.78 356.138 4334.78 334.321 Q4334.78 312.446 4342.42 300.988 Q4350.11 289.472 4364.64 289.472 Z" fill="#000000" fill-rule="nonzero" fill-opacity="1" /><path clip-path="url(#clip160)" d="M4488.54 339.414 Q4483.51 339.414 4480.61 343.696 Q4477.78 347.978 4477.78 355.617 Q4477.78 363.14 4480.61 367.481 Q4483.51 371.763 4488.54 371.763 Q4493.46 371.763 4496.29 367.481 Q4499.19 363.14 4499.19 355.617 Q4499.19 348.036 4496.29 343.754 Q4493.46 339.414 4488.54 339.414 M4488.54 332.064 Q4497.68 332.064 4503.07 338.43 Q4508.45 344.796 4508.45 355.617 Q4508.45 366.439 4503.01 372.805 Q4497.63 379.113 4488.54 379.113 Q4479.28 379.113 4473.9 372.805 Q4468.52 366.439 4468.52 355.617 Q4468.52 344.738 4473.9 338.43 Q4479.34 332.064 4488.54 332.064 M4428.82 296.821 Q4423.84 296.821 4420.95 301.162 Q4418.11 305.444 4418.11 312.967 Q4418.11 320.606 4420.95 324.888 Q4423.78 329.171 4428.82 329.171 Q4433.85 329.171 4436.69 324.888 Q4439.58 320.606 4439.58 312.967 Q4439.58 305.502 4436.69 301.162 Q4433.79 296.821 4428.82 296.821 M4481.07 289.472 L4490.33 289.472 L4436.28 379.113 L4427.02 379.113 L4481.07 289.472 M4428.82 289.472 Q4437.96 289.472 4443.4 295.838 Q4448.84 302.145 4448.84 312.967 Q4448.84 323.905 4443.4 330.212 Q4438.02 336.52 4428.82 336.52 Q4419.62 336.52 4414.23 330.212 Q4408.91 323.847 4408.91 312.967 Q4408.91 302.203 4414.29 295.838 Q4419.67 289.472 4428.82 289.472 Z" fill="#000000" fill-rule="nonzero" fill-opacity="1" /><polyline clip-path="url(#clip160)" style="stroke:#434343; stroke-linecap:round; stroke-linejoin:round; stroke-width:2; stroke-opacity:1; fill:none" points="3953.72,463.834 4215.41,463.834 "/>
<path clip-path="url(#clip160)" d="M4288.66 466.004 Q4280.32 466.004 4275.52 470.46 Q4270.77 474.916 4270.77 482.729 Q4270.77 490.541 4275.52 494.997 Q4280.32 499.453 4288.66 499.453 Q4296.99 499.453 4301.79 494.997 Q4306.6 490.484 4306.6 482.729 Q4306.6 474.916 4301.79 470.46 Q4297.05 466.004 4288.66 466.004 M4276.97 461.028 Q4269.44 459.176 4265.22 454.025 Q4261.05 448.875 4261.05 441.468 Q4261.05 431.109 4268.4 425.09 Q4275.81 419.072 4288.66 419.072 Q4301.56 419.072 4308.91 425.09 Q4316.26 431.109 4316.26 441.468 Q4316.26 448.875 4312.04 454.025 Q4307.87 459.176 4300.4 461.028 Q4308.85 462.995 4313.54 468.724 Q4318.29 474.453 4318.29 482.729 Q4318.29 495.287 4310.59 502 Q4302.95 508.713 4288.66 508.713 Q4274.36 508.713 4266.67 502 Q4259.03 495.287 4259.03 482.729 Q4259.03 474.453 4263.77 468.724 Q4268.52 462.995 4276.97 461.028 M4272.68 442.567 Q4272.68 449.28 4276.85 453.042 Q4281.08 456.803 4288.66 456.803 Q4296.18 456.803 4300.4 453.042 Q4304.69 449.28 4304.69 442.567 Q4304.69 435.854 4300.4 432.093 Q4296.18 428.331 4288.66 428.331 Q4281.08 428.331 4276.85 432.093 Q4272.68 435.854 4272.68 442.567 Z" fill="#000000" fill-rule="nonzero" fill-opacity="1" /><path clip-path="url(#clip160)" d="M4364.06 428.331 Q4355.03 428.331 4350.46 437.243 Q4345.95 446.097 4345.95 463.921 Q4345.95 481.687 4350.46 490.599 Q4355.03 499.453 4364.06 499.453 Q4373.15 499.453 4377.66 490.599 Q4382.23 481.687 4382.23 463.921 Q4382.23 446.097 4377.66 437.243 Q4373.15 428.331 4364.06 428.331 M4364.06 419.072 Q4378.59 419.072 4386.23 430.588 Q4393.92 442.046 4393.92 463.921 Q4393.92 485.738 4386.23 497.254 Q4378.59 508.713 4364.06 508.713 Q4349.54 508.713 4341.84 497.254 Q4334.2 485.738 4334.2 463.921 Q4334.2 442.046 4341.84 430.588 Q4349.54 419.072 4364.06 419.072 Z" fill="#000000" fill-rule="nonzero" fill-opacity="1" /><path clip-path="url(#clip160)" d="M4487.96 469.014 Q4482.93 469.014 4480.03 473.296 Q4477.2 477.578 4477.2 485.217 Q4477.2 492.74 4480.03 497.081 Q4482.93 501.363 4487.96 501.363 Q4492.88 501.363 4495.72 497.081 Q4498.61 492.74 4498.61 485.217 Q4498.61 477.636 4495.72 473.354 Q4492.88 469.014 4487.96 469.014 M4487.96 461.664 Q4497.1 461.664 4502.49 468.03 Q4507.87 474.396 4507.87 485.217 Q4507.87 496.039 4502.43 502.405 Q4497.05 508.713 4487.96 508.713 Q4478.7 508.713 4473.32 502.405 Q4467.94 496.039 4467.94 485.217 Q4467.94 474.338 4473.32 468.03 Q4478.76 461.664 4487.96 461.664 M4428.24 426.421 Q4423.26 426.421 4420.37 430.762 Q4417.53 435.044 4417.53 442.567 Q4417.53 450.206 4420.37 454.488 Q4423.2 458.771 4428.24 458.771 Q4433.27 458.771 4436.11 454.488 Q4439 450.206 4439 442.567 Q4439 435.102 4436.11 430.762 Q4433.22 426.421 4428.24 426.421 M4480.5 419.072 L4489.76 419.072 L4435.7 508.713 L4426.45 508.713 L4480.5 419.072 M4428.24 419.072 Q4437.38 419.072 4442.82 425.438 Q4448.26 431.745 4448.26 442.567 Q4448.26 453.505 4442.82 459.812 Q4437.44 466.12 4428.24 466.12 Q4419.04 466.12 4413.66 459.812 Q4408.33 453.447 4408.33 442.567 Q4408.33 431.803 4413.71 425.438 Q4419.1 419.072 4428.24 419.072 Z" fill="#000000" fill-rule="nonzero" fill-opacity="1" /></svg>
