<?xml version="1.0" encoding="utf-8"?>
<svg xmlns="http://www.w3.org/2000/svg" xmlns:xlink="http://www.w3.org/1999/xlink" width="1200" height="300" viewBox="0 0 4800 1200">
<defs>
  <clipPath id="clip760">
    <rect x="0" y="0" width="4800" height="1200"/>
  </clipPath>
</defs>
<path clip-path="url(#clip760)" d="M0 1200 L4800 1200 L4800 0 L0 0  Z" fill="#ffffff" fill-rule="evenodd" fill-opacity="1"/>
<defs>
  <clipPath id="clip761">
    <rect x="960" y="0" width="3361" height="1200"/>
  </clipPath>
</defs>
<path clip-path="url(#clip760)" d="M778.932 880.951 L4752.76 880.951 L4752.76 47.2441 L778.932 47.2441  Z" fill="#ffffff" fill-rule="evenodd" fill-opacity="1"/>
<defs>
  <clipPath id="clip762">
    <rect x="778" y="47" width="3975" height="835"/>
  </clipPath>
</defs>
<polyline clip-path="url(#clip762)" style="stroke:#000000; stroke-linecap:round; stroke-linejoin:round; stroke-width:2; stroke-opacity:0.1; fill:none" points="1292.44,880.951 1292.44,47.2441 "/>
<polyline clip-path="url(#clip762)" style="stroke:#000000; stroke-linecap:round; stroke-linejoin:round; stroke-width:2; stroke-opacity:0.1; fill:none" points="2129.4,880.951 2129.4,47.2441 "/>
<polyline clip-path="url(#clip762)" style="stroke:#000000; stroke-linecap:round; stroke-linejoin:round; stroke-width:2; stroke-opacity:0.1; fill:none" points="2966.37,880.951 2966.37,47.2441 "/>
<polyline clip-path="url(#clip762)" style="stroke:#000000; stroke-linecap:round; stroke-linejoin:round; stroke-width:2; stroke-opacity:0.1; fill:none" points="3803.33,880.951 3803.33,47.2441 "/>
<polyline clip-path="url(#clip762)" style="stroke:#000000; stroke-linecap:round; stroke-linejoin:round; stroke-width:2; stroke-opacity:0.1; fill:none" points="4640.29,880.951 4640.29,47.2441 "/>
<polyline clip-path="url(#clip760)" style="stroke:#000000; stroke-linecap:round; stroke-linejoin:round; stroke-width:4; stroke-opacity:1; fill:none" points="778.932,880.951 4752.76,880.951 "/>
<polyline clip-path="url(#clip760)" style="stroke:#000000; stroke-linecap:round; stroke-linejoin:round; stroke-width:4; stroke-opacity:1; fill:none" points="1292.44,880.951 1292.44,862.054 "/>
<polyline clip-path="url(#clip760)" style="stroke:#000000; stroke-linecap:round; stroke-linejoin:round; stroke-width:4; stroke-opacity:1; fill:none" points="2129.4,880.951 2129.4,862.054 "/>
<polyline clip-path="url(#clip760)" style="stroke:#000000; stroke-linecap:round; stroke-linejoin:round; stroke-width:4; stroke-opacity:1; fill:none" points="2966.37,880.951 2966.37,862.054 "/>
<polyline clip-path="url(#clip760)" style="stroke:#000000; stroke-linecap:round; stroke-linejoin:round; stroke-width:4; stroke-opacity:1; fill:none" points="3803.33,880.951 3803.33,862.054 "/>
<polyline clip-path="url(#clip760)" style="stroke:#000000; stroke-linecap:round; stroke-linejoin:round; stroke-width:4; stroke-opacity:1; fill:none" points="4640.29,880.951 4640.29,862.054 "/>
<path clip-path="url(#clip760)" d="M1281.75 997.881 L1314.39 997.881 L1314.39 1005.75 L1270.5 1005.75 L1270.5 997.881 Q1275.82 992.372 1284.99 983.113 Q1294.2 973.807 1296.56 971.122 Q1301.05 966.076 1302.81 962.604 Q1304.62 959.085 1304.62 955.705 Q1304.62 950.196 1300.73 946.724 Q1296.89 943.252 1290.68 943.252 Q1286.29 943.252 1281.38 944.78 Q1276.52 946.307 1270.96 949.409 L1270.96 939.965 Q1276.61 937.696 1281.52 936.539 Q1286.42 935.382 1290.5 935.382 Q1301.24 935.382 1307.63 940.752 Q1314.02 946.122 1314.02 955.104 Q1314.02 959.363 1312.4 963.205 Q1310.82 967.002 1306.61 972.187 Q1305.45 973.529 1299.25 979.965 Q1293.04 986.353 1281.75 997.881 Z" fill="#000000" fill-rule="nonzero" fill-opacity="1" /><path clip-path="url(#clip760)" d="M2135.42 944.78 L2111.81 981.678 L2135.42 981.678 L2135.42 944.78 M2132.97 936.631 L2144.73 936.631 L2144.73 981.678 L2154.59 981.678 L2154.59 989.455 L2144.73 989.455 L2144.73 1005.75 L2135.42 1005.75 L2135.42 989.455 L2104.22 989.455 L2104.22 980.428 L2132.97 936.631 Z" fill="#000000" fill-rule="nonzero" fill-opacity="1" /><path clip-path="url(#clip760)" d="M2967.18 967.465 Q2960.88 967.465 2957.18 971.77 Q2953.52 976.076 2953.52 983.576 Q2953.52 991.029 2957.18 995.381 Q2960.88 999.687 2967.18 999.687 Q2973.47 999.687 2977.13 995.381 Q2980.83 991.029 2980.83 983.576 Q2980.83 976.076 2977.13 971.77 Q2973.47 967.465 2967.18 967.465 M2985.74 938.159 L2985.74 946.678 Q2982.22 945.011 2978.61 944.131 Q2975.05 943.252 2971.53 943.252 Q2962.27 943.252 2957.36 949.502 Q2952.5 955.752 2951.81 968.391 Q2954.54 964.363 2958.66 962.233 Q2962.78 960.057 2967.73 960.057 Q2978.15 960.057 2984.17 966.4 Q2990.23 972.696 2990.23 983.576 Q2990.23 994.224 2983.94 1000.66 Q2977.64 1007.09 2967.18 1007.09 Q2955.19 1007.09 2948.84 997.927 Q2942.5 988.715 2942.5 971.261 Q2942.5 954.872 2950.28 945.15 Q2958.06 935.382 2971.16 935.382 Q2974.68 935.382 2978.24 936.076 Q2981.85 936.77 2985.74 938.159 Z" fill="#000000" fill-rule="nonzero" fill-opacity="1" /><path clip-path="url(#clip760)" d="M3803.33 972.928 Q3796.66 972.928 3792.82 976.492 Q3789.02 980.057 3789.02 986.307 Q3789.02 992.557 3792.82 996.122 Q3796.66 999.687 3803.33 999.687 Q3809.99 999.687 3813.84 996.122 Q3817.68 992.511 3817.68 986.307 Q3817.68 980.057 3813.84 976.492 Q3810.04 972.928 3803.33 972.928 M3793.98 968.946 Q3787.96 967.465 3784.58 963.344 Q3781.24 959.224 3781.24 953.298 Q3781.24 945.011 3787.12 940.196 Q3793.05 935.382 3803.33 935.382 Q3813.65 935.382 3819.53 940.196 Q3825.41 945.011 3825.41 953.298 Q3825.41 959.224 3822.03 963.344 Q3818.7 967.465 3812.73 968.946 Q3819.48 970.52 3823.23 975.104 Q3827.03 979.687 3827.03 986.307 Q3827.03 996.353 3820.87 1001.72 Q3814.76 1007.09 3803.33 1007.09 Q3791.89 1007.09 3785.74 1001.72 Q3779.62 996.353 3779.62 986.307 Q3779.62 979.687 3783.42 975.104 Q3787.22 970.52 3793.98 968.946 M3790.55 954.178 Q3790.55 959.548 3793.88 962.557 Q3797.26 965.567 3803.33 965.567 Q3809.35 965.567 3812.73 962.557 Q3816.15 959.548 3816.15 954.178 Q3816.15 948.807 3812.73 945.798 Q3809.35 942.789 3803.33 942.789 Q3797.26 942.789 3793.88 945.798 Q3790.55 948.807 3790.55 954.178 Z" fill="#000000" fill-rule="nonzero" fill-opacity="1" /><path clip-path="url(#clip760)" d="M4589.66 997.881 L4604.94 997.881 L4604.94 945.15 L4588.32 948.483 L4588.32 939.965 L4604.85 936.631 L4614.2 936.631 L4614.2 997.881 L4629.48 997.881 L4629.48 1005.75 L4589.66 1005.75 L4589.66 997.881 Z" fill="#000000" fill-rule="nonzero" fill-opacity="1" /><path clip-path="url(#clip760)" d="M4668.37 942.789 Q4661.15 942.789 4657.49 949.918 Q4653.88 957.002 4653.88 971.261 Q4653.88 985.474 4657.49 992.603 Q4661.15 999.687 4668.37 999.687 Q4675.64 999.687 4679.25 992.603 Q4682.9 985.474 4682.9 971.261 Q4682.9 957.002 4679.25 949.918 Q4675.64 942.789 4668.37 942.789 M4668.37 935.382 Q4679.99 935.382 4686.1 944.594 Q4692.26 953.761 4692.26 971.261 Q4692.26 988.715 4686.1 997.927 Q4679.99 1007.09 4668.37 1007.09 Q4656.75 1007.09 4650.59 997.927 Q4644.48 988.715 4644.48 971.261 Q4644.48 953.761 4650.59 944.594 Q4656.75 935.382 4668.37 935.382 Z" fill="#000000" fill-rule="nonzero" fill-opacity="1" /><path clip-path="url(#clip760)" d="M2483.08 1072.18 L2548.87 1072.18 L2548.87 1081.04 L2521.26 1081.04 L2521.26 1149.94 L2510.69 1149.94 L2510.69 1081.04 L2483.08 1081.04 L2483.08 1072.18 Z" fill="#000000" fill-rule="nonzero" fill-opacity="1" /><path clip-path="url(#clip760)" d="M2555.32 1091.61 L2564.91 1091.61 L2564.91 1149.94 L2555.32 1149.94 L2555.32 1091.61 M2555.32 1068.9 L2564.91 1068.9 L2564.91 1081.04 L2555.32 1081.04 L2555.32 1068.9 Z" fill="#000000" fill-rule="nonzero" fill-opacity="1" /><path clip-path="url(#clip760)" d="M2630.38 1102.81 Q2633.97 1096.35 2638.97 1093.28 Q2643.97 1090.2 2650.74 1090.2 Q2659.85 1090.2 2664.8 1096.61 Q2669.75 1102.96 2669.75 1114.74 L2669.75 1149.94 L2660.12 1149.94 L2660.12 1115.05 Q2660.12 1106.66 2657.15 1102.6 Q2654.18 1098.54 2648.08 1098.54 Q2640.64 1098.54 2636.31 1103.49 Q2631.99 1108.43 2631.99 1116.97 L2631.99 1149.94 L2622.35 1149.94 L2622.35 1115.05 Q2622.35 1106.61 2619.39 1102.6 Q2616.42 1098.54 2610.22 1098.54 Q2602.88 1098.54 2598.55 1103.54 Q2594.23 1108.49 2594.23 1116.97 L2594.23 1149.94 L2584.59 1149.94 L2584.59 1091.61 L2594.23 1091.61 L2594.23 1100.67 Q2597.51 1095.31 2602.09 1092.76 Q2606.68 1090.2 2612.98 1090.2 Q2619.33 1090.2 2623.76 1093.43 Q2628.24 1096.66 2630.38 1102.81 Z" fill="#000000" fill-rule="nonzero" fill-opacity="1" /><path clip-path="url(#clip760)" d="M2738.76 1118.38 L2738.76 1123.07 L2694.7 1123.07 Q2695.32 1132.96 2700.64 1138.17 Q2706 1143.33 2715.53 1143.33 Q2721.05 1143.33 2726.21 1141.97 Q2731.42 1140.62 2736.52 1137.91 L2736.52 1146.97 Q2731.36 1149.16 2725.95 1150.31 Q2720.53 1151.45 2714.96 1151.45 Q2701 1151.45 2692.82 1143.33 Q2684.7 1135.2 2684.7 1121.35 Q2684.7 1107.03 2692.41 1098.64 Q2700.17 1090.2 2713.29 1090.2 Q2725.06 1090.2 2731.89 1097.81 Q2738.76 1105.36 2738.76 1118.38 M2729.18 1115.57 Q2729.07 1107.7 2724.75 1103.02 Q2720.48 1098.33 2713.4 1098.33 Q2705.38 1098.33 2700.53 1102.86 Q2695.74 1107.39 2695.01 1115.62 L2729.18 1115.57 Z" fill="#000000" fill-rule="nonzero" fill-opacity="1" /><path clip-path="url(#clip760)" d="M2811.42 1069.01 Q2804.44 1080.99 2801.05 1092.7 Q2797.67 1104.42 2797.67 1116.45 Q2797.67 1128.49 2801.05 1140.31 Q2804.49 1152.08 2811.42 1164.01 L2803.08 1164.01 Q2795.27 1151.77 2791.36 1139.94 Q2787.51 1128.12 2787.51 1116.45 Q2787.51 1104.84 2791.36 1093.07 Q2795.22 1081.3 2803.08 1069.01 L2811.42 1069.01 Z" fill="#000000" fill-rule="nonzero" fill-opacity="1" /><path clip-path="url(#clip760)" d="M2868.4 1100.46 L2868.4 1068.9 L2877.98 1068.9 L2877.98 1149.94 L2868.4 1149.94 L2868.4 1141.19 Q2865.37 1146.4 2860.74 1148.95 Q2856.16 1151.45 2849.7 1151.45 Q2839.12 1151.45 2832.46 1143.02 Q2825.84 1134.58 2825.84 1120.83 Q2825.84 1107.08 2832.46 1098.64 Q2839.12 1090.2 2849.7 1090.2 Q2856.16 1090.2 2860.74 1092.76 Q2865.37 1095.26 2868.4 1100.46 M2835.74 1120.83 Q2835.74 1131.4 2840.06 1137.44 Q2844.44 1143.43 2852.04 1143.43 Q2859.65 1143.43 2864.02 1137.44 Q2868.4 1131.4 2868.4 1120.83 Q2868.4 1110.26 2864.02 1104.27 Q2859.65 1098.23 2852.04 1098.23 Q2844.44 1098.23 2840.06 1104.27 Q2835.74 1110.26 2835.74 1120.83 Z" fill="#000000" fill-rule="nonzero" fill-opacity="1" /><path clip-path="url(#clip760)" d="M2924.23 1120.62 Q2912.61 1120.62 2908.13 1123.28 Q2903.66 1125.93 2903.66 1132.34 Q2903.66 1137.44 2906.99 1140.46 Q2910.37 1143.43 2916.16 1143.43 Q2924.12 1143.43 2928.92 1137.81 Q2933.76 1132.13 2933.76 1122.76 L2933.76 1120.62 L2924.23 1120.62 M2943.34 1116.66 L2943.34 1149.94 L2933.76 1149.94 L2933.76 1141.09 Q2930.48 1146.4 2925.58 1148.95 Q2920.69 1151.45 2913.6 1151.45 Q2904.65 1151.45 2899.33 1146.45 Q2894.07 1141.4 2894.07 1132.96 Q2894.07 1123.12 2900.63 1118.12 Q2907.25 1113.12 2920.32 1113.12 L2933.76 1113.12 L2933.76 1112.18 Q2933.76 1105.57 2929.38 1101.98 Q2925.06 1098.33 2917.2 1098.33 Q2912.2 1098.33 2907.46 1099.53 Q2902.72 1100.73 2898.34 1103.12 L2898.34 1094.27 Q2903.6 1092.24 2908.55 1091.25 Q2913.5 1090.2 2918.19 1090.2 Q2930.84 1090.2 2937.09 1096.77 Q2943.34 1103.33 2943.34 1116.66 Z" fill="#000000" fill-rule="nonzero" fill-opacity="1" /><path clip-path="url(#clip760)" d="M2987.35 1155.36 Q2983.29 1165.78 2979.44 1168.95 Q2975.58 1172.13 2969.12 1172.13 L2961.47 1172.13 L2961.47 1164.11 L2967.09 1164.11 Q2971.05 1164.11 2973.24 1162.24 Q2975.43 1160.36 2978.08 1153.38 L2979.8 1149.01 L2956.21 1091.61 L2966.36 1091.61 L2984.59 1137.24 L3002.82 1091.61 L3012.98 1091.61 L2987.35 1155.36 Z" fill="#000000" fill-rule="nonzero" fill-opacity="1" /><path clip-path="url(#clip760)" d="M3024.7 1069.01 L3033.03 1069.01 Q3040.84 1081.3 3044.7 1093.07 Q3048.6 1104.84 3048.6 1116.45 Q3048.6 1128.12 3044.7 1139.94 Q3040.84 1151.77 3033.03 1164.01 L3024.7 1164.01 Q3031.62 1152.08 3035.01 1140.31 Q3038.45 1128.49 3038.45 1116.45 Q3038.45 1104.42 3035.01 1092.7 Q3031.62 1080.99 3024.7 1069.01 Z" fill="#000000" fill-rule="nonzero" fill-opacity="1" /><polyline clip-path="url(#clip762)" style="stroke:#000000; stroke-linecap:round; stroke-linejoin:round; stroke-width:2; stroke-opacity:0.1; fill:none" points="778.932,700.415 4752.76,700.415 "/>
<polyline clip-path="url(#clip762)" style="stroke:#000000; stroke-linecap:round; stroke-linejoin:round; stroke-width:2; stroke-opacity:0.1; fill:none" points="778.932,499.658 4752.76,499.658 "/>
<polyline clip-path="url(#clip762)" style="stroke:#000000; stroke-linecap:round; stroke-linejoin:round; stroke-width:2; stroke-opacity:0.1; fill:none" points="778.932,298.902 4752.76,298.902 "/>
<polyline clip-path="url(#clip762)" style="stroke:#000000; stroke-linecap:round; stroke-linejoin:round; stroke-width:2; stroke-opacity:0.1; fill:none" points="778.932,98.1455 4752.76,98.1455 "/>
<polyline clip-path="url(#clip760)" style="stroke:#000000; stroke-linecap:round; stroke-linejoin:round; stroke-width:4; stroke-opacity:1; fill:none" points="778.932,880.951 778.932,47.2441 "/>
<polyline clip-path="url(#clip760)" style="stroke:#000000; stroke-linecap:round; stroke-linejoin:round; stroke-width:4; stroke-opacity:1; fill:none" points="778.932,700.415 797.829,700.415 "/>
<polyline clip-path="url(#clip760)" style="stroke:#000000; stroke-linecap:round; stroke-linejoin:round; stroke-width:4; stroke-opacity:1; fill:none" points="778.932,499.658 797.829,499.658 "/>
<polyline clip-path="url(#clip760)" style="stroke:#000000; stroke-linecap:round; stroke-linejoin:round; stroke-width:4; stroke-opacity:1; fill:none" points="778.932,298.902 797.829,298.902 "/>
<polyline clip-path="url(#clip760)" style="stroke:#000000; stroke-linecap:round; stroke-linejoin:round; stroke-width:4; stroke-opacity:1; fill:none" points="778.932,98.1455 797.829,98.1455 "/>
<path clip-path="url(#clip760)" d="M194.136 714.213 L253.488 714.213 L253.488 722.083 L194.136 722.083 L194.136 714.213 Z" fill="#000000" fill-rule="nonzero" fill-opacity="1" /><path clip-path="url(#clip760)" d="M281.729 740 L314.367 740 L314.367 747.87 L270.479 747.87 L270.479 740 Q275.803 734.49 284.969 725.231 Q294.182 715.926 296.543 713.241 Q301.034 708.194 302.793 704.722 Q304.599 701.204 304.599 697.824 Q304.599 692.315 300.71 688.843 Q296.867 685.37 290.664 685.37 Q286.266 685.37 281.358 686.898 Q276.497 688.426 270.942 691.528 L270.942 682.083 Q276.59 679.815 281.497 678.657 Q286.404 677.5 290.478 677.5 Q301.219 677.5 307.608 682.87 Q313.997 688.241 313.997 697.222 Q313.997 701.481 312.376 705.324 Q310.802 709.12 306.589 714.305 Q305.432 715.648 299.228 722.083 Q293.025 728.472 281.729 740 Z" fill="#000000" fill-rule="nonzero" fill-opacity="1" /><path clip-path="url(#clip760)" d="M333.997 736.111 L343.765 736.111 L343.765 747.87 L333.997 747.87 L333.997 736.111 Z" fill="#000000" fill-rule="nonzero" fill-opacity="1" /><path clip-path="url(#clip760)" d="M384.135 684.907 Q376.913 684.907 373.256 692.037 Q369.645 699.12 369.645 713.379 Q369.645 727.592 373.256 734.722 Q376.913 741.805 384.135 741.805 Q391.404 741.805 395.015 734.722 Q398.672 727.592 398.672 713.379 Q398.672 699.12 395.015 692.037 Q391.404 684.907 384.135 684.907 M384.135 677.5 Q395.756 677.5 401.867 686.713 Q408.024 695.88 408.024 713.379 Q408.024 730.833 401.867 740.046 Q395.756 749.213 384.135 749.213 Q372.515 749.213 366.358 740.046 Q360.247 730.833 360.247 713.379 Q360.247 695.88 366.358 686.713 Q372.515 677.5 384.135 677.5 Z" fill="#000000" fill-rule="nonzero" fill-opacity="1" /><path clip-path="url(#clip760)" d="M480.802 696.944 L459.644 718.194 L480.802 739.352 L475.292 744.953 L454.042 723.703 L432.793 744.953 L427.33 739.352 L448.441 718.194 L427.33 696.944 L432.793 691.343 L454.042 712.592 L475.292 691.343 L480.802 696.944 Z" fill="#000000" fill-rule="nonzero" fill-opacity="1" /><path clip-path="url(#clip760)" d="M505.524 740 L520.801 740 L520.801 687.269 L504.181 690.602 L504.181 682.083 L520.709 678.75 L530.061 678.75 L530.061 740 L545.338 740 L545.338 747.87 L505.524 747.87 L505.524 740 Z" fill="#000000" fill-rule="nonzero" fill-opacity="1" /><path clip-path="url(#clip760)" d="M584.227 684.907 Q577.005 684.907 573.347 692.037 Q569.736 699.12 569.736 713.379 Q569.736 727.592 573.347 734.722 Q577.005 741.805 584.227 741.805 Q591.495 741.805 595.106 734.722 Q598.764 727.592 598.764 713.379 Q598.764 699.12 595.106 692.037 Q591.495 684.907 584.227 684.907 M584.227 677.5 Q595.847 677.5 601.958 686.713 Q608.116 695.88 608.116 713.379 Q608.116 730.833 601.958 740.046 Q595.847 749.213 584.227 749.213 Q572.607 749.213 566.449 740.046 Q560.338 730.833 560.338 713.379 Q560.338 695.88 566.449 686.713 Q572.607 677.5 584.227 677.5 Z" fill="#000000" fill-rule="nonzero" fill-opacity="1" /><path clip-path="url(#clip760)" d="M608.116 665.703 L656.339 665.703 L656.339 672.097 L608.116 672.097 L608.116 665.703 Z" fill="#000000" fill-rule="nonzero" fill-opacity="1" /><path clip-path="url(#clip760)" d="M670.821 636.889 L706.932 636.889 L706.932 640.124 L686.544 693.049 L678.607 693.049 L697.791 643.284 L670.821 643.284 L670.821 636.889 Z" fill="#000000" fill-rule="nonzero" fill-opacity="1" /><path clip-path="url(#clip760)" d="M683.043 471.256 Q675.821 471.256 672.163 478.385 Q668.552 485.469 668.552 499.728 Q668.552 513.941 672.163 521.07 Q675.821 528.154 683.043 528.154 Q690.311 528.154 693.922 521.07 Q697.58 513.941 697.58 499.728 Q697.58 485.469 693.922 478.385 Q690.311 471.256 683.043 471.256 M683.043 463.848 Q694.663 463.848 700.774 473.061 Q706.932 482.228 706.932 499.728 Q706.932 517.181 700.774 526.394 Q694.663 535.561 683.043 535.561 Q671.423 535.561 665.265 526.394 Q659.154 517.181 659.154 499.728 Q659.154 482.228 665.265 473.061 Q671.423 463.848 683.043 463.848 Z" fill="#000000" fill-rule="nonzero" fill-opacity="1" /><path clip-path="url(#clip760)" d="M281.729 338.487 L314.367 338.487 L314.367 346.357 L270.479 346.357 L270.479 338.487 Q275.803 332.978 284.969 323.718 Q294.182 314.413 296.543 311.728 Q301.034 306.681 302.793 303.209 Q304.599 299.691 304.599 296.311 Q304.599 290.802 300.71 287.33 Q296.867 283.857 290.664 283.857 Q286.266 283.857 281.358 285.385 Q276.497 286.913 270.942 290.015 L270.942 280.57 Q276.59 278.302 281.497 277.145 Q286.404 275.987 290.478 275.987 Q301.219 275.987 307.608 281.357 Q313.997 286.728 313.997 295.709 Q313.997 299.968 312.376 303.811 Q310.802 307.607 306.589 312.792 Q305.432 314.135 299.228 320.57 Q293.025 326.959 281.729 338.487 Z" fill="#000000" fill-rule="nonzero" fill-opacity="1" /><path clip-path="url(#clip760)" d="M333.997 334.598 L343.765 334.598 L343.765 346.357 L333.997 346.357 L333.997 334.598 Z" fill="#000000" fill-rule="nonzero" fill-opacity="1" /><path clip-path="url(#clip760)" d="M384.135 283.395 Q376.913 283.395 373.256 290.524 Q369.645 297.607 369.645 311.867 Q369.645 326.079 373.256 333.209 Q376.913 340.292 384.135 340.292 Q391.404 340.292 395.015 333.209 Q398.672 326.079 398.672 311.867 Q398.672 297.607 395.015 290.524 Q391.404 283.395 384.135 283.395 M384.135 275.987 Q395.756 275.987 401.867 285.2 Q408.024 294.367 408.024 311.867 Q408.024 329.32 401.867 338.533 Q395.756 347.7 384.135 347.7 Q372.515 347.7 366.358 338.533 Q360.247 329.32 360.247 311.867 Q360.247 294.367 366.358 285.2 Q372.515 275.987 384.135 275.987 Z" fill="#000000" fill-rule="nonzero" fill-opacity="1" /><path clip-path="url(#clip760)" d="M480.802 295.431 L459.644 316.681 L480.802 337.839 L475.292 343.44 L454.042 322.191 L432.793 343.44 L427.33 337.839 L448.441 316.681 L427.33 295.431 L432.793 289.83 L454.042 311.08 L475.292 289.83 L480.802 295.431 Z" fill="#000000" fill-rule="nonzero" fill-opacity="1" /><path clip-path="url(#clip760)" d="M505.524 338.487 L520.801 338.487 L520.801 285.756 L504.181 289.089 L504.181 280.57 L520.709 277.237 L530.061 277.237 L530.061 338.487 L545.338 338.487 L545.338 346.357 L505.524 346.357 L505.524 338.487 Z" fill="#000000" fill-rule="nonzero" fill-opacity="1" /><path clip-path="url(#clip760)" d="M584.227 283.395 Q577.005 283.395 573.347 290.524 Q569.736 297.607 569.736 311.867 Q569.736 326.079 573.347 333.209 Q577.005 340.292 584.227 340.292 Q591.495 340.292 595.106 333.209 Q598.764 326.079 598.764 311.867 Q598.764 297.607 595.106 290.524 Q591.495 283.395 584.227 283.395 M584.227 275.987 Q595.847 275.987 601.958 285.2 Q608.116 294.367 608.116 311.867 Q608.116 329.32 601.958 338.533 Q595.847 347.7 584.227 347.7 Q572.607 347.7 566.449 338.533 Q560.338 329.32 560.338 311.867 Q560.338 294.367 566.449 285.2 Q572.607 275.987 584.227 275.987 Z" fill="#000000" fill-rule="nonzero" fill-opacity="1" /><path clip-path="url(#clip760)" d="M608.116 264.19 L656.339 264.19 L656.339 270.584 L608.116 270.584 L608.116 264.19 Z" fill="#000000" fill-rule="nonzero" fill-opacity="1" /><path clip-path="url(#clip760)" d="M670.821 235.376 L706.932 235.376 L706.932 238.611 L686.544 291.536 L678.607 291.536 L697.791 241.771 L670.821 241.771 L670.821 235.376 Z" fill="#000000" fill-rule="nonzero" fill-opacity="1" /><path clip-path="url(#clip760)" d="M299.367 84.6288 L275.756 121.527 L299.367 121.527 L299.367 84.6288 M296.914 76.4807 L308.673 76.4807 L308.673 121.527 L318.534 121.527 L318.534 129.304 L308.673 129.304 L308.673 145.601 L299.367 145.601 L299.367 129.304 L268.164 129.304 L268.164 120.277 L296.914 76.4807 Z" fill="#000000" fill-rule="nonzero" fill-opacity="1" /><path clip-path="url(#clip760)" d="M333.997 133.841 L343.765 133.841 L343.765 145.601 L333.997 145.601 L333.997 133.841 Z" fill="#000000" fill-rule="nonzero" fill-opacity="1" /><path clip-path="url(#clip760)" d="M384.135 82.638 Q376.913 82.638 373.256 89.7676 Q369.645 96.8509 369.645 111.11 Q369.645 125.323 373.256 132.453 Q376.913 139.536 384.135 139.536 Q391.404 139.536 395.015 132.453 Q398.672 125.323 398.672 111.11 Q398.672 96.8509 395.015 89.7676 Q391.404 82.638 384.135 82.638 M384.135 75.2307 Q395.756 75.2307 401.867 84.4436 Q408.024 93.6102 408.024 111.11 Q408.024 128.564 401.867 137.777 Q395.756 146.943 384.135 146.943 Q372.515 146.943 366.358 137.777 Q360.247 128.564 360.247 111.11 Q360.247 93.6102 366.358 84.4436 Q372.515 75.2307 384.135 75.2307 Z" fill="#000000" fill-rule="nonzero" fill-opacity="1" /><path clip-path="url(#clip760)" d="M480.802 94.675 L459.644 115.925 L480.802 137.082 L475.292 142.684 L454.042 121.434 L432.793 142.684 L427.33 137.082 L448.441 115.925 L427.33 94.675 L432.793 89.0732 L454.042 110.323 L475.292 89.0732 L480.802 94.675 Z" fill="#000000" fill-rule="nonzero" fill-opacity="1" /><path clip-path="url(#clip760)" d="M505.524 137.73 L520.801 137.73 L520.801 84.9991 L504.181 88.3325 L504.181 79.814 L520.709 76.4807 L530.061 76.4807 L530.061 137.73 L545.338 137.73 L545.338 145.601 L505.524 145.601 L505.524 137.73 Z" fill="#000000" fill-rule="nonzero" fill-opacity="1" /><path clip-path="url(#clip760)" d="M584.227 82.638 Q577.005 82.638 573.347 89.7676 Q569.736 96.8509 569.736 111.11 Q569.736 125.323 573.347 132.453 Q577.005 139.536 584.227 139.536 Q591.495 139.536 595.106 132.453 Q598.764 125.323 598.764 111.11 Q598.764 96.8509 595.106 89.7676 Q591.495 82.638 584.227 82.638 M584.227 75.2307 Q595.847 75.2307 601.958 84.4436 Q608.116 93.6102 608.116 111.11 Q608.116 128.564 601.958 137.777 Q595.847 146.943 584.227 146.943 Q572.607 146.943 566.449 137.777 Q560.338 128.564 560.338 111.11 Q560.338 93.6102 566.449 84.4436 Q572.607 75.2307 584.227 75.2307 Z" fill="#000000" fill-rule="nonzero" fill-opacity="1" /><path clip-path="url(#clip760)" d="M608.116 63.4334 L656.339 63.4334 L656.339 69.828 L608.116 69.828 L608.116 63.4334 Z" fill="#000000" fill-rule="nonzero" fill-opacity="1" /><path clip-path="url(#clip760)" d="M670.821 34.6199 L706.932 34.6199 L706.932 37.8548 L686.544 90.7799 L678.607 90.7799 L697.791 41.0145 L670.821 41.0145 L670.821 34.6199 Z" fill="#000000" fill-rule="nonzero" fill-opacity="1" /><path clip-path="url(#clip760)" d="M21.0484 714.383 L21.0484 700.216 L86.1001 665.737 L21.0484 665.737 L21.0484 655.529 L98.8084 655.529 L98.8084 669.696 L33.7566 704.175 L98.8084 704.175 L98.8084 714.383 L21.0484 714.383 Z" fill="#000000" fill-rule="nonzero" fill-opacity="1" /><path clip-path="url(#clip760)" d="M28.1838 603.029 Q28.1838 614.488 36.7254 621.258 Q45.267 627.977 60.0065 627.977 Q74.6939 627.977 83.2355 621.258 Q91.7772 614.488 91.7772 603.029 Q91.7772 591.571 83.2355 584.904 Q74.6939 578.186 60.0065 578.186 Q45.267 578.186 36.7254 584.904 Q28.1838 591.571 28.1838 603.029 M19.6421 603.029 Q19.6421 586.675 30.6317 576.884 Q41.5691 567.092 60.0065 567.092 Q78.3918 567.092 89.3813 576.884 Q100.319 586.675 100.319 603.029 Q100.319 619.436 89.3813 629.279 Q78.4439 639.071 60.0065 639.071 Q41.5691 639.071 30.6317 629.279 Q19.6421 619.436 19.6421 603.029 Z" fill="#000000" fill-rule="nonzero" fill-opacity="1" /><path clip-path="url(#clip760)" d="M17.8713 494.124 Q29.8504 501.103 41.5691 504.488 Q53.2878 507.874 65.319 507.874 Q77.3502 507.874 89.173 504.488 Q100.944 501.051 112.871 494.124 L112.871 502.457 Q100.631 510.269 88.8084 514.176 Q76.9856 518.03 65.319 518.03 Q53.7045 518.03 41.9337 514.176 Q30.1629 510.322 17.8713 502.457 L17.8713 494.124 Z" fill="#000000" fill-rule="nonzero" fill-opacity="1" /><path clip-path="url(#clip760)" d="M90.0584 466.259 L120.996 466.259 L120.996 475.895 L40.4754 475.895 L40.4754 466.259 L49.3295 466.259 Q44.1212 463.238 41.6212 458.655 Q39.0691 454.02 39.0691 447.614 Q39.0691 436.989 47.5066 430.374 Q55.944 423.707 69.694 423.707 Q83.4439 423.707 91.8813 430.374 Q100.319 436.989 100.319 447.614 Q100.319 454.02 97.8188 458.655 Q95.2667 463.238 90.0584 466.259 M69.694 433.655 Q59.1211 433.655 53.1315 438.03 Q47.0899 442.353 47.0899 449.957 Q47.0899 457.561 53.1315 461.936 Q59.1211 466.259 69.694 466.259 Q80.2668 466.259 86.3084 461.936 Q92.298 457.561 92.298 449.957 Q92.298 442.353 86.3084 438.03 Q80.2668 433.655 69.694 433.655 Z" fill="#000000" fill-rule="nonzero" fill-opacity="1" /><path clip-path="url(#clip760)" d="M90.0584 398.551 L120.996 398.551 L120.996 408.187 L40.4754 408.187 L40.4754 398.551 L49.3295 398.551 Q44.1212 395.53 41.6212 390.947 Q39.0691 386.312 39.0691 379.906 Q39.0691 369.281 47.5066 362.666 Q55.944 355.999 69.694 355.999 Q83.4439 355.999 91.8813 362.666 Q100.319 369.281 100.319 379.906 Q100.319 386.312 97.8188 390.947 Q95.2667 395.53 90.0584 398.551 M69.694 365.947 Q59.1211 365.947 53.1315 370.322 Q47.0899 374.645 47.0899 382.249 Q47.0899 389.853 53.1315 394.228 Q59.1211 398.551 69.694 398.551 Q80.2668 398.551 86.3084 394.228 Q92.298 389.853 92.298 382.249 Q92.298 374.645 86.3084 370.322 Q80.2668 365.947 69.694 365.947 Z" fill="#000000" fill-rule="nonzero" fill-opacity="1" /><path clip-path="url(#clip760)" d="M51.6732 294.698 Q45.2149 291.104 42.142 286.104 Q39.0691 281.104 39.0691 274.333 Q39.0691 265.219 45.4753 260.271 Q51.8295 255.323 63.6002 255.323 L98.8084 255.323 L98.8084 264.958 L63.9127 264.958 Q55.5274 264.958 51.4649 267.927 Q47.4024 270.896 47.4024 276.989 Q47.4024 284.437 52.3503 288.76 Q57.2982 293.083 65.8398 293.083 L98.8084 293.083 L98.8084 302.718 L63.9127 302.718 Q55.4753 302.718 51.4649 305.687 Q47.4024 308.656 47.4024 314.854 Q47.4024 322.198 52.4024 326.52 Q57.3503 330.843 65.8398 330.843 L98.8084 330.843 L98.8084 340.479 L40.4754 340.479 L40.4754 330.843 L49.5378 330.843 Q44.1733 327.562 41.6212 322.979 Q39.0691 318.395 39.0691 312.093 Q39.0691 305.739 42.2983 301.312 Q45.5274 296.833 51.6732 294.698 Z" fill="#000000" fill-rule="nonzero" fill-opacity="1" /><path clip-path="url(#clip760)" d="M17.8713 237.719 L17.8713 229.386 Q30.1629 221.573 41.9337 217.719 Q53.7045 213.813 65.319 213.813 Q76.9856 213.813 88.8084 217.719 Q100.631 221.573 112.871 229.386 L112.871 237.719 Q100.944 230.792 89.173 227.406 Q77.3502 223.969 65.319 223.969 Q53.2878 223.969 41.5691 227.406 Q29.8504 230.792 17.8713 237.719 Z" fill="#000000" fill-rule="nonzero" fill-opacity="1" /><path clip-path="url(#clip762)" d="M891.398 728.376 L908.835 707.801 L926.272 696.576 L943.708 733.81 L961.145 716.441 L978.582 673.919 L996.019 678.741 L1013.46 694.254 L1030.89 723.734 L1048.33 729.677 L1065.77 812.143 L1083.2 788.838 L1100.64 687.041 L1118.08 807.997 L1135.51 839.116 L1152.95 772.395 L1170.39 837.213 L1187.82 857.356 L1205.26 769.634 L1222.7 730.713 L1240.13 760.316 L1257.57 792.74 L1275.01 825.123 L1292.44 775.633 L1309.88 793.758 L1327.32 727.013 L1344.75 787.675 L1362.19 719.608 L1379.63 701.269 L1397.06 668.858 L1414.5 670.303 L1431.94 689.585 L1449.37 762.67 L1466.81 729.387 L1484.25 811.437 L1501.68 789.541 L1519.12 688.024 L1536.56 810.427 L1553.99 840.345 L1571.43 780.726 L1588.87 834.844 L1606.3 853.941 L1623.74 763.919 L1641.18 730.556 L1658.61 734.461 L1676.05 791.618 L1693.49 823.351 L1710.92 775.19 L1728.36 793.534 L1745.8 726.45 L1763.23 677.955 L1780.67 721.491 L1798.11 721.569 L1815.54 668.615 L1832.98 669.616 L1850.42 688.797 L1867.85 765.851 L1885.29 729.791 L1902.73 812.586 L1920.16 789.747 L1937.6 688.344 L1955.04 810.654 L1972.47 840.679 L1989.91 773.582 L2007.35 835.629 L2024.78 855.073 L2042.22 766.205 L2059.66 730.381 L2077.09 737.75 L2094.53 791.831 L2111.97 823.524 L2129.4 775.281 L2146.84 793.518 L2164.28 726.38 L2181.71 677.927 L2199.15 721.564 L2216.59 713.161 L2234.02 668.726 L2251.46 670.006 L2268.9 689.027 L2286.33 767.102 L2303.77 729.418 L2321.21 811.897 L2338.64 789.384 L2356.08 688.472 L2373.52 810.296 L2390.95 840.347 L2408.39 774.018 L2425.83 835.329 L2443.26 854.624 L2460.7 765.329 L2478.14 730.844 L2495.57 733.495 L2513.01 791.778 L2530.45 823.444 L2547.89 775.435 L2565.32 793.653 L2582.76 726.482 L2600.2 677.845 L2617.63 720.93 L2635.07 716.179 L2652.51 668.62 L2669.94 669.63 L2687.38 688.897 L2704.82 766.585 L2722.25 729.355 L2739.69 812.231 L2757.13 789.565 L2774.56 688.2 L2792 810.163 L2809.44 840.388 L2826.87 774.887 L2844.31 835.588 L2861.75 854.892 L2879.18 765.881 L2896.62 730.645 L2914.06 733.352 L2931.49 791.561 L2948.93 823.376 L2966.37 775.365 L2983.8 793.585 L3001.24 726.407 L3018.68 677.905 L3036.11 720.867 L3053.55 717.298 L3070.99 668.668 L3088.42 669.537 L3105.86 688.87 L3123.3 767.496 L3140.73 729.17 L3158.17 811.92 L3175.61 789.341 L3193.04 688.485 L3210.48 810.659 L3227.92 840.582 L3245.35 774.797 L3262.79 835.235 L3280.23 854.627 L3297.66 765.401 L3315.1 730.403 L3332.54 730.409 L3349.97 791.725 L3367.41 823.405 L3384.85 775.161 L3402.28 793.456 L3419.72 726.384 L3437.16 677.809 L3454.59 720.927 L3472.03 714.312 L3489.47 668.625 L3506.9 669.748 L3524.34 688.959 L3541.78 766.114 L3559.21 729.233 L3576.65 812.101 L3594.09 789.486 L3611.52 688.199 L3628.96 810.774 L3646.4 840.667 L3663.83 774.726 L3681.27 835.431 L3698.71 854.716 L3716.14 765.588 L3733.58 730.405 L3751.02 735.657 L3768.45 792.315 L3785.89 823.771 L3803.33 775.431 L3820.76 793.57 L3838.2 726.39 L3855.64 677.989 L3873.07 721.4 L3890.51 714.144 L3907.95 668.724 L3925.38 670.071 L3942.82 689.015 L3960.26 765.358 L3977.69 729.187 L3995.13 811.995 L4012.57 789.342 L4030 687.655 L4047.44 810.466 L4064.88 840.539 L4082.31 774.719 L4099.75 835.228 L4117.19 854.657 L4134.62 765.476 L4152.06 730.54 L4169.5 735.224 L4186.93 791.552 L4204.37 823.336 L4221.81 775.369 L4239.25 793.604 L4256.68 726.47 L4274.12 677.909 L4291.56 721.627 L4308.99 715.651 L4326.43 668.576 L4343.87 669.641 L4361.3 688.915 L4378.74 767.809 L4396.18 730.26 L4413.61 812.44 L4431.05 789.544 L4448.49 688.139 L4465.92 810.199 L4483.36 840.409 L4500.8 774.757 L4518.23 835.24 L4535.67 854.633 L4553.11 765.479 L4570.54 730.611 L4587.98 732.928 L4605.42 791.345 L4622.85 823.238 L4640.29 775.473 L4640.29 218.78 L4622.85 142.653 L4605.42 204.663 L4587.98 209.245 L4570.54 131.613 L4553.11 185.496 L4535.67 115.001 L4518.23 231.978 L4500.8 150.975 L4483.36 144.329 L4465.92 146.159 L4448.49 215.689 L4431.05 167.119 L4413.61 211.069 L4396.18 81.2728 L4378.74 193.978 L4361.3 214.76 L4343.87 119.729 L4326.43 245.065 L4308.99 167.234 L4291.56 161.087 L4274.12 176.209 L4256.68 141.67 L4239.25 158.492 L4221.81 218.786 L4204.37 142.408 L4186.93 204.831 L4169.5 209.641 L4152.06 130.621 L4134.62 186.019 L4117.19 115.006 L4099.75 232.577 L4082.31 153.24 L4064.88 147.257 L4047.44 148.762 L4030 215.758 L4012.57 168.452 L3995.13 211.034 L3977.69 80.8746 L3960.26 193.297 L3942.82 215.62 L3925.38 116.428 L3907.95 245.344 L3890.51 167.272 L3873.07 161.039 L3855.64 175.068 L3838.2 140.76 L3820.76 158.488 L3803.33 218.794 L3785.89 142.682 L3768.45 204.695 L3751.02 209.333 L3733.58 134.14 L3716.14 183.855 L3698.71 114.922 L3681.27 232.183 L3663.83 156.157 L3646.4 145.345 L3628.96 146.306 L3611.52 215.698 L3594.09 167.132 L3576.65 211.076 L3559.21 81.0509 L3541.78 194.904 L3524.34 218.689 L3506.9 117.099 L3489.47 244.946 L3472.03 167.068 L3454.59 158.315 L3437.16 177.704 L3419.72 139.946 L3402.28 158.516 L3384.85 218.758 L3367.41 142.382 L3349.97 204.839 L3332.54 209.222 L3315.1 131.577 L3297.66 185.547 L3280.23 114.897 L3262.79 232.607 L3245.35 152.871 L3227.92 144.36 L3210.48 148.837 L3193.04 215.739 L3175.61 169.79 L3158.17 210.925 L3140.73 81.2798 L3123.3 192.677 L3105.86 214.221 L3088.42 118.848 L3070.99 245.152 L3053.55 167.242 L3036.11 160.813 L3018.68 173.902 L3001.24 141.311 L2983.8 158.578 L2966.37 218.846 L2948.93 142.695 L2931.49 204.668 L2914.06 210.221 L2896.62 133.741 L2879.18 184.209 L2861.75 114.85 L2844.31 231.938 L2826.87 152.86 L2809.44 146.332 L2792 146.301 L2774.56 215.755 L2757.13 164.298 L2739.69 211.189 L2722.25 80.6684 L2704.82 195.047 L2687.38 215.281 L2669.94 118.066 L2652.51 245.022 L2635.07 167.051 L2617.63 157.702 L2600.2 178.792 L2582.76 138.829 L2565.32 158.767 L2547.89 218.535 L2530.45 142.48 L2513.01 204.713 L2495.57 208.086 L2478.14 131.98 L2460.7 185.3 L2443.26 114.728 L2425.83 231.823 L2408.39 146.458 L2390.95 145.299 L2373.52 148.859 L2356.08 215.048 L2338.64 176.223 L2321.21 206.01 L2303.77 81.0318 L2286.33 193.596 L2268.9 215.806 L2251.46 118.473 L2234.02 245.021 L2216.59 166.856 L2199.15 159.489 L2181.71 171.369 L2164.28 140.152 L2146.84 159.225 L2129.4 219.547 L2111.97 140.451 L2094.53 206.437 L2077.09 212.597 L2059.66 131.067 L2042.22 185.791 L2024.78 117.457 L2007.35 233.095 L1989.91 147.517 L1972.47 144.373 L1955.04 145.934 L1937.6 218.714 L1920.16 158.047 L1902.73 220.294 L1885.29 81.6782 L1867.85 199.858 L1850.42 211.206 L1832.98 116.847 L1815.54 245.98 L1798.11 166.907 L1780.67 155.525 L1763.23 187.309 L1745.8 141.253 L1728.36 159.128 L1710.92 215.597 L1693.49 143.487 L1676.05 203.955 L1658.61 209.937 L1641.18 132.251 L1623.74 184.987 L1606.3 117.992 L1588.87 231.973 L1571.43 147.703 L1553.99 146.383 L1536.56 147.6 L1519.12 203.588 L1501.68 209.178 L1484.25 158.929 L1466.81 70.8396 L1449.37 197.651 L1431.94 224.953 L1414.5 112.437 L1397.06 258.81 L1379.63 167.592 L1362.19 256.312 L1344.75 163.569 L1327.32 223.18 L1309.88 153.256 L1292.44 212.402 L1275.01 140.452 L1257.57 205.641 L1240.13 224.832 L1222.7 151.209 L1205.26 173.562 L1187.82 206.712 L1170.39 219.946 L1152.95 125.99 L1135.51 134.058 L1118.08 149.211 L1100.64 239.277 L1083.2 156.544 L1065.77 273.927 L1048.33 195.615 L1030.89 214.305 L1013.46 117.213 L996.019 320.844 L978.582 270.69 L961.145 305.875 L943.708 243.789 L926.272 332.823 L908.835 383.457 L891.398 406.456  Z" fill="#b0b0b0" fill-rule="evenodd" fill-opacity="0.5"/>
<polyline clip-path="url(#clip762)" style="stroke:#b0b0b0; stroke-linecap:round; stroke-linejoin:round; stroke-width:0; stroke-opacity:1; fill:none" points="891.398,500.125 908.835,511.395 926.272,506.507 943.708,502.138 961.145,499.656 978.582,496.734 996.019,495.013 1013.46,492.789 1030.89,492.263 1048.33,491.691 1065.77,489.574 1083.2,487.456 1100.64,487.431 1118.08,487.944 1135.51,489.707 1152.95,492.612 1170.39,494.586 1187.82,494.388 1205.26,492.777 1222.7,490.398 1240.13,489.574 1257.57,490.917 1275.01,491.972 1292.44,494.106 1309.88,494.186 1327.32,494.087 1344.75,493.642 1362.19,492.772 1379.63,492.063 1397.06,491.474 1414.5,491.314 1431.94,493.01 1449.37,493.746 1466.81,490.981 1484.25,488.815 1501.68,488.264 1519.12,489.317 1536.56,489.792 1553.99,490.192 1571.43,492.699 1588.87,494.235 1606.3,493.466 1623.74,492.011 1641.18,490.344 1658.61,489.654 1676.05,490.852 1693.49,491.824 1710.92,493.887 1728.36,494.123 1745.8,493.591 1763.23,493.533 1780.67,492.916 1798.11,492.105 1815.54,491.278 1832.98,491.076 1850.42,492.312 1867.85,493.406 1885.29,491.349 1902.73,489.846 1920.16,488.274 1937.6,488.903 1955.04,489.573 1972.47,490.259 1989.91,492.654 2007.35,494.119 2024.78,493.525 2042.22,492.205 2059.66,490.342 2077.09,489.557 2094.53,490.85 2111.97,491.834 2129.4,493.843 2146.84,494.042 2164.28,493.531 2181.71,493.45 2199.15,492.934 2216.59,492.094 2234.02,491.37 2251.46,491.197 2268.9,492.512 2286.33,493.488 2303.77,491.155 2321.21,489.383 2338.64,488.192 2356.08,489.071 2373.52,489.727 2390.95,490.199 2408.39,492.68 2425.83,494.225 2443.26,493.511 2460.7,492.151 2478.14,490.345 2495.57,489.571 2513.01,490.807 2530.45,491.815 2547.89,493.866 2565.32,494.094 2582.76,493.555 2600.2,493.434 2617.63,492.906 2635.07,492.072 2652.51,491.289 2669.94,491.093 2687.38,492.421 2704.82,493.465 2722.25,491.286 2739.69,489.676 2757.13,488.247 2774.56,488.985 2792,489.645 2809.44,490.265 2826.87,492.705 2844.31,494.147 2861.75,493.492 2879.18,492.17 2896.62,490.321 2914.06,489.571 2931.49,490.858 2948.93,491.871 2966.37,493.867 2983.8,494.057 3001.24,493.534 3018.68,493.438 3036.11,492.945 3053.55,492.093 3070.99,491.327 3088.42,491.139 3105.86,492.469 3123.3,493.485 3140.73,491.221 3158.17,489.514 3175.61,488.196 3193.04,489.014 3210.48,489.715 3227.92,490.248 3245.35,492.692 3262.79,494.172 3280.23,493.509 3297.66,492.178 3315.1,490.336 3332.54,489.543 3349.97,490.853 3367.41,491.813 3384.85,493.866 3402.28,494.054 3419.72,493.541 3437.16,493.45 3454.59,492.891 3472.03,492.068 3489.47,491.281 3506.9,491.101 3524.34,492.441 3541.78,493.467 3559.21,491.278 3576.65,489.627 3594.09,488.276 3611.52,489.027 3628.96,489.686 3646.4,490.25 3663.83,492.688 3681.27,494.13 3698.71,493.488 3716.14,492.159 3733.58,490.354 3751.02,489.589 3768.45,490.878 3785.89,491.872 3803.33,493.871 3820.76,494.055 3838.2,493.552 3855.64,493.449 3873.07,492.91 3890.51,492.093 3907.95,491.31 3925.38,491.133 3942.82,492.449 3960.26,493.465 3977.69,491.232 3995.13,489.546 4012.57,488.187 4030,489.021 4047.44,489.712 4064.88,490.255 4082.31,492.69 4099.75,494.17 4117.19,493.511 4134.62,492.167 4152.06,490.355 4169.5,489.58 4186.93,490.845 4204.37,491.835 4221.81,493.867 4239.25,494.059 4256.68,493.553 4274.12,493.458 4291.56,492.918 4308.99,492.102 4326.43,491.318 4343.87,491.14 4361.3,492.435 4378.74,493.449 4396.18,491.244 4413.61,489.632 4431.05,488.224 4448.49,489.02 4465.92,489.692 4483.36,490.26 4500.8,492.694 4518.23,494.152 4535.67,493.486 4553.11,492.16 4570.54,490.326 4587.98,489.563 4605.42,490.845 4622.85,491.845 4640.29,493.882 "/>
<path clip-path="url(#clip762)" d="M891.398 559.31 L908.835 590.651 L926.272 583.358 L943.708 575.811 L961.145 573.152 L978.582 578.957 L996.019 575.488 L1013.46 569.838 L1030.89 567.5 L1048.33 565.406 L1065.77 560.293 L1083.2 550.849 L1100.64 545.324 L1118.08 546.607 L1135.51 567.945 L1152.95 574.597 L1170.39 586.34 L1187.82 600.111 L1205.26 584.625 L1222.7 568.849 L1240.13 559.359 L1257.57 561.793 L1275.01 564.732 L1292.44 585.154 L1309.88 581.776 L1327.32 568.368 L1344.75 573.366 L1362.19 571.465 L1379.63 569.882 L1397.06 573.838 L1414.5 574.179 L1431.94 578.061 L1449.37 595.057 L1466.81 564.422 L1484.25 558.772 L1501.68 548.486 L1519.12 552.655 L1536.56 568.216 L1553.99 568.515 L1571.43 574.15 L1588.87 584.238 L1606.3 589.498 L1623.74 583.609 L1641.18 571.192 L1658.61 567.262 L1676.05 561.459 L1693.49 561.688 L1710.92 584.234 L1728.36 582.07 L1745.8 570.116 L1763.23 573.204 L1780.67 576.693 L1798.11 561.548 L1815.54 575.016 L1832.98 577.774 L1850.42 572.909 L1867.85 592.509 L1885.29 565.98 L1902.73 560.004 L1920.16 551.92 L1937.6 553.01 L1955.04 565.613 L1972.47 570.683 L1989.91 573.321 L2007.35 584.089 L2024.78 591.628 L2042.22 584.96 L2059.66 566.784 L2077.09 562.591 L2094.53 561.572 L2111.97 561.776 L2129.4 585.031 L2146.84 581.645 L2164.28 569.128 L2181.71 573.421 L2199.15 576.707 L2216.59 561.543 L2234.02 574.483 L2251.46 575.565 L2268.9 574.29 L2286.33 593.976 L2303.77 565.863 L2321.21 559.514 L2338.64 551.818 L2356.08 553.141 L2373.52 567.927 L2390.95 567.335 L2408.39 573.243 L2425.83 584.69 L2443.26 591.038 L2460.7 584.353 L2478.14 568.055 L2495.57 562.629 L2513.01 561.74 L2530.45 561.678 L2547.89 584.378 L2565.32 582.426 L2582.76 569.891 L2600.2 572.011 L2617.63 576.68 L2635.07 561.432 L2652.51 574.968 L2669.94 575.533 L2687.38 573.023 L2704.82 594.201 L2722.25 564.762 L2739.69 559.813 L2757.13 551.836 L2774.56 552.83 L2792 566.28 L2809.44 568.759 L2826.87 573.24 L2844.31 583.933 L2861.75 590.535 L2879.18 584.486 L2896.62 567.627 L2914.06 562.633 L2931.49 561.825 L2948.93 561.488 L2966.37 584.73 L2983.8 581.726 L3001.24 569.356 L3018.68 573.388 L3036.11 576.716 L3053.55 561.467 L3070.99 574.96 L3088.42 573.225 L3105.86 573.704 L3123.3 594.569 L3140.73 564.963 L3158.17 559.675 L3175.61 551.946 L3193.04 553.171 L3210.48 568.263 L3227.92 567.178 L3245.35 573.379 L3262.79 584.66 L3280.23 591.369 L3297.66 584.583 L3315.1 567.615 L3332.54 562.582 L3349.97 561.748 L3367.41 561.729 L3384.85 584.316 L3402.28 581.957 L3419.72 569.183 L3437.16 572.083 L3454.59 576.787 L3472.03 561.456 L3489.47 574.591 L3506.9 574.986 L3524.34 573.72 L3541.78 594.323 L3559.21 564.696 L3576.65 559.708 L3594.09 551.889 L3611.52 553.058 L3628.96 567.672 L3646.4 567.204 L3663.83 573.172 L3681.27 584.133 L3698.71 590.948 L3716.14 584.415 L3733.58 567.687 L3751.02 562.66 L3768.45 561.69 L3785.89 561.378 L3803.33 584.369 L3820.76 581.578 L3838.2 569.067 L3855.64 573.453 L3873.07 576.813 L3890.51 561.574 L3907.95 574.98 L3925.38 573.952 L3942.82 573.324 L3960.26 593.642 L3977.69 564.841 L3995.13 559.683 L4012.57 551.857 L4030 553.028 L4047.44 565.923 L4064.88 567.186 L4082.31 573.259 L4099.75 584.714 L4117.19 590.187 L4134.62 584.613 L4152.06 567.636 L4169.5 562.653 L4186.93 561.732 L4204.37 561.838 L4221.81 584.309 L4239.25 582.178 L4256.68 569.396 L4274.12 572.521 L4291.56 576.882 L4308.99 561.491 L4326.43 575.13 L4343.87 574.642 L4361.3 573.344 L4378.74 593.272 L4396.18 564.678 L4413.61 559.753 L4431.05 551.805 L4448.49 553.155 L4465.92 565.887 L4483.36 567.377 L4500.8 573.247 L4518.23 584.086 L4535.67 591.363 L4553.11 584.42 L4570.54 567.569 L4587.98 562.623 L4605.42 561.502 L4622.85 561.743 L4640.29 584.358 L4640.29 382.363 L4622.85 370.468 L4605.42 380.936 L4587.98 380.926 L4570.54 372.502 L4553.11 377.039 L4535.67 386.137 L4518.23 373.678 L4500.8 387.434 L4483.36 382.575 L4465.92 376.751 L4448.49 383.824 L4431.05 377.94 L4413.61 372.084 L4396.18 375.911 L4378.74 394.32 L4361.3 380.301 L4343.87 374.462 L4326.43 377.215 L4308.99 392.177 L4291.56 389.366 L4274.12 385.523 L4256.68 388.485 L4239.25 379.08 L4221.81 382.485 L4204.37 370.452 L4186.93 379.464 L4169.5 380.777 L4152.06 374.112 L4134.62 377.051 L4117.19 386.168 L4099.75 373.703 L4082.31 387.524 L4064.88 382.419 L4047.44 376.624 L4030 384.023 L4012.57 377.561 L3995.13 372.176 L3977.69 370.773 L3960.26 394.424 L3942.82 381.684 L3925.38 374.393 L3907.95 377.053 L3890.51 392.097 L3873.07 389.069 L3855.64 385.364 L3838.2 388.498 L3820.76 379.148 L3803.33 382.411 L3785.89 370.461 L3768.45 381.768 L3751.02 380.799 L3733.58 374.015 L3716.14 377.212 L3698.71 386.216 L3681.27 373.415 L3663.83 387.423 L3646.4 382.656 L3628.96 376.67 L3611.52 383.855 L3594.09 378.147 L3576.65 372.469 L3559.21 374.91 L3541.78 394.818 L3524.34 380.449 L3506.9 374.143 L3489.47 377.145 L3472.03 392.205 L3454.59 389.462 L3437.16 385.533 L3419.72 388.355 L3402.28 379.012 L3384.85 382.395 L3367.41 370.431 L3349.97 376.431 L3332.54 380.802 L3315.1 372.87 L3297.66 376.894 L3280.23 386.372 L3262.79 373.688 L3245.35 387.488 L3227.92 382.465 L3210.48 376.668 L3193.04 384.024 L3175.61 377.74 L3158.17 371.88 L3140.73 369.144 L3123.3 394.355 L3105.86 384.293 L3088.42 374.484 L3070.99 377.073 L3053.55 392.195 L3036.11 389.155 L3018.68 385.31 L3001.24 388.37 L2983.8 379.173 L2966.37 382.209 L2948.93 370.466 L2931.49 381.777 L2914.06 380.814 L2896.62 372.65 L2879.18 376.946 L2861.75 386.156 L2844.31 373.421 L2826.87 387.399 L2809.44 382.577 L2792 376.618 L2774.56 383.841 L2757.13 377.769 L2739.69 372.762 L2722.25 376.107 L2704.82 394.316 L2687.38 384.325 L2669.94 374.469 L2652.51 377.163 L2635.07 392.254 L2617.63 389.768 L2600.2 385.523 L2582.76 388.372 L2565.32 379.073 L2547.89 382.32 L2530.45 370.449 L2513.01 373.629 L2495.57 380.805 L2478.14 372.556 L2460.7 377.162 L2443.26 386.191 L2425.83 373.679 L2408.39 387.347 L2390.95 382.28 L2373.52 376.752 L2356.08 384.078 L2338.64 377.959 L2321.21 370.996 L2303.77 367.994 L2286.33 396.783 L2268.9 384.214 L2251.46 373.412 L2234.02 377.095 L2216.59 392.167 L2199.15 389.099 L2181.71 385.384 L2164.28 388.43 L2146.84 378.99 L2129.4 382.332 L2111.97 370.411 L2094.53 381.619 L2077.09 380.889 L2059.66 373.437 L2042.22 377.16 L2024.78 386.371 L2007.35 373.645 L1989.91 387.352 L1972.47 382.525 L1955.04 376.648 L1937.6 383.551 L1920.16 378.187 L1902.73 380.277 L1885.29 377.153 L1867.85 394.276 L1850.42 377.497 L1832.98 374.435 L1815.54 377.009 L1798.11 392.324 L1780.67 390.716 L1763.23 385.844 L1745.8 388.411 L1728.36 379.106 L1710.92 382.348 L1693.49 370.451 L1676.05 374.048 L1658.61 380.834 L1641.18 373.079 L1623.74 376.667 L1606.3 386.303 L1588.87 373.335 L1571.43 386.721 L1553.99 382.178 L1536.56 379.869 L1519.12 384.425 L1501.68 384.761 L1484.25 367.797 L1466.81 365.321 L1449.37 394.242 L1431.94 384.722 L1414.5 374.992 L1397.06 376.894 L1379.63 393.681 L1362.19 392.123 L1344.75 386.517 L1327.32 388.484 L1309.88 380.428 L1292.44 385.654 L1275.01 365.987 L1257.57 378.712 L1240.13 382.084 L1222.7 371.487 L1205.26 379.475 L1187.82 383.282 L1170.39 374.837 L1152.95 377.753 L1135.51 389.085 L1118.08 378.056 L1100.64 366.985 L1083.2 387.959 L1065.77 383.586 L1048.33 395.108 L1030.89 392.9 L1013.46 400.679 L996.019 397.147 L978.582 412.01 L961.145 422.332 L943.708 434.649 L926.272 455.078 L908.835 465.37 L891.398 449.928  Z" fill="#777777" fill-rule="evenodd" fill-opacity="0.5"/>
<polyline clip-path="url(#clip762)" style="stroke:#777777; stroke-linecap:round; stroke-linejoin:round; stroke-width:0; stroke-opacity:1; fill:none" points="891.398,500.125 908.835,511.395 926.272,506.507 943.708,502.138 961.145,499.656 978.582,496.734 996.019,495.013 1013.46,492.789 1030.89,492.263 1048.33,491.691 1065.77,489.574 1083.2,487.456 1100.64,487.431 1118.08,487.944 1135.51,489.707 1152.95,492.612 1170.39,494.586 1187.82,494.388 1205.26,492.777 1222.7,490.398 1240.13,489.574 1257.57,490.917 1275.01,491.972 1292.44,494.106 1309.88,494.186 1327.32,494.087 1344.75,493.642 1362.19,492.772 1379.63,492.063 1397.06,491.474 1414.5,491.314 1431.94,493.01 1449.37,493.746 1466.81,490.981 1484.25,488.815 1501.68,488.264 1519.12,489.317 1536.56,489.792 1553.99,490.192 1571.43,492.699 1588.87,494.235 1606.3,493.466 1623.74,492.011 1641.18,490.344 1658.61,489.654 1676.05,490.852 1693.49,491.824 1710.92,493.887 1728.36,494.123 1745.8,493.591 1763.23,493.533 1780.67,492.916 1798.11,492.105 1815.54,491.278 1832.98,491.076 1850.42,492.312 1867.85,493.406 1885.29,491.349 1902.73,489.846 1920.16,488.274 1937.6,488.903 1955.04,489.573 1972.47,490.259 1989.91,492.654 2007.35,494.119 2024.78,493.525 2042.22,492.205 2059.66,490.342 2077.09,489.557 2094.53,490.85 2111.97,491.834 2129.4,493.843 2146.84,494.042 2164.28,493.531 2181.71,493.45 2199.15,492.934 2216.59,492.094 2234.02,491.37 2251.46,491.197 2268.9,492.512 2286.33,493.488 2303.77,491.155 2321.21,489.383 2338.64,488.192 2356.08,489.071 2373.52,489.727 2390.95,490.199 2408.39,492.68 2425.83,494.225 2443.26,493.511 2460.7,492.151 2478.14,490.345 2495.57,489.571 2513.01,490.807 2530.45,491.815 2547.89,493.866 2565.32,494.094 2582.76,493.555 2600.2,493.434 2617.63,492.906 2635.07,492.072 2652.51,491.289 2669.94,491.093 2687.38,492.421 2704.82,493.465 2722.25,491.286 2739.69,489.676 2757.13,488.247 2774.56,488.985 2792,489.645 2809.44,490.265 2826.87,492.705 2844.31,494.147 2861.75,493.492 2879.18,492.17 2896.62,490.321 2914.06,489.571 2931.49,490.858 2948.93,491.871 2966.37,493.867 2983.8,494.057 3001.24,493.534 3018.68,493.438 3036.11,492.945 3053.55,492.093 3070.99,491.327 3088.42,491.139 3105.86,492.469 3123.3,493.485 3140.73,491.221 3158.17,489.514 3175.61,488.196 3193.04,489.014 3210.48,489.715 3227.92,490.248 3245.35,492.692 3262.79,494.172 3280.23,493.509 3297.66,492.178 3315.1,490.336 3332.54,489.543 3349.97,490.853 3367.41,491.813 3384.85,493.866 3402.28,494.054 3419.72,493.541 3437.16,493.45 3454.59,492.891 3472.03,492.068 3489.47,491.281 3506.9,491.101 3524.34,492.441 3541.78,493.467 3559.21,491.278 3576.65,489.627 3594.09,488.276 3611.52,489.027 3628.96,489.686 3646.4,490.25 3663.83,492.688 3681.27,494.13 3698.71,493.488 3716.14,492.159 3733.58,490.354 3751.02,489.589 3768.45,490.878 3785.89,491.872 3803.33,493.871 3820.76,494.055 3838.2,493.552 3855.64,493.449 3873.07,492.91 3890.51,492.093 3907.95,491.31 3925.38,491.133 3942.82,492.449 3960.26,493.465 3977.69,491.232 3995.13,489.546 4012.57,488.187 4030,489.021 4047.44,489.712 4064.88,490.255 4082.31,492.69 4099.75,494.17 4117.19,493.511 4134.62,492.167 4152.06,490.355 4169.5,489.58 4186.93,490.845 4204.37,491.835 4221.81,493.867 4239.25,494.059 4256.68,493.553 4274.12,493.458 4291.56,492.918 4308.99,492.102 4326.43,491.318 4343.87,491.14 4361.3,492.435 4378.74,493.449 4396.18,491.244 4413.61,489.632 4431.05,488.224 4448.49,489.02 4465.92,489.692 4483.36,490.26 4500.8,492.694 4518.23,494.152 4535.67,493.486 4553.11,492.16 4570.54,490.326 4587.98,489.563 4605.42,490.845 4622.85,491.845 4640.29,493.882 "/>
<path clip-path="url(#clip762)" d="M891.398 540.946 L908.835 567.68 L926.272 565.026 L943.708 553.804 L961.145 544.823 L978.582 544.38 L996.019 545.341 L1013.46 539.759 L1030.89 539.495 L1048.33 534.796 L1065.77 531.24 L1083.2 530.159 L1100.64 526.741 L1118.08 526.384 L1135.51 532.581 L1152.95 545.929 L1170.39 549.702 L1187.82 549.166 L1205.26 543.678 L1222.7 539.404 L1240.13 534.012 L1257.57 534.953 L1275.01 540.419 L1292.44 543.47 L1309.88 543.007 L1327.32 547.496 L1344.75 544.951 L1362.19 541.096 L1379.63 538.148 L1397.06 536.197 L1414.5 538.29 L1431.94 540.451 L1449.37 548.059 L1466.81 539.293 L1484.25 532.673 L1501.68 531.876 L1519.12 533.339 L1536.56 532.823 L1553.99 538.31 L1571.43 543.537 L1588.87 550.881 L1606.3 547.103 L1623.74 541.822 L1641.18 540.39 L1658.61 535.134 L1676.05 536.711 L1693.49 541.066 L1710.92 545.799 L1728.36 543.632 L1745.8 547.006 L1763.23 542.781 L1780.67 543.131 L1798.11 538.237 L1815.54 535.919 L1832.98 538.841 L1850.42 537.69 L1867.85 547.247 L1885.29 540.056 L1902.73 535.09 L1920.16 532.827 L1937.6 532.668 L1955.04 533.163 L1972.47 539.411 L1989.91 543.493 L2007.35 550.268 L2024.78 547.322 L2042.22 542.274 L2059.66 540.26 L2077.09 535.072 L2094.53 536.013 L2111.97 541.826 L2129.4 545.697 L2146.84 543.896 L2164.28 546.745 L2181.71 543.906 L2199.15 542.113 L2216.59 538.144 L2234.02 536.036 L2251.46 539.297 L2268.9 539.78 L2286.33 547.298 L2303.77 539.768 L2321.21 534.371 L2338.64 532.116 L2356.08 533.133 L2373.52 533.426 L2390.95 539.494 L2408.39 543.844 L2425.83 550.44 L2443.26 547.621 L2460.7 542.992 L2478.14 540.311 L2495.57 535.36 L2513.01 536.137 L2530.45 541.618 L2547.89 545.801 L2565.32 544.579 L2582.76 546.695 L2600.2 543.326 L2617.63 542.187 L2635.07 537.965 L2652.51 535.913 L2669.94 539.258 L2687.38 539.6 L2704.82 547.27 L2722.25 539.899 L2739.69 534.948 L2757.13 532.153 L2774.56 533.557 L2792 533.155 L2809.44 539.937 L2826.87 544.881 L2844.31 550.36 L2861.75 547.101 L2879.18 542.953 L2896.62 540.269 L2914.06 535.191 L2931.49 536.712 L2948.93 541.844 L2966.37 545.789 L2983.8 543.488 L3001.24 546.709 L3018.68 543.468 L3036.11 541.884 L3053.55 537.915 L3070.99 535.966 L3088.42 539.684 L3105.86 539.904 L3123.3 547.258 L3140.73 539.834 L3158.17 534.491 L3175.61 532.378 L3193.04 533.652 L3210.48 533.39 L3227.92 539.393 L3245.35 543.539 L3262.79 550.382 L3280.23 547.194 L3297.66 543.072 L3315.1 540.249 L3332.54 534.978 L3349.97 535.92 L3367.41 541.841 L3384.85 545.903 L3402.28 543.959 L3419.72 546.725 L3437.16 543.571 L3454.59 541.74 L3472.03 537.766 L3489.47 535.959 L3506.9 539.249 L3524.34 540.113 L3541.78 547.27 L3559.21 539.862 L3576.65 534.603 L3594.09 532.11 L3611.52 533.649 L3628.96 532.876 L3646.4 539.652 L3663.83 544.155 L3681.27 550.342 L3698.71 547.149 L3716.14 543.072 L3733.58 540.433 L3751.02 535.094 L3768.45 536.513 L3785.89 541.834 L3803.33 545.857 L3820.76 543.89 L3838.2 546.647 L3855.64 543.466 L3873.07 541.927 L3890.51 537.944 L3907.95 535.936 L3925.38 538.973 L3942.82 539.646 L3960.26 547.231 L3977.69 539.896 L3995.13 534.552 L4012.57 532.225 L4030 533.695 L4047.44 533.386 L4064.88 539.57 L4082.31 545.256 L4099.75 550.397 L4117.19 547.541 L4134.62 542.568 L4152.06 540.309 L4169.5 535.116 L4186.93 536.182 L4204.37 541.663 L4221.81 545.851 L4239.25 544.377 L4256.68 546.776 L4274.12 543.483 L4291.56 541.573 L4308.99 537.884 L4326.43 535.97 L4343.87 539.34 L4361.3 539.668 L4378.74 547.288 L4396.18 539.834 L4413.61 534.668 L4431.05 532.138 L4448.49 533.551 L4465.92 533.333 L4483.36 539.533 L4500.8 543.547 L4518.23 550.363 L4535.67 547.186 L4553.11 543.169 L4570.54 540.391 L4587.98 535.221 L4605.42 535.784 L4622.85 541.689 L4640.29 545.825 L4640.29 429.896 L4622.85 423.604 L4605.42 412.846 L4587.98 411.827 L4570.54 419.65 L4553.11 422.269 L4535.67 415.417 L4518.23 412.932 L4500.8 425.657 L4483.36 424.139 L4465.92 428.387 L4448.49 423.962 L4431.05 422.04 L4413.61 420.604 L4396.18 428.788 L4378.74 429.534 L4361.3 426.044 L4343.87 425.743 L4326.43 430.7 L4308.99 426.213 L4291.56 426.35 L4274.12 435.062 L4256.68 428.51 L4239.25 431 L4221.81 429.924 L4204.37 423.488 L4186.93 412.855 L4169.5 412.01 L4152.06 419.559 L4134.62 422.312 L4117.19 416.077 L4099.75 413.069 L4082.31 425.916 L4064.88 422.208 L4047.44 428.388 L4030 424.078 L4012.57 422.012 L3995.13 420.386 L3977.69 428.76 L3960.26 429.554 L3942.82 426.081 L3925.38 425.416 L3907.95 430.603 L3890.51 426.173 L3873.07 426.306 L3855.64 435.16 L3838.2 428.536 L3820.76 431.08 L3803.33 429.593 L3785.89 423.616 L3768.45 412.868 L3751.02 412.084 L3733.58 420.307 L3716.14 422.254 L3698.71 416.268 L3681.27 413.018 L3663.83 425.926 L3646.4 422.502 L3628.96 428.385 L3611.52 425.531 L3594.09 422.218 L3576.65 420.232 L3559.21 428.873 L3541.78 429.553 L3524.34 426.086 L3506.9 424.962 L3489.47 430.488 L3472.03 425.922 L3454.59 426.36 L3437.16 434.86 L3419.72 428.507 L3402.28 431.066 L3384.85 429.793 L3367.41 423.537 L3349.97 412.826 L3332.54 412.107 L3315.1 420.116 L3297.66 422.334 L3280.23 416.168 L3262.79 412.997 L3245.35 425.943 L3227.92 422.121 L3210.48 428.379 L3193.04 424.083 L3175.61 422.111 L3158.17 420.504 L3140.73 428.759 L3123.3 429.572 L3105.86 426.158 L3088.42 424.778 L3070.99 430.596 L3053.55 426.252 L3036.11 426.107 L3018.68 435.042 L3001.24 428.513 L2983.8 431.103 L2966.37 429.708 L2948.93 423.471 L2931.49 412.832 L2914.06 412.107 L2896.62 420.091 L2879.18 422.295 L2861.75 416.091 L2844.31 412.888 L2826.87 425.937 L2809.44 422.464 L2792 428.302 L2774.56 420.057 L2757.13 422.044 L2739.69 420.483 L2722.25 428.749 L2704.82 429.56 L2687.38 426.072 L2669.94 424.997 L2652.51 430.63 L2635.07 426.227 L2617.63 426.264 L2600.2 435.11 L2582.76 428.516 L2565.32 431.018 L2547.89 429.949 L2530.45 423.188 L2513.01 412.797 L2495.57 411.99 L2478.14 420.132 L2460.7 422.251 L2443.26 416.11 L2425.83 415.541 L2408.39 425.914 L2390.95 422.008 L2373.52 428.454 L2356.08 424.618 L2338.64 422.069 L2321.21 420.283 L2303.77 428.692 L2286.33 429.538 L2268.9 426.173 L2251.46 425.163 L2234.02 430.91 L2216.59 425.931 L2199.15 426.411 L2181.71 434.947 L2164.28 428.516 L2146.84 431.069 L2129.4 429.865 L2111.97 422.727 L2094.53 412.809 L2077.09 412.044 L2059.66 420.239 L2042.22 422.404 L2024.78 415.93 L2007.35 414.173 L1989.91 425.937 L1972.47 422.639 L1955.04 428.214 L1937.6 418.289 L1920.16 422.083 L1902.73 420.878 L1885.29 429.125 L1867.85 429.599 L1850.42 425.895 L1832.98 424.578 L1815.54 431.044 L1798.11 426.661 L1780.67 426.235 L1763.23 435.163 L1745.8 428.502 L1728.36 431.081 L1710.92 429.783 L1693.49 422.28 L1676.05 412.266 L1658.61 412.038 L1641.18 420.288 L1623.74 421.893 L1606.3 415.993 L1588.87 415.133 L1571.43 425.344 L1553.99 423.496 L1536.56 424.982 L1519.12 426.552 L1501.68 422.412 L1484.25 418.589 L1466.81 428.658 L1449.37 429.398 L1431.94 427.966 L1414.5 425.173 L1397.06 430.799 L1379.63 423.561 L1362.19 425.822 L1344.75 434.321 L1327.32 427.224 L1309.88 431.199 L1292.44 432.143 L1275.01 420.126 L1257.57 414.947 L1240.13 412.172 L1222.7 419.608 L1205.26 421.488 L1187.82 418.3 L1170.39 414.37 L1152.95 424.779 L1135.51 422.065 L1118.08 421.264 L1100.64 417.676 L1083.2 418.987 L1065.77 418.208 L1048.33 434.271 L1030.89 434.461 L1013.46 433.396 L996.019 437.074 L978.582 443.045 L961.145 454.888 L943.708 459.31 L926.272 464.935 L908.835 476.338 L891.398 459.304  Z" fill="#434343" fill-rule="evenodd" fill-opacity="0.5"/>
<polyline clip-path="url(#clip762)" style="stroke:#434343; stroke-linecap:round; stroke-linejoin:round; stroke-width:0; stroke-opacity:1; fill:none" points="891.398,500.125 908.835,511.395 926.272,506.507 943.708,502.138 961.145,499.656 978.582,496.734 996.019,495.013 1013.46,492.789 1030.89,492.263 1048.33,491.691 1065.77,489.574 1083.2,487.456 1100.64,487.431 1118.08,487.944 1135.51,489.707 1152.95,492.612 1170.39,494.586 1187.82,494.388 1205.26,492.777 1222.7,490.398 1240.13,489.574 1257.57,490.917 1275.01,491.972 1292.44,494.106 1309.88,494.186 1327.32,494.087 1344.75,493.642 1362.19,492.772 1379.63,492.063 1397.06,491.474 1414.5,491.314 1431.94,493.01 1449.37,493.746 1466.81,490.981 1484.25,488.815 1501.68,488.264 1519.12,489.317 1536.56,489.792 1553.99,490.192 1571.43,492.699 1588.87,494.235 1606.3,493.466 1623.74,492.011 1641.18,490.344 1658.61,489.654 1676.05,490.852 1693.49,491.824 1710.92,493.887 1728.36,494.123 1745.8,493.591 1763.23,493.533 1780.67,492.916 1798.11,492.105 1815.54,491.278 1832.98,491.076 1850.42,492.312 1867.85,493.406 1885.29,491.349 1902.73,489.846 1920.16,488.274 1937.6,488.903 1955.04,489.573 1972.47,490.259 1989.91,492.654 2007.35,494.119 2024.78,493.525 2042.22,492.205 2059.66,490.342 2077.09,489.557 2094.53,490.85 2111.97,491.834 2129.4,493.843 2146.84,494.042 2164.28,493.531 2181.71,493.45 2199.15,492.934 2216.59,492.094 2234.02,491.37 2251.46,491.197 2268.9,492.512 2286.33,493.488 2303.77,491.155 2321.21,489.383 2338.64,488.192 2356.08,489.071 2373.52,489.727 2390.95,490.199 2408.39,492.68 2425.83,494.225 2443.26,493.511 2460.7,492.151 2478.14,490.345 2495.57,489.571 2513.01,490.807 2530.45,491.815 2547.89,493.866 2565.32,494.094 2582.76,493.555 2600.2,493.434 2617.63,492.906 2635.07,492.072 2652.51,491.289 2669.94,491.093 2687.38,492.421 2704.82,493.465 2722.25,491.286 2739.69,489.676 2757.13,488.247 2774.56,488.985 2792,489.645 2809.44,490.265 2826.87,492.705 2844.31,494.147 2861.75,493.492 2879.18,492.17 2896.62,490.321 2914.06,489.571 2931.49,490.858 2948.93,491.871 2966.37,493.867 2983.8,494.057 3001.24,493.534 3018.68,493.438 3036.11,492.945 3053.55,492.093 3070.99,491.327 3088.42,491.139 3105.86,492.469 3123.3,493.485 3140.73,491.221 3158.17,489.514 3175.61,488.196 3193.04,489.014 3210.48,489.715 3227.92,490.248 3245.35,492.692 3262.79,494.172 3280.23,493.509 3297.66,492.178 3315.1,490.336 3332.54,489.543 3349.97,490.853 3367.41,491.813 3384.85,493.866 3402.28,494.054 3419.72,493.541 3437.16,493.45 3454.59,492.891 3472.03,492.068 3489.47,491.281 3506.9,491.101 3524.34,492.441 3541.78,493.467 3559.21,491.278 3576.65,489.627 3594.09,488.276 3611.52,489.027 3628.96,489.686 3646.4,490.25 3663.83,492.688 3681.27,494.13 3698.71,493.488 3716.14,492.159 3733.58,490.354 3751.02,489.589 3768.45,490.878 3785.89,491.872 3803.33,493.871 3820.76,494.055 3838.2,493.552 3855.64,493.449 3873.07,492.91 3890.51,492.093 3907.95,491.31 3925.38,491.133 3942.82,492.449 3960.26,493.465 3977.69,491.232 3995.13,489.546 4012.57,488.187 4030,489.021 4047.44,489.712 4064.88,490.255 4082.31,492.69 4099.75,494.17 4117.19,493.511 4134.62,492.167 4152.06,490.355 4169.5,489.58 4186.93,490.845 4204.37,491.835 4221.81,493.867 4239.25,494.059 4256.68,493.553 4274.12,493.458 4291.56,492.918 4308.99,492.102 4326.43,491.318 4343.87,491.14 4361.3,492.435 4378.74,493.449 4396.18,491.244 4413.61,489.632 4431.05,488.224 4448.49,489.02 4465.92,489.692 4483.36,490.26 4500.8,492.694 4518.23,494.152 4535.67,493.486 4553.11,492.16 4570.54,490.326 4587.98,489.563 4605.42,490.845 4622.85,491.845 4640.29,493.882 "/>
<path clip-path="url(#clip760)" d="M3903.64 593.434 L4620.3 593.434 L4620.3 75.0343 L3903.64 75.0343  Z" fill="#ffffff" fill-rule="evenodd" fill-opacity="1"/>
<polyline clip-path="url(#clip760)" style="stroke:#000000; stroke-linecap:round; stroke-linejoin:round; stroke-width:4; stroke-opacity:1; fill:none" points="3903.64,593.434 4620.3,593.434 4620.3,75.0343 3903.64,75.0343 3903.64,593.434 "/>
<polyline clip-path="url(#clip760)" style="stroke:#b0b0b0; stroke-linecap:round; stroke-linejoin:round; stroke-width:2; stroke-opacity:1; fill:none" points="3947.8,204.634 4212.72,204.634 "/>
<path clip-path="url(#clip760)" d="M4258.55 237.996 L4277.65 237.996 L4277.65 172.082 L4256.87 176.249 L4256.87 165.601 L4277.53 161.434 L4289.22 161.434 L4289.22 237.996 L4308.32 237.996 L4308.32 247.834 L4258.55 247.834 L4258.55 237.996 Z" fill="#000000" fill-rule="nonzero" fill-opacity="1" /><path clip-path="url(#clip760)" d="M4356.93 169.131 Q4347.9 169.131 4343.33 178.043 Q4338.82 186.897 4338.82 204.721 Q4338.82 222.487 4343.33 231.399 Q4347.9 240.253 4356.93 240.253 Q4366.02 240.253 4370.53 231.399 Q4375.1 222.487 4375.1 204.721 Q4375.1 186.897 4370.53 178.043 Q4366.02 169.131 4356.93 169.131 M4356.93 159.872 Q4371.46 159.872 4379.09 171.388 Q4386.79 182.846 4386.79 204.721 Q4386.79 226.538 4379.09 238.054 Q4371.46 249.513 4356.93 249.513 Q4342.4 249.513 4334.71 238.054 Q4327.07 226.538 4327.07 204.721 Q4327.07 182.846 4334.71 171.388 Q4342.4 159.872 4356.93 159.872 Z" fill="#000000" fill-rule="nonzero" fill-opacity="1" /><path clip-path="url(#clip760)" d="M4432.33 169.131 Q4423.31 169.131 4418.73 178.043 Q4414.22 186.897 4414.22 204.721 Q4414.22 222.487 4418.73 231.399 Q4423.31 240.253 4432.33 240.253 Q4441.42 240.253 4445.93 231.399 Q4450.51 222.487 4450.51 204.721 Q4450.51 186.897 4445.93 178.043 Q4441.42 169.131 4432.33 169.131 M4432.33 159.872 Q4446.86 159.872 4454.5 171.388 Q4462.2 182.846 4462.2 204.721 Q4462.2 226.538 4454.5 238.054 Q4446.86 249.513 4432.33 249.513 Q4417.81 249.513 4410.11 238.054 Q4402.47 226.538 4402.47 204.721 Q4402.47 182.846 4410.11 171.388 Q4417.81 159.872 4432.33 159.872 Z" fill="#000000" fill-rule="nonzero" fill-opacity="1" /><path clip-path="url(#clip760)" d="M4556.23 209.814 Q4551.2 209.814 4548.31 214.096 Q4545.47 218.378 4545.47 226.017 Q4545.47 233.54 4548.31 237.881 Q4551.2 242.163 4556.23 242.163 Q4561.15 242.163 4563.99 237.881 Q4566.88 233.54 4566.88 226.017 Q4566.88 218.436 4563.99 214.154 Q4561.15 209.814 4556.23 209.814 M4556.23 202.464 Q4565.38 202.464 4570.76 208.83 Q4576.14 215.196 4576.14 226.017 Q4576.14 236.839 4570.7 243.205 Q4565.32 249.513 4556.23 249.513 Q4546.97 249.513 4541.59 243.205 Q4536.21 236.839 4536.21 226.017 Q4536.21 215.138 4541.59 208.83 Q4547.03 202.464 4556.23 202.464 M4496.51 167.221 Q4491.54 167.221 4488.64 171.562 Q4485.81 175.844 4485.81 183.367 Q4485.81 191.006 4488.64 195.288 Q4491.48 199.571 4496.51 199.571 Q4501.55 199.571 4504.38 195.288 Q4507.28 191.006 4507.28 183.367 Q4507.28 175.902 4504.38 171.562 Q4501.49 167.221 4496.51 167.221 M4548.77 159.872 L4558.03 159.872 L4503.98 249.513 L4494.72 249.513 L4548.77 159.872 M4496.51 159.872 Q4505.66 159.872 4511.1 166.238 Q4516.54 172.545 4516.54 183.367 Q4516.54 194.305 4511.1 200.612 Q4505.71 206.92 4496.51 206.92 Q4487.31 206.92 4481.93 200.612 Q4476.6 194.247 4476.6 183.367 Q4476.6 172.603 4481.99 166.238 Q4487.37 159.872 4496.51 159.872 Z" fill="#000000" fill-rule="nonzero" fill-opacity="1" /><polyline clip-path="url(#clip760)" style="stroke:#777777; stroke-linecap:round; stroke-linejoin:round; stroke-width:2; stroke-opacity:1; fill:none" points="3947.8,334.234 4212.72,334.234 "/>
<path clip-path="url(#clip760)" d="M4262.43 375.64 L4262.43 364.992 Q4266.83 367.076 4271.34 368.175 Q4275.85 369.275 4280.19 369.275 Q4291.77 369.275 4297.84 361.52 Q4303.98 353.708 4304.85 337.851 Q4301.49 342.828 4296.34 345.49 Q4291.19 348.152 4284.94 348.152 Q4271.98 348.152 4264.4 340.34 Q4256.87 332.469 4256.87 318.87 Q4256.87 305.56 4264.74 297.516 Q4272.61 289.472 4285.69 289.472 Q4300.68 289.472 4308.55 300.988 Q4316.48 312.446 4316.48 334.321 Q4316.48 354.749 4306.76 366.96 Q4297.09 379.113 4280.71 379.113 Q4276.32 379.113 4271.8 378.245 Q4267.29 377.376 4262.43 375.64 M4285.69 339.009 Q4293.56 339.009 4298.13 333.627 Q4302.76 328.245 4302.76 318.87 Q4302.76 309.553 4298.13 304.171 Q4293.56 298.731 4285.69 298.731 Q4277.82 298.731 4273.19 304.171 Q4268.62 309.553 4268.62 318.87 Q4268.62 328.245 4273.19 333.627 Q4277.82 339.009 4285.69 339.009 Z" fill="#000000" fill-rule="nonzero" fill-opacity="1" /><path clip-path="url(#clip760)" d="M4362.49 298.731 Q4353.46 298.731 4348.89 307.643 Q4344.37 316.497 4344.37 334.321 Q4344.37 352.087 4348.89 360.999 Q4353.46 369.853 4362.49 369.853 Q4371.57 369.853 4376.08 360.999 Q4380.66 352.087 4380.66 334.321 Q4380.66 316.497 4376.08 307.643 Q4371.57 298.731 4362.49 298.731 M4362.49 289.472 Q4377.01 289.472 4384.65 300.988 Q4392.35 312.446 4392.35 334.321 Q4392.35 356.138 4384.65 367.654 Q4377.01 379.113 4362.49 379.113 Q4347.96 379.113 4340.26 367.654 Q4332.62 356.138 4332.62 334.321 Q4332.62 312.446 4340.26 300.988 Q4347.96 289.472 4362.49 289.472 Z" fill="#000000" fill-rule="nonzero" fill-opacity="1" /><path clip-path="url(#clip760)" d="M4486.39 339.414 Q4481.35 339.414 4478.46 343.696 Q4475.62 347.978 4475.62 355.617 Q4475.62 363.14 4478.46 367.481 Q4481.35 371.763 4486.39 371.763 Q4491.3 371.763 4494.14 367.481 Q4497.03 363.14 4497.03 355.617 Q4497.03 348.036 4494.14 343.754 Q4491.3 339.414 4486.39 339.414 M4486.39 332.064 Q4495.53 332.064 4500.91 338.43 Q4506.29 344.796 4506.29 355.617 Q4506.29 366.439 4500.85 372.805 Q4495.47 379.113 4486.39 379.113 Q4477.13 379.113 4471.74 372.805 Q4466.36 366.439 4466.36 355.617 Q4466.36 344.738 4471.74 338.43 Q4477.18 332.064 4486.39 332.064 M4426.66 296.821 Q4421.69 296.821 4418.79 301.162 Q4415.96 305.444 4415.96 312.967 Q4415.96 320.606 4418.79 324.888 Q4421.63 329.171 4426.66 329.171 Q4431.7 329.171 4434.53 324.888 Q4437.43 320.606 4437.43 312.967 Q4437.43 305.502 4434.53 301.162 Q4431.64 296.821 4426.66 296.821 M4478.92 289.472 L4488.18 289.472 L4434.13 379.113 L4424.87 379.113 L4478.92 289.472 M4426.66 289.472 Q4435.81 289.472 4441.25 295.838 Q4446.69 302.145 4446.69 312.967 Q4446.69 323.905 4441.25 330.212 Q4435.86 336.52 4426.66 336.52 Q4417.46 336.52 4412.08 330.212 Q4406.76 323.847 4406.76 312.967 Q4406.76 302.203 4412.14 295.838 Q4417.52 289.472 4426.66 289.472 Z" fill="#000000" fill-rule="nonzero" fill-opacity="1" /><polyline clip-path="url(#clip760)" style="stroke:#434343; stroke-linecap:round; stroke-linejoin:round; stroke-width:2; stroke-opacity:1; fill:none" points="3947.8,463.834 4212.72,463.834 "/>
<path clip-path="url(#clip760)" d="M4286.5 466.004 Q4278.17 466.004 4273.37 470.46 Q4268.62 474.916 4268.62 482.729 Q4268.62 490.541 4273.37 494.997 Q4278.17 499.453 4286.5 499.453 Q4294.84 499.453 4299.64 494.997 Q4304.44 490.484 4304.44 482.729 Q4304.44 474.916 4299.64 470.46 Q4294.89 466.004 4286.5 466.004 M4274.81 461.028 Q4267.29 459.176 4263.06 454.025 Q4258.9 448.875 4258.9 441.468 Q4258.9 431.109 4266.25 425.09 Q4273.65 419.072 4286.5 419.072 Q4299.41 419.072 4306.76 425.09 Q4314.11 431.109 4314.11 441.468 Q4314.11 448.875 4309.88 454.025 Q4305.71 459.176 4298.25 461.028 Q4306.7 462.995 4311.39 468.724 Q4316.13 474.453 4316.13 482.729 Q4316.13 495.287 4308.43 502 Q4300.8 508.713 4286.5 508.713 Q4272.21 508.713 4264.51 502 Q4256.87 495.287 4256.87 482.729 Q4256.87 474.453 4261.62 468.724 Q4266.36 462.995 4274.81 461.028 M4270.53 442.567 Q4270.53 449.28 4274.7 453.042 Q4278.92 456.803 4286.5 456.803 Q4294.02 456.803 4298.25 453.042 Q4302.53 449.28 4302.53 442.567 Q4302.53 435.854 4298.25 432.093 Q4294.02 428.331 4286.5 428.331 Q4278.92 428.331 4274.7 432.093 Q4270.53 435.854 4270.53 442.567 Z" fill="#000000" fill-rule="nonzero" fill-opacity="1" /><path clip-path="url(#clip760)" d="M4361.91 428.331 Q4352.88 428.331 4348.31 437.243 Q4343.79 446.097 4343.79 463.921 Q4343.79 481.687 4348.31 490.599 Q4352.88 499.453 4361.91 499.453 Q4370.99 499.453 4375.51 490.599 Q4380.08 481.687 4380.08 463.921 Q4380.08 446.097 4375.51 437.243 Q4370.99 428.331 4361.91 428.331 M4361.91 419.072 Q4376.43 419.072 4384.07 430.588 Q4391.77 442.046 4391.77 463.921 Q4391.77 485.738 4384.07 497.254 Q4376.43 508.713 4361.91 508.713 Q4347.38 508.713 4339.68 497.254 Q4332.05 485.738 4332.05 463.921 Q4332.05 442.046 4339.68 430.588 Q4347.38 419.072 4361.91 419.072 Z" fill="#000000" fill-rule="nonzero" fill-opacity="1" /><path clip-path="url(#clip760)" d="M4485.81 469.014 Q4480.77 469.014 4477.88 473.296 Q4475.04 477.578 4475.04 485.217 Q4475.04 492.74 4477.88 497.081 Q4480.77 501.363 4485.81 501.363 Q4490.73 501.363 4493.56 497.081 Q4496.45 492.74 4496.45 485.217 Q4496.45 477.636 4493.56 473.354 Q4490.73 469.014 4485.81 469.014 M4485.81 461.664 Q4494.95 461.664 4500.33 468.03 Q4505.71 474.396 4505.71 485.217 Q4505.71 496.039 4500.27 502.405 Q4494.89 508.713 4485.81 508.713 Q4476.55 508.713 4471.17 502.405 Q4465.78 496.039 4465.78 485.217 Q4465.78 474.338 4471.17 468.03 Q4476.6 461.664 4485.81 461.664 M4426.08 426.421 Q4421.11 426.421 4418.21 430.762 Q4415.38 435.044 4415.38 442.567 Q4415.38 450.206 4418.21 454.488 Q4421.05 458.771 4426.08 458.771 Q4431.12 458.771 4433.95 454.488 Q4436.85 450.206 4436.85 442.567 Q4436.85 435.102 4433.95 430.762 Q4431.06 426.421 4426.08 426.421 M4478.34 419.072 L4487.6 419.072 L4433.55 508.713 L4424.29 508.713 L4478.34 419.072 M4426.08 419.072 Q4435.23 419.072 4440.67 425.438 Q4446.11 431.745 4446.11 442.567 Q4446.11 453.505 4440.67 459.812 Q4435.29 466.12 4426.08 466.12 Q4416.88 466.12 4411.5 459.812 Q4406.18 453.447 4406.18 442.567 Q4406.18 431.803 4411.56 425.438 Q4416.94 419.072 4426.08 419.072 Z" fill="#000000" fill-rule="nonzero" fill-opacity="1" /></svg>
