<?xml version="1.0" encoding="utf-8"?>
<svg xmlns="http://www.w3.org/2000/svg" xmlns:xlink="http://www.w3.org/1999/xlink" width="700" height="450" viewBox="0 0 2800 1800">
<defs>
  <clipPath id="clip730">
    <rect x="0" y="0" width="2800" height="1800"/>
  </clipPath>
</defs>
<path clip-path="url(#clip730)" d="M0 1800 L2800 1800 L2800 -2.27374e-13 L0 -2.27374e-13  Z" fill="#ffffff" fill-rule="evenodd" fill-opacity="1"/>
<defs>
  <clipPath id="clip731">
    <rect x="560" y="0" width="1961" height="1800"/>
  </clipPath>
</defs>
<path clip-path="url(#clip730)" d="M587.483 1562.54 L2402.98 1562.54 L2402.98 47.2441 L587.483 47.2441  Z" fill="#ffffff" fill-rule="evenodd" fill-opacity="1"/>
<defs>
  <clipPath id="clip732">
    <rect x="587" y="47" width="1817" height="1516"/>
  </clipPath>
</defs>
<polyline clip-path="url(#clip732)" style="stroke:#000000; stroke-linecap:round; stroke-linejoin:round; stroke-width:2; stroke-opacity:0.1; fill:none" points="638.865,1562.54 638.865,47.2441 "/>
<polyline clip-path="url(#clip732)" style="stroke:#000000; stroke-linecap:round; stroke-linejoin:round; stroke-width:2; stroke-opacity:0.1; fill:none" points="1209.78,1562.54 1209.78,47.2441 "/>
<polyline clip-path="url(#clip732)" style="stroke:#000000; stroke-linecap:round; stroke-linejoin:round; stroke-width:2; stroke-opacity:0.1; fill:none" points="1780.69,1562.54 1780.69,47.2441 "/>
<polyline clip-path="url(#clip732)" style="stroke:#000000; stroke-linecap:round; stroke-linejoin:round; stroke-width:2; stroke-opacity:0.1; fill:none" points="2351.6,1562.54 2351.6,47.2441 "/>
<polyline clip-path="url(#clip730)" style="stroke:#000000; stroke-linecap:round; stroke-linejoin:round; stroke-width:4; stroke-opacity:1; fill:none" points="587.483,1562.54 2402.98,1562.54 "/>
<polyline clip-path="url(#clip730)" style="stroke:#000000; stroke-linecap:round; stroke-linejoin:round; stroke-width:4; stroke-opacity:1; fill:none" points="638.865,1562.54 638.865,1543.64 "/>
<polyline clip-path="url(#clip730)" style="stroke:#000000; stroke-linecap:round; stroke-linejoin:round; stroke-width:4; stroke-opacity:1; fill:none" points="1209.78,1562.54 1209.78,1543.64 "/>
<polyline clip-path="url(#clip730)" style="stroke:#000000; stroke-linecap:round; stroke-linejoin:round; stroke-width:4; stroke-opacity:1; fill:none" points="1780.69,1562.54 1780.69,1543.64 "/>
<polyline clip-path="url(#clip730)" style="stroke:#000000; stroke-linecap:round; stroke-linejoin:round; stroke-width:4; stroke-opacity:1; fill:none" points="2351.6,1562.54 2351.6,1543.64 "/>
<path clip-path="url(#clip730)" d="M622.033 1653.65 L635.401 1653.65 L635.401 1607.51 L620.859 1610.43 L620.859 1602.98 L635.32 1600.06 L643.503 1600.06 L643.503 1653.65 L656.871 1653.65 L656.871 1660.54 L622.033 1660.54 L622.033 1653.65 Z" fill="#000000" fill-rule="nonzero" fill-opacity="1" /><path clip-path="url(#clip730)" d="M1200.42 1653.65 L1228.98 1653.65 L1228.98 1660.54 L1190.58 1660.54 L1190.58 1653.65 Q1195.23 1648.83 1203.26 1640.73 Q1211.32 1632.59 1213.38 1630.24 Q1217.31 1625.82 1218.85 1622.79 Q1220.43 1619.71 1220.43 1616.75 Q1220.43 1611.93 1217.03 1608.89 Q1213.67 1605.85 1208.24 1605.85 Q1204.39 1605.85 1200.1 1607.19 Q1195.84 1608.53 1190.98 1611.24 L1190.98 1602.98 Q1195.92 1600.99 1200.22 1599.98 Q1204.51 1598.97 1208.08 1598.97 Q1217.47 1598.97 1223.06 1603.67 Q1228.65 1608.36 1228.65 1616.22 Q1228.65 1619.95 1227.24 1623.31 Q1225.86 1626.63 1222.17 1631.17 Q1221.16 1632.35 1215.73 1637.98 Q1210.3 1643.57 1200.42 1653.65 Z" fill="#000000" fill-rule="nonzero" fill-opacity="1" /><path clip-path="url(#clip730)" d="M1788.12 1627.93 Q1794 1629.19 1797.28 1633.16 Q1800.6 1637.13 1800.6 1642.96 Q1800.6 1651.91 1794.44 1656.81 Q1788.28 1661.72 1776.94 1661.72 Q1773.13 1661.72 1769.08 1660.95 Q1765.07 1660.22 1760.78 1658.72 L1760.78 1650.82 Q1764.18 1652.8 1768.23 1653.82 Q1772.28 1654.83 1776.7 1654.83 Q1784.4 1654.83 1788.41 1651.79 Q1792.46 1648.75 1792.46 1642.96 Q1792.46 1637.61 1788.69 1634.61 Q1784.96 1631.58 1778.28 1631.58 L1771.23 1631.58 L1771.23 1624.85 L1778.6 1624.85 Q1784.64 1624.85 1787.84 1622.46 Q1791.04 1620.03 1791.04 1615.49 Q1791.04 1610.84 1787.72 1608.36 Q1784.44 1605.85 1778.28 1605.85 Q1774.92 1605.85 1771.07 1606.58 Q1767.22 1607.31 1762.6 1608.85 L1762.6 1601.56 Q1767.26 1600.26 1771.31 1599.61 Q1775.4 1598.97 1779.01 1598.97 Q1788.33 1598.97 1793.75 1603.22 Q1799.18 1607.43 1799.18 1614.64 Q1799.18 1619.67 1796.31 1623.15 Q1793.43 1626.59 1788.12 1627.93 Z" fill="#000000" fill-rule="nonzero" fill-opacity="1" /><path clip-path="url(#clip730)" d="M2356.87 1607.19 L2336.21 1639.48 L2356.87 1639.48 L2356.87 1607.19 M2354.72 1600.06 L2365.01 1600.06 L2365.01 1639.48 L2373.64 1639.48 L2373.64 1646.28 L2365.01 1646.28 L2365.01 1660.54 L2356.87 1660.54 L2356.87 1646.28 L2329.56 1646.28 L2329.56 1638.38 L2354.72 1600.06 Z" fill="#000000" fill-rule="nonzero" fill-opacity="1" /><path clip-path="url(#clip730)" d="M1158.22 1709.08 L1167.57 1709.08 L1167.57 1770.33 L1201.23 1770.33 L1201.23 1778.2 L1158.22 1778.2 L1158.22 1709.08 Z" fill="#000000" fill-rule="nonzero" fill-opacity="1" /><path clip-path="url(#clip730)" d="M1234.24 1752.14 Q1223.92 1752.14 1219.93 1754.5 Q1215.95 1756.86 1215.95 1762.56 Q1215.95 1767.09 1218.92 1769.78 Q1221.92 1772.42 1227.06 1772.42 Q1234.15 1772.42 1238.41 1767.42 Q1242.71 1762.37 1242.71 1754.04 L1242.71 1752.14 L1234.24 1752.14 M1251.23 1748.62 L1251.23 1778.2 L1242.71 1778.2 L1242.71 1770.33 Q1239.79 1775.06 1235.44 1777.32 Q1231.09 1779.55 1224.8 1779.55 Q1216.83 1779.55 1212.11 1775.1 Q1207.43 1770.61 1207.43 1763.11 Q1207.43 1754.36 1213.27 1749.92 Q1219.15 1745.47 1230.77 1745.47 L1242.71 1745.47 L1242.71 1744.64 Q1242.71 1738.76 1238.82 1735.57 Q1234.98 1732.32 1227.99 1732.32 Q1223.55 1732.32 1219.33 1733.39 Q1215.12 1734.45 1211.23 1736.58 L1211.23 1728.71 Q1215.91 1726.91 1220.3 1726.03 Q1224.7 1725.1 1228.87 1725.1 Q1240.12 1725.1 1245.67 1730.94 Q1251.23 1736.77 1251.23 1748.62 Z" fill="#000000" fill-rule="nonzero" fill-opacity="1" /><path clip-path="url(#clip730)" d="M1277.2 1711.63 L1277.2 1726.35 L1294.75 1726.35 L1294.75 1732.97 L1277.2 1732.97 L1277.2 1761.12 Q1277.2 1767.46 1278.92 1769.27 Q1280.67 1771.07 1286 1771.07 L1294.75 1771.07 L1294.75 1778.2 L1286 1778.2 Q1276.14 1778.2 1272.39 1774.55 Q1268.64 1770.84 1268.64 1761.12 L1268.64 1732.97 L1262.39 1732.97 L1262.39 1726.35 L1268.64 1726.35 L1268.64 1711.63 L1277.2 1711.63 Z" fill="#000000" fill-rule="nonzero" fill-opacity="1" /><path clip-path="url(#clip730)" d="M1350.3 1750.15 L1350.3 1754.32 L1311.14 1754.32 Q1311.69 1763.11 1316.41 1767.74 Q1321.18 1772.32 1329.66 1772.32 Q1334.56 1772.32 1339.15 1771.12 Q1343.78 1769.92 1348.31 1767.51 L1348.31 1775.57 Q1343.73 1777.51 1338.91 1778.53 Q1334.1 1779.55 1329.15 1779.55 Q1316.74 1779.55 1309.47 1772.32 Q1302.25 1765.1 1302.25 1752.79 Q1302.25 1740.06 1309.1 1732.6 Q1316 1725.1 1327.66 1725.1 Q1338.13 1725.1 1344.19 1731.86 Q1350.3 1738.57 1350.3 1750.15 M1341.79 1747.65 Q1341.69 1740.66 1337.85 1736.49 Q1334.05 1732.32 1327.76 1732.32 Q1320.63 1732.32 1316.32 1736.35 Q1312.06 1740.38 1311.41 1747.7 L1341.79 1747.65 Z" fill="#000000" fill-rule="nonzero" fill-opacity="1" /><path clip-path="url(#clip730)" d="M1407.39 1746.91 L1407.39 1778.2 L1398.87 1778.2 L1398.87 1747.19 Q1398.87 1739.82 1396 1736.17 Q1393.13 1732.51 1387.39 1732.51 Q1380.49 1732.51 1376.51 1736.91 Q1372.53 1741.31 1372.53 1748.9 L1372.53 1778.2 L1363.96 1778.2 L1363.96 1726.35 L1372.53 1726.35 L1372.53 1734.41 Q1375.58 1729.73 1379.7 1727.42 Q1383.87 1725.1 1389.28 1725.1 Q1398.22 1725.1 1402.8 1730.66 Q1407.39 1736.17 1407.39 1746.91 Z" fill="#000000" fill-rule="nonzero" fill-opacity="1" /><path clip-path="url(#clip730)" d="M1432.8 1711.63 L1432.8 1726.35 L1450.35 1726.35 L1450.35 1732.97 L1432.8 1732.97 L1432.8 1761.12 Q1432.8 1767.46 1434.52 1769.27 Q1436.28 1771.07 1441.6 1771.07 L1450.35 1771.07 L1450.35 1778.2 L1441.6 1778.2 Q1431.74 1778.2 1427.99 1774.55 Q1424.24 1770.84 1424.24 1761.12 L1424.24 1732.97 L1417.99 1732.97 L1417.99 1726.35 L1424.24 1726.35 L1424.24 1711.63 L1432.8 1711.63 Z" fill="#000000" fill-rule="nonzero" fill-opacity="1" /><path clip-path="url(#clip730)" d="M1524.75 1727.88 L1524.75 1735.94 Q1521.14 1734.08 1517.25 1733.16 Q1513.36 1732.23 1509.19 1732.23 Q1502.85 1732.23 1499.65 1734.18 Q1496.51 1736.12 1496.51 1740.01 Q1496.51 1742.97 1498.78 1744.69 Q1501.04 1746.35 1507.9 1747.88 L1510.81 1748.53 Q1519.89 1750.47 1523.68 1754.04 Q1527.52 1757.56 1527.52 1763.9 Q1527.52 1771.12 1521.78 1775.33 Q1516.09 1779.55 1506.09 1779.55 Q1501.92 1779.55 1497.39 1778.71 Q1492.9 1777.93 1487.9 1776.31 L1487.9 1767.51 Q1492.62 1769.96 1497.2 1771.21 Q1501.78 1772.42 1506.27 1772.42 Q1512.29 1772.42 1515.53 1770.38 Q1518.77 1768.3 1518.77 1764.55 Q1518.77 1761.07 1516.41 1759.22 Q1514.1 1757.37 1506.18 1755.66 L1503.22 1754.96 Q1495.3 1753.3 1491.78 1749.87 Q1488.27 1746.4 1488.27 1740.38 Q1488.27 1733.07 1493.45 1729.08 Q1498.64 1725.1 1508.17 1725.1 Q1512.9 1725.1 1517.06 1725.8 Q1521.23 1726.49 1524.75 1727.88 Z" fill="#000000" fill-rule="nonzero" fill-opacity="1" /><path clip-path="url(#clip730)" d="M1549.33 1770.43 L1549.33 1797.93 L1540.77 1797.93 L1540.77 1726.35 L1549.33 1726.35 L1549.33 1734.22 Q1552.02 1729.59 1556.09 1727.37 Q1560.21 1725.1 1565.9 1725.1 Q1575.35 1725.1 1581.23 1732.6 Q1587.15 1740.1 1587.15 1752.32 Q1587.15 1764.55 1581.23 1772.05 Q1575.35 1779.55 1565.9 1779.55 Q1560.21 1779.55 1556.09 1777.32 Q1552.02 1775.06 1549.33 1770.43 M1578.31 1752.32 Q1578.31 1742.93 1574.42 1737.6 Q1570.58 1732.23 1563.82 1732.23 Q1557.06 1732.23 1553.17 1737.6 Q1549.33 1742.93 1549.33 1752.32 Q1549.33 1761.72 1553.17 1767.09 Q1557.06 1772.42 1563.82 1772.42 Q1570.58 1772.42 1574.42 1767.09 Q1578.31 1761.72 1578.31 1752.32 Z" fill="#000000" fill-rule="nonzero" fill-opacity="1" /><path clip-path="url(#clip730)" d="M1645.63 1750.15 L1645.63 1754.32 L1606.46 1754.32 Q1607.02 1763.11 1611.74 1767.74 Q1616.51 1772.32 1624.98 1772.32 Q1629.89 1772.32 1634.47 1771.12 Q1639.1 1769.92 1643.64 1767.51 L1643.64 1775.57 Q1639.05 1777.51 1634.24 1778.53 Q1629.42 1779.55 1624.47 1779.55 Q1612.06 1779.55 1604.79 1772.32 Q1597.57 1765.1 1597.57 1752.79 Q1597.57 1740.06 1604.42 1732.6 Q1611.32 1725.1 1622.99 1725.1 Q1633.45 1725.1 1639.52 1731.86 Q1645.63 1738.57 1645.63 1750.15 M1637.11 1747.65 Q1637.02 1740.66 1633.17 1736.49 Q1629.38 1732.32 1623.08 1732.32 Q1615.95 1732.32 1611.64 1736.35 Q1607.39 1740.38 1606.74 1747.7 L1637.11 1747.65 Z" fill="#000000" fill-rule="nonzero" fill-opacity="1" /><path clip-path="url(#clip730)" d="M1696.92 1728.34 L1696.92 1736.31 Q1693.31 1734.32 1689.65 1733.34 Q1686.04 1732.32 1682.34 1732.32 Q1674.05 1732.32 1669.47 1737.6 Q1664.89 1742.83 1664.89 1752.32 Q1664.89 1761.82 1669.47 1767.09 Q1674.05 1772.32 1682.34 1772.32 Q1686.04 1772.32 1689.65 1771.35 Q1693.31 1770.33 1696.92 1768.34 L1696.92 1776.21 Q1693.36 1777.88 1689.51 1778.71 Q1685.72 1779.55 1681.41 1779.55 Q1669.7 1779.55 1662.8 1772.19 Q1655.9 1764.82 1655.9 1752.32 Q1655.9 1739.64 1662.85 1732.37 Q1669.84 1725.1 1681.97 1725.1 Q1685.9 1725.1 1689.65 1725.94 Q1693.4 1726.72 1696.92 1728.34 Z" fill="#000000" fill-rule="nonzero" fill-opacity="1" /><path clip-path="url(#clip730)" d="M1711.74 1726.35 L1720.26 1726.35 L1720.26 1778.2 L1711.74 1778.2 L1711.74 1726.35 M1711.74 1706.17 L1720.26 1706.17 L1720.26 1716.95 L1711.74 1716.95 L1711.74 1706.17 Z" fill="#000000" fill-rule="nonzero" fill-opacity="1" /><path clip-path="url(#clip730)" d="M1782.43 1750.15 L1782.43 1754.32 L1743.26 1754.32 Q1743.82 1763.11 1748.54 1767.74 Q1753.31 1772.32 1761.78 1772.32 Q1766.69 1772.32 1771.27 1771.12 Q1775.9 1769.92 1780.44 1767.51 L1780.44 1775.57 Q1775.86 1777.51 1771.04 1778.53 Q1766.23 1779.55 1761.27 1779.55 Q1748.87 1779.55 1741.6 1772.32 Q1734.38 1765.1 1734.38 1752.79 Q1734.38 1740.06 1741.23 1732.6 Q1748.13 1725.1 1759.79 1725.1 Q1770.26 1725.1 1776.32 1731.86 Q1782.43 1738.57 1782.43 1750.15 M1773.91 1747.65 Q1773.82 1740.66 1769.98 1736.49 Q1766.18 1732.32 1759.88 1732.32 Q1752.76 1732.32 1748.45 1736.35 Q1744.19 1740.38 1743.54 1747.7 L1773.91 1747.65 Z" fill="#000000" fill-rule="nonzero" fill-opacity="1" /><path clip-path="url(#clip730)" d="M1829.47 1727.88 L1829.47 1735.94 Q1825.86 1734.08 1821.97 1733.16 Q1818.08 1732.23 1813.91 1732.23 Q1807.57 1732.23 1804.38 1734.18 Q1801.23 1736.12 1801.23 1740.01 Q1801.23 1742.97 1803.5 1744.69 Q1805.76 1746.35 1812.62 1747.88 L1815.53 1748.53 Q1824.61 1750.47 1828.4 1754.04 Q1832.25 1757.56 1832.25 1763.9 Q1832.25 1771.12 1826.5 1775.33 Q1820.81 1779.55 1810.81 1779.55 Q1806.64 1779.55 1802.11 1778.71 Q1797.62 1777.93 1792.62 1776.31 L1792.62 1767.51 Q1797.34 1769.96 1801.92 1771.21 Q1806.5 1772.42 1811 1772.42 Q1817.01 1772.42 1820.25 1770.38 Q1823.5 1768.3 1823.5 1764.55 Q1823.5 1761.07 1821.13 1759.22 Q1818.82 1757.37 1810.9 1755.66 L1807.94 1754.96 Q1800.02 1753.3 1796.5 1749.87 Q1792.99 1746.4 1792.99 1740.38 Q1792.99 1733.07 1798.17 1729.08 Q1803.36 1725.1 1812.89 1725.1 Q1817.62 1725.1 1821.78 1725.8 Q1825.95 1726.49 1829.47 1727.88 Z" fill="#000000" fill-rule="nonzero" fill-opacity="1" /><polyline clip-path="url(#clip730)" style="stroke:#000000; stroke-linecap:round; stroke-linejoin:round; stroke-width:4; stroke-opacity:1; fill:none" points="587.483,1562.54 587.483,47.2441 "/>
<polyline clip-path="url(#clip730)" style="stroke:#000000; stroke-linecap:round; stroke-linejoin:round; stroke-width:4; stroke-opacity:1; fill:none" points="587.483,1529.8 606.381,1529.8 "/>
<polyline clip-path="url(#clip730)" style="stroke:#000000; stroke-linecap:round; stroke-linejoin:round; stroke-width:4; stroke-opacity:1; fill:none" points="587.483,1314.01 606.381,1314.01 "/>
<polyline clip-path="url(#clip730)" style="stroke:#000000; stroke-linecap:round; stroke-linejoin:round; stroke-width:4; stroke-opacity:1; fill:none" points="587.483,1098.22 606.381,1098.22 "/>
<polyline clip-path="url(#clip730)" style="stroke:#000000; stroke-linecap:round; stroke-linejoin:round; stroke-width:4; stroke-opacity:1; fill:none" points="587.483,882.439 606.381,882.439 "/>
<polyline clip-path="url(#clip730)" style="stroke:#000000; stroke-linecap:round; stroke-linejoin:round; stroke-width:4; stroke-opacity:1; fill:none" points="587.483,666.653 606.381,666.653 "/>
<polyline clip-path="url(#clip730)" style="stroke:#000000; stroke-linecap:round; stroke-linejoin:round; stroke-width:4; stroke-opacity:1; fill:none" points="587.483,450.868 606.381,450.868 "/>
<polyline clip-path="url(#clip730)" style="stroke:#000000; stroke-linecap:round; stroke-linejoin:round; stroke-width:4; stroke-opacity:1; fill:none" points="587.483,235.082 606.381,235.082 "/>
<path clip-path="url(#clip730)" d="M524.58 1504.94 Q518.261 1504.94 515.061 1511.18 Q511.901 1517.38 511.901 1529.86 Q511.901 1542.29 515.061 1548.53 Q518.261 1554.73 524.58 1554.73 Q530.94 1554.73 534.1 1548.53 Q537.3 1542.29 537.3 1529.86 Q537.3 1517.38 534.1 1511.18 Q530.94 1504.94 524.58 1504.94 M524.58 1498.46 Q534.748 1498.46 540.095 1506.52 Q545.483 1514.54 545.483 1529.86 Q545.483 1545.13 540.095 1553.19 Q534.748 1561.21 524.58 1561.21 Q514.412 1561.21 509.025 1553.19 Q503.678 1545.13 503.678 1529.86 Q503.678 1514.54 509.025 1506.52 Q514.412 1498.46 524.58 1498.46 Z" fill="#000000" fill-rule="nonzero" fill-opacity="1" /><path clip-path="url(#clip730)" d="M174.757 1348.65 L203.316 1348.65 L203.316 1355.53 L164.913 1355.53 L164.913 1348.65 Q169.572 1343.83 177.592 1335.72 Q185.654 1327.58 187.72 1325.23 Q191.649 1320.82 193.188 1317.78 Q194.768 1314.7 194.768 1311.74 Q194.768 1306.92 191.366 1303.88 Q188.003 1300.85 182.575 1300.85 Q178.727 1300.85 174.433 1302.18 Q170.179 1303.52 165.318 1306.23 L165.318 1297.97 Q170.26 1295.98 174.554 1294.97 Q178.848 1293.96 182.413 1293.96 Q191.811 1293.96 197.401 1298.66 Q202.992 1303.36 202.992 1311.22 Q202.992 1314.94 201.574 1318.31 Q200.196 1321.63 196.51 1326.16 Q195.497 1327.34 190.069 1332.97 Q184.641 1338.56 174.757 1348.65 Z" fill="#000000" fill-rule="nonzero" fill-opacity="1" /><path clip-path="url(#clip730)" d="M220.492 1345.24 L229.039 1345.24 L229.039 1355.53 L220.492 1355.53 L220.492 1345.24 Z" fill="#000000" fill-rule="nonzero" fill-opacity="1" /><path clip-path="url(#clip730)" d="M264.363 1300.44 Q258.043 1300.44 254.843 1306.68 Q251.683 1312.88 251.683 1325.35 Q251.683 1337.79 254.843 1344.03 Q258.043 1350.23 264.363 1350.23 Q270.723 1350.23 273.882 1344.03 Q277.083 1337.79 277.083 1325.35 Q277.083 1312.88 273.882 1306.68 Q270.723 1300.44 264.363 1300.44 M264.363 1293.96 Q274.531 1293.96 279.878 1302.02 Q285.265 1310.04 285.265 1325.35 Q285.265 1340.63 279.878 1348.69 Q274.531 1356.71 264.363 1356.71 Q254.195 1356.71 248.807 1348.69 Q243.46 1340.63 243.46 1325.35 Q243.46 1310.04 248.807 1302.02 Q254.195 1293.96 264.363 1293.96 Z" fill="#000000" fill-rule="nonzero" fill-opacity="1" /><path clip-path="url(#clip730)" d="M317.146 1300.44 Q310.827 1300.44 307.626 1306.68 Q304.467 1312.88 304.467 1325.35 Q304.467 1337.79 307.626 1344.03 Q310.827 1350.23 317.146 1350.23 Q323.506 1350.23 326.666 1344.03 Q329.866 1337.79 329.866 1325.35 Q329.866 1312.88 326.666 1306.68 Q323.506 1300.44 317.146 1300.44 M317.146 1293.96 Q327.314 1293.96 332.661 1302.02 Q338.049 1310.04 338.049 1325.35 Q338.049 1340.63 332.661 1348.69 Q327.314 1356.71 317.146 1356.71 Q306.978 1356.71 301.591 1348.69 Q296.243 1340.63 296.243 1325.35 Q296.243 1310.04 301.591 1302.02 Q306.978 1293.96 317.146 1293.96 Z" fill="#000000" fill-rule="nonzero" fill-opacity="1" /><path clip-path="url(#clip730)" d="M401.729 1310.97 L383.216 1329.57 L401.729 1348.08 L396.908 1352.98 L378.315 1334.39 L359.721 1352.98 L354.941 1348.08 L373.413 1329.57 L354.941 1310.97 L359.721 1306.07 L378.315 1324.67 L396.908 1306.07 L401.729 1310.97 Z" fill="#000000" fill-rule="nonzero" fill-opacity="1" /><path clip-path="url(#clip730)" d="M423.361 1348.65 L436.729 1348.65 L436.729 1302.51 L422.186 1305.42 L422.186 1297.97 L436.648 1295.05 L444.831 1295.05 L444.831 1348.65 L458.199 1348.65 L458.199 1355.53 L423.361 1355.53 L423.361 1348.65 Z" fill="#000000" fill-rule="nonzero" fill-opacity="1" /><path clip-path="url(#clip730)" d="M492.226 1300.44 Q485.907 1300.44 482.707 1306.68 Q479.547 1312.88 479.547 1325.35 Q479.547 1337.79 482.707 1344.03 Q485.907 1350.23 492.226 1350.23 Q498.586 1350.23 501.746 1344.03 Q504.946 1337.79 504.946 1325.35 Q504.946 1312.88 501.746 1306.68 Q498.586 1300.44 492.226 1300.44 M492.226 1293.96 Q502.394 1293.96 507.741 1302.02 Q513.129 1310.04 513.129 1325.35 Q513.129 1340.63 507.741 1348.69 Q502.394 1356.71 492.226 1356.71 Q482.058 1356.71 476.671 1348.69 Q471.323 1340.63 471.323 1325.35 Q471.323 1310.04 476.671 1302.02 Q482.058 1293.96 492.226 1293.96 Z" fill="#000000" fill-rule="nonzero" fill-opacity="1" /><path clip-path="url(#clip730)" d="M535.346 1281.07 Q540.118 1282.09 542.784 1285.32 Q545.483 1288.54 545.483 1293.28 Q545.483 1300.55 540.48 1304.54 Q535.477 1308.52 526.261 1308.52 Q523.167 1308.52 519.876 1307.89 Q516.618 1307.3 513.129 1306.08 L513.129 1299.67 Q515.894 1301.28 519.185 1302.1 Q522.476 1302.92 526.064 1302.92 Q532.317 1302.92 535.576 1300.46 Q538.867 1297.99 538.867 1293.28 Q538.867 1288.94 535.806 1286.5 Q532.778 1284.03 527.348 1284.03 L521.621 1284.03 L521.621 1278.57 L527.611 1278.57 Q532.515 1278.57 535.115 1276.63 Q537.715 1274.65 537.715 1270.97 Q537.715 1267.18 535.016 1265.17 Q532.35 1263.13 527.348 1263.13 Q524.616 1263.13 521.489 1263.72 Q518.362 1264.32 514.61 1265.57 L514.61 1259.64 Q518.395 1258.59 521.686 1258.06 Q525.011 1257.54 527.94 1257.54 Q535.51 1257.54 539.92 1260.99 Q544.331 1264.42 544.331 1270.27 Q544.331 1274.36 541.994 1277.19 Q539.657 1279.98 535.346 1281.07 Z" fill="#000000" fill-rule="nonzero" fill-opacity="1" /><path clip-path="url(#clip730)" d="M190.191 1086.4 L169.531 1118.68 L190.191 1118.68 L190.191 1086.4 M188.044 1079.27 L198.333 1079.27 L198.333 1118.68 L206.961 1118.68 L206.961 1125.49 L198.333 1125.49 L198.333 1139.75 L190.191 1139.75 L190.191 1125.49 L162.888 1125.49 L162.888 1117.59 L188.044 1079.27 Z" fill="#000000" fill-rule="nonzero" fill-opacity="1" /><path clip-path="url(#clip730)" d="M220.492 1129.46 L229.039 1129.46 L229.039 1139.75 L220.492 1139.75 L220.492 1129.46 Z" fill="#000000" fill-rule="nonzero" fill-opacity="1" /><path clip-path="url(#clip730)" d="M264.363 1084.66 Q258.043 1084.66 254.843 1090.89 Q251.683 1097.09 251.683 1109.57 Q251.683 1122 254.843 1128.24 Q258.043 1134.44 264.363 1134.44 Q270.723 1134.44 273.882 1128.24 Q277.083 1122 277.083 1109.57 Q277.083 1097.09 273.882 1090.89 Q270.723 1084.66 264.363 1084.66 M264.363 1078.17 Q274.531 1078.17 279.878 1086.24 Q285.265 1094.26 285.265 1109.57 Q285.265 1124.84 279.878 1132.9 Q274.531 1140.92 264.363 1140.92 Q254.195 1140.92 248.807 1132.9 Q243.46 1124.84 243.46 1109.57 Q243.46 1094.26 248.807 1086.24 Q254.195 1078.17 264.363 1078.17 Z" fill="#000000" fill-rule="nonzero" fill-opacity="1" /><path clip-path="url(#clip730)" d="M317.146 1084.66 Q310.827 1084.66 307.626 1090.89 Q304.467 1097.09 304.467 1109.57 Q304.467 1122 307.626 1128.24 Q310.827 1134.44 317.146 1134.44 Q323.506 1134.44 326.666 1128.24 Q329.866 1122 329.866 1109.57 Q329.866 1097.09 326.666 1090.89 Q323.506 1084.66 317.146 1084.66 M317.146 1078.17 Q327.314 1078.17 332.661 1086.24 Q338.049 1094.26 338.049 1109.57 Q338.049 1124.84 332.661 1132.9 Q327.314 1140.92 317.146 1140.92 Q306.978 1140.92 301.591 1132.9 Q296.243 1124.84 296.243 1109.57 Q296.243 1094.26 301.591 1086.24 Q306.978 1078.17 317.146 1078.17 Z" fill="#000000" fill-rule="nonzero" fill-opacity="1" /><path clip-path="url(#clip730)" d="M401.729 1095.19 L383.216 1113.78 L401.729 1132.29 L396.908 1137.2 L378.315 1118.6 L359.721 1137.2 L354.941 1132.29 L373.413 1113.78 L354.941 1095.19 L359.721 1090.29 L378.315 1108.88 L396.908 1090.29 L401.729 1095.19 Z" fill="#000000" fill-rule="nonzero" fill-opacity="1" /><path clip-path="url(#clip730)" d="M423.361 1132.86 L436.729 1132.86 L436.729 1086.72 L422.186 1089.64 L422.186 1082.18 L436.648 1079.27 L444.831 1079.27 L444.831 1132.86 L458.199 1132.86 L458.199 1139.75 L423.361 1139.75 L423.361 1132.86 Z" fill="#000000" fill-rule="nonzero" fill-opacity="1" /><path clip-path="url(#clip730)" d="M492.226 1084.66 Q485.907 1084.66 482.707 1090.89 Q479.547 1097.09 479.547 1109.57 Q479.547 1122 482.707 1128.24 Q485.907 1134.44 492.226 1134.44 Q498.586 1134.44 501.746 1128.24 Q504.946 1122 504.946 1109.57 Q504.946 1097.09 501.746 1090.89 Q498.586 1084.66 492.226 1084.66 M492.226 1078.17 Q502.394 1078.17 507.741 1086.24 Q513.129 1094.26 513.129 1109.57 Q513.129 1124.84 507.741 1132.9 Q502.394 1140.92 492.226 1140.92 Q482.058 1140.92 476.671 1132.9 Q471.323 1124.84 471.323 1109.57 Q471.323 1094.26 476.671 1086.24 Q482.058 1078.17 492.226 1078.17 Z" fill="#000000" fill-rule="nonzero" fill-opacity="1" /><path clip-path="url(#clip730)" d="M535.346 1065.28 Q540.118 1066.3 542.784 1069.53 Q545.483 1072.76 545.483 1077.49 Q545.483 1084.77 540.48 1088.75 Q535.477 1092.73 526.261 1092.73 Q523.167 1092.73 519.876 1092.11 Q516.618 1091.52 513.129 1090.3 L513.129 1083.88 Q515.894 1085.49 519.185 1086.32 Q522.476 1087.14 526.064 1087.14 Q532.317 1087.14 535.576 1084.67 Q538.867 1082.2 538.867 1077.49 Q538.867 1073.15 535.806 1070.71 Q532.778 1068.25 527.348 1068.25 L521.621 1068.25 L521.621 1062.78 L527.611 1062.78 Q532.515 1062.78 535.115 1060.84 Q537.715 1058.87 537.715 1055.18 Q537.715 1051.39 535.016 1049.39 Q532.35 1047.35 527.348 1047.35 Q524.616 1047.35 521.489 1047.94 Q518.362 1048.53 514.61 1049.78 L514.61 1043.86 Q518.395 1042.8 521.686 1042.28 Q525.011 1041.75 527.94 1041.75 Q535.51 1041.75 539.92 1045.21 Q544.331 1048.63 544.331 1054.49 Q544.331 1058.57 541.994 1061.4 Q539.657 1064.2 535.346 1065.28 Z" fill="#000000" fill-rule="nonzero" fill-opacity="1" /><path clip-path="url(#clip730)" d="M186.221 890.461 Q180.712 890.461 177.471 894.228 Q174.271 897.996 174.271 904.558 Q174.271 911.08 177.471 914.888 Q180.712 918.655 186.221 918.655 Q191.73 918.655 194.93 914.888 Q198.171 911.08 198.171 904.558 Q198.171 897.996 194.93 894.228 Q191.73 890.461 186.221 890.461 M202.465 864.819 L202.465 872.272 Q199.386 870.814 196.227 870.044 Q193.107 869.275 190.029 869.275 Q181.927 869.275 177.633 874.744 Q173.379 880.212 172.772 891.271 Q175.162 887.747 178.767 885.884 Q182.372 883.98 186.707 883.98 Q195.822 883.98 201.088 889.529 Q206.394 895.039 206.394 904.558 Q206.394 913.875 200.885 919.506 Q195.376 925.137 186.221 925.137 Q175.729 925.137 170.179 917.116 Q164.63 909.055 164.63 893.783 Q164.63 879.443 171.435 870.936 Q178.241 862.388 189.705 862.388 Q192.783 862.388 195.903 862.996 Q199.062 863.604 202.465 864.819 Z" fill="#000000" fill-rule="nonzero" fill-opacity="1" /><path clip-path="url(#clip730)" d="M220.492 913.673 L229.039 913.673 L229.039 923.962 L220.492 923.962 L220.492 913.673 Z" fill="#000000" fill-rule="nonzero" fill-opacity="1" /><path clip-path="url(#clip730)" d="M264.363 868.87 Q258.043 868.87 254.843 875.108 Q251.683 881.306 251.683 893.783 Q251.683 906.219 254.843 912.457 Q258.043 918.655 264.363 918.655 Q270.723 918.655 273.882 912.457 Q277.083 906.219 277.083 893.783 Q277.083 881.306 273.882 875.108 Q270.723 868.87 264.363 868.87 M264.363 862.388 Q274.531 862.388 279.878 870.45 Q285.265 878.47 285.265 893.783 Q285.265 909.055 279.878 917.116 Q274.531 925.137 264.363 925.137 Q254.195 925.137 248.807 917.116 Q243.46 909.055 243.46 893.783 Q243.46 878.47 248.807 870.45 Q254.195 862.388 264.363 862.388 Z" fill="#000000" fill-rule="nonzero" fill-opacity="1" /><path clip-path="url(#clip730)" d="M317.146 868.87 Q310.827 868.87 307.626 875.108 Q304.467 881.306 304.467 893.783 Q304.467 906.219 307.626 912.457 Q310.827 918.655 317.146 918.655 Q323.506 918.655 326.666 912.457 Q329.866 906.219 329.866 893.783 Q329.866 881.306 326.666 875.108 Q323.506 868.87 317.146 868.87 M317.146 862.388 Q327.314 862.388 332.661 870.45 Q338.049 878.47 338.049 893.783 Q338.049 909.055 332.661 917.116 Q327.314 925.137 317.146 925.137 Q306.978 925.137 301.591 917.116 Q296.243 909.055 296.243 893.783 Q296.243 878.47 301.591 870.45 Q306.978 862.388 317.146 862.388 Z" fill="#000000" fill-rule="nonzero" fill-opacity="1" /><path clip-path="url(#clip730)" d="M401.729 879.402 L383.216 897.996 L401.729 916.508 L396.908 921.41 L378.315 902.816 L359.721 921.41 L354.941 916.508 L373.413 897.996 L354.941 879.402 L359.721 874.5 L378.315 893.094 L396.908 874.5 L401.729 879.402 Z" fill="#000000" fill-rule="nonzero" fill-opacity="1" /><path clip-path="url(#clip730)" d="M423.361 917.075 L436.729 917.075 L436.729 870.936 L422.186 873.852 L422.186 866.399 L436.648 863.482 L444.831 863.482 L444.831 917.075 L458.199 917.075 L458.199 923.962 L423.361 923.962 L423.361 917.075 Z" fill="#000000" fill-rule="nonzero" fill-opacity="1" /><path clip-path="url(#clip730)" d="M492.226 868.87 Q485.907 868.87 482.707 875.108 Q479.547 881.306 479.547 893.783 Q479.547 906.219 482.707 912.457 Q485.907 918.655 492.226 918.655 Q498.586 918.655 501.746 912.457 Q504.946 906.219 504.946 893.783 Q504.946 881.306 501.746 875.108 Q498.586 868.87 492.226 868.87 M492.226 862.388 Q502.394 862.388 507.741 870.45 Q513.129 878.47 513.129 893.783 Q513.129 909.055 507.741 917.116 Q502.394 925.137 492.226 925.137 Q482.058 925.137 476.671 917.116 Q471.323 909.055 471.323 893.783 Q471.323 878.47 476.671 870.45 Q482.058 862.388 492.226 862.388 Z" fill="#000000" fill-rule="nonzero" fill-opacity="1" /><path clip-path="url(#clip730)" d="M535.346 849.498 Q540.118 850.519 542.784 853.744 Q545.483 856.97 545.483 861.709 Q545.483 868.983 540.48 872.966 Q535.477 876.948 526.261 876.948 Q523.167 876.948 519.876 876.323 Q516.618 875.731 513.129 874.513 L513.129 868.095 Q515.894 869.707 519.185 870.53 Q522.476 871.353 526.064 871.353 Q532.317 871.353 535.576 868.884 Q538.867 866.416 538.867 861.709 Q538.867 857.365 535.806 854.929 Q532.778 852.461 527.348 852.461 L521.621 852.461 L521.621 846.997 L527.611 846.997 Q532.515 846.997 535.115 845.055 Q537.715 843.08 537.715 839.394 Q537.715 835.609 535.016 833.601 Q532.35 831.56 527.348 831.56 Q524.616 831.56 521.489 832.153 Q518.362 832.745 514.61 833.996 L514.61 828.072 Q518.395 827.018 521.686 826.492 Q525.011 825.965 527.94 825.965 Q535.51 825.965 539.92 829.421 Q544.331 832.844 544.331 838.703 Q544.331 842.784 541.994 845.615 Q539.657 848.412 535.346 849.498 Z" fill="#000000" fill-rule="nonzero" fill-opacity="1" /><path clip-path="url(#clip730)" d="M185.208 679.456 Q179.375 679.456 176.013 682.575 Q172.691 685.694 172.691 691.163 Q172.691 696.631 176.013 699.751 Q179.375 702.87 185.208 702.87 Q191.041 702.87 194.404 699.751 Q197.766 696.591 197.766 691.163 Q197.766 685.694 194.404 682.575 Q191.082 679.456 185.208 679.456 M177.025 675.972 Q171.759 674.675 168.802 671.07 Q165.885 667.465 165.885 662.28 Q165.885 655.029 171.03 650.816 Q176.215 646.603 185.208 646.603 Q194.242 646.603 199.386 650.816 Q204.531 655.029 204.531 662.28 Q204.531 667.465 201.574 671.07 Q198.657 674.675 193.431 675.972 Q199.346 677.349 202.627 681.359 Q205.949 685.37 205.949 691.163 Q205.949 699.953 200.561 704.652 Q195.214 709.351 185.208 709.351 Q175.202 709.351 169.815 704.652 Q164.468 699.953 164.468 691.163 Q164.468 685.37 167.789 681.359 Q171.111 677.349 177.025 675.972 M174.028 663.049 Q174.028 667.748 176.944 670.382 Q179.901 673.015 185.208 673.015 Q190.474 673.015 193.431 670.382 Q196.429 667.748 196.429 663.049 Q196.429 658.35 193.431 655.717 Q190.474 653.084 185.208 653.084 Q179.901 653.084 176.944 655.717 Q174.028 658.35 174.028 663.049 Z" fill="#000000" fill-rule="nonzero" fill-opacity="1" /><path clip-path="url(#clip730)" d="M220.492 697.887 L229.039 697.887 L229.039 708.176 L220.492 708.176 L220.492 697.887 Z" fill="#000000" fill-rule="nonzero" fill-opacity="1" /><path clip-path="url(#clip730)" d="M264.363 653.084 Q258.043 653.084 254.843 659.323 Q251.683 665.52 251.683 677.997 Q251.683 690.434 254.843 696.672 Q258.043 702.87 264.363 702.87 Q270.723 702.87 273.882 696.672 Q277.083 690.434 277.083 677.997 Q277.083 665.52 273.882 659.323 Q270.723 653.084 264.363 653.084 M264.363 646.603 Q274.531 646.603 279.878 654.664 Q285.265 662.685 285.265 677.997 Q285.265 693.269 279.878 701.33 Q274.531 709.351 264.363 709.351 Q254.195 709.351 248.807 701.33 Q243.46 693.269 243.46 677.997 Q243.46 662.685 248.807 654.664 Q254.195 646.603 264.363 646.603 Z" fill="#000000" fill-rule="nonzero" fill-opacity="1" /><path clip-path="url(#clip730)" d="M317.146 653.084 Q310.827 653.084 307.626 659.323 Q304.467 665.52 304.467 677.997 Q304.467 690.434 307.626 696.672 Q310.827 702.87 317.146 702.87 Q323.506 702.87 326.666 696.672 Q329.866 690.434 329.866 677.997 Q329.866 665.52 326.666 659.323 Q323.506 653.084 317.146 653.084 M317.146 646.603 Q327.314 646.603 332.661 654.664 Q338.049 662.685 338.049 677.997 Q338.049 693.269 332.661 701.33 Q327.314 709.351 317.146 709.351 Q306.978 709.351 301.591 701.33 Q296.243 693.269 296.243 677.997 Q296.243 662.685 301.591 654.664 Q306.978 646.603 317.146 646.603 Z" fill="#000000" fill-rule="nonzero" fill-opacity="1" /><path clip-path="url(#clip730)" d="M401.729 663.617 L383.216 682.21 L401.729 700.723 L396.908 705.624 L378.315 687.031 L359.721 705.624 L354.941 700.723 L373.413 682.21 L354.941 663.617 L359.721 658.715 L378.315 677.309 L396.908 658.715 L401.729 663.617 Z" fill="#000000" fill-rule="nonzero" fill-opacity="1" /><path clip-path="url(#clip730)" d="M423.361 701.29 L436.729 701.29 L436.729 655.15 L422.186 658.067 L422.186 650.613 L436.648 647.696 L444.831 647.696 L444.831 701.29 L458.199 701.29 L458.199 708.176 L423.361 708.176 L423.361 701.29 Z" fill="#000000" fill-rule="nonzero" fill-opacity="1" /><path clip-path="url(#clip730)" d="M492.226 653.084 Q485.907 653.084 482.707 659.323 Q479.547 665.52 479.547 677.997 Q479.547 690.434 482.707 696.672 Q485.907 702.87 492.226 702.87 Q498.586 702.87 501.746 696.672 Q504.946 690.434 504.946 677.997 Q504.946 665.52 501.746 659.323 Q498.586 653.084 492.226 653.084 M492.226 646.603 Q502.394 646.603 507.741 654.664 Q513.129 662.685 513.129 677.997 Q513.129 693.269 507.741 701.33 Q502.394 709.351 492.226 709.351 Q482.058 709.351 476.671 701.33 Q471.323 693.269 471.323 677.997 Q471.323 662.685 476.671 654.664 Q482.058 646.603 492.226 646.603 Z" fill="#000000" fill-rule="nonzero" fill-opacity="1" /><path clip-path="url(#clip730)" d="M535.346 633.713 Q540.118 634.733 542.784 637.959 Q545.483 641.184 545.483 645.924 Q545.483 653.198 540.48 657.18 Q535.477 661.163 526.261 661.163 Q523.167 661.163 519.876 660.537 Q516.618 659.945 513.129 658.727 L513.129 652.309 Q515.894 653.922 519.185 654.745 Q522.476 655.567 526.064 655.567 Q532.317 655.567 535.576 653.099 Q538.867 650.63 538.867 645.924 Q538.867 641.579 535.806 639.144 Q532.778 636.675 527.348 636.675 L521.621 636.675 L521.621 631.211 L527.611 631.211 Q532.515 631.211 535.115 629.269 Q537.715 627.295 537.715 623.608 Q537.715 619.823 535.016 617.816 Q532.35 615.775 527.348 615.775 Q524.616 615.775 521.489 616.367 Q518.362 616.96 514.61 618.211 L514.61 612.286 Q518.395 611.233 521.686 610.706 Q525.011 610.18 527.94 610.18 Q535.51 610.18 539.92 613.636 Q544.331 617.059 544.331 622.917 Q544.331 626.998 541.994 629.829 Q539.657 632.627 535.346 633.713 Z" fill="#000000" fill-rule="nonzero" fill-opacity="1" /><path clip-path="url(#clip730)" d="M165.67 485.504 L179.038 485.504 L179.038 439.365 L164.495 442.281 L164.495 434.828 L178.957 431.911 L187.14 431.911 L187.14 485.504 L200.508 485.504 L200.508 492.391 L165.67 492.391 L165.67 485.504 Z" fill="#000000" fill-rule="nonzero" fill-opacity="1" /><path clip-path="url(#clip730)" d="M217.036 482.102 L225.583 482.102 L225.583 492.391 L217.036 492.391 L217.036 482.102 Z" fill="#000000" fill-rule="nonzero" fill-opacity="1" /><path clip-path="url(#clip730)" d="M260.907 437.299 Q254.587 437.299 251.387 443.537 Q248.228 449.735 248.228 462.212 Q248.228 474.648 251.387 480.886 Q254.587 487.084 260.907 487.084 Q267.267 487.084 270.426 480.886 Q273.627 474.648 273.627 462.212 Q273.627 449.735 270.426 443.537 Q267.267 437.299 260.907 437.299 M260.907 430.817 Q271.075 430.817 276.422 438.878 Q281.81 446.899 281.81 462.212 Q281.81 477.484 276.422 485.545 Q271.075 493.566 260.907 493.566 Q250.739 493.566 245.351 485.545 Q240.004 477.484 240.004 462.212 Q240.004 446.899 245.351 438.878 Q250.739 430.817 260.907 430.817 Z" fill="#000000" fill-rule="nonzero" fill-opacity="1" /><path clip-path="url(#clip730)" d="M313.69 437.299 Q307.371 437.299 304.171 443.537 Q301.011 449.735 301.011 462.212 Q301.011 474.648 304.171 480.886 Q307.371 487.084 313.69 487.084 Q320.05 487.084 323.21 480.886 Q326.41 474.648 326.41 462.212 Q326.41 449.735 323.21 443.537 Q320.05 437.299 313.69 437.299 M313.69 430.817 Q323.858 430.817 329.205 438.878 Q334.593 446.899 334.593 462.212 Q334.593 477.484 329.205 485.545 Q323.858 493.566 313.69 493.566 Q303.522 493.566 298.135 485.545 Q292.787 477.484 292.787 462.212 Q292.787 446.899 298.135 438.878 Q303.522 430.817 313.69 430.817 Z" fill="#000000" fill-rule="nonzero" fill-opacity="1" /><path clip-path="url(#clip730)" d="M398.273 447.831 L379.76 466.425 L398.273 484.937 L393.452 489.839 L374.859 471.245 L356.265 489.839 L351.485 484.937 L369.957 466.425 L351.485 447.831 L356.265 442.929 L374.859 461.523 L393.452 442.929 L398.273 447.831 Z" fill="#000000" fill-rule="nonzero" fill-opacity="1" /><path clip-path="url(#clip730)" d="M419.905 485.504 L433.273 485.504 L433.273 439.365 L418.73 442.281 L418.73 434.828 L433.192 431.911 L441.375 431.911 L441.375 485.504 L454.743 485.504 L454.743 492.391 L419.905 492.391 L419.905 485.504 Z" fill="#000000" fill-rule="nonzero" fill-opacity="1" /><path clip-path="url(#clip730)" d="M488.77 437.299 Q482.451 437.299 479.251 443.537 Q476.091 449.735 476.091 462.212 Q476.091 474.648 479.251 480.886 Q482.451 487.084 488.77 487.084 Q495.13 487.084 498.29 480.886 Q501.49 474.648 501.49 462.212 Q501.49 449.735 498.29 443.537 Q495.13 437.299 488.77 437.299 M488.77 430.817 Q498.938 430.817 504.285 438.878 Q509.673 446.899 509.673 462.212 Q509.673 477.484 504.285 485.545 Q498.938 493.566 488.77 493.566 Q478.602 493.566 473.215 485.545 Q467.868 477.484 467.868 462.212 Q467.868 446.899 473.215 438.878 Q478.602 430.817 488.77 430.817 Z" fill="#000000" fill-rule="nonzero" fill-opacity="1" /><path clip-path="url(#clip730)" d="M531.857 401.076 L515.071 427.308 L531.857 427.308 L531.857 401.076 M530.112 395.283 L538.472 395.283 L538.472 427.308 L545.483 427.308 L545.483 432.837 L538.472 432.837 L538.472 444.423 L531.857 444.423 L531.857 432.837 L509.673 432.837 L509.673 426.419 L530.112 395.283 Z" fill="#000000" fill-rule="nonzero" fill-opacity="1" /><path clip-path="url(#clip730)" d="M165.67 269.719 L179.038 269.719 L179.038 223.579 L164.495 226.496 L164.495 219.042 L178.957 216.125 L187.14 216.125 L187.14 269.719 L200.508 269.719 L200.508 276.605 L165.67 276.605 L165.67 269.719 Z" fill="#000000" fill-rule="nonzero" fill-opacity="1" /><path clip-path="url(#clip730)" d="M217.036 266.316 L225.583 266.316 L225.583 276.605 L217.036 276.605 L217.036 266.316 Z" fill="#000000" fill-rule="nonzero" fill-opacity="1" /><path clip-path="url(#clip730)" d="M250.456 269.719 L279.014 269.719 L279.014 276.605 L240.612 276.605 L240.612 269.719 Q245.27 264.898 253.291 256.796 Q261.352 248.654 263.418 246.305 Q267.348 241.889 268.887 238.851 Q270.467 235.772 270.467 232.815 Q270.467 227.995 267.064 224.956 Q263.702 221.918 258.274 221.918 Q254.425 221.918 250.131 223.255 Q245.878 224.592 241.017 227.306 L241.017 219.042 Q245.959 217.057 250.253 216.044 Q254.547 215.032 258.112 215.032 Q267.51 215.032 273.1 219.731 Q278.69 224.43 278.69 232.288 Q278.69 236.015 277.273 239.378 Q275.895 242.699 272.209 247.236 Q271.196 248.411 265.768 254.042 Q260.34 259.632 250.456 269.719 Z" fill="#000000" fill-rule="nonzero" fill-opacity="1" /><path clip-path="url(#clip730)" d="M313.69 221.513 Q307.371 221.513 304.171 227.751 Q301.011 233.949 301.011 246.426 Q301.011 258.862 304.171 265.101 Q307.371 271.299 313.69 271.299 Q320.05 271.299 323.21 265.101 Q326.41 258.862 326.41 246.426 Q326.41 233.949 323.21 227.751 Q320.05 221.513 313.69 221.513 M313.69 215.032 Q323.858 215.032 329.205 223.093 Q334.593 231.114 334.593 246.426 Q334.593 261.698 329.205 269.759 Q323.858 277.78 313.69 277.78 Q303.522 277.78 298.135 269.759 Q292.787 261.698 292.787 246.426 Q292.787 231.114 298.135 223.093 Q303.522 215.032 313.69 215.032 Z" fill="#000000" fill-rule="nonzero" fill-opacity="1" /><path clip-path="url(#clip730)" d="M398.273 232.045 L379.76 250.639 L398.273 269.152 L393.452 274.053 L374.859 255.46 L356.265 274.053 L351.485 269.152 L369.957 250.639 L351.485 232.045 L356.265 227.144 L374.859 245.737 L393.452 227.144 L398.273 232.045 Z" fill="#000000" fill-rule="nonzero" fill-opacity="1" /><path clip-path="url(#clip730)" d="M419.905 269.719 L433.273 269.719 L433.273 223.579 L418.73 226.496 L418.73 219.042 L433.192 216.125 L441.375 216.125 L441.375 269.719 L454.743 269.719 L454.743 276.605 L419.905 276.605 L419.905 269.719 Z" fill="#000000" fill-rule="nonzero" fill-opacity="1" /><path clip-path="url(#clip730)" d="M488.77 221.513 Q482.451 221.513 479.251 227.751 Q476.091 233.949 476.091 246.426 Q476.091 258.862 479.251 265.101 Q482.451 271.299 488.77 271.299 Q495.13 271.299 498.29 265.101 Q501.49 258.862 501.49 246.426 Q501.49 233.949 498.29 227.751 Q495.13 221.513 488.77 221.513 M488.77 215.032 Q498.938 215.032 504.285 223.093 Q509.673 231.114 509.673 246.426 Q509.673 261.698 504.285 269.759 Q498.938 277.78 488.77 277.78 Q478.602 277.78 473.215 269.759 Q467.868 261.698 467.868 246.426 Q467.868 231.114 473.215 223.093 Q478.602 215.032 488.77 215.032 Z" fill="#000000" fill-rule="nonzero" fill-opacity="1" /><path clip-path="url(#clip730)" d="M531.857 185.29 L515.071 211.522 L531.857 211.522 L531.857 185.29 M530.112 179.497 L538.472 179.497 L538.472 211.522 L545.483 211.522 L545.483 217.052 L538.472 217.052 L538.472 228.637 L531.857 228.637 L531.857 217.052 L509.673 217.052 L509.673 210.633 L530.112 179.497 Z" fill="#000000" fill-rule="nonzero" fill-opacity="1" /><path clip-path="url(#clip730)" d="M38.7168 969.752 L64.6889 969.752 L64.6889 957.993 Q64.6889 951.466 61.3093 947.901 Q57.9297 944.336 51.6797 944.336 Q45.476 944.336 42.0964 947.901 Q38.7168 951.466 38.7168 957.993 L38.7168 969.752 M31.0316 979.104 L31.0316 957.993 Q31.0316 946.373 36.3094 940.447 Q41.5409 934.475 51.6797 934.475 Q61.9111 934.475 67.1426 940.447 Q72.374 946.373 72.374 957.993 L72.374 969.752 L100.152 969.752 L100.152 979.104 L31.0316 979.104 Z" fill="#000000" fill-rule="nonzero" fill-opacity="1" /><path clip-path="url(#clip730)" d="M56.263 893.92 Q55.4297 895.355 55.0593 897.068 Q54.6426 898.734 54.6426 900.771 Q54.6426 907.994 59.3648 911.882 Q64.0407 915.725 72.837 915.725 L100.152 915.725 L100.152 924.29 L48.3001 924.29 L48.3001 915.725 L56.3556 915.725 Q51.6334 913.04 49.3649 908.734 Q47.0501 904.429 47.0501 898.271 Q47.0501 897.392 47.189 896.327 Q47.2816 895.262 47.513 893.966 L56.263 893.92 Z" fill="#000000" fill-rule="nonzero" fill-opacity="1" /><path clip-path="url(#clip730)" d="M54.2723 866.975 Q54.2723 873.827 59.6426 877.809 Q64.9667 881.79 74.2722 881.79 Q83.5777 881.79 88.948 877.855 Q94.2721 873.873 94.2721 866.975 Q94.2721 860.17 88.9017 856.188 Q83.5314 852.207 74.2722 852.207 Q65.0592 852.207 59.6889 856.188 Q54.2723 860.17 54.2723 866.975 M47.0501 866.975 Q47.0501 855.864 54.2723 849.522 Q61.4944 843.179 74.2722 843.179 Q87.0036 843.179 94.2721 849.522 Q101.494 855.864 101.494 866.975 Q101.494 878.133 94.2721 884.475 Q87.0036 890.771 74.2722 890.771 Q61.4944 890.771 54.2723 884.475 Q47.0501 878.133 47.0501 866.975 Z" fill="#000000" fill-rule="nonzero" fill-opacity="1" /><path clip-path="url(#clip730)" d="M56.1704 794.939 L28.115 794.939 L28.115 786.42 L100.152 786.42 L100.152 794.939 L92.3739 794.939 Q97.0035 797.624 99.272 801.744 Q101.494 805.818 101.494 811.559 Q101.494 820.957 93.9943 826.883 Q86.4943 832.762 74.2722 832.762 Q62.05 832.762 54.55 826.883 Q47.0501 820.957 47.0501 811.559 Q47.0501 805.818 49.3186 801.744 Q51.5408 797.624 56.1704 794.939 M74.2722 823.966 Q83.6703 823.966 89.0406 820.124 Q94.3646 816.235 94.3646 809.476 Q94.3646 802.716 89.0406 798.827 Q83.6703 794.939 74.2722 794.939 Q64.8741 794.939 59.55 798.827 Q54.1797 802.716 54.1797 809.476 Q54.1797 816.235 59.55 820.124 Q64.8741 823.966 74.2722 823.966 Z" fill="#000000" fill-rule="nonzero" fill-opacity="1" /><path clip-path="url(#clip730)" d="M79.6888 769.754 L48.3001 769.754 L48.3001 761.235 L79.3647 761.235 Q86.7258 761.235 90.4295 758.365 Q94.0869 755.494 94.0869 749.754 Q94.0869 742.856 89.6887 738.874 Q85.2906 734.846 77.6981 734.846 L48.3001 734.846 L48.3001 726.328 L100.152 726.328 L100.152 734.846 L92.1887 734.846 Q96.9109 737.948 99.2257 742.069 Q101.494 746.143 101.494 751.559 Q101.494 760.494 95.9387 765.124 Q90.3832 769.754 79.6888 769.754 M47.0501 748.318 L47.0501 748.318 Z" fill="#000000" fill-rule="nonzero" fill-opacity="1" /><path clip-path="url(#clip730)" d="M50.2908 671.467 L58.2537 671.467 Q56.263 675.078 55.2908 678.736 Q54.2723 682.347 54.2723 686.05 Q54.2723 694.337 59.55 698.921 Q64.7815 703.504 74.2722 703.504 Q83.7628 703.504 89.0406 698.921 Q94.2721 694.337 94.2721 686.05 Q94.2721 682.347 93.2998 678.736 Q92.2813 675.078 90.2906 671.467 L98.1609 671.467 Q99.8276 675.032 100.661 678.874 Q101.494 682.671 101.494 686.976 Q101.494 698.689 94.1332 705.587 Q86.7721 712.485 74.2722 712.485 Q61.587 712.485 54.3186 705.541 Q47.0501 698.55 47.0501 686.421 Q47.0501 682.485 47.8834 678.736 Q48.6704 674.986 50.2908 671.467 Z" fill="#000000" fill-rule="nonzero" fill-opacity="1" /><path clip-path="url(#clip730)" d="M33.5779 648.226 L48.3001 648.226 L48.3001 630.68 L54.9204 630.68 L54.9204 648.226 L83.0684 648.226 Q89.411 648.226 91.2165 646.513 Q93.0221 644.754 93.0221 639.43 L93.0221 630.68 L100.152 630.68 L100.152 639.43 Q100.152 649.291 96.4943 653.041 Q92.7906 656.791 83.0684 656.791 L54.9204 656.791 L54.9204 663.041 L48.3001 663.041 L48.3001 656.791 L33.5779 656.791 L33.5779 648.226 Z" fill="#000000" fill-rule="nonzero" fill-opacity="1" /><polyline clip-path="url(#clip732)" style="stroke:#0000ff; stroke-linecap:round; stroke-linejoin:round; stroke-width:4; stroke-opacity:1; fill:none" points="638.865,1519.65 1209.78,1369.01 1780.69,1000.68 2351.6,90.1298 "/>
<circle clip-path="url(#clip732)" cx="638.865" cy="1519.65" r="18" fill="#0000ff" fill-rule="evenodd" fill-opacity="1" stroke="#000000" stroke-opacity="1" stroke-width="3.6"/>
<circle clip-path="url(#clip732)" cx="1209.78" cy="1369.01" r="18" fill="#0000ff" fill-rule="evenodd" fill-opacity="1" stroke="#000000" stroke-opacity="1" stroke-width="3.6"/>
<circle clip-path="url(#clip732)" cx="1780.69" cy="1000.68" r="18" fill="#0000ff" fill-rule="evenodd" fill-opacity="1" stroke="#000000" stroke-opacity="1" stroke-width="3.6"/>
<circle clip-path="url(#clip732)" cx="2351.6" cy="90.1298" r="18" fill="#0000ff" fill-rule="evenodd" fill-opacity="1" stroke="#000000" stroke-opacity="1" stroke-width="3.6"/>
<polyline clip-path="url(#clip732)" style="stroke:#000000; stroke-linecap:round; stroke-linejoin:round; stroke-width:2; stroke-opacity:0.1; fill:none" points="587.483,1304.28 2402.98,1304.28 "/>
<polyline clip-path="url(#clip732)" style="stroke:#000000; stroke-linecap:round; stroke-linejoin:round; stroke-width:2; stroke-opacity:0.1; fill:none" points="587.483,926.873 2402.98,926.873 "/>
<polyline clip-path="url(#clip732)" style="stroke:#000000; stroke-linecap:round; stroke-linejoin:round; stroke-width:2; stroke-opacity:0.1; fill:none" points="587.483,549.466 2402.98,549.466 "/>
<polyline clip-path="url(#clip732)" style="stroke:#000000; stroke-linecap:round; stroke-linejoin:round; stroke-width:2; stroke-opacity:0.1; fill:none" points="587.483,172.06 2402.98,172.06 "/>
<polyline clip-path="url(#clip730)" style="stroke:#000000; stroke-linecap:round; stroke-linejoin:round; stroke-width:4; stroke-opacity:1; fill:none" points="2402.98,1562.54 2402.98,47.2441 "/>
<polyline clip-path="url(#clip730)" style="stroke:#000000; stroke-linecap:round; stroke-linejoin:round; stroke-width:4; stroke-opacity:1; fill:none" points="2402.98,1304.28 2384.09,1304.28 "/>
<polyline clip-path="url(#clip730)" style="stroke:#000000; stroke-linecap:round; stroke-linejoin:round; stroke-width:4; stroke-opacity:1; fill:none" points="2402.98,926.873 2384.09,926.873 "/>
<polyline clip-path="url(#clip730)" style="stroke:#000000; stroke-linecap:round; stroke-linejoin:round; stroke-width:4; stroke-opacity:1; fill:none" points="2402.98,549.466 2384.09,549.466 "/>
<polyline clip-path="url(#clip730)" style="stroke:#000000; stroke-linecap:round; stroke-linejoin:round; stroke-width:4; stroke-opacity:1; fill:none" points="2402.98,172.06 2384.09,172.06 "/>
<path clip-path="url(#clip730)" d="M2447.54 1274.04 L2479.66 1274.04 L2479.66 1280.93 L2455.03 1280.93 L2455.03 1295.75 Q2456.81 1295.14 2458.59 1294.86 Q2460.38 1294.54 2462.16 1294.54 Q2472.29 1294.54 2478.2 1300.09 Q2484.12 1305.64 2484.12 1315.12 Q2484.12 1324.88 2478.04 1330.31 Q2471.96 1335.69 2460.9 1335.69 Q2457.1 1335.69 2453.13 1335.05 Q2449.2 1334.4 2444.98 1333.1 L2444.98 1324.88 Q2448.63 1326.86 2452.52 1327.84 Q2456.41 1328.81 2460.74 1328.81 Q2467.75 1328.81 2471.84 1325.12 Q2475.93 1321.43 2475.93 1315.12 Q2475.93 1308.8 2471.84 1305.11 Q2467.75 1301.42 2460.74 1301.42 Q2457.46 1301.42 2454.18 1302.15 Q2450.94 1302.88 2447.54 1304.42 L2447.54 1274.04 Z" fill="#000000" fill-rule="nonzero" fill-opacity="1" /><path clip-path="url(#clip730)" d="M2446.16 950.226 L2459.53 950.226 L2459.53 904.086 L2444.98 907.003 L2444.98 899.549 L2459.45 896.633 L2467.63 896.633 L2467.63 950.226 L2481 950.226 L2481 957.113 L2446.16 957.113 L2446.16 950.226 Z" fill="#000000" fill-rule="nonzero" fill-opacity="1" /><path clip-path="url(#clip730)" d="M2515.02 902.02 Q2508.7 902.02 2505.5 908.259 Q2502.34 914.457 2502.34 926.933 Q2502.34 939.37 2505.5 945.608 Q2508.7 951.806 2515.02 951.806 Q2521.38 951.806 2524.54 945.608 Q2527.74 939.37 2527.74 926.933 Q2527.74 914.457 2524.54 908.259 Q2521.38 902.02 2515.02 902.02 M2515.02 895.539 Q2525.19 895.539 2530.54 903.6 Q2535.93 911.621 2535.93 926.933 Q2535.93 942.205 2530.54 950.267 Q2525.19 958.287 2515.02 958.287 Q2504.86 958.287 2499.47 950.267 Q2494.12 942.205 2494.12 926.933 Q2494.12 911.621 2499.47 903.6 Q2504.86 895.539 2515.02 895.539 Z" fill="#000000" fill-rule="nonzero" fill-opacity="1" /><path clip-path="url(#clip730)" d="M2446.16 572.82 L2459.53 572.82 L2459.53 526.68 L2444.98 529.597 L2444.98 522.143 L2459.45 519.226 L2467.63 519.226 L2467.63 572.82 L2481 572.82 L2481 579.706 L2446.16 579.706 L2446.16 572.82 Z" fill="#000000" fill-rule="nonzero" fill-opacity="1" /><path clip-path="url(#clip730)" d="M2497.61 519.226 L2529.73 519.226 L2529.73 526.113 L2505.1 526.113 L2505.1 540.939 Q2506.88 540.332 2508.66 540.048 Q2510.45 539.724 2512.23 539.724 Q2522.36 539.724 2528.27 545.274 Q2534.18 550.823 2534.18 560.303 Q2534.18 570.065 2528.11 575.493 Q2522.03 580.881 2510.97 580.881 Q2507.17 580.881 2503.2 580.233 Q2499.27 579.585 2495.05 578.289 L2495.05 570.065 Q2498.7 572.05 2502.59 573.022 Q2506.48 573.995 2510.81 573.995 Q2517.82 573.995 2521.91 570.308 Q2526 566.622 2526 560.303 Q2526 553.983 2521.91 550.297 Q2517.82 546.611 2510.81 546.611 Q2507.53 546.611 2504.25 547.34 Q2501.01 548.069 2497.61 549.608 L2497.61 519.226 Z" fill="#000000" fill-rule="nonzero" fill-opacity="1" /><path clip-path="url(#clip730)" d="M2454.83 195.414 L2483.39 195.414 L2483.39 202.3 L2444.98 202.3 L2444.98 195.414 Q2449.64 190.593 2457.66 182.491 Q2465.72 174.349 2467.79 171.999 Q2471.72 167.584 2473.26 164.546 Q2474.84 161.467 2474.84 158.51 Q2474.84 153.689 2471.44 150.651 Q2468.07 147.613 2462.65 147.613 Q2458.8 147.613 2454.5 148.95 Q2450.25 150.286 2445.39 153.001 L2445.39 144.737 Q2450.33 142.752 2454.63 141.739 Q2458.92 140.726 2462.48 140.726 Q2471.88 140.726 2477.47 145.425 Q2483.06 150.124 2483.06 157.983 Q2483.06 161.71 2481.64 165.072 Q2480.27 168.394 2476.58 172.931 Q2475.57 174.106 2470.14 179.737 Q2464.71 185.327 2454.83 195.414 Z" fill="#000000" fill-rule="nonzero" fill-opacity="1" /><path clip-path="url(#clip730)" d="M2518.06 147.208 Q2511.74 147.208 2508.54 153.446 Q2505.38 159.644 2505.38 172.121 Q2505.38 184.557 2508.54 190.796 Q2511.74 196.993 2518.06 196.993 Q2524.42 196.993 2527.58 190.796 Q2530.78 184.557 2530.78 172.121 Q2530.78 159.644 2527.58 153.446 Q2524.42 147.208 2518.06 147.208 M2518.06 140.726 Q2528.23 140.726 2533.58 148.788 Q2538.96 156.808 2538.96 172.121 Q2538.96 187.393 2533.58 195.454 Q2528.23 203.475 2518.06 203.475 Q2507.89 203.475 2502.51 195.454 Q2497.16 187.393 2497.16 172.121 Q2497.16 156.808 2502.51 148.788 Q2507.89 140.726 2518.06 140.726 Z" fill="#000000" fill-rule="nonzero" fill-opacity="1" /><path clip-path="url(#clip730)" d="M2582.83 1232.83 L2592.69 1232.83 Q2588.3 1237.55 2586.12 1242.92 Q2583.94 1248.25 2583.94 1254.26 Q2583.94 1266.12 2591.21 1272.41 Q2598.43 1278.71 2612.14 1278.71 Q2625.8 1278.71 2633.06 1272.41 Q2640.29 1266.12 2640.29 1254.26 Q2640.29 1248.25 2638.11 1242.92 Q2635.93 1237.55 2631.54 1232.83 L2641.3 1232.83 Q2644.64 1237.74 2646.3 1243.25 Q2647.97 1248.71 2647.97 1254.82 Q2647.97 1270.51 2638.39 1279.54 Q2628.76 1288.57 2612.14 1288.57 Q2595.47 1288.57 2585.89 1279.54 Q2576.26 1270.51 2576.26 1254.82 Q2576.26 1248.62 2577.93 1243.15 Q2579.55 1237.64 2582.83 1232.83 Z" fill="#000000" fill-rule="nonzero" fill-opacity="1" /><path clip-path="url(#clip730)" d="M2600.75 1198.66 Q2600.75 1205.52 2606.12 1209.5 Q2611.44 1213.48 2620.75 1213.48 Q2630.05 1213.48 2635.43 1209.54 Q2640.75 1205.56 2640.75 1198.66 Q2640.75 1191.86 2635.38 1187.88 Q2630.01 1183.89 2620.75 1183.89 Q2611.54 1183.89 2606.17 1187.88 Q2600.75 1191.86 2600.75 1198.66 M2593.53 1198.66 Q2593.53 1187.55 2600.75 1181.21 Q2607.97 1174.87 2620.75 1174.87 Q2633.48 1174.87 2640.75 1181.21 Q2647.97 1187.55 2647.97 1198.66 Q2647.97 1209.82 2640.75 1216.16 Q2633.48 1222.46 2620.75 1222.46 Q2607.97 1222.46 2600.75 1216.16 Q2593.53 1209.82 2593.53 1198.66 Z" fill="#000000" fill-rule="nonzero" fill-opacity="1" /><path clip-path="url(#clip730)" d="M2604.73 1120.38 Q2598.99 1117.18 2596.26 1112.74 Q2593.53 1108.29 2593.53 1102.27 Q2593.53 1094.17 2599.22 1089.77 Q2604.87 1085.38 2615.33 1085.38 L2646.63 1085.38 L2646.63 1093.94 L2615.61 1093.94 Q2608.16 1093.94 2604.55 1096.58 Q2600.93 1099.22 2600.93 1104.64 Q2600.93 1111.26 2605.33 1115.1 Q2609.73 1118.94 2617.32 1118.94 L2646.63 1118.94 L2646.63 1127.51 L2615.61 1127.51 Q2608.11 1127.51 2604.55 1130.15 Q2600.93 1132.78 2600.93 1138.29 Q2600.93 1144.82 2605.38 1148.66 Q2609.78 1152.51 2617.32 1152.51 L2646.63 1152.51 L2646.63 1161.07 L2594.78 1161.07 L2594.78 1152.51 L2602.83 1152.51 Q2598.06 1149.59 2595.8 1145.52 Q2593.53 1141.44 2593.53 1135.84 Q2593.53 1130.19 2596.4 1126.26 Q2599.27 1122.27 2604.73 1120.38 Z" fill="#000000" fill-rule="nonzero" fill-opacity="1" /><path clip-path="url(#clip730)" d="M2638.85 1060.15 L2666.35 1060.15 L2666.35 1068.71 L2594.78 1068.71 L2594.78 1060.15 L2602.65 1060.15 Q2598.02 1057.46 2595.8 1053.39 Q2593.53 1049.27 2593.53 1043.57 Q2593.53 1034.13 2601.03 1028.25 Q2608.53 1022.32 2620.75 1022.32 Q2632.97 1022.32 2640.47 1028.25 Q2647.97 1034.13 2647.97 1043.57 Q2647.97 1049.27 2645.75 1053.39 Q2643.48 1057.46 2638.85 1060.15 M2620.75 1031.16 Q2611.35 1031.16 2606.03 1035.05 Q2600.66 1038.9 2600.66 1045.65 Q2600.66 1052.41 2606.03 1056.3 Q2611.35 1060.15 2620.75 1060.15 Q2630.15 1060.15 2635.52 1056.3 Q2640.84 1052.41 2640.84 1045.65 Q2640.84 1038.9 2635.52 1035.05 Q2630.15 1031.16 2620.75 1031.16 Z" fill="#000000" fill-rule="nonzero" fill-opacity="1" /><path clip-path="url(#clip730)" d="M2626.17 1009.08 L2594.78 1009.08 L2594.78 1000.56 L2625.84 1000.56 Q2633.2 1000.56 2636.91 997.692 Q2640.56 994.822 2640.56 989.081 Q2640.56 982.183 2636.17 978.201 Q2631.77 974.174 2624.18 974.174 L2594.78 974.174 L2594.78 965.655 L2646.63 965.655 L2646.63 974.174 L2638.67 974.174 Q2643.39 977.276 2645.7 981.396 Q2647.97 985.47 2647.97 990.887 Q2647.97 999.822 2642.42 1004.45 Q2636.86 1009.08 2626.17 1009.08 M2593.53 987.646 L2593.53 987.646 Z" fill="#000000" fill-rule="nonzero" fill-opacity="1" /><path clip-path="url(#clip730)" d="M2580.06 939.683 L2594.78 939.683 L2594.78 922.137 L2601.4 922.137 L2601.4 939.683 L2629.55 939.683 Q2635.89 939.683 2637.69 937.97 Q2639.5 936.211 2639.5 930.887 L2639.5 922.137 L2646.63 922.137 L2646.63 930.887 Q2646.63 940.748 2642.97 944.498 Q2639.27 948.248 2629.55 948.248 L2601.4 948.248 L2601.4 954.498 L2594.78 954.498 L2594.78 948.248 L2580.06 948.248 L2580.06 939.683 Z" fill="#000000" fill-rule="nonzero" fill-opacity="1" /><path clip-path="url(#clip730)" d="M2620.56 887.369 Q2620.56 897.693 2622.93 901.674 Q2625.29 905.656 2630.98 905.656 Q2635.52 905.656 2638.2 902.693 Q2640.84 899.683 2640.84 894.545 Q2640.84 887.461 2635.84 883.202 Q2630.8 878.896 2622.46 878.896 L2620.56 878.896 L2620.56 887.369 M2617.05 870.378 L2646.63 870.378 L2646.63 878.896 L2638.76 878.896 Q2643.48 881.813 2645.75 886.165 Q2647.97 890.517 2647.97 896.813 Q2647.97 904.776 2643.53 909.498 Q2639.04 914.174 2631.54 914.174 Q2622.79 914.174 2618.34 908.341 Q2613.9 902.461 2613.9 890.841 L2613.9 878.896 L2613.06 878.896 Q2607.18 878.896 2603.99 882.785 Q2600.75 886.628 2600.75 893.619 Q2600.75 898.063 2601.81 902.276 Q2602.88 906.489 2605.01 910.378 L2597.14 910.378 Q2595.33 905.702 2594.45 901.304 Q2593.53 896.906 2593.53 892.739 Q2593.53 881.489 2599.36 875.934 Q2605.19 870.378 2617.05 870.378 Z" fill="#000000" fill-rule="nonzero" fill-opacity="1" /><path clip-path="url(#clip730)" d="M2580.06 844.406 L2594.78 844.406 L2594.78 826.86 L2601.4 826.86 L2601.4 844.406 L2629.55 844.406 Q2635.89 844.406 2637.69 842.693 Q2639.5 840.934 2639.5 835.61 L2639.5 826.86 L2646.63 826.86 L2646.63 835.61 Q2646.63 845.471 2642.97 849.221 Q2639.27 852.971 2629.55 852.971 L2601.4 852.971 L2601.4 859.221 L2594.78 859.221 L2594.78 852.971 L2580.06 852.971 L2580.06 844.406 Z" fill="#000000" fill-rule="nonzero" fill-opacity="1" /><path clip-path="url(#clip730)" d="M2594.78 815.656 L2594.78 807.138 L2646.63 807.138 L2646.63 815.656 L2594.78 815.656 M2574.59 815.656 L2574.59 807.138 L2585.38 807.138 L2585.38 815.656 L2574.59 815.656 Z" fill="#000000" fill-rule="nonzero" fill-opacity="1" /><path clip-path="url(#clip730)" d="M2600.75 769.221 Q2600.75 776.073 2606.12 780.054 Q2611.44 784.036 2620.75 784.036 Q2630.05 784.036 2635.43 780.101 Q2640.75 776.119 2640.75 769.221 Q2640.75 762.416 2635.38 758.434 Q2630.01 754.453 2620.75 754.453 Q2611.54 754.453 2606.17 758.434 Q2600.75 762.416 2600.75 769.221 M2593.53 769.221 Q2593.53 758.11 2600.75 751.768 Q2607.97 745.425 2620.75 745.425 Q2633.48 745.425 2640.75 751.768 Q2647.97 758.11 2647.97 769.221 Q2647.97 780.378 2640.75 786.721 Q2633.48 793.017 2620.75 793.017 Q2607.97 793.017 2600.75 786.721 Q2593.53 780.378 2593.53 769.221 Z" fill="#000000" fill-rule="nonzero" fill-opacity="1" /><path clip-path="url(#clip730)" d="M2615.33 688.203 L2646.63 688.203 L2646.63 696.722 L2615.61 696.722 Q2608.25 696.722 2604.59 699.592 Q2600.93 702.462 2600.93 708.203 Q2600.93 715.101 2605.33 719.083 Q2609.73 723.064 2617.32 723.064 L2646.63 723.064 L2646.63 731.629 L2594.78 731.629 L2594.78 723.064 L2602.83 723.064 Q2598.16 720.008 2595.84 715.888 Q2593.53 711.721 2593.53 706.305 Q2593.53 697.37 2599.08 692.786 Q2604.59 688.203 2615.33 688.203 Z" fill="#000000" fill-rule="nonzero" fill-opacity="1" /><path clip-path="url(#clip730)" d="M2620.56 647.648 Q2620.56 657.972 2622.93 661.953 Q2625.29 665.935 2630.98 665.935 Q2635.52 665.935 2638.2 662.972 Q2640.84 659.962 2640.84 654.824 Q2640.84 647.74 2635.84 643.481 Q2630.8 639.176 2622.46 639.176 L2620.56 639.176 L2620.56 647.648 M2617.05 630.657 L2646.63 630.657 L2646.63 639.176 L2638.76 639.176 Q2643.48 642.092 2645.75 646.444 Q2647.97 650.796 2647.97 657.092 Q2647.97 665.055 2643.53 669.777 Q2639.04 674.453 2631.54 674.453 Q2622.79 674.453 2618.34 668.62 Q2613.9 662.74 2613.9 651.12 L2613.9 639.176 L2613.06 639.176 Q2607.18 639.176 2603.99 643.064 Q2600.75 646.907 2600.75 653.898 Q2600.75 658.342 2601.81 662.555 Q2602.88 666.768 2605.01 670.657 L2597.14 670.657 Q2595.33 665.981 2594.45 661.583 Q2593.53 657.185 2593.53 653.018 Q2593.53 641.768 2599.36 636.213 Q2605.19 630.657 2617.05 630.657 Z" fill="#000000" fill-rule="nonzero" fill-opacity="1" /><path clip-path="url(#clip730)" d="M2574.59 613.111 L2574.59 604.592 L2646.63 604.592 L2646.63 613.111 L2574.59 613.111 Z" fill="#000000" fill-rule="nonzero" fill-opacity="1" /><path clip-path="url(#clip730)" d="M2580.06 548.204 L2594.78 548.204 L2594.78 530.658 L2601.4 530.658 L2601.4 548.204 L2629.55 548.204 Q2635.89 548.204 2637.69 546.491 Q2639.5 544.732 2639.5 539.408 L2639.5 530.658 L2646.63 530.658 L2646.63 539.408 Q2646.63 549.269 2642.97 553.019 Q2639.27 556.769 2629.55 556.769 L2601.4 556.769 L2601.4 563.019 L2594.78 563.019 L2594.78 556.769 L2580.06 556.769 L2580.06 548.204 Z" fill="#000000" fill-rule="nonzero" fill-opacity="1" /><path clip-path="url(#clip730)" d="M2594.78 519.454 L2594.78 510.935 L2646.63 510.935 L2646.63 519.454 L2594.78 519.454 M2574.59 519.454 L2574.59 510.935 L2585.38 510.935 L2585.38 519.454 L2574.59 519.454 Z" fill="#000000" fill-rule="nonzero" fill-opacity="1" /><path clip-path="url(#clip730)" d="M2604.73 452.741 Q2598.99 449.547 2596.26 445.102 Q2593.53 440.658 2593.53 434.64 Q2593.53 426.538 2599.22 422.14 Q2604.87 417.742 2615.33 417.742 L2646.63 417.742 L2646.63 426.306 L2615.61 426.306 Q2608.16 426.306 2604.55 428.945 Q2600.93 431.584 2600.93 437.001 Q2600.93 443.621 2605.33 447.464 Q2609.73 451.306 2617.32 451.306 L2646.63 451.306 L2646.63 459.871 L2615.61 459.871 Q2608.11 459.871 2604.55 462.51 Q2600.93 465.149 2600.93 470.658 Q2600.93 477.186 2605.38 481.028 Q2609.78 484.871 2617.32 484.871 L2646.63 484.871 L2646.63 493.436 L2594.78 493.436 L2594.78 484.871 L2602.83 484.871 Q2598.06 481.954 2595.8 477.88 Q2593.53 473.806 2593.53 468.204 Q2593.53 462.556 2596.4 458.621 Q2599.27 454.639 2604.73 452.741 Z" fill="#000000" fill-rule="nonzero" fill-opacity="1" /><path clip-path="url(#clip730)" d="M2618.57 356.399 L2622.74 356.399 L2622.74 395.566 Q2631.54 395.01 2636.17 390.288 Q2640.75 385.519 2640.75 377.047 Q2640.75 372.14 2639.55 367.557 Q2638.34 362.927 2635.93 358.39 L2643.99 358.39 Q2645.93 362.973 2646.95 367.788 Q2647.97 372.603 2647.97 377.557 Q2647.97 389.964 2640.75 397.232 Q2633.53 404.455 2621.21 404.455 Q2608.48 404.455 2601.03 397.603 Q2593.53 390.705 2593.53 379.038 Q2593.53 368.575 2600.29 362.51 Q2607 356.399 2618.57 356.399 M2616.07 364.918 Q2609.08 365.01 2604.92 368.853 Q2600.75 372.649 2600.75 378.945 Q2600.75 386.075 2604.78 390.381 Q2608.8 394.64 2616.12 395.288 L2616.07 364.918 Z" fill="#000000" fill-rule="nonzero" fill-opacity="1" /><path clip-path="url(#clip730)" d="M2678.36 1209.91 Q2689.01 1216.12 2699.43 1219.13 Q2709.85 1222.14 2720.54 1222.14 Q2731.23 1222.14 2741.74 1219.13 Q2752.21 1216.07 2762.81 1209.91 L2762.81 1217.32 Q2751.93 1224.26 2741.42 1227.74 Q2730.91 1231.16 2720.54 1231.16 Q2710.22 1231.16 2699.75 1227.74 Q2689.29 1224.31 2678.36 1217.32 L2678.36 1209.91 Z" fill="#000000" fill-rule="nonzero" fill-opacity="1" /><path clip-path="url(#clip730)" d="M2683.46 1151.58 L2692.58 1151.58 Q2690.03 1156.9 2688.78 1161.63 Q2687.53 1166.35 2687.53 1170.75 Q2687.53 1178.39 2690.49 1182.55 Q2693.46 1186.67 2698.92 1186.67 Q2703.5 1186.67 2705.86 1183.94 Q2708.18 1181.16 2709.61 1173.48 L2710.77 1167.83 Q2712.76 1157.37 2717.81 1152.41 Q2722.81 1147.41 2731.23 1147.41 Q2741.28 1147.41 2746.47 1154.17 Q2751.65 1160.89 2751.65 1173.89 Q2751.65 1178.8 2750.54 1184.36 Q2749.43 1189.87 2747.25 1195.79 L2737.62 1195.79 Q2740.82 1190.1 2742.44 1184.64 Q2744.06 1179.17 2744.06 1173.89 Q2744.06 1165.89 2740.91 1161.53 Q2737.76 1157.18 2731.93 1157.18 Q2726.84 1157.18 2723.97 1160.33 Q2721.1 1163.43 2719.66 1170.56 L2718.55 1176.26 Q2716.47 1186.72 2712.02 1191.39 Q2707.58 1196.07 2699.66 1196.07 Q2690.49 1196.07 2685.22 1189.64 Q2679.94 1183.15 2679.94 1171.81 Q2679.94 1166.95 2680.82 1161.9 Q2681.7 1156.86 2683.46 1151.58 Z" fill="#000000" fill-rule="nonzero" fill-opacity="1" /><path clip-path="url(#clip730)" d="M2681.19 1132.83 L2681.19 1123.48 L2750.31 1123.48 L2750.31 1132.83 L2681.19 1132.83 Z" fill="#000000" fill-rule="nonzero" fill-opacity="1" /><path clip-path="url(#clip730)" d="M2681.19 1104.87 L2681.19 1092.27 L2739.01 1061.63 L2681.19 1061.63 L2681.19 1052.55 L2750.31 1052.55 L2750.31 1065.15 L2692.49 1095.79 L2750.31 1095.79 L2750.31 1104.87 L2681.19 1104.87 Z" fill="#000000" fill-rule="nonzero" fill-opacity="1" /><path clip-path="url(#clip730)" d="M2688.87 1024.59 L2742.62 1024.59 L2742.62 1013.29 Q2742.62 998.988 2736.14 992.368 Q2729.66 985.701 2715.68 985.701 Q2701.79 985.701 2695.36 992.368 Q2688.87 998.988 2688.87 1013.29 L2688.87 1024.59 M2681.19 1033.94 L2681.19 1014.73 Q2681.19 994.637 2689.57 985.238 Q2697.9 975.84 2715.68 975.84 Q2733.55 975.84 2741.93 985.285 Q2750.31 994.729 2750.31 1014.73 L2750.31 1033.94 L2681.19 1033.94 Z" fill="#000000" fill-rule="nonzero" fill-opacity="1" /><path clip-path="url(#clip730)" d="M2755.12 939.729 Q2764.38 943.341 2767.21 946.766 Q2770.03 950.192 2770.03 955.933 L2770.03 962.739 L2762.9 962.739 L2762.9 957.739 Q2762.9 954.22 2761.23 952.276 Q2759.57 950.331 2753.36 947.97 L2749.48 946.442 L2698.46 967.415 L2698.46 958.387 L2739.01 942.183 L2698.46 925.98 L2698.46 916.952 L2755.12 939.729 Z" fill="#000000" fill-rule="nonzero" fill-opacity="1" /><path clip-path="url(#clip730)" d="M2681.19 859.915 L2681.19 852.045 L2759.11 876.119 L2759.11 883.989 L2681.19 859.915 Z" fill="#000000" fill-rule="nonzero" fill-opacity="1" /><path clip-path="url(#clip730)" d="M2706.42 782.925 Q2705.59 784.36 2705.22 786.073 Q2704.8 787.74 2704.8 789.777 Q2704.8 796.999 2709.52 800.888 Q2714.2 804.73 2722.99 804.73 L2750.31 804.73 L2750.31 813.295 L2698.46 813.295 L2698.46 804.73 L2706.51 804.73 Q2701.79 802.045 2699.52 797.739 Q2697.21 793.434 2697.21 787.277 Q2697.21 786.397 2697.35 785.332 Q2697.44 784.267 2697.67 782.971 L2706.42 782.925 Z" fill="#000000" fill-rule="nonzero" fill-opacity="1" /><path clip-path="url(#clip730)" d="M2722.25 731.721 L2726.42 731.721 L2726.42 770.888 Q2735.22 770.332 2739.85 765.61 Q2744.43 760.842 2744.43 752.369 Q2744.43 747.462 2743.23 742.879 Q2742.02 738.249 2739.61 733.712 L2747.67 733.712 Q2749.61 738.295 2750.63 743.11 Q2751.65 747.925 2751.65 752.879 Q2751.65 765.286 2744.43 772.554 Q2737.21 779.777 2724.89 779.777 Q2712.16 779.777 2704.71 772.925 Q2697.21 766.027 2697.21 754.36 Q2697.21 743.897 2703.97 737.832 Q2710.68 731.721 2722.25 731.721 M2719.75 740.24 Q2712.76 740.332 2708.6 744.175 Q2704.43 747.971 2704.43 754.268 Q2704.43 761.397 2708.46 765.703 Q2712.48 769.962 2719.8 770.61 L2719.75 740.24 Z" fill="#000000" fill-rule="nonzero" fill-opacity="1" /><path clip-path="url(#clip730)" d="M2678.27 691.49 L2685.36 691.49 L2685.36 699.638 Q2685.36 704.221 2687.21 706.027 Q2689.06 707.786 2693.87 707.786 L2698.46 707.786 L2698.46 693.759 L2705.08 693.759 L2705.08 707.786 L2750.31 707.786 L2750.31 716.351 L2705.08 716.351 L2705.08 724.499 L2698.46 724.499 L2698.46 716.351 L2694.85 716.351 Q2686.19 716.351 2682.25 712.323 Q2678.27 708.296 2678.27 699.546 L2678.27 691.49 Z" fill="#000000" fill-rule="nonzero" fill-opacity="1" /><path clip-path="url(#clip730)" d="M2722.25 640.009 L2726.42 640.009 L2726.42 679.175 Q2735.22 678.62 2739.85 673.898 Q2744.43 669.129 2744.43 660.657 Q2744.43 655.75 2743.23 651.166 Q2742.02 646.537 2739.61 642 L2747.67 642 Q2749.61 646.583 2750.63 651.398 Q2751.65 656.212 2751.65 661.166 Q2751.65 673.573 2744.43 680.842 Q2737.21 688.064 2724.89 688.064 Q2712.16 688.064 2704.71 681.212 Q2697.21 674.314 2697.21 662.648 Q2697.21 652.185 2703.97 646.12 Q2710.68 640.009 2722.25 640.009 M2719.75 648.527 Q2712.76 648.62 2708.6 652.462 Q2704.43 656.259 2704.43 662.555 Q2704.43 669.685 2708.46 673.99 Q2712.48 678.249 2719.8 678.898 L2719.75 648.527 Z" fill="#000000" fill-rule="nonzero" fill-opacity="1" /><path clip-path="url(#clip730)" d="M2706.42 595.981 Q2705.59 597.416 2705.22 599.129 Q2704.8 600.796 2704.8 602.833 Q2704.8 610.055 2709.52 613.944 Q2714.2 617.787 2722.99 617.787 L2750.31 617.787 L2750.31 626.352 L2698.46 626.352 L2698.46 617.787 L2706.51 617.787 Q2701.79 615.102 2699.52 610.796 Q2697.21 606.491 2697.21 600.333 Q2697.21 599.454 2697.35 598.389 Q2697.44 597.324 2697.67 596.028 L2706.42 595.981 Z" fill="#000000" fill-rule="nonzero" fill-opacity="1" /><path clip-path="url(#clip730)" d="M2722.25 544.778 L2726.42 544.778 L2726.42 583.944 Q2735.22 583.389 2739.85 578.667 Q2744.43 573.898 2744.43 565.426 Q2744.43 560.519 2743.23 555.935 Q2742.02 551.306 2739.61 546.769 L2747.67 546.769 Q2749.61 551.352 2750.63 556.167 Q2751.65 560.982 2751.65 565.935 Q2751.65 578.343 2744.43 585.611 Q2737.21 592.833 2724.89 592.833 Q2712.16 592.833 2704.71 585.981 Q2697.21 579.083 2697.21 567.417 Q2697.21 556.954 2703.97 550.889 Q2710.68 544.778 2722.25 544.778 M2719.75 553.296 Q2712.76 553.389 2708.6 557.232 Q2704.43 561.028 2704.43 567.324 Q2704.43 574.454 2708.46 578.759 Q2712.48 583.018 2719.8 583.667 L2719.75 553.296 Z" fill="#000000" fill-rule="nonzero" fill-opacity="1" /><path clip-path="url(#clip730)" d="M2719.01 487.695 L2750.31 487.695 L2750.31 496.213 L2719.29 496.213 Q2711.93 496.213 2708.27 499.084 Q2704.61 501.954 2704.61 507.695 Q2704.61 514.593 2709.01 518.574 Q2713.41 522.556 2721 522.556 L2750.31 522.556 L2750.31 531.121 L2698.46 531.121 L2698.46 522.556 L2706.51 522.556 Q2701.84 519.5 2699.52 515.38 Q2697.21 511.213 2697.21 505.797 Q2697.21 496.861 2702.76 492.278 Q2708.27 487.695 2719.01 487.695 Z" fill="#000000" fill-rule="nonzero" fill-opacity="1" /><path clip-path="url(#clip730)" d="M2700.45 433.39 L2708.41 433.39 Q2706.42 437.001 2705.45 440.658 Q2704.43 444.269 2704.43 447.973 Q2704.43 456.26 2709.71 460.843 Q2714.94 465.426 2724.43 465.426 Q2733.92 465.426 2739.2 460.843 Q2744.43 456.26 2744.43 447.973 Q2744.43 444.269 2743.46 440.658 Q2742.44 437.001 2740.45 433.39 L2748.32 433.39 Q2749.98 436.954 2750.82 440.797 Q2751.65 444.593 2751.65 448.899 Q2751.65 460.612 2744.29 467.51 Q2736.93 474.408 2724.43 474.408 Q2711.74 474.408 2704.48 467.463 Q2697.21 460.473 2697.21 448.343 Q2697.21 444.408 2698.04 440.658 Q2698.83 436.908 2700.45 433.39 Z" fill="#000000" fill-rule="nonzero" fill-opacity="1" /><path clip-path="url(#clip730)" d="M2722.25 374.223 L2726.42 374.223 L2726.42 413.39 Q2735.22 412.834 2739.85 408.112 Q2744.43 403.343 2744.43 394.871 Q2744.43 389.964 2743.23 385.381 Q2742.02 380.751 2739.61 376.214 L2747.67 376.214 Q2749.61 380.797 2750.63 385.612 Q2751.65 390.427 2751.65 395.381 Q2751.65 407.788 2744.43 415.056 Q2737.21 422.279 2724.89 422.279 Q2712.16 422.279 2704.71 415.427 Q2697.21 408.529 2697.21 396.862 Q2697.21 386.399 2703.97 380.334 Q2710.68 374.223 2722.25 374.223 M2719.75 382.742 Q2712.76 382.834 2708.6 386.677 Q2704.43 390.473 2704.43 396.769 Q2704.43 403.899 2708.46 408.205 Q2712.48 412.464 2719.8 413.112 L2719.75 382.742 Z" fill="#000000" fill-rule="nonzero" fill-opacity="1" /><path clip-path="url(#clip730)" d="M2678.36 361.584 L2678.36 354.177 Q2689.29 347.233 2699.75 343.807 Q2710.22 340.335 2720.54 340.335 Q2730.91 340.335 2741.42 343.807 Q2751.93 347.233 2762.81 354.177 L2762.81 361.584 Q2752.21 355.427 2741.74 352.418 Q2731.23 349.362 2720.54 349.362 Q2709.85 349.362 2699.43 352.418 Q2689.01 355.427 2678.36 361.584 Z" fill="#000000" fill-rule="nonzero" fill-opacity="1" /><polyline clip-path="url(#clip732)" style="stroke:#ff0000; stroke-linecap:round; stroke-linejoin:round; stroke-width:4; stroke-opacity:1; fill:none" points="638.865,1519.65 1209.78,1343.5 1780.69,1140.19 2351.6,90.1298 "/>
<circle clip-path="url(#clip732)" cx="638.865" cy="1519.65" r="18" fill="#ff0000" fill-rule="evenodd" fill-opacity="1" stroke="#000000" stroke-opacity="1" stroke-width="3.6"/>
<circle clip-path="url(#clip732)" cx="1209.78" cy="1343.5" r="18" fill="#ff0000" fill-rule="evenodd" fill-opacity="1" stroke="#000000" stroke-opacity="1" stroke-width="3.6"/>
<circle clip-path="url(#clip732)" cx="1780.69" cy="1140.19" r="18" fill="#ff0000" fill-rule="evenodd" fill-opacity="1" stroke="#000000" stroke-opacity="1" stroke-width="3.6"/>
<circle clip-path="url(#clip732)" cx="2351.6" cy="90.1298" r="18" fill="#ff0000" fill-rule="evenodd" fill-opacity="1" stroke="#000000" stroke-opacity="1" stroke-width="3.6"/>
<path clip-path="url(#clip730)" d="M1228.75 408.794 L2342.47 408.794 L2342.47 97.754 L1228.75 97.754  Z" fill="#ffffff" fill-rule="evenodd" fill-opacity="1"/>
<polyline clip-path="url(#clip730)" style="stroke:#000000; stroke-linecap:round; stroke-linejoin:round; stroke-width:4; stroke-opacity:1; fill:none" points="1228.75,408.794 2342.47,408.794 2342.47,97.754 1228.75,97.754 1228.75,408.794 "/>
<polyline clip-path="url(#clip730)" style="stroke:#0000ff; stroke-linecap:round; stroke-linejoin:round; stroke-width:8; stroke-opacity:1; fill:none" points="1248.92,201.434 1369.95,201.434 "/>
<circle clip-path="url(#clip730)" cx="1309.44" cy="201.434" r="8.4051" fill="#0000ff" fill-rule="evenodd" fill-opacity="1" stroke="#000000" stroke-opacity="1" stroke-width="8.37818"/>
<path clip-path="url(#clip730)" d="M1399.48 174.559 L1399.48 200.531 L1411.24 200.531 Q1417.76 200.531 1421.33 197.152 Q1424.89 193.772 1424.89 187.522 Q1424.89 181.318 1421.33 177.939 Q1417.76 174.559 1411.24 174.559 L1399.48 174.559 M1390.12 166.874 L1411.24 166.874 Q1422.86 166.874 1428.78 172.152 Q1434.75 177.383 1434.75 187.522 Q1434.75 197.753 1428.78 202.985 Q1422.86 208.216 1411.24 208.216 L1399.48 208.216 L1399.48 235.994 L1390.12 235.994 L1390.12 166.874 Z" fill="#000000" fill-rule="nonzero" fill-opacity="1" /><path clip-path="url(#clip730)" d="M1475.31 192.105 Q1473.87 191.272 1472.16 190.902 Q1470.49 190.485 1468.46 190.485 Q1461.23 190.485 1457.35 195.207 Q1453.5 199.883 1453.5 208.679 L1453.5 235.994 L1444.94 235.994 L1444.94 184.142 L1453.5 184.142 L1453.5 192.198 Q1456.19 187.476 1460.49 185.207 Q1464.8 182.892 1470.96 182.892 Q1471.84 182.892 1472.9 183.031 Q1473.97 183.124 1475.26 183.355 L1475.31 192.105 Z" fill="#000000" fill-rule="nonzero" fill-opacity="1" /><path clip-path="url(#clip730)" d="M1502.25 190.115 Q1495.4 190.115 1491.42 195.485 Q1487.44 200.809 1487.44 210.114 Q1487.44 219.42 1491.37 224.79 Q1495.35 230.114 1502.25 230.114 Q1509.06 230.114 1513.04 224.744 Q1517.02 219.374 1517.02 210.114 Q1517.02 200.902 1513.04 195.531 Q1509.06 190.115 1502.25 190.115 M1502.25 182.892 Q1513.36 182.892 1519.71 190.115 Q1526.05 197.337 1526.05 210.114 Q1526.05 222.846 1519.71 230.114 Q1513.36 237.337 1502.25 237.337 Q1491.1 237.337 1484.75 230.114 Q1478.46 222.846 1478.46 210.114 Q1478.46 197.337 1484.75 190.115 Q1491.1 182.892 1502.25 182.892 Z" fill="#000000" fill-rule="nonzero" fill-opacity="1" /><path clip-path="url(#clip730)" d="M1574.29 192.013 L1574.29 163.957 L1582.81 163.957 L1582.81 235.994 L1574.29 235.994 L1574.29 228.216 Q1571.6 232.846 1567.48 235.114 Q1563.41 237.337 1557.67 237.337 Q1548.27 237.337 1542.35 229.837 Q1536.47 222.337 1536.47 210.114 Q1536.47 197.892 1542.35 190.392 Q1548.27 182.892 1557.67 182.892 Q1563.41 182.892 1567.48 185.161 Q1571.6 187.383 1574.29 192.013 M1545.26 210.114 Q1545.26 219.513 1549.1 224.883 Q1552.99 230.207 1559.75 230.207 Q1566.51 230.207 1570.4 224.883 Q1574.29 219.513 1574.29 210.114 Q1574.29 200.716 1570.4 195.392 Q1566.51 190.022 1559.75 190.022 Q1552.99 190.022 1549.1 195.392 Q1545.26 200.716 1545.26 210.114 Z" fill="#000000" fill-rule="nonzero" fill-opacity="1" /><path clip-path="url(#clip730)" d="M1599.47 215.531 L1599.47 184.142 L1607.99 184.142 L1607.99 215.207 Q1607.99 222.568 1610.86 226.272 Q1613.73 229.929 1619.47 229.929 Q1626.37 229.929 1630.35 225.531 Q1634.38 221.133 1634.38 213.54 L1634.38 184.142 L1642.9 184.142 L1642.9 235.994 L1634.38 235.994 L1634.38 228.031 Q1631.28 232.753 1627.16 235.068 Q1623.09 237.337 1617.67 237.337 Q1608.73 237.337 1604.1 231.781 Q1599.47 226.226 1599.47 215.531 M1620.91 182.892 L1620.91 182.892 Z" fill="#000000" fill-rule="nonzero" fill-opacity="1" /><path clip-path="url(#clip730)" d="M1697.76 186.133 L1697.76 194.096 Q1694.15 192.105 1690.49 191.133 Q1686.88 190.115 1683.18 190.115 Q1674.89 190.115 1670.31 195.392 Q1665.72 200.624 1665.72 210.114 Q1665.72 219.605 1670.31 224.883 Q1674.89 230.114 1683.18 230.114 Q1686.88 230.114 1690.49 229.142 Q1694.15 228.124 1697.76 226.133 L1697.76 234.003 Q1694.2 235.67 1690.35 236.503 Q1686.56 237.337 1682.25 237.337 Q1670.54 237.337 1663.64 229.975 Q1656.74 222.614 1656.74 210.114 Q1656.74 197.429 1663.69 190.161 Q1670.68 182.892 1682.81 182.892 Q1686.74 182.892 1690.49 183.726 Q1694.24 184.513 1697.76 186.133 Z" fill="#000000" fill-rule="nonzero" fill-opacity="1" /><path clip-path="url(#clip730)" d="M1721 169.42 L1721 184.142 L1738.55 184.142 L1738.55 190.763 L1721 190.763 L1721 218.911 Q1721 225.253 1722.71 227.059 Q1724.47 228.864 1729.8 228.864 L1738.55 228.864 L1738.55 235.994 L1729.8 235.994 Q1719.94 235.994 1716.19 232.337 Q1712.44 228.633 1712.44 218.911 L1712.44 190.763 L1706.19 190.763 L1706.19 184.142 L1712.44 184.142 L1712.44 169.42 L1721 169.42 Z" fill="#000000" fill-rule="nonzero" fill-opacity="1" /><polyline clip-path="url(#clip730)" style="stroke:#ff0000; stroke-linecap:round; stroke-linejoin:round; stroke-width:8; stroke-opacity:1; fill:none" points="1248.92,305.114 1369.95,305.114 "/>
<circle clip-path="url(#clip730)" cx="1309.44" cy="305.114" r="8.4051" fill="#ff0000" fill-rule="evenodd" fill-opacity="1" stroke="#000000" stroke-opacity="1" stroke-width="8.37818"/>
<path clip-path="url(#clip730)" d="M1445.86 275.878 L1445.86 285.739 Q1441.14 281.341 1435.77 279.165 Q1430.45 276.989 1424.43 276.989 Q1412.58 276.989 1406.28 284.258 Q1399.99 291.48 1399.99 305.183 Q1399.99 318.841 1406.28 326.109 Q1412.58 333.331 1424.43 333.331 Q1430.45 333.331 1435.77 331.155 Q1441.14 328.98 1445.86 324.581 L1445.86 334.35 Q1440.96 337.683 1435.45 339.35 Q1429.98 341.017 1423.87 341.017 Q1408.18 341.017 1399.15 331.433 Q1390.12 321.804 1390.12 305.183 Q1390.12 288.517 1399.15 278.934 Q1408.18 269.304 1423.87 269.304 Q1430.08 269.304 1435.54 270.971 Q1441.05 272.591 1445.86 275.878 Z" fill="#000000" fill-rule="nonzero" fill-opacity="1" /><path clip-path="url(#clip730)" d="M1480.03 293.795 Q1473.18 293.795 1469.2 299.165 Q1465.22 304.489 1465.22 313.794 Q1465.22 323.1 1469.15 328.47 Q1473.13 333.794 1480.03 333.794 Q1486.84 333.794 1490.82 328.424 Q1494.8 323.054 1494.8 313.794 Q1494.8 304.582 1490.82 299.211 Q1486.84 293.795 1480.03 293.795 M1480.03 286.572 Q1491.14 286.572 1497.48 293.795 Q1503.83 301.017 1503.83 313.794 Q1503.83 326.526 1497.48 333.794 Q1491.14 341.017 1480.03 341.017 Q1468.87 341.017 1462.53 333.794 Q1456.23 326.526 1456.23 313.794 Q1456.23 301.017 1462.53 293.795 Q1468.87 286.572 1480.03 286.572 Z" fill="#000000" fill-rule="nonzero" fill-opacity="1" /><path clip-path="url(#clip730)" d="M1558.32 297.776 Q1561.51 292.035 1565.96 289.304 Q1570.4 286.572 1576.42 286.572 Q1584.52 286.572 1588.92 292.267 Q1593.32 297.915 1593.32 308.378 L1593.32 339.674 L1584.75 339.674 L1584.75 308.656 Q1584.75 301.202 1582.11 297.591 Q1579.47 293.98 1574.06 293.98 Q1567.44 293.98 1563.6 298.378 Q1559.75 302.776 1559.75 310.369 L1559.75 339.674 L1551.19 339.674 L1551.19 308.656 Q1551.19 301.156 1548.55 297.591 Q1545.91 293.98 1540.4 293.98 Q1533.87 293.98 1530.03 298.424 Q1526.19 302.822 1526.19 310.369 L1526.19 339.674 L1517.62 339.674 L1517.62 287.822 L1526.19 287.822 L1526.19 295.878 Q1529.1 291.109 1533.18 288.841 Q1537.25 286.572 1542.85 286.572 Q1548.5 286.572 1552.44 289.443 Q1556.42 292.313 1558.32 297.776 Z" fill="#000000" fill-rule="nonzero" fill-opacity="1" /><path clip-path="url(#clip730)" d="M1618.55 331.896 L1618.55 359.396 L1609.98 359.396 L1609.98 287.822 L1618.55 287.822 L1618.55 295.693 Q1621.23 291.063 1625.31 288.841 Q1629.43 286.572 1635.12 286.572 Q1644.57 286.572 1650.45 294.072 Q1656.37 301.572 1656.37 313.794 Q1656.37 326.017 1650.45 333.517 Q1644.57 341.017 1635.12 341.017 Q1629.43 341.017 1625.31 338.794 Q1621.23 336.526 1618.55 331.896 M1647.53 313.794 Q1647.53 304.396 1643.64 299.072 Q1639.8 293.702 1633.04 293.702 Q1626.28 293.702 1622.39 299.072 Q1618.55 304.396 1618.55 313.794 Q1618.55 323.193 1622.39 328.563 Q1626.28 333.887 1633.04 333.887 Q1639.8 333.887 1643.64 328.563 Q1647.53 323.193 1647.53 313.794 Z" fill="#000000" fill-rule="nonzero" fill-opacity="1" /><path clip-path="url(#clip730)" d="M1669.61 319.211 L1669.61 287.822 L1678.13 287.822 L1678.13 318.887 Q1678.13 326.248 1681 329.952 Q1683.87 333.609 1689.61 333.609 Q1696.51 333.609 1700.49 329.211 Q1704.52 324.813 1704.52 317.22 L1704.52 287.822 L1713.04 287.822 L1713.04 339.674 L1704.52 339.674 L1704.52 331.711 Q1701.42 336.433 1697.3 338.748 Q1693.22 341.017 1687.81 341.017 Q1678.87 341.017 1674.24 335.461 Q1669.61 329.906 1669.61 319.211 M1691.05 286.572 L1691.05 286.572 Z" fill="#000000" fill-rule="nonzero" fill-opacity="1" /><path clip-path="url(#clip730)" d="M1739.01 273.1 L1739.01 287.822 L1756.56 287.822 L1756.56 294.443 L1739.01 294.443 L1739.01 322.591 Q1739.01 328.933 1740.72 330.739 Q1742.48 332.544 1747.81 332.544 L1756.56 332.544 L1756.56 339.674 L1747.81 339.674 Q1737.95 339.674 1734.2 336.017 Q1730.45 332.313 1730.45 322.591 L1730.45 294.443 L1724.2 294.443 L1724.2 287.822 L1730.45 287.822 L1730.45 273.1 L1739.01 273.1 Z" fill="#000000" fill-rule="nonzero" fill-opacity="1" /><path clip-path="url(#clip730)" d="M1791.33 313.609 Q1781 313.609 1777.02 315.97 Q1773.04 318.331 1773.04 324.026 Q1773.04 328.563 1776 331.248 Q1779.01 333.887 1784.15 333.887 Q1791.23 333.887 1795.49 328.887 Q1799.8 323.841 1799.8 315.507 L1799.8 313.609 L1791.33 313.609 M1808.32 310.091 L1808.32 339.674 L1799.8 339.674 L1799.8 331.804 Q1796.88 336.526 1792.53 338.794 Q1788.18 341.017 1781.88 341.017 Q1773.92 341.017 1769.2 336.572 Q1764.52 332.081 1764.52 324.581 Q1764.52 315.832 1770.35 311.387 Q1776.23 306.943 1787.85 306.943 L1799.8 306.943 L1799.8 306.109 Q1799.8 300.23 1795.91 297.035 Q1792.07 293.795 1785.08 293.795 Q1780.63 293.795 1776.42 294.859 Q1772.21 295.924 1768.32 298.054 L1768.32 290.183 Q1772.99 288.378 1777.39 287.498 Q1781.79 286.572 1785.96 286.572 Q1797.21 286.572 1802.76 292.406 Q1808.32 298.239 1808.32 310.091 Z" fill="#000000" fill-rule="nonzero" fill-opacity="1" /><path clip-path="url(#clip730)" d="M1834.29 273.1 L1834.29 287.822 L1851.83 287.822 L1851.83 294.443 L1834.29 294.443 L1834.29 322.591 Q1834.29 328.933 1836 330.739 Q1837.76 332.544 1843.08 332.544 L1851.83 332.544 L1851.83 339.674 L1843.08 339.674 Q1833.22 339.674 1829.47 336.017 Q1825.72 332.313 1825.72 322.591 L1825.72 294.443 L1819.47 294.443 L1819.47 287.822 L1825.72 287.822 L1825.72 273.1 L1834.29 273.1 Z" fill="#000000" fill-rule="nonzero" fill-opacity="1" /><path clip-path="url(#clip730)" d="M1863.04 287.822 L1871.56 287.822 L1871.56 339.674 L1863.04 339.674 L1863.04 287.822 M1863.04 267.637 L1871.56 267.637 L1871.56 278.424 L1863.04 278.424 L1863.04 267.637 Z" fill="#000000" fill-rule="nonzero" fill-opacity="1" /><path clip-path="url(#clip730)" d="M1909.47 293.795 Q1902.62 293.795 1898.64 299.165 Q1894.66 304.489 1894.66 313.794 Q1894.66 323.1 1898.59 328.47 Q1902.57 333.794 1909.47 333.794 Q1916.28 333.794 1920.26 328.424 Q1924.24 323.054 1924.24 313.794 Q1924.24 304.582 1920.26 299.211 Q1916.28 293.795 1909.47 293.795 M1909.47 286.572 Q1920.58 286.572 1926.93 293.795 Q1933.27 301.017 1933.27 313.794 Q1933.27 326.526 1926.93 333.794 Q1920.58 341.017 1909.47 341.017 Q1898.32 341.017 1891.97 333.794 Q1885.68 326.526 1885.68 313.794 Q1885.68 301.017 1891.97 293.795 Q1898.32 286.572 1909.47 286.572 Z" fill="#000000" fill-rule="nonzero" fill-opacity="1" /><path clip-path="url(#clip730)" d="M1990.49 308.378 L1990.49 339.674 L1981.97 339.674 L1981.97 308.656 Q1981.97 301.295 1979.1 297.637 Q1976.23 293.98 1970.49 293.98 Q1963.59 293.98 1959.61 298.378 Q1955.63 302.776 1955.63 310.369 L1955.63 339.674 L1947.07 339.674 L1947.07 287.822 L1955.63 287.822 L1955.63 295.878 Q1958.69 291.202 1962.81 288.887 Q1966.97 286.572 1972.39 286.572 Q1981.32 286.572 1985.91 292.128 Q1990.49 297.637 1990.49 308.378 Z" fill="#000000" fill-rule="nonzero" fill-opacity="1" /><path clip-path="url(#clip730)" d="M2031.05 313.609 Q2020.72 313.609 2016.74 315.97 Q2012.76 318.331 2012.76 324.026 Q2012.76 328.563 2015.72 331.248 Q2018.73 333.887 2023.87 333.887 Q2030.95 333.887 2035.21 328.887 Q2039.52 323.841 2039.52 315.507 L2039.52 313.609 L2031.05 313.609 M2048.04 310.091 L2048.04 339.674 L2039.52 339.674 L2039.52 331.804 Q2036.6 336.526 2032.25 338.794 Q2027.9 341.017 2021.6 341.017 Q2013.64 341.017 2008.92 336.572 Q2004.24 332.081 2004.24 324.581 Q2004.24 315.832 2010.07 311.387 Q2015.95 306.943 2027.57 306.943 L2039.52 306.943 L2039.52 306.109 Q2039.52 300.23 2035.63 297.035 Q2031.79 293.795 2024.8 293.795 Q2020.35 293.795 2016.14 294.859 Q2011.93 295.924 2008.04 298.054 L2008.04 290.183 Q2012.71 288.378 2017.11 287.498 Q2021.51 286.572 2025.68 286.572 Q2036.93 286.572 2042.48 292.406 Q2048.04 298.239 2048.04 310.091 Z" fill="#000000" fill-rule="nonzero" fill-opacity="1" /><path clip-path="url(#clip730)" d="M2065.58 267.637 L2074.1 267.637 L2074.1 339.674 L2065.58 339.674 L2065.58 267.637 Z" fill="#000000" fill-rule="nonzero" fill-opacity="1" /><path clip-path="url(#clip730)" d="M2130.49 273.1 L2130.49 287.822 L2148.04 287.822 L2148.04 294.443 L2130.49 294.443 L2130.49 322.591 Q2130.49 328.933 2132.2 330.739 Q2133.96 332.544 2139.29 332.544 L2148.04 332.544 L2148.04 339.674 L2139.29 339.674 Q2129.43 339.674 2125.68 336.017 Q2121.93 332.313 2121.93 322.591 L2121.93 294.443 L2115.68 294.443 L2115.68 287.822 L2121.93 287.822 L2121.93 273.1 L2130.49 273.1 Z" fill="#000000" fill-rule="nonzero" fill-opacity="1" /><path clip-path="url(#clip730)" d="M2159.24 287.822 L2167.76 287.822 L2167.76 339.674 L2159.24 339.674 L2159.24 287.822 M2159.24 267.637 L2167.76 267.637 L2167.76 278.424 L2159.24 278.424 L2159.24 267.637 Z" fill="#000000" fill-rule="nonzero" fill-opacity="1" /><path clip-path="url(#clip730)" d="M2225.95 297.776 Q2229.15 292.035 2233.59 289.304 Q2238.04 286.572 2244.05 286.572 Q2252.16 286.572 2256.55 292.267 Q2260.95 297.915 2260.95 308.378 L2260.95 339.674 L2252.39 339.674 L2252.39 308.656 Q2252.39 301.202 2249.75 297.591 Q2247.11 293.98 2241.69 293.98 Q2235.07 293.98 2231.23 298.378 Q2227.39 302.776 2227.39 310.369 L2227.39 339.674 L2218.82 339.674 L2218.82 308.656 Q2218.82 301.156 2216.18 297.591 Q2213.55 293.98 2208.04 293.98 Q2201.51 293.98 2197.67 298.424 Q2193.82 302.822 2193.82 310.369 L2193.82 339.674 L2185.26 339.674 L2185.26 287.822 L2193.82 287.822 L2193.82 295.878 Q2196.74 291.109 2200.81 288.841 Q2204.89 286.572 2210.49 286.572 Q2216.14 286.572 2220.07 289.443 Q2224.05 292.313 2225.95 297.776 Z" fill="#000000" fill-rule="nonzero" fill-opacity="1" /><path clip-path="url(#clip730)" d="M2322.29 311.619 L2322.29 315.785 L2283.13 315.785 Q2283.68 324.581 2288.41 329.211 Q2293.17 333.794 2301.65 333.794 Q2306.55 333.794 2311.14 332.591 Q2315.77 331.387 2320.3 328.98 L2320.3 337.035 Q2315.72 338.98 2310.91 339.998 Q2306.09 341.017 2301.14 341.017 Q2288.73 341.017 2281.46 333.794 Q2274.24 326.572 2274.24 314.257 Q2274.24 301.526 2281.09 294.072 Q2287.99 286.572 2299.66 286.572 Q2310.12 286.572 2316.18 293.332 Q2322.29 300.045 2322.29 311.619 M2313.78 309.119 Q2313.68 302.128 2309.84 297.961 Q2306.05 293.795 2299.75 293.795 Q2292.62 293.795 2288.31 297.822 Q2284.05 301.85 2283.41 309.165 L2313.78 309.119 Z" fill="#000000" fill-rule="nonzero" fill-opacity="1" /></svg>
