<?xml version="1.0" encoding="utf-8"?>
<svg xmlns="http://www.w3.org/2000/svg" xmlns:xlink="http://www.w3.org/1999/xlink" width="700" height="450" viewBox="0 0 2800 1800">
<defs>
  <clipPath id="clip890">
    <rect x="0" y="0" width="2800" height="1800"/>
  </clipPath>
</defs>
<path clip-path="url(#clip890)" d="M0 1800 L2800 1800 L2800 -2.27374e-13 L0 -2.27374e-13  Z" fill="#ffffff" fill-rule="evenodd" fill-opacity="1"/>
<defs>
  <clipPath id="clip891">
    <rect x="560" y="0" width="1961" height="1800"/>
  </clipPath>
</defs>
<path clip-path="url(#clip890)" d="M348.614 1562.54 L2419.89 1562.54 L2419.89 47.2441 L348.614 47.2441  Z" fill="#ffffff" fill-rule="evenodd" fill-opacity="1"/>
<defs>
  <clipPath id="clip892">
    <rect x="348" y="47" width="2072" height="1516"/>
  </clipPath>
</defs>
<polyline clip-path="url(#clip892)" style="stroke:#000000; stroke-linecap:round; stroke-linejoin:round; stroke-width:2; stroke-opacity:0.1; fill:none" points="407.235,1562.54 407.235,47.2441 "/>
<polyline clip-path="url(#clip892)" style="stroke:#000000; stroke-linecap:round; stroke-linejoin:round; stroke-width:2; stroke-opacity:0.1; fill:none" points="1058.58,1562.54 1058.58,47.2441 "/>
<polyline clip-path="url(#clip892)" style="stroke:#000000; stroke-linecap:round; stroke-linejoin:round; stroke-width:2; stroke-opacity:0.1; fill:none" points="1709.92,1562.54 1709.92,47.2441 "/>
<polyline clip-path="url(#clip892)" style="stroke:#000000; stroke-linecap:round; stroke-linejoin:round; stroke-width:2; stroke-opacity:0.1; fill:none" points="2361.27,1562.54 2361.27,47.2441 "/>
<polyline clip-path="url(#clip890)" style="stroke:#000000; stroke-linecap:round; stroke-linejoin:round; stroke-width:4; stroke-opacity:1; fill:none" points="348.614,1562.54 2419.89,1562.54 "/>
<polyline clip-path="url(#clip890)" style="stroke:#000000; stroke-linecap:round; stroke-linejoin:round; stroke-width:4; stroke-opacity:1; fill:none" points="407.235,1562.54 407.235,1543.64 "/>
<polyline clip-path="url(#clip890)" style="stroke:#000000; stroke-linecap:round; stroke-linejoin:round; stroke-width:4; stroke-opacity:1; fill:none" points="1058.58,1562.54 1058.58,1543.64 "/>
<polyline clip-path="url(#clip890)" style="stroke:#000000; stroke-linecap:round; stroke-linejoin:round; stroke-width:4; stroke-opacity:1; fill:none" points="1709.92,1562.54 1709.92,1543.64 "/>
<polyline clip-path="url(#clip890)" style="stroke:#000000; stroke-linecap:round; stroke-linejoin:round; stroke-width:4; stroke-opacity:1; fill:none" points="2361.27,1562.54 2361.27,1543.64 "/>
<path clip-path="url(#clip890)" d="M390.403 1653.65 L403.771 1653.65 L403.771 1607.51 L389.228 1610.43 L389.228 1602.98 L403.69 1600.06 L411.873 1600.06 L411.873 1653.65 L425.241 1653.65 L425.241 1660.54 L390.403 1660.54 L390.403 1653.65 Z" fill="#000000" fill-rule="nonzero" fill-opacity="1" /><path clip-path="url(#clip890)" d="M1049.22 1653.65 L1077.78 1653.65 L1077.78 1660.54 L1039.38 1660.54 L1039.38 1653.65 Q1044.04 1648.83 1052.06 1640.73 Q1060.12 1632.59 1062.18 1630.24 Q1066.11 1625.82 1067.65 1622.79 Q1069.23 1619.71 1069.23 1616.75 Q1069.23 1611.93 1065.83 1608.89 Q1062.47 1605.85 1057.04 1605.85 Q1053.19 1605.85 1048.9 1607.19 Q1044.64 1608.53 1039.78 1611.24 L1039.78 1602.98 Q1044.73 1600.99 1049.02 1599.98 Q1053.31 1598.97 1056.88 1598.97 Q1066.28 1598.97 1071.87 1603.67 Q1077.46 1608.36 1077.46 1616.22 Q1077.46 1619.95 1076.04 1623.31 Q1074.66 1626.63 1070.98 1631.17 Q1069.96 1632.35 1064.53 1637.98 Q1059.11 1643.57 1049.22 1653.65 Z" fill="#000000" fill-rule="nonzero" fill-opacity="1" /><path clip-path="url(#clip890)" d="M1717.36 1627.93 Q1723.23 1629.19 1726.51 1633.16 Q1729.83 1637.13 1729.83 1642.96 Q1729.83 1651.91 1723.68 1656.81 Q1717.52 1661.72 1706.18 1661.72 Q1702.37 1661.72 1698.32 1660.95 Q1694.31 1660.22 1690.01 1658.72 L1690.01 1650.82 Q1693.42 1652.8 1697.47 1653.82 Q1701.52 1654.83 1705.93 1654.83 Q1713.63 1654.83 1717.64 1651.79 Q1721.69 1648.75 1721.69 1642.96 Q1721.69 1637.61 1717.92 1634.61 Q1714.2 1631.58 1707.51 1631.58 L1700.47 1631.58 L1700.47 1624.85 L1707.84 1624.85 Q1713.87 1624.85 1717.07 1622.46 Q1720.27 1620.03 1720.27 1615.49 Q1720.27 1610.84 1716.95 1608.36 Q1713.67 1605.85 1707.51 1605.85 Q1704.15 1605.85 1700.3 1606.58 Q1696.46 1607.31 1691.84 1608.85 L1691.84 1601.56 Q1696.5 1600.26 1700.55 1599.61 Q1704.64 1598.97 1708.24 1598.97 Q1717.56 1598.97 1722.99 1603.22 Q1728.42 1607.43 1728.42 1614.64 Q1728.42 1619.67 1725.54 1623.15 Q1722.66 1626.59 1717.36 1627.93 Z" fill="#000000" fill-rule="nonzero" fill-opacity="1" /><path clip-path="url(#clip890)" d="M2366.54 1607.19 L2345.88 1639.48 L2366.54 1639.48 L2366.54 1607.19 M2364.39 1600.06 L2374.68 1600.06 L2374.68 1639.48 L2383.31 1639.48 L2383.31 1646.28 L2374.68 1646.28 L2374.68 1660.54 L2366.54 1660.54 L2366.54 1646.28 L2339.23 1646.28 L2339.23 1638.38 L2364.39 1600.06 Z" fill="#000000" fill-rule="nonzero" fill-opacity="1" /><path clip-path="url(#clip890)" d="M1047.24 1709.08 L1056.59 1709.08 L1056.59 1770.33 L1090.25 1770.33 L1090.25 1778.2 L1047.24 1778.2 L1047.24 1709.08 Z" fill="#000000" fill-rule="nonzero" fill-opacity="1" /><path clip-path="url(#clip890)" d="M1123.26 1752.14 Q1112.93 1752.14 1108.95 1754.5 Q1104.97 1756.86 1104.97 1762.56 Q1104.97 1767.09 1107.93 1769.78 Q1110.94 1772.42 1116.08 1772.42 Q1123.17 1772.42 1127.42 1767.42 Q1131.73 1762.37 1131.73 1754.04 L1131.73 1752.14 L1123.26 1752.14 M1140.25 1748.62 L1140.25 1778.2 L1131.73 1778.2 L1131.73 1770.33 Q1128.81 1775.06 1124.46 1777.32 Q1120.11 1779.55 1113.81 1779.55 Q1105.85 1779.55 1101.13 1775.1 Q1096.45 1770.61 1096.45 1763.11 Q1096.45 1754.36 1102.29 1749.92 Q1108.17 1745.47 1119.79 1745.47 L1131.73 1745.47 L1131.73 1744.64 Q1131.73 1738.76 1127.84 1735.57 Q1124 1732.32 1117.01 1732.32 Q1112.56 1732.32 1108.35 1733.39 Q1104.14 1734.45 1100.25 1736.58 L1100.25 1728.71 Q1104.92 1726.91 1109.32 1726.03 Q1113.72 1725.1 1117.89 1725.1 Q1129.14 1725.1 1134.69 1730.94 Q1140.25 1736.77 1140.25 1748.62 Z" fill="#000000" fill-rule="nonzero" fill-opacity="1" /><path clip-path="url(#clip890)" d="M1166.22 1711.63 L1166.22 1726.35 L1183.77 1726.35 L1183.77 1732.97 L1166.22 1732.97 L1166.22 1761.12 Q1166.22 1767.46 1167.93 1769.27 Q1169.69 1771.07 1175.02 1771.07 L1183.77 1771.07 L1183.77 1778.2 L1175.02 1778.2 Q1165.16 1778.2 1161.41 1774.55 Q1157.66 1770.84 1157.66 1761.12 L1157.66 1732.97 L1151.41 1732.97 L1151.41 1726.35 L1157.66 1726.35 L1157.66 1711.63 L1166.22 1711.63 Z" fill="#000000" fill-rule="nonzero" fill-opacity="1" /><path clip-path="url(#clip890)" d="M1239.32 1750.15 L1239.32 1754.32 L1200.16 1754.32 Q1200.71 1763.11 1205.43 1767.74 Q1210.2 1772.32 1218.67 1772.32 Q1223.58 1772.32 1228.16 1771.12 Q1232.79 1769.92 1237.33 1767.51 L1237.33 1775.57 Q1232.75 1777.51 1227.93 1778.53 Q1223.12 1779.55 1218.16 1779.55 Q1205.76 1779.55 1198.49 1772.32 Q1191.27 1765.1 1191.27 1752.79 Q1191.27 1740.06 1198.12 1732.6 Q1205.02 1725.1 1216.68 1725.1 Q1227.15 1725.1 1233.21 1731.86 Q1239.32 1738.57 1239.32 1750.15 M1230.8 1747.65 Q1230.71 1740.66 1226.87 1736.49 Q1223.07 1732.32 1216.78 1732.32 Q1209.65 1732.32 1205.34 1736.35 Q1201.08 1740.38 1200.43 1747.7 L1230.8 1747.65 Z" fill="#000000" fill-rule="nonzero" fill-opacity="1" /><path clip-path="url(#clip890)" d="M1296.41 1746.91 L1296.41 1778.2 L1287.89 1778.2 L1287.89 1747.19 Q1287.89 1739.82 1285.02 1736.17 Q1282.15 1732.51 1276.41 1732.51 Q1269.51 1732.51 1265.53 1736.91 Q1261.54 1741.31 1261.54 1748.9 L1261.54 1778.2 L1252.98 1778.2 L1252.98 1726.35 L1261.54 1726.35 L1261.54 1734.41 Q1264.6 1729.73 1268.72 1727.42 Q1272.89 1725.1 1278.3 1725.1 Q1287.24 1725.1 1291.82 1730.66 Q1296.41 1736.17 1296.41 1746.91 Z" fill="#000000" fill-rule="nonzero" fill-opacity="1" /><path clip-path="url(#clip890)" d="M1321.82 1711.63 L1321.82 1726.35 L1339.37 1726.35 L1339.37 1732.97 L1321.82 1732.97 L1321.82 1761.12 Q1321.82 1767.46 1323.53 1769.27 Q1325.29 1771.07 1330.62 1771.07 L1339.37 1771.07 L1339.37 1778.2 L1330.62 1778.2 Q1320.76 1778.2 1317.01 1774.55 Q1313.26 1770.84 1313.26 1761.12 L1313.26 1732.97 L1307.01 1732.97 L1307.01 1726.35 L1313.26 1726.35 L1313.26 1711.63 L1321.82 1711.63 Z" fill="#000000" fill-rule="nonzero" fill-opacity="1" /><path clip-path="url(#clip890)" d="M1413.77 1727.88 L1413.77 1735.94 Q1410.15 1734.08 1406.27 1733.16 Q1402.38 1732.23 1398.21 1732.23 Q1391.87 1732.23 1388.67 1734.18 Q1385.53 1736.12 1385.53 1740.01 Q1385.53 1742.97 1387.79 1744.69 Q1390.06 1746.35 1396.91 1747.88 L1399.83 1748.53 Q1408.9 1750.47 1412.7 1754.04 Q1416.54 1757.56 1416.54 1763.9 Q1416.54 1771.12 1410.8 1775.33 Q1405.11 1779.55 1395.11 1779.55 Q1390.94 1779.55 1386.4 1778.71 Q1381.91 1777.93 1376.91 1776.31 L1376.91 1767.51 Q1381.64 1769.96 1386.22 1771.21 Q1390.8 1772.42 1395.29 1772.42 Q1401.31 1772.42 1404.55 1770.38 Q1407.79 1768.3 1407.79 1764.55 Q1407.79 1761.07 1405.43 1759.22 Q1403.12 1757.37 1395.2 1755.66 L1392.24 1754.96 Q1384.32 1753.3 1380.8 1749.87 Q1377.28 1746.4 1377.28 1740.38 Q1377.28 1733.07 1382.47 1729.08 Q1387.65 1725.1 1397.19 1725.1 Q1401.91 1725.1 1406.08 1725.8 Q1410.25 1726.49 1413.77 1727.88 Z" fill="#000000" fill-rule="nonzero" fill-opacity="1" /><path clip-path="url(#clip890)" d="M1438.35 1770.43 L1438.35 1797.93 L1429.78 1797.93 L1429.78 1726.35 L1438.35 1726.35 L1438.35 1734.22 Q1441.03 1729.59 1445.11 1727.37 Q1449.23 1725.1 1454.92 1725.1 Q1464.37 1725.1 1470.25 1732.6 Q1476.17 1740.1 1476.17 1752.32 Q1476.17 1764.55 1470.25 1772.05 Q1464.37 1779.55 1454.92 1779.55 Q1449.23 1779.55 1445.11 1777.32 Q1441.03 1775.06 1438.35 1770.43 M1467.33 1752.32 Q1467.33 1742.93 1463.44 1737.6 Q1459.6 1732.23 1452.84 1732.23 Q1446.08 1732.23 1442.19 1737.6 Q1438.35 1742.93 1438.35 1752.32 Q1438.35 1761.72 1442.19 1767.09 Q1446.08 1772.42 1452.84 1772.42 Q1459.6 1772.42 1463.44 1767.09 Q1467.33 1761.72 1467.33 1752.32 Z" fill="#000000" fill-rule="nonzero" fill-opacity="1" /><path clip-path="url(#clip890)" d="M1534.64 1750.15 L1534.64 1754.32 L1495.48 1754.32 Q1496.03 1763.11 1500.76 1767.74 Q1505.52 1772.32 1514 1772.32 Q1518.9 1772.32 1523.49 1771.12 Q1528.12 1769.92 1532.65 1767.51 L1532.65 1775.57 Q1528.07 1777.51 1523.26 1778.53 Q1518.44 1779.55 1513.49 1779.55 Q1501.08 1779.55 1493.81 1772.32 Q1486.59 1765.1 1486.59 1752.79 Q1486.59 1740.06 1493.44 1732.6 Q1500.34 1725.1 1512.01 1725.1 Q1522.47 1725.1 1528.53 1731.86 Q1534.64 1738.57 1534.64 1750.15 M1526.13 1747.65 Q1526.03 1740.66 1522.19 1736.49 Q1518.39 1732.32 1512.1 1732.32 Q1504.97 1732.32 1500.66 1736.35 Q1496.4 1740.38 1495.76 1747.7 L1526.13 1747.65 Z" fill="#000000" fill-rule="nonzero" fill-opacity="1" /><path clip-path="url(#clip890)" d="M1585.94 1728.34 L1585.94 1736.31 Q1582.33 1734.32 1578.67 1733.34 Q1575.06 1732.32 1571.36 1732.32 Q1563.07 1732.32 1558.49 1737.6 Q1553.9 1742.83 1553.9 1752.32 Q1553.9 1761.82 1558.49 1767.09 Q1563.07 1772.32 1571.36 1772.32 Q1575.06 1772.32 1578.67 1771.35 Q1582.33 1770.33 1585.94 1768.34 L1585.94 1776.21 Q1582.38 1777.88 1578.53 1778.71 Q1574.74 1779.55 1570.43 1779.55 Q1558.72 1779.55 1551.82 1772.19 Q1544.92 1764.82 1544.92 1752.32 Q1544.92 1739.64 1551.87 1732.37 Q1558.86 1725.1 1570.99 1725.1 Q1574.92 1725.1 1578.67 1725.94 Q1582.42 1726.72 1585.94 1728.34 Z" fill="#000000" fill-rule="nonzero" fill-opacity="1" /><path clip-path="url(#clip890)" d="M1600.76 1726.35 L1609.27 1726.35 L1609.27 1778.2 L1600.76 1778.2 L1600.76 1726.35 M1600.76 1706.17 L1609.27 1706.17 L1609.27 1716.95 L1600.76 1716.95 L1600.76 1706.17 Z" fill="#000000" fill-rule="nonzero" fill-opacity="1" /><path clip-path="url(#clip890)" d="M1671.45 1750.15 L1671.45 1754.32 L1632.28 1754.32 Q1632.84 1763.11 1637.56 1767.74 Q1642.33 1772.32 1650.8 1772.32 Q1655.71 1772.32 1660.29 1771.12 Q1664.92 1769.92 1669.46 1767.51 L1669.46 1775.57 Q1664.88 1777.51 1660.06 1778.53 Q1655.25 1779.55 1650.29 1779.55 Q1637.88 1779.55 1630.62 1772.32 Q1623.39 1765.1 1623.39 1752.79 Q1623.39 1740.06 1630.25 1732.6 Q1637.14 1725.1 1648.81 1725.1 Q1659.27 1725.1 1665.34 1731.86 Q1671.45 1738.57 1671.45 1750.15 M1662.93 1747.65 Q1662.84 1740.66 1659 1736.49 Q1655.2 1732.32 1648.9 1732.32 Q1641.77 1732.32 1637.47 1736.35 Q1633.21 1740.38 1632.56 1747.7 L1662.93 1747.65 Z" fill="#000000" fill-rule="nonzero" fill-opacity="1" /><path clip-path="url(#clip890)" d="M1718.49 1727.88 L1718.49 1735.94 Q1714.88 1734.08 1710.99 1733.16 Q1707.1 1732.23 1702.93 1732.23 Q1696.59 1732.23 1693.39 1734.18 Q1690.25 1736.12 1690.25 1740.01 Q1690.25 1742.97 1692.51 1744.69 Q1694.78 1746.35 1701.63 1747.88 L1704.55 1748.53 Q1713.63 1750.47 1717.42 1754.04 Q1721.26 1757.56 1721.26 1763.9 Q1721.26 1771.12 1715.52 1775.33 Q1709.83 1779.55 1699.83 1779.55 Q1695.66 1779.55 1691.13 1778.71 Q1686.63 1777.93 1681.63 1776.31 L1681.63 1767.51 Q1686.36 1769.96 1690.94 1771.21 Q1695.52 1772.42 1700.01 1772.42 Q1706.03 1772.42 1709.27 1770.38 Q1712.51 1768.3 1712.51 1764.55 Q1712.51 1761.07 1710.15 1759.22 Q1707.84 1757.37 1699.92 1755.66 L1696.96 1754.96 Q1689.04 1753.3 1685.52 1749.87 Q1682.01 1746.4 1682.01 1740.38 Q1682.01 1733.07 1687.19 1729.08 Q1692.38 1725.1 1701.91 1725.1 Q1706.63 1725.1 1710.8 1725.8 Q1714.97 1726.49 1718.49 1727.88 Z" fill="#000000" fill-rule="nonzero" fill-opacity="1" /><polyline clip-path="url(#clip890)" style="stroke:#000000; stroke-linecap:round; stroke-linejoin:round; stroke-width:4; stroke-opacity:1; fill:none" points="348.614,1562.54 348.614,47.2441 "/>
<polyline clip-path="url(#clip890)" style="stroke:#000000; stroke-linecap:round; stroke-linejoin:round; stroke-width:4; stroke-opacity:1; fill:none" points="348.614,1554.52 367.511,1554.52 "/>
<polyline clip-path="url(#clip890)" style="stroke:#000000; stroke-linecap:round; stroke-linejoin:round; stroke-width:4; stroke-opacity:1; fill:none" points="348.614,1322.08 367.511,1322.08 "/>
<polyline clip-path="url(#clip890)" style="stroke:#000000; stroke-linecap:round; stroke-linejoin:round; stroke-width:4; stroke-opacity:1; fill:none" points="348.614,1089.63 367.511,1089.63 "/>
<polyline clip-path="url(#clip890)" style="stroke:#000000; stroke-linecap:round; stroke-linejoin:round; stroke-width:4; stroke-opacity:1; fill:none" points="348.614,857.192 367.511,857.192 "/>
<polyline clip-path="url(#clip890)" style="stroke:#000000; stroke-linecap:round; stroke-linejoin:round; stroke-width:4; stroke-opacity:1; fill:none" points="348.614,624.749 367.511,624.749 "/>
<polyline clip-path="url(#clip890)" style="stroke:#000000; stroke-linecap:round; stroke-linejoin:round; stroke-width:4; stroke-opacity:1; fill:none" points="348.614,392.306 367.511,392.306 "/>
<polyline clip-path="url(#clip890)" style="stroke:#000000; stroke-linecap:round; stroke-linejoin:round; stroke-width:4; stroke-opacity:1; fill:none" points="348.614,159.863 367.511,159.863 "/>
<path clip-path="url(#clip890)" d="M285.711 1529.67 Q279.392 1529.67 276.191 1535.91 Q273.032 1542.11 273.032 1554.58 Q273.032 1567.02 276.191 1573.26 Q279.392 1579.45 285.711 1579.45 Q292.071 1579.45 295.231 1573.26 Q298.431 1567.02 298.431 1554.58 Q298.431 1542.11 295.231 1535.91 Q292.071 1529.67 285.711 1529.67 M285.711 1523.19 Q295.879 1523.19 301.226 1531.25 Q306.614 1539.27 306.614 1554.58 Q306.614 1569.85 301.226 1577.92 Q295.879 1585.94 285.711 1585.94 Q275.543 1585.94 270.156 1577.92 Q264.808 1569.85 264.808 1554.58 Q264.808 1539.27 270.156 1531.25 Q275.543 1523.19 285.711 1523.19 Z" fill="#000000" fill-rule="nonzero" fill-opacity="1" /><path clip-path="url(#clip890)" d="M222.476 1345.43 L251.035 1345.43 L251.035 1352.32 L212.633 1352.32 L212.633 1345.43 Q217.291 1340.61 225.312 1332.51 Q233.373 1324.37 235.439 1322.02 Q239.369 1317.6 240.908 1314.56 Q242.488 1311.48 242.488 1308.53 Q242.488 1303.71 239.085 1300.67 Q235.723 1297.63 230.295 1297.63 Q226.446 1297.63 222.152 1298.97 Q217.899 1300.3 213.038 1303.02 L213.038 1294.75 Q217.98 1292.77 222.274 1291.76 Q226.568 1290.74 230.133 1290.74 Q239.531 1290.74 245.121 1295.44 Q250.711 1300.14 250.711 1308 Q250.711 1311.73 249.293 1315.09 Q247.916 1318.41 244.23 1322.95 Q243.217 1324.12 237.789 1329.75 Q232.361 1335.34 222.476 1345.43 Z" fill="#000000" fill-rule="nonzero" fill-opacity="1" /><path clip-path="url(#clip890)" d="M285.711 1297.23 Q279.392 1297.23 276.191 1303.46 Q273.032 1309.66 273.032 1322.14 Q273.032 1334.58 276.191 1340.81 Q279.392 1347.01 285.711 1347.01 Q292.071 1347.01 295.231 1340.81 Q298.431 1334.58 298.431 1322.14 Q298.431 1309.66 295.231 1303.46 Q292.071 1297.23 285.711 1297.23 M285.711 1290.74 Q295.879 1290.74 301.226 1298.81 Q306.614 1306.83 306.614 1322.14 Q306.614 1337.41 301.226 1345.47 Q295.879 1353.49 285.711 1353.49 Q275.543 1353.49 270.156 1345.47 Q264.808 1337.41 264.808 1322.14 Q264.808 1306.83 270.156 1298.81 Q275.543 1290.74 285.711 1290.74 Z" fill="#000000" fill-rule="nonzero" fill-opacity="1" /><path clip-path="url(#clip890)" d="M237.91 1066.52 L217.251 1098.81 L237.91 1098.81 L237.91 1066.52 M235.763 1059.39 L246.053 1059.39 L246.053 1098.81 L254.681 1098.81 L254.681 1105.62 L246.053 1105.62 L246.053 1119.87 L237.91 1119.87 L237.91 1105.62 L210.607 1105.62 L210.607 1097.72 L235.763 1059.39 Z" fill="#000000" fill-rule="nonzero" fill-opacity="1" /><path clip-path="url(#clip890)" d="M285.711 1064.78 Q279.392 1064.78 276.191 1071.02 Q273.032 1077.22 273.032 1089.7 Q273.032 1102.13 276.191 1108.37 Q279.392 1114.57 285.711 1114.57 Q292.071 1114.57 295.231 1108.37 Q298.431 1102.13 298.431 1089.7 Q298.431 1077.22 295.231 1071.02 Q292.071 1064.78 285.711 1064.78 M285.711 1058.3 Q295.879 1058.3 301.226 1066.36 Q306.614 1074.38 306.614 1089.7 Q306.614 1104.97 301.226 1113.03 Q295.879 1121.05 285.711 1121.05 Q275.543 1121.05 270.156 1113.03 Q264.808 1104.97 264.808 1089.7 Q264.808 1074.38 270.156 1066.36 Q275.543 1058.3 285.711 1058.3 Z" fill="#000000" fill-rule="nonzero" fill-opacity="1" /><path clip-path="url(#clip890)" d="M233.941 853.931 Q228.431 853.931 225.191 857.698 Q221.99 861.466 221.99 868.028 Q221.99 874.55 225.191 878.358 Q228.431 882.125 233.941 882.125 Q239.45 882.125 242.65 878.358 Q245.891 874.55 245.891 868.028 Q245.891 861.466 242.65 857.698 Q239.45 853.931 233.941 853.931 M250.185 828.289 L250.185 835.742 Q247.106 834.284 243.946 833.514 Q240.827 832.745 237.748 832.745 Q229.647 832.745 225.353 838.213 Q221.099 843.682 220.492 854.741 Q222.882 851.217 226.487 849.353 Q230.092 847.45 234.427 847.45 Q243.541 847.45 248.807 852.999 Q254.114 858.508 254.114 868.028 Q254.114 877.345 248.605 882.976 Q243.096 888.607 233.941 888.607 Q223.449 888.607 217.899 880.586 Q212.349 872.525 212.349 857.253 Q212.349 842.912 219.155 834.406 Q225.96 825.858 237.424 825.858 Q240.503 825.858 243.622 826.466 Q246.782 827.073 250.185 828.289 Z" fill="#000000" fill-rule="nonzero" fill-opacity="1" /><path clip-path="url(#clip890)" d="M285.711 832.34 Q279.392 832.34 276.191 838.578 Q273.032 844.776 273.032 857.253 Q273.032 869.689 276.191 875.927 Q279.392 882.125 285.711 882.125 Q292.071 882.125 295.231 875.927 Q298.431 869.689 298.431 857.253 Q298.431 844.776 295.231 838.578 Q292.071 832.34 285.711 832.34 M285.711 825.858 Q295.879 825.858 301.226 833.919 Q306.614 841.94 306.614 857.253 Q306.614 872.525 301.226 880.586 Q295.879 888.607 285.711 888.607 Q275.543 888.607 270.156 880.586 Q264.808 872.525 264.808 857.253 Q264.808 841.94 270.156 833.919 Q275.543 825.858 285.711 825.858 Z" fill="#000000" fill-rule="nonzero" fill-opacity="1" /><path clip-path="url(#clip890)" d="M232.928 626.268 Q227.094 626.268 223.732 629.387 Q220.41 632.506 220.41 637.975 Q220.41 643.444 223.732 646.563 Q227.094 649.682 232.928 649.682 Q238.761 649.682 242.123 646.563 Q245.486 643.403 245.486 637.975 Q245.486 632.506 242.123 629.387 Q238.802 626.268 232.928 626.268 M224.745 622.784 Q219.479 621.488 216.522 617.883 Q213.605 614.277 213.605 609.092 Q213.605 601.841 218.75 597.628 Q223.935 593.415 232.928 593.415 Q241.961 593.415 247.106 597.628 Q252.251 601.841 252.251 609.092 Q252.251 614.277 249.293 617.883 Q246.377 621.488 241.151 622.784 Q247.065 624.161 250.347 628.172 Q253.668 632.182 253.668 637.975 Q253.668 646.766 248.281 651.465 Q242.934 656.164 232.928 656.164 Q222.922 656.164 217.534 651.465 Q212.187 646.766 212.187 637.975 Q212.187 632.182 215.509 628.172 Q218.831 624.161 224.745 622.784 M221.747 609.862 Q221.747 614.561 224.664 617.194 Q227.621 619.827 232.928 619.827 Q238.194 619.827 241.151 617.194 Q244.149 614.561 244.149 609.862 Q244.149 605.163 241.151 602.53 Q238.194 599.897 232.928 599.897 Q227.621 599.897 224.664 602.53 Q221.747 605.163 221.747 609.862 Z" fill="#000000" fill-rule="nonzero" fill-opacity="1" /><path clip-path="url(#clip890)" d="M285.711 599.897 Q279.392 599.897 276.191 606.135 Q273.032 612.333 273.032 624.81 Q273.032 637.246 276.191 643.484 Q279.392 649.682 285.711 649.682 Q292.071 649.682 295.231 643.484 Q298.431 637.246 298.431 624.81 Q298.431 612.333 295.231 606.135 Q292.071 599.897 285.711 599.897 M285.711 593.415 Q295.879 593.415 301.226 601.476 Q306.614 609.497 306.614 624.81 Q306.614 640.082 301.226 648.143 Q295.879 656.164 285.711 656.164 Q275.543 656.164 270.156 648.143 Q264.808 640.082 264.808 624.81 Q264.808 609.497 270.156 601.476 Q275.543 593.415 285.711 593.415 Z" fill="#000000" fill-rule="nonzero" fill-opacity="1" /><path clip-path="url(#clip890)" d="M164.062 415.659 L177.43 415.659 L177.43 369.519 L162.888 372.436 L162.888 364.982 L177.349 362.066 L185.532 362.066 L185.532 415.659 L198.9 415.659 L198.9 422.546 L164.062 422.546 L164.062 415.659 Z" fill="#000000" fill-rule="nonzero" fill-opacity="1" /><path clip-path="url(#clip890)" d="M232.928 367.454 Q226.608 367.454 223.408 373.692 Q220.248 379.89 220.248 392.367 Q220.248 404.803 223.408 411.041 Q226.608 417.239 232.928 417.239 Q239.288 417.239 242.447 411.041 Q245.648 404.803 245.648 392.367 Q245.648 379.89 242.447 373.692 Q239.288 367.454 232.928 367.454 M232.928 360.972 Q243.096 360.972 248.443 369.033 Q253.83 377.054 253.83 392.367 Q253.83 407.638 248.443 415.7 Q243.096 423.721 232.928 423.721 Q222.76 423.721 217.372 415.7 Q212.025 407.638 212.025 392.367 Q212.025 377.054 217.372 369.033 Q222.76 360.972 232.928 360.972 Z" fill="#000000" fill-rule="nonzero" fill-opacity="1" /><path clip-path="url(#clip890)" d="M285.711 367.454 Q279.392 367.454 276.191 373.692 Q273.032 379.89 273.032 392.367 Q273.032 404.803 276.191 411.041 Q279.392 417.239 285.711 417.239 Q292.071 417.239 295.231 411.041 Q298.431 404.803 298.431 392.367 Q298.431 379.89 295.231 373.692 Q292.071 367.454 285.711 367.454 M285.711 360.972 Q295.879 360.972 301.226 369.033 Q306.614 377.054 306.614 392.367 Q306.614 407.638 301.226 415.7 Q295.879 423.721 285.711 423.721 Q275.543 423.721 270.156 415.7 Q264.808 407.638 264.808 392.367 Q264.808 377.054 270.156 369.033 Q275.543 360.972 285.711 360.972 Z" fill="#000000" fill-rule="nonzero" fill-opacity="1" /><path clip-path="url(#clip890)" d="M164.062 183.216 L177.43 183.216 L177.43 137.076 L162.888 139.993 L162.888 132.539 L177.349 129.623 L185.532 129.623 L185.532 183.216 L198.9 183.216 L198.9 190.103 L164.062 190.103 L164.062 183.216 Z" fill="#000000" fill-rule="nonzero" fill-opacity="1" /><path clip-path="url(#clip890)" d="M222.476 183.216 L251.035 183.216 L251.035 190.103 L212.633 190.103 L212.633 183.216 Q217.291 178.396 225.312 170.294 Q233.373 162.152 235.439 159.802 Q239.369 155.387 240.908 152.348 Q242.488 149.27 242.488 146.312 Q242.488 141.492 239.085 138.454 Q235.723 135.416 230.295 135.416 Q226.446 135.416 222.152 136.752 Q217.899 138.089 213.038 140.803 L213.038 132.539 Q217.98 130.554 222.274 129.542 Q226.568 128.529 230.133 128.529 Q239.531 128.529 245.121 133.228 Q250.711 137.927 250.711 145.786 Q250.711 149.513 249.293 152.875 Q247.916 156.197 244.23 160.734 Q243.217 161.908 237.789 167.539 Q232.361 173.129 222.476 183.216 Z" fill="#000000" fill-rule="nonzero" fill-opacity="1" /><path clip-path="url(#clip890)" d="M285.711 135.01 Q279.392 135.01 276.191 141.249 Q273.032 147.447 273.032 159.924 Q273.032 172.36 276.191 178.598 Q279.392 184.796 285.711 184.796 Q292.071 184.796 295.231 178.598 Q298.431 172.36 298.431 159.924 Q298.431 147.447 295.231 141.249 Q292.071 135.01 285.711 135.01 M285.711 128.529 Q295.879 128.529 301.226 136.59 Q306.614 144.611 306.614 159.924 Q306.614 175.195 301.226 183.257 Q295.879 191.278 285.711 191.278 Q275.543 191.278 270.156 183.257 Q264.808 175.195 264.808 159.924 Q264.808 144.611 270.156 136.59 Q275.543 128.529 285.711 128.529 Z" fill="#000000" fill-rule="nonzero" fill-opacity="1" /><path clip-path="url(#clip890)" d="M31.0316 1160.24 L31.0316 1116.53 L38.902 1116.53 L38.902 1150.89 L59.3648 1150.89 L59.3648 1117.97 L67.2352 1117.97 L67.2352 1150.89 L92.2813 1150.89 L92.2813 1115.7 L100.152 1115.7 L100.152 1160.24 L31.0316 1160.24 Z" fill="#000000" fill-rule="nonzero" fill-opacity="1" /><path clip-path="url(#clip890)" d="M74.2722 1095.61 Q83.6703 1095.61 89.0406 1091.77 Q94.3646 1087.88 94.3646 1081.12 Q94.3646 1074.36 89.0406 1070.47 Q83.6703 1066.58 74.2722 1066.58 Q64.8741 1066.58 59.55 1070.47 Q54.1797 1074.36 54.1797 1081.12 Q54.1797 1087.88 59.55 1091.77 Q64.8741 1095.61 74.2722 1095.61 M92.3739 1066.58 Q97.0035 1069.27 99.272 1073.39 Q101.494 1077.46 101.494 1083.2 Q101.494 1092.6 93.9943 1098.52 Q86.4943 1104.4 74.2722 1104.4 Q62.05 1104.4 54.55 1098.52 Q47.0501 1092.6 47.0501 1083.2 Q47.0501 1077.46 49.3186 1073.39 Q51.5408 1069.27 56.1704 1066.58 L48.3001 1066.58 L48.3001 1058.06 L119.874 1058.06 L119.874 1066.58 L92.3739 1066.58 Z" fill="#000000" fill-rule="nonzero" fill-opacity="1" /><path clip-path="url(#clip890)" d="M79.6888 1041.4 L48.3001 1041.4 L48.3001 1032.88 L79.3647 1032.88 Q86.7258 1032.88 90.4295 1030.01 Q94.0869 1027.14 94.0869 1021.4 Q94.0869 1014.5 89.6887 1010.52 Q85.2906 1006.49 77.6981 1006.49 L48.3001 1006.49 L48.3001 997.97 L100.152 997.97 L100.152 1006.49 L92.1887 1006.49 Q96.9109 1009.59 99.2257 1013.71 Q101.494 1017.78 101.494 1023.2 Q101.494 1032.14 95.9387 1036.77 Q90.3832 1041.4 79.6888 1041.4 M47.0501 1019.96 L47.0501 1019.96 Z" fill="#000000" fill-rule="nonzero" fill-opacity="1" /><path clip-path="url(#clip890)" d="M74.087 956.859 Q74.087 967.183 76.4481 971.164 Q78.8092 975.146 84.5036 975.146 Q89.0406 975.146 91.7258 972.183 Q94.3646 969.174 94.3646 964.035 Q94.3646 956.952 89.3647 952.692 Q84.3184 948.387 75.9851 948.387 L74.087 948.387 L74.087 956.859 M70.5685 939.868 L100.152 939.868 L100.152 948.387 L92.2813 948.387 Q97.0035 951.303 99.272 955.655 Q101.494 960.007 101.494 966.303 Q101.494 974.266 97.0498 978.989 Q92.5591 983.664 85.0591 983.664 Q76.3092 983.664 71.8648 977.831 Q67.4203 971.952 67.4203 960.331 L67.4203 948.387 L66.587 948.387 Q60.7074 948.387 57.513 952.276 Q54.2723 956.118 54.2723 963.109 Q54.2723 967.553 55.3371 971.766 Q56.4019 975.979 58.5315 979.868 L50.6612 979.868 Q48.8556 975.192 47.976 970.794 Q47.0501 966.396 47.0501 962.229 Q47.0501 950.979 52.8834 945.424 Q58.7167 939.868 70.5685 939.868 Z" fill="#000000" fill-rule="nonzero" fill-opacity="1" /><path clip-path="url(#clip890)" d="M33.5779 913.896 L48.3001 913.896 L48.3001 896.35 L54.9204 896.35 L54.9204 913.896 L83.0684 913.896 Q89.411 913.896 91.2165 912.183 Q93.0221 910.424 93.0221 905.1 L93.0221 896.35 L100.152 896.35 L100.152 905.1 Q100.152 914.961 96.4943 918.711 Q92.7906 922.461 83.0684 922.461 L54.9204 922.461 L54.9204 928.711 L48.3001 928.711 L48.3001 922.461 L33.5779 922.461 L33.5779 913.896 Z" fill="#000000" fill-rule="nonzero" fill-opacity="1" /><path clip-path="url(#clip890)" d="M48.3001 885.146 L48.3001 876.628 L100.152 876.628 L100.152 885.146 L48.3001 885.146 M28.115 885.146 L28.115 876.628 L38.902 876.628 L38.902 885.146 L28.115 885.146 Z" fill="#000000" fill-rule="nonzero" fill-opacity="1" /><path clip-path="url(#clip890)" d="M54.2723 838.712 Q54.2723 845.563 59.6426 849.545 Q64.9667 853.526 74.2722 853.526 Q83.5777 853.526 88.948 849.591 Q94.2721 845.61 94.2721 838.712 Q94.2721 831.906 88.9017 827.925 Q83.5314 823.943 74.2722 823.943 Q65.0592 823.943 59.6889 827.925 Q54.2723 831.906 54.2723 838.712 M47.0501 838.712 Q47.0501 827.6 54.2723 821.258 Q61.4944 814.915 74.2722 814.915 Q87.0036 814.915 94.2721 821.258 Q101.494 827.6 101.494 838.712 Q101.494 849.869 94.2721 856.211 Q87.0036 862.508 74.2722 862.508 Q61.4944 862.508 54.2723 856.211 Q47.0501 849.869 47.0501 838.712 Z" fill="#000000" fill-rule="nonzero" fill-opacity="1" /><path clip-path="url(#clip890)" d="M68.8555 757.693 L100.152 757.693 L100.152 766.212 L69.1333 766.212 Q61.7722 766.212 58.1148 769.082 Q54.4574 771.953 54.4574 777.693 Q54.4574 784.591 58.8556 788.573 Q63.2537 792.554 70.8463 792.554 L100.152 792.554 L100.152 801.119 L48.3001 801.119 L48.3001 792.554 L56.3556 792.554 Q51.6797 789.499 49.3649 785.378 Q47.0501 781.212 47.0501 775.795 Q47.0501 766.86 52.6056 762.277 Q58.1148 757.693 68.8555 757.693 Z" fill="#000000" fill-rule="nonzero" fill-opacity="1" /><path clip-path="url(#clip890)" d="M33.5779 702.138 L48.3001 702.138 L48.3001 684.592 L54.9204 684.592 L54.9204 702.138 L83.0684 702.138 Q89.411 702.138 91.2165 700.425 Q93.0221 698.666 93.0221 693.342 L93.0221 684.592 L100.152 684.592 L100.152 693.342 Q100.152 703.203 96.4943 706.953 Q92.7906 710.703 83.0684 710.703 L54.9204 710.703 L54.9204 716.953 L48.3001 716.953 L48.3001 710.703 L33.5779 710.703 L33.5779 702.138 Z" fill="#000000" fill-rule="nonzero" fill-opacity="1" /><path clip-path="url(#clip890)" d="M72.0962 629.037 L76.2629 629.037 L76.2629 668.203 Q85.0591 667.648 89.6887 662.925 Q94.2721 658.157 94.2721 649.685 Q94.2721 644.777 93.0684 640.194 Q91.8647 635.564 89.4573 631.027 L97.5128 631.027 Q99.4572 635.611 100.476 640.426 Q101.494 645.24 101.494 650.194 Q101.494 662.601 94.2721 669.87 Q87.0499 677.092 74.7351 677.092 Q62.0037 677.092 54.55 670.24 Q47.0501 663.342 47.0501 651.675 Q47.0501 641.213 53.8093 635.148 Q60.5222 629.037 72.0962 629.037 M69.5963 637.555 Q62.6056 637.648 58.4389 641.49 Q54.2723 645.287 54.2723 651.583 Q54.2723 658.712 58.3 663.018 Q62.3278 667.277 69.6426 667.925 L69.5963 637.555 Z" fill="#000000" fill-rule="nonzero" fill-opacity="1" /><path clip-path="url(#clip890)" d="M56.263 585.009 Q55.4297 586.444 55.0593 588.157 Q54.6426 589.824 54.6426 591.861 Q54.6426 599.083 59.3648 602.972 Q64.0407 606.815 72.837 606.815 L100.152 606.815 L100.152 615.379 L48.3001 615.379 L48.3001 606.815 L56.3556 606.815 Q51.6334 604.129 49.3649 599.824 Q47.0501 595.518 47.0501 589.361 Q47.0501 588.481 47.189 587.417 Q47.2816 586.352 47.513 585.055 L56.263 585.009 Z" fill="#000000" fill-rule="nonzero" fill-opacity="1" /><path clip-path="url(#clip890)" d="M58.2537 537.371 Q52.513 534.176 49.7815 529.732 Q47.0501 525.287 47.0501 519.269 Q47.0501 511.167 52.7445 506.769 Q58.3926 502.371 68.8555 502.371 L100.152 502.371 L100.152 510.935 L69.1333 510.935 Q61.6796 510.935 58.0685 513.574 Q54.4574 516.213 54.4574 521.63 Q54.4574 528.25 58.8556 532.093 Q63.2537 535.935 70.8463 535.935 L100.152 535.935 L100.152 544.5 L69.1333 544.5 Q61.6333 544.5 58.0685 547.139 Q54.4574 549.778 54.4574 555.287 Q54.4574 561.815 58.9019 565.657 Q63.3 569.5 70.8463 569.5 L100.152 569.5 L100.152 578.065 L48.3001 578.065 L48.3001 569.5 L56.3556 569.5 Q51.5871 566.583 49.3186 562.509 Q47.0501 558.435 47.0501 552.833 Q47.0501 547.185 49.9204 543.25 Q52.7908 539.269 58.2537 537.371 Z" fill="#000000" fill-rule="nonzero" fill-opacity="1" /><path clip-path="url(#clip890)" d="M49.8278 452.325 L57.8834 452.325 Q56.0315 455.936 55.1056 459.825 Q54.1797 463.714 54.1797 467.88 Q54.1797 474.223 56.1241 477.417 Q58.0685 480.565 61.9574 480.565 Q64.9204 480.565 66.6333 478.297 Q68.3 476.028 69.8277 469.176 L70.4759 466.26 Q72.4203 457.186 75.9851 453.389 Q79.5036 449.547 85.8462 449.547 Q93.0684 449.547 97.2813 455.288 Q101.494 460.982 101.494 470.982 Q101.494 475.149 100.661 479.686 Q99.8739 484.176 98.2535 489.176 L89.4573 489.176 Q91.911 484.454 93.1609 479.871 Q94.3646 475.288 94.3646 470.797 Q94.3646 464.778 92.3276 461.538 Q90.2443 458.297 86.4943 458.297 Q83.0221 458.297 81.1703 460.658 Q79.3184 462.973 77.6055 470.889 L76.911 473.852 Q75.2444 481.769 71.8185 485.287 Q68.3463 488.806 62.3278 488.806 Q55.013 488.806 51.0315 483.621 Q47.0501 478.436 47.0501 468.899 Q47.0501 464.176 47.7445 460.01 Q48.439 455.843 49.8278 452.325 Z" fill="#000000" fill-rule="nonzero" fill-opacity="1" /><polyline clip-path="url(#clip892)" style="stroke:#0000ff; stroke-linecap:round; stroke-linejoin:round; stroke-width:4; stroke-opacity:1; fill:none" points="407.235,1519.65 1058.58,1310.46 1709.92,857.192 2361.27,90.1298 "/>
<circle clip-path="url(#clip892)" cx="407.235" cy="1519.65" r="18" fill="#0000ff" fill-rule="evenodd" fill-opacity="1" stroke="#000000" stroke-opacity="1" stroke-width="3.6"/>
<circle clip-path="url(#clip892)" cx="1058.58" cy="1310.46" r="18" fill="#0000ff" fill-rule="evenodd" fill-opacity="1" stroke="#000000" stroke-opacity="1" stroke-width="3.6"/>
<circle clip-path="url(#clip892)" cx="1709.92" cy="857.192" r="18" fill="#0000ff" fill-rule="evenodd" fill-opacity="1" stroke="#000000" stroke-opacity="1" stroke-width="3.6"/>
<circle clip-path="url(#clip892)" cx="2361.27" cy="90.1298" r="18" fill="#0000ff" fill-rule="evenodd" fill-opacity="1" stroke="#000000" stroke-opacity="1" stroke-width="3.6"/>
<polyline clip-path="url(#clip892)" style="stroke:#000000; stroke-linecap:round; stroke-linejoin:round; stroke-width:2; stroke-opacity:0.1; fill:none" points="348.614,1353.44 2419.89,1353.44 "/>
<polyline clip-path="url(#clip892)" style="stroke:#000000; stroke-linecap:round; stroke-linejoin:round; stroke-width:2; stroke-opacity:0.1; fill:none" points="348.614,970.045 2419.89,970.045 "/>
<polyline clip-path="url(#clip892)" style="stroke:#000000; stroke-linecap:round; stroke-linejoin:round; stroke-width:2; stroke-opacity:0.1; fill:none" points="348.614,586.645 2419.89,586.645 "/>
<polyline clip-path="url(#clip892)" style="stroke:#000000; stroke-linecap:round; stroke-linejoin:round; stroke-width:2; stroke-opacity:0.1; fill:none" points="348.614,203.246 2419.89,203.246 "/>
<polyline clip-path="url(#clip890)" style="stroke:#000000; stroke-linecap:round; stroke-linejoin:round; stroke-width:4; stroke-opacity:1; fill:none" points="2419.89,1562.54 2419.89,47.2441 "/>
<polyline clip-path="url(#clip890)" style="stroke:#000000; stroke-linecap:round; stroke-linejoin:round; stroke-width:4; stroke-opacity:1; fill:none" points="2419.89,1353.44 2400.99,1353.44 "/>
<polyline clip-path="url(#clip890)" style="stroke:#000000; stroke-linecap:round; stroke-linejoin:round; stroke-width:4; stroke-opacity:1; fill:none" points="2419.89,970.045 2400.99,970.045 "/>
<polyline clip-path="url(#clip890)" style="stroke:#000000; stroke-linecap:round; stroke-linejoin:round; stroke-width:4; stroke-opacity:1; fill:none" points="2419.89,586.645 2400.99,586.645 "/>
<polyline clip-path="url(#clip890)" style="stroke:#000000; stroke-linecap:round; stroke-linejoin:round; stroke-width:4; stroke-opacity:1; fill:none" points="2419.89,203.246 2400.99,203.246 "/>
<path clip-path="url(#clip890)" d="M2489.19 1330.33 L2468.53 1362.62 L2489.19 1362.62 L2489.19 1330.33 M2487.05 1323.2 L2497.34 1323.2 L2497.34 1362.62 L2505.96 1362.62 L2505.96 1369.43 L2497.34 1369.43 L2497.34 1383.68 L2489.19 1383.68 L2489.19 1369.43 L2461.89 1369.43 L2461.89 1361.53 L2487.05 1323.2 Z" fill="#000000" fill-rule="nonzero" fill-opacity="1" /><path clip-path="url(#clip890)" d="M2536.99 1328.59 Q2530.67 1328.59 2527.47 1334.83 Q2524.31 1341.03 2524.31 1353.51 Q2524.31 1365.94 2527.47 1372.18 Q2530.67 1378.38 2536.99 1378.38 Q2543.35 1378.38 2546.51 1372.18 Q2549.71 1365.94 2549.71 1353.51 Q2549.71 1341.03 2546.51 1334.83 Q2543.35 1328.59 2536.99 1328.59 M2536.99 1322.11 Q2547.16 1322.11 2552.51 1330.17 Q2557.9 1338.19 2557.9 1353.51 Q2557.9 1368.78 2552.51 1376.84 Q2547.16 1384.86 2536.99 1384.86 Q2526.83 1384.86 2521.44 1376.84 Q2516.09 1368.78 2516.09 1353.51 Q2516.09 1338.19 2521.44 1330.17 Q2526.83 1322.11 2536.99 1322.11 Z" fill="#000000" fill-rule="nonzero" fill-opacity="1" /><path clip-path="url(#clip890)" d="M2483.48 966.784 Q2477.97 966.784 2474.73 970.551 Q2471.53 974.319 2471.53 980.881 Q2471.53 987.403 2474.73 991.211 Q2477.97 994.978 2483.48 994.978 Q2488.99 994.978 2492.19 991.211 Q2495.43 987.403 2495.43 980.881 Q2495.43 974.319 2492.19 970.551 Q2488.99 966.784 2483.48 966.784 M2499.73 941.142 L2499.73 948.595 Q2496.65 947.137 2493.49 946.367 Q2490.37 945.598 2487.29 945.598 Q2479.19 945.598 2474.89 951.066 Q2470.64 956.535 2470.03 967.594 Q2472.42 964.07 2476.03 962.206 Q2479.63 960.302 2483.97 960.302 Q2493.08 960.302 2498.35 965.852 Q2503.66 971.361 2503.66 980.881 Q2503.66 990.198 2498.15 995.829 Q2492.64 1001.46 2483.48 1001.46 Q2472.99 1001.46 2467.44 993.439 Q2461.89 985.378 2461.89 970.106 Q2461.89 955.765 2468.7 947.259 Q2475.5 938.711 2486.97 938.711 Q2490.04 938.711 2493.16 939.319 Q2496.32 939.926 2499.73 941.142 Z" fill="#000000" fill-rule="nonzero" fill-opacity="1" /><path clip-path="url(#clip890)" d="M2535.25 945.193 Q2528.93 945.193 2525.73 951.431 Q2522.57 957.629 2522.57 970.106 Q2522.57 982.542 2525.73 988.78 Q2528.93 994.978 2535.25 994.978 Q2541.61 994.978 2544.77 988.78 Q2547.97 982.542 2547.97 970.106 Q2547.97 957.629 2544.77 951.431 Q2541.61 945.193 2535.25 945.193 M2535.25 938.711 Q2545.42 938.711 2550.77 946.772 Q2556.15 954.793 2556.15 970.106 Q2556.15 985.378 2550.77 993.439 Q2545.42 1001.46 2535.25 1001.46 Q2525.08 1001.46 2519.7 993.439 Q2514.35 985.378 2514.35 970.106 Q2514.35 954.793 2519.7 946.772 Q2525.08 938.711 2535.25 938.711 Z" fill="#000000" fill-rule="nonzero" fill-opacity="1" /><path clip-path="url(#clip890)" d="M2482.63 588.164 Q2476.8 588.164 2473.44 591.283 Q2470.11 594.403 2470.11 599.871 Q2470.11 605.34 2473.44 608.459 Q2476.8 611.578 2482.63 611.578 Q2488.46 611.578 2491.83 608.459 Q2495.19 605.3 2495.19 599.871 Q2495.19 594.403 2491.83 591.283 Q2488.5 588.164 2482.63 588.164 M2474.45 584.68 Q2469.18 583.384 2466.22 579.779 Q2463.31 576.174 2463.31 570.988 Q2463.31 563.737 2468.45 559.524 Q2473.64 555.311 2482.63 555.311 Q2491.66 555.311 2496.81 559.524 Q2501.95 563.737 2501.95 570.988 Q2501.95 576.174 2499 579.779 Q2496.08 583.384 2490.85 584.68 Q2496.77 586.058 2500.05 590.068 Q2503.37 594.079 2503.37 599.871 Q2503.37 608.662 2497.98 613.361 Q2492.64 618.06 2482.63 618.06 Q2472.63 618.06 2467.24 613.361 Q2461.89 608.662 2461.89 599.871 Q2461.89 594.079 2465.21 590.068 Q2468.53 586.058 2474.45 584.68 M2471.45 571.758 Q2471.45 576.457 2474.37 579.09 Q2477.32 581.723 2482.63 581.723 Q2487.9 581.723 2490.85 579.09 Q2493.85 576.457 2493.85 571.758 Q2493.85 567.059 2490.85 564.426 Q2487.9 561.793 2482.63 561.793 Q2477.32 561.793 2474.37 564.426 Q2471.45 567.059 2471.45 571.758 Z" fill="#000000" fill-rule="nonzero" fill-opacity="1" /><path clip-path="url(#clip890)" d="M2535.41 561.793 Q2529.09 561.793 2525.89 568.031 Q2522.73 574.229 2522.73 586.706 Q2522.73 599.142 2525.89 605.381 Q2529.09 611.578 2535.41 611.578 Q2541.77 611.578 2544.93 605.381 Q2548.13 599.142 2548.13 586.706 Q2548.13 574.229 2544.93 568.031 Q2541.77 561.793 2535.41 561.793 M2535.41 555.311 Q2545.58 555.311 2550.93 563.373 Q2556.32 571.394 2556.32 586.706 Q2556.32 601.978 2550.93 610.039 Q2545.58 618.06 2535.41 618.06 Q2525.25 618.06 2519.86 610.039 Q2514.51 601.978 2514.51 586.706 Q2514.51 571.394 2519.86 563.373 Q2525.25 555.311 2535.41 555.311 Z" fill="#000000" fill-rule="nonzero" fill-opacity="1" /><path clip-path="url(#clip890)" d="M2463.06 226.599 L2476.43 226.599 L2476.43 180.459 L2461.89 183.376 L2461.89 175.922 L2476.35 173.006 L2484.53 173.006 L2484.53 226.599 L2497.9 226.599 L2497.9 233.486 L2463.06 233.486 L2463.06 226.599 Z" fill="#000000" fill-rule="nonzero" fill-opacity="1" /><path clip-path="url(#clip890)" d="M2531.93 178.393 Q2525.61 178.393 2522.41 184.632 Q2519.25 190.829 2519.25 203.306 Q2519.25 215.743 2522.41 221.981 Q2525.61 228.179 2531.93 228.179 Q2538.29 228.179 2541.45 221.981 Q2544.65 215.743 2544.65 203.306 Q2544.65 190.829 2541.45 184.632 Q2538.29 178.393 2531.93 178.393 M2531.93 171.912 Q2542.1 171.912 2547.45 179.973 Q2552.83 187.994 2552.83 203.306 Q2552.83 218.578 2547.45 226.639 Q2542.1 234.66 2531.93 234.66 Q2521.76 234.66 2516.37 226.639 Q2511.03 218.578 2511.03 203.306 Q2511.03 187.994 2516.37 179.973 Q2521.76 171.912 2531.93 171.912 Z" fill="#000000" fill-rule="nonzero" fill-opacity="1" /><path clip-path="url(#clip890)" d="M2584.71 178.393 Q2578.39 178.393 2575.19 184.632 Q2572.03 190.829 2572.03 203.306 Q2572.03 215.743 2575.19 221.981 Q2578.39 228.179 2584.71 228.179 Q2591.07 228.179 2594.23 221.981 Q2597.43 215.743 2597.43 203.306 Q2597.43 190.829 2594.23 184.632 Q2591.07 178.393 2584.71 178.393 M2584.71 171.912 Q2594.88 171.912 2600.23 179.973 Q2605.62 187.994 2605.62 203.306 Q2605.62 218.578 2600.23 226.639 Q2594.88 234.66 2584.71 234.66 Q2574.55 234.66 2569.16 226.639 Q2563.81 218.578 2563.81 203.306 Q2563.81 187.994 2569.16 179.973 Q2574.55 171.912 2584.71 171.912 Z" fill="#000000" fill-rule="nonzero" fill-opacity="1" /><path clip-path="url(#clip890)" d="M2661.44 1308.57 L2661.44 1299.22 L2730.56 1299.22 L2730.56 1308.57 L2661.44 1308.57 Z" fill="#000000" fill-rule="nonzero" fill-opacity="1" /><path clip-path="url(#clip890)" d="M2699.26 1237.88 L2730.56 1237.88 L2730.56 1246.39 L2699.54 1246.39 Q2692.18 1246.39 2688.52 1249.26 Q2684.87 1252.14 2684.87 1257.88 Q2684.87 1264.77 2689.26 1268.76 Q2693.66 1272.74 2701.25 1272.74 L2730.56 1272.74 L2730.56 1281.3 L2678.71 1281.3 L2678.71 1272.74 L2686.76 1272.74 Q2682.09 1269.68 2679.77 1265.56 Q2677.46 1261.39 2677.46 1255.98 Q2677.46 1247.04 2683.01 1242.46 Q2688.52 1237.88 2699.26 1237.88 Z" fill="#000000" fill-rule="nonzero" fill-opacity="1" /><path clip-path="url(#clip890)" d="M2663.99 1212.46 L2678.71 1212.46 L2678.71 1194.91 L2685.33 1194.91 L2685.33 1212.46 L2713.48 1212.46 Q2719.82 1212.46 2721.63 1210.75 Q2723.43 1208.99 2723.43 1203.66 L2723.43 1194.91 L2730.56 1194.91 L2730.56 1203.66 Q2730.56 1213.52 2726.9 1217.27 Q2723.2 1221.02 2713.48 1221.02 L2685.33 1221.02 L2685.33 1227.27 L2678.71 1227.27 L2678.71 1221.02 L2663.99 1221.02 L2663.99 1212.46 Z" fill="#000000" fill-rule="nonzero" fill-opacity="1" /><path clip-path="url(#clip890)" d="M2702.5 1139.36 L2706.67 1139.36 L2706.67 1178.52 Q2715.47 1177.97 2720.1 1173.25 Q2724.68 1168.48 2724.68 1160.01 Q2724.68 1155.1 2723.48 1150.52 Q2722.27 1145.89 2719.87 1141.35 L2727.92 1141.35 Q2729.87 1145.93 2730.88 1150.75 Q2731.9 1155.56 2731.9 1160.52 Q2731.9 1172.92 2724.68 1180.19 Q2717.46 1187.41 2705.14 1187.41 Q2692.41 1187.41 2684.96 1180.56 Q2677.46 1173.66 2677.46 1162 Q2677.46 1151.53 2684.22 1145.47 Q2690.93 1139.36 2702.5 1139.36 M2700 1147.88 Q2693.01 1147.97 2688.85 1151.81 Q2684.68 1155.61 2684.68 1161.9 Q2684.68 1169.03 2688.71 1173.34 Q2692.74 1177.6 2700.05 1178.25 L2700 1147.88 Z" fill="#000000" fill-rule="nonzero" fill-opacity="1" /><path clip-path="url(#clip890)" d="M2704.03 1091.26 Q2694.77 1091.26 2689.68 1095.1 Q2684.59 1098.9 2684.59 1105.79 Q2684.59 1112.65 2689.68 1116.49 Q2694.77 1120.28 2704.03 1120.28 Q2713.25 1120.28 2718.34 1116.49 Q2723.43 1112.65 2723.43 1105.79 Q2723.43 1098.9 2718.34 1095.1 Q2713.25 1091.26 2704.03 1091.26 M2724.13 1082.74 Q2737.37 1082.74 2743.8 1088.62 Q2750.28 1094.5 2750.28 1106.63 Q2750.28 1111.12 2749.59 1115.1 Q2748.94 1119.08 2747.55 1122.83 L2739.26 1122.83 Q2741.3 1119.08 2742.27 1115.42 Q2743.25 1111.77 2743.25 1107.97 Q2743.25 1099.59 2738.85 1095.42 Q2734.5 1091.26 2725.65 1091.26 L2721.44 1091.26 Q2726.02 1093.9 2728.29 1098.02 Q2730.56 1102.14 2730.56 1107.88 Q2730.56 1117.41 2723.29 1123.25 Q2716.02 1129.08 2704.03 1129.08 Q2692 1129.08 2684.73 1123.25 Q2677.46 1117.41 2677.46 1107.88 Q2677.46 1102.14 2679.73 1098.02 Q2682 1093.9 2686.58 1091.26 L2678.71 1091.26 L2678.71 1082.74 L2724.13 1082.74 Z" fill="#000000" fill-rule="nonzero" fill-opacity="1" /><path clip-path="url(#clip890)" d="M2686.67 1035.15 Q2685.84 1036.58 2685.47 1038.29 Q2685.05 1039.96 2685.05 1042 Q2685.05 1049.22 2689.77 1053.11 Q2694.45 1056.95 2703.25 1056.95 L2730.56 1056.95 L2730.56 1065.52 L2678.71 1065.52 L2678.71 1056.95 L2686.76 1056.95 Q2682.04 1054.27 2679.77 1049.96 Q2677.46 1045.65 2677.46 1039.5 Q2677.46 1038.62 2677.6 1037.55 Q2677.69 1036.49 2677.92 1035.19 L2686.67 1035.15 Z" fill="#000000" fill-rule="nonzero" fill-opacity="1" /><path clip-path="url(#clip890)" d="M2704.5 1002.65 Q2704.5 1012.97 2706.86 1016.95 Q2709.22 1020.93 2714.91 1020.93 Q2719.45 1020.93 2722.13 1017.97 Q2724.77 1014.96 2724.77 1009.82 Q2724.77 1002.74 2719.77 998.479 Q2714.73 994.174 2706.39 994.174 L2704.5 994.174 L2704.5 1002.65 M2700.98 985.655 L2730.56 985.655 L2730.56 994.174 L2722.69 994.174 Q2727.41 997.09 2729.68 1001.44 Q2731.9 1005.79 2731.9 1012.09 Q2731.9 1020.05 2727.46 1024.78 Q2722.97 1029.45 2715.47 1029.45 Q2706.72 1029.45 2702.27 1023.62 Q2697.83 1017.74 2697.83 1006.12 L2697.83 994.174 L2697 994.174 Q2691.12 994.174 2687.92 998.062 Q2684.68 1001.91 2684.68 1008.9 Q2684.68 1013.34 2685.75 1017.55 Q2686.81 1021.77 2688.94 1025.65 L2681.07 1025.65 Q2679.26 1020.98 2678.38 1016.58 Q2677.46 1012.18 2677.46 1008.02 Q2677.46 996.766 2683.29 991.211 Q2689.13 985.655 2700.98 985.655 Z" fill="#000000" fill-rule="nonzero" fill-opacity="1" /><path clip-path="url(#clip890)" d="M2663.99 959.683 L2678.71 959.683 L2678.71 942.137 L2685.33 942.137 L2685.33 959.683 L2713.48 959.683 Q2719.82 959.683 2721.63 957.97 Q2723.43 956.211 2723.43 950.887 L2723.43 942.137 L2730.56 942.137 L2730.56 950.887 Q2730.56 960.748 2726.9 964.498 Q2723.2 968.248 2713.48 968.248 L2685.33 968.248 L2685.33 974.498 L2678.71 974.498 L2678.71 968.248 L2663.99 968.248 L2663.99 959.683 Z" fill="#000000" fill-rule="nonzero" fill-opacity="1" /><path clip-path="url(#clip890)" d="M2678.71 930.933 L2678.71 922.415 L2730.56 922.415 L2730.56 930.933 L2678.71 930.933 M2658.52 930.933 L2658.52 922.415 L2669.31 922.415 L2669.31 930.933 L2658.52 930.933 Z" fill="#000000" fill-rule="nonzero" fill-opacity="1" /><path clip-path="url(#clip890)" d="M2684.68 884.498 Q2684.68 891.35 2690.05 895.332 Q2695.38 899.313 2704.68 899.313 Q2713.99 899.313 2719.36 895.378 Q2724.68 891.396 2724.68 884.498 Q2724.68 877.693 2719.31 873.711 Q2713.94 869.73 2704.68 869.73 Q2695.47 869.73 2690.1 873.711 Q2684.68 877.693 2684.68 884.498 M2677.46 884.498 Q2677.46 873.387 2684.68 867.045 Q2691.9 860.702 2704.68 860.702 Q2717.41 860.702 2724.68 867.045 Q2731.9 873.387 2731.9 884.498 Q2731.9 895.656 2724.68 901.998 Q2717.41 908.294 2704.68 908.294 Q2691.9 908.294 2684.68 901.998 Q2677.46 895.656 2677.46 884.498 Z" fill="#000000" fill-rule="nonzero" fill-opacity="1" /><path clip-path="url(#clip890)" d="M2699.26 803.48 L2730.56 803.48 L2730.56 811.999 L2699.54 811.999 Q2692.18 811.999 2688.52 814.869 Q2684.87 817.739 2684.87 823.48 Q2684.87 830.378 2689.26 834.36 Q2693.66 838.341 2701.25 838.341 L2730.56 838.341 L2730.56 846.906 L2678.71 846.906 L2678.71 838.341 L2686.76 838.341 Q2682.09 835.286 2679.77 831.165 Q2677.46 826.999 2677.46 821.582 Q2677.46 812.647 2683.01 808.064 Q2688.52 803.48 2699.26 803.48 Z" fill="#000000" fill-rule="nonzero" fill-opacity="1" /><path clip-path="url(#clip890)" d="M2663.99 747.925 L2678.71 747.925 L2678.71 730.379 L2685.33 730.379 L2685.33 747.925 L2713.48 747.925 Q2719.82 747.925 2721.63 746.212 Q2723.43 744.453 2723.43 739.129 L2723.43 730.379 L2730.56 730.379 L2730.56 739.129 Q2730.56 748.99 2726.9 752.74 Q2723.2 756.49 2713.48 756.49 L2685.33 756.49 L2685.33 762.74 L2678.71 762.74 L2678.71 756.49 L2663.99 756.49 L2663.99 747.925 Z" fill="#000000" fill-rule="nonzero" fill-opacity="1" /><path clip-path="url(#clip890)" d="M2678.71 719.175 L2678.71 710.657 L2730.56 710.657 L2730.56 719.175 L2678.71 719.175 M2658.52 719.175 L2658.52 710.657 L2669.31 710.657 L2669.31 719.175 L2658.52 719.175 Z" fill="#000000" fill-rule="nonzero" fill-opacity="1" /><path clip-path="url(#clip890)" d="M2688.66 652.462 Q2682.92 649.268 2680.19 644.824 Q2677.46 640.379 2677.46 634.361 Q2677.46 626.259 2683.15 621.861 Q2688.8 617.463 2699.26 617.463 L2730.56 617.463 L2730.56 626.027 L2699.54 626.027 Q2692.09 626.027 2688.48 628.666 Q2684.87 631.305 2684.87 636.722 Q2684.87 643.342 2689.26 647.185 Q2693.66 651.027 2701.25 651.027 L2730.56 651.027 L2730.56 659.592 L2699.54 659.592 Q2692.04 659.592 2688.48 662.231 Q2684.87 664.87 2684.87 670.379 Q2684.87 676.907 2689.31 680.749 Q2693.71 684.592 2701.25 684.592 L2730.56 684.592 L2730.56 693.157 L2678.71 693.157 L2678.71 684.592 L2686.76 684.592 Q2682 681.675 2679.73 677.601 Q2677.46 673.527 2677.46 667.925 Q2677.46 662.277 2680.33 658.342 Q2683.2 654.361 2688.66 652.462 Z" fill="#000000" fill-rule="nonzero" fill-opacity="1" /><path clip-path="url(#clip890)" d="M2702.5 556.12 L2706.67 556.12 L2706.67 595.287 Q2715.47 594.731 2720.1 590.009 Q2724.68 585.241 2724.68 576.768 Q2724.68 571.861 2723.48 567.278 Q2722.27 562.648 2719.87 558.111 L2727.92 558.111 Q2729.87 562.694 2730.88 567.509 Q2731.9 572.324 2731.9 577.278 Q2731.9 589.685 2724.68 596.954 Q2717.46 604.176 2705.14 604.176 Q2692.41 604.176 2684.96 597.324 Q2677.46 590.426 2677.46 578.759 Q2677.46 568.296 2684.22 562.232 Q2690.93 556.12 2702.5 556.12 M2700 564.639 Q2693.01 564.731 2688.85 568.574 Q2684.68 572.37 2684.68 578.667 Q2684.68 585.796 2688.71 590.102 Q2692.74 594.361 2700.05 595.009 L2700 564.639 Z" fill="#000000" fill-rule="nonzero" fill-opacity="1" /><path clip-path="url(#clip890)" d="M2680.24 509.084 L2688.29 509.084 Q2686.44 512.695 2685.51 516.584 Q2684.59 520.472 2684.59 524.639 Q2684.59 530.982 2686.53 534.176 Q2688.48 537.324 2692.37 537.324 Q2695.33 537.324 2697.04 535.056 Q2698.71 532.787 2700.24 525.935 L2700.88 523.019 Q2702.83 513.945 2706.39 510.148 Q2709.91 506.306 2716.25 506.306 Q2723.48 506.306 2727.69 512.047 Q2731.9 517.741 2731.9 527.741 Q2731.9 531.908 2731.07 536.445 Q2730.28 540.935 2728.66 545.935 L2719.87 545.935 Q2722.32 541.213 2723.57 536.63 Q2724.77 532.046 2724.77 527.556 Q2724.77 521.537 2722.74 518.297 Q2720.65 515.056 2716.9 515.056 Q2713.43 515.056 2711.58 517.417 Q2709.73 519.732 2708.01 527.648 L2707.32 530.611 Q2705.65 538.528 2702.23 542.046 Q2698.75 545.565 2692.74 545.565 Q2685.42 545.565 2681.44 540.38 Q2677.46 535.195 2677.46 525.658 Q2677.46 520.935 2678.15 516.769 Q2678.85 512.602 2680.24 509.084 Z" fill="#000000" fill-rule="nonzero" fill-opacity="1" /><path clip-path="url(#clip890)" d="M2663.99 484.315 L2678.71 484.315 L2678.71 466.769 L2685.33 466.769 L2685.33 484.315 L2713.48 484.315 Q2719.82 484.315 2721.63 482.602 Q2723.43 480.843 2723.43 475.519 L2723.43 466.769 L2730.56 466.769 L2730.56 475.519 Q2730.56 485.38 2726.9 489.13 Q2723.2 492.88 2713.48 492.88 L2685.33 492.88 L2685.33 499.13 L2678.71 499.13 L2678.71 492.88 L2663.99 492.88 L2663.99 484.315 Z" fill="#000000" fill-rule="nonzero" fill-opacity="1" /><path clip-path="url(#clip890)" d="M2702.5 411.214 L2706.67 411.214 L2706.67 450.38 Q2715.47 449.825 2720.1 445.102 Q2724.68 440.334 2724.68 431.862 Q2724.68 426.954 2723.48 422.371 Q2722.27 417.742 2719.87 413.205 L2727.92 413.205 Q2729.87 417.788 2730.88 422.603 Q2731.9 427.417 2731.9 432.371 Q2731.9 444.778 2724.68 452.047 Q2717.46 459.269 2705.14 459.269 Q2692.41 459.269 2684.96 452.417 Q2677.46 445.519 2677.46 433.853 Q2677.46 423.39 2684.22 417.325 Q2690.93 411.214 2702.5 411.214 M2700 419.732 Q2693.01 419.825 2688.85 423.667 Q2684.68 427.464 2684.68 433.76 Q2684.68 440.89 2688.71 445.195 Q2692.74 449.454 2700.05 450.102 L2700 419.732 Z" fill="#000000" fill-rule="nonzero" fill-opacity="1" /><path clip-path="url(#clip890)" d="M2722.78 388.992 L2750.28 388.992 L2750.28 397.556 L2678.71 397.556 L2678.71 388.992 L2686.58 388.992 Q2681.95 386.307 2679.73 382.232 Q2677.46 378.112 2677.46 372.418 Q2677.46 362.973 2684.96 357.094 Q2692.46 351.168 2704.68 351.168 Q2716.9 351.168 2724.4 357.094 Q2731.9 362.973 2731.9 372.418 Q2731.9 378.112 2729.68 382.232 Q2727.41 386.307 2722.78 388.992 M2704.68 360.01 Q2695.28 360.01 2689.96 363.899 Q2684.59 367.742 2684.59 374.501 Q2684.59 381.26 2689.96 385.149 Q2695.28 388.992 2704.68 388.992 Q2714.08 388.992 2719.45 385.149 Q2724.77 381.26 2724.77 374.501 Q2724.77 367.742 2719.45 363.899 Q2714.08 360.01 2704.68 360.01 Z" fill="#000000" fill-rule="nonzero" fill-opacity="1" /><path clip-path="url(#clip890)" d="M2680.24 303.992 L2688.29 303.992 Q2686.44 307.603 2685.51 311.492 Q2684.59 315.381 2684.59 319.548 Q2684.59 325.89 2686.53 329.085 Q2688.48 332.233 2692.37 332.233 Q2695.33 332.233 2697.04 329.964 Q2698.71 327.696 2700.24 320.844 L2700.88 317.927 Q2702.83 308.853 2706.39 305.057 Q2709.91 301.214 2716.25 301.214 Q2723.48 301.214 2727.69 306.955 Q2731.9 312.65 2731.9 322.649 Q2731.9 326.816 2731.07 331.353 Q2730.28 335.844 2728.66 340.844 L2719.87 340.844 Q2722.32 336.122 2723.57 331.538 Q2724.77 326.955 2724.77 322.464 Q2724.77 316.446 2722.74 313.205 Q2720.65 309.964 2716.9 309.964 Q2713.43 309.964 2711.58 312.325 Q2709.73 314.64 2708.01 322.557 L2707.32 325.52 Q2705.65 333.436 2702.23 336.955 Q2698.75 340.473 2692.74 340.473 Q2685.42 340.473 2681.44 335.288 Q2677.46 330.103 2677.46 320.566 Q2677.46 315.844 2678.15 311.677 Q2678.85 307.511 2680.24 303.992 Z" fill="#000000" fill-rule="nonzero" fill-opacity="1" /><polyline clip-path="url(#clip892)" style="stroke:#ff0000; stroke-linecap:round; stroke-linejoin:round; stroke-width:4; stroke-opacity:1; fill:none" points="407.235,1519.65 1058.58,759.884 1709.92,553.398 2361.27,90.1298 "/>
<circle clip-path="url(#clip892)" cx="407.235" cy="1519.65" r="18" fill="#ff0000" fill-rule="evenodd" fill-opacity="1" stroke="#000000" stroke-opacity="1" stroke-width="3.6"/>
<circle clip-path="url(#clip892)" cx="1058.58" cy="759.884" r="18" fill="#ff0000" fill-rule="evenodd" fill-opacity="1" stroke="#000000" stroke-opacity="1" stroke-width="3.6"/>
<circle clip-path="url(#clip892)" cx="1709.92" cy="553.398" r="18" fill="#ff0000" fill-rule="evenodd" fill-opacity="1" stroke="#000000" stroke-opacity="1" stroke-width="3.6"/>
<circle clip-path="url(#clip892)" cx="2361.27" cy="90.1298" r="18" fill="#ff0000" fill-rule="evenodd" fill-opacity="1" stroke="#000000" stroke-opacity="1" stroke-width="3.6"/>
<path clip-path="url(#clip890)" d="M1136.36 408.794 L2350.85 408.794 L2350.85 97.754 L1136.36 97.754  Z" fill="#ffffff" fill-rule="evenodd" fill-opacity="1"/>
<polyline clip-path="url(#clip890)" style="stroke:#000000; stroke-linecap:round; stroke-linejoin:round; stroke-width:4; stroke-opacity:1; fill:none" points="1136.36,408.794 2350.85,408.794 2350.85,97.754 1136.36,97.754 1136.36,408.794 "/>
<polyline clip-path="url(#clip890)" style="stroke:#0000ff; stroke-linecap:round; stroke-linejoin:round; stroke-width:8; stroke-opacity:1; fill:none" points="1159.38,201.434 1297.46,201.434 "/>
<circle clip-path="url(#clip890)" cx="1228.42" cy="201.434" r="9.58924" fill="#0000ff" fill-rule="evenodd" fill-opacity="1" stroke="#000000" stroke-opacity="1" stroke-width="8.37818"/>
<path clip-path="url(#clip890)" d="M1320.48 166.874 L1364.18 166.874 L1364.18 174.744 L1329.83 174.744 L1329.83 195.207 L1362.75 195.207 L1362.75 203.077 L1329.83 203.077 L1329.83 228.124 L1365.01 228.124 L1365.01 235.994 L1320.48 235.994 L1320.48 166.874 Z" fill="#000000" fill-rule="nonzero" fill-opacity="1" /><path clip-path="url(#clip890)" d="M1385.11 210.114 Q1385.11 219.513 1388.95 224.883 Q1392.84 230.207 1399.6 230.207 Q1406.36 230.207 1410.25 224.883 Q1414.13 219.513 1414.13 210.114 Q1414.13 200.716 1410.25 195.392 Q1406.36 190.022 1399.6 190.022 Q1392.84 190.022 1388.95 195.392 Q1385.11 200.716 1385.11 210.114 M1414.13 228.216 Q1411.45 232.846 1407.33 235.114 Q1403.26 237.337 1397.51 237.337 Q1388.12 237.337 1382.19 229.837 Q1376.31 222.337 1376.31 210.114 Q1376.31 197.892 1382.19 190.392 Q1388.12 182.892 1397.51 182.892 Q1403.26 182.892 1407.33 185.161 Q1411.45 187.383 1414.13 192.013 L1414.13 184.142 L1422.65 184.142 L1422.65 255.716 L1414.13 255.716 L1414.13 228.216 Z" fill="#000000" fill-rule="nonzero" fill-opacity="1" /><path clip-path="url(#clip890)" d="M1439.32 215.531 L1439.32 184.142 L1447.84 184.142 L1447.84 215.207 Q1447.84 222.568 1450.71 226.272 Q1453.58 229.929 1459.32 229.929 Q1466.22 229.929 1470.2 225.531 Q1474.23 221.133 1474.23 213.54 L1474.23 184.142 L1482.75 184.142 L1482.75 235.994 L1474.23 235.994 L1474.23 228.031 Q1471.13 232.753 1467 235.068 Q1462.93 237.337 1457.51 237.337 Q1448.58 237.337 1443.95 231.781 Q1439.32 226.226 1439.32 215.531 M1460.75 182.892 L1460.75 182.892 Z" fill="#000000" fill-rule="nonzero" fill-opacity="1" /><path clip-path="url(#clip890)" d="M1523.86 209.929 Q1513.53 209.929 1509.55 212.29 Q1505.57 214.651 1505.57 220.346 Q1505.57 224.883 1508.53 227.568 Q1511.54 230.207 1516.68 230.207 Q1523.76 230.207 1528.02 225.207 Q1532.33 220.161 1532.33 211.827 L1532.33 209.929 L1523.86 209.929 M1540.85 206.411 L1540.85 235.994 L1532.33 235.994 L1532.33 228.124 Q1529.41 232.846 1525.06 235.114 Q1520.71 237.337 1514.41 237.337 Q1506.45 237.337 1501.73 232.892 Q1497.05 228.401 1497.05 220.901 Q1497.05 212.152 1502.88 207.707 Q1508.76 203.263 1520.38 203.263 L1532.33 203.263 L1532.33 202.429 Q1532.33 196.55 1528.44 193.355 Q1524.6 190.115 1517.61 190.115 Q1513.16 190.115 1508.95 191.179 Q1504.74 192.244 1500.85 194.374 L1500.85 186.503 Q1505.52 184.698 1509.92 183.818 Q1514.32 182.892 1518.49 182.892 Q1529.74 182.892 1535.29 188.726 Q1540.85 194.559 1540.85 206.411 Z" fill="#000000" fill-rule="nonzero" fill-opacity="1" /><path clip-path="url(#clip890)" d="M1566.82 169.42 L1566.82 184.142 L1584.37 184.142 L1584.37 190.763 L1566.82 190.763 L1566.82 218.911 Q1566.82 225.253 1568.53 227.059 Q1570.29 228.864 1575.62 228.864 L1584.37 228.864 L1584.37 235.994 L1575.62 235.994 Q1565.75 235.994 1562 232.337 Q1558.25 228.633 1558.25 218.911 L1558.25 190.763 L1552 190.763 L1552 184.142 L1558.25 184.142 L1558.25 169.42 L1566.82 169.42 Z" fill="#000000" fill-rule="nonzero" fill-opacity="1" /><path clip-path="url(#clip890)" d="M1595.57 184.142 L1604.09 184.142 L1604.09 235.994 L1595.57 235.994 L1595.57 184.142 M1595.57 163.957 L1604.09 163.957 L1604.09 174.744 L1595.57 174.744 L1595.57 163.957 Z" fill="#000000" fill-rule="nonzero" fill-opacity="1" /><path clip-path="url(#clip890)" d="M1642 190.115 Q1635.15 190.115 1631.17 195.485 Q1627.19 200.809 1627.19 210.114 Q1627.19 219.42 1631.12 224.79 Q1635.11 230.114 1642 230.114 Q1648.81 230.114 1652.79 224.744 Q1656.77 219.374 1656.77 210.114 Q1656.77 200.902 1652.79 195.531 Q1648.81 190.115 1642 190.115 M1642 182.892 Q1653.11 182.892 1659.46 190.115 Q1665.8 197.337 1665.8 210.114 Q1665.8 222.846 1659.46 230.114 Q1653.11 237.337 1642 237.337 Q1630.85 237.337 1624.5 230.114 Q1618.21 222.846 1618.21 210.114 Q1618.21 197.337 1624.5 190.115 Q1630.85 182.892 1642 182.892 Z" fill="#000000" fill-rule="nonzero" fill-opacity="1" /><path clip-path="url(#clip890)" d="M1723.02 204.698 L1723.02 235.994 L1714.5 235.994 L1714.5 204.976 Q1714.5 197.615 1711.63 193.957 Q1708.76 190.3 1703.02 190.3 Q1696.12 190.3 1692.14 194.698 Q1688.16 199.096 1688.16 206.689 L1688.16 235.994 L1679.6 235.994 L1679.6 184.142 L1688.16 184.142 L1688.16 192.198 Q1691.22 187.522 1695.34 185.207 Q1699.5 182.892 1704.92 182.892 Q1713.86 182.892 1718.44 188.448 Q1723.02 193.957 1723.02 204.698 Z" fill="#000000" fill-rule="nonzero" fill-opacity="1" /><path clip-path="url(#clip890)" d="M1778.58 169.42 L1778.58 184.142 L1796.12 184.142 L1796.12 190.763 L1778.58 190.763 L1778.58 218.911 Q1778.58 225.253 1780.29 227.059 Q1782.05 228.864 1787.37 228.864 L1796.12 228.864 L1796.12 235.994 L1787.37 235.994 Q1777.51 235.994 1773.76 232.337 Q1770.01 228.633 1770.01 218.911 L1770.01 190.763 L1763.76 190.763 L1763.76 184.142 L1770.01 184.142 L1770.01 169.42 L1778.58 169.42 Z" fill="#000000" fill-rule="nonzero" fill-opacity="1" /><path clip-path="url(#clip890)" d="M1851.68 207.939 L1851.68 212.105 L1812.51 212.105 Q1813.07 220.901 1817.79 225.531 Q1822.56 230.114 1831.03 230.114 Q1835.94 230.114 1840.52 228.911 Q1845.15 227.707 1849.69 225.3 L1849.69 233.355 Q1845.1 235.3 1840.29 236.318 Q1835.48 237.337 1830.52 237.337 Q1818.11 237.337 1810.85 230.114 Q1803.62 222.892 1803.62 210.577 Q1803.62 197.846 1810.48 190.392 Q1817.37 182.892 1829.04 182.892 Q1839.5 182.892 1845.57 189.652 Q1851.68 196.365 1851.68 207.939 M1843.16 205.439 Q1843.07 198.448 1839.22 194.281 Q1835.43 190.115 1829.13 190.115 Q1822 190.115 1817.7 194.142 Q1813.44 198.17 1812.79 205.485 L1843.16 205.439 Z" fill="#000000" fill-rule="nonzero" fill-opacity="1" /><path clip-path="url(#clip890)" d="M1895.71 192.105 Q1894.27 191.272 1892.56 190.902 Q1890.89 190.485 1888.85 190.485 Q1881.63 190.485 1877.74 195.207 Q1873.9 199.883 1873.9 208.679 L1873.9 235.994 L1865.34 235.994 L1865.34 184.142 L1873.9 184.142 L1873.9 192.198 Q1876.59 187.476 1880.89 185.207 Q1885.2 182.892 1891.35 182.892 Q1892.23 182.892 1893.3 183.031 Q1894.36 183.124 1895.66 183.355 L1895.71 192.105 Z" fill="#000000" fill-rule="nonzero" fill-opacity="1" /><path clip-path="url(#clip890)" d="M1943.34 194.096 Q1946.54 188.355 1950.98 185.624 Q1955.43 182.892 1961.45 182.892 Q1969.55 182.892 1973.95 188.587 Q1978.34 194.235 1978.34 204.698 L1978.34 235.994 L1969.78 235.994 L1969.78 204.976 Q1969.78 197.522 1967.14 193.911 Q1964.5 190.3 1959.09 190.3 Q1952.47 190.3 1948.62 194.698 Q1944.78 199.096 1944.78 206.689 L1944.78 235.994 L1936.22 235.994 L1936.22 204.976 Q1936.22 197.476 1933.58 193.911 Q1930.94 190.3 1925.43 190.3 Q1918.9 190.3 1915.06 194.744 Q1911.22 199.142 1911.22 206.689 L1911.22 235.994 L1902.65 235.994 L1902.65 184.142 L1911.22 184.142 L1911.22 192.198 Q1914.13 187.429 1918.21 185.161 Q1922.28 182.892 1927.88 182.892 Q1933.53 182.892 1937.47 185.763 Q1941.45 188.633 1943.34 194.096 Z" fill="#000000" fill-rule="nonzero" fill-opacity="1" /><path clip-path="url(#clip890)" d="M2028.39 185.67 L2028.39 193.726 Q2024.78 191.874 2020.89 190.948 Q2017 190.022 2012.84 190.022 Q2006.49 190.022 2003.3 191.966 Q2000.15 193.911 2000.15 197.8 Q2000.15 200.763 2002.42 202.476 Q2004.69 204.142 2011.54 205.67 L2014.46 206.318 Q2023.53 208.263 2027.33 211.827 Q2031.17 215.346 2031.17 221.688 Q2031.17 228.911 2025.43 233.124 Q2019.73 237.337 2009.73 237.337 Q2005.57 237.337 2001.03 236.503 Q1996.54 235.716 1991.54 234.096 L1991.54 225.3 Q1996.26 227.753 2000.84 229.003 Q2005.43 230.207 2009.92 230.207 Q2015.94 230.207 2019.18 228.17 Q2022.42 226.087 2022.42 222.337 Q2022.42 218.864 2020.06 217.013 Q2017.74 215.161 2009.83 213.448 L2006.86 212.753 Q1998.95 211.087 1995.43 207.661 Q1991.91 204.189 1991.91 198.17 Q1991.91 190.855 1997.09 186.874 Q2002.28 182.892 2011.82 182.892 Q2016.54 182.892 2020.71 183.587 Q2024.87 184.281 2028.39 185.67 Z" fill="#000000" fill-rule="nonzero" fill-opacity="1" /><polyline clip-path="url(#clip890)" style="stroke:#ff0000; stroke-linecap:round; stroke-linejoin:round; stroke-width:8; stroke-opacity:1; fill:none" points="1159.38,305.114 1297.46,305.114 "/>
<circle clip-path="url(#clip890)" cx="1228.42" cy="305.114" r="9.58924" fill="#ff0000" fill-rule="evenodd" fill-opacity="1" stroke="#000000" stroke-opacity="1" stroke-width="8.37818"/>
<path clip-path="url(#clip890)" d="M1320.48 270.554 L1329.83 270.554 L1329.83 339.674 L1320.48 339.674 L1320.48 270.554 Z" fill="#000000" fill-rule="nonzero" fill-opacity="1" /><path clip-path="url(#clip890)" d="M1391.17 308.378 L1391.17 339.674 L1382.65 339.674 L1382.65 308.656 Q1382.65 301.295 1379.78 297.637 Q1376.91 293.98 1371.17 293.98 Q1364.27 293.98 1360.29 298.378 Q1356.31 302.776 1356.31 310.369 L1356.31 339.674 L1347.75 339.674 L1347.75 287.822 L1356.31 287.822 L1356.31 295.878 Q1359.37 291.202 1363.49 288.887 Q1367.65 286.572 1373.07 286.572 Q1382.01 286.572 1386.59 292.128 Q1391.17 297.637 1391.17 308.378 Z" fill="#000000" fill-rule="nonzero" fill-opacity="1" /><path clip-path="url(#clip890)" d="M1416.59 273.1 L1416.59 287.822 L1434.13 287.822 L1434.13 294.443 L1416.59 294.443 L1416.59 322.591 Q1416.59 328.933 1418.3 330.739 Q1420.06 332.544 1425.38 332.544 L1434.13 332.544 L1434.13 339.674 L1425.38 339.674 Q1415.52 339.674 1411.77 336.017 Q1408.02 332.313 1408.02 322.591 L1408.02 294.443 L1401.77 294.443 L1401.77 287.822 L1408.02 287.822 L1408.02 273.1 L1416.59 273.1 Z" fill="#000000" fill-rule="nonzero" fill-opacity="1" /><path clip-path="url(#clip890)" d="M1489.69 311.619 L1489.69 315.785 L1450.52 315.785 Q1451.08 324.581 1455.8 329.211 Q1460.57 333.794 1469.04 333.794 Q1473.95 333.794 1478.53 332.591 Q1483.16 331.387 1487.7 328.98 L1487.7 337.035 Q1483.12 338.98 1478.3 339.998 Q1473.49 341.017 1468.53 341.017 Q1456.13 341.017 1448.86 333.794 Q1441.63 326.572 1441.63 314.257 Q1441.63 301.526 1448.49 294.072 Q1455.38 286.572 1467.05 286.572 Q1477.51 286.572 1483.58 293.332 Q1489.69 300.045 1489.69 311.619 M1481.17 309.119 Q1481.08 302.128 1477.24 297.961 Q1473.44 293.795 1467.14 293.795 Q1460.01 293.795 1455.71 297.822 Q1451.45 301.85 1450.8 309.165 L1481.17 309.119 Z" fill="#000000" fill-rule="nonzero" fill-opacity="1" /><path clip-path="url(#clip890)" d="M1537.79 313.146 Q1537.79 303.887 1533.95 298.795 Q1530.15 293.702 1523.25 293.702 Q1516.4 293.702 1512.56 298.795 Q1508.76 303.887 1508.76 313.146 Q1508.76 322.359 1512.56 327.452 Q1516.4 332.544 1523.25 332.544 Q1530.15 332.544 1533.95 327.452 Q1537.79 322.359 1537.79 313.146 M1546.31 333.239 Q1546.31 346.479 1540.43 352.915 Q1534.55 359.396 1522.42 359.396 Q1517.93 359.396 1513.95 358.702 Q1509.97 358.054 1506.22 356.665 L1506.22 348.378 Q1509.97 350.415 1513.62 351.387 Q1517.28 352.359 1521.08 352.359 Q1529.46 352.359 1533.62 347.961 Q1537.79 343.609 1537.79 334.767 L1537.79 330.554 Q1535.15 335.137 1531.03 337.405 Q1526.91 339.674 1521.17 339.674 Q1511.63 339.674 1505.8 332.405 Q1499.97 325.137 1499.97 313.146 Q1499.97 301.109 1505.8 293.841 Q1511.63 286.572 1521.17 286.572 Q1526.91 286.572 1531.03 288.841 Q1535.15 291.109 1537.79 295.693 L1537.79 287.822 L1546.31 287.822 L1546.31 333.239 Z" fill="#000000" fill-rule="nonzero" fill-opacity="1" /><path clip-path="url(#clip890)" d="M1593.9 295.785 Q1592.47 294.952 1590.75 294.582 Q1589.09 294.165 1587.05 294.165 Q1579.83 294.165 1575.94 298.887 Q1572.1 303.563 1572.1 312.359 L1572.1 339.674 L1563.53 339.674 L1563.53 287.822 L1572.1 287.822 L1572.1 295.878 Q1574.78 291.156 1579.09 288.887 Q1583.39 286.572 1589.55 286.572 Q1590.43 286.572 1591.49 286.711 Q1592.56 286.804 1593.86 287.035 L1593.9 295.785 Z" fill="#000000" fill-rule="nonzero" fill-opacity="1" /><path clip-path="url(#clip890)" d="M1626.4 313.609 Q1616.08 313.609 1612.1 315.97 Q1608.12 318.331 1608.12 324.026 Q1608.12 328.563 1611.08 331.248 Q1614.09 333.887 1619.23 333.887 Q1626.31 333.887 1630.57 328.887 Q1634.87 323.841 1634.87 315.507 L1634.87 313.609 L1626.4 313.609 M1643.39 310.091 L1643.39 339.674 L1634.87 339.674 L1634.87 331.804 Q1631.96 336.526 1627.61 338.794 Q1623.25 341.017 1616.96 341.017 Q1608.99 341.017 1604.27 336.572 Q1599.6 332.081 1599.6 324.581 Q1599.6 315.832 1605.43 311.387 Q1611.31 306.943 1622.93 306.943 L1634.87 306.943 L1634.87 306.109 Q1634.87 300.23 1630.99 297.035 Q1627.14 293.795 1620.15 293.795 Q1615.71 293.795 1611.49 294.859 Q1607.28 295.924 1603.39 298.054 L1603.39 290.183 Q1608.07 288.378 1612.47 287.498 Q1616.87 286.572 1621.03 286.572 Q1632.28 286.572 1637.84 292.406 Q1643.39 298.239 1643.39 310.091 Z" fill="#000000" fill-rule="nonzero" fill-opacity="1" /><path clip-path="url(#clip890)" d="M1669.36 273.1 L1669.36 287.822 L1686.91 287.822 L1686.91 294.443 L1669.36 294.443 L1669.36 322.591 Q1669.36 328.933 1671.08 330.739 Q1672.84 332.544 1678.16 332.544 L1686.91 332.544 L1686.91 339.674 L1678.16 339.674 Q1668.3 339.674 1664.55 336.017 Q1660.8 332.313 1660.8 322.591 L1660.8 294.443 L1654.55 294.443 L1654.55 287.822 L1660.8 287.822 L1660.8 273.1 L1669.36 273.1 Z" fill="#000000" fill-rule="nonzero" fill-opacity="1" /><path clip-path="url(#clip890)" d="M1698.11 287.822 L1706.63 287.822 L1706.63 339.674 L1698.11 339.674 L1698.11 287.822 M1698.11 267.637 L1706.63 267.637 L1706.63 278.424 L1698.11 278.424 L1698.11 267.637 Z" fill="#000000" fill-rule="nonzero" fill-opacity="1" /><path clip-path="url(#clip890)" d="M1744.55 293.795 Q1737.7 293.795 1733.72 299.165 Q1729.73 304.489 1729.73 313.794 Q1729.73 323.1 1733.67 328.47 Q1737.65 333.794 1744.55 333.794 Q1751.36 333.794 1755.34 328.424 Q1759.32 323.054 1759.32 313.794 Q1759.32 304.582 1755.34 299.211 Q1751.36 293.795 1744.55 293.795 M1744.55 286.572 Q1755.66 286.572 1762 293.795 Q1768.35 301.017 1768.35 313.794 Q1768.35 326.526 1762 333.794 Q1755.66 341.017 1744.55 341.017 Q1733.39 341.017 1727.05 333.794 Q1720.75 326.526 1720.75 313.794 Q1720.75 301.017 1727.05 293.795 Q1733.39 286.572 1744.55 286.572 Z" fill="#000000" fill-rule="nonzero" fill-opacity="1" /><path clip-path="url(#clip890)" d="M1825.57 308.378 L1825.57 339.674 L1817.05 339.674 L1817.05 308.656 Q1817.05 301.295 1814.18 297.637 Q1811.31 293.98 1805.57 293.98 Q1798.67 293.98 1794.69 298.378 Q1790.71 302.776 1790.71 310.369 L1790.71 339.674 L1782.14 339.674 L1782.14 287.822 L1790.71 287.822 L1790.71 295.878 Q1793.76 291.202 1797.88 288.887 Q1802.05 286.572 1807.47 286.572 Q1816.4 286.572 1820.98 292.128 Q1825.57 297.637 1825.57 308.378 Z" fill="#000000" fill-rule="nonzero" fill-opacity="1" /><path clip-path="url(#clip890)" d="M1881.12 273.1 L1881.12 287.822 L1898.67 287.822 L1898.67 294.443 L1881.12 294.443 L1881.12 322.591 Q1881.12 328.933 1882.84 330.739 Q1884.6 332.544 1889.92 332.544 L1898.67 332.544 L1898.67 339.674 L1889.92 339.674 Q1880.06 339.674 1876.31 336.017 Q1872.56 332.313 1872.56 322.591 L1872.56 294.443 L1866.31 294.443 L1866.31 287.822 L1872.56 287.822 L1872.56 273.1 L1881.12 273.1 Z" fill="#000000" fill-rule="nonzero" fill-opacity="1" /><path clip-path="url(#clip890)" d="M1909.87 287.822 L1918.39 287.822 L1918.39 339.674 L1909.87 339.674 L1909.87 287.822 M1909.87 267.637 L1918.39 267.637 L1918.39 278.424 L1909.87 278.424 L1909.87 267.637 Z" fill="#000000" fill-rule="nonzero" fill-opacity="1" /><path clip-path="url(#clip890)" d="M1976.59 297.776 Q1979.78 292.035 1984.22 289.304 Q1988.67 286.572 1994.69 286.572 Q2002.79 286.572 2007.19 292.267 Q2011.59 297.915 2011.59 308.378 L2011.59 339.674 L2003.02 339.674 L2003.02 308.656 Q2003.02 301.202 2000.38 297.591 Q1997.74 293.98 1992.33 293.98 Q1985.71 293.98 1981.86 298.378 Q1978.02 302.776 1978.02 310.369 L1978.02 339.674 L1969.46 339.674 L1969.46 308.656 Q1969.46 301.156 1966.82 297.591 Q1964.18 293.98 1958.67 293.98 Q1952.14 293.98 1948.3 298.424 Q1944.46 302.822 1944.46 310.369 L1944.46 339.674 L1935.89 339.674 L1935.89 287.822 L1944.46 287.822 L1944.46 295.878 Q1947.37 291.109 1951.45 288.841 Q1955.52 286.572 1961.12 286.572 Q1966.77 286.572 1970.71 289.443 Q1974.69 292.313 1976.59 297.776 Z" fill="#000000" fill-rule="nonzero" fill-opacity="1" /><path clip-path="url(#clip890)" d="M2072.93 311.619 L2072.93 315.785 L2033.76 315.785 Q2034.32 324.581 2039.04 329.211 Q2043.81 333.794 2052.28 333.794 Q2057.19 333.794 2061.77 332.591 Q2066.4 331.387 2070.94 328.98 L2070.94 337.035 Q2066.35 338.98 2061.54 339.998 Q2056.72 341.017 2051.77 341.017 Q2039.36 341.017 2032.09 333.794 Q2024.87 326.572 2024.87 314.257 Q2024.87 301.526 2031.72 294.072 Q2038.62 286.572 2050.29 286.572 Q2060.75 286.572 2066.82 293.332 Q2072.93 300.045 2072.93 311.619 M2064.41 309.119 Q2064.32 302.128 2060.47 297.961 Q2056.68 293.795 2050.38 293.795 Q2043.25 293.795 2038.95 297.822 Q2034.69 301.85 2034.04 309.165 L2064.41 309.119 Z" fill="#000000" fill-rule="nonzero" fill-opacity="1" /><path clip-path="url(#clip890)" d="M2119.96 289.35 L2119.96 297.406 Q2116.35 295.554 2112.46 294.628 Q2108.58 293.702 2104.41 293.702 Q2098.07 293.702 2094.87 295.646 Q2091.72 297.591 2091.72 301.48 Q2091.72 304.443 2093.99 306.156 Q2096.26 307.822 2103.11 309.35 L2106.03 309.998 Q2115.1 311.943 2118.9 315.507 Q2122.74 319.026 2122.74 325.368 Q2122.74 332.591 2117 336.804 Q2111.31 341.017 2101.31 341.017 Q2097.14 341.017 2092.6 340.183 Q2088.11 339.396 2083.11 337.776 L2083.11 328.98 Q2087.83 331.433 2092.42 332.683 Q2097 333.887 2101.49 333.887 Q2107.51 333.887 2110.75 331.85 Q2113.99 329.767 2113.99 326.017 Q2113.99 322.544 2111.63 320.693 Q2109.32 318.841 2101.4 317.128 L2098.44 316.433 Q2090.52 314.767 2087 311.341 Q2083.48 307.869 2083.48 301.85 Q2083.48 294.535 2088.67 290.554 Q2093.85 286.572 2103.39 286.572 Q2108.11 286.572 2112.28 287.267 Q2116.45 287.961 2119.96 289.35 Z" fill="#000000" fill-rule="nonzero" fill-opacity="1" /><path clip-path="url(#clip890)" d="M2144.73 273.1 L2144.73 287.822 L2162.28 287.822 L2162.28 294.443 L2144.73 294.443 L2144.73 322.591 Q2144.73 328.933 2146.45 330.739 Q2148.2 332.544 2153.53 332.544 L2162.28 332.544 L2162.28 339.674 L2153.53 339.674 Q2143.67 339.674 2139.92 336.017 Q2136.17 332.313 2136.17 322.591 L2136.17 294.443 L2129.92 294.443 L2129.92 287.822 L2136.17 287.822 L2136.17 273.1 L2144.73 273.1 Z" fill="#000000" fill-rule="nonzero" fill-opacity="1" /><path clip-path="url(#clip890)" d="M2217.83 311.619 L2217.83 315.785 L2178.67 315.785 Q2179.22 324.581 2183.95 329.211 Q2188.71 333.794 2197.19 333.794 Q2202.09 333.794 2206.68 332.591 Q2211.31 331.387 2215.84 328.98 L2215.84 337.035 Q2211.26 338.98 2206.45 339.998 Q2201.63 341.017 2196.68 341.017 Q2184.27 341.017 2177 333.794 Q2169.78 326.572 2169.78 314.257 Q2169.78 301.526 2176.63 294.072 Q2183.53 286.572 2195.2 286.572 Q2205.66 286.572 2211.72 293.332 Q2217.83 300.045 2217.83 311.619 M2209.32 309.119 Q2209.22 302.128 2205.38 297.961 Q2201.58 293.795 2195.29 293.795 Q2188.16 293.795 2183.85 297.822 Q2179.59 301.85 2178.95 309.165 L2209.32 309.119 Z" fill="#000000" fill-rule="nonzero" fill-opacity="1" /><path clip-path="url(#clip890)" d="M2240.06 331.896 L2240.06 359.396 L2231.49 359.396 L2231.49 287.822 L2240.06 287.822 L2240.06 295.693 Q2242.74 291.063 2246.82 288.841 Q2250.94 286.572 2256.63 286.572 Q2266.07 286.572 2271.95 294.072 Q2277.88 301.572 2277.88 313.794 Q2277.88 326.017 2271.95 333.517 Q2266.07 341.017 2256.63 341.017 Q2250.94 341.017 2246.82 338.794 Q2242.74 336.526 2240.06 331.896 M2269.04 313.794 Q2269.04 304.396 2265.15 299.072 Q2261.31 293.702 2254.55 293.702 Q2247.79 293.702 2243.9 299.072 Q2240.06 304.396 2240.06 313.794 Q2240.06 323.193 2243.9 328.563 Q2247.79 333.887 2254.55 333.887 Q2261.31 333.887 2265.15 328.563 Q2269.04 323.193 2269.04 313.794 Z" fill="#000000" fill-rule="nonzero" fill-opacity="1" /><path clip-path="url(#clip890)" d="M2325.06 289.35 L2325.06 297.406 Q2321.44 295.554 2317.56 294.628 Q2313.67 293.702 2309.5 293.702 Q2303.16 293.702 2299.96 295.646 Q2296.82 297.591 2296.82 301.48 Q2296.82 304.443 2299.08 306.156 Q2301.35 307.822 2308.2 309.35 L2311.12 309.998 Q2320.19 311.943 2323.99 315.507 Q2327.83 319.026 2327.83 325.368 Q2327.83 332.591 2322.09 336.804 Q2316.4 341.017 2306.4 341.017 Q2302.23 341.017 2297.69 340.183 Q2293.2 339.396 2288.2 337.776 L2288.2 328.98 Q2292.93 331.433 2297.51 332.683 Q2302.09 333.887 2306.58 333.887 Q2312.6 333.887 2315.84 331.85 Q2319.08 329.767 2319.08 326.017 Q2319.08 322.544 2316.72 320.693 Q2314.41 318.841 2306.49 317.128 L2303.53 316.433 Q2295.61 314.767 2292.09 311.341 Q2288.57 307.869 2288.57 301.85 Q2288.57 294.535 2293.76 290.554 Q2298.94 286.572 2308.48 286.572 Q2313.2 286.572 2317.37 287.267 Q2321.54 287.961 2325.06 289.35 Z" fill="#000000" fill-rule="nonzero" fill-opacity="1" /></svg>
