<?xml version="1.0" encoding="utf-8"?>
<svg xmlns="http://www.w3.org/2000/svg" xmlns:xlink="http://www.w3.org/1999/xlink" width="1200" height="300" viewBox="0 0 4800 1200">
<defs>
  <clipPath id="clip890">
    <rect x="0" y="0" width="4800" height="1200"/>
  </clipPath>
</defs>
<path clip-path="url(#clip890)" d="M0 1200 L4800 1200 L4800 0 L0 0  Z" fill="#ffffff" fill-rule="evenodd" fill-opacity="1"/>
<defs>
  <clipPath id="clip891">
    <rect x="960" y="0" width="3361" height="1200"/>
  </clipPath>
</defs>
<path clip-path="url(#clip890)" d="M478.728 880.951 L4752.76 880.951 L4752.76 47.2441 L478.728 47.2441  Z" fill="#ffffff" fill-rule="evenodd" fill-opacity="1"/>
<defs>
  <clipPath id="clip892">
    <rect x="478" y="47" width="4275" height="835"/>
  </clipPath>
</defs>
<polyline clip-path="url(#clip892)" style="stroke:#000000; stroke-linecap:round; stroke-linejoin:round; stroke-width:2; stroke-opacity:0.1; fill:none" points="1031.03,880.951 1031.03,47.2441 "/>
<polyline clip-path="url(#clip892)" style="stroke:#000000; stroke-linecap:round; stroke-linejoin:round; stroke-width:2; stroke-opacity:0.1; fill:none" points="1931.22,880.951 1931.22,47.2441 "/>
<polyline clip-path="url(#clip892)" style="stroke:#000000; stroke-linecap:round; stroke-linejoin:round; stroke-width:2; stroke-opacity:0.1; fill:none" points="2831.41,880.951 2831.41,47.2441 "/>
<polyline clip-path="url(#clip892)" style="stroke:#000000; stroke-linecap:round; stroke-linejoin:round; stroke-width:2; stroke-opacity:0.1; fill:none" points="3731.6,880.951 3731.6,47.2441 "/>
<polyline clip-path="url(#clip892)" style="stroke:#000000; stroke-linecap:round; stroke-linejoin:round; stroke-width:2; stroke-opacity:0.1; fill:none" points="4631.79,880.951 4631.79,47.2441 "/>
<polyline clip-path="url(#clip890)" style="stroke:#000000; stroke-linecap:round; stroke-linejoin:round; stroke-width:4; stroke-opacity:1; fill:none" points="478.728,880.951 4752.76,880.951 "/>
<polyline clip-path="url(#clip890)" style="stroke:#000000; stroke-linecap:round; stroke-linejoin:round; stroke-width:4; stroke-opacity:1; fill:none" points="1031.03,880.951 1031.03,862.054 "/>
<polyline clip-path="url(#clip890)" style="stroke:#000000; stroke-linecap:round; stroke-linejoin:round; stroke-width:4; stroke-opacity:1; fill:none" points="1931.22,880.951 1931.22,862.054 "/>
<polyline clip-path="url(#clip890)" style="stroke:#000000; stroke-linecap:round; stroke-linejoin:round; stroke-width:4; stroke-opacity:1; fill:none" points="2831.41,880.951 2831.41,862.054 "/>
<polyline clip-path="url(#clip890)" style="stroke:#000000; stroke-linecap:round; stroke-linejoin:round; stroke-width:4; stroke-opacity:1; fill:none" points="3731.6,880.951 3731.6,862.054 "/>
<polyline clip-path="url(#clip890)" style="stroke:#000000; stroke-linecap:round; stroke-linejoin:round; stroke-width:4; stroke-opacity:1; fill:none" points="4631.79,880.951 4631.79,862.054 "/>
<path clip-path="url(#clip890)" d="M1020.34 997.881 L1052.98 997.881 L1052.98 1005.75 L1009.09 1005.75 L1009.09 997.881 Q1014.41 992.372 1023.58 983.113 Q1032.79 973.807 1035.15 971.122 Q1039.64 966.076 1041.4 962.604 Q1043.21 959.085 1043.21 955.705 Q1043.21 950.196 1039.32 946.724 Q1035.48 943.252 1029.27 943.252 Q1024.87 943.252 1019.97 944.78 Q1015.11 946.307 1009.55 949.409 L1009.55 939.965 Q1015.2 937.696 1020.11 936.539 Q1025.01 935.382 1029.09 935.382 Q1039.83 935.382 1046.22 940.752 Q1052.61 946.122 1052.61 955.104 Q1052.61 959.363 1050.99 963.205 Q1049.41 967.002 1045.2 972.187 Q1044.04 973.529 1037.84 979.965 Q1031.63 986.353 1020.34 997.881 Z" fill="#000000" fill-rule="nonzero" fill-opacity="1" /><path clip-path="url(#clip890)" d="M1937.24 944.78 L1913.63 981.678 L1937.24 981.678 L1937.24 944.78 M1934.79 936.631 L1946.55 936.631 L1946.55 981.678 L1956.41 981.678 L1956.41 989.455 L1946.55 989.455 L1946.55 1005.75 L1937.24 1005.75 L1937.24 989.455 L1906.04 989.455 L1906.04 980.428 L1934.79 936.631 Z" fill="#000000" fill-rule="nonzero" fill-opacity="1" /><path clip-path="url(#clip890)" d="M2832.22 967.465 Q2825.93 967.465 2822.22 971.77 Q2818.57 976.076 2818.57 983.576 Q2818.57 991.029 2822.22 995.381 Q2825.93 999.687 2832.22 999.687 Q2838.52 999.687 2842.18 995.381 Q2845.88 991.029 2845.88 983.576 Q2845.88 976.076 2842.18 971.77 Q2838.52 967.465 2832.22 967.465 M2850.79 938.159 L2850.79 946.678 Q2847.27 945.011 2843.66 944.131 Q2840.09 943.252 2836.57 943.252 Q2827.32 943.252 2822.41 949.502 Q2817.55 955.752 2816.85 968.391 Q2819.58 964.363 2823.7 962.233 Q2827.82 960.057 2832.78 960.057 Q2843.19 960.057 2849.21 966.4 Q2855.28 972.696 2855.28 983.576 Q2855.28 994.224 2848.98 1000.66 Q2842.69 1007.09 2832.22 1007.09 Q2820.23 1007.09 2813.89 997.927 Q2807.55 988.715 2807.55 971.261 Q2807.55 954.872 2815.32 945.15 Q2823.1 935.382 2836.2 935.382 Q2839.72 935.382 2843.29 936.076 Q2846.9 936.77 2850.79 938.159 Z" fill="#000000" fill-rule="nonzero" fill-opacity="1" /><path clip-path="url(#clip890)" d="M3731.6 972.928 Q3724.94 972.928 3721.09 976.492 Q3717.3 980.057 3717.3 986.307 Q3717.3 992.557 3721.09 996.122 Q3724.94 999.687 3731.6 999.687 Q3738.27 999.687 3742.11 996.122 Q3745.95 992.511 3745.95 986.307 Q3745.95 980.057 3742.11 976.492 Q3738.32 972.928 3731.6 972.928 M3722.25 968.946 Q3716.23 967.465 3712.85 963.344 Q3709.52 959.224 3709.52 953.298 Q3709.52 945.011 3715.4 940.196 Q3721.32 935.382 3731.6 935.382 Q3741.93 935.382 3747.81 940.196 Q3753.69 945.011 3753.69 953.298 Q3753.69 959.224 3750.31 963.344 Q3746.97 967.465 3741 968.946 Q3747.76 970.52 3751.51 975.104 Q3755.31 979.687 3755.31 986.307 Q3755.31 996.353 3749.15 1001.72 Q3743.04 1007.09 3731.6 1007.09 Q3720.17 1007.09 3714.01 1001.72 Q3707.9 996.353 3707.9 986.307 Q3707.9 979.687 3711.7 975.104 Q3715.49 970.52 3722.25 968.946 M3718.82 954.178 Q3718.82 959.548 3722.16 962.557 Q3725.54 965.567 3731.6 965.567 Q3737.62 965.567 3741 962.557 Q3744.43 959.548 3744.43 954.178 Q3744.43 948.807 3741 945.798 Q3737.62 942.789 3731.6 942.789 Q3725.54 942.789 3722.16 945.798 Q3718.82 948.807 3718.82 954.178 Z" fill="#000000" fill-rule="nonzero" fill-opacity="1" /><path clip-path="url(#clip890)" d="M4581.17 997.881 L4596.45 997.881 L4596.45 945.15 L4579.83 948.483 L4579.83 939.965 L4596.35 936.631 L4605.71 936.631 L4605.71 997.881 L4620.98 997.881 L4620.98 1005.75 L4581.17 1005.75 L4581.17 997.881 Z" fill="#000000" fill-rule="nonzero" fill-opacity="1" /><path clip-path="url(#clip890)" d="M4659.87 942.789 Q4652.65 942.789 4648.99 949.918 Q4645.38 957.002 4645.38 971.261 Q4645.38 985.474 4648.99 992.603 Q4652.65 999.687 4659.87 999.687 Q4667.14 999.687 4670.75 992.603 Q4674.41 985.474 4674.41 971.261 Q4674.41 957.002 4670.75 949.918 Q4667.14 942.789 4659.87 942.789 M4659.87 935.382 Q4671.49 935.382 4677.6 944.594 Q4683.76 953.761 4683.76 971.261 Q4683.76 988.715 4677.6 997.927 Q4671.49 1007.09 4659.87 1007.09 Q4648.25 1007.09 4642.09 997.927 Q4635.98 988.715 4635.98 971.261 Q4635.98 953.761 4642.09 944.594 Q4648.25 935.382 4659.87 935.382 Z" fill="#000000" fill-rule="nonzero" fill-opacity="1" /><path clip-path="url(#clip890)" d="M2332.98 1072.18 L2398.76 1072.18 L2398.76 1081.04 L2371.16 1081.04 L2371.16 1149.94 L2360.59 1149.94 L2360.59 1081.04 L2332.98 1081.04 L2332.98 1072.18 Z" fill="#000000" fill-rule="nonzero" fill-opacity="1" /><path clip-path="url(#clip890)" d="M2405.22 1091.61 L2414.81 1091.61 L2414.81 1149.94 L2405.22 1149.94 L2405.22 1091.61 M2405.22 1068.9 L2414.81 1068.9 L2414.81 1081.04 L2405.22 1081.04 L2405.22 1068.9 Z" fill="#000000" fill-rule="nonzero" fill-opacity="1" /><path clip-path="url(#clip890)" d="M2480.27 1102.81 Q2483.87 1096.35 2488.87 1093.28 Q2493.87 1090.2 2500.64 1090.2 Q2509.75 1090.2 2514.7 1096.61 Q2519.65 1102.96 2519.65 1114.74 L2519.65 1149.94 L2510.01 1149.94 L2510.01 1115.05 Q2510.01 1106.66 2507.04 1102.6 Q2504.08 1098.54 2497.98 1098.54 Q2490.53 1098.54 2486.21 1103.49 Q2481.89 1108.43 2481.89 1116.97 L2481.89 1149.94 L2472.25 1149.94 L2472.25 1115.05 Q2472.25 1106.61 2469.28 1102.6 Q2466.32 1098.54 2460.12 1098.54 Q2452.77 1098.54 2448.45 1103.54 Q2444.13 1108.49 2444.13 1116.97 L2444.13 1149.94 L2434.49 1149.94 L2434.49 1091.61 L2444.13 1091.61 L2444.13 1100.67 Q2447.41 1095.31 2451.99 1092.76 Q2456.58 1090.2 2462.88 1090.2 Q2469.23 1090.2 2473.66 1093.43 Q2478.14 1096.66 2480.27 1102.81 Z" fill="#000000" fill-rule="nonzero" fill-opacity="1" /><path clip-path="url(#clip890)" d="M2588.66 1118.38 L2588.66 1123.07 L2544.6 1123.07 Q2545.22 1132.96 2550.53 1138.17 Q2555.9 1143.33 2565.43 1143.33 Q2570.95 1143.33 2576.11 1141.97 Q2581.31 1140.62 2586.42 1137.91 L2586.42 1146.97 Q2581.26 1149.16 2575.85 1150.31 Q2570.43 1151.45 2564.86 1151.45 Q2550.9 1151.45 2542.72 1143.33 Q2534.6 1135.2 2534.6 1121.35 Q2534.6 1107.03 2542.3 1098.64 Q2550.07 1090.2 2563.19 1090.2 Q2574.96 1090.2 2581.78 1097.81 Q2588.66 1105.36 2588.66 1118.38 M2579.08 1115.57 Q2578.97 1107.7 2574.65 1103.02 Q2570.38 1098.33 2563.29 1098.33 Q2555.27 1098.33 2550.43 1102.86 Q2545.64 1107.39 2544.91 1115.62 L2579.08 1115.57 Z" fill="#000000" fill-rule="nonzero" fill-opacity="1" /><path clip-path="url(#clip890)" d="M2661.31 1069.01 Q2654.34 1080.99 2650.95 1092.7 Q2647.56 1104.42 2647.56 1116.45 Q2647.56 1128.49 2650.95 1140.31 Q2654.39 1152.08 2661.31 1164.01 L2652.98 1164.01 Q2645.17 1151.77 2641.26 1139.94 Q2637.41 1128.12 2637.41 1116.45 Q2637.41 1104.84 2641.26 1093.07 Q2645.12 1081.3 2652.98 1069.01 L2661.31 1069.01 Z" fill="#000000" fill-rule="nonzero" fill-opacity="1" /><path clip-path="url(#clip890)" d="M2718.29 1100.46 L2718.29 1068.9 L2727.88 1068.9 L2727.88 1149.94 L2718.29 1149.94 L2718.29 1141.19 Q2715.27 1146.4 2710.64 1148.95 Q2706.05 1151.45 2699.6 1151.45 Q2689.02 1151.45 2682.36 1143.02 Q2675.74 1134.58 2675.74 1120.83 Q2675.74 1107.08 2682.36 1098.64 Q2689.02 1090.2 2699.6 1090.2 Q2706.05 1090.2 2710.64 1092.76 Q2715.27 1095.26 2718.29 1100.46 M2685.64 1120.83 Q2685.64 1131.4 2689.96 1137.44 Q2694.34 1143.43 2701.94 1143.43 Q2709.54 1143.43 2713.92 1137.44 Q2718.29 1131.4 2718.29 1120.83 Q2718.29 1110.26 2713.92 1104.27 Q2709.54 1098.23 2701.94 1098.23 Q2694.34 1098.23 2689.96 1104.27 Q2685.64 1110.26 2685.64 1120.83 Z" fill="#000000" fill-rule="nonzero" fill-opacity="1" /><path clip-path="url(#clip890)" d="M2774.13 1120.62 Q2762.51 1120.62 2758.03 1123.28 Q2753.55 1125.93 2753.55 1132.34 Q2753.55 1137.44 2756.89 1140.46 Q2760.27 1143.43 2766.05 1143.43 Q2774.02 1143.43 2778.81 1137.81 Q2783.66 1132.13 2783.66 1122.76 L2783.66 1120.62 L2774.13 1120.62 M2793.24 1116.66 L2793.24 1149.94 L2783.66 1149.94 L2783.66 1141.09 Q2780.38 1146.4 2775.48 1148.95 Q2770.58 1151.45 2763.5 1151.45 Q2754.54 1151.45 2749.23 1146.45 Q2743.97 1141.4 2743.97 1132.96 Q2743.97 1123.12 2750.53 1118.12 Q2757.15 1113.12 2770.22 1113.12 L2783.66 1113.12 L2783.66 1112.18 Q2783.66 1105.57 2779.28 1101.98 Q2774.96 1098.33 2767.1 1098.33 Q2762.1 1098.33 2757.36 1099.53 Q2752.62 1100.73 2748.24 1103.12 L2748.24 1094.27 Q2753.5 1092.24 2758.45 1091.25 Q2763.4 1090.2 2768.08 1090.2 Q2780.74 1090.2 2786.99 1096.77 Q2793.24 1103.33 2793.24 1116.66 Z" fill="#000000" fill-rule="nonzero" fill-opacity="1" /><path clip-path="url(#clip890)" d="M2837.25 1155.36 Q2833.19 1165.78 2829.33 1168.95 Q2825.48 1172.13 2819.02 1172.13 L2811.37 1172.13 L2811.37 1164.11 L2816.99 1164.11 Q2820.95 1164.11 2823.14 1162.24 Q2825.32 1160.36 2827.98 1153.38 L2829.7 1149.01 L2806.11 1091.61 L2816.26 1091.61 L2834.49 1137.24 L2852.72 1091.61 L2862.88 1091.61 L2837.25 1155.36 Z" fill="#000000" fill-rule="nonzero" fill-opacity="1" /><path clip-path="url(#clip890)" d="M2874.59 1069.01 L2882.93 1069.01 Q2890.74 1081.3 2894.59 1093.07 Q2898.5 1104.84 2898.5 1116.45 Q2898.5 1128.12 2894.59 1139.94 Q2890.74 1151.77 2882.93 1164.01 L2874.59 1164.01 Q2881.52 1152.08 2884.91 1140.31 Q2888.34 1128.49 2888.34 1116.45 Q2888.34 1104.42 2884.91 1092.7 Q2881.52 1080.99 2874.59 1069.01 Z" fill="#000000" fill-rule="nonzero" fill-opacity="1" /><polyline clip-path="url(#clip892)" style="stroke:#000000; stroke-linecap:round; stroke-linejoin:round; stroke-width:2; stroke-opacity:0.1; fill:none" points="478.728,750.984 4752.76,750.984 "/>
<polyline clip-path="url(#clip892)" style="stroke:#000000; stroke-linecap:round; stroke-linejoin:round; stroke-width:2; stroke-opacity:0.1; fill:none" points="478.728,534.99 4752.76,534.99 "/>
<polyline clip-path="url(#clip892)" style="stroke:#000000; stroke-linecap:round; stroke-linejoin:round; stroke-width:2; stroke-opacity:0.1; fill:none" points="478.728,318.995 4752.76,318.995 "/>
<polyline clip-path="url(#clip892)" style="stroke:#000000; stroke-linecap:round; stroke-linejoin:round; stroke-width:2; stroke-opacity:0.1; fill:none" points="478.728,103.001 4752.76,103.001 "/>
<polyline clip-path="url(#clip890)" style="stroke:#000000; stroke-linecap:round; stroke-linejoin:round; stroke-width:4; stroke-opacity:1; fill:none" points="478.728,880.951 478.728,47.2441 "/>
<polyline clip-path="url(#clip890)" style="stroke:#000000; stroke-linecap:round; stroke-linejoin:round; stroke-width:4; stroke-opacity:1; fill:none" points="478.728,750.984 497.625,750.984 "/>
<polyline clip-path="url(#clip890)" style="stroke:#000000; stroke-linecap:round; stroke-linejoin:round; stroke-width:4; stroke-opacity:1; fill:none" points="478.728,534.99 497.625,534.99 "/>
<polyline clip-path="url(#clip890)" style="stroke:#000000; stroke-linecap:round; stroke-linejoin:round; stroke-width:4; stroke-opacity:1; fill:none" points="478.728,318.995 497.625,318.995 "/>
<polyline clip-path="url(#clip890)" style="stroke:#000000; stroke-linecap:round; stroke-linejoin:round; stroke-width:4; stroke-opacity:1; fill:none" points="478.728,103.001 497.625,103.001 "/>
<path clip-path="url(#clip890)" d="M194.136 751.887 L253.488 751.887 L253.488 759.757 L194.136 759.757 L194.136 751.887 Z" fill="#000000" fill-rule="nonzero" fill-opacity="1" /><path clip-path="url(#clip890)" d="M293.673 722.581 Q286.451 722.581 282.793 729.711 Q279.182 736.794 279.182 751.053 Q279.182 765.266 282.793 772.396 Q286.451 779.479 293.673 779.479 Q300.941 779.479 304.552 772.396 Q308.21 765.266 308.21 751.053 Q308.21 736.794 304.552 729.711 Q300.941 722.581 293.673 722.581 M293.673 715.174 Q305.293 715.174 311.404 724.387 Q317.562 733.553 317.562 751.053 Q317.562 768.507 311.404 777.72 Q305.293 786.887 293.673 786.887 Q282.053 786.887 275.895 777.72 Q269.784 768.507 269.784 751.053 Q269.784 733.553 275.895 724.387 Q282.053 715.174 293.673 715.174 Z" fill="#000000" fill-rule="nonzero" fill-opacity="1" /><path clip-path="url(#clip890)" d="M333.997 773.785 L343.765 773.785 L343.765 785.544 L333.997 785.544 L333.997 773.785 Z" fill="#000000" fill-rule="nonzero" fill-opacity="1" /><path clip-path="url(#clip890)" d="M392.469 748.276 Q399.182 749.711 402.932 754.248 Q406.728 758.785 406.728 765.451 Q406.728 775.683 399.691 781.285 Q392.654 786.887 379.691 786.887 Q375.339 786.887 370.71 786.007 Q366.126 785.174 361.219 783.461 L361.219 774.433 Q365.108 776.701 369.737 777.859 Q374.367 779.016 379.413 779.016 Q388.209 779.016 392.793 775.544 Q397.422 772.072 397.422 765.451 Q397.422 759.34 393.117 755.914 Q388.858 752.442 381.219 752.442 L373.163 752.442 L373.163 744.757 L381.589 744.757 Q388.487 744.757 392.145 742.026 Q395.802 739.248 395.802 734.063 Q395.802 728.739 392.006 725.915 Q388.256 723.044 381.219 723.044 Q377.376 723.044 372.978 723.878 Q368.58 724.711 363.302 726.47 L363.302 718.137 Q368.626 716.655 373.256 715.915 Q377.932 715.174 382.052 715.174 Q392.7 715.174 398.904 720.035 Q405.107 724.85 405.107 733.091 Q405.107 738.831 401.82 742.813 Q398.533 746.748 392.469 748.276 Z" fill="#000000" fill-rule="nonzero" fill-opacity="1" /><path clip-path="url(#clip890)" d="M196.035 535.892 L255.386 535.892 L255.386 543.763 L196.035 543.763 L196.035 535.892 Z" fill="#000000" fill-rule="nonzero" fill-opacity="1" /><path clip-path="url(#clip890)" d="M295.571 506.587 Q288.349 506.587 284.691 513.717 Q281.08 520.8 281.08 535.059 Q281.08 549.272 284.691 556.402 Q288.349 563.485 295.571 563.485 Q302.839 563.485 306.451 556.402 Q310.108 549.272 310.108 535.059 Q310.108 520.8 306.451 513.717 Q302.839 506.587 295.571 506.587 M295.571 499.18 Q307.191 499.18 313.302 508.393 Q319.46 517.559 319.46 535.059 Q319.46 552.513 313.302 561.726 Q307.191 570.892 295.571 570.892 Q283.951 570.892 277.793 561.726 Q271.682 552.513 271.682 535.059 Q271.682 517.559 277.793 508.393 Q283.951 499.18 295.571 499.18 Z" fill="#000000" fill-rule="nonzero" fill-opacity="1" /><path clip-path="url(#clip890)" d="M335.895 557.79 L345.663 557.79 L345.663 569.55 L335.895 569.55 L335.895 557.79 Z" fill="#000000" fill-rule="nonzero" fill-opacity="1" /><path clip-path="url(#clip890)" d="M374.089 561.679 L406.728 561.679 L406.728 569.55 L362.839 569.55 L362.839 561.679 Q368.163 556.17 377.33 546.911 Q386.543 537.605 388.904 534.92 Q393.395 529.874 395.154 526.402 Q396.959 522.883 396.959 519.504 Q396.959 513.994 393.07 510.522 Q389.228 507.05 383.024 507.05 Q378.626 507.05 373.719 508.578 Q368.858 510.105 363.302 513.207 L363.302 503.763 Q368.95 501.494 373.858 500.337 Q378.765 499.18 382.839 499.18 Q393.58 499.18 399.969 504.55 Q406.357 509.92 406.357 518.902 Q406.357 523.161 404.737 527.004 Q403.163 530.8 398.95 535.985 Q397.793 537.328 391.589 543.763 Q385.385 550.152 374.089 561.679 Z" fill="#000000" fill-rule="nonzero" fill-opacity="1" /><path clip-path="url(#clip890)" d="M195.294 319.898 L254.645 319.898 L254.645 327.768 L195.294 327.768 L195.294 319.898 Z" fill="#000000" fill-rule="nonzero" fill-opacity="1" /><path clip-path="url(#clip890)" d="M294.83 290.593 Q287.608 290.593 283.951 297.722 Q280.34 304.806 280.34 319.065 Q280.34 333.278 283.951 340.407 Q287.608 347.491 294.83 347.491 Q302.099 347.491 305.71 340.407 Q309.367 333.278 309.367 319.065 Q309.367 304.806 305.71 297.722 Q302.099 290.593 294.83 290.593 M294.83 283.185 Q306.451 283.185 312.562 292.398 Q318.719 301.565 318.719 319.065 Q318.719 336.518 312.562 345.731 Q306.451 354.898 294.83 354.898 Q283.21 354.898 277.053 345.731 Q270.942 336.518 270.942 319.065 Q270.942 301.565 277.053 292.398 Q283.21 283.185 294.83 283.185 Z" fill="#000000" fill-rule="nonzero" fill-opacity="1" /><path clip-path="url(#clip890)" d="M335.154 341.796 L344.923 341.796 L344.923 353.555 L335.154 353.555 L335.154 341.796 Z" fill="#000000" fill-rule="nonzero" fill-opacity="1" /><path clip-path="url(#clip890)" d="M366.913 345.685 L382.191 345.685 L382.191 292.954 L365.571 296.287 L365.571 287.769 L382.098 284.435 L391.45 284.435 L391.45 345.685 L406.728 345.685 L406.728 353.555 L366.913 353.555 L366.913 345.685 Z" fill="#000000" fill-rule="nonzero" fill-opacity="1" /><path clip-path="url(#clip890)" d="M292.377 74.5983 Q285.154 74.5983 281.497 81.7279 Q277.886 88.8112 277.886 103.07 Q277.886 117.283 281.497 124.413 Q285.154 131.496 292.377 131.496 Q299.645 131.496 303.256 124.413 Q306.914 117.283 306.914 103.07 Q306.914 88.8112 303.256 81.7279 Q299.645 74.5983 292.377 74.5983 M292.377 67.191 Q303.997 67.191 310.108 76.4039 Q316.265 85.5705 316.265 103.07 Q316.265 120.524 310.108 129.737 Q303.997 138.904 292.377 138.904 Q280.756 138.904 274.599 129.737 Q268.488 120.524 268.488 103.07 Q268.488 85.5705 274.599 76.4039 Q280.756 67.191 292.377 67.191 Z" fill="#000000" fill-rule="nonzero" fill-opacity="1" /><path clip-path="url(#clip890)" d="M332.7 125.802 L342.469 125.802 L342.469 137.561 L332.7 137.561 L332.7 125.802 Z" fill="#000000" fill-rule="nonzero" fill-opacity="1" /><path clip-path="url(#clip890)" d="M382.839 74.5983 Q375.617 74.5983 371.959 81.7279 Q368.348 88.8112 368.348 103.07 Q368.348 117.283 371.959 124.413 Q375.617 131.496 382.839 131.496 Q390.108 131.496 393.719 124.413 Q397.376 117.283 397.376 103.07 Q397.376 88.8112 393.719 81.7279 Q390.108 74.5983 382.839 74.5983 M382.839 67.191 Q394.459 67.191 400.57 76.4039 Q406.728 85.5705 406.728 103.07 Q406.728 120.524 400.57 129.737 Q394.459 138.904 382.839 138.904 Q371.219 138.904 365.061 129.737 Q358.95 120.524 358.95 103.07 Q358.95 85.5705 365.061 76.4039 Q371.219 67.191 382.839 67.191 Z" fill="#000000" fill-rule="nonzero" fill-opacity="1" /><path clip-path="url(#clip890)" d="M28.1838 674.618 Q28.1838 686.076 36.7254 692.847 Q45.267 699.565 60.0065 699.565 Q74.6939 699.565 83.2355 692.847 Q91.7772 686.076 91.7772 674.618 Q91.7772 663.159 83.2355 656.493 Q74.6939 649.774 60.0065 649.774 Q45.267 649.774 36.7254 656.493 Q28.1838 663.159 28.1838 674.618 M19.6421 674.618 Q19.6421 658.263 30.6317 648.472 Q41.5691 638.68 60.0065 638.68 Q78.3918 638.68 89.3813 648.472 Q100.319 658.263 100.319 674.618 Q100.319 691.024 89.3813 700.867 Q78.4439 710.659 60.0065 710.659 Q41.5691 710.659 30.6317 700.867 Q19.6421 691.024 19.6421 674.618 Z" fill="#000000" fill-rule="nonzero" fill-opacity="1" /><path clip-path="url(#clip890)" d="M56.8815 589.41 Q58.4961 581.858 63.6002 577.639 Q68.7044 573.368 76.2043 573.368 Q87.7147 573.368 94.0167 581.285 Q100.319 589.201 100.319 603.785 Q100.319 608.68 99.3292 613.889 Q98.3917 619.045 96.4646 624.566 L86.3084 624.566 Q88.8605 620.191 90.1626 614.982 Q91.4647 609.774 91.4647 604.097 Q91.4647 594.201 87.5584 589.045 Q83.6522 583.837 76.2043 583.837 Q69.3294 583.837 65.4752 588.68 Q61.569 593.472 61.569 602.066 L61.569 611.128 L52.9232 611.128 L52.9232 601.649 Q52.9232 593.889 49.8503 589.774 Q46.7253 585.66 40.892 585.66 Q34.9025 585.66 31.7254 589.93 Q28.4963 594.149 28.4963 602.066 Q28.4963 606.389 29.4337 611.337 Q30.3712 616.284 32.3504 622.222 L22.9755 622.222 Q21.3088 616.232 20.4755 611.024 Q19.6421 605.764 19.6421 601.128 Q19.6421 589.149 25.1109 582.17 Q30.5275 575.191 39.7983 575.191 Q46.2566 575.191 50.7357 578.889 Q55.1628 582.587 56.8815 589.41 Z" fill="#000000" fill-rule="nonzero" fill-opacity="1" /><path clip-path="url(#clip890)" d="M17.8713 497.848 Q29.8504 504.827 41.5691 508.212 Q53.2878 511.598 65.319 511.598 Q77.3502 511.598 89.173 508.212 Q100.944 504.775 112.871 497.848 L112.871 506.181 Q100.631 513.993 88.8084 517.9 Q76.9856 521.754 65.319 521.754 Q53.7045 521.754 41.9337 517.9 Q30.1629 514.045 17.8713 506.181 L17.8713 497.848 Z" fill="#000000" fill-rule="nonzero" fill-opacity="1" /><path clip-path="url(#clip890)" d="M90.0584 469.983 L120.996 469.983 L120.996 479.619 L40.4754 479.619 L40.4754 469.983 L49.3295 469.983 Q44.1212 466.962 41.6212 462.379 Q39.0691 457.744 39.0691 451.337 Q39.0691 440.713 47.5066 434.098 Q55.944 427.431 69.694 427.431 Q83.4439 427.431 91.8813 434.098 Q100.319 440.713 100.319 451.337 Q100.319 457.744 97.8188 462.379 Q95.2667 466.962 90.0584 469.983 M69.694 437.379 Q59.1211 437.379 53.1315 441.754 Q47.0899 446.077 47.0899 453.681 Q47.0899 461.285 53.1315 465.66 Q59.1211 469.983 69.694 469.983 Q80.2668 469.983 86.3084 465.66 Q92.298 461.285 92.298 453.681 Q92.298 446.077 86.3084 441.754 Q80.2668 437.379 69.694 437.379 Z" fill="#000000" fill-rule="nonzero" fill-opacity="1" /><path clip-path="url(#clip890)" d="M90.0584 402.275 L120.996 402.275 L120.996 411.911 L40.4754 411.911 L40.4754 402.275 L49.3295 402.275 Q44.1212 399.254 41.6212 394.671 Q39.0691 390.036 39.0691 383.629 Q39.0691 373.005 47.5066 366.39 Q55.944 359.723 69.694 359.723 Q83.4439 359.723 91.8813 366.39 Q100.319 373.005 100.319 383.629 Q100.319 390.036 97.8188 394.671 Q95.2667 399.254 90.0584 402.275 M69.694 369.671 Q59.1211 369.671 53.1315 374.046 Q47.0899 378.369 47.0899 385.973 Q47.0899 393.577 53.1315 397.952 Q59.1211 402.275 69.694 402.275 Q80.2668 402.275 86.3084 397.952 Q92.298 393.577 92.298 385.973 Q92.298 378.369 86.3084 374.046 Q80.2668 369.671 69.694 369.671 Z" fill="#000000" fill-rule="nonzero" fill-opacity="1" /><path clip-path="url(#clip890)" d="M51.6732 298.422 Q45.2149 294.828 42.142 289.828 Q39.0691 284.828 39.0691 278.057 Q39.0691 268.943 45.4753 263.995 Q51.8295 259.047 63.6002 259.047 L98.8084 259.047 L98.8084 268.682 L63.9127 268.682 Q55.5274 268.682 51.4649 271.651 Q47.4024 274.62 47.4024 280.713 Q47.4024 288.161 52.3503 292.484 Q57.2982 296.807 65.8398 296.807 L98.8084 296.807 L98.8084 306.442 L63.9127 306.442 Q55.4753 306.442 51.4649 309.411 Q47.4024 312.38 47.4024 318.578 Q47.4024 325.921 52.4024 330.244 Q57.3503 334.567 65.8398 334.567 L98.8084 334.567 L98.8084 344.203 L40.4754 344.203 L40.4754 334.567 L49.5378 334.567 Q44.1733 331.286 41.6212 326.703 Q39.0691 322.119 39.0691 315.817 Q39.0691 309.463 42.2983 305.036 Q45.5274 300.557 51.6732 298.422 Z" fill="#000000" fill-rule="nonzero" fill-opacity="1" /><path clip-path="url(#clip890)" d="M17.8713 241.443 L17.8713 233.109 Q30.1629 225.297 41.9337 221.443 Q53.7045 217.537 65.319 217.537 Q76.9856 217.537 88.8084 221.443 Q100.631 225.297 112.871 233.109 L112.871 241.443 Q100.944 234.516 89.173 231.13 Q77.3502 227.693 65.319 227.693 Q53.2878 227.693 41.5691 231.13 Q29.8504 234.516 17.8713 241.443 Z" fill="#000000" fill-rule="nonzero" fill-opacity="1" /><path clip-path="url(#clip892)" d="M599.691 714.833 L618.445 756.669 L637.199 759.922 L655.953 780.957 L674.707 774.398 L693.461 775.133 L712.215 752.634 L730.969 781.412 L749.723 738.186 L768.477 720.703 L787.231 777.578 L805.984 754.695 L824.738 803.687 L843.492 839.001 L862.246 770.495 L881 832.989 L899.754 831.434 L918.508 756.337 L937.262 774.587 L956.016 820.992 L974.77 803.02 L993.524 757.564 L1012.28 796.6 L1031.03 771.566 L1049.79 758.096 L1068.54 774.271 L1087.29 772.318 L1106.05 752.679 L1124.8 763.563 L1143.56 768.002 L1162.31 754.154 L1181.06 782.358 L1199.82 739.052 L1218.57 728.473 L1237.33 786.993 L1256.08 758.924 L1274.83 816.014 L1293.59 845.808 L1312.34 766.932 L1331.1 856.733 L1349.85 844.422 L1368.6 760.641 L1387.36 787.206 L1406.11 846.683 L1424.87 814.445 L1443.62 776.174 L1462.37 804.588 L1481.13 775.101 L1499.88 760.566 L1518.64 776.871 L1537.39 773.176 L1556.14 753.272 L1574.9 761.859 L1593.65 766.482 L1612.4 753.246 L1631.16 781.398 L1649.91 738.064 L1668.67 727.876 L1687.42 786.311 L1706.17 757.822 L1724.93 815.204 L1743.68 844.782 L1762.44 765.627 L1781.19 856.2 L1799.94 843.941 L1818.7 760.491 L1837.45 787.49 L1856.21 849.461 L1874.96 815.584 L1893.71 774.12 L1912.47 806.622 L1931.22 776.651 L1949.98 761.95 L1968.73 778.321 L1987.48 774.487 L2006.24 754.389 L2024.99 762.812 L2043.75 767.367 L2062.5 754.171 L2081.25 782.353 L2100.01 739.073 L2118.76 729.013 L2137.52 787.561 L2156.27 759.136 L2175.02 816.535 L2193.78 846.063 L2212.53 766.781 L2231.29 857.356 L2250.04 844.801 L2268.79 760.999 L2287.55 787.772 L2306.3 849.592 L2325.06 815.292 L2343.81 774.051 L2362.56 805.963 L2381.32 775.75 L2400.07 760.981 L2418.83 777.374 L2437.58 773.499 L2456.33 753.424 L2475.09 761.934 L2493.84 766.56 L2512.6 753.353 L2531.35 781.486 L2550.1 738.14 L2568.86 727.97 L2587.61 786.396 L2606.36 757.876 L2625.12 815.242 L2643.87 844.806 L2662.63 765.64 L2681.38 856.208 L2700.13 843.966 L2718.89 760.507 L2737.64 787.583 L2756.4 849.686 L2775.15 815.656 L2793.9 774.452 L2812.66 806.793 L2831.41 776.72 L2850.17 761.966 L2868.92 778.33 L2887.67 774.484 L2906.43 754.432 L2925.18 762.861 L2943.94 767.395 L2962.69 754.137 L2981.44 782.318 L3000.2 739.027 L3018.95 728.96 L3037.71 787.505 L3056.46 759.074 L3075.21 816.473 L3093.97 846.005 L3112.72 766.733 L3131.48 857.32 L3150.23 844.784 L3168.98 761 L3187.74 787.777 L3206.49 849.602 L3225.25 815.29 L3244 774.001 L3262.75 805.984 L3281.51 775.767 L3300.26 760.969 L3319.02 777.415 L3337.77 773.53 L3356.52 753.349 L3375.28 761.957 L3394.03 766.586 L3412.79 753.377 L3431.54 781.511 L3450.29 738.165 L3469.05 727.999 L3487.8 786.426 L3506.56 757.907 L3525.31 815.264 L3544.06 844.829 L3562.82 765.662 L3581.57 856.272 L3600.32 844.016 L3619.08 760.555 L3637.83 787.59 L3656.59 849.726 L3675.34 815.695 L3694.09 774.634 L3712.85 806.828 L3731.6 776.747 L3750.36 761.976 L3769.11 778.422 L3787.86 774.535 L3806.62 754.315 L3825.37 762.867 L3844.13 767.395 L3862.88 754.14 L3881.63 782.317 L3900.39 739.035 L3919.14 728.957 L3937.9 787.497 L3956.65 759.061 L3975.4 816.45 L3994.16 845.977 L4012.91 766.699 L4031.67 857.263 L4050.42 844.733 L4069.17 760.976 L4087.93 787.758 L4106.68 849.553 L4125.44 815.257 L4144.19 773.892 L4162.94 805.965 L4181.7 775.75 L4200.45 760.97 L4219.21 777.426 L4237.96 773.537 L4256.71 753.428 L4275.47 761.958 L4294.22 766.589 L4312.98 753.384 L4331.73 781.518 L4350.48 738.17 L4369.24 728.008 L4387.99 786.437 L4406.75 757.918 L4425.5 815.287 L4444.25 844.854 L4463.01 765.689 L4481.76 856.252 L4500.52 844.033 L4519.27 760.618 L4538.02 787.701 L4556.78 849.83 L4575.53 815.885 L4594.28 774.938 L4613.04 807.23 L4631.79 777.147 L4631.79 87.1241 L4613.04 94.9106 L4594.28 100.255 L4575.53 104.851 L4556.78 104.605 L4538.02 104.8 L4519.27 108.507 L4500.52 116.078 L4481.76 112.587 L4463.01 106.667 L4444.25 105.72 L4425.5 109.679 L4406.75 107.476 L4387.99 104.053 L4369.24 102.053 L4350.48 99.3211 L4331.73 93.572 L4312.98 91.7291 L4294.22 86.9092 L4275.47 86.526 L4256.71 91.2646 L4237.96 100.715 L4219.21 105.032 L4200.45 99.9 L4181.7 97.7821 L4162.94 99.3939 L4144.19 105.115 L4125.44 106.519 L4106.68 104.752 L4087.93 105.264 L4069.17 100.68 L4050.42 96.2366 L4031.67 94.679 L4012.91 97.2566 L3994.16 104.395 L3975.4 115.379 L3956.65 117.873 L3937.9 110.176 L3919.14 106.93 L3900.39 109.987 L3881.63 119.661 L3862.88 124.331 L3844.13 122.416 L3825.37 117.655 L3806.62 105.684 L3787.86 95.41 L3769.11 88.3254 L3750.36 84.8927 L3731.6 86.7245 L3712.85 94.5177 L3694.09 99.9426 L3675.34 104.658 L3656.59 104.186 L3637.83 104.422 L3619.08 108.16 L3600.32 115.753 L3581.57 111.571 L3562.82 105.665 L3544.06 104.737 L3525.31 108.714 L3506.56 107.443 L3487.8 104.021 L3469.05 102.025 L3450.29 99.3226 L3431.54 93.5421 L3412.79 91.6994 L3394.03 86.903 L3375.28 86.5234 L3356.52 91.2657 L3337.77 101.153 L3319.02 105.092 L3300.26 99.9623 L3281.51 97.8465 L3262.75 99.4614 L3244 105.186 L3225.25 107.077 L3206.49 105.311 L3187.74 105.816 L3168.98 100.716 L3150.23 96.2732 L3131.48 94.7146 L3112.72 97.2897 L3093.97 104.424 L3075.21 115.455 L3056.46 117.893 L3037.71 110.19 L3018.95 106.939 L3000.2 109.992 L2981.44 119.663 L2962.69 124.331 L2943.94 123.2 L2925.18 117.662 L2906.43 105.344 L2887.67 95.0786 L2868.92 88.0141 L2850.17 84.6084 L2831.41 86.4726 L2812.66 94.3027 L2793.9 99.9884 L2775.15 104.701 L2756.4 103.262 L2737.64 103.514 L2718.89 107.271 L2700.13 114.885 L2681.38 110.094 L2662.63 104.198 L2643.87 103.292 L2625.12 107.294 L2606.36 107.34 L2587.61 103.915 L2568.86 101.917 L2550.1 99.4256 L2531.35 93.6178 L2512.6 91.7761 L2493.84 86.8654 L2475.09 86.4881 L2456.33 91.2335 L2437.58 101.855 L2418.83 105.38 L2400.07 100.253 L2381.32 98.1363 L2362.56 99.7513 L2343.81 105.476 L2325.06 108.755 L2306.3 106.973 L2287.55 107.45 L2268.79 100.728 L2250.04 96.2961 L2231.29 94.7515 L2212.53 97.3401 L2193.78 104.485 L2175.02 115.52 L2156.27 117.952 L2137.52 110.246 L2118.76 106.992 L2100.01 110.043 L2081.25 119.711 L2062.5 124.374 L2043.75 124.46 L2024.99 117.621 L2006.24 113.109 L1987.48 103.221 L1968.73 96.2822 L1949.98 92.8841 L1931.22 94.7155 L1912.47 99.3613 L1893.71 100.783 L1874.96 102.719 L1856.21 100.674 L1837.45 100.958 L1818.7 104.768 L1799.94 112.44 L1781.19 107.937 L1762.44 102.053 L1743.68 101.167 L1724.93 105.193 L1706.17 106.867 L1687.42 103.496 L1668.67 101.485 L1649.91 99.0015 L1631.16 93.1817 L1612.4 91.3307 L1593.65 87.2416 L1574.9 86.8781 L1556.14 91.6229 L1537.39 102.24 L1518.64 107.258 L1499.88 102.123 L1481.13 99.9923 L1462.37 101.598 L1443.62 107.312 L1424.87 114.503 L1406.11 112.659 L1387.36 110.644 L1368.6 100.494 L1349.85 96.0178 L1331.1 94.5096 L1312.34 97.1722 L1293.59 104.363 L1274.83 115.415 L1256.08 116.904 L1237.33 110.392 L1218.57 107.148 L1199.82 110.208 L1181.06 119.902 L1162.31 124.441 L1143.56 125.975 L1124.8 116.571 L1106.05 112.382 L1087.29 111.075 L1068.54 100.788 L1049.79 95.4525 L1031.03 93.2746 L1012.28 94.981 L993.524 100.755 L974.77 95.6878 L956.016 93.8363 L937.262 94.3696 L918.508 98.424 L899.754 106.234 L881 105.285 L862.246 99.6228 L843.492 98.9856 L824.738 103.07 L805.984 104.722 L787.231 102.898 L768.477 100.869 L749.723 101.486 L730.969 97.7661 L712.215 94.3095 L693.461 89.6259 L674.707 89.6021 L655.953 93.6701 L637.199 99.5227 L618.445 89.4839 L599.691 70.8396  Z" fill="#dedede" fill-rule="evenodd" fill-opacity="0.5"/>
<polyline clip-path="url(#clip892)" style="stroke:#dedede; stroke-linecap:round; stroke-linejoin:round; stroke-width:0; stroke-opacity:1; fill:none" points="599.691,201.569 618.445,215.345 637.199,217.138 655.953,218.264 674.707,218.568 693.461,217.97 712.215,217.827 730.969,218.725 749.723,219.429 768.477,219.615 787.231,219.591 805.984,218.583 824.738,217.447 843.492,216.511 862.246,215.527 881,215.498 899.754,216.396 918.508,217.094 937.262,217.143 956.016,216.809 974.77,215.481 993.524,214.335 1012.28,214.481 1031.03,215.114 1049.79,216.221 1068.54,217.386 1087.29,217.724 1106.05,217.557 1124.8,217.443 1143.56,217.328 1162.31,217.668 1181.06,218.559 1199.82,219.262 1218.57,219.645 1237.33,219.739 1256.08,218.739 1274.83,217.573 1293.59,216.604 1312.34,215.677 1331.1,215.631 1349.85,216.377 1368.6,216.891 1387.36,216.821 1406.11,216.359 1424.87,214.939 1443.62,213.791 1462.37,213.953 1481.13,214.55 1499.88,215.508 1518.64,216.47 1537.39,216.577 1556.14,216.294 1574.9,216.212 1593.65,216.21 1612.4,216.639 1631.16,217.543 1649.91,218.207 1668.67,218.501 1687.42,218.492 1706.17,217.419 1724.93,216.233 1743.68,215.327 1762.44,214.568 1781.19,214.77 1799.94,215.755 1818.7,216.47 1837.45,216.636 1856.21,216.457 1874.96,215.329 1893.71,214.435 1912.47,214.837 1931.22,215.622 1949.98,216.648 1968.73,217.611 1987.48,217.719 2006.24,217.415 2024.99,217.261 2043.75,217.174 2062.5,217.558 2081.25,218.492 2100.01,219.221 2118.76,219.612 2137.52,219.715 2156.27,218.722 2175.02,217.554 2193.78,216.599 2212.53,215.716 2231.29,215.745 2250.04,216.532 2268.79,217.014 2287.55,216.905 2306.3,216.43 2325.06,215.001 2343.81,213.851 2362.56,214.038 2381.32,214.661 2400.07,215.634 2418.83,216.592 2437.58,216.687 2456.33,216.391 2475.09,216.301 2493.84,216.301 2512.6,216.728 2531.35,217.624 2550.1,218.282 2568.86,218.57 2587.61,218.551 2606.36,217.464 2625.12,216.264 2643.87,215.346 2662.63,214.577 2681.38,214.781 2700.13,215.782 2718.89,216.512 2737.64,216.682 2756.4,216.494 2775.15,215.354 2793.9,214.451 2812.66,214.845 2831.41,215.618 2850.17,216.633 2868.92,217.591 2887.67,217.693 2906.43,217.385 2925.18,217.225 2943.94,217.133 2962.69,217.514 2981.44,218.446 3000.2,219.172 3018.95,219.56 3037.71,219.661 3056.46,218.664 3075.21,217.494 3093.97,216.545 3112.72,215.671 3131.48,215.714 3150.23,216.514 3168.98,217.007 3187.74,216.901 3206.49,216.425 3225.25,214.994 3244,213.846 3262.75,214.037 3281.51,214.667 3300.26,215.642 3319.02,216.603 3337.77,216.702 3356.52,216.408 3375.28,216.322 3394.03,216.324 3412.79,216.753 3431.54,217.649 3450.29,218.305 3469.05,218.594 3487.8,218.574 3506.56,217.487 3525.31,216.286 3544.06,215.368 3562.82,214.6 3581.57,214.806 3600.32,215.812 3619.08,216.548 3637.83,216.721 3656.59,216.534 3675.34,215.392 3694.09,214.486 3712.85,214.874 3731.6,215.642 3750.36,216.654 3769.11,217.609 3787.86,217.709 3806.62,217.396 3825.37,217.232 3844.13,217.135 3862.88,217.514 3881.63,218.444 3900.39,219.167 3919.14,219.551 3937.9,219.646 3956.65,218.644 3975.4,217.469 3994.16,216.515 4012.91,215.638 4031.67,215.678 4050.42,216.477 4069.17,216.971 4087.93,216.867 4106.68,216.393 4125.44,214.967 4144.19,213.821 4162.94,214.017 4181.7,214.651 4200.45,215.629 4219.21,216.592 4237.96,216.695 4256.71,216.405 4275.47,216.322 4294.22,216.328 4312.98,216.757 4331.73,217.654 4350.48,218.312 4369.24,218.602 4387.99,218.586 4406.75,217.501 4425.5,216.304 4444.25,215.388 4463.01,214.624 4481.76,214.837 4500.52,215.855 4519.27,216.608 4538.02,216.805 4556.78,216.656 4575.53,215.586 4594.28,214.8 4613.04,215.277 4631.79,216.053 "/>
<path clip-path="url(#clip892)" d="M599.691 556.063 L618.445 620.838 L637.199 626.396 L655.953 640.548 L674.707 615.835 L693.461 613.59 L712.215 598.69 L730.969 615.155 L749.723 618.529 L768.477 615.617 L787.231 624.25 L805.984 618.362 L824.738 608.307 L843.492 591.046 L862.246 597.465 L881 601.633 L899.754 594.88 L918.508 602.413 L937.262 617.267 L956.016 626.127 L974.77 605.904 L993.524 604.055 L1012.28 593.81 L1031.03 606.277 L1049.79 606.441 L1068.54 622.295 L1087.29 632.356 L1106.05 615.838 L1124.8 613.049 L1143.56 601.94 L1162.31 592.86 L1181.06 612.545 L1199.82 618.85 L1218.57 615.865 L1237.33 629.205 L1256.08 631.549 L1274.83 621.075 L1293.59 596.049 L1312.34 601.059 L1331.1 613.654 L1349.85 596.504 L1368.6 615.407 L1387.36 617.303 L1406.11 618.773 L1424.87 607.423 L1443.62 604.569 L1462.37 592.264 L1481.13 605.843 L1499.88 611.004 L1518.64 621.354 L1537.39 630.285 L1556.14 614.34 L1574.9 613.466 L1593.65 611.91 L1612.4 596.997 L1631.16 614.216 L1649.91 617.718 L1668.67 614.698 L1687.42 621.811 L1706.17 616.45 L1724.93 606.704 L1743.68 589.374 L1762.44 595.391 L1781.19 601.754 L1799.94 592.787 L1818.7 605.838 L1837.45 617.126 L1856.21 619.259 L1874.96 607.9 L1893.71 604.204 L1912.47 597.396 L1931.22 606.908 L1949.98 612.497 L1968.73 622.496 L1987.48 631.455 L2006.24 615.243 L2024.99 612.958 L2043.75 603.132 L2062.5 592.635 L2081.25 612.46 L2100.01 618.888 L2118.76 615.813 L2137.52 629.186 L2156.27 631.457 L2175.02 621.648 L2193.78 596.27 L2212.53 601.164 L2231.29 609.338 L2250.04 596.558 L2268.79 615.665 L2287.55 617.398 L2306.3 619.063 L2325.06 607.579 L2343.81 603.626 L2362.56 592.55 L2381.32 605.955 L2400.07 611.421 L2418.83 621.469 L2437.58 630.428 L2456.33 614.24 L2475.09 613.537 L2493.84 611.078 L2512.6 597.098 L2531.35 612.568 L2550.1 617.654 L2568.86 614.765 L2587.61 621.866 L2606.36 616.493 L2625.12 606.984 L2643.87 589.377 L2662.63 595.4 L2681.38 603.187 L2700.13 592.814 L2718.89 605.815 L2737.64 617.175 L2756.4 619.143 L2775.15 607.921 L2793.9 604.229 L2812.66 597.435 L2831.41 606.908 L2850.17 612.446 L2868.92 622.471 L2887.67 631.437 L2906.43 615.23 L2925.18 612.981 L2943.94 603.096 L2962.69 592.604 L2981.44 612.419 L3000.2 619.032 L3018.95 615.764 L3037.71 629.132 L3056.46 631.403 L3075.21 621.293 L3093.97 596.218 L3112.72 601.126 L3131.48 608.249 L3150.23 596.546 L3168.98 615.669 L3187.74 617.397 L3206.49 619.09 L3225.25 607.575 L3244 603.624 L3262.75 592.545 L3281.51 605.961 L3300.26 611.439 L3319.02 621.483 L3337.77 630.443 L3356.52 614.258 L3375.28 613.552 L3394.03 610.866 L3412.79 597.118 L3431.54 612.128 L3450.29 617.54 L3469.05 614.796 L3487.8 621.891 L3506.56 616.516 L3525.31 607.013 L3544.06 589.4 L3562.82 595.426 L3581.57 603.367 L3600.32 592.848 L3619.08 605.82 L3637.83 617.217 L3656.59 619.194 L3675.34 607.979 L3694.09 604.259 L3712.85 597.466 L3731.6 606.941 L3750.36 612.451 L3769.11 622.491 L3787.86 631.458 L3806.62 615.245 L3825.37 612.984 L3844.13 603.102 L3862.88 592.6 L3881.63 612.668 L3900.39 619.661 L3919.14 615.763 L3937.9 629.123 L3956.65 631.385 L3975.4 621.058 L3994.16 596.191 L4012.91 601.096 L4031.67 607.975 L4050.42 596.513 L4069.17 615.638 L4087.93 617.364 L4106.68 619.061 L4125.44 607.539 L4144.19 603.602 L4162.94 592.532 L4181.7 605.952 L4200.45 611.437 L4219.21 621.471 L4237.96 630.441 L4256.71 614.259 L4275.47 612.576 L4294.22 610.811 L4312.98 597.134 L4331.73 612.016 L4350.48 617.508 L4369.24 614.813 L4387.99 621.908 L4406.75 616.532 L4425.5 607.03 L4444.25 589.424 L4463.01 595.456 L4481.76 603.4 L4500.52 592.898 L4519.27 605.946 L4538.02 617.302 L4556.78 619.313 L4575.53 608.168 L4594.28 604.583 L4613.04 597.871 L4631.79 607.353 L4631.79 143.361 L4613.04 141.032 L4594.28 139.536 L4575.53 144.506 L4556.78 150.187 L4538.02 147.846 L4519.27 147.442 L4500.52 149.28 L4481.76 144.299 L4463.01 143.765 L4444.25 143.334 L4425.5 146.793 L4406.75 152.29 L4387.99 151.581 L4369.24 150.854 L4350.48 151.146 L4331.73 148.389 L4312.98 145.524 L4294.22 145.48 L4275.47 145.039 L4256.71 150.508 L4237.96 152.079 L4219.21 146.044 L4200.45 146.701 L4181.7 142.18 L4162.94 141.662 L4144.19 140.457 L4125.44 148.086 L4106.68 152.158 L4087.93 151.957 L4069.17 147.805 L4050.42 149.904 L4031.67 143.613 L4012.91 144.376 L3994.16 144.923 L3975.4 147.401 L3956.65 153.431 L3937.9 153.113 L3919.14 156.293 L3900.39 155.099 L3881.63 153.386 L3862.88 151.812 L3844.13 152.712 L3825.37 153.852 L3806.62 153.202 L3787.86 155.517 L3769.11 150.498 L3750.36 149.806 L3731.6 142.956 L3712.85 140.631 L3694.09 139.222 L3675.34 144.317 L3656.59 150.029 L3637.83 147.722 L3619.08 147.382 L3600.32 149.238 L3581.57 144.269 L3562.82 143.742 L3544.06 143.314 L3525.31 146.774 L3506.56 152.274 L3487.8 151.528 L3469.05 150.57 L3450.29 151.138 L3431.54 148.384 L3412.79 145.41 L3394.03 145.478 L3375.28 145.038 L3356.52 150.511 L3337.77 152.109 L3319.02 146.054 L3300.26 146.758 L3281.51 142.197 L3262.75 141.68 L3244 140.483 L3225.25 148.218 L3206.49 152.187 L3187.74 151.992 L3168.98 147.841 L3150.23 149.94 L3131.48 143.647 L3112.72 144.461 L3093.97 144.952 L3075.21 147.425 L3056.46 153.453 L3037.71 153.127 L3018.95 156.424 L3000.2 155.105 L2981.44 153.39 L2962.69 151.812 L2943.94 152.702 L2925.18 153.841 L2906.43 153.191 L2887.67 155.503 L2868.92 150.24 L2850.17 149.786 L2831.41 142.929 L2812.66 140.6 L2793.9 139.184 L2775.15 144.275 L2756.4 149.858 L2737.64 147.697 L2718.89 147.347 L2700.13 149.206 L2681.38 144.243 L2662.63 143.716 L2643.87 143.291 L2625.12 146.752 L2606.36 152.247 L2587.61 151.532 L2568.86 150.237 L2550.1 151.115 L2531.35 148.358 L2512.6 144.908 L2493.84 145.454 L2475.09 145.018 L2456.33 150.494 L2437.58 152.208 L2418.83 146.041 L2400.07 144.949 L2381.32 142.19 L2362.56 141.678 L2343.81 140.486 L2325.06 148.362 L2306.3 152.192 L2287.55 151.725 L2268.79 147.854 L2250.04 149.596 L2231.29 143.68 L2212.53 144.857 L2193.78 145.007 L2175.02 147.482 L2156.27 153.533 L2137.52 153.199 L2118.76 156.476 L2100.01 155.153 L2081.25 153.944 L2062.5 151.856 L2043.75 152.774 L2024.99 152.886 L2006.24 152.995 L1987.48 155.527 L1968.73 149.798 L1949.98 149.799 L1931.22 142.913 L1912.47 140.592 L1893.71 139.1 L1874.96 144.147 L1856.21 149.698 L1837.45 147.669 L1818.7 147.343 L1799.94 149.378 L1781.19 144.231 L1762.44 143.302 L1743.68 143.269 L1724.93 146.719 L1706.17 152.02 L1687.42 151.578 L1668.67 150.137 L1649.91 151.04 L1631.16 148.337 L1612.4 142.837 L1593.65 145.377 L1574.9 144.93 L1556.14 148.669 L1537.39 151.811 L1518.64 145.028 L1499.88 144.933 L1481.13 142.079 L1462.37 140.834 L1443.62 139.322 L1424.87 148.732 L1406.11 152.487 L1387.36 150.575 L1368.6 146.893 L1349.85 148.306 L1331.1 143.603 L1312.34 145.082 L1293.59 145.035 L1274.83 147.583 L1256.08 151.26 L1237.33 153.754 L1218.57 156.718 L1199.82 155.227 L1181.06 156.404 L1162.31 152.28 L1143.56 151.962 L1124.8 152.729 L1106.05 152.707 L1087.29 154.086 L1068.54 149.308 L1049.79 149.454 L1031.03 142.005 L1012.28 139.483 L993.524 139.132 L974.77 142.833 L956.016 146.758 L937.262 147.712 L918.508 149.932 L899.754 150.709 L881 147.457 L862.246 147.256 L843.492 147.327 L824.738 150.415 L805.984 154.759 L787.231 153.433 L768.477 152.197 L749.723 154.19 L730.969 150.151 L712.215 150.008 L693.461 150.079 L674.707 150.292 L655.953 153.307 L637.199 153.678 L618.445 149.141 L599.691 120.452  Z" fill="#6d6d6d" fill-rule="evenodd" fill-opacity="0.5"/>
<polyline clip-path="url(#clip892)" style="stroke:#6d6d6d; stroke-linecap:round; stroke-linejoin:round; stroke-width:0; stroke-opacity:1; fill:none" points="599.691,201.569 618.445,215.345 637.199,217.138 655.953,218.264 674.707,218.568 693.461,217.97 712.215,217.827 730.969,218.725 749.723,219.429 768.477,219.615 787.231,219.591 805.984,218.583 824.738,217.447 843.492,216.511 862.246,215.527 881,215.498 899.754,216.396 918.508,217.094 937.262,217.143 956.016,216.809 974.77,215.481 993.524,214.335 1012.28,214.481 1031.03,215.114 1049.79,216.221 1068.54,217.386 1087.29,217.724 1106.05,217.557 1124.8,217.443 1143.56,217.328 1162.31,217.668 1181.06,218.559 1199.82,219.262 1218.57,219.645 1237.33,219.739 1256.08,218.739 1274.83,217.573 1293.59,216.604 1312.34,215.677 1331.1,215.631 1349.85,216.377 1368.6,216.891 1387.36,216.821 1406.11,216.359 1424.87,214.939 1443.62,213.791 1462.37,213.953 1481.13,214.55 1499.88,215.508 1518.64,216.47 1537.39,216.577 1556.14,216.294 1574.9,216.212 1593.65,216.21 1612.4,216.639 1631.16,217.543 1649.91,218.207 1668.67,218.501 1687.42,218.492 1706.17,217.419 1724.93,216.233 1743.68,215.327 1762.44,214.568 1781.19,214.77 1799.94,215.755 1818.7,216.47 1837.45,216.636 1856.21,216.457 1874.96,215.329 1893.71,214.435 1912.47,214.837 1931.22,215.622 1949.98,216.648 1968.73,217.611 1987.48,217.719 2006.24,217.415 2024.99,217.261 2043.75,217.174 2062.5,217.558 2081.25,218.492 2100.01,219.221 2118.76,219.612 2137.52,219.715 2156.27,218.722 2175.02,217.554 2193.78,216.599 2212.53,215.716 2231.29,215.745 2250.04,216.532 2268.79,217.014 2287.55,216.905 2306.3,216.43 2325.06,215.001 2343.81,213.851 2362.56,214.038 2381.32,214.661 2400.07,215.634 2418.83,216.592 2437.58,216.687 2456.33,216.391 2475.09,216.301 2493.84,216.301 2512.6,216.728 2531.35,217.624 2550.1,218.282 2568.86,218.57 2587.61,218.551 2606.36,217.464 2625.12,216.264 2643.87,215.346 2662.63,214.577 2681.38,214.781 2700.13,215.782 2718.89,216.512 2737.64,216.682 2756.4,216.494 2775.15,215.354 2793.9,214.451 2812.66,214.845 2831.41,215.618 2850.17,216.633 2868.92,217.591 2887.67,217.693 2906.43,217.385 2925.18,217.225 2943.94,217.133 2962.69,217.514 2981.44,218.446 3000.2,219.172 3018.95,219.56 3037.71,219.661 3056.46,218.664 3075.21,217.494 3093.97,216.545 3112.72,215.671 3131.48,215.714 3150.23,216.514 3168.98,217.007 3187.74,216.901 3206.49,216.425 3225.25,214.994 3244,213.846 3262.75,214.037 3281.51,214.667 3300.26,215.642 3319.02,216.603 3337.77,216.702 3356.52,216.408 3375.28,216.322 3394.03,216.324 3412.79,216.753 3431.54,217.649 3450.29,218.305 3469.05,218.594 3487.8,218.574 3506.56,217.487 3525.31,216.286 3544.06,215.368 3562.82,214.6 3581.57,214.806 3600.32,215.812 3619.08,216.548 3637.83,216.721 3656.59,216.534 3675.34,215.392 3694.09,214.486 3712.85,214.874 3731.6,215.642 3750.36,216.654 3769.11,217.609 3787.86,217.709 3806.62,217.396 3825.37,217.232 3844.13,217.135 3862.88,217.514 3881.63,218.444 3900.39,219.167 3919.14,219.551 3937.9,219.646 3956.65,218.644 3975.4,217.469 3994.16,216.515 4012.91,215.638 4031.67,215.678 4050.42,216.477 4069.17,216.971 4087.93,216.867 4106.68,216.393 4125.44,214.967 4144.19,213.821 4162.94,214.017 4181.7,214.651 4200.45,215.629 4219.21,216.592 4237.96,216.695 4256.71,216.405 4275.47,216.322 4294.22,216.328 4312.98,216.757 4331.73,217.654 4350.48,218.312 4369.24,218.602 4387.99,218.586 4406.75,217.501 4425.5,216.304 4444.25,215.388 4463.01,214.624 4481.76,214.837 4500.52,215.855 4519.27,216.608 4538.02,216.805 4556.78,216.656 4575.53,215.586 4594.28,214.8 4613.04,215.277 4631.79,216.053 "/>
<path clip-path="url(#clip892)" d="M599.691 520.681 L618.445 553.417 L637.199 559.02 L655.953 564.079 L674.707 562.526 L693.461 553.106 L712.215 546.98 L730.969 547.883 L749.723 564.773 L768.477 569.734 L787.231 561.692 L805.984 554.815 L824.738 542.789 L843.492 545.01 L862.246 544.896 L881 531.791 L899.754 541.922 L918.508 548.624 L937.262 560.058 L956.016 560.883 L974.77 550.031 L993.524 532.421 L1012.28 540.542 L1031.03 538.747 L1049.79 555.008 L1068.54 548.083 L1087.29 549.771 L1106.05 551.309 L1124.8 557.989 L1143.56 549.83 L1162.31 548.537 L1181.06 545.935 L1199.82 560.544 L1218.57 573.212 L1237.33 567.349 L1256.08 556.809 L1274.83 541.964 L1293.59 548.088 L1312.34 545.005 L1331.1 532.225 L1349.85 543.994 L1368.6 555.289 L1387.36 566.414 L1406.11 555.572 L1424.87 551.806 L1443.62 520.561 L1462.37 535.29 L1481.13 535.515 L1499.88 558.762 L1518.64 547.927 L1537.39 555.845 L1556.14 551.156 L1574.9 556.825 L1593.65 548.458 L1612.4 547.881 L1631.16 546.681 L1649.91 562.258 L1668.67 570.713 L1687.42 561.068 L1706.17 553.812 L1724.93 538.903 L1743.68 542.29 L1762.44 542.253 L1781.19 530.908 L1799.94 540.22 L1818.7 549.447 L1837.45 561.827 L1856.21 555.668 L1874.96 552.118 L1893.71 530.277 L1912.47 536.272 L1931.22 539.781 L1949.98 559.925 L1968.73 549.698 L1987.48 546.656 L2006.24 550.863 L2024.99 557.025 L2043.75 549.48 L2062.5 548.857 L2081.25 545.83 L2100.01 560.784 L2118.76 571.819 L2137.52 567.405 L2156.27 556.916 L2175.02 542.129 L2193.78 547.592 L2212.53 545.049 L2231.29 532.325 L2250.04 544.138 L2268.79 555.392 L2287.55 566.803 L2306.3 555.646 L2325.06 551.795 L2343.81 520.209 L2362.56 535.386 L2381.32 535.626 L2400.07 557.2 L2418.83 550.411 L2437.58 555.122 L2456.33 551.253 L2475.09 556.56 L2493.84 548.593 L2512.6 548.038 L2531.35 546.492 L2550.1 561.953 L2568.86 570.777 L2587.61 561.137 L2606.36 553.832 L2625.12 536.474 L2643.87 542.309 L2662.63 542.275 L2681.38 530.921 L2700.13 540.252 L2718.89 549.488 L2737.64 561.925 L2756.4 555.71 L2775.15 552.145 L2793.9 530.473 L2812.66 537.313 L2831.41 539.778 L2850.17 560.694 L2868.92 549.63 L2887.67 548.424 L2906.43 550.838 L2925.18 556.994 L2943.94 549.433 L2962.69 548.832 L2981.44 544.278 L3000.2 560.957 L3018.95 571.77 L3037.71 567.379 L3056.46 556.864 L3075.21 542.075 L3093.97 547.54 L3112.72 545.006 L3131.48 532.297 L3150.23 544.126 L3168.98 555.379 L3187.74 566.889 L3206.49 555.648 L3225.25 551.781 L3244 520.207 L3262.75 535.392 L3281.51 535.631 L3300.26 556.64 L3319.02 550.427 L3337.77 554.42 L3356.52 551.27 L3375.28 556.558 L3394.03 548.623 L3412.79 548.077 L3431.54 546.476 L3450.29 561.706 L3469.05 570.803 L3487.8 561.165 L3506.56 553.856 L3525.31 536.489 L3544.06 542.333 L3562.82 542.288 L3581.57 530.948 L3600.32 540.301 L3619.08 549.528 L3637.83 561.967 L3656.59 555.756 L3675.34 552.178 L3694.09 530.506 L3712.85 538.153 L3731.6 539.808 L3750.36 560.937 L3769.11 549.651 L3787.86 549.043 L3806.62 550.856 L3825.37 557.004 L3844.13 549.437 L3862.88 548.842 L3881.63 544.457 L3900.39 561.115 L3919.14 571.765 L3937.9 567.376 L3956.65 556.848 L3975.4 542.053 L3994.16 547.518 L4012.91 544.974 L4031.67 532.264 L4050.42 544.092 L4069.17 555.35 L4087.93 566.884 L4106.68 555.618 L4125.44 551.75 L4144.19 520.178 L4162.94 535.372 L4181.7 535.619 L4200.45 556.432 L4219.21 550.421 L4237.96 554.185 L4256.71 551.269 L4275.47 556.564 L4294.22 548.634 L4312.98 548.091 L4331.73 546.481 L4350.48 561.497 L4369.24 570.814 L4387.99 561.182 L4406.75 553.877 L4425.5 536.509 L4444.25 542.354 L4463.01 542.318 L4481.76 530.985 L4500.52 540.344 L4519.27 549.59 L4538.02 562.052 L4556.78 555.879 L4575.53 552.371 L4594.28 530.818 L4613.04 539.237 L4631.79 540.213 L4631.79 162.957 L4613.04 163.446 L4594.28 161.894 L4575.53 165.421 L4556.78 164.737 L4538.02 163.235 L4519.27 165.645 L4500.52 166.771 L4481.76 166.719 L4463.01 166.017 L4444.25 163.496 L4425.5 166.971 L4406.75 164.063 L4387.99 168.183 L4369.24 163.991 L4350.48 165.245 L4331.73 163.645 L4312.98 162.791 L4294.22 166.025 L4275.47 165.038 L4256.71 165.744 L4237.96 162.804 L4219.21 165.587 L4200.45 161.922 L4181.7 160.322 L4162.94 161.41 L4144.19 163.568 L4125.44 167.606 L4106.68 168.016 L4087.93 165.377 L4069.17 167.574 L4050.42 167.392 L4031.67 167.56 L4012.91 165.167 L3994.16 161.315 L3975.4 167.793 L3956.65 165.205 L3937.9 170.009 L3919.14 167.773 L3900.39 166.474 L3881.63 165.831 L3862.88 168.11 L3844.13 170.28 L3825.37 167.211 L3806.62 167.341 L3787.86 166.01 L3769.11 169.734 L3750.36 165.685 L3731.6 162.546 L3712.85 163.043 L3694.09 161.579 L3675.34 165.225 L3656.59 164.615 L3637.83 163.15 L3619.08 165.576 L3600.32 166.729 L3581.57 166.689 L3562.82 165.961 L3544.06 163.477 L3525.31 166.952 L3506.56 164.048 L3487.8 168.2 L3469.05 163.984 L3450.29 165.239 L3431.54 163.365 L3412.79 162.785 L3394.03 166.022 L3375.28 165.041 L3356.52 165.745 L3337.77 162.812 L3319.02 165.599 L3300.26 161.938 L3281.51 160.338 L3262.75 161.43 L3244 163.613 L3225.25 167.634 L3206.49 168.047 L3187.74 165.412 L3168.98 167.611 L3150.23 167.429 L3131.48 167.596 L3112.72 165.175 L3093.97 161.346 L3075.21 167.817 L3056.46 165.225 L3037.71 170.077 L3018.95 167.862 L3000.2 166.479 L2981.44 165.84 L2962.69 168.11 L2943.94 170.277 L2925.18 167.203 L2906.43 167.33 L2887.67 165.992 L2868.92 169.715 L2850.17 165.666 L2831.41 162.522 L2812.66 163.015 L2793.9 161.544 L2775.15 165.19 L2756.4 164.575 L2737.64 163.111 L2718.89 165.524 L2700.13 166.697 L2681.38 166.665 L2662.63 165.965 L2643.87 163.128 L2625.12 166.932 L2606.36 164.026 L2587.61 168.147 L2568.86 163.96 L2550.1 165.225 L2531.35 163.342 L2512.6 162.76 L2493.84 165.998 L2475.09 164.684 L2456.33 165.669 L2437.58 162.796 L2418.83 165.587 L2400.07 161.927 L2381.32 160.323 L2362.56 161.43 L2343.81 163.663 L2325.06 167.648 L2306.3 168.048 L2287.55 165.415 L2268.79 167.622 L2250.04 167.448 L2231.29 167.636 L2212.53 165.237 L2193.78 161.404 L2175.02 168.223 L2156.27 165.284 L2137.52 170.373 L2118.76 168.21 L2100.01 166.529 L2081.25 165.887 L2062.5 168.653 L2043.75 170.318 L2024.99 168.175 L2006.24 167.71 L1987.48 166.019 L1968.73 169.39 L1949.98 165.677 L1931.22 162.526 L1912.47 163.006 L1893.71 161.52 L1874.96 165.179 L1856.21 164.548 L1837.45 163.092 L1818.7 165.492 L1799.94 166.667 L1781.19 166.721 L1762.44 165.961 L1743.68 162.239 L1724.93 166.907 L1706.17 164.256 L1687.42 168.106 L1668.67 163.892 L1649.91 164.739 L1631.16 163.265 L1612.4 162.766 L1593.65 165.902 L1574.9 164.6 L1556.14 165.597 L1537.39 162.701 L1518.64 165.465 L1499.88 161.804 L1481.13 160.42 L1462.37 161.307 L1443.62 162.554 L1424.87 166.111 L1406.11 168.041 L1387.36 165.53 L1368.6 167.583 L1349.85 167.358 L1331.1 168.12 L1312.34 165.332 L1293.59 160.132 L1274.83 169.096 L1256.08 165.314 L1237.33 169.348 L1218.57 168.419 L1199.82 166.784 L1181.06 166.056 L1162.31 169.746 L1143.56 171.073 L1124.8 171.6 L1106.05 168.19 L1087.29 165.53 L1068.54 168.949 L1049.79 165.562 L1031.03 162.131 L1012.28 162.451 L993.524 159.73 L974.77 164.886 L956.016 166.618 L937.262 164.719 L918.508 167.827 L899.754 167.462 L881 169.04 L862.246 169.263 L843.492 170.178 L824.738 170.723 L805.984 168.673 L787.231 169.519 L768.477 168.693 L749.723 167.675 L730.969 166.838 L712.215 166.691 L693.461 167.113 L674.707 167.98 L655.953 167.705 L637.199 166.606 L618.445 167.292 L599.691 134.104  Z" fill="#383838" fill-rule="evenodd" fill-opacity="0.5"/>
<polyline clip-path="url(#clip892)" style="stroke:#383838; stroke-linecap:round; stroke-linejoin:round; stroke-width:0; stroke-opacity:1; fill:none" points="599.691,201.569 618.445,215.345 637.199,217.138 655.953,218.264 674.707,218.568 693.461,217.97 712.215,217.827 730.969,218.725 749.723,219.429 768.477,219.615 787.231,219.591 805.984,218.583 824.738,217.447 843.492,216.511 862.246,215.527 881,215.498 899.754,216.396 918.508,217.094 937.262,217.143 956.016,216.809 974.77,215.481 993.524,214.335 1012.28,214.481 1031.03,215.114 1049.79,216.221 1068.54,217.386 1087.29,217.724 1106.05,217.557 1124.8,217.443 1143.56,217.328 1162.31,217.668 1181.06,218.559 1199.82,219.262 1218.57,219.645 1237.33,219.739 1256.08,218.739 1274.83,217.573 1293.59,216.604 1312.34,215.677 1331.1,215.631 1349.85,216.377 1368.6,216.891 1387.36,216.821 1406.11,216.359 1424.87,214.939 1443.62,213.791 1462.37,213.953 1481.13,214.55 1499.88,215.508 1518.64,216.47 1537.39,216.577 1556.14,216.294 1574.9,216.212 1593.65,216.21 1612.4,216.639 1631.16,217.543 1649.91,218.207 1668.67,218.501 1687.42,218.492 1706.17,217.419 1724.93,216.233 1743.68,215.327 1762.44,214.568 1781.19,214.77 1799.94,215.755 1818.7,216.47 1837.45,216.636 1856.21,216.457 1874.96,215.329 1893.71,214.435 1912.47,214.837 1931.22,215.622 1949.98,216.648 1968.73,217.611 1987.48,217.719 2006.24,217.415 2024.99,217.261 2043.75,217.174 2062.5,217.558 2081.25,218.492 2100.01,219.221 2118.76,219.612 2137.52,219.715 2156.27,218.722 2175.02,217.554 2193.78,216.599 2212.53,215.716 2231.29,215.745 2250.04,216.532 2268.79,217.014 2287.55,216.905 2306.3,216.43 2325.06,215.001 2343.81,213.851 2362.56,214.038 2381.32,214.661 2400.07,215.634 2418.83,216.592 2437.58,216.687 2456.33,216.391 2475.09,216.301 2493.84,216.301 2512.6,216.728 2531.35,217.624 2550.1,218.282 2568.86,218.57 2587.61,218.551 2606.36,217.464 2625.12,216.264 2643.87,215.346 2662.63,214.577 2681.38,214.781 2700.13,215.782 2718.89,216.512 2737.64,216.682 2756.4,216.494 2775.15,215.354 2793.9,214.451 2812.66,214.845 2831.41,215.618 2850.17,216.633 2868.92,217.591 2887.67,217.693 2906.43,217.385 2925.18,217.225 2943.94,217.133 2962.69,217.514 2981.44,218.446 3000.2,219.172 3018.95,219.56 3037.71,219.661 3056.46,218.664 3075.21,217.494 3093.97,216.545 3112.72,215.671 3131.48,215.714 3150.23,216.514 3168.98,217.007 3187.74,216.901 3206.49,216.425 3225.25,214.994 3244,213.846 3262.75,214.037 3281.51,214.667 3300.26,215.642 3319.02,216.603 3337.77,216.702 3356.52,216.408 3375.28,216.322 3394.03,216.324 3412.79,216.753 3431.54,217.649 3450.29,218.305 3469.05,218.594 3487.8,218.574 3506.56,217.487 3525.31,216.286 3544.06,215.368 3562.82,214.6 3581.57,214.806 3600.32,215.812 3619.08,216.548 3637.83,216.721 3656.59,216.534 3675.34,215.392 3694.09,214.486 3712.85,214.874 3731.6,215.642 3750.36,216.654 3769.11,217.609 3787.86,217.709 3806.62,217.396 3825.37,217.232 3844.13,217.135 3862.88,217.514 3881.63,218.444 3900.39,219.167 3919.14,219.551 3937.9,219.646 3956.65,218.644 3975.4,217.469 3994.16,216.515 4012.91,215.638 4031.67,215.678 4050.42,216.477 4069.17,216.971 4087.93,216.867 4106.68,216.393 4125.44,214.967 4144.19,213.821 4162.94,214.017 4181.7,214.651 4200.45,215.629 4219.21,216.592 4237.96,216.695 4256.71,216.405 4275.47,216.322 4294.22,216.328 4312.98,216.757 4331.73,217.654 4350.48,218.312 4369.24,218.602 4387.99,218.586 4406.75,217.501 4425.5,216.304 4444.25,215.388 4463.01,214.624 4481.76,214.837 4500.52,215.855 4519.27,216.608 4538.02,216.805 4556.78,216.656 4575.53,215.586 4594.28,214.8 4613.04,215.277 4631.79,216.053 "/>
<path clip-path="url(#clip890)" d="M3863.62 853.161 L4610.29 853.161 L4610.29 334.761 L3863.62 334.761  Z" fill="#ffffff" fill-rule="evenodd" fill-opacity="1"/>
<polyline clip-path="url(#clip890)" style="stroke:#000000; stroke-linecap:round; stroke-linejoin:round; stroke-width:4; stroke-opacity:1; fill:none" points="3863.62,853.161 4610.29,853.161 4610.29,334.761 3863.62,334.761 3863.62,853.161 "/>
<polyline clip-path="url(#clip890)" style="stroke:#dedede; stroke-linecap:round; stroke-linejoin:round; stroke-width:2; stroke-opacity:1; fill:none" points="3911.11,464.361 4196.04,464.361 "/>
<path clip-path="url(#clip890)" d="M4245.21 497.723 L4264.31 497.723 L4264.31 431.809 L4243.53 435.976 L4243.53 425.328 L4264.19 421.161 L4275.88 421.161 L4275.88 497.723 L4294.98 497.723 L4294.98 507.561 L4245.21 507.561 L4245.21 497.723 Z" fill="#000000" fill-rule="nonzero" fill-opacity="1" /><path clip-path="url(#clip890)" d="M4343.59 428.858 Q4334.56 428.858 4329.99 437.77 Q4325.47 446.624 4325.47 464.448 Q4325.47 482.214 4329.99 491.126 Q4334.56 499.98 4343.59 499.98 Q4352.67 499.98 4357.19 491.126 Q4361.76 482.214 4361.76 464.448 Q4361.76 446.624 4357.19 437.77 Q4352.67 428.858 4343.59 428.858 M4343.59 419.599 Q4358.11 419.599 4365.75 431.115 Q4373.45 442.573 4373.45 464.448 Q4373.45 486.265 4365.75 497.781 Q4358.11 509.239 4343.59 509.239 Q4329.06 509.239 4321.37 497.781 Q4313.73 486.265 4313.73 464.448 Q4313.73 442.573 4321.37 431.115 Q4329.06 419.599 4343.59 419.599 Z" fill="#000000" fill-rule="nonzero" fill-opacity="1" /><path clip-path="url(#clip890)" d="M4418.99 428.858 Q4409.96 428.858 4405.39 437.77 Q4400.88 446.624 4400.88 464.448 Q4400.88 482.214 4405.39 491.126 Q4409.96 499.98 4418.99 499.98 Q4428.08 499.98 4432.59 491.126 Q4437.16 482.214 4437.16 464.448 Q4437.16 446.624 4432.59 437.77 Q4428.08 428.858 4418.99 428.858 M4418.99 419.599 Q4433.52 419.599 4441.16 431.115 Q4448.85 442.573 4448.85 464.448 Q4448.85 486.265 4441.16 497.781 Q4433.52 509.239 4418.99 509.239 Q4404.47 509.239 4396.77 497.781 Q4389.13 486.265 4389.13 464.448 Q4389.13 442.573 4396.77 431.115 Q4404.47 419.599 4418.99 419.599 Z" fill="#000000" fill-rule="nonzero" fill-opacity="1" /><path clip-path="url(#clip890)" d="M4542.89 469.541 Q4537.86 469.541 4534.96 473.823 Q4532.13 478.105 4532.13 485.744 Q4532.13 493.267 4534.96 497.608 Q4537.86 501.89 4542.89 501.89 Q4547.81 501.89 4550.65 497.608 Q4553.54 493.267 4553.54 485.744 Q4553.54 478.163 4550.65 473.881 Q4547.81 469.541 4542.89 469.541 M4542.89 462.191 Q4552.04 462.191 4557.42 468.557 Q4562.8 474.923 4562.8 485.744 Q4562.8 496.566 4557.36 502.932 Q4551.98 509.239 4542.89 509.239 Q4533.63 509.239 4528.25 502.932 Q4522.87 496.566 4522.87 485.744 Q4522.87 474.865 4528.25 468.557 Q4533.69 462.191 4542.89 462.191 M4483.17 426.948 Q4478.19 426.948 4475.3 431.289 Q4472.46 435.571 4472.46 443.094 Q4472.46 450.733 4475.3 455.015 Q4478.14 459.298 4483.17 459.298 Q4488.2 459.298 4491.04 455.015 Q4493.93 450.733 4493.93 443.094 Q4493.93 435.629 4491.04 431.289 Q4488.15 426.948 4483.17 426.948 M4535.43 419.599 L4544.69 419.599 L4490.64 509.239 L4481.38 509.239 L4535.43 419.599 M4483.17 419.599 Q4492.31 419.599 4497.75 425.964 Q4503.19 432.272 4503.19 443.094 Q4503.19 454.031 4497.75 460.339 Q4492.37 466.647 4483.17 466.647 Q4473.97 466.647 4468.59 460.339 Q4463.26 453.974 4463.26 443.094 Q4463.26 432.33 4468.64 425.964 Q4474.03 419.599 4483.17 419.599 Z" fill="#000000" fill-rule="nonzero" fill-opacity="1" /><polyline clip-path="url(#clip890)" style="stroke:#6d6d6d; stroke-linecap:round; stroke-linejoin:round; stroke-width:2; stroke-opacity:1; fill:none" points="3911.11,593.961 4196.04,593.961 "/>
<path clip-path="url(#clip890)" d="M4249.09 635.367 L4249.09 624.719 Q4253.48 626.803 4258 627.902 Q4262.51 629.002 4266.85 629.002 Q4278.43 629.002 4284.5 621.247 Q4290.64 613.435 4291.5 597.578 Q4288.15 602.555 4283 605.217 Q4277.85 607.879 4271.6 607.879 Q4258.63 607.879 4251.05 600.067 Q4243.53 592.196 4243.53 578.597 Q4243.53 565.287 4251.4 557.243 Q4259.27 549.199 4272.35 549.199 Q4287.34 549.199 4295.21 560.715 Q4303.14 572.173 4303.14 594.048 Q4303.14 614.476 4293.41 626.687 Q4283.75 638.839 4267.37 638.839 Q4262.97 638.839 4258.46 637.971 Q4253.95 637.103 4249.09 635.367 M4272.35 598.736 Q4280.22 598.736 4284.79 593.354 Q4289.42 587.972 4289.42 578.597 Q4289.42 569.28 4284.79 563.898 Q4280.22 558.458 4272.35 558.458 Q4264.48 558.458 4259.85 563.898 Q4255.28 569.28 4255.28 578.597 Q4255.28 587.972 4259.85 593.354 Q4264.48 598.736 4272.35 598.736 Z" fill="#000000" fill-rule="nonzero" fill-opacity="1" /><path clip-path="url(#clip890)" d="M4349.14 558.458 Q4340.12 558.458 4335.54 567.37 Q4331.03 576.224 4331.03 594.048 Q4331.03 611.814 4335.54 620.726 Q4340.12 629.58 4349.14 629.58 Q4358.23 629.58 4362.74 620.726 Q4367.31 611.814 4367.31 594.048 Q4367.31 576.224 4362.74 567.37 Q4358.23 558.458 4349.14 558.458 M4349.14 549.199 Q4363.67 549.199 4371.31 560.715 Q4379 572.173 4379 594.048 Q4379 615.865 4371.31 627.381 Q4363.67 638.839 4349.14 638.839 Q4334.62 638.839 4326.92 627.381 Q4319.28 615.865 4319.28 594.048 Q4319.28 572.173 4326.92 560.715 Q4334.62 549.199 4349.14 549.199 Z" fill="#000000" fill-rule="nonzero" fill-opacity="1" /><path clip-path="url(#clip890)" d="M4473.04 599.141 Q4468.01 599.141 4465.11 603.423 Q4462.28 607.705 4462.28 615.344 Q4462.28 622.867 4465.11 627.208 Q4468.01 631.49 4473.04 631.49 Q4477.96 631.49 4480.8 627.208 Q4483.69 622.867 4483.69 615.344 Q4483.69 607.763 4480.8 603.481 Q4477.96 599.141 4473.04 599.141 M4473.04 591.791 Q4482.19 591.791 4487.57 598.157 Q4492.95 604.523 4492.95 615.344 Q4492.95 626.166 4487.51 632.532 Q4482.13 638.839 4473.04 638.839 Q4463.78 638.839 4458.4 632.532 Q4453.02 626.166 4453.02 615.344 Q4453.02 604.465 4458.4 598.157 Q4463.84 591.791 4473.04 591.791 M4413.32 556.548 Q4408.34 556.548 4405.45 560.889 Q4402.61 565.171 4402.61 572.694 Q4402.61 580.333 4405.45 584.615 Q4408.29 588.898 4413.32 588.898 Q4418.36 588.898 4421.19 584.615 Q4424.08 580.333 4424.08 572.694 Q4424.08 565.229 4421.19 560.889 Q4418.3 556.548 4413.32 556.548 M4465.58 549.199 L4474.84 549.199 L4420.79 638.839 L4411.53 638.839 L4465.58 549.199 M4413.32 549.199 Q4422.46 549.199 4427.9 555.564 Q4433.34 561.872 4433.34 572.694 Q4433.34 583.631 4427.9 589.939 Q4422.52 596.247 4413.32 596.247 Q4404.12 596.247 4398.74 589.939 Q4393.41 583.574 4393.41 572.694 Q4393.41 561.93 4398.8 555.564 Q4404.18 549.199 4413.32 549.199 Z" fill="#000000" fill-rule="nonzero" fill-opacity="1" /><polyline clip-path="url(#clip890)" style="stroke:#383838; stroke-linecap:round; stroke-linejoin:round; stroke-width:2; stroke-opacity:1; fill:none" points="3911.11,723.561 4196.04,723.561 "/>
<path clip-path="url(#clip890)" d="M4273.16 725.731 Q4264.83 725.731 4260.02 730.187 Q4255.28 734.643 4255.28 742.456 Q4255.28 750.268 4260.02 754.724 Q4264.83 759.18 4273.16 759.18 Q4281.49 759.18 4286.3 754.724 Q4291.1 750.21 4291.1 742.456 Q4291.1 734.643 4286.3 730.187 Q4281.55 725.731 4273.16 725.731 M4261.47 720.755 Q4253.95 718.903 4249.72 713.752 Q4245.56 708.602 4245.56 701.194 Q4245.56 690.836 4252.9 684.817 Q4260.31 678.799 4273.16 678.799 Q4286.06 678.799 4293.41 684.817 Q4300.76 690.836 4300.76 701.194 Q4300.76 708.602 4296.54 713.752 Q4292.37 718.903 4284.91 720.755 Q4293.36 722.722 4298.04 728.451 Q4302.79 734.18 4302.79 742.456 Q4302.79 755.014 4295.09 761.727 Q4287.45 768.439 4273.16 768.439 Q4258.87 768.439 4251.17 761.727 Q4243.53 755.014 4243.53 742.456 Q4243.53 734.18 4248.28 728.451 Q4253.02 722.722 4261.47 720.755 M4257.19 702.294 Q4257.19 709.007 4261.35 712.768 Q4265.58 716.53 4273.16 716.53 Q4280.68 716.53 4284.91 712.768 Q4289.19 709.007 4289.19 702.294 Q4289.19 695.581 4284.91 691.82 Q4280.68 688.058 4273.16 688.058 Q4265.58 688.058 4261.35 691.82 Q4257.19 695.581 4257.19 702.294 Z" fill="#000000" fill-rule="nonzero" fill-opacity="1" /><path clip-path="url(#clip890)" d="M4348.56 688.058 Q4339.54 688.058 4334.96 696.97 Q4330.45 705.824 4330.45 723.648 Q4330.45 741.414 4334.96 750.326 Q4339.54 759.18 4348.56 759.18 Q4357.65 759.18 4362.16 750.326 Q4366.74 741.414 4366.74 723.648 Q4366.74 705.824 4362.16 696.97 Q4357.65 688.058 4348.56 688.058 M4348.56 678.799 Q4363.09 678.799 4370.73 690.315 Q4378.43 701.773 4378.43 723.648 Q4378.43 745.465 4370.73 756.981 Q4363.09 768.439 4348.56 768.439 Q4334.04 768.439 4326.34 756.981 Q4318.7 745.465 4318.7 723.648 Q4318.7 701.773 4326.34 690.315 Q4334.04 678.799 4348.56 678.799 Z" fill="#000000" fill-rule="nonzero" fill-opacity="1" /><path clip-path="url(#clip890)" d="M4472.46 728.741 Q4467.43 728.741 4464.54 733.023 Q4461.7 737.305 4461.7 744.944 Q4461.7 752.467 4464.54 756.808 Q4467.43 761.09 4472.46 761.09 Q4477.38 761.09 4480.22 756.808 Q4483.11 752.467 4483.11 744.944 Q4483.11 737.363 4480.22 733.081 Q4477.38 728.741 4472.46 728.741 M4472.46 721.391 Q4481.61 721.391 4486.99 727.757 Q4492.37 734.123 4492.37 744.944 Q4492.37 755.766 4486.93 762.132 Q4481.55 768.439 4472.46 768.439 Q4463.2 768.439 4457.82 762.132 Q4452.44 755.766 4452.44 744.944 Q4452.44 734.065 4457.82 727.757 Q4463.26 721.391 4472.46 721.391 M4412.74 686.148 Q4407.77 686.148 4404.87 690.489 Q4402.04 694.771 4402.04 702.294 Q4402.04 709.933 4404.87 714.215 Q4407.71 718.498 4412.74 718.498 Q4417.78 718.498 4420.61 714.215 Q4423.51 709.933 4423.51 702.294 Q4423.51 694.829 4420.61 690.489 Q4417.72 686.148 4412.74 686.148 M4465 678.799 L4474.26 678.799 L4420.21 768.439 L4410.95 768.439 L4465 678.799 M4412.74 678.799 Q4421.89 678.799 4427.33 685.164 Q4432.77 691.472 4432.77 702.294 Q4432.77 713.231 4427.33 719.539 Q4421.94 725.847 4412.74 725.847 Q4403.54 725.847 4398.16 719.539 Q4392.83 713.174 4392.83 702.294 Q4392.83 691.53 4398.22 685.164 Q4403.6 678.799 4412.74 678.799 Z" fill="#000000" fill-rule="nonzero" fill-opacity="1" /></svg>
