<?xml version="1.0" encoding="utf-8"?>
<svg xmlns="http://www.w3.org/2000/svg" xmlns:xlink="http://www.w3.org/1999/xlink" width="1200" height="300" viewBox="0 0 4800 1200">
<defs>
  <clipPath id="clip690">
    <rect x="0" y="0" width="4800" height="1200"/>
  </clipPath>
</defs>
<path clip-path="url(#clip690)" d="M0 1200 L4800 1200 L4800 0 L0 0  Z" fill="#ffffff" fill-rule="evenodd" fill-opacity="1"/>
<defs>
  <clipPath id="clip691">
    <rect x="960" y="0" width="3361" height="1200"/>
  </clipPath>
</defs>
<path clip-path="url(#clip690)" d="M541.32 880.951 L4752.76 880.951 L4752.76 47.2441 L541.32 47.2441  Z" fill="#ffffff" fill-rule="evenodd" fill-opacity="1"/>
<defs>
  <clipPath id="clip692">
    <rect x="541" y="47" width="4212" height="835"/>
  </clipPath>
</defs>
<polyline clip-path="url(#clip692)" style="stroke:#000000; stroke-linecap:round; stroke-linejoin:round; stroke-width:2; stroke-opacity:0.1; fill:none" points="1085.54,880.951 1085.54,47.2441 "/>
<polyline clip-path="url(#clip692)" style="stroke:#000000; stroke-linecap:round; stroke-linejoin:round; stroke-width:2; stroke-opacity:0.1; fill:none" points="1972.54,880.951 1972.54,47.2441 "/>
<polyline clip-path="url(#clip692)" style="stroke:#000000; stroke-linecap:round; stroke-linejoin:round; stroke-width:2; stroke-opacity:0.1; fill:none" points="2859.55,880.951 2859.55,47.2441 "/>
<polyline clip-path="url(#clip692)" style="stroke:#000000; stroke-linecap:round; stroke-linejoin:round; stroke-width:2; stroke-opacity:0.1; fill:none" points="3746.56,880.951 3746.56,47.2441 "/>
<polyline clip-path="url(#clip692)" style="stroke:#000000; stroke-linecap:round; stroke-linejoin:round; stroke-width:2; stroke-opacity:0.1; fill:none" points="4633.56,880.951 4633.56,47.2441 "/>
<polyline clip-path="url(#clip690)" style="stroke:#000000; stroke-linecap:round; stroke-linejoin:round; stroke-width:4; stroke-opacity:1; fill:none" points="541.32,880.951 4752.76,880.951 "/>
<polyline clip-path="url(#clip690)" style="stroke:#000000; stroke-linecap:round; stroke-linejoin:round; stroke-width:4; stroke-opacity:1; fill:none" points="1085.54,880.951 1085.54,862.054 "/>
<polyline clip-path="url(#clip690)" style="stroke:#000000; stroke-linecap:round; stroke-linejoin:round; stroke-width:4; stroke-opacity:1; fill:none" points="1972.54,880.951 1972.54,862.054 "/>
<polyline clip-path="url(#clip690)" style="stroke:#000000; stroke-linecap:round; stroke-linejoin:round; stroke-width:4; stroke-opacity:1; fill:none" points="2859.55,880.951 2859.55,862.054 "/>
<polyline clip-path="url(#clip690)" style="stroke:#000000; stroke-linecap:round; stroke-linejoin:round; stroke-width:4; stroke-opacity:1; fill:none" points="3746.56,880.951 3746.56,862.054 "/>
<polyline clip-path="url(#clip690)" style="stroke:#000000; stroke-linecap:round; stroke-linejoin:round; stroke-width:4; stroke-opacity:1; fill:none" points="4633.56,880.951 4633.56,862.054 "/>
<path clip-path="url(#clip690)" d="M1074.84 997.881 L1107.48 997.881 L1107.48 1005.75 L1063.59 1005.75 L1063.59 997.881 Q1068.92 992.372 1078.08 983.113 Q1087.3 973.807 1089.66 971.122 Q1094.15 966.076 1095.91 962.604 Q1097.71 959.085 1097.71 955.705 Q1097.71 950.196 1093.82 946.724 Q1089.98 943.252 1083.78 943.252 Q1079.38 943.252 1074.47 944.78 Q1069.61 946.307 1064.05 949.409 L1064.05 939.965 Q1069.7 937.696 1074.61 936.539 Q1079.52 935.382 1083.59 935.382 Q1094.33 935.382 1100.72 940.752 Q1107.11 946.122 1107.11 955.104 Q1107.11 959.363 1105.49 963.205 Q1103.92 967.002 1099.7 972.187 Q1098.55 973.529 1092.34 979.965 Q1086.14 986.353 1074.84 997.881 Z" fill="#000000" fill-rule="nonzero" fill-opacity="1" /><path clip-path="url(#clip690)" d="M1978.56 944.78 L1954.95 981.678 L1978.56 981.678 L1978.56 944.78 M1976.11 936.631 L1987.87 936.631 L1987.87 981.678 L1997.73 981.678 L1997.73 989.455 L1987.87 989.455 L1987.87 1005.75 L1978.56 1005.75 L1978.56 989.455 L1947.36 989.455 L1947.36 980.428 L1976.11 936.631 Z" fill="#000000" fill-rule="nonzero" fill-opacity="1" /><path clip-path="url(#clip690)" d="M2860.36 967.465 Q2854.06 967.465 2850.36 971.77 Q2846.7 976.076 2846.7 983.576 Q2846.7 991.029 2850.36 995.381 Q2854.06 999.687 2860.36 999.687 Q2866.66 999.687 2870.31 995.381 Q2874.02 991.029 2874.02 983.576 Q2874.02 976.076 2870.31 971.77 Q2866.66 967.465 2860.36 967.465 M2878.93 938.159 L2878.93 946.678 Q2875.41 945.011 2871.8 944.131 Q2868.23 943.252 2864.71 943.252 Q2855.45 943.252 2850.55 949.502 Q2845.68 955.752 2844.99 968.391 Q2847.72 964.363 2851.84 962.233 Q2855.96 960.057 2860.92 960.057 Q2871.33 960.057 2877.35 966.4 Q2883.42 972.696 2883.42 983.576 Q2883.42 994.224 2877.12 1000.66 Q2870.82 1007.09 2860.36 1007.09 Q2848.37 1007.09 2842.03 997.927 Q2835.68 988.715 2835.68 971.261 Q2835.68 954.872 2843.46 945.15 Q2851.24 935.382 2864.34 935.382 Q2867.86 935.382 2871.43 936.076 Q2875.04 936.77 2878.93 938.159 Z" fill="#000000" fill-rule="nonzero" fill-opacity="1" /><path clip-path="url(#clip690)" d="M3746.56 972.928 Q3739.89 972.928 3736.05 976.492 Q3732.25 980.057 3732.25 986.307 Q3732.25 992.557 3736.05 996.122 Q3739.89 999.687 3746.56 999.687 Q3753.22 999.687 3757.07 996.122 Q3760.91 992.511 3760.91 986.307 Q3760.91 980.057 3757.07 976.492 Q3753.27 972.928 3746.56 972.928 M3737.21 968.946 Q3731.19 967.465 3727.81 963.344 Q3724.47 959.224 3724.47 953.298 Q3724.47 945.011 3730.35 940.196 Q3736.28 935.382 3746.56 935.382 Q3756.88 935.382 3762.76 940.196 Q3768.64 945.011 3768.64 953.298 Q3768.64 959.224 3765.26 963.344 Q3761.93 967.465 3755.96 968.946 Q3762.71 970.52 3766.46 975.104 Q3770.26 979.687 3770.26 986.307 Q3770.26 996.353 3764.1 1001.72 Q3757.99 1007.09 3746.56 1007.09 Q3735.12 1007.09 3728.96 1001.72 Q3722.85 996.353 3722.85 986.307 Q3722.85 979.687 3726.65 975.104 Q3730.45 970.52 3737.21 968.946 M3733.78 954.178 Q3733.78 959.548 3737.11 962.557 Q3740.49 965.567 3746.56 965.567 Q3752.58 965.567 3755.96 962.557 Q3759.38 959.548 3759.38 954.178 Q3759.38 948.807 3755.96 945.798 Q3752.58 942.789 3746.56 942.789 Q3740.49 942.789 3737.11 945.798 Q3733.78 948.807 3733.78 954.178 Z" fill="#000000" fill-rule="nonzero" fill-opacity="1" /><path clip-path="url(#clip690)" d="M4582.94 997.881 L4598.22 997.881 L4598.22 945.15 L4581.6 948.483 L4581.6 939.965 L4598.12 936.631 L4607.48 936.631 L4607.48 997.881 L4622.75 997.881 L4622.75 1005.75 L4582.94 1005.75 L4582.94 997.881 Z" fill="#000000" fill-rule="nonzero" fill-opacity="1" /><path clip-path="url(#clip690)" d="M4661.64 942.789 Q4654.42 942.789 4650.76 949.918 Q4647.15 957.002 4647.15 971.261 Q4647.15 985.474 4650.76 992.603 Q4654.42 999.687 4661.64 999.687 Q4668.91 999.687 4672.52 992.603 Q4676.18 985.474 4676.18 971.261 Q4676.18 957.002 4672.52 949.918 Q4668.91 942.789 4661.64 942.789 M4661.64 935.382 Q4673.26 935.382 4679.37 944.594 Q4685.53 953.761 4685.53 971.261 Q4685.53 988.715 4679.37 997.927 Q4673.26 1007.09 4661.64 1007.09 Q4650.02 1007.09 4643.87 997.927 Q4637.75 988.715 4637.75 971.261 Q4637.75 953.761 4643.87 944.594 Q4650.02 935.382 4661.64 935.382 Z" fill="#000000" fill-rule="nonzero" fill-opacity="1" /><path clip-path="url(#clip690)" d="M2364.28 1072.18 L2430.06 1072.18 L2430.06 1081.04 L2402.46 1081.04 L2402.46 1149.94 L2391.88 1149.94 L2391.88 1081.04 L2364.28 1081.04 L2364.28 1072.18 Z" fill="#000000" fill-rule="nonzero" fill-opacity="1" /><path clip-path="url(#clip690)" d="M2436.52 1091.61 L2446.1 1091.61 L2446.1 1149.94 L2436.52 1149.94 L2436.52 1091.61 M2436.52 1068.9 L2446.1 1068.9 L2446.1 1081.04 L2436.52 1081.04 L2436.52 1068.9 Z" fill="#000000" fill-rule="nonzero" fill-opacity="1" /><path clip-path="url(#clip690)" d="M2511.57 1102.81 Q2515.16 1096.35 2520.16 1093.28 Q2525.16 1090.2 2531.93 1090.2 Q2541.05 1090.2 2546 1096.61 Q2550.94 1102.96 2550.94 1114.74 L2550.94 1149.94 L2541.31 1149.94 L2541.31 1115.05 Q2541.31 1106.66 2538.34 1102.6 Q2535.37 1098.54 2529.28 1098.54 Q2521.83 1098.54 2517.51 1103.49 Q2513.18 1108.43 2513.18 1116.97 L2513.18 1149.94 L2503.55 1149.94 L2503.55 1115.05 Q2503.55 1106.61 2500.58 1102.6 Q2497.61 1098.54 2491.41 1098.54 Q2484.07 1098.54 2479.75 1103.54 Q2475.42 1108.49 2475.42 1116.97 L2475.42 1149.94 L2465.79 1149.94 L2465.79 1091.61 L2475.42 1091.61 L2475.42 1100.67 Q2478.71 1095.31 2483.29 1092.76 Q2487.87 1090.2 2494.17 1090.2 Q2500.53 1090.2 2504.96 1093.43 Q2509.43 1096.66 2511.57 1102.81 Z" fill="#000000" fill-rule="nonzero" fill-opacity="1" /><path clip-path="url(#clip690)" d="M2619.95 1118.38 L2619.95 1123.07 L2575.89 1123.07 Q2576.52 1132.96 2581.83 1138.17 Q2587.19 1143.33 2596.73 1143.33 Q2602.25 1143.33 2607.4 1141.97 Q2612.61 1140.62 2617.72 1137.91 L2617.72 1146.97 Q2612.56 1149.16 2607.14 1150.31 Q2601.73 1151.45 2596.15 1151.45 Q2582.19 1151.45 2574.02 1143.33 Q2565.89 1135.2 2565.89 1121.35 Q2565.89 1107.03 2573.6 1098.64 Q2581.36 1090.2 2594.49 1090.2 Q2606.26 1090.2 2613.08 1097.81 Q2619.95 1105.36 2619.95 1118.38 M2610.37 1115.57 Q2610.27 1107.7 2605.94 1103.02 Q2601.67 1098.33 2594.59 1098.33 Q2586.57 1098.33 2581.73 1102.86 Q2576.93 1107.39 2576.21 1115.62 L2610.37 1115.57 Z" fill="#000000" fill-rule="nonzero" fill-opacity="1" /><path clip-path="url(#clip690)" d="M2692.61 1069.01 Q2685.63 1080.99 2682.25 1092.7 Q2678.86 1104.42 2678.86 1116.45 Q2678.86 1128.49 2682.25 1140.31 Q2685.68 1152.08 2692.61 1164.01 L2684.28 1164.01 Q2676.46 1151.77 2672.56 1139.94 Q2668.7 1128.12 2668.7 1116.45 Q2668.7 1104.84 2672.56 1093.07 Q2676.41 1081.3 2684.28 1069.01 L2692.61 1069.01 Z" fill="#000000" fill-rule="nonzero" fill-opacity="1" /><path clip-path="url(#clip690)" d="M2749.59 1100.46 L2749.59 1068.9 L2759.17 1068.9 L2759.17 1149.94 L2749.59 1149.94 L2749.59 1141.19 Q2746.57 1146.4 2741.93 1148.95 Q2737.35 1151.45 2730.89 1151.45 Q2720.32 1151.45 2713.65 1143.02 Q2707.04 1134.58 2707.04 1120.83 Q2707.04 1107.08 2713.65 1098.64 Q2720.32 1090.2 2730.89 1090.2 Q2737.35 1090.2 2741.93 1092.76 Q2746.57 1095.26 2749.59 1100.46 M2716.93 1120.83 Q2716.93 1131.4 2721.26 1137.44 Q2725.63 1143.43 2733.24 1143.43 Q2740.84 1143.43 2745.21 1137.44 Q2749.59 1131.4 2749.59 1120.83 Q2749.59 1110.26 2745.21 1104.27 Q2740.84 1098.23 2733.24 1098.23 Q2725.63 1098.23 2721.26 1104.27 Q2716.93 1110.26 2716.93 1120.83 Z" fill="#000000" fill-rule="nonzero" fill-opacity="1" /><path clip-path="url(#clip690)" d="M2805.42 1120.62 Q2793.81 1120.62 2789.33 1123.28 Q2784.85 1125.93 2784.85 1132.34 Q2784.85 1137.44 2788.18 1140.46 Q2791.57 1143.43 2797.35 1143.43 Q2805.32 1143.43 2810.11 1137.81 Q2814.95 1132.13 2814.95 1122.76 L2814.95 1120.62 L2805.42 1120.62 M2824.54 1116.66 L2824.54 1149.94 L2814.95 1149.94 L2814.95 1141.09 Q2811.67 1146.4 2806.78 1148.95 Q2801.88 1151.45 2794.8 1151.45 Q2785.84 1151.45 2780.53 1146.45 Q2775.27 1141.4 2775.27 1132.96 Q2775.27 1123.12 2781.83 1118.12 Q2788.44 1113.12 2801.52 1113.12 L2814.95 1113.12 L2814.95 1112.18 Q2814.95 1105.57 2810.58 1101.98 Q2806.26 1098.33 2798.39 1098.33 Q2793.39 1098.33 2788.65 1099.53 Q2783.91 1100.73 2779.54 1103.12 L2779.54 1094.27 Q2784.8 1092.24 2789.75 1091.25 Q2794.69 1090.2 2799.38 1090.2 Q2812.04 1090.2 2818.29 1096.77 Q2824.54 1103.33 2824.54 1116.66 Z" fill="#000000" fill-rule="nonzero" fill-opacity="1" /><path clip-path="url(#clip690)" d="M2868.55 1155.36 Q2864.48 1165.78 2860.63 1168.95 Q2856.78 1172.13 2850.32 1172.13 L2842.66 1172.13 L2842.66 1164.11 L2848.29 1164.11 Q2852.25 1164.11 2854.43 1162.24 Q2856.62 1160.36 2859.28 1153.38 L2861 1149.01 L2837.4 1091.61 L2847.56 1091.61 L2865.79 1137.24 L2884.02 1091.61 L2894.17 1091.61 L2868.55 1155.36 Z" fill="#000000" fill-rule="nonzero" fill-opacity="1" /><path clip-path="url(#clip690)" d="M2905.89 1069.01 L2914.22 1069.01 Q2922.04 1081.3 2925.89 1093.07 Q2929.8 1104.84 2929.8 1116.45 Q2929.8 1128.12 2925.89 1139.94 Q2922.04 1151.77 2914.22 1164.01 L2905.89 1164.01 Q2912.82 1152.08 2916.2 1140.31 Q2919.64 1128.49 2919.64 1116.45 Q2919.64 1104.42 2916.2 1092.7 Q2912.82 1080.99 2905.89 1069.01 Z" fill="#000000" fill-rule="nonzero" fill-opacity="1" /><polyline clip-path="url(#clip692)" style="stroke:#000000; stroke-linecap:round; stroke-linejoin:round; stroke-width:2; stroke-opacity:0.1; fill:none" points="541.32,803.193 4752.76,803.193 "/>
<polyline clip-path="url(#clip692)" style="stroke:#000000; stroke-linecap:round; stroke-linejoin:round; stroke-width:2; stroke-opacity:0.1; fill:none" points="541.32,689.982 4752.76,689.982 "/>
<polyline clip-path="url(#clip692)" style="stroke:#000000; stroke-linecap:round; stroke-linejoin:round; stroke-width:2; stroke-opacity:0.1; fill:none" points="541.32,576.771 4752.76,576.771 "/>
<polyline clip-path="url(#clip692)" style="stroke:#000000; stroke-linecap:round; stroke-linejoin:round; stroke-width:2; stroke-opacity:0.1; fill:none" points="541.32,463.56 4752.76,463.56 "/>
<polyline clip-path="url(#clip692)" style="stroke:#000000; stroke-linecap:round; stroke-linejoin:round; stroke-width:2; stroke-opacity:0.1; fill:none" points="541.32,350.349 4752.76,350.349 "/>
<polyline clip-path="url(#clip692)" style="stroke:#000000; stroke-linecap:round; stroke-linejoin:round; stroke-width:2; stroke-opacity:0.1; fill:none" points="541.32,237.138 4752.76,237.138 "/>
<polyline clip-path="url(#clip692)" style="stroke:#000000; stroke-linecap:round; stroke-linejoin:round; stroke-width:2; stroke-opacity:0.1; fill:none" points="541.32,123.927 4752.76,123.927 "/>
<polyline clip-path="url(#clip690)" style="stroke:#000000; stroke-linecap:round; stroke-linejoin:round; stroke-width:4; stroke-opacity:1; fill:none" points="541.32,880.951 541.32,47.2441 "/>
<polyline clip-path="url(#clip690)" style="stroke:#000000; stroke-linecap:round; stroke-linejoin:round; stroke-width:4; stroke-opacity:1; fill:none" points="541.32,803.193 560.218,803.193 "/>
<polyline clip-path="url(#clip690)" style="stroke:#000000; stroke-linecap:round; stroke-linejoin:round; stroke-width:4; stroke-opacity:1; fill:none" points="541.32,689.982 560.218,689.982 "/>
<polyline clip-path="url(#clip690)" style="stroke:#000000; stroke-linecap:round; stroke-linejoin:round; stroke-width:4; stroke-opacity:1; fill:none" points="541.32,576.771 560.218,576.771 "/>
<polyline clip-path="url(#clip690)" style="stroke:#000000; stroke-linecap:round; stroke-linejoin:round; stroke-width:4; stroke-opacity:1; fill:none" points="541.32,463.56 560.218,463.56 "/>
<polyline clip-path="url(#clip690)" style="stroke:#000000; stroke-linecap:round; stroke-linejoin:round; stroke-width:4; stroke-opacity:1; fill:none" points="541.32,350.349 560.218,350.349 "/>
<polyline clip-path="url(#clip690)" style="stroke:#000000; stroke-linecap:round; stroke-linejoin:round; stroke-width:4; stroke-opacity:1; fill:none" points="541.32,237.138 560.218,237.138 "/>
<polyline clip-path="url(#clip690)" style="stroke:#000000; stroke-linecap:round; stroke-linejoin:round; stroke-width:4; stroke-opacity:1; fill:none" points="541.32,123.927 560.218,123.927 "/>
<path clip-path="url(#clip690)" d="M194.136 804.096 L253.488 804.096 L253.488 811.966 L194.136 811.966 L194.136 804.096 Z" fill="#000000" fill-rule="nonzero" fill-opacity="1" /><path clip-path="url(#clip690)" d="M293.673 774.79 Q286.451 774.79 282.793 781.92 Q279.182 789.003 279.182 803.262 Q279.182 817.475 282.793 824.605 Q286.451 831.688 293.673 831.688 Q300.941 831.688 304.552 824.605 Q308.21 817.475 308.21 803.262 Q308.21 789.003 304.552 781.92 Q300.941 774.79 293.673 774.79 M293.673 767.383 Q305.293 767.383 311.404 776.596 Q317.562 785.762 317.562 803.262 Q317.562 820.716 311.404 829.929 Q305.293 839.095 293.673 839.095 Q282.053 839.095 275.895 829.929 Q269.784 820.716 269.784 803.262 Q269.784 785.762 275.895 776.596 Q282.053 767.383 293.673 767.383 Z" fill="#000000" fill-rule="nonzero" fill-opacity="1" /><path clip-path="url(#clip690)" d="M333.997 825.994 L343.765 825.994 L343.765 837.753 L333.997 837.753 L333.997 825.994 Z" fill="#000000" fill-rule="nonzero" fill-opacity="1" /><path clip-path="url(#clip690)" d="M384.135 774.79 Q376.913 774.79 373.256 781.92 Q369.645 789.003 369.645 803.262 Q369.645 817.475 373.256 824.605 Q376.913 831.688 384.135 831.688 Q391.404 831.688 395.015 824.605 Q398.672 817.475 398.672 803.262 Q398.672 789.003 395.015 781.92 Q391.404 774.79 384.135 774.79 M384.135 767.383 Q395.756 767.383 401.867 776.596 Q408.024 785.762 408.024 803.262 Q408.024 820.716 401.867 829.929 Q395.756 839.095 384.135 839.095 Q372.515 839.095 366.358 829.929 Q360.247 820.716 360.247 803.262 Q360.247 785.762 366.358 776.596 Q372.515 767.383 384.135 767.383 Z" fill="#000000" fill-rule="nonzero" fill-opacity="1" /><path clip-path="url(#clip690)" d="M450.154 776.781 L426.543 813.679 L450.154 813.679 L450.154 776.781 M447.7 768.633 L459.459 768.633 L459.459 813.679 L469.32 813.679 L469.32 821.457 L459.459 821.457 L459.459 837.753 L450.154 837.753 L450.154 821.457 L418.95 821.457 L418.95 812.429 L447.7 768.633 Z" fill="#000000" fill-rule="nonzero" fill-opacity="1" /><path clip-path="url(#clip690)" d="M196.405 690.885 L255.756 690.885 L255.756 698.755 L196.405 698.755 L196.405 690.885 Z" fill="#000000" fill-rule="nonzero" fill-opacity="1" /><path clip-path="url(#clip690)" d="M295.941 661.579 Q288.719 661.579 285.062 668.709 Q281.451 675.792 281.451 690.051 Q281.451 704.264 285.062 711.394 Q288.719 718.477 295.941 718.477 Q303.21 718.477 306.821 711.394 Q310.478 704.264 310.478 690.051 Q310.478 675.792 306.821 668.709 Q303.21 661.579 295.941 661.579 M295.941 654.172 Q307.562 654.172 313.673 663.385 Q319.83 672.551 319.83 690.051 Q319.83 707.505 313.673 716.718 Q307.562 725.884 295.941 725.884 Q284.321 725.884 278.164 716.718 Q272.053 707.505 272.053 690.051 Q272.053 672.551 278.164 663.385 Q284.321 654.172 295.941 654.172 Z" fill="#000000" fill-rule="nonzero" fill-opacity="1" /><path clip-path="url(#clip690)" d="M336.265 712.783 L346.034 712.783 L346.034 724.542 L336.265 724.542 L336.265 712.783 Z" fill="#000000" fill-rule="nonzero" fill-opacity="1" /><path clip-path="url(#clip690)" d="M386.404 661.579 Q379.182 661.579 375.524 668.709 Q371.913 675.792 371.913 690.051 Q371.913 704.264 375.524 711.394 Q379.182 718.477 386.404 718.477 Q393.672 718.477 397.283 711.394 Q400.941 704.264 400.941 690.051 Q400.941 675.792 397.283 668.709 Q393.672 661.579 386.404 661.579 M386.404 654.172 Q398.024 654.172 404.135 663.385 Q410.293 672.551 410.293 690.051 Q410.293 707.505 404.135 716.718 Q398.024 725.884 386.404 725.884 Q374.784 725.884 368.626 716.718 Q362.515 707.505 362.515 690.051 Q362.515 672.551 368.626 663.385 Q374.784 654.172 386.404 654.172 Z" fill="#000000" fill-rule="nonzero" fill-opacity="1" /><path clip-path="url(#clip690)" d="M455.061 687.274 Q461.774 688.709 465.524 693.246 Q469.32 697.783 469.32 704.449 Q469.32 714.681 462.283 720.283 Q455.246 725.884 442.283 725.884 Q437.931 725.884 433.302 725.005 Q428.718 724.172 423.811 722.459 L423.811 713.431 Q427.7 715.699 432.33 716.857 Q436.959 718.014 442.005 718.014 Q450.802 718.014 455.385 714.542 Q460.015 711.07 460.015 704.449 Q460.015 698.338 455.709 694.912 Q451.45 691.44 443.811 691.44 L435.755 691.44 L435.755 683.755 L444.181 683.755 Q451.079 683.755 454.737 681.024 Q458.394 678.246 458.394 673.061 Q458.394 667.737 454.598 664.913 Q450.848 662.042 443.811 662.042 Q439.968 662.042 435.57 662.876 Q431.172 663.709 425.894 665.468 L425.894 657.135 Q431.218 655.653 435.848 654.913 Q440.524 654.172 444.644 654.172 Q455.292 654.172 461.496 659.033 Q467.7 663.848 467.7 672.088 Q467.7 677.829 464.413 681.811 Q461.126 685.746 455.061 687.274 Z" fill="#000000" fill-rule="nonzero" fill-opacity="1" /><path clip-path="url(#clip690)" d="M198.303 577.674 L257.655 577.674 L257.655 585.544 L198.303 585.544 L198.303 577.674 Z" fill="#000000" fill-rule="nonzero" fill-opacity="1" /><path clip-path="url(#clip690)" d="M297.84 548.368 Q290.617 548.368 286.96 555.498 Q283.349 562.581 283.349 576.84 Q283.349 591.053 286.96 598.183 Q290.617 605.266 297.84 605.266 Q305.108 605.266 308.719 598.183 Q312.376 591.053 312.376 576.84 Q312.376 562.581 308.719 555.498 Q305.108 548.368 297.84 548.368 M297.84 540.961 Q309.46 540.961 315.571 550.174 Q321.728 559.341 321.728 576.84 Q321.728 594.294 315.571 603.507 Q309.46 612.674 297.84 612.674 Q286.219 612.674 280.062 603.507 Q273.951 594.294 273.951 576.84 Q273.951 559.341 280.062 550.174 Q286.219 540.961 297.84 540.961 Z" fill="#000000" fill-rule="nonzero" fill-opacity="1" /><path clip-path="url(#clip690)" d="M338.163 599.572 L347.932 599.572 L347.932 611.331 L338.163 611.331 L338.163 599.572 Z" fill="#000000" fill-rule="nonzero" fill-opacity="1" /><path clip-path="url(#clip690)" d="M388.302 548.368 Q381.08 548.368 377.422 555.498 Q373.811 562.581 373.811 576.84 Q373.811 591.053 377.422 598.183 Q381.08 605.266 388.302 605.266 Q395.57 605.266 399.182 598.183 Q402.839 591.053 402.839 576.84 Q402.839 562.581 399.182 555.498 Q395.57 548.368 388.302 548.368 M388.302 540.961 Q399.922 540.961 406.033 550.174 Q412.191 559.341 412.191 576.84 Q412.191 594.294 406.033 603.507 Q399.922 612.674 388.302 612.674 Q376.682 612.674 370.524 603.507 Q364.413 594.294 364.413 576.84 Q364.413 559.341 370.524 550.174 Q376.682 540.961 388.302 540.961 Z" fill="#000000" fill-rule="nonzero" fill-opacity="1" /><path clip-path="url(#clip690)" d="M436.681 603.461 L469.32 603.461 L469.32 611.331 L425.431 611.331 L425.431 603.461 Q430.755 597.951 439.922 588.692 Q449.135 579.387 451.496 576.702 Q455.987 571.655 457.746 568.183 Q459.552 564.665 459.552 561.285 Q459.552 555.776 455.663 552.304 Q451.82 548.831 445.617 548.831 Q441.218 548.831 436.311 550.359 Q431.45 551.887 425.894 554.989 L425.894 545.544 Q431.543 543.276 436.45 542.118 Q441.357 540.961 445.431 540.961 Q456.172 540.961 462.561 546.331 Q468.95 551.702 468.95 560.683 Q468.95 564.942 467.329 568.785 Q465.755 572.581 461.542 577.766 Q460.385 579.109 454.181 585.544 Q447.978 591.933 436.681 603.461 Z" fill="#000000" fill-rule="nonzero" fill-opacity="1" /><path clip-path="url(#clip690)" d="M197.562 464.463 L256.914 464.463 L256.914 472.333 L197.562 472.333 L197.562 464.463 Z" fill="#000000" fill-rule="nonzero" fill-opacity="1" /><path clip-path="url(#clip690)" d="M297.099 435.157 Q289.877 435.157 286.219 442.287 Q282.608 449.37 282.608 463.629 Q282.608 477.842 286.219 484.972 Q289.877 492.055 297.099 492.055 Q304.367 492.055 307.978 484.972 Q311.636 477.842 311.636 463.629 Q311.636 449.37 307.978 442.287 Q304.367 435.157 297.099 435.157 M297.099 427.75 Q308.719 427.75 314.83 436.963 Q320.988 446.13 320.988 463.629 Q320.988 481.083 314.83 490.296 Q308.719 499.463 297.099 499.463 Q285.478 499.463 279.321 490.296 Q273.21 481.083 273.21 463.629 Q273.21 446.13 279.321 436.963 Q285.478 427.75 297.099 427.75 Z" fill="#000000" fill-rule="nonzero" fill-opacity="1" /><path clip-path="url(#clip690)" d="M337.423 486.361 L347.191 486.361 L347.191 498.12 L337.423 498.12 L337.423 486.361 Z" fill="#000000" fill-rule="nonzero" fill-opacity="1" /><path clip-path="url(#clip690)" d="M387.561 435.157 Q380.339 435.157 376.682 442.287 Q373.071 449.37 373.071 463.629 Q373.071 477.842 376.682 484.972 Q380.339 492.055 387.561 492.055 Q394.83 492.055 398.441 484.972 Q402.098 477.842 402.098 463.629 Q402.098 449.37 398.441 442.287 Q394.83 435.157 387.561 435.157 M387.561 427.75 Q399.182 427.75 405.293 436.963 Q411.45 446.13 411.45 463.629 Q411.45 481.083 405.293 490.296 Q399.182 499.463 387.561 499.463 Q375.941 499.463 369.784 490.296 Q363.673 481.083 363.673 463.629 Q363.673 446.13 369.784 436.963 Q375.941 427.75 387.561 427.75 Z" fill="#000000" fill-rule="nonzero" fill-opacity="1" /><path clip-path="url(#clip690)" d="M429.505 490.25 L444.783 490.25 L444.783 437.519 L428.163 440.852 L428.163 432.333 L444.691 429 L454.042 429 L454.042 490.25 L469.32 490.25 L469.32 498.12 L429.505 498.12 L429.505 490.25 Z" fill="#000000" fill-rule="nonzero" fill-opacity="1" /><path clip-path="url(#clip690)" d="M294.645 321.947 Q287.423 321.947 283.766 329.076 Q280.154 336.159 280.154 350.419 Q280.154 364.631 283.766 371.761 Q287.423 378.844 294.645 378.844 Q301.914 378.844 305.525 371.761 Q309.182 364.631 309.182 350.419 Q309.182 336.159 305.525 329.076 Q301.914 321.947 294.645 321.947 M294.645 314.539 Q306.265 314.539 312.376 323.752 Q318.534 332.919 318.534 350.419 Q318.534 367.872 312.376 377.085 Q306.265 386.252 294.645 386.252 Q283.025 386.252 276.867 377.085 Q270.756 367.872 270.756 350.419 Q270.756 332.919 276.867 323.752 Q283.025 314.539 294.645 314.539 Z" fill="#000000" fill-rule="nonzero" fill-opacity="1" /><path clip-path="url(#clip690)" d="M334.969 373.15 L344.737 373.15 L344.737 384.909 L334.969 384.909 L334.969 373.15 Z" fill="#000000" fill-rule="nonzero" fill-opacity="1" /><path clip-path="url(#clip690)" d="M385.108 321.947 Q377.885 321.947 374.228 329.076 Q370.617 336.159 370.617 350.419 Q370.617 364.631 374.228 371.761 Q377.885 378.844 385.108 378.844 Q392.376 378.844 395.987 371.761 Q399.645 364.631 399.645 350.419 Q399.645 336.159 395.987 329.076 Q392.376 321.947 385.108 321.947 M385.108 314.539 Q396.728 314.539 402.839 323.752 Q408.996 332.919 408.996 350.419 Q408.996 367.872 402.839 377.085 Q396.728 386.252 385.108 386.252 Q373.487 386.252 367.33 377.085 Q361.219 367.872 361.219 350.419 Q361.219 332.919 367.33 323.752 Q373.487 314.539 385.108 314.539 Z" fill="#000000" fill-rule="nonzero" fill-opacity="1" /><path clip-path="url(#clip690)" d="M445.431 321.947 Q438.209 321.947 434.552 329.076 Q430.941 336.159 430.941 350.419 Q430.941 364.631 434.552 371.761 Q438.209 378.844 445.431 378.844 Q452.7 378.844 456.311 371.761 Q459.968 364.631 459.968 350.419 Q459.968 336.159 456.311 329.076 Q452.7 321.947 445.431 321.947 M445.431 314.539 Q457.052 314.539 463.163 323.752 Q469.32 332.919 469.32 350.419 Q469.32 367.872 463.163 377.085 Q457.052 386.252 445.431 386.252 Q433.811 386.252 427.654 377.085 Q421.543 367.872 421.543 350.419 Q421.543 332.919 427.654 323.752 Q433.811 314.539 445.431 314.539 Z" fill="#000000" fill-rule="nonzero" fill-opacity="1" /><path clip-path="url(#clip690)" d="M297.099 208.736 Q289.877 208.736 286.219 215.865 Q282.608 222.948 282.608 237.208 Q282.608 251.421 286.219 258.55 Q289.877 265.633 297.099 265.633 Q304.367 265.633 307.978 258.55 Q311.636 251.421 311.636 237.208 Q311.636 222.948 307.978 215.865 Q304.367 208.736 297.099 208.736 M297.099 201.328 Q308.719 201.328 314.83 210.541 Q320.988 219.708 320.988 237.208 Q320.988 254.661 314.83 263.874 Q308.719 273.041 297.099 273.041 Q285.478 273.041 279.321 263.874 Q273.21 254.661 273.21 237.208 Q273.21 219.708 279.321 210.541 Q285.478 201.328 297.099 201.328 Z" fill="#000000" fill-rule="nonzero" fill-opacity="1" /><path clip-path="url(#clip690)" d="M337.423 259.939 L347.191 259.939 L347.191 271.698 L337.423 271.698 L337.423 259.939 Z" fill="#000000" fill-rule="nonzero" fill-opacity="1" /><path clip-path="url(#clip690)" d="M387.561 208.736 Q380.339 208.736 376.682 215.865 Q373.071 222.948 373.071 237.208 Q373.071 251.421 376.682 258.55 Q380.339 265.633 387.561 265.633 Q394.83 265.633 398.441 258.55 Q402.098 251.421 402.098 237.208 Q402.098 222.948 398.441 215.865 Q394.83 208.736 387.561 208.736 M387.561 201.328 Q399.182 201.328 405.293 210.541 Q411.45 219.708 411.45 237.208 Q411.45 254.661 405.293 263.874 Q399.182 273.041 387.561 273.041 Q375.941 273.041 369.784 263.874 Q363.673 254.661 363.673 237.208 Q363.673 219.708 369.784 210.541 Q375.941 201.328 387.561 201.328 Z" fill="#000000" fill-rule="nonzero" fill-opacity="1" /><path clip-path="url(#clip690)" d="M429.505 263.828 L444.783 263.828 L444.783 211.097 L428.163 214.43 L428.163 205.912 L444.691 202.578 L454.042 202.578 L454.042 263.828 L469.32 263.828 L469.32 271.698 L429.505 271.698 L429.505 263.828 Z" fill="#000000" fill-rule="nonzero" fill-opacity="1" /><path clip-path="url(#clip690)" d="M297.84 95.5247 Q290.617 95.5247 286.96 102.654 Q283.349 109.738 283.349 123.997 Q283.349 138.21 286.96 145.339 Q290.617 152.423 297.84 152.423 Q305.108 152.423 308.719 145.339 Q312.376 138.21 312.376 123.997 Q312.376 109.738 308.719 102.654 Q305.108 95.5247 297.84 95.5247 M297.84 88.1173 Q309.46 88.1173 315.571 97.3302 Q321.728 106.497 321.728 123.997 Q321.728 141.45 315.571 150.663 Q309.46 159.83 297.84 159.83 Q286.219 159.83 280.062 150.663 Q273.951 141.45 273.951 123.997 Q273.951 106.497 280.062 97.3302 Q286.219 88.1173 297.84 88.1173 Z" fill="#000000" fill-rule="nonzero" fill-opacity="1" /><path clip-path="url(#clip690)" d="M338.163 146.728 L347.932 146.728 L347.932 158.487 L338.163 158.487 L338.163 146.728 Z" fill="#000000" fill-rule="nonzero" fill-opacity="1" /><path clip-path="url(#clip690)" d="M388.302 95.5247 Q381.08 95.5247 377.422 102.654 Q373.811 109.738 373.811 123.997 Q373.811 138.21 377.422 145.339 Q381.08 152.423 388.302 152.423 Q395.57 152.423 399.182 145.339 Q402.839 138.21 402.839 123.997 Q402.839 109.738 399.182 102.654 Q395.57 95.5247 388.302 95.5247 M388.302 88.1173 Q399.922 88.1173 406.033 97.3302 Q412.191 106.497 412.191 123.997 Q412.191 141.45 406.033 150.663 Q399.922 159.83 388.302 159.83 Q376.682 159.83 370.524 150.663 Q364.413 141.45 364.413 123.997 Q364.413 106.497 370.524 97.3302 Q376.682 88.1173 388.302 88.1173 Z" fill="#000000" fill-rule="nonzero" fill-opacity="1" /><path clip-path="url(#clip690)" d="M436.681 150.617 L469.32 150.617 L469.32 158.487 L425.431 158.487 L425.431 150.617 Q430.755 145.108 439.922 135.849 Q449.135 126.543 451.496 123.858 Q455.987 118.812 457.746 115.339 Q459.552 111.821 459.552 108.441 Q459.552 102.932 455.663 99.4598 Q451.82 95.9876 445.617 95.9876 Q441.218 95.9876 436.311 97.5154 Q431.45 99.0432 425.894 102.145 L425.894 92.7006 Q431.543 90.4321 436.45 89.2747 Q441.357 88.1173 445.431 88.1173 Q456.172 88.1173 462.561 93.4877 Q468.95 98.858 468.95 107.839 Q468.95 112.099 467.329 115.941 Q465.755 119.738 461.542 124.923 Q460.385 126.265 454.181 132.7 Q447.978 139.089 436.681 150.617 Z" fill="#000000" fill-rule="nonzero" fill-opacity="1" /><path clip-path="url(#clip690)" d="M21.0484 748.315 L21.0484 734.148 L86.1001 699.669 L21.0484 699.669 L21.0484 689.461 L98.8084 689.461 L98.8084 703.628 L33.7566 738.107 L98.8084 738.107 L98.8084 748.315 L21.0484 748.315 Z" fill="#000000" fill-rule="nonzero" fill-opacity="1" /><path clip-path="url(#clip690)" d="M28.1838 636.961 Q28.1838 648.42 36.7254 655.191 Q45.267 661.909 60.0065 661.909 Q74.6939 661.909 83.2355 655.191 Q91.7772 648.42 91.7772 636.961 Q91.7772 625.503 83.2355 618.837 Q74.6939 612.118 60.0065 612.118 Q45.267 612.118 36.7254 618.837 Q28.1838 625.503 28.1838 636.961 M19.6421 636.961 Q19.6421 620.607 30.6317 610.816 Q41.5691 601.024 60.0065 601.024 Q78.3918 601.024 89.3813 610.816 Q100.319 620.607 100.319 636.961 Q100.319 653.368 89.3813 663.211 Q78.4439 673.003 60.0065 673.003 Q41.5691 673.003 30.6317 663.211 Q19.6421 653.368 19.6421 636.961 Z" fill="#000000" fill-rule="nonzero" fill-opacity="1" /><path clip-path="url(#clip690)" d="M89.9543 574.566 L89.9543 537.847 L98.8084 537.847 L98.8084 587.222 L89.9543 587.222 Q83.7564 581.233 73.3398 570.92 Q62.8711 560.556 59.8503 557.899 Q54.1732 552.847 50.267 550.868 Q46.3087 548.837 42.5066 548.837 Q36.3087 548.837 32.4025 553.212 Q28.4963 557.535 28.4963 564.514 Q28.4963 569.462 30.215 574.983 Q31.9337 580.451 35.4233 586.701 L24.7984 586.701 Q22.2463 580.347 20.9442 574.826 Q19.6421 569.306 19.6421 564.722 Q19.6421 552.639 25.6838 545.452 Q31.7254 538.264 41.8295 538.264 Q46.6212 538.264 50.9441 540.087 Q55.2149 541.858 61.0482 546.597 Q62.5586 547.899 69.7981 554.879 Q76.9856 561.858 89.9543 574.566 Z" fill="#000000" fill-rule="nonzero" fill-opacity="1" /><path clip-path="url(#clip690)" d="M17.8713 460.192 Q29.8504 467.171 41.5691 470.556 Q53.2878 473.941 65.319 473.941 Q77.3502 473.941 89.173 470.556 Q100.944 467.119 112.871 460.192 L112.871 468.525 Q100.631 476.337 88.8084 480.244 Q76.9856 484.098 65.319 484.098 Q53.7045 484.098 41.9337 480.244 Q30.1629 476.389 17.8713 468.525 L17.8713 460.192 Z" fill="#000000" fill-rule="nonzero" fill-opacity="1" /><path clip-path="url(#clip690)" d="M90.0584 432.327 L120.996 432.327 L120.996 441.962 L40.4754 441.962 L40.4754 432.327 L49.3295 432.327 Q44.1212 429.306 41.6212 424.723 Q39.0691 420.088 39.0691 413.681 Q39.0691 403.056 47.5066 396.442 Q55.944 389.775 69.694 389.775 Q83.4439 389.775 91.8813 396.442 Q100.319 403.056 100.319 413.681 Q100.319 420.088 97.8188 424.723 Q95.2667 429.306 90.0584 432.327 M69.694 399.723 Q59.1211 399.723 53.1315 404.098 Q47.0899 408.421 47.0899 416.025 Q47.0899 423.629 53.1315 428.004 Q59.1211 432.327 69.694 432.327 Q80.2668 432.327 86.3084 428.004 Q92.298 423.629 92.298 416.025 Q92.298 408.421 86.3084 404.098 Q80.2668 399.723 69.694 399.723 Z" fill="#000000" fill-rule="nonzero" fill-opacity="1" /><path clip-path="url(#clip690)" d="M90.0584 364.619 L120.996 364.619 L120.996 374.255 L40.4754 374.255 L40.4754 364.619 L49.3295 364.619 Q44.1212 361.598 41.6212 357.015 Q39.0691 352.38 39.0691 345.973 Q39.0691 335.348 47.5066 328.734 Q55.944 322.067 69.694 322.067 Q83.4439 322.067 91.8813 328.734 Q100.319 335.348 100.319 345.973 Q100.319 352.38 97.8188 357.015 Q95.2667 361.598 90.0584 364.619 M69.694 332.015 Q59.1211 332.015 53.1315 336.39 Q47.0899 340.713 47.0899 348.317 Q47.0899 355.921 53.1315 360.296 Q59.1211 364.619 69.694 364.619 Q80.2668 364.619 86.3084 360.296 Q92.298 355.921 92.298 348.317 Q92.298 340.713 86.3084 336.39 Q80.2668 332.015 69.694 332.015 Z" fill="#000000" fill-rule="nonzero" fill-opacity="1" /><path clip-path="url(#clip690)" d="M51.6732 260.766 Q45.2149 257.172 42.142 252.172 Q39.0691 247.172 39.0691 240.401 Q39.0691 231.287 45.4753 226.339 Q51.8295 221.391 63.6002 221.391 L98.8084 221.391 L98.8084 231.026 L63.9127 231.026 Q55.5274 231.026 51.4649 233.995 Q47.4024 236.964 47.4024 243.057 Q47.4024 250.505 52.3503 254.828 Q57.2982 259.151 65.8398 259.151 L98.8084 259.151 L98.8084 268.786 L63.9127 268.786 Q55.4753 268.786 51.4649 271.755 Q47.4024 274.724 47.4024 280.922 Q47.4024 288.265 52.4024 292.588 Q57.3503 296.911 65.8398 296.911 L98.8084 296.911 L98.8084 306.547 L40.4754 306.547 L40.4754 296.911 L49.5378 296.911 Q44.1733 293.63 41.6212 289.047 Q39.0691 284.463 39.0691 278.161 Q39.0691 271.807 42.2983 267.38 Q45.5274 262.901 51.6732 260.766 Z" fill="#000000" fill-rule="nonzero" fill-opacity="1" /><path clip-path="url(#clip690)" d="M17.8713 203.787 L17.8713 195.453 Q30.1629 187.641 41.9337 183.787 Q53.7045 179.881 65.319 179.881 Q76.9856 179.881 88.8084 183.787 Q100.631 187.641 112.871 195.453 L112.871 203.787 Q100.944 196.86 89.173 193.474 Q77.3502 190.037 65.319 190.037 Q53.2878 190.037 41.5691 193.474 Q29.8504 196.86 17.8713 203.787 Z" fill="#000000" fill-rule="nonzero" fill-opacity="1" /><path clip-path="url(#clip692)" d="M660.512 549.969 L678.991 540.334 L697.47 620.626 L715.95 658.046 L734.429 603.951 L752.908 620.246 L771.388 624.461 L789.867 764.125 L808.346 671.787 L826.826 678.967 L845.305 685.471 L863.784 680.833 L882.263 661.602 L900.743 709.454 L919.222 766.012 L937.701 723.724 L956.181 777.697 L974.66 738.599 L993.139 640.913 L1011.62 707.843 L1030.1 728.986 L1048.58 604.314 L1067.06 791.458 L1085.54 584.246 L1104.02 681.842 L1122.49 831.371 L1140.97 702.938 L1159.45 736.88 L1177.93 695.59 L1196.41 671.564 L1214.89 724.238 L1233.37 708.021 L1251.85 628.707 L1270.33 785.383 L1288.81 683.404 L1307.29 714.162 L1325.77 663.911 L1344.25 724.86 L1362.73 772.606 L1381.2 723.164 L1399.68 710.726 L1418.16 719.39 L1436.64 610.272 L1455.12 711.893 L1473.6 715.003 L1492.08 634.397 L1510.56 765.892 L1529.04 578.535 L1547.52 670.294 L1566 857.356 L1584.48 666.056 L1602.96 764.602 L1621.44 687.142 L1639.92 658.285 L1658.39 717.836 L1676.87 713.561 L1695.35 666.538 L1713.83 763.019 L1732.31 652.722 L1750.79 690.849 L1769.27 657.616 L1787.75 720.424 L1806.23 771.755 L1824.71 721.232 L1843.19 745.673 L1861.67 749.323 L1880.15 613.721 L1898.63 712.403 L1917.11 719.616 L1935.58 625.923 L1954.06 772.783 L1972.54 578.528 L1991.02 674.947 L2009.5 856.851 L2027.98 672.531 L2046.46 766.371 L2064.94 690.276 L2083.42 665.273 L2101.9 719.277 L2120.38 708.325 L2138.86 643.57 L2157.34 763.961 L2175.82 652.254 L2194.29 699.668 L2212.77 657.517 L2231.25 721.182 L2249.73 772.129 L2268.21 721.886 L2286.69 732.705 L2305.17 737.288 L2323.65 608.995 L2342.13 712.086 L2360.61 715.452 L2379.09 629.487 L2397.57 772.072 L2416.05 578.487 L2434.53 673.503 L2453.01 856.618 L2471.48 664.383 L2489.96 766.058 L2508.44 688.656 L2526.92 662.523 L2545.4 716.522 L2563.88 708.309 L2582.36 661.755 L2600.84 764.16 L2619.32 653.03 L2637.8 696.775 L2656.28 657.522 L2674.76 721.881 L2693.24 772.336 L2711.72 722.262 L2730.19 738.449 L2748.67 743.161 L2767.15 608.808 L2785.63 711.777 L2804.11 718.269 L2822.59 627.897 L2841.07 772.446 L2859.55 578.514 L2878.03 673.995 L2896.51 856.753 L2914.99 667.843 L2933.47 765.829 L2951.95 690.119 L2970.43 664.053 L2988.91 719.464 L3007.38 707.87 L3025.86 650.139 L3044.34 764.359 L3062.82 652.285 L3081.3 698.631 L3099.78 657.49 L3118.26 721.767 L3136.74 771.777 L3155.22 721.524 L3173.7 735.278 L3192.18 740.99 L3210.66 609.211 L3229.14 712.155 L3247.62 719.482 L3266.1 628.364 L3284.57 772.372 L3303.05 578.49 L3321.53 673.165 L3340.01 856.829 L3358.49 666.272 L3376.97 766.263 L3395.45 688.801 L3413.93 663.534 L3432.41 715.675 L3450.89 711.378 L3469.37 658.85 L3487.85 764.099 L3506.33 654.228 L3524.81 698.032 L3543.28 657.498 L3561.76 721.732 L3580.24 772.068 L3598.72 722.487 L3617.2 736.619 L3635.68 741.928 L3654.16 610.048 L3672.64 711.905 L3691.12 720.192 L3709.6 628.422 L3728.08 772.373 L3746.56 578.531 L3765.04 673.774 L3783.52 856.904 L3802 664.362 L3820.47 765.815 L3838.95 690.065 L3857.43 662.769 L3875.91 714.834 L3894.39 710.563 L3912.87 652.096 L3931.35 764.344 L3949.83 652.307 L3968.31 698.653 L3986.79 657.476 L4005.27 721.678 L4023.75 772.575 L4042.23 723.091 L4060.71 736.422 L4079.18 741.839 L4097.66 608.773 L4116.14 712.555 L4134.62 718.2 L4153.1 628.176 L4171.58 772.401 L4190.06 578.492 L4208.54 674.069 L4227.02 856.884 L4245.5 665.465 L4263.98 765.824 L4282.46 688.709 L4300.94 664.261 L4319.42 718.488 L4337.9 711.525 L4356.37 657.343 L4374.85 764.494 L4393.33 654.592 L4411.81 698.321 L4430.29 657.556 L4448.77 721.744 L4467.25 771.764 L4485.73 721.754 L4504.21 736.111 L4522.69 741.525 L4541.17 608.794 L4559.65 712.236 L4578.13 718.704 L4596.61 628.559 L4615.09 772.41 L4633.56 578.527 L4633.56 104.407 L4615.09 89.2014 L4596.61 76.7294 L4578.13 70.8646 L4559.65 73.4034 L4541.17 83.97 L4522.69 77.6499 L4504.21 77.3576 L4485.73 71.6713 L4467.25 76.7205 L4448.77 89.6394 L4430.29 100.762 L4411.81 92.1619 L4393.33 90.8275 L4374.85 94.8481 L4356.37 85.9004 L4337.9 122.285 L4319.42 120.254 L4300.94 129.115 L4282.46 137.166 L4263.98 129.469 L4245.5 130.549 L4227.02 137.73 L4208.54 140.213 L4190.06 104.498 L4171.58 89.132 L4153.1 76.74 L4134.62 70.8599 L4116.14 73.3583 L4097.66 83.8498 L4079.18 77.6342 L4060.71 77.3648 L4042.23 71.6676 L4023.75 76.6953 L4005.27 89.5554 L3986.79 100.671 L3968.31 92.2534 L3949.83 90.817 L3931.35 94.6853 L3912.87 85.248 L3894.39 122.261 L3875.91 120.273 L3857.43 129.166 L3838.95 137.188 L3820.47 129.224 L3802 130.562 L3783.52 137.766 L3765.04 140.164 L3746.56 104.281 L3728.08 89.1969 L3709.6 76.7055 L3691.12 70.8404 L3672.64 73.3741 L3654.16 83.9345 L3635.68 77.6514 L3617.2 77.3999 L3598.72 71.6438 L3580.24 76.6731 L3561.76 89.5578 L3543.28 100.667 L3524.81 92.1642 L3506.33 90.7036 L3487.85 94.5863 L3469.37 85.2935 L3450.89 122.278 L3432.41 120.298 L3413.93 129.187 L3395.45 137.196 L3376.97 128.946 L3358.49 130.567 L3340.01 137.762 L3321.53 140.187 L3303.05 104.448 L3284.57 89.1631 L3266.1 76.7652 L3247.62 70.8412 L3229.14 73.2754 L3210.66 83.8063 L3192.18 77.6374 L3173.7 77.3347 L3155.22 71.6753 L3136.74 76.7335 L3118.26 89.6259 L3099.78 100.658 L3081.3 92.2449 L3062.82 90.9144 L3044.34 94.8264 L3025.86 86.0311 L3007.38 122.201 L2988.91 120.304 L2970.43 129.216 L2951.95 137.166 L2933.47 129.299 L2914.99 130.58 L2896.51 137.758 L2878.03 140.207 L2859.55 103.96 L2841.07 89.0586 L2822.59 76.6914 L2804.11 70.853 L2785.63 73.42 L2767.15 84.0315 L2748.67 77.6463 L2730.19 77.3576 L2711.72 71.6414 L2693.24 76.7089 L2674.76 89.6462 L2656.28 100.714 L2637.8 92.145 L2619.32 90.7508 L2600.84 94.7775 L2582.36 85.4648 L2563.88 122.311 L2545.4 120.28 L2526.92 129.114 L2508.44 137.188 L2489.96 128.538 L2471.48 130.558 L2453.01 137.738 L2434.53 139.945 L2416.05 104.275 L2397.57 89.1284 L2379.09 76.7358 L2360.61 70.8396 L2342.13 73.3787 L2323.65 83.9598 L2305.17 77.5889 L2286.69 77.3097 L2268.21 71.6963 L2249.73 76.7508 L2231.25 89.5328 L2212.77 100.65 L2194.29 92.2891 L2175.82 90.9416 L2157.34 94.6726 L2138.86 85.9204 L2120.38 122.164 L2101.9 120.22 L2083.42 129.137 L2064.94 137.195 L2046.46 129.001 L2027.98 130.611 L2009.5 137.788 L1991.02 140.746 L1972.54 104.862 L1954.06 88.9758 L1935.58 76.5967 L1917.11 70.8912 L1898.63 73.4672 L1880.15 84.0883 L1861.67 77.6299 L1843.19 77.4039 L1824.71 71.6733 L1806.23 76.6667 L1787.75 89.6615 L1769.27 100.735 L1750.79 92.0589 L1732.31 90.5847 L1713.83 94.7883 L1695.35 85.8738 L1676.87 122.287 L1658.39 120.337 L1639.92 129.307 L1621.44 137.368 L1602.96 129.519 L1584.48 130.34 L1566 137.474 L1547.52 138.956 L1529.04 105.151 L1510.56 88.9925 L1492.08 76.63 L1473.6 70.8501 L1455.12 73.6392 L1436.64 84.4699 L1418.16 77.7021 L1399.68 77.2038 L1381.2 71.7884 L1362.73 77.0545 L1344.25 89.8962 L1325.77 100.475 L1307.29 92.4399 L1288.81 91.5128 L1270.33 94.7075 L1251.85 86.5428 L1233.37 121.908 L1214.89 120.203 L1196.41 129.051 L1177.93 139.201 L1159.45 132.215 L1140.97 131.119 L1122.49 138.797 L1104.02 143.528 L1085.54 96.4668 L1067.06 81.4375 L1048.58 73.9055 L1030.1 75.9252 L1011.62 85.9878 L993.139 84.5396 L974.66 79.8965 L956.181 75.3357 L937.701 77.9914 L919.222 90.5428 L900.743 108.792 L882.263 101.577 L863.784 92.879 L845.305 92.6236 L826.826 98.1833 L808.346 111.117 L789.867 119.731 L771.388 118.179 L752.908 128.834 L734.429 131.933 L715.95 141.633 L697.47 152.599 L678.991 150.486 L660.512 132.689  Z" fill="#c8c8c8" fill-rule="evenodd" fill-opacity="0.5"/>
<polyline clip-path="url(#clip692)" style="stroke:#c8c8c8; stroke-linecap:round; stroke-linejoin:round; stroke-width:0; stroke-opacity:1; fill:none" points="660.512,349.415 678.991,333.842 697.47,333.666 715.95,334.84 734.429,335.073 752.908,335.716 771.388,337.255 789.867,339.441 808.346,339.997 826.826,340.584 845.305,342.088 863.784,344.684 882.263,345.78 900.743,346.867 919.222,346.693 937.701,345.161 956.181,343.626 974.66,342.798 993.139,343.896 1011.62,345.906 1030.1,346.18 1048.58,345.169 1067.06,344.617 1085.54,342.201 1104.02,341.116 1122.49,340.265 1140.97,339.099 1159.45,339.153 1177.93,339.377 1196.41,339.459 1214.89,340.332 1233.37,340.028 1251.85,338.162 1270.33,341.006 1288.81,342.99 1307.29,344.442 1325.77,343.997 1344.25,344.757 1362.73,345.623 1381.2,344.438 1399.68,343.181 1418.16,343.029 1436.64,344.401 1455.12,345.891 1473.6,345.933 1492.08,345.167 1510.56,344.613 1529.04,342.415 1547.52,341.156 1566,340.596 1584.48,339.281 1602.96,338.89 1621.44,339.185 1639.92,339.442 1658.39,340.384 1676.87,340.518 1695.35,338.634 1713.83,340.807 1732.31,341.921 1750.79,344.069 1769.27,344.231 1787.75,344.905 1806.23,345.471 1824.71,344.362 1843.19,343.236 1861.67,342.958 1880.15,344.12 1898.63,345.762 1917.11,345.976 1935.58,345.09 1954.06,344.543 1972.54,342.391 1991.02,341.198 2009.5,340.612 2027.98,339.377 2046.46,338.904 2064.94,339.236 2083.42,339.429 2101.9,340.306 2120.38,340.318 2138.86,338.472 2157.34,340.9 2175.82,342.371 2194.29,344.299 2212.77,344.13 2231.25,344.766 2249.73,345.548 2268.21,344.383 2286.69,343.144 2305.17,342.925 2323.65,344.183 2342.13,345.784 2360.61,345.93 2379.09,345.149 2397.57,344.591 2416.05,342.361 2434.53,341.136 2453.01,340.574 2471.48,339.333 2489.96,338.904 2508.44,339.216 2526.92,339.467 2545.4,340.389 2563.88,340.432 2582.36,338.554 2600.84,340.839 2619.32,342.103 2637.8,344.163 2656.28,344.179 2674.76,344.836 2693.24,345.481 2711.72,344.319 2730.19,343.209 2748.67,342.974 2767.15,344.162 2785.63,345.788 2804.11,345.966 2822.59,345.106 2841.07,344.54 2859.55,342.358 2878.03,341.179 2896.51,340.615 2914.99,339.366 2933.47,338.894 2951.95,339.217 2970.43,339.458 2988.91,340.375 3007.38,340.377 3025.86,338.511 3044.34,340.87 3062.82,342.251 3081.3,344.252 3099.78,344.159 3118.26,344.784 3136.74,345.49 3155.22,344.35 3173.7,343.198 3192.18,342.964 3210.66,344.173 3229.14,345.772 3247.62,345.943 3266.1,345.107 3284.57,344.545 3303.05,342.356 3321.53,341.169 3340.01,340.595 3358.49,339.338 3376.97,338.915 3395.45,339.233 3413.93,339.483 3432.41,340.386 3450.89,340.427 3469.37,338.537 3487.85,340.836 3506.33,342.153 3524.81,344.173 3543.28,344.146 3561.76,344.813 3580.24,345.488 3598.72,344.335 3617.2,343.227 3635.68,342.986 3654.16,344.179 3672.64,345.793 3691.12,345.955 3709.6,345.087 3728.08,344.529 3746.56,342.366 3765.04,341.177 3783.52,340.598 3802,339.356 3820.47,338.924 3838.95,339.22 3857.43,339.454 3875.91,340.357 3894.39,340.414 3912.87,338.513 3931.35,340.848 3949.83,342.214 3968.31,344.257 3986.79,344.173 4005.27,344.792 4023.75,345.494 4042.23,344.353 4060.71,343.198 4079.18,342.961 4097.66,344.163 4116.14,345.79 4134.62,345.96 4153.1,345.116 4171.58,344.561 4190.06,342.367 4208.54,341.176 4227.02,340.605 4245.5,339.349 4263.98,338.903 4282.46,339.206 4300.94,339.455 4319.42,340.355 4337.9,340.411 4356.37,338.571 4374.85,340.889 4393.33,342.166 4411.81,344.192 4430.29,344.177 4448.77,344.831 4467.25,345.493 4485.73,344.35 4504.21,343.208 4522.69,342.978 4541.17,344.182 4559.65,345.803 4578.13,345.977 4596.61,345.124 4615.09,344.568 4633.56,342.361 "/>
<path clip-path="url(#clip692)" d="M660.512 501.367 L678.991 486.311 L697.47 496.934 L715.95 494.808 L734.429 498.462 L752.908 509.047 L771.388 518.033 L789.867 538.215 L808.346 546.725 L826.826 546.67 L845.305 547.999 L863.784 561.406 L882.263 554.276 L900.743 567.692 L919.222 567.886 L937.701 564.345 L956.181 557.821 L974.66 543.648 L993.139 527.948 L1011.62 523.712 L1030.1 520.389 L1048.58 508.022 L1067.06 512.25 L1085.54 517.936 L1104.02 517.261 L1122.49 520.442 L1140.97 524.345 L1159.45 504.772 L1177.93 506.464 L1196.41 516.199 L1214.89 533.684 L1233.37 546.466 L1251.85 543.123 L1270.33 549.012 L1288.81 551.468 L1307.29 561.22 L1325.77 551.634 L1344.25 565.962 L1362.73 563.895 L1381.2 563.692 L1399.68 556.351 L1418.16 542.256 L1436.64 528.654 L1455.12 523.036 L1473.6 520.666 L1492.08 509.209 L1510.56 513.178 L1529.04 517.65 L1547.52 514.683 L1566 521.024 L1584.48 520.944 L1602.96 504.608 L1621.44 506.387 L1639.92 517.275 L1658.39 529.445 L1676.87 548.075 L1695.35 544.667 L1713.83 549.696 L1732.31 550.426 L1750.79 564.731 L1769.27 550.75 L1787.75 566.067 L1806.23 562.82 L1824.71 563.65 L1843.19 556.361 L1861.67 542.385 L1880.15 530.217 L1898.63 524.498 L1917.11 520.549 L1935.58 509.91 L1954.06 513.182 L1972.54 517.539 L1991.02 515.334 L2009.5 521.069 L2027.98 522.154 L2046.46 504.645 L2064.94 507.589 L2083.42 517.303 L2101.9 531.709 L2120.38 546.983 L2138.86 544.597 L2157.34 549.549 L2175.82 550.894 L2194.29 564.146 L2212.77 551.685 L2231.25 565.898 L2249.73 564.486 L2268.21 563.652 L2286.69 556.231 L2305.17 542.269 L2323.65 530.29 L2342.13 524.57 L2360.61 520.561 L2379.09 509.494 L2397.57 513.2 L2416.05 517.521 L2434.53 513.739 L2453.01 520.963 L2471.48 521.151 L2489.96 504.616 L2508.44 507.782 L2526.92 517.352 L2545.4 531.425 L2563.88 547.181 L2582.36 544.171 L2600.84 549.667 L2619.32 550.651 L2637.8 564 L2656.28 551.832 L2674.76 566.062 L2693.24 562.792 L2711.72 563.775 L2730.19 556.392 L2748.67 542.378 L2767.15 530.27 L2785.63 524.586 L2804.11 520.578 L2822.59 510.284 L2841.07 513.131 L2859.55 517.532 L2878.03 514.632 L2896.51 520.976 L2914.99 521.507 L2933.47 504.514 L2951.95 507.842 L2970.43 517.295 L2988.91 530.607 L3007.38 547.13 L3025.86 544.18 L3044.34 549.728 L3062.82 550.76 L3081.3 564.126 L3099.78 551.774 L3118.26 565.998 L3136.74 564.42 L3155.22 563.748 L3173.7 556.318 L3192.18 542.343 L3210.66 530.283 L3229.14 524.527 L3247.62 520.623 L3266.1 509.695 L3284.57 513.111 L3303.05 517.632 L3321.53 514.126 L3340.01 520.954 L3358.49 521.345 L3376.97 504.592 L3395.45 507.764 L3413.93 517.347 L3432.41 533.578 L3450.89 547.21 L3469.37 544.124 L3487.85 549.541 L3506.33 550.646 L3524.81 563.954 L3543.28 551.826 L3561.76 566.034 L3580.24 562.857 L3598.72 563.714 L3617.2 556.419 L3635.68 542.393 L3654.16 530.294 L3672.64 524.554 L3691.12 520.629 L3709.6 510.312 L3728.08 513.12 L3746.56 517.641 L3765.04 514.412 L3783.52 521.046 L3802 521.449 L3820.47 504.597 L3838.95 507.865 L3857.43 517.329 L3875.91 531.625 L3894.39 547.238 L3912.87 544.17 L3931.35 549.624 L3949.83 550.744 L3968.31 564.076 L3986.79 551.861 L4005.27 566.024 L4023.75 564.397 L4042.23 563.737 L4060.71 556.395 L4079.18 542.371 L4097.66 530.277 L4116.14 524.578 L4134.62 520.501 L4153.1 509.967 L4171.58 513.126 L4190.06 517.629 L4208.54 514.28 L4227.02 521.016 L4245.5 521.474 L4263.98 504.554 L4282.46 507.778 L4300.94 517.32 L4319.42 530.845 L4337.9 547.093 L4356.37 544.137 L4374.85 549.695 L4393.33 550.645 L4411.81 564.047 L4430.29 551.858 L4448.77 566.047 L4467.25 562.821 L4485.73 563.726 L4504.21 556.393 L4522.69 542.383 L4541.17 530.307 L4559.65 524.556 L4578.13 520.708 L4596.61 510.266 L4615.09 513.133 L4633.56 517.544 L4633.56 203.204 L4615.09 196.868 L4596.61 194.088 L4578.13 193.2 L4559.65 185.592 L4541.17 179.789 L4522.69 175.561 L4504.21 163.411 L4485.73 172.302 L4467.25 171.614 L4448.77 168.704 L4430.29 175.455 L4411.81 168.842 L4393.33 169.816 L4374.85 171.41 L4356.37 173.674 L4337.9 183.91 L4319.42 177.208 L4300.94 183.453 L4282.46 191.104 L4263.98 191.568 L4245.5 195.373 L4227.02 199.095 L4208.54 198.662 L4190.06 203.847 L4171.58 196.878 L4153.1 194.088 L4134.62 192.777 L4116.14 185.511 L4097.66 179.269 L4079.18 175.352 L4060.71 163.079 L4042.23 172.318 L4023.75 171.563 L4005.27 168.868 L3986.79 175.344 L3968.31 168.918 L3949.83 169.839 L3931.35 171.087 L3912.87 173.515 L3894.39 184.035 L3875.91 177.28 L3857.43 183.704 L3838.95 191.135 L3820.47 191.598 L3802 195.494 L3783.52 198.992 L3765.04 198.914 L3746.56 202.9 L3728.08 196.885 L3709.6 194.295 L3691.12 192.91 L3672.64 185.031 L3654.16 178.966 L3635.68 175.373 L3617.2 163.486 L3598.72 172.286 L3580.24 171.554 L3561.76 168.952 L3543.28 175.413 L3524.81 168.839 L3506.33 170.439 L3487.85 171.27 L3469.37 173.643 L3450.89 183.986 L3432.41 177.26 L3413.93 183.465 L3395.45 191.15 L3376.97 191.636 L3358.49 195.412 L3340.01 199.032 L3321.53 198.794 L3303.05 205.108 L3284.57 196.976 L3266.1 194.006 L3247.62 193.083 L3229.14 185.776 L3210.66 179.093 L3192.18 175.405 L3173.7 163.376 L3155.22 172.239 L3136.74 171.447 L3118.26 168.969 L3099.78 175.402 L3081.3 168.913 L3062.82 170.219 L3044.34 171.009 L3025.86 173.588 L3007.38 183.865 L2988.91 177.297 L2970.43 183.636 L2951.95 191.137 L2933.47 191.618 L2914.99 195.455 L2896.51 199.055 L2878.03 198.679 L2859.55 202.227 L2841.07 196.86 L2822.59 193.847 L2804.11 192.327 L2785.63 185.684 L2767.15 179.534 L2748.67 175.518 L2730.19 163.515 L2711.72 172.27 L2693.24 171.705 L2674.76 168.983 L2656.28 175.436 L2637.8 168.82 L2619.32 169.798 L2600.84 170.88 L2582.36 173.567 L2563.88 183.952 L2545.4 177.263 L2526.92 183.614 L2508.44 191.133 L2489.96 191.538 L2471.48 195.42 L2453.01 198.993 L2434.53 198.713 L2416.05 205.919 L2397.57 196.938 L2379.09 194.322 L2360.61 192.634 L2342.13 185.661 L2323.65 179.679 L2305.17 175.551 L2286.69 163.512 L2268.21 172.346 L2249.73 171.716 L2231.25 168.756 L2212.77 175.429 L2194.29 168.883 L2175.82 170.177 L2157.34 170.991 L2138.86 173.33 L2120.38 183.868 L2101.9 177.211 L2083.42 183.67 L2064.94 191.127 L2046.46 191.532 L2027.98 195.49 L2009.5 199.051 L1991.02 200.003 L1972.54 202.245 L1954.06 196.877 L1935.58 194.247 L1917.11 193.617 L1898.63 185.334 L1880.15 179.141 L1861.67 175.54 L1843.19 163.629 L1824.71 172.348 L1806.23 171.862 L1787.75 169.858 L1769.27 175.518 L1750.79 168.688 L1732.31 169.605 L1713.83 171.781 L1695.35 173.605 L1676.87 184.034 L1658.39 177.275 L1639.92 183.643 L1621.44 191.104 L1602.96 191.637 L1584.48 195.409 L1566 198.725 L1547.52 198.852 L1529.04 205.979 L1510.56 196.721 L1492.08 194.25 L1473.6 192.677 L1455.12 185.771 L1436.64 179.284 L1418.16 175.158 L1399.68 163.829 L1381.2 172.589 L1362.73 172.125 L1344.25 168.86 L1325.77 175.161 L1307.29 169.241 L1288.81 171.137 L1270.33 171.788 L1251.85 173.689 L1233.37 183.854 L1214.89 177.357 L1196.41 183.621 L1177.93 192.105 L1159.45 191.257 L1140.97 195.241 L1122.49 199.9 L1104.02 198.528 L1085.54 201.932 L1067.06 196.266 L1048.58 193.67 L1030.1 194.625 L1011.62 184.185 L993.139 178.879 L974.66 174.032 L956.181 168.399 L937.701 174.572 L919.222 174.126 L900.743 171.171 L882.263 172.324 L863.784 179.706 L845.305 175.124 L826.826 175.737 L808.346 184.819 L789.867 187.299 L771.388 184.743 L752.908 184.267 L734.429 196.826 L715.95 192.699 L697.47 195.26 L678.991 200.169 L660.512 235.684  Z" fill="#525252" fill-rule="evenodd" fill-opacity="0.5"/>
<polyline clip-path="url(#clip692)" style="stroke:#525252; stroke-linecap:round; stroke-linejoin:round; stroke-width:0; stroke-opacity:1; fill:none" points="660.512,349.415 678.991,333.842 697.47,333.666 715.95,334.84 734.429,335.073 752.908,335.716 771.388,337.255 789.867,339.441 808.346,339.997 826.826,340.584 845.305,342.088 863.784,344.684 882.263,345.78 900.743,346.867 919.222,346.693 937.701,345.161 956.181,343.626 974.66,342.798 993.139,343.896 1011.62,345.906 1030.1,346.18 1048.58,345.169 1067.06,344.617 1085.54,342.201 1104.02,341.116 1122.49,340.265 1140.97,339.099 1159.45,339.153 1177.93,339.377 1196.41,339.459 1214.89,340.332 1233.37,340.028 1251.85,338.162 1270.33,341.006 1288.81,342.99 1307.29,344.442 1325.77,343.997 1344.25,344.757 1362.73,345.623 1381.2,344.438 1399.68,343.181 1418.16,343.029 1436.64,344.401 1455.12,345.891 1473.6,345.933 1492.08,345.167 1510.56,344.613 1529.04,342.415 1547.52,341.156 1566,340.596 1584.48,339.281 1602.96,338.89 1621.44,339.185 1639.92,339.442 1658.39,340.384 1676.87,340.518 1695.35,338.634 1713.83,340.807 1732.31,341.921 1750.79,344.069 1769.27,344.231 1787.75,344.905 1806.23,345.471 1824.71,344.362 1843.19,343.236 1861.67,342.958 1880.15,344.12 1898.63,345.762 1917.11,345.976 1935.58,345.09 1954.06,344.543 1972.54,342.391 1991.02,341.198 2009.5,340.612 2027.98,339.377 2046.46,338.904 2064.94,339.236 2083.42,339.429 2101.9,340.306 2120.38,340.318 2138.86,338.472 2157.34,340.9 2175.82,342.371 2194.29,344.299 2212.77,344.13 2231.25,344.766 2249.73,345.548 2268.21,344.383 2286.69,343.144 2305.17,342.925 2323.65,344.183 2342.13,345.784 2360.61,345.93 2379.09,345.149 2397.57,344.591 2416.05,342.361 2434.53,341.136 2453.01,340.574 2471.48,339.333 2489.96,338.904 2508.44,339.216 2526.92,339.467 2545.4,340.389 2563.88,340.432 2582.36,338.554 2600.84,340.839 2619.32,342.103 2637.8,344.163 2656.28,344.179 2674.76,344.836 2693.24,345.481 2711.72,344.319 2730.19,343.209 2748.67,342.974 2767.15,344.162 2785.63,345.788 2804.11,345.966 2822.59,345.106 2841.07,344.54 2859.55,342.358 2878.03,341.179 2896.51,340.615 2914.99,339.366 2933.47,338.894 2951.95,339.217 2970.43,339.458 2988.91,340.375 3007.38,340.377 3025.86,338.511 3044.34,340.87 3062.82,342.251 3081.3,344.252 3099.78,344.159 3118.26,344.784 3136.74,345.49 3155.22,344.35 3173.7,343.198 3192.18,342.964 3210.66,344.173 3229.14,345.772 3247.62,345.943 3266.1,345.107 3284.57,344.545 3303.05,342.356 3321.53,341.169 3340.01,340.595 3358.49,339.338 3376.97,338.915 3395.45,339.233 3413.93,339.483 3432.41,340.386 3450.89,340.427 3469.37,338.537 3487.85,340.836 3506.33,342.153 3524.81,344.173 3543.28,344.146 3561.76,344.813 3580.24,345.488 3598.72,344.335 3617.2,343.227 3635.68,342.986 3654.16,344.179 3672.64,345.793 3691.12,345.955 3709.6,345.087 3728.08,344.529 3746.56,342.366 3765.04,341.177 3783.52,340.598 3802,339.356 3820.47,338.924 3838.95,339.22 3857.43,339.454 3875.91,340.357 3894.39,340.414 3912.87,338.513 3931.35,340.848 3949.83,342.214 3968.31,344.257 3986.79,344.173 4005.27,344.792 4023.75,345.494 4042.23,344.353 4060.71,343.198 4079.18,342.961 4097.66,344.163 4116.14,345.79 4134.62,345.96 4153.1,345.116 4171.58,344.561 4190.06,342.367 4208.54,341.176 4227.02,340.605 4245.5,339.349 4263.98,338.903 4282.46,339.206 4300.94,339.455 4319.42,340.355 4337.9,340.411 4356.37,338.571 4374.85,340.889 4393.33,342.166 4411.81,344.192 4430.29,344.177 4448.77,344.831 4467.25,345.493 4485.73,344.35 4504.21,343.208 4522.69,342.978 4541.17,344.182 4559.65,345.803 4578.13,345.977 4596.61,345.124 4615.09,344.568 4633.56,342.361 "/>
<path clip-path="url(#clip692)" d="M660.512 456.168 L678.991 446.135 L697.47 458.83 L715.95 463.1 L734.429 466.187 L752.908 465.314 L771.388 471.768 L789.867 487.847 L808.346 487.637 L826.826 491.779 L845.305 505.945 L863.784 518.178 L882.263 518.356 L900.743 522.723 L919.222 518.478 L937.701 510.11 L956.181 493.293 L974.66 494.626 L993.139 498.323 L1011.62 494.713 L1030.1 488.978 L1048.58 485.53 L1067.06 483.789 L1085.54 476.849 L1104.02 472.157 L1122.49 463.172 L1140.97 477.731 L1159.45 474.107 L1177.93 479.913 L1196.41 483.982 L1214.89 494.858 L1233.37 496.074 L1251.85 486.146 L1270.33 505.822 L1288.81 513.311 L1307.29 516.63 L1325.77 509.653 L1344.25 519.393 L1362.73 519.517 L1381.2 507.853 L1399.68 493.571 L1418.16 496.227 L1436.64 501.176 L1455.12 494.981 L1473.6 490.879 L1492.08 484.993 L1510.56 483.847 L1529.04 479.383 L1547.52 469.335 L1566 465.719 L1584.48 479.201 L1602.96 476.19 L1621.44 479.926 L1639.92 484.914 L1658.39 492.67 L1676.87 496.396 L1695.35 490.909 L1713.83 503.495 L1732.31 510.707 L1750.79 516.276 L1769.27 510.633 L1787.75 519.642 L1806.23 518.844 L1824.71 507.84 L1843.19 493.654 L1861.67 492.722 L1880.15 500.436 L1898.63 496.131 L1917.11 491.023 L1935.58 485.197 L1954.06 483.451 L1972.54 479.312 L1991.02 469.699 L2009.5 466.806 L2027.98 479.941 L2046.46 476.944 L2064.94 480.532 L2083.42 484.167 L2101.9 492.601 L2120.38 496.175 L2138.86 491.273 L2157.34 503.571 L2175.82 512.159 L2194.29 516.563 L2212.77 511.127 L2231.25 519.346 L2249.73 519.198 L2268.21 507.783 L2286.69 493.522 L2305.17 494.721 L2323.65 499.886 L2342.13 496.154 L2360.61 490.489 L2379.09 486.411 L2397.57 483.608 L2416.05 479.243 L2434.53 469.532 L2453.01 466.14 L2471.48 479.957 L2489.96 476.222 L2508.44 480.54 L2526.92 484.195 L2545.4 492.673 L2563.88 496.273 L2582.36 491.355 L2600.84 503.561 L2619.32 510.171 L2637.8 516.426 L2656.28 511.23 L2674.76 519.565 L2693.24 518.813 L2711.72 507.801 L2730.19 493.656 L2748.67 493.739 L2767.15 500.262 L2785.63 496.164 L2804.11 490.867 L2822.59 486.147 L2841.07 483.416 L2859.55 479.281 L2878.03 469.597 L2896.51 466.324 L2914.99 480.056 L2933.47 476.578 L2951.95 480.529 L2970.43 484.199 L2988.91 492.673 L3007.38 496.19 L3025.86 491.298 L3044.34 503.567 L3062.82 512.105 L3081.3 516.441 L3099.78 511.256 L3118.26 519.561 L3136.74 518.858 L3155.22 507.885 L3173.7 493.69 L3192.18 494.455 L3210.66 500.384 L3229.14 496.155 L3247.62 490.773 L3266.1 485.183 L3284.57 483.611 L3303.05 479.377 L3321.53 469.669 L3340.01 467.113 L3358.49 480.016 L3376.97 476.344 L3395.45 480.598 L3413.93 484.234 L3432.41 492.689 L3450.89 496.3 L3469.37 491.333 L3487.85 503.562 L3506.33 510.754 L3524.81 516.342 L3543.28 511.224 L3561.76 519.594 L3580.24 518.759 L3598.72 507.818 L3617.2 493.656 L3635.68 493.927 L3654.16 500.213 L3672.64 496.173 L3691.12 490.734 L3709.6 485.127 L3728.08 483.482 L3746.56 479.322 L3765.04 469.595 L3783.52 465.854 L3802 480.066 L3820.47 476.5 L3838.95 480.598 L3857.43 484.201 L3875.91 492.655 L3894.39 496.247 L3912.87 491.319 L3931.35 503.652 L3949.83 511.964 L3968.31 516.551 L3986.79 511.242 L4005.27 519.568 L4023.75 518.898 L4042.23 507.846 L4060.71 493.655 L4079.18 494.277 L4097.66 500.328 L4116.14 496.176 L4134.62 490.763 L4153.1 485.823 L4171.58 483.544 L4190.06 479.32 L4208.54 469.641 L4227.02 466.737 L4245.5 480.004 L4263.98 476.413 L4282.46 480.563 L4300.94 484.215 L4319.42 492.648 L4337.9 496.155 L4356.37 491.379 L4374.85 503.643 L4393.33 511.461 L4411.81 516.494 L4430.29 511.266 L4448.77 519.611 L4467.25 518.897 L4485.73 507.871 L4504.21 493.673 L4522.69 494.138 L4541.17 500.278 L4559.65 496.191 L4578.13 490.784 L4596.61 485.81 L4615.09 483.496 L4633.56 479.365 L4633.56 220.11 L4615.09 221.982 L4596.61 217.096 L4578.13 213.099 L4559.65 213.364 L4541.17 208.386 L4522.69 208.563 L4504.21 207.022 L4485.73 208.998 L4467.25 201.047 L4448.77 201.196 L4430.29 204.902 L4411.81 202.464 L4393.33 200.314 L4374.85 203.734 L4356.37 204.636 L4337.9 209.436 L4319.42 206.282 L4300.94 204.03 L4282.46 205.436 L4263.98 206.536 L4245.5 214.462 L4227.02 220.636 L4208.54 220.401 L4190.06 220.125 L4171.58 221.969 L4153.1 216.918 L4134.62 213.05 L4116.14 213.339 L4097.66 208.4 L4079.18 208.543 L4060.71 207.231 L4042.23 208.841 L4023.75 200.951 L4005.27 201.444 L3986.79 204.825 L3968.31 202.568 L3949.83 201.672 L3931.35 203.709 L3912.87 204.597 L3894.39 209.556 L3875.91 206.282 L3857.43 203.976 L3838.95 205.461 L3820.47 206.72 L3802 214.484 L3783.52 220.556 L3765.04 220.56 L3746.56 220.234 L3728.08 221.942 L3709.6 216.672 L3691.12 213.085 L3672.64 213.369 L3654.16 207.952 L3635.68 208.579 L3617.2 207.041 L3598.72 209.085 L3580.24 199.996 L3561.76 201.357 L3543.28 204.859 L3524.81 202.448 L3506.33 200.937 L3487.85 203.745 L3469.37 204.623 L3450.89 209.428 L3432.41 206.299 L3413.93 203.982 L3395.45 205.426 L3376.97 206.454 L3358.49 214.133 L3340.01 220.661 L3321.53 220.512 L3303.05 220.073 L3284.57 221.977 L3266.1 217.019 L3247.62 213.081 L3229.14 213.332 L3210.66 208.251 L3192.18 208.572 L3173.7 206.998 L3155.22 209.124 L3136.74 200.479 L3118.26 201.441 L3099.78 204.853 L3081.3 202.497 L3062.82 200.752 L3044.34 203.734 L3025.86 204.584 L3007.38 209.517 L2988.91 206.297 L2970.43 204.017 L2951.95 205.456 L2933.47 206.661 L2914.99 214.48 L2896.51 220.504 L2878.03 220.336 L2859.55 220.059 L2841.07 222.036 L2822.59 216.96 L2804.11 213.074 L2785.63 213.334 L2767.15 207.982 L2748.67 208.549 L2730.19 206.969 L2711.72 209.068 L2693.24 200.904 L2674.76 201.55 L2656.28 204.856 L2637.8 202.459 L2619.32 200.369 L2600.84 203.757 L2582.36 204.637 L2563.88 209.455 L2545.4 206.3 L2526.92 204.01 L2508.44 205.408 L2489.96 206.718 L2471.48 214.34 L2453.01 220.562 L2434.53 219.9 L2416.05 220.19 L2397.57 222.111 L2379.09 216.877 L2360.61 213.068 L2342.13 213.337 L2323.65 208.211 L2305.17 208.508 L2286.69 207.328 L2268.21 209.063 L2249.73 200.306 L2231.25 201.17 L2212.77 204.861 L2194.29 202.615 L2175.82 202.684 L2157.34 203.799 L2138.86 204.562 L2120.38 209.25 L2101.9 206.217 L2083.42 203.883 L2064.94 205.461 L2046.46 206.712 L2027.98 214.152 L2009.5 220.896 L1991.02 220.377 L1972.54 220.109 L1954.06 222.055 L1935.58 216.79 L1917.11 212.726 L1898.63 213.328 L1880.15 207.583 L1861.67 208.551 L1843.19 206.803 L1824.71 209.136 L1806.23 201.09 L1787.75 201.117 L1769.27 205.042 L1750.79 202.365 L1732.31 201.782 L1713.83 203.705 L1695.35 204.723 L1676.87 209.667 L1658.39 206.309 L1639.92 205.085 L1621.44 205.41 L1602.96 206.677 L1584.48 214.466 L1566 220.354 L1547.52 219.923 L1529.04 220.208 L1510.56 222.199 L1492.08 217 L1473.6 213.083 L1455.12 213.573 L1436.64 207.451 L1418.16 208.622 L1399.68 207.166 L1381.2 209.266 L1362.73 202.435 L1344.25 197.088 L1325.77 203.178 L1307.29 202.969 L1288.81 203.29 L1270.33 203.467 L1251.85 204.299 L1233.37 207.28 L1214.89 210.26 L1196.41 206.173 L1177.93 207.771 L1159.45 208.214 L1140.97 214.191 L1122.49 221.063 L1104.02 221.939 L1085.54 220.05 L1067.06 222.935 L1048.58 217.193 L1030.1 214.41 L1011.62 213.962 L993.139 207.041 L974.66 208.67 L956.181 209.284 L937.701 212.992 L919.222 208.087 L900.743 207.062 L882.263 206.352 L863.784 206.704 L845.305 205.675 L826.826 204.503 L808.346 211.432 L789.867 211.117 L771.388 209.572 L752.908 210.218 L734.429 207.831 L715.95 210.911 L697.47 212.429 L678.991 217.907 L660.512 250.281  Z" fill="#000000" fill-rule="evenodd" fill-opacity="0.5"/>
<polyline clip-path="url(#clip692)" style="stroke:#000000; stroke-linecap:round; stroke-linejoin:round; stroke-width:0; stroke-opacity:1; fill:none" points="660.512,349.415 678.991,333.842 697.47,333.666 715.95,334.84 734.429,335.073 752.908,335.716 771.388,337.255 789.867,339.441 808.346,339.997 826.826,340.584 845.305,342.088 863.784,344.684 882.263,345.78 900.743,346.867 919.222,346.693 937.701,345.161 956.181,343.626 974.66,342.798 993.139,343.896 1011.62,345.906 1030.1,346.18 1048.58,345.169 1067.06,344.617 1085.54,342.201 1104.02,341.116 1122.49,340.265 1140.97,339.099 1159.45,339.153 1177.93,339.377 1196.41,339.459 1214.89,340.332 1233.37,340.028 1251.85,338.162 1270.33,341.006 1288.81,342.99 1307.29,344.442 1325.77,343.997 1344.25,344.757 1362.73,345.623 1381.2,344.438 1399.68,343.181 1418.16,343.029 1436.64,344.401 1455.12,345.891 1473.6,345.933 1492.08,345.167 1510.56,344.613 1529.04,342.415 1547.52,341.156 1566,340.596 1584.48,339.281 1602.96,338.89 1621.44,339.185 1639.92,339.442 1658.39,340.384 1676.87,340.518 1695.35,338.634 1713.83,340.807 1732.31,341.921 1750.79,344.069 1769.27,344.231 1787.75,344.905 1806.23,345.471 1824.71,344.362 1843.19,343.236 1861.67,342.958 1880.15,344.12 1898.63,345.762 1917.11,345.976 1935.58,345.09 1954.06,344.543 1972.54,342.391 1991.02,341.198 2009.5,340.612 2027.98,339.377 2046.46,338.904 2064.94,339.236 2083.42,339.429 2101.9,340.306 2120.38,340.318 2138.86,338.472 2157.34,340.9 2175.82,342.371 2194.29,344.299 2212.77,344.13 2231.25,344.766 2249.73,345.548 2268.21,344.383 2286.69,343.144 2305.17,342.925 2323.65,344.183 2342.13,345.784 2360.61,345.93 2379.09,345.149 2397.57,344.591 2416.05,342.361 2434.53,341.136 2453.01,340.574 2471.48,339.333 2489.96,338.904 2508.44,339.216 2526.92,339.467 2545.4,340.389 2563.88,340.432 2582.36,338.554 2600.84,340.839 2619.32,342.103 2637.8,344.163 2656.28,344.179 2674.76,344.836 2693.24,345.481 2711.72,344.319 2730.19,343.209 2748.67,342.974 2767.15,344.162 2785.63,345.788 2804.11,345.966 2822.59,345.106 2841.07,344.54 2859.55,342.358 2878.03,341.179 2896.51,340.615 2914.99,339.366 2933.47,338.894 2951.95,339.217 2970.43,339.458 2988.91,340.375 3007.38,340.377 3025.86,338.511 3044.34,340.87 3062.82,342.251 3081.3,344.252 3099.78,344.159 3118.26,344.784 3136.74,345.49 3155.22,344.35 3173.7,343.198 3192.18,342.964 3210.66,344.173 3229.14,345.772 3247.62,345.943 3266.1,345.107 3284.57,344.545 3303.05,342.356 3321.53,341.169 3340.01,340.595 3358.49,339.338 3376.97,338.915 3395.45,339.233 3413.93,339.483 3432.41,340.386 3450.89,340.427 3469.37,338.537 3487.85,340.836 3506.33,342.153 3524.81,344.173 3543.28,344.146 3561.76,344.813 3580.24,345.488 3598.72,344.335 3617.2,343.227 3635.68,342.986 3654.16,344.179 3672.64,345.793 3691.12,345.955 3709.6,345.087 3728.08,344.529 3746.56,342.366 3765.04,341.177 3783.52,340.598 3802,339.356 3820.47,338.924 3838.95,339.22 3857.43,339.454 3875.91,340.357 3894.39,340.414 3912.87,338.513 3931.35,340.848 3949.83,342.214 3968.31,344.257 3986.79,344.173 4005.27,344.792 4023.75,345.494 4042.23,344.353 4060.71,343.198 4079.18,342.961 4097.66,344.163 4116.14,345.79 4134.62,345.96 4153.1,345.116 4171.58,344.561 4190.06,342.367 4208.54,341.176 4227.02,340.605 4245.5,339.349 4263.98,338.903 4282.46,339.206 4300.94,339.455 4319.42,340.355 4337.9,340.411 4356.37,338.571 4374.85,340.889 4393.33,342.166 4411.81,344.192 4430.29,344.177 4448.77,344.831 4467.25,345.493 4485.73,344.35 4504.21,343.208 4522.69,342.978 4541.17,344.182 4559.65,345.803 4578.13,345.977 4596.61,345.124 4615.09,344.568 4633.56,342.361 "/>
<path clip-path="url(#clip690)" d="M3871.96 593.434 L4612.37 593.434 L4612.37 75.0343 L3871.96 75.0343  Z" fill="#ffffff" fill-rule="evenodd" fill-opacity="1"/>
<polyline clip-path="url(#clip690)" style="stroke:#000000; stroke-linecap:round; stroke-linejoin:round; stroke-width:4; stroke-opacity:1; fill:none" points="3871.96,593.434 4612.37,593.434 4612.37,75.0343 3871.96,75.0343 3871.96,593.434 "/>
<polyline clip-path="url(#clip690)" style="stroke:#c8c8c8; stroke-linecap:round; stroke-linejoin:round; stroke-width:2; stroke-opacity:1; fill:none" points="3918.76,204.634 4199.52,204.634 "/>
<path clip-path="url(#clip690)" d="M4247.99 237.996 L4267.09 237.996 L4267.09 172.082 L4246.31 176.249 L4246.31 165.601 L4266.97 161.434 L4278.66 161.434 L4278.66 237.996 L4297.76 237.996 L4297.76 247.834 L4247.99 247.834 L4247.99 237.996 Z" fill="#000000" fill-rule="nonzero" fill-opacity="1" /><path clip-path="url(#clip690)" d="M4346.37 169.131 Q4337.34 169.131 4332.77 178.043 Q4328.26 186.897 4328.26 204.721 Q4328.26 222.487 4332.77 231.399 Q4337.34 240.253 4346.37 240.253 Q4355.45 240.253 4359.97 231.399 Q4364.54 222.487 4364.54 204.721 Q4364.54 186.897 4359.97 178.043 Q4355.45 169.131 4346.37 169.131 M4346.37 159.872 Q4360.89 159.872 4368.53 171.388 Q4376.23 182.846 4376.23 204.721 Q4376.23 226.538 4368.53 238.054 Q4360.89 249.513 4346.37 249.513 Q4331.84 249.513 4324.15 238.054 Q4316.51 226.538 4316.51 204.721 Q4316.51 182.846 4324.15 171.388 Q4331.84 159.872 4346.37 159.872 Z" fill="#000000" fill-rule="nonzero" fill-opacity="1" /><path clip-path="url(#clip690)" d="M4421.77 169.131 Q4412.75 169.131 4408.17 178.043 Q4403.66 186.897 4403.66 204.721 Q4403.66 222.487 4408.17 231.399 Q4412.75 240.253 4421.77 240.253 Q4430.86 240.253 4435.37 231.399 Q4439.95 222.487 4439.95 204.721 Q4439.95 186.897 4435.37 178.043 Q4430.86 169.131 4421.77 169.131 M4421.77 159.872 Q4436.3 159.872 4443.94 171.388 Q4451.63 182.846 4451.63 204.721 Q4451.63 226.538 4443.94 238.054 Q4436.3 249.513 4421.77 249.513 Q4407.25 249.513 4399.55 238.054 Q4391.91 226.538 4391.91 204.721 Q4391.91 182.846 4399.55 171.388 Q4407.25 159.872 4421.77 159.872 Z" fill="#000000" fill-rule="nonzero" fill-opacity="1" /><path clip-path="url(#clip690)" d="M4545.67 209.814 Q4540.64 209.814 4537.75 214.096 Q4534.91 218.378 4534.91 226.017 Q4534.91 233.54 4537.75 237.881 Q4540.64 242.163 4545.67 242.163 Q4550.59 242.163 4553.43 237.881 Q4556.32 233.54 4556.32 226.017 Q4556.32 218.436 4553.43 214.154 Q4550.59 209.814 4545.67 209.814 M4545.67 202.464 Q4554.82 202.464 4560.2 208.83 Q4565.58 215.196 4565.58 226.017 Q4565.58 236.839 4560.14 243.205 Q4554.76 249.513 4545.67 249.513 Q4536.41 249.513 4531.03 243.205 Q4525.65 236.839 4525.65 226.017 Q4525.65 215.138 4531.03 208.83 Q4536.47 202.464 4545.67 202.464 M4485.95 167.221 Q4480.97 167.221 4478.08 171.562 Q4475.25 175.844 4475.25 183.367 Q4475.25 191.006 4478.08 195.288 Q4480.92 199.571 4485.95 199.571 Q4490.99 199.571 4493.82 195.288 Q4496.72 191.006 4496.72 183.367 Q4496.72 175.902 4493.82 171.562 Q4490.93 167.221 4485.95 167.221 M4538.21 159.872 L4547.47 159.872 L4493.42 249.513 L4484.16 249.513 L4538.21 159.872 M4485.95 159.872 Q4495.1 159.872 4500.54 166.238 Q4505.97 172.545 4505.97 183.367 Q4505.97 194.305 4500.54 200.612 Q4495.15 206.92 4485.95 206.92 Q4476.75 206.92 4471.37 200.612 Q4466.04 194.247 4466.04 183.367 Q4466.04 172.603 4471.43 166.238 Q4476.81 159.872 4485.95 159.872 Z" fill="#000000" fill-rule="nonzero" fill-opacity="1" /><polyline clip-path="url(#clip690)" style="stroke:#525252; stroke-linecap:round; stroke-linejoin:round; stroke-width:2; stroke-opacity:1; fill:none" points="3918.76,334.234 4199.52,334.234 "/>
<path clip-path="url(#clip690)" d="M4251.87 375.64 L4251.87 364.992 Q4256.27 367.076 4260.78 368.175 Q4265.29 369.275 4269.63 369.275 Q4281.21 369.275 4287.28 361.52 Q4293.42 353.708 4294.29 337.851 Q4290.93 342.828 4285.78 345.49 Q4280.63 348.152 4274.38 348.152 Q4261.42 348.152 4253.83 340.34 Q4246.31 332.469 4246.31 318.87 Q4246.31 305.56 4254.18 297.516 Q4262.05 289.472 4275.13 289.472 Q4290.12 289.472 4297.99 300.988 Q4305.92 312.446 4305.92 334.321 Q4305.92 354.749 4296.2 366.96 Q4286.53 379.113 4270.15 379.113 Q4265.76 379.113 4261.24 378.245 Q4256.73 377.376 4251.87 375.64 M4275.13 339.009 Q4283 339.009 4287.57 333.627 Q4292.2 328.245 4292.2 318.87 Q4292.2 309.553 4287.57 304.171 Q4283 298.731 4275.13 298.731 Q4267.26 298.731 4262.63 304.171 Q4258.06 309.553 4258.06 318.87 Q4258.06 328.245 4262.63 333.627 Q4267.26 339.009 4275.13 339.009 Z" fill="#000000" fill-rule="nonzero" fill-opacity="1" /><path clip-path="url(#clip690)" d="M4351.92 298.731 Q4342.9 298.731 4338.33 307.643 Q4333.81 316.497 4333.81 334.321 Q4333.81 352.087 4338.33 360.999 Q4342.9 369.853 4351.92 369.853 Q4361.01 369.853 4365.52 360.999 Q4370.1 352.087 4370.1 334.321 Q4370.1 316.497 4365.52 307.643 Q4361.01 298.731 4351.92 298.731 M4351.92 289.472 Q4366.45 289.472 4374.09 300.988 Q4381.79 312.446 4381.79 334.321 Q4381.79 356.138 4374.09 367.654 Q4366.45 379.113 4351.92 379.113 Q4337.4 379.113 4329.7 367.654 Q4322.06 356.138 4322.06 334.321 Q4322.06 312.446 4329.7 300.988 Q4337.4 289.472 4351.92 289.472 Z" fill="#000000" fill-rule="nonzero" fill-opacity="1" /><path clip-path="url(#clip690)" d="M4475.82 339.414 Q4470.79 339.414 4467.9 343.696 Q4465.06 347.978 4465.06 355.617 Q4465.06 363.14 4467.9 367.481 Q4470.79 371.763 4475.82 371.763 Q4480.74 371.763 4483.58 367.481 Q4486.47 363.14 4486.47 355.617 Q4486.47 348.036 4483.58 343.754 Q4480.74 339.414 4475.82 339.414 M4475.82 332.064 Q4484.97 332.064 4490.35 338.43 Q4495.73 344.796 4495.73 355.617 Q4495.73 366.439 4490.29 372.805 Q4484.91 379.113 4475.82 379.113 Q4466.57 379.113 4461.18 372.805 Q4455.8 366.439 4455.8 355.617 Q4455.8 344.738 4461.18 338.43 Q4466.62 332.064 4475.82 332.064 M4416.1 296.821 Q4411.13 296.821 4408.23 301.162 Q4405.4 305.444 4405.4 312.967 Q4405.4 320.606 4408.23 324.888 Q4411.07 329.171 4416.1 329.171 Q4421.14 329.171 4423.97 324.888 Q4426.87 320.606 4426.87 312.967 Q4426.87 305.502 4423.97 301.162 Q4421.08 296.821 4416.1 296.821 M4468.36 289.472 L4477.62 289.472 L4423.57 379.113 L4414.31 379.113 L4468.36 289.472 M4416.1 289.472 Q4425.25 289.472 4430.69 295.838 Q4436.13 302.145 4436.13 312.967 Q4436.13 323.905 4430.69 330.212 Q4425.3 336.52 4416.1 336.52 Q4406.9 336.52 4401.52 330.212 Q4396.2 323.847 4396.2 312.967 Q4396.2 302.203 4401.58 295.838 Q4406.96 289.472 4416.1 289.472 Z" fill="#000000" fill-rule="nonzero" fill-opacity="1" /><polyline clip-path="url(#clip690)" style="stroke:#000000; stroke-linecap:round; stroke-linejoin:round; stroke-width:2; stroke-opacity:1; fill:none" points="3918.76,463.834 4199.52,463.834 "/>
<path clip-path="url(#clip690)" d="M4275.94 466.004 Q4267.61 466.004 4262.8 470.46 Q4258.06 474.916 4258.06 482.729 Q4258.06 490.541 4262.8 494.997 Q4267.61 499.453 4275.94 499.453 Q4284.27 499.453 4289.08 494.997 Q4293.88 490.484 4293.88 482.729 Q4293.88 474.916 4289.08 470.46 Q4284.33 466.004 4275.94 466.004 M4264.25 461.028 Q4256.73 459.176 4252.5 454.025 Q4248.34 448.875 4248.34 441.468 Q4248.34 431.109 4255.69 425.09 Q4263.09 419.072 4275.94 419.072 Q4288.85 419.072 4296.2 425.09 Q4303.55 431.109 4303.55 441.468 Q4303.55 448.875 4299.32 454.025 Q4295.15 459.176 4287.69 461.028 Q4296.14 462.995 4300.83 468.724 Q4305.57 474.453 4305.57 482.729 Q4305.57 495.287 4297.87 502 Q4290.24 508.713 4275.94 508.713 Q4261.65 508.713 4253.95 502 Q4246.31 495.287 4246.31 482.729 Q4246.31 474.453 4251.06 468.724 Q4255.8 462.995 4264.25 461.028 M4259.97 442.567 Q4259.97 449.28 4264.14 453.042 Q4268.36 456.803 4275.94 456.803 Q4283.46 456.803 4287.69 453.042 Q4291.97 449.28 4291.97 442.567 Q4291.97 435.854 4287.69 432.093 Q4283.46 428.331 4275.94 428.331 Q4268.36 428.331 4264.14 432.093 Q4259.97 435.854 4259.97 442.567 Z" fill="#000000" fill-rule="nonzero" fill-opacity="1" /><path clip-path="url(#clip690)" d="M4351.35 428.331 Q4342.32 428.331 4337.75 437.243 Q4333.23 446.097 4333.23 463.921 Q4333.23 481.687 4337.75 490.599 Q4342.32 499.453 4351.35 499.453 Q4360.43 499.453 4364.95 490.599 Q4369.52 481.687 4369.52 463.921 Q4369.52 446.097 4364.95 437.243 Q4360.43 428.331 4351.35 428.331 M4351.35 419.072 Q4365.87 419.072 4373.51 430.588 Q4381.21 442.046 4381.21 463.921 Q4381.21 485.738 4373.51 497.254 Q4365.87 508.713 4351.35 508.713 Q4336.82 508.713 4329.12 497.254 Q4321.49 485.738 4321.49 463.921 Q4321.49 442.046 4329.12 430.588 Q4336.82 419.072 4351.35 419.072 Z" fill="#000000" fill-rule="nonzero" fill-opacity="1" /><path clip-path="url(#clip690)" d="M4475.25 469.014 Q4470.21 469.014 4467.32 473.296 Q4464.48 477.578 4464.48 485.217 Q4464.48 492.74 4467.32 497.081 Q4470.21 501.363 4475.25 501.363 Q4480.16 501.363 4483 497.081 Q4485.89 492.74 4485.89 485.217 Q4485.89 477.636 4483 473.354 Q4480.16 469.014 4475.25 469.014 M4475.25 461.664 Q4484.39 461.664 4489.77 468.03 Q4495.15 474.396 4495.15 485.217 Q4495.15 496.039 4489.71 502.405 Q4484.33 508.713 4475.25 508.713 Q4465.99 508.713 4460.6 502.405 Q4455.22 496.039 4455.22 485.217 Q4455.22 474.338 4460.6 468.03 Q4466.04 461.664 4475.25 461.664 M4415.52 426.421 Q4410.55 426.421 4407.65 430.762 Q4404.82 435.044 4404.82 442.567 Q4404.82 450.206 4407.65 454.488 Q4410.49 458.771 4415.52 458.771 Q4420.56 458.771 4423.39 454.488 Q4426.29 450.206 4426.29 442.567 Q4426.29 435.102 4423.39 430.762 Q4420.5 426.421 4415.52 426.421 M4467.78 419.072 L4477.04 419.072 L4422.99 508.713 L4413.73 508.713 L4467.78 419.072 M4415.52 419.072 Q4424.67 419.072 4430.11 425.438 Q4435.55 431.745 4435.55 442.567 Q4435.55 453.505 4430.11 459.812 Q4424.73 466.12 4415.52 466.12 Q4406.32 466.12 4400.94 459.812 Q4395.62 453.447 4395.62 442.567 Q4395.62 431.803 4401 425.438 Q4406.38 419.072 4415.52 419.072 Z" fill="#000000" fill-rule="nonzero" fill-opacity="1" /></svg>
