<?xml version="1.0" encoding="utf-8"?>
<svg xmlns="http://www.w3.org/2000/svg" xmlns:xlink="http://www.w3.org/1999/xlink" width="1200" height="300" viewBox="0 0 4800 1200">
<defs>
  <clipPath id="clip250">
    <rect x="0" y="0" width="4800" height="1200"/>
  </clipPath>
</defs>
<path clip-path="url(#clip250)" d="M0 1200 L4800 1200 L4800 0 L0 0  Z" fill="#ffffff" fill-rule="evenodd" fill-opacity="1"/>
<defs>
  <clipPath id="clip251">
    <rect x="960" y="0" width="3361" height="1200"/>
  </clipPath>
</defs>
<path clip-path="url(#clip250)" d="M541.32 880.951 L4752.76 880.951 L4752.76 47.2441 L541.32 47.2441  Z" fill="#ffffff" fill-rule="evenodd" fill-opacity="1"/>
<defs>
  <clipPath id="clip252">
    <rect x="541" y="47" width="4212" height="835"/>
  </clipPath>
</defs>
<polyline clip-path="url(#clip252)" style="stroke:#000000; stroke-linecap:round; stroke-linejoin:round; stroke-width:2; stroke-opacity:0.1; fill:none" points="1085.54,880.951 1085.54,47.2441 "/>
<polyline clip-path="url(#clip252)" style="stroke:#000000; stroke-linecap:round; stroke-linejoin:round; stroke-width:2; stroke-opacity:0.1; fill:none" points="1972.54,880.951 1972.54,47.2441 "/>
<polyline clip-path="url(#clip252)" style="stroke:#000000; stroke-linecap:round; stroke-linejoin:round; stroke-width:2; stroke-opacity:0.1; fill:none" points="2859.55,880.951 2859.55,47.2441 "/>
<polyline clip-path="url(#clip252)" style="stroke:#000000; stroke-linecap:round; stroke-linejoin:round; stroke-width:2; stroke-opacity:0.1; fill:none" points="3746.56,880.951 3746.56,47.2441 "/>
<polyline clip-path="url(#clip252)" style="stroke:#000000; stroke-linecap:round; stroke-linejoin:round; stroke-width:2; stroke-opacity:0.1; fill:none" points="4633.56,880.951 4633.56,47.2441 "/>
<polyline clip-path="url(#clip250)" style="stroke:#000000; stroke-linecap:round; stroke-linejoin:round; stroke-width:4; stroke-opacity:1; fill:none" points="541.32,880.951 4752.76,880.951 "/>
<polyline clip-path="url(#clip250)" style="stroke:#000000; stroke-linecap:round; stroke-linejoin:round; stroke-width:4; stroke-opacity:1; fill:none" points="1085.54,880.951 1085.54,862.054 "/>
<polyline clip-path="url(#clip250)" style="stroke:#000000; stroke-linecap:round; stroke-linejoin:round; stroke-width:4; stroke-opacity:1; fill:none" points="1972.54,880.951 1972.54,862.054 "/>
<polyline clip-path="url(#clip250)" style="stroke:#000000; stroke-linecap:round; stroke-linejoin:round; stroke-width:4; stroke-opacity:1; fill:none" points="2859.55,880.951 2859.55,862.054 "/>
<polyline clip-path="url(#clip250)" style="stroke:#000000; stroke-linecap:round; stroke-linejoin:round; stroke-width:4; stroke-opacity:1; fill:none" points="3746.56,880.951 3746.56,862.054 "/>
<polyline clip-path="url(#clip250)" style="stroke:#000000; stroke-linecap:round; stroke-linejoin:round; stroke-width:4; stroke-opacity:1; fill:none" points="4633.56,880.951 4633.56,862.054 "/>
<path clip-path="url(#clip250)" d="M1074.84 997.881 L1107.48 997.881 L1107.48 1005.75 L1063.59 1005.75 L1063.59 997.881 Q1068.92 992.372 1078.08 983.113 Q1087.3 973.807 1089.66 971.122 Q1094.15 966.076 1095.91 962.604 Q1097.71 959.085 1097.71 955.705 Q1097.71 950.196 1093.82 946.724 Q1089.98 943.252 1083.78 943.252 Q1079.38 943.252 1074.47 944.78 Q1069.61 946.307 1064.05 949.409 L1064.05 939.965 Q1069.7 937.696 1074.61 936.539 Q1079.52 935.382 1083.59 935.382 Q1094.33 935.382 1100.72 940.752 Q1107.11 946.122 1107.11 955.104 Q1107.11 959.363 1105.49 963.205 Q1103.92 967.002 1099.7 972.187 Q1098.55 973.529 1092.34 979.965 Q1086.14 986.353 1074.84 997.881 Z" fill="#000000" fill-rule="nonzero" fill-opacity="1" /><path clip-path="url(#clip250)" d="M1978.56 944.78 L1954.95 981.678 L1978.56 981.678 L1978.56 944.78 M1976.11 936.631 L1987.87 936.631 L1987.87 981.678 L1997.73 981.678 L1997.73 989.455 L1987.87 989.455 L1987.87 1005.75 L1978.56 1005.75 L1978.56 989.455 L1947.36 989.455 L1947.36 980.428 L1976.11 936.631 Z" fill="#000000" fill-rule="nonzero" fill-opacity="1" /><path clip-path="url(#clip250)" d="M2860.36 967.465 Q2854.06 967.465 2850.36 971.77 Q2846.7 976.076 2846.7 983.576 Q2846.7 991.029 2850.36 995.381 Q2854.06 999.687 2860.36 999.687 Q2866.66 999.687 2870.31 995.381 Q2874.02 991.029 2874.02 983.576 Q2874.02 976.076 2870.31 971.77 Q2866.66 967.465 2860.36 967.465 M2878.93 938.159 L2878.93 946.678 Q2875.41 945.011 2871.8 944.131 Q2868.23 943.252 2864.71 943.252 Q2855.45 943.252 2850.55 949.502 Q2845.68 955.752 2844.99 968.391 Q2847.72 964.363 2851.84 962.233 Q2855.96 960.057 2860.92 960.057 Q2871.33 960.057 2877.35 966.4 Q2883.42 972.696 2883.42 983.576 Q2883.42 994.224 2877.12 1000.66 Q2870.82 1007.09 2860.36 1007.09 Q2848.37 1007.09 2842.03 997.927 Q2835.68 988.715 2835.68 971.261 Q2835.68 954.872 2843.46 945.15 Q2851.24 935.382 2864.34 935.382 Q2867.86 935.382 2871.43 936.076 Q2875.04 936.77 2878.93 938.159 Z" fill="#000000" fill-rule="nonzero" fill-opacity="1" /><path clip-path="url(#clip250)" d="M3746.56 972.928 Q3739.89 972.928 3736.05 976.492 Q3732.25 980.057 3732.25 986.307 Q3732.25 992.557 3736.05 996.122 Q3739.89 999.687 3746.56 999.687 Q3753.22 999.687 3757.07 996.122 Q3760.91 992.511 3760.91 986.307 Q3760.91 980.057 3757.07 976.492 Q3753.27 972.928 3746.56 972.928 M3737.21 968.946 Q3731.19 967.465 3727.81 963.344 Q3724.47 959.224 3724.47 953.298 Q3724.47 945.011 3730.35 940.196 Q3736.28 935.382 3746.56 935.382 Q3756.88 935.382 3762.76 940.196 Q3768.64 945.011 3768.64 953.298 Q3768.64 959.224 3765.26 963.344 Q3761.93 967.465 3755.96 968.946 Q3762.71 970.52 3766.46 975.104 Q3770.26 979.687 3770.26 986.307 Q3770.26 996.353 3764.1 1001.72 Q3757.99 1007.09 3746.56 1007.09 Q3735.12 1007.09 3728.96 1001.72 Q3722.85 996.353 3722.85 986.307 Q3722.85 979.687 3726.65 975.104 Q3730.45 970.52 3737.21 968.946 M3733.78 954.178 Q3733.78 959.548 3737.11 962.557 Q3740.49 965.567 3746.56 965.567 Q3752.58 965.567 3755.96 962.557 Q3759.38 959.548 3759.38 954.178 Q3759.38 948.807 3755.96 945.798 Q3752.58 942.789 3746.56 942.789 Q3740.49 942.789 3737.11 945.798 Q3733.78 948.807 3733.78 954.178 Z" fill="#000000" fill-rule="nonzero" fill-opacity="1" /><path clip-path="url(#clip250)" d="M4582.94 997.881 L4598.22 997.881 L4598.22 945.15 L4581.6 948.483 L4581.6 939.965 L4598.12 936.631 L4607.48 936.631 L4607.48 997.881 L4622.75 997.881 L4622.75 1005.75 L4582.94 1005.75 L4582.94 997.881 Z" fill="#000000" fill-rule="nonzero" fill-opacity="1" /><path clip-path="url(#clip250)" d="M4661.64 942.789 Q4654.42 942.789 4650.76 949.918 Q4647.15 957.002 4647.15 971.261 Q4647.15 985.474 4650.76 992.603 Q4654.42 999.687 4661.64 999.687 Q4668.91 999.687 4672.52 992.603 Q4676.18 985.474 4676.18 971.261 Q4676.18 957.002 4672.52 949.918 Q4668.91 942.789 4661.64 942.789 M4661.64 935.382 Q4673.26 935.382 4679.37 944.594 Q4685.53 953.761 4685.53 971.261 Q4685.53 988.715 4679.37 997.927 Q4673.26 1007.09 4661.64 1007.09 Q4650.02 1007.09 4643.87 997.927 Q4637.75 988.715 4637.75 971.261 Q4637.75 953.761 4643.87 944.594 Q4650.02 935.382 4661.64 935.382 Z" fill="#000000" fill-rule="nonzero" fill-opacity="1" /><path clip-path="url(#clip250)" d="M2364.28 1072.18 L2430.06 1072.18 L2430.06 1081.04 L2402.46 1081.04 L2402.46 1149.94 L2391.88 1149.94 L2391.88 1081.04 L2364.28 1081.04 L2364.28 1072.18 Z" fill="#000000" fill-rule="nonzero" fill-opacity="1" /><path clip-path="url(#clip250)" d="M2436.52 1091.61 L2446.1 1091.61 L2446.1 1149.94 L2436.52 1149.94 L2436.52 1091.61 M2436.52 1068.9 L2446.1 1068.9 L2446.1 1081.04 L2436.52 1081.04 L2436.52 1068.9 Z" fill="#000000" fill-rule="nonzero" fill-opacity="1" /><path clip-path="url(#clip250)" d="M2511.57 1102.81 Q2515.16 1096.35 2520.16 1093.28 Q2525.16 1090.2 2531.93 1090.2 Q2541.05 1090.2 2546 1096.61 Q2550.94 1102.96 2550.94 1114.74 L2550.94 1149.94 L2541.31 1149.94 L2541.31 1115.05 Q2541.31 1106.66 2538.34 1102.6 Q2535.37 1098.54 2529.28 1098.54 Q2521.83 1098.54 2517.51 1103.49 Q2513.18 1108.43 2513.18 1116.97 L2513.18 1149.94 L2503.55 1149.94 L2503.55 1115.05 Q2503.55 1106.61 2500.58 1102.6 Q2497.61 1098.54 2491.41 1098.54 Q2484.07 1098.54 2479.75 1103.54 Q2475.42 1108.49 2475.42 1116.97 L2475.42 1149.94 L2465.79 1149.94 L2465.79 1091.61 L2475.42 1091.61 L2475.42 1100.67 Q2478.71 1095.31 2483.29 1092.76 Q2487.87 1090.2 2494.17 1090.2 Q2500.53 1090.2 2504.96 1093.43 Q2509.43 1096.66 2511.57 1102.81 Z" fill="#000000" fill-rule="nonzero" fill-opacity="1" /><path clip-path="url(#clip250)" d="M2619.95 1118.38 L2619.95 1123.07 L2575.89 1123.07 Q2576.52 1132.96 2581.83 1138.17 Q2587.19 1143.33 2596.73 1143.33 Q2602.25 1143.33 2607.4 1141.97 Q2612.61 1140.62 2617.72 1137.91 L2617.72 1146.97 Q2612.56 1149.16 2607.14 1150.31 Q2601.73 1151.45 2596.15 1151.45 Q2582.19 1151.45 2574.02 1143.33 Q2565.89 1135.2 2565.89 1121.35 Q2565.89 1107.03 2573.6 1098.64 Q2581.36 1090.2 2594.49 1090.2 Q2606.26 1090.2 2613.08 1097.81 Q2619.95 1105.36 2619.95 1118.38 M2610.37 1115.57 Q2610.27 1107.7 2605.94 1103.02 Q2601.67 1098.33 2594.59 1098.33 Q2586.57 1098.33 2581.73 1102.86 Q2576.93 1107.39 2576.21 1115.62 L2610.37 1115.57 Z" fill="#000000" fill-rule="nonzero" fill-opacity="1" /><path clip-path="url(#clip250)" d="M2692.61 1069.01 Q2685.63 1080.99 2682.25 1092.7 Q2678.86 1104.42 2678.86 1116.45 Q2678.86 1128.49 2682.25 1140.31 Q2685.68 1152.08 2692.61 1164.01 L2684.28 1164.01 Q2676.46 1151.77 2672.56 1139.94 Q2668.7 1128.12 2668.7 1116.45 Q2668.7 1104.84 2672.56 1093.07 Q2676.41 1081.3 2684.28 1069.01 L2692.61 1069.01 Z" fill="#000000" fill-rule="nonzero" fill-opacity="1" /><path clip-path="url(#clip250)" d="M2749.59 1100.46 L2749.59 1068.9 L2759.17 1068.9 L2759.17 1149.94 L2749.59 1149.94 L2749.59 1141.19 Q2746.57 1146.4 2741.93 1148.95 Q2737.35 1151.45 2730.89 1151.45 Q2720.32 1151.45 2713.65 1143.02 Q2707.04 1134.58 2707.04 1120.83 Q2707.04 1107.08 2713.65 1098.64 Q2720.32 1090.2 2730.89 1090.2 Q2737.35 1090.2 2741.93 1092.76 Q2746.57 1095.26 2749.59 1100.46 M2716.93 1120.83 Q2716.93 1131.4 2721.26 1137.44 Q2725.63 1143.43 2733.24 1143.43 Q2740.84 1143.43 2745.21 1137.44 Q2749.59 1131.4 2749.59 1120.83 Q2749.59 1110.26 2745.21 1104.27 Q2740.84 1098.23 2733.24 1098.23 Q2725.63 1098.23 2721.26 1104.27 Q2716.93 1110.26 2716.93 1120.83 Z" fill="#000000" fill-rule="nonzero" fill-opacity="1" /><path clip-path="url(#clip250)" d="M2805.42 1120.62 Q2793.81 1120.62 2789.33 1123.28 Q2784.85 1125.93 2784.85 1132.34 Q2784.85 1137.44 2788.18 1140.46 Q2791.57 1143.43 2797.35 1143.43 Q2805.32 1143.43 2810.11 1137.81 Q2814.95 1132.13 2814.95 1122.76 L2814.95 1120.62 L2805.42 1120.62 M2824.54 1116.66 L2824.54 1149.94 L2814.95 1149.94 L2814.95 1141.09 Q2811.67 1146.4 2806.78 1148.95 Q2801.88 1151.45 2794.8 1151.45 Q2785.84 1151.45 2780.53 1146.45 Q2775.27 1141.4 2775.27 1132.96 Q2775.27 1123.12 2781.83 1118.12 Q2788.44 1113.12 2801.52 1113.12 L2814.95 1113.12 L2814.95 1112.18 Q2814.95 1105.57 2810.58 1101.98 Q2806.26 1098.33 2798.39 1098.33 Q2793.39 1098.33 2788.65 1099.53 Q2783.91 1100.73 2779.54 1103.12 L2779.54 1094.27 Q2784.8 1092.24 2789.75 1091.25 Q2794.69 1090.2 2799.38 1090.2 Q2812.04 1090.2 2818.29 1096.77 Q2824.54 1103.33 2824.54 1116.66 Z" fill="#000000" fill-rule="nonzero" fill-opacity="1" /><path clip-path="url(#clip250)" d="M2868.55 1155.36 Q2864.48 1165.78 2860.63 1168.95 Q2856.78 1172.13 2850.32 1172.13 L2842.66 1172.13 L2842.66 1164.11 L2848.29 1164.11 Q2852.25 1164.11 2854.43 1162.24 Q2856.62 1160.36 2859.28 1153.38 L2861 1149.01 L2837.4 1091.61 L2847.56 1091.61 L2865.79 1137.24 L2884.02 1091.61 L2894.17 1091.61 L2868.55 1155.36 Z" fill="#000000" fill-rule="nonzero" fill-opacity="1" /><path clip-path="url(#clip250)" d="M2905.89 1069.01 L2914.22 1069.01 Q2922.04 1081.3 2925.89 1093.07 Q2929.8 1104.84 2929.8 1116.45 Q2929.8 1128.12 2925.89 1139.94 Q2922.04 1151.77 2914.22 1164.01 L2905.89 1164.01 Q2912.82 1152.08 2916.2 1140.31 Q2919.64 1128.49 2919.64 1116.45 Q2919.64 1104.42 2916.2 1092.7 Q2912.82 1080.99 2905.89 1069.01 Z" fill="#000000" fill-rule="nonzero" fill-opacity="1" /><polyline clip-path="url(#clip252)" style="stroke:#000000; stroke-linecap:round; stroke-linejoin:round; stroke-width:2; stroke-opacity:0.1; fill:none" points="541.32,717.993 4752.76,717.993 "/>
<polyline clip-path="url(#clip252)" style="stroke:#000000; stroke-linecap:round; stroke-linejoin:round; stroke-width:2; stroke-opacity:0.1; fill:none" points="541.32,518.325 4752.76,518.325 "/>
<polyline clip-path="url(#clip252)" style="stroke:#000000; stroke-linecap:round; stroke-linejoin:round; stroke-width:2; stroke-opacity:0.1; fill:none" points="541.32,318.657 4752.76,318.657 "/>
<polyline clip-path="url(#clip252)" style="stroke:#000000; stroke-linecap:round; stroke-linejoin:round; stroke-width:2; stroke-opacity:0.1; fill:none" points="541.32,118.989 4752.76,118.989 "/>
<polyline clip-path="url(#clip250)" style="stroke:#000000; stroke-linecap:round; stroke-linejoin:round; stroke-width:4; stroke-opacity:1; fill:none" points="541.32,880.951 541.32,47.2441 "/>
<polyline clip-path="url(#clip250)" style="stroke:#000000; stroke-linecap:round; stroke-linejoin:round; stroke-width:4; stroke-opacity:1; fill:none" points="541.32,717.993 560.218,717.993 "/>
<polyline clip-path="url(#clip250)" style="stroke:#000000; stroke-linecap:round; stroke-linejoin:round; stroke-width:4; stroke-opacity:1; fill:none" points="541.32,518.325 560.218,518.325 "/>
<polyline clip-path="url(#clip250)" style="stroke:#000000; stroke-linecap:round; stroke-linejoin:round; stroke-width:4; stroke-opacity:1; fill:none" points="541.32,318.657 560.218,318.657 "/>
<polyline clip-path="url(#clip250)" style="stroke:#000000; stroke-linecap:round; stroke-linejoin:round; stroke-width:4; stroke-opacity:1; fill:none" points="541.32,118.989 560.218,118.989 "/>
<path clip-path="url(#clip250)" d="M194.136 718.895 L253.488 718.895 L253.488 726.766 L194.136 726.766 L194.136 718.895 Z" fill="#000000" fill-rule="nonzero" fill-opacity="1" /><path clip-path="url(#clip250)" d="M293.673 689.59 Q286.451 689.59 282.793 696.72 Q279.182 703.803 279.182 718.062 Q279.182 732.275 282.793 739.405 Q286.451 746.488 293.673 746.488 Q300.941 746.488 304.552 739.405 Q308.21 732.275 308.21 718.062 Q308.21 703.803 304.552 696.72 Q300.941 689.59 293.673 689.59 M293.673 682.183 Q305.293 682.183 311.404 691.396 Q317.562 700.562 317.562 718.062 Q317.562 735.516 311.404 744.729 Q305.293 753.895 293.673 753.895 Q282.053 753.895 275.895 744.729 Q269.784 735.516 269.784 718.062 Q269.784 700.562 275.895 691.396 Q282.053 682.183 293.673 682.183 Z" fill="#000000" fill-rule="nonzero" fill-opacity="1" /><path clip-path="url(#clip250)" d="M333.997 740.793 L343.765 740.793 L343.765 752.553 L333.997 752.553 L333.997 740.793 Z" fill="#000000" fill-rule="nonzero" fill-opacity="1" /><path clip-path="url(#clip250)" d="M384.135 689.59 Q376.913 689.59 373.256 696.72 Q369.645 703.803 369.645 718.062 Q369.645 732.275 373.256 739.405 Q376.913 746.488 384.135 746.488 Q391.404 746.488 395.015 739.405 Q398.672 732.275 398.672 718.062 Q398.672 703.803 395.015 696.72 Q391.404 689.59 384.135 689.59 M384.135 682.183 Q395.756 682.183 401.867 691.396 Q408.024 700.562 408.024 718.062 Q408.024 735.516 401.867 744.729 Q395.756 753.895 384.135 753.895 Q372.515 753.895 366.358 744.729 Q360.247 735.516 360.247 718.062 Q360.247 700.562 366.358 691.396 Q372.515 682.183 384.135 682.183 Z" fill="#000000" fill-rule="nonzero" fill-opacity="1" /><path clip-path="url(#clip250)" d="M450.154 691.581 L426.543 728.479 L450.154 728.479 L450.154 691.581 M447.7 683.433 L459.459 683.433 L459.459 728.479 L469.32 728.479 L469.32 736.256 L459.459 736.256 L459.459 752.553 L450.154 752.553 L450.154 736.256 L418.95 736.256 L418.95 727.229 L447.7 683.433 Z" fill="#000000" fill-rule="nonzero" fill-opacity="1" /><path clip-path="url(#clip250)" d="M198.303 519.228 L257.655 519.228 L257.655 527.098 L198.303 527.098 L198.303 519.228 Z" fill="#000000" fill-rule="nonzero" fill-opacity="1" /><path clip-path="url(#clip250)" d="M297.84 489.922 Q290.617 489.922 286.96 497.052 Q283.349 504.135 283.349 518.394 Q283.349 532.607 286.96 539.737 Q290.617 546.82 297.84 546.82 Q305.108 546.82 308.719 539.737 Q312.376 532.607 312.376 518.394 Q312.376 504.135 308.719 497.052 Q305.108 489.922 297.84 489.922 M297.84 482.515 Q309.46 482.515 315.571 491.728 Q321.728 500.894 321.728 518.394 Q321.728 535.848 315.571 545.061 Q309.46 554.227 297.84 554.227 Q286.219 554.227 280.062 545.061 Q273.951 535.848 273.951 518.394 Q273.951 500.894 280.062 491.728 Q286.219 482.515 297.84 482.515 Z" fill="#000000" fill-rule="nonzero" fill-opacity="1" /><path clip-path="url(#clip250)" d="M338.163 541.126 L347.932 541.126 L347.932 552.885 L338.163 552.885 L338.163 541.126 Z" fill="#000000" fill-rule="nonzero" fill-opacity="1" /><path clip-path="url(#clip250)" d="M388.302 489.922 Q381.08 489.922 377.422 497.052 Q373.811 504.135 373.811 518.394 Q373.811 532.607 377.422 539.737 Q381.08 546.82 388.302 546.82 Q395.57 546.82 399.182 539.737 Q402.839 532.607 402.839 518.394 Q402.839 504.135 399.182 497.052 Q395.57 489.922 388.302 489.922 M388.302 482.515 Q399.922 482.515 406.033 491.728 Q412.191 500.894 412.191 518.394 Q412.191 535.848 406.033 545.061 Q399.922 554.227 388.302 554.227 Q376.682 554.227 370.524 545.061 Q364.413 535.848 364.413 518.394 Q364.413 500.894 370.524 491.728 Q376.682 482.515 388.302 482.515 Z" fill="#000000" fill-rule="nonzero" fill-opacity="1" /><path clip-path="url(#clip250)" d="M436.681 545.014 L469.32 545.014 L469.32 552.885 L425.431 552.885 L425.431 545.014 Q430.755 539.505 439.922 530.246 Q449.135 520.94 451.496 518.255 Q455.987 513.209 457.746 509.737 Q459.552 506.218 459.552 502.839 Q459.552 497.329 455.663 493.857 Q451.82 490.385 445.617 490.385 Q441.218 490.385 436.311 491.913 Q431.45 493.441 425.894 496.542 L425.894 487.098 Q431.543 484.83 436.45 483.672 Q441.357 482.515 445.431 482.515 Q456.172 482.515 462.561 487.885 Q468.95 493.255 468.95 502.237 Q468.95 506.496 467.329 510.339 Q465.755 514.135 461.542 519.32 Q460.385 520.663 454.181 527.098 Q447.978 533.487 436.681 545.014 Z" fill="#000000" fill-rule="nonzero" fill-opacity="1" /><path clip-path="url(#clip250)" d="M294.645 290.254 Q287.423 290.254 283.766 297.384 Q280.154 304.467 280.154 318.726 Q280.154 332.939 283.766 340.069 Q287.423 347.152 294.645 347.152 Q301.914 347.152 305.525 340.069 Q309.182 332.939 309.182 318.726 Q309.182 304.467 305.525 297.384 Q301.914 290.254 294.645 290.254 M294.645 282.847 Q306.265 282.847 312.376 292.06 Q318.534 301.226 318.534 318.726 Q318.534 336.18 312.376 345.393 Q306.265 354.559 294.645 354.559 Q283.025 354.559 276.867 345.393 Q270.756 336.18 270.756 318.726 Q270.756 301.226 276.867 292.06 Q283.025 282.847 294.645 282.847 Z" fill="#000000" fill-rule="nonzero" fill-opacity="1" /><path clip-path="url(#clip250)" d="M334.969 341.458 L344.737 341.458 L344.737 353.217 L334.969 353.217 L334.969 341.458 Z" fill="#000000" fill-rule="nonzero" fill-opacity="1" /><path clip-path="url(#clip250)" d="M385.108 290.254 Q377.885 290.254 374.228 297.384 Q370.617 304.467 370.617 318.726 Q370.617 332.939 374.228 340.069 Q377.885 347.152 385.108 347.152 Q392.376 347.152 395.987 340.069 Q399.645 332.939 399.645 318.726 Q399.645 304.467 395.987 297.384 Q392.376 290.254 385.108 290.254 M385.108 282.847 Q396.728 282.847 402.839 292.06 Q408.996 301.226 408.996 318.726 Q408.996 336.18 402.839 345.393 Q396.728 354.559 385.108 354.559 Q373.487 354.559 367.33 345.393 Q361.219 336.18 361.219 318.726 Q361.219 301.226 367.33 292.06 Q373.487 282.847 385.108 282.847 Z" fill="#000000" fill-rule="nonzero" fill-opacity="1" /><path clip-path="url(#clip250)" d="M445.431 290.254 Q438.209 290.254 434.552 297.384 Q430.941 304.467 430.941 318.726 Q430.941 332.939 434.552 340.069 Q438.209 347.152 445.431 347.152 Q452.7 347.152 456.311 340.069 Q459.968 332.939 459.968 318.726 Q459.968 304.467 456.311 297.384 Q452.7 290.254 445.431 290.254 M445.431 282.847 Q457.052 282.847 463.163 292.06 Q469.32 301.226 469.32 318.726 Q469.32 336.18 463.163 345.393 Q457.052 354.559 445.431 354.559 Q433.811 354.559 427.654 345.393 Q421.543 336.18 421.543 318.726 Q421.543 301.226 427.654 292.06 Q433.811 282.847 445.431 282.847 Z" fill="#000000" fill-rule="nonzero" fill-opacity="1" /><path clip-path="url(#clip250)" d="M297.84 90.5863 Q290.617 90.5863 286.96 97.7159 Q283.349 104.799 283.349 119.058 Q283.349 133.271 286.96 140.401 Q290.617 147.484 297.84 147.484 Q305.108 147.484 308.719 140.401 Q312.376 133.271 312.376 119.058 Q312.376 104.799 308.719 97.7159 Q305.108 90.5863 297.84 90.5863 M297.84 83.1789 Q309.46 83.1789 315.571 92.3919 Q321.728 101.558 321.728 119.058 Q321.728 136.512 315.571 145.725 Q309.46 154.892 297.84 154.892 Q286.219 154.892 280.062 145.725 Q273.951 136.512 273.951 119.058 Q273.951 101.558 280.062 92.3919 Q286.219 83.1789 297.84 83.1789 Z" fill="#000000" fill-rule="nonzero" fill-opacity="1" /><path clip-path="url(#clip250)" d="M338.163 141.79 L347.932 141.79 L347.932 153.549 L338.163 153.549 L338.163 141.79 Z" fill="#000000" fill-rule="nonzero" fill-opacity="1" /><path clip-path="url(#clip250)" d="M388.302 90.5863 Q381.08 90.5863 377.422 97.7159 Q373.811 104.799 373.811 119.058 Q373.811 133.271 377.422 140.401 Q381.08 147.484 388.302 147.484 Q395.57 147.484 399.182 140.401 Q402.839 133.271 402.839 119.058 Q402.839 104.799 399.182 97.7159 Q395.57 90.5863 388.302 90.5863 M388.302 83.1789 Q399.922 83.1789 406.033 92.3919 Q412.191 101.558 412.191 119.058 Q412.191 136.512 406.033 145.725 Q399.922 154.892 388.302 154.892 Q376.682 154.892 370.524 145.725 Q364.413 136.512 364.413 119.058 Q364.413 101.558 370.524 92.3919 Q376.682 83.1789 388.302 83.1789 Z" fill="#000000" fill-rule="nonzero" fill-opacity="1" /><path clip-path="url(#clip250)" d="M436.681 145.679 L469.32 145.679 L469.32 153.549 L425.431 153.549 L425.431 145.679 Q430.755 140.169 439.922 130.91 Q449.135 121.605 451.496 118.919 Q455.987 113.873 457.746 110.401 Q459.552 106.883 459.552 103.503 Q459.552 97.9937 455.663 94.5215 Q451.82 91.0493 445.617 91.0493 Q441.218 91.0493 436.311 92.577 Q431.45 94.1048 425.894 97.2067 L425.894 87.7623 Q431.543 85.4938 436.45 84.3364 Q441.357 83.1789 445.431 83.1789 Q456.172 83.1789 462.561 88.5493 Q468.95 93.9196 468.95 102.901 Q468.95 107.16 467.329 111.003 Q465.755 114.799 461.542 119.984 Q460.385 121.327 454.181 127.762 Q447.978 134.151 436.681 145.679 Z" fill="#000000" fill-rule="nonzero" fill-opacity="1" /><path clip-path="url(#clip250)" d="M27.0379 651.258 L38.1316 651.258 Q33.1837 656.571 30.7358 662.612 Q28.2879 668.602 28.2879 675.373 Q28.2879 688.706 36.465 695.789 Q44.5899 702.873 60.0065 702.873 Q75.371 702.873 83.548 695.789 Q91.673 688.706 91.673 675.373 Q91.673 668.602 89.2251 662.612 Q86.7772 656.571 81.8293 651.258 L92.8188 651.258 Q96.5688 656.779 98.4438 662.977 Q100.319 669.123 100.319 675.998 Q100.319 693.654 89.5376 703.81 Q78.7043 713.966 60.0065 713.966 Q41.2566 713.966 30.4754 703.81 Q19.6421 693.654 19.6421 675.998 Q19.6421 669.019 21.5171 662.873 Q23.34 656.675 27.0379 651.258 Z" fill="#000000" fill-rule="nonzero" fill-opacity="1" /><path clip-path="url(#clip250)" d="M28.1838 603.446 Q28.1838 614.904 36.7254 621.675 Q45.267 628.394 60.0065 628.394 Q74.6939 628.394 83.2355 621.675 Q91.7772 614.904 91.7772 603.446 Q91.7772 591.988 83.2355 585.321 Q74.6939 578.602 60.0065 578.602 Q45.267 578.602 36.7254 585.321 Q28.1838 591.988 28.1838 603.446 M19.6421 603.446 Q19.6421 587.092 30.6317 577.3 Q41.5691 567.509 60.0065 567.509 Q78.3918 567.509 89.3813 577.3 Q100.319 587.092 100.319 603.446 Q100.319 619.852 89.3813 629.696 Q78.4439 639.487 60.0065 639.487 Q41.5691 639.487 30.6317 629.696 Q19.6421 619.852 19.6421 603.446 Z" fill="#000000" fill-rule="nonzero" fill-opacity="1" /><path clip-path="url(#clip250)" d="M17.8713 494.54 Q29.8504 501.519 41.5691 504.905 Q53.2878 508.29 65.319 508.29 Q77.3502 508.29 89.173 504.905 Q100.944 501.467 112.871 494.54 L112.871 502.874 Q100.631 510.686 88.8084 514.592 Q76.9856 518.446 65.319 518.446 Q53.7045 518.446 41.9337 514.592 Q30.1629 510.738 17.8713 502.874 L17.8713 494.54 Z" fill="#000000" fill-rule="nonzero" fill-opacity="1" /><path clip-path="url(#clip250)" d="M90.0584 466.676 L120.996 466.676 L120.996 476.311 L40.4754 476.311 L40.4754 466.676 L49.3295 466.676 Q44.1212 463.655 41.6212 459.072 Q39.0691 454.436 39.0691 448.03 Q39.0691 437.405 47.5066 430.791 Q55.944 424.124 69.694 424.124 Q83.4439 424.124 91.8813 430.791 Q100.319 437.405 100.319 448.03 Q100.319 454.436 97.8188 459.072 Q95.2667 463.655 90.0584 466.676 M69.694 434.072 Q59.1211 434.072 53.1315 438.447 Q47.0899 442.77 47.0899 450.374 Q47.0899 457.978 53.1315 462.353 Q59.1211 466.676 69.694 466.676 Q80.2668 466.676 86.3084 462.353 Q92.298 457.978 92.298 450.374 Q92.298 442.77 86.3084 438.447 Q80.2668 434.072 69.694 434.072 Z" fill="#000000" fill-rule="nonzero" fill-opacity="1" /><path clip-path="url(#clip250)" d="M90.0584 398.968 L120.996 398.968 L120.996 408.603 L40.4754 408.603 L40.4754 398.968 L49.3295 398.968 Q44.1212 395.947 41.6212 391.364 Q39.0691 386.728 39.0691 380.322 Q39.0691 369.697 47.5066 363.083 Q55.944 356.416 69.694 356.416 Q83.4439 356.416 91.8813 363.083 Q100.319 369.697 100.319 380.322 Q100.319 386.728 97.8188 391.364 Q95.2667 395.947 90.0584 398.968 M69.694 366.364 Q59.1211 366.364 53.1315 370.739 Q47.0899 375.062 47.0899 382.666 Q47.0899 390.27 53.1315 394.645 Q59.1211 398.968 69.694 398.968 Q80.2668 398.968 86.3084 394.645 Q92.298 390.27 92.298 382.666 Q92.298 375.062 86.3084 370.739 Q80.2668 366.364 69.694 366.364 Z" fill="#000000" fill-rule="nonzero" fill-opacity="1" /><path clip-path="url(#clip250)" d="M51.6732 295.114 Q45.2149 291.521 42.142 286.521 Q39.0691 281.521 39.0691 274.75 Q39.0691 265.635 45.4753 260.687 Q51.8295 255.74 63.6002 255.74 L98.8084 255.74 L98.8084 265.375 L63.9127 265.375 Q55.5274 265.375 51.4649 268.344 Q47.4024 271.312 47.4024 277.406 Q47.4024 284.854 52.3503 289.177 Q57.2982 293.5 65.8398 293.5 L98.8084 293.5 L98.8084 303.135 L63.9127 303.135 Q55.4753 303.135 51.4649 306.104 Q47.4024 309.073 47.4024 315.27 Q47.4024 322.614 52.4024 326.937 Q57.3503 331.26 65.8398 331.26 L98.8084 331.26 L98.8084 340.895 L40.4754 340.895 L40.4754 331.26 L49.5378 331.26 Q44.1733 327.979 41.6212 323.395 Q39.0691 318.812 39.0691 312.51 Q39.0691 306.156 42.2983 301.729 Q45.5274 297.25 51.6732 295.114 Z" fill="#000000" fill-rule="nonzero" fill-opacity="1" /><path clip-path="url(#clip250)" d="M17.8713 238.135 L17.8713 229.802 Q30.1629 221.99 41.9337 218.136 Q53.7045 214.229 65.319 214.229 Q76.9856 214.229 88.8084 218.136 Q100.631 221.99 112.871 229.802 L112.871 238.135 Q100.944 231.208 89.173 227.823 Q77.3502 224.386 65.319 224.386 Q53.2878 224.386 41.5691 227.823 Q29.8504 231.208 17.8713 238.135 Z" fill="#000000" fill-rule="nonzero" fill-opacity="1" /><path clip-path="url(#clip252)" d="M660.512 322.721 L678.991 741.625 L697.47 746.279 L715.95 745.478 L734.429 749.913 L752.908 754.329 L771.388 757.699 L789.867 761.701 L808.346 763.468 L826.826 763.321 L845.305 767.331 L863.784 767.567 L882.263 762.677 L900.743 761.983 L919.222 758.27 L937.701 752.206 L956.181 748.308 L974.66 857.356 L993.139 750.59 L1011.62 786.446 L1030.1 751.525 L1048.58 749.776 L1067.06 748.972 L1085.54 745.475 L1104.02 745.621 L1122.49 769.242 L1140.97 747.659 L1159.45 753.562 L1177.93 749.816 L1196.41 754.245 L1214.89 757.479 L1233.37 761.792 L1251.85 763.012 L1270.33 763.542 L1288.81 764.896 L1307.29 768.073 L1325.77 763.234 L1344.25 762.06 L1362.73 758.153 L1381.2 752.195 L1399.68 748.011 L1418.16 804.913 L1436.64 762.489 L1455.12 782.24 L1473.6 751.45 L1492.08 749.883 L1510.56 748.923 L1529.04 745.514 L1547.52 745.632 L1566 748.326 L1584.48 747.505 L1602.96 746.18 L1621.44 749.742 L1639.92 754.249 L1658.39 757.464 L1676.87 761.815 L1695.35 763.124 L1713.83 763.61 L1732.31 764.836 L1750.79 768.154 L1769.27 763.246 L1787.75 762.091 L1806.23 758.157 L1824.71 752.171 L1843.19 748.076 L1861.67 828.372 L1880.15 755.631 L1898.63 782.335 L1917.11 751.479 L1935.58 749.858 L1954.06 748.952 L1972.54 745.503 L1991.02 745.625 L2009.5 748.315 L2027.98 747.7 L2046.46 746.101 L2064.94 749.779 L2083.42 754.27 L2101.9 757.474 L2120.38 761.827 L2138.86 763.072 L2157.34 763.574 L2175.82 764.865 L2194.29 768.317 L2212.77 763.228 L2231.25 762.075 L2249.73 758.173 L2268.21 752.179 L2286.69 748.048 L2305.17 817.402 L2323.65 758.653 L2342.13 782.362 L2360.61 751.455 L2379.09 749.835 L2397.57 748.996 L2416.05 745.479 L2434.53 745.707 L2453.01 748.319 L2471.48 747.713 L2489.96 746.071 L2508.44 749.751 L2526.92 754.265 L2545.4 757.472 L2563.88 761.831 L2582.36 763.104 L2600.84 763.597 L2619.32 764.853 L2637.8 768.396 L2656.28 763.257 L2674.76 762.097 L2693.24 758.168 L2711.72 752.173 L2730.19 748.071 L2748.67 822.16 L2767.15 757.28 L2785.63 782.803 L2804.11 751.583 L2822.59 749.733 L2841.07 749.02 L2859.55 745.54 L2878.03 745.65 L2896.51 748.322 L2914.99 747.689 L2933.47 746.12 L2951.95 749.756 L2970.43 754.276 L2988.91 757.478 L3007.38 761.823 L3025.86 763.081 L3044.34 763.582 L3062.82 764.857 L3081.3 768.459 L3099.78 763.238 L3118.26 762.078 L3136.74 758.162 L3155.22 752.165 L3173.7 748.07 L3192.18 820.413 L3210.66 757.753 L3229.14 782.3 L3247.62 751.538 L3266.1 749.815 L3284.57 748.925 L3303.05 745.579 L3321.53 745.676 L3340.01 748.322 L3358.49 747.712 L3376.97 746.101 L3395.45 749.757 L3413.93 754.266 L3432.41 757.477 L3450.89 761.838 L3469.37 763.1 L3487.85 763.595 L3506.33 764.863 L3524.81 768.573 L3543.28 763.237 L3561.76 762.087 L3580.24 758.162 L3598.72 752.163 L3617.2 748.063 L3635.68 821.181 L3654.16 757.544 L3672.64 782.983 L3691.12 751.472 L3709.6 749.863 L3728.08 748.939 L3746.56 745.518 L3765.04 745.715 L3783.52 748.321 L3802 747.686 L3820.47 746.076 L3838.95 749.765 L3857.43 754.268 L3875.91 757.481 L3894.39 761.833 L3912.87 763.079 L3931.35 763.581 L3949.83 764.863 L3968.31 768.672 L3986.79 763.247 L4005.27 762.077 L4023.75 758.178 L4042.23 752.17 L4060.71 748.067 L4079.18 821.175 L4097.66 757.509 L4116.14 782.254 L4134.62 751.467 L4153.1 749.866 L4171.58 748.946 L4190.06 745.515 L4208.54 745.607 L4227.02 748.308 L4245.5 747.649 L4263.98 746.142 L4282.46 749.754 L4300.94 754.276 L4319.42 757.473 L4337.9 761.828 L4356.37 763.1 L4374.85 763.594 L4393.33 764.868 L4411.81 768.791 L4430.29 763.235 L4448.77 762.09 L4467.25 758.165 L4485.73 752.168 L4504.21 748.062 L4522.69 820.93 L4541.17 757.556 L4559.65 782.361 L4578.13 751.47 L4596.61 749.858 L4615.09 748.959 L4633.56 745.556 L4633.56 414.109 L4615.09 413.982 L4596.61 320.502 L4578.13 413.282 L4559.65 413.252 L4541.17 345.978 L4522.69 415.783 L4504.21 416.487 L4485.73 207.174 L4467.25 420.902 L4448.77 420.526 L4430.29 368.73 L4411.81 418.244 L4393.33 418.254 L4374.85 316.852 L4356.37 417.689 L4337.9 418.095 L4319.42 310.994 L4300.94 419.771 L4282.46 418.28 L4263.98 399.728 L4245.5 416.539 L4227.02 415.621 L4208.54 247.343 L4190.06 414.113 L4171.58 413.978 L4153.1 320.627 L4134.62 413.288 L4116.14 413.282 L4097.66 346.15 L4079.18 415.683 L4060.71 416.256 L4042.23 207.479 L4023.75 420.92 L4005.27 420.363 L3986.79 368.77 L3968.31 418.302 L3949.83 418.242 L3931.35 317.061 L3912.87 417.727 L3894.39 418.288 L3875.91 311.146 L3857.43 419.765 L3838.95 418.309 L3820.47 399.876 L3802 416.533 L3783.52 415.628 L3765.04 247.618 L3746.56 414.103 L3728.08 413.977 L3709.6 320.629 L3691.12 413.285 L3672.64 413.255 L3654.16 346.299 L3635.68 415.635 L3617.2 416.361 L3598.72 207.775 L3580.24 420.911 L3561.76 420.739 L3543.28 368.914 L3524.81 418.235 L3506.33 418.243 L3487.85 317.371 L3469.37 417.791 L3450.89 418.32 L3432.41 311.122 L3413.93 419.759 L3395.45 418.284 L3376.97 399.999 L3358.49 416.527 L3340.01 415.624 L3321.53 247.9 L3303.05 414.109 L3284.57 413.98 L3266.1 320.786 L3247.62 413.327 L3229.14 413.278 L3210.66 346.373 L3192.18 415.765 L3173.7 416.444 L3155.22 208.071 L3136.74 420.908 L3118.26 420.246 L3099.78 368.966 L3081.3 418.219 L3062.82 418.295 L3044.34 317.488 L3025.86 417.636 L3007.38 418.092 L2988.91 311.159 L2970.43 419.774 L2951.95 418.295 L2933.47 400.136 L2914.99 416.539 L2896.51 415.631 L2878.03 248.108 L2859.55 414.108 L2841.07 413.973 L2822.59 320.808 L2804.11 413.287 L2785.63 413.262 L2767.15 346.619 L2748.67 415.699 L2730.19 416.51 L2711.72 208.406 L2693.24 420.688 L2674.76 420.563 L2656.28 369.2 L2637.8 418.294 L2619.32 418.216 L2600.84 317.695 L2582.36 417.651 L2563.88 418.07 L2545.4 311.136 L2526.92 419.761 L2508.44 418.277 L2489.96 400.253 L2471.48 416.53 L2453.01 415.616 L2434.53 248.38 L2416.05 414.102 L2397.57 413.984 L2379.09 320.925 L2360.61 413.303 L2342.13 413.286 L2323.65 346.737 L2305.17 415.716 L2286.69 416.401 L2268.21 208.742 L2249.73 420.919 L2231.25 420.58 L2212.77 369.272 L2194.29 418.225 L2175.82 418.297 L2157.34 317.869 L2138.86 417.785 L2120.38 418.309 L2101.9 311.331 L2083.42 419.77 L2064.94 418.319 L2046.46 400.399 L2027.98 416.541 L2009.5 415.627 L1991.02 248.611 L1972.54 414.108 L1954.06 413.972 L1935.58 320.925 L1917.11 413.3 L1898.63 413.259 L1880.15 346.955 L1861.67 415.684 L1843.19 416.388 L1824.71 209.06 L1806.23 420.916 L1787.75 420.125 L1769.27 369.344 L1750.79 418.201 L1732.31 418.274 L1713.83 318.112 L1695.35 417.691 L1676.87 418.155 L1658.39 311.343 L1639.92 419.752 L1621.44 418.279 L1602.96 400.447 L1584.48 416.522 L1566 415.639 L1547.52 248.786 L1529.04 414.113 L1510.56 413.963 L1492.08 321.079 L1473.6 413.273 L1455.12 413.274 L1436.64 347.155 L1418.16 415.692 L1399.68 416.459 L1381.2 209.377 L1362.73 420.69 L1344.25 420.04 L1325.77 369.417 L1307.29 418.274 L1288.81 418.21 L1270.33 318.255 L1251.85 417.53 L1233.37 418.068 L1214.89 311.351 L1196.41 419.778 L1177.93 418.386 L1159.45 400.533 L1140.97 416.588 L1122.49 415.729 L1104.02 249.036 L1085.54 414.139 L1067.06 414.129 L1048.58 320.985 L1030.1 413.442 L1011.62 413.31 L993.139 347.222 L974.66 415.863 L956.181 416.263 L937.701 209.432 L919.222 421.061 L900.743 420.358 L882.263 369.457 L863.784 417.882 L845.305 418.081 L826.826 318.272 L808.346 417.695 L789.867 417.631 L771.388 311.103 L752.908 419.253 L734.429 418.305 L715.95 400.805 L697.47 416.596 L678.991 414.459 L660.512 70.8396  Z" fill="#c8c8c8" fill-rule="evenodd" fill-opacity="0.5"/>
<polyline clip-path="url(#clip252)" style="stroke:#c8c8c8; stroke-linecap:round; stroke-linejoin:round; stroke-width:0; stroke-opacity:1; fill:none" points="660.512,317.98 678.991,430.82 697.47,432.597 715.95,431.897 734.429,432.34 752.908,432.353 771.388,431.835 789.867,432.582 808.346,432.696 826.826,431.557 845.305,432.436 863.784,432.881 882.263,431.991 900.743,432.886 919.222,432.994 937.701,431.868 956.181,432.776 974.66,432.849 993.139,431.645 1011.62,432.775 1030.1,433.088 1048.58,432.021 1067.06,433.189 1085.54,432.691 1104.02,431.928 1122.49,432.9 1140.97,432.962 1159.45,432.104 1177.93,432.635 1196.41,432.764 1214.89,432.155 1233.37,433.196 1251.85,432.543 1270.33,431.886 1288.81,432.647 1307.29,433.221 1325.77,432.064 1344.25,432.939 1362.73,433.065 1381.2,431.871 1399.68,432.662 1418.16,432.796 1436.64,431.736 1455.12,432.856 1473.6,433.068 1492.08,432.113 1510.56,433.119 1529.04,432.734 1547.52,431.914 1566,432.862 1584.48,432.942 1602.96,432.082 1621.44,432.563 1639.92,432.764 1658.39,432.131 1676.87,433.192 1695.35,432.671 1713.83,431.943 1732.31,432.585 1750.79,433.215 1769.27,432.076 1787.75,432.97 1806.23,433.058 1824.71,431.852 1843.19,432.721 1861.67,432.852 1880.15,431.714 1898.63,432.863 1917.11,433.106 1935.58,432.093 1954.06,433.135 1972.54,432.737 1991.02,431.923 2009.5,432.854 2027.98,432.965 2046.46,432.073 2064.94,432.602 2083.42,432.784 2101.9,432.14 2120.38,433.197 2138.86,432.622 2157.34,431.904 2175.82,432.612 2194.29,433.24 2212.77,432.058 2231.25,432.958 2249.73,433.073 2268.21,431.861 2286.69,432.692 2305.17,432.831 2323.65,431.725 2342.13,432.858 2360.61,433.077 2379.09,432.105 2397.57,433.141 2416.05,432.731 2434.53,431.914 2453.01,432.849 2471.48,432.957 2489.96,432.082 2508.44,432.574 2526.92,432.778 2545.4,432.137 2563.88,433.199 2582.36,432.654 2600.84,431.927 2619.32,432.6 2637.8,433.231 2656.28,432.088 2674.76,432.979 2693.24,433.068 2711.72,431.855 2730.19,432.715 2748.67,432.837 2767.15,431.721 2785.63,432.867 2804.11,433.096 2822.59,432.094 2841.07,433.139 2859.55,432.738 2878.03,431.92 2896.51,432.858 2914.99,432.964 2933.47,432.075 2951.95,432.579 2970.43,432.789 2988.91,432.144 3007.38,433.191 3025.86,432.631 3044.34,431.912 3062.82,432.605 3081.3,433.239 3099.78,432.068 3118.26,432.958 3136.74,433.061 3155.22,431.848 3173.7,432.714 3192.18,432.84 3210.66,431.726 3229.14,432.859 3247.62,433.088 3266.1,432.107 3284.57,433.134 3303.05,432.738 3321.53,431.922 3340.01,432.856 3358.49,432.957 3376.97,432.077 3395.45,432.58 3413.93,432.779 3432.41,432.142 3450.89,433.206 3469.37,432.651 3487.85,431.925 3506.33,432.61 3524.81,433.24 3543.28,432.068 3561.76,432.969 3580.24,433.062 3598.72,431.846 3617.2,432.706 3635.68,432.833 3654.16,431.718 3672.64,432.87 3691.12,433.089 3709.6,432.094 3728.08,433.139 3746.56,432.733 3765.04,431.926 3783.52,432.853 3802,432.96 3820.47,432.074 3838.95,432.588 3857.43,432.781 3875.91,432.146 3894.39,433.2 3912.87,432.629 3931.35,431.911 3949.83,432.61 3968.31,433.246 3986.79,432.078 4005.27,432.958 4023.75,433.077 4042.23,431.853 4060.71,432.71 4079.18,432.837 4097.66,431.72 4116.14,432.861 4134.62,433.092 4153.1,432.097 4171.58,433.135 4190.06,432.743 4208.54,431.919 4227.02,432.853 4245.5,432.967 4263.98,432.087 4282.46,432.577 4300.94,432.789 4319.42,432.138 4337.9,433.196 4356.37,432.65 4374.85,431.924 4393.33,432.615 4411.81,433.241 4430.29,432.066 4448.77,432.971 4467.25,433.065 4485.73,431.852 4504.21,432.705 4522.69,432.839 4541.17,431.715 4559.65,432.861 4578.13,433.09 4596.61,432.088 4615.09,433.146 4633.56,432.736 "/>
<path clip-path="url(#clip252)" d="M660.512 320.897 L678.991 662.895 L697.47 666.46 L715.95 669.616 L734.429 673.631 L752.908 676.627 L771.388 678.864 L789.867 680.532 L808.346 681.934 L826.826 677.987 L845.305 677.666 L863.784 680.953 L882.263 678.579 L900.743 677.335 L919.222 674.076 L937.701 670.262 L956.181 672.077 L974.66 668.733 L993.139 665.818 L1011.62 668.575 L1030.1 671.362 L1048.58 669.517 L1067.06 675.524 L1085.54 666.534 L1104.02 665.373 L1122.49 668.258 L1140.97 672.22 L1159.45 671.974 L1177.93 674.845 L1196.41 677.216 L1214.89 679.693 L1233.37 681.099 L1251.85 679.535 L1270.33 678.414 L1288.81 679.177 L1307.29 677.529 L1325.77 678.548 L1344.25 677.406 L1362.73 675.265 L1381.2 670.238 L1399.68 670.674 L1418.16 668.664 L1436.64 665.987 L1455.12 668.66 L1473.6 670.407 L1492.08 669.596 L1510.56 675.519 L1529.04 666.529 L1547.52 665.498 L1566 668.221 L1584.48 669.451 L1602.96 671.914 L1621.44 674.165 L1639.92 677.184 L1658.39 679.531 L1676.87 681.032 L1695.35 680.473 L1713.83 678.367 L1732.31 677.782 L1750.79 679.14 L1769.27 678.714 L1787.75 677.384 L1806.23 674.037 L1824.71 670.209 L1843.19 670.749 L1861.67 668.699 L1880.15 665.941 L1898.63 668.669 L1917.11 670.435 L1935.58 669.576 L1954.06 675.517 L1972.54 666.499 L1991.02 665.515 L2009.5 668.198 L2027.98 669.474 L2046.46 671.902 L2064.94 674.218 L2083.42 677.198 L2101.9 679.575 L2120.38 681.14 L2138.86 679.484 L2157.34 678.474 L2175.82 678.536 L2194.29 679.212 L2212.77 678.665 L2231.25 677.405 L2249.73 674.623 L2268.21 670.233 L2286.69 670.709 L2305.17 668.653 L2323.65 665.97 L2342.13 668.679 L2360.61 670.4 L2379.09 669.607 L2397.57 675.435 L2416.05 666.561 L2434.53 665.516 L2453.01 668.262 L2471.48 669.47 L2489.96 671.912 L2508.44 674.176 L2526.92 677.187 L2545.4 679.576 L2563.88 681.066 L2582.36 680.442 L2600.84 678.41 L2619.32 677.797 L2637.8 679.131 L2656.28 678.756 L2674.76 677.389 L2693.24 675.124 L2711.72 670.197 L2730.19 670.714 L2748.67 668.695 L2767.15 665.972 L2785.63 668.668 L2804.11 670.416 L2822.59 669.59 L2841.07 675.51 L2859.55 666.618 L2878.03 665.496 L2896.51 668.246 L2914.99 669.475 L2933.47 671.904 L2951.95 674.193 L2970.43 677.198 L2988.91 679.585 L3007.38 681.097 L3025.86 679.504 L3044.34 678.462 L3062.82 678.139 L3081.3 679.231 L3099.78 678.486 L3118.26 677.429 L3136.74 674.045 L3155.22 670.223 L3173.7 670.721 L3192.18 668.666 L3210.66 665.965 L3229.14 668.676 L3247.62 670.398 L3266.1 669.589 L3284.57 675.449 L3303.05 666.522 L3321.53 665.519 L3340.01 668.198 L3358.49 669.474 L3376.97 671.913 L3395.45 674.174 L3413.93 677.183 L3432.41 679.605 L3450.89 680.977 L3469.37 680.259 L3487.85 678.359 L3506.33 677.814 L3524.81 679.154 L3543.28 678.697 L3561.76 677.398 L3580.24 674.61 L3598.72 670.189 L3617.2 670.722 L3635.68 668.666 L3654.16 665.955 L3672.64 668.667 L3691.12 670.407 L3709.6 669.578 L3728.08 675.441 L3746.56 666.532 L3765.04 665.518 L3783.52 668.239 L3802 669.475 L3820.47 671.913 L3838.95 674.177 L3857.43 677.184 L3875.91 679.554 L3894.39 681.1 L3912.87 679.526 L3931.35 678.479 L3949.83 678.02 L3968.31 679.23 L3986.79 678.678 L4005.27 677.398 L4023.75 675.58 L4042.23 670.173 L4060.71 670.71 L4079.18 668.692 L4097.66 665.958 L4116.14 668.679 L4134.62 670.403 L4153.1 669.581 L4171.58 675.484 L4190.06 666.495 L4208.54 665.502 L4227.02 668.22 L4245.5 669.49 L4263.98 671.94 L4282.46 674.178 L4300.94 677.189 L4319.42 679.611 L4337.9 681.012 L4356.37 679.918 L4374.85 678.361 L4393.33 677.906 L4411.81 679.191 L4430.29 678.684 L4448.77 677.378 L4467.25 674.022 L4485.73 670.205 L4504.21 670.693 L4522.69 668.668 L4541.17 665.944 L4559.65 668.656 L4578.13 670.414 L4596.61 669.576 L4615.09 675.44 L4633.56 666.53 L4633.56 449.085 L4615.09 450.365 L4596.61 448.882 L4578.13 449.888 L4559.65 448.522 L4541.17 447.063 L4522.69 448.406 L4504.21 448.567 L4485.73 447.243 L4467.25 449.751 L4448.77 449.42 L4430.29 447.788 L4411.81 449.084 L4393.33 448.588 L4374.85 447.862 L4356.37 448.456 L4337.9 449.454 L4319.42 448.764 L4300.94 447.057 L4282.46 449.022 L4263.98 446.114 L4245.5 448.806 L4227.02 449.464 L4208.54 446.943 L4190.06 449.083 L4171.58 450.36 L4153.1 448.805 L4134.62 449.992 L4116.14 448.516 L4097.66 447.057 L4079.18 448.324 L4060.71 448.541 L4042.23 447.216 L4023.75 449.847 L4005.27 449.422 L3986.79 447.813 L3968.31 449.176 L3949.83 448.502 L3931.35 447.757 L3912.87 448.362 L3894.39 449.497 L3875.91 448.807 L3857.43 447.023 L3838.95 449.06 L3820.47 446.111 L3802 448.705 L3783.52 449.462 L3765.04 446.872 L3746.56 449.068 L3728.08 450.397 L3709.6 448.96 L3691.12 449.987 L3672.64 448.53 L3654.16 447.097 L3635.68 448.273 L3617.2 448.533 L3598.72 447.21 L3580.24 449.868 L3561.76 449.349 L3543.28 447.819 L3524.81 449.128 L3506.33 448.574 L3487.85 447.877 L3469.37 448.397 L3450.89 449.345 L3432.41 448.859 L3413.93 447.075 L3395.45 449.054 L3376.97 446.116 L3358.49 448.714 L3340.01 449.461 L3321.53 446.889 L3303.05 449.058 L3284.57 450.389 L3266.1 448.88 L3247.62 449.83 L3229.14 448.512 L3210.66 447.12 L3192.18 448.274 L3173.7 448.584 L3155.22 447.278 L3136.74 449.904 L3118.26 449.41 L3099.78 447.824 L3081.3 449.167 L3062.82 448.525 L3044.34 447.865 L3025.86 448.455 L3007.38 449.352 L2988.91 448.801 L2970.43 446.999 L2951.95 449.063 L2933.47 446.151 L2914.99 448.659 L2896.51 449.465 L2878.03 446.835 L2859.55 449.054 L2841.07 450.376 L2822.59 448.89 L2804.11 449.916 L2785.63 448.523 L2767.15 447.095 L2748.67 448.28 L2730.19 448.57 L2711.72 447.324 L2693.24 449.876 L2674.76 449.428 L2656.28 447.834 L2637.8 449.127 L2619.32 448.462 L2600.84 447.787 L2582.36 448.427 L2563.88 449.459 L2545.4 448.759 L2526.92 446.974 L2508.44 449.017 L2489.96 446.173 L2471.48 449.005 L2453.01 449.495 L2434.53 446.911 L2416.05 449.07 L2397.57 450.348 L2379.09 448.956 L2360.61 449.848 L2342.13 448.516 L2323.65 447.089 L2305.17 448.315 L2286.69 448.489 L2268.21 447.261 L2249.73 449.891 L2231.25 449.421 L2212.77 447.78 L2194.29 449.17 L2175.82 448.568 L2157.34 447.88 L2138.86 448.394 L2120.38 449.496 L2101.9 448.856 L2083.42 446.96 L2064.94 448.986 L2046.46 446.214 L2027.98 448.817 L2009.5 449.498 L1991.02 446.887 L1972.54 449.074 L1954.06 450.397 L1935.58 448.971 L1917.11 450.02 L1898.63 448.485 L1880.15 447.288 L1861.67 448.336 L1843.19 448.703 L1824.71 447.24 L1806.23 449.749 L1787.75 449.397 L1769.27 447.801 L1750.79 449.045 L1732.31 448.602 L1713.83 447.821 L1695.35 448.447 L1676.87 449.443 L1658.39 448.767 L1639.92 447.002 L1621.44 448.993 L1602.96 446.188 L1584.48 448.68 L1566 449.469 L1547.52 446.878 L1529.04 449.04 L1510.56 450.377 L1492.08 448.948 L1473.6 449.924 L1455.12 448.446 L1436.64 447.162 L1418.16 448.369 L1399.68 448.506 L1381.2 447.413 L1362.73 449.742 L1344.25 449.334 L1325.77 447.762 L1307.29 449.098 L1288.81 448.534 L1270.33 447.706 L1251.85 448.263 L1233.37 449.357 L1214.89 448.89 L1196.41 447.001 L1177.93 449.008 L1159.45 446.141 L1140.97 448.858 L1122.49 449.544 L1104.02 446.733 L1085.54 448.88 L1067.06 450.416 L1048.58 448.892 L1030.1 449.899 L1011.62 448.395 L993.139 446.995 L974.66 448.276 L956.181 448.649 L937.701 447.171 L919.222 449.648 L900.743 449.167 L882.263 447.575 L863.784 448.796 L845.305 448.437 L826.826 446.908 L808.346 448.301 L789.867 448.372 L771.388 448.104 L752.908 447.5 L734.429 448.415 L715.95 445.99 L697.47 448.39 L678.991 447.153 L660.512 315.431  Z" fill="#525252" fill-rule="evenodd" fill-opacity="0.5"/>
<polyline clip-path="url(#clip252)" style="stroke:#525252; stroke-linecap:round; stroke-linejoin:round; stroke-width:0; stroke-opacity:1; fill:none" points="660.512,317.98 678.991,430.82 697.47,432.597 715.95,431.897 734.429,432.34 752.908,432.353 771.388,431.835 789.867,432.582 808.346,432.696 826.826,431.557 845.305,432.436 863.784,432.881 882.263,431.991 900.743,432.886 919.222,432.994 937.701,431.868 956.181,432.776 974.66,432.849 993.139,431.645 1011.62,432.775 1030.1,433.088 1048.58,432.021 1067.06,433.189 1085.54,432.691 1104.02,431.928 1122.49,432.9 1140.97,432.962 1159.45,432.104 1177.93,432.635 1196.41,432.764 1214.89,432.155 1233.37,433.196 1251.85,432.543 1270.33,431.886 1288.81,432.647 1307.29,433.221 1325.77,432.064 1344.25,432.939 1362.73,433.065 1381.2,431.871 1399.68,432.662 1418.16,432.796 1436.64,431.736 1455.12,432.856 1473.6,433.068 1492.08,432.113 1510.56,433.119 1529.04,432.734 1547.52,431.914 1566,432.862 1584.48,432.942 1602.96,432.082 1621.44,432.563 1639.92,432.764 1658.39,432.131 1676.87,433.192 1695.35,432.671 1713.83,431.943 1732.31,432.585 1750.79,433.215 1769.27,432.076 1787.75,432.97 1806.23,433.058 1824.71,431.852 1843.19,432.721 1861.67,432.852 1880.15,431.714 1898.63,432.863 1917.11,433.106 1935.58,432.093 1954.06,433.135 1972.54,432.737 1991.02,431.923 2009.5,432.854 2027.98,432.965 2046.46,432.073 2064.94,432.602 2083.42,432.784 2101.9,432.14 2120.38,433.197 2138.86,432.622 2157.34,431.904 2175.82,432.612 2194.29,433.24 2212.77,432.058 2231.25,432.958 2249.73,433.073 2268.21,431.861 2286.69,432.692 2305.17,432.831 2323.65,431.725 2342.13,432.858 2360.61,433.077 2379.09,432.105 2397.57,433.141 2416.05,432.731 2434.53,431.914 2453.01,432.849 2471.48,432.957 2489.96,432.082 2508.44,432.574 2526.92,432.778 2545.4,432.137 2563.88,433.199 2582.36,432.654 2600.84,431.927 2619.32,432.6 2637.8,433.231 2656.28,432.088 2674.76,432.979 2693.24,433.068 2711.72,431.855 2730.19,432.715 2748.67,432.837 2767.15,431.721 2785.63,432.867 2804.11,433.096 2822.59,432.094 2841.07,433.139 2859.55,432.738 2878.03,431.92 2896.51,432.858 2914.99,432.964 2933.47,432.075 2951.95,432.579 2970.43,432.789 2988.91,432.144 3007.38,433.191 3025.86,432.631 3044.34,431.912 3062.82,432.605 3081.3,433.239 3099.78,432.068 3118.26,432.958 3136.74,433.061 3155.22,431.848 3173.7,432.714 3192.18,432.84 3210.66,431.726 3229.14,432.859 3247.62,433.088 3266.1,432.107 3284.57,433.134 3303.05,432.738 3321.53,431.922 3340.01,432.856 3358.49,432.957 3376.97,432.077 3395.45,432.58 3413.93,432.779 3432.41,432.142 3450.89,433.206 3469.37,432.651 3487.85,431.925 3506.33,432.61 3524.81,433.24 3543.28,432.068 3561.76,432.969 3580.24,433.062 3598.72,431.846 3617.2,432.706 3635.68,432.833 3654.16,431.718 3672.64,432.87 3691.12,433.089 3709.6,432.094 3728.08,433.139 3746.56,432.733 3765.04,431.926 3783.52,432.853 3802,432.96 3820.47,432.074 3838.95,432.588 3857.43,432.781 3875.91,432.146 3894.39,433.2 3912.87,432.629 3931.35,431.911 3949.83,432.61 3968.31,433.246 3986.79,432.078 4005.27,432.958 4023.75,433.077 4042.23,431.853 4060.71,432.71 4079.18,432.837 4097.66,431.72 4116.14,432.861 4134.62,433.092 4153.1,432.097 4171.58,433.135 4190.06,432.743 4208.54,431.919 4227.02,432.853 4245.5,432.967 4263.98,432.087 4282.46,432.577 4300.94,432.789 4319.42,432.138 4337.9,433.196 4356.37,432.65 4374.85,431.924 4393.33,432.615 4411.81,433.241 4430.29,432.066 4448.77,432.971 4467.25,433.065 4485.73,431.852 4504.21,432.705 4522.69,432.839 4541.17,431.715 4559.65,432.861 4578.13,433.09 4596.61,432.088 4615.09,433.146 4633.56,432.736 "/>
<path clip-path="url(#clip252)" d="M660.512 320.279 L678.991 637.869 L697.47 641.208 L715.95 640.056 L734.429 640.196 L752.908 638.778 L771.388 637.787 L789.867 639.85 L808.346 639.333 L826.826 638.437 L845.305 639.001 L863.784 639.745 L882.263 638.113 L900.743 640.794 L919.222 643.251 L937.701 641.941 L956.181 645.671 L974.66 644.842 L993.139 643.314 L1011.62 643.324 L1030.1 643.294 L1048.58 641.87 L1067.06 644.992 L1085.54 643.009 L1104.02 642.987 L1122.49 644.23 L1140.97 642.666 L1159.45 640.434 L1177.93 641.073 L1196.41 640.473 L1214.89 639.926 L1233.37 640.538 L1251.85 639.086 L1270.33 637.319 L1288.81 639.134 L1307.29 641.277 L1325.77 638.149 L1344.25 640.887 L1362.73 643.62 L1381.2 641.892 L1399.68 644.449 L1418.16 644.622 L1436.64 643.434 L1455.12 643.414 L1473.6 643.33 L1492.08 642.047 L1510.56 645.503 L1529.04 643.08 L1547.52 643.108 L1566 644.204 L1584.48 642.632 L1602.96 640.964 L1621.44 641.132 L1639.92 640.45 L1658.39 639.925 L1676.87 640.488 L1695.35 639.155 L1713.83 638.703 L1732.31 639.083 L1750.79 641.381 L1769.27 638.179 L1787.75 640.924 L1806.23 643.832 L1824.71 641.904 L1843.19 644.603 L1861.67 644.801 L1880.15 643.464 L1898.63 643.39 L1917.11 643.382 L1935.58 642.063 L1954.06 645.617 L1972.54 643.116 L1991.02 643.149 L2009.5 644.193 L2027.98 642.66 L2046.46 640.365 L2064.94 641.258 L2083.42 640.479 L2101.9 639.942 L2120.38 640.54 L2138.86 639.359 L2157.34 637.599 L2175.82 638.859 L2194.29 641.379 L2212.77 638.171 L2231.25 640.968 L2249.73 643.785 L2268.21 641.876 L2286.69 644.525 L2305.17 644.807 L2323.65 643.428 L2342.13 643.476 L2360.61 643.278 L2379.09 641.922 L2397.57 645.337 L2416.05 643.088 L2434.53 643.03 L2453.01 644.212 L2471.48 642.666 L2489.96 640.574 L2508.44 641.178 L2526.92 640.478 L2545.4 639.943 L2563.88 640.548 L2582.36 639.26 L2600.84 637.705 L2619.32 639.098 L2637.8 641.395 L2656.28 638.233 L2674.76 640.924 L2693.24 643.831 L2711.72 641.864 L2730.19 644.489 L2748.67 644.733 L2767.15 643.425 L2785.63 643.489 L2804.11 643.29 L2822.59 641.9 L2841.07 645.544 L2859.55 643.141 L2878.03 643.117 L2896.51 644.202 L2914.99 642.645 L2933.47 640.365 L2951.95 641.265 L2970.43 640.484 L2988.91 639.942 L3007.38 640.513 L3025.86 639.216 L3044.34 637.599 L3062.82 638.935 L3081.3 641.378 L3099.78 638.144 L3118.26 640.84 L3136.74 643.703 L3155.22 641.876 L3173.7 644.568 L3192.18 644.784 L3210.66 643.468 L3229.14 643.505 L3247.62 643.275 L3266.1 642.102 L3284.57 645.509 L3303.05 643.15 L3321.53 643.095 L3340.01 644.202 L3358.49 642.643 L3376.97 640.603 L3395.45 641.135 L3413.93 640.471 L3432.41 639.944 L3450.89 640.518 L3469.37 639.183 L3487.85 637.675 L3506.33 639.11 L3524.81 641.405 L3543.28 638.193 L3561.76 640.933 L3580.24 643.754 L3598.72 641.899 L3617.2 645.02 L3635.68 644.781 L3654.16 643.437 L3672.64 643.448 L3691.12 643.31 L3709.6 642.158 L3728.08 645.675 L3746.56 643.192 L3765.04 643.147 L3783.52 644.182 L3802 642.657 L3820.47 640.393 L3838.95 641.204 L3857.43 640.474 L3875.91 639.943 L3894.39 640.534 L3912.87 639.137 L3931.35 637.619 L3949.83 639.004 L3968.31 641.386 L3986.79 638.156 L4005.27 640.986 L4023.75 643.681 L4042.23 641.87 L4060.71 644.518 L4079.18 644.774 L4097.66 643.444 L4116.14 643.516 L4134.62 643.366 L4153.1 641.924 L4171.58 645.456 L4190.06 643.2 L4208.54 643.03 L4227.02 644.214 L4245.5 642.654 L4263.98 640.409 L4282.46 641.154 L4300.94 640.483 L4319.42 639.939 L4337.9 640.55 L4356.37 639.305 L4374.85 637.679 L4393.33 639.061 L4411.81 641.39 L4430.29 638.185 L4448.77 640.848 L4467.25 643.778 L4485.73 641.863 L4504.21 644.631 L4522.69 644.762 L4541.17 643.486 L4559.65 643.427 L4578.13 643.383 L4596.61 641.937 L4615.09 645.591 L4633.56 643.198 L4633.56 461.2 L4615.09 461.035 L4596.61 460.36 L4578.13 461.304 L4559.65 460.776 L4541.17 459.018 L4522.69 460.719 L4504.21 459.859 L4485.73 458.67 L4467.25 461.269 L4448.77 461.077 L4430.29 459.577 L4411.81 461.601 L4393.33 462.412 L4374.85 459.779 L4356.37 460.555 L4337.9 461.939 L4319.42 460.654 L4300.94 461.398 L4282.46 461.435 L4263.98 459.33 L4245.5 461.059 L4227.02 461.593 L4208.54 460.372 L4190.06 461.196 L4171.58 461.024 L4153.1 460.358 L4134.62 461.36 L4116.14 460.776 L4097.66 459.039 L4079.18 460.711 L4060.71 459.873 L4042.23 458.681 L4023.75 461.448 L4005.27 461.069 L3986.79 459.602 L3968.31 461.985 L3949.83 462.486 L3931.35 459.741 L3912.87 460.473 L3894.39 461.987 L3875.91 460.672 L3857.43 461.38 L3838.95 461.556 L3820.47 459.524 L3802 461.019 L3783.52 461.613 L3765.04 460.397 L3746.56 461.243 L3728.08 461.036 L3709.6 460.343 L3691.12 461.327 L3672.64 460.783 L3654.16 459.029 L3635.68 460.749 L3617.2 459.867 L3598.72 458.576 L3580.24 461.248 L3561.76 461.046 L3543.28 459.568 L3524.81 461.642 L3506.33 462.458 L3487.85 459.741 L3469.37 460.559 L3450.89 461.925 L3432.41 460.607 L3413.93 461.37 L3395.45 461.669 L3376.97 459.552 L3358.49 460.968 L3340.01 461.629 L3321.53 460.398 L3303.05 461.133 L3284.57 461.034 L3266.1 460.353 L3247.62 461.29 L3229.14 460.774 L3210.66 459.08 L3192.18 460.754 L3173.7 459.833 L3155.22 458.747 L3136.74 461.445 L3118.26 460.917 L3099.78 459.604 L3081.3 461.586 L3062.82 462.341 L3044.34 459.882 L3025.86 460.562 L3007.38 461.981 L2988.91 460.645 L2970.43 461.388 L2951.95 461.416 L2933.47 459.381 L2914.99 460.946 L2896.51 461.61 L2878.03 460.371 L2859.55 461.243 L2841.07 461.046 L2822.59 460.318 L2804.11 461.302 L2785.63 460.782 L2767.15 459.08 L2748.67 460.76 L2730.19 459.823 L2711.72 458.85 L2693.24 461.558 L2674.76 460.952 L2656.28 459.627 L2637.8 461.639 L2619.32 462.418 L2600.84 459.719 L2582.36 460.549 L2563.88 461.998 L2545.4 460.6 L2526.92 461.364 L2508.44 461.533 L2489.96 459.417 L2471.48 461.208 L2453.01 461.581 L2434.53 460.381 L2416.05 461.164 L2397.57 461.055 L2379.09 460.37 L2360.61 461.283 L2342.13 460.762 L2323.65 459.069 L2305.17 460.711 L2286.69 459.826 L2268.21 458.793 L2249.73 461.455 L2231.25 460.987 L2212.77 459.572 L2194.29 461.611 L2175.82 462.479 L2157.34 459.776 L2138.86 460.536 L2120.38 461.905 L2101.9 460.664 L2083.42 461.378 L2064.94 461.708 L2046.46 459.49 L2027.98 461.232 L2009.5 461.622 L1991.02 460.348 L1972.54 461.227 L1954.06 461.027 L1935.58 460.316 L1917.11 461.42 L1898.63 460.776 L1880.15 459.028 L1861.67 460.735 L1843.19 459.889 L1824.71 458.728 L1806.23 461.486 L1787.75 460.929 L1769.27 459.625 L1750.79 461.615 L1732.31 462.442 L1713.83 459.78 L1695.35 460.523 L1676.87 461.992 L1658.39 460.627 L1639.92 461.357 L1621.44 461.403 L1602.96 459.335 L1584.48 461.14 L1566 461.599 L1547.52 460.398 L1529.04 461.23 L1510.56 461.007 L1492.08 460.359 L1473.6 461.299 L1455.12 460.76 L1436.64 459.042 L1418.16 460.692 L1399.68 459.822 L1381.2 458.775 L1362.73 461.488 L1344.25 460.872 L1325.77 459.58 L1307.29 461.67 L1288.81 462.484 L1270.33 459.914 L1251.85 460.466 L1233.37 461.977 L1214.89 460.633 L1196.41 461.351 L1177.93 461.601 L1159.45 459.339 L1140.97 461.29 L1122.49 461.647 L1104.02 460.368 L1085.54 461.126 L1067.06 461.016 L1048.58 459.687 L1030.1 461.284 L1011.62 460.635 L993.139 458.991 L974.66 460.769 L956.181 459.92 L937.701 458.775 L919.222 461.256 L900.743 461.003 L882.263 459.826 L863.784 461.371 L845.305 462.325 L826.826 460.296 L808.346 460.665 L789.867 461.078 L771.388 459.673 L752.908 460.839 L734.429 461.391 L715.95 460.588 L697.47 461.282 L678.991 458.381 L660.512 315.911  Z" fill="#000000" fill-rule="evenodd" fill-opacity="0.5"/>
<polyline clip-path="url(#clip252)" style="stroke:#000000; stroke-linecap:round; stroke-linejoin:round; stroke-width:0; stroke-opacity:1; fill:none" points="660.512,317.98 678.991,430.82 697.47,432.597 715.95,431.897 734.429,432.34 752.908,432.353 771.388,431.835 789.867,432.582 808.346,432.696 826.826,431.557 845.305,432.436 863.784,432.881 882.263,431.991 900.743,432.886 919.222,432.994 937.701,431.868 956.181,432.776 974.66,432.849 993.139,431.645 1011.62,432.775 1030.1,433.088 1048.58,432.021 1067.06,433.189 1085.54,432.691 1104.02,431.928 1122.49,432.9 1140.97,432.962 1159.45,432.104 1177.93,432.635 1196.41,432.764 1214.89,432.155 1233.37,433.196 1251.85,432.543 1270.33,431.886 1288.81,432.647 1307.29,433.221 1325.77,432.064 1344.25,432.939 1362.73,433.065 1381.2,431.871 1399.68,432.662 1418.16,432.796 1436.64,431.736 1455.12,432.856 1473.6,433.068 1492.08,432.113 1510.56,433.119 1529.04,432.734 1547.52,431.914 1566,432.862 1584.48,432.942 1602.96,432.082 1621.44,432.563 1639.92,432.764 1658.39,432.131 1676.87,433.192 1695.35,432.671 1713.83,431.943 1732.31,432.585 1750.79,433.215 1769.27,432.076 1787.75,432.97 1806.23,433.058 1824.71,431.852 1843.19,432.721 1861.67,432.852 1880.15,431.714 1898.63,432.863 1917.11,433.106 1935.58,432.093 1954.06,433.135 1972.54,432.737 1991.02,431.923 2009.5,432.854 2027.98,432.965 2046.46,432.073 2064.94,432.602 2083.42,432.784 2101.9,432.14 2120.38,433.197 2138.86,432.622 2157.34,431.904 2175.82,432.612 2194.29,433.24 2212.77,432.058 2231.25,432.958 2249.73,433.073 2268.21,431.861 2286.69,432.692 2305.17,432.831 2323.65,431.725 2342.13,432.858 2360.61,433.077 2379.09,432.105 2397.57,433.141 2416.05,432.731 2434.53,431.914 2453.01,432.849 2471.48,432.957 2489.96,432.082 2508.44,432.574 2526.92,432.778 2545.4,432.137 2563.88,433.199 2582.36,432.654 2600.84,431.927 2619.32,432.6 2637.8,433.231 2656.28,432.088 2674.76,432.979 2693.24,433.068 2711.72,431.855 2730.19,432.715 2748.67,432.837 2767.15,431.721 2785.63,432.867 2804.11,433.096 2822.59,432.094 2841.07,433.139 2859.55,432.738 2878.03,431.92 2896.51,432.858 2914.99,432.964 2933.47,432.075 2951.95,432.579 2970.43,432.789 2988.91,432.144 3007.38,433.191 3025.86,432.631 3044.34,431.912 3062.82,432.605 3081.3,433.239 3099.78,432.068 3118.26,432.958 3136.74,433.061 3155.22,431.848 3173.7,432.714 3192.18,432.84 3210.66,431.726 3229.14,432.859 3247.62,433.088 3266.1,432.107 3284.57,433.134 3303.05,432.738 3321.53,431.922 3340.01,432.856 3358.49,432.957 3376.97,432.077 3395.45,432.58 3413.93,432.779 3432.41,432.142 3450.89,433.206 3469.37,432.651 3487.85,431.925 3506.33,432.61 3524.81,433.24 3543.28,432.068 3561.76,432.969 3580.24,433.062 3598.72,431.846 3617.2,432.706 3635.68,432.833 3654.16,431.718 3672.64,432.87 3691.12,433.089 3709.6,432.094 3728.08,433.139 3746.56,432.733 3765.04,431.926 3783.52,432.853 3802,432.96 3820.47,432.074 3838.95,432.588 3857.43,432.781 3875.91,432.146 3894.39,433.2 3912.87,432.629 3931.35,431.911 3949.83,432.61 3968.31,433.246 3986.79,432.078 4005.27,432.958 4023.75,433.077 4042.23,431.853 4060.71,432.71 4079.18,432.837 4097.66,431.72 4116.14,432.861 4134.62,433.092 4153.1,432.097 4171.58,433.135 4190.06,432.743 4208.54,431.919 4227.02,432.853 4245.5,432.967 4263.98,432.087 4282.46,432.577 4300.94,432.789 4319.42,432.138 4337.9,433.196 4356.37,432.65 4374.85,431.924 4393.33,432.615 4411.81,433.241 4430.29,432.066 4448.77,432.971 4467.25,433.065 4485.73,431.852 4504.21,432.705 4522.69,432.839 4541.17,431.715 4559.65,432.861 4578.13,433.09 4596.61,432.088 4615.09,433.146 4633.56,432.736 "/>
<path clip-path="url(#clip250)" d="M3871.96 593.434 L4612.37 593.434 L4612.37 75.0343 L3871.96 75.0343  Z" fill="#ffffff" fill-rule="evenodd" fill-opacity="1"/>
<polyline clip-path="url(#clip250)" style="stroke:#000000; stroke-linecap:round; stroke-linejoin:round; stroke-width:4; stroke-opacity:1; fill:none" points="3871.96,593.434 4612.37,593.434 4612.37,75.0343 3871.96,75.0343 3871.96,593.434 "/>
<polyline clip-path="url(#clip250)" style="stroke:#c8c8c8; stroke-linecap:round; stroke-linejoin:round; stroke-width:2; stroke-opacity:1; fill:none" points="3918.76,204.634 4199.52,204.634 "/>
<path clip-path="url(#clip250)" d="M4247.99 237.996 L4267.09 237.996 L4267.09 172.082 L4246.31 176.249 L4246.31 165.601 L4266.97 161.434 L4278.66 161.434 L4278.66 237.996 L4297.76 237.996 L4297.76 247.834 L4247.99 247.834 L4247.99 237.996 Z" fill="#000000" fill-rule="nonzero" fill-opacity="1" /><path clip-path="url(#clip250)" d="M4346.37 169.131 Q4337.34 169.131 4332.77 178.043 Q4328.26 186.897 4328.26 204.721 Q4328.26 222.487 4332.77 231.399 Q4337.34 240.253 4346.37 240.253 Q4355.45 240.253 4359.97 231.399 Q4364.54 222.487 4364.54 204.721 Q4364.54 186.897 4359.97 178.043 Q4355.45 169.131 4346.37 169.131 M4346.37 159.872 Q4360.89 159.872 4368.53 171.388 Q4376.23 182.846 4376.23 204.721 Q4376.23 226.538 4368.53 238.054 Q4360.89 249.513 4346.37 249.513 Q4331.84 249.513 4324.15 238.054 Q4316.51 226.538 4316.51 204.721 Q4316.51 182.846 4324.15 171.388 Q4331.84 159.872 4346.37 159.872 Z" fill="#000000" fill-rule="nonzero" fill-opacity="1" /><path clip-path="url(#clip250)" d="M4421.77 169.131 Q4412.75 169.131 4408.17 178.043 Q4403.66 186.897 4403.66 204.721 Q4403.66 222.487 4408.17 231.399 Q4412.75 240.253 4421.77 240.253 Q4430.86 240.253 4435.37 231.399 Q4439.95 222.487 4439.95 204.721 Q4439.95 186.897 4435.37 178.043 Q4430.86 169.131 4421.77 169.131 M4421.77 159.872 Q4436.3 159.872 4443.94 171.388 Q4451.63 182.846 4451.63 204.721 Q4451.63 226.538 4443.94 238.054 Q4436.3 249.513 4421.77 249.513 Q4407.25 249.513 4399.55 238.054 Q4391.91 226.538 4391.91 204.721 Q4391.91 182.846 4399.55 171.388 Q4407.25 159.872 4421.77 159.872 Z" fill="#000000" fill-rule="nonzero" fill-opacity="1" /><path clip-path="url(#clip250)" d="M4545.67 209.814 Q4540.64 209.814 4537.75 214.096 Q4534.91 218.378 4534.91 226.017 Q4534.91 233.54 4537.75 237.881 Q4540.64 242.163 4545.67 242.163 Q4550.59 242.163 4553.43 237.881 Q4556.32 233.54 4556.32 226.017 Q4556.32 218.436 4553.43 214.154 Q4550.59 209.814 4545.67 209.814 M4545.67 202.464 Q4554.82 202.464 4560.2 208.83 Q4565.58 215.196 4565.58 226.017 Q4565.58 236.839 4560.14 243.205 Q4554.76 249.513 4545.67 249.513 Q4536.41 249.513 4531.03 243.205 Q4525.65 236.839 4525.65 226.017 Q4525.65 215.138 4531.03 208.83 Q4536.47 202.464 4545.67 202.464 M4485.95 167.221 Q4480.97 167.221 4478.08 171.562 Q4475.25 175.844 4475.25 183.367 Q4475.25 191.006 4478.08 195.288 Q4480.92 199.571 4485.95 199.571 Q4490.99 199.571 4493.82 195.288 Q4496.72 191.006 4496.72 183.367 Q4496.72 175.902 4493.82 171.562 Q4490.93 167.221 4485.95 167.221 M4538.21 159.872 L4547.47 159.872 L4493.42 249.513 L4484.16 249.513 L4538.21 159.872 M4485.95 159.872 Q4495.1 159.872 4500.54 166.238 Q4505.97 172.545 4505.97 183.367 Q4505.97 194.305 4500.54 200.612 Q4495.15 206.92 4485.95 206.92 Q4476.75 206.92 4471.37 200.612 Q4466.04 194.247 4466.04 183.367 Q4466.04 172.603 4471.43 166.238 Q4476.81 159.872 4485.95 159.872 Z" fill="#000000" fill-rule="nonzero" fill-opacity="1" /><polyline clip-path="url(#clip250)" style="stroke:#525252; stroke-linecap:round; stroke-linejoin:round; stroke-width:2; stroke-opacity:1; fill:none" points="3918.76,334.234 4199.52,334.234 "/>
<path clip-path="url(#clip250)" d="M4251.87 375.64 L4251.87 364.992 Q4256.27 367.076 4260.78 368.175 Q4265.29 369.275 4269.63 369.275 Q4281.21 369.275 4287.28 361.52 Q4293.42 353.708 4294.29 337.851 Q4290.93 342.828 4285.78 345.49 Q4280.63 348.152 4274.38 348.152 Q4261.42 348.152 4253.83 340.34 Q4246.31 332.469 4246.31 318.87 Q4246.31 305.56 4254.18 297.516 Q4262.05 289.472 4275.13 289.472 Q4290.12 289.472 4297.99 300.988 Q4305.92 312.446 4305.92 334.321 Q4305.92 354.749 4296.2 366.96 Q4286.53 379.113 4270.15 379.113 Q4265.76 379.113 4261.24 378.245 Q4256.73 377.376 4251.87 375.64 M4275.13 339.009 Q4283 339.009 4287.57 333.627 Q4292.2 328.245 4292.2 318.87 Q4292.2 309.553 4287.57 304.171 Q4283 298.731 4275.13 298.731 Q4267.26 298.731 4262.63 304.171 Q4258.06 309.553 4258.06 318.87 Q4258.06 328.245 4262.63 333.627 Q4267.26 339.009 4275.13 339.009 Z" fill="#000000" fill-rule="nonzero" fill-opacity="1" /><path clip-path="url(#clip250)" d="M4351.92 298.731 Q4342.9 298.731 4338.33 307.643 Q4333.81 316.497 4333.81 334.321 Q4333.81 352.087 4338.33 360.999 Q4342.9 369.853 4351.92 369.853 Q4361.01 369.853 4365.52 360.999 Q4370.1 352.087 4370.1 334.321 Q4370.1 316.497 4365.52 307.643 Q4361.01 298.731 4351.92 298.731 M4351.92 289.472 Q4366.45 289.472 4374.09 300.988 Q4381.79 312.446 4381.79 334.321 Q4381.79 356.138 4374.09 367.654 Q4366.45 379.113 4351.92 379.113 Q4337.4 379.113 4329.7 367.654 Q4322.06 356.138 4322.06 334.321 Q4322.06 312.446 4329.7 300.988 Q4337.4 289.472 4351.92 289.472 Z" fill="#000000" fill-rule="nonzero" fill-opacity="1" /><path clip-path="url(#clip250)" d="M4475.82 339.414 Q4470.79 339.414 4467.9 343.696 Q4465.06 347.978 4465.06 355.617 Q4465.06 363.14 4467.9 367.481 Q4470.79 371.763 4475.82 371.763 Q4480.74 371.763 4483.58 367.481 Q4486.47 363.14 4486.47 355.617 Q4486.47 348.036 4483.58 343.754 Q4480.74 339.414 4475.82 339.414 M4475.82 332.064 Q4484.97 332.064 4490.35 338.43 Q4495.73 344.796 4495.73 355.617 Q4495.73 366.439 4490.29 372.805 Q4484.91 379.113 4475.82 379.113 Q4466.57 379.113 4461.18 372.805 Q4455.8 366.439 4455.8 355.617 Q4455.8 344.738 4461.18 338.43 Q4466.62 332.064 4475.82 332.064 M4416.1 296.821 Q4411.13 296.821 4408.23 301.162 Q4405.4 305.444 4405.4 312.967 Q4405.4 320.606 4408.23 324.888 Q4411.07 329.171 4416.1 329.171 Q4421.14 329.171 4423.97 324.888 Q4426.87 320.606 4426.87 312.967 Q4426.87 305.502 4423.97 301.162 Q4421.08 296.821 4416.1 296.821 M4468.36 289.472 L4477.62 289.472 L4423.57 379.113 L4414.31 379.113 L4468.36 289.472 M4416.1 289.472 Q4425.25 289.472 4430.69 295.838 Q4436.13 302.145 4436.13 312.967 Q4436.13 323.905 4430.69 330.212 Q4425.3 336.52 4416.1 336.52 Q4406.9 336.52 4401.52 330.212 Q4396.2 323.847 4396.2 312.967 Q4396.2 302.203 4401.58 295.838 Q4406.96 289.472 4416.1 289.472 Z" fill="#000000" fill-rule="nonzero" fill-opacity="1" /><polyline clip-path="url(#clip250)" style="stroke:#000000; stroke-linecap:round; stroke-linejoin:round; stroke-width:2; stroke-opacity:1; fill:none" points="3918.76,463.834 4199.52,463.834 "/>
<path clip-path="url(#clip250)" d="M4275.94 466.004 Q4267.61 466.004 4262.8 470.46 Q4258.06 474.916 4258.06 482.729 Q4258.06 490.541 4262.8 494.997 Q4267.61 499.453 4275.94 499.453 Q4284.27 499.453 4289.08 494.997 Q4293.88 490.484 4293.88 482.729 Q4293.88 474.916 4289.08 470.46 Q4284.33 466.004 4275.94 466.004 M4264.25 461.028 Q4256.73 459.176 4252.5 454.025 Q4248.34 448.875 4248.34 441.468 Q4248.34 431.109 4255.69 425.09 Q4263.09 419.072 4275.94 419.072 Q4288.85 419.072 4296.2 425.09 Q4303.55 431.109 4303.55 441.468 Q4303.55 448.875 4299.32 454.025 Q4295.15 459.176 4287.69 461.028 Q4296.14 462.995 4300.83 468.724 Q4305.57 474.453 4305.57 482.729 Q4305.57 495.287 4297.87 502 Q4290.24 508.713 4275.94 508.713 Q4261.65 508.713 4253.95 502 Q4246.31 495.287 4246.31 482.729 Q4246.31 474.453 4251.06 468.724 Q4255.8 462.995 4264.25 461.028 M4259.97 442.567 Q4259.97 449.28 4264.14 453.042 Q4268.36 456.803 4275.94 456.803 Q4283.46 456.803 4287.69 453.042 Q4291.97 449.28 4291.97 442.567 Q4291.97 435.854 4287.69 432.093 Q4283.46 428.331 4275.94 428.331 Q4268.36 428.331 4264.14 432.093 Q4259.97 435.854 4259.97 442.567 Z" fill="#000000" fill-rule="nonzero" fill-opacity="1" /><path clip-path="url(#clip250)" d="M4351.35 428.331 Q4342.32 428.331 4337.75 437.243 Q4333.23 446.097 4333.23 463.921 Q4333.23 481.687 4337.75 490.599 Q4342.32 499.453 4351.35 499.453 Q4360.43 499.453 4364.95 490.599 Q4369.52 481.687 4369.52 463.921 Q4369.52 446.097 4364.95 437.243 Q4360.43 428.331 4351.35 428.331 M4351.35 419.072 Q4365.87 419.072 4373.51 430.588 Q4381.21 442.046 4381.21 463.921 Q4381.21 485.738 4373.51 497.254 Q4365.87 508.713 4351.35 508.713 Q4336.82 508.713 4329.12 497.254 Q4321.49 485.738 4321.49 463.921 Q4321.49 442.046 4329.12 430.588 Q4336.82 419.072 4351.35 419.072 Z" fill="#000000" fill-rule="nonzero" fill-opacity="1" /><path clip-path="url(#clip250)" d="M4475.25 469.014 Q4470.21 469.014 4467.32 473.296 Q4464.48 477.578 4464.48 485.217 Q4464.48 492.74 4467.32 497.081 Q4470.21 501.363 4475.25 501.363 Q4480.16 501.363 4483 497.081 Q4485.89 492.74 4485.89 485.217 Q4485.89 477.636 4483 473.354 Q4480.16 469.014 4475.25 469.014 M4475.25 461.664 Q4484.39 461.664 4489.77 468.03 Q4495.15 474.396 4495.15 485.217 Q4495.15 496.039 4489.71 502.405 Q4484.33 508.713 4475.25 508.713 Q4465.99 508.713 4460.6 502.405 Q4455.22 496.039 4455.22 485.217 Q4455.22 474.338 4460.6 468.03 Q4466.04 461.664 4475.25 461.664 M4415.52 426.421 Q4410.55 426.421 4407.65 430.762 Q4404.82 435.044 4404.82 442.567 Q4404.82 450.206 4407.65 454.488 Q4410.49 458.771 4415.52 458.771 Q4420.56 458.771 4423.39 454.488 Q4426.29 450.206 4426.29 442.567 Q4426.29 435.102 4423.39 430.762 Q4420.5 426.421 4415.52 426.421 M4467.78 419.072 L4477.04 419.072 L4422.99 508.713 L4413.73 508.713 L4467.78 419.072 M4415.52 419.072 Q4424.67 419.072 4430.11 425.438 Q4435.55 431.745 4435.55 442.567 Q4435.55 453.505 4430.11 459.812 Q4424.73 466.12 4415.52 466.12 Q4406.32 466.12 4400.94 459.812 Q4395.62 453.447 4395.62 442.567 Q4395.62 431.803 4401 425.438 Q4406.38 419.072 4415.52 419.072 Z" fill="#000000" fill-rule="nonzero" fill-opacity="1" /></svg>
