<?xml version="1.0" encoding="utf-8"?>
<svg xmlns="http://www.w3.org/2000/svg" xmlns:xlink="http://www.w3.org/1999/xlink" width="1200" height="300" viewBox="0 0 4800 1200">
<defs>
  <clipPath id="clip770">
    <rect x="0" y="0" width="4800" height="1200"/>
  </clipPath>
</defs>
<path clip-path="url(#clip770)" d="M0 1200 L4800 1200 L4800 0 L0 0  Z" fill="#ffffff" fill-rule="evenodd" fill-opacity="1"/>
<defs>
  <clipPath id="clip771">
    <rect x="960" y="0" width="3361" height="1200"/>
  </clipPath>
</defs>
<path clip-path="url(#clip770)" d="M541.32 880.951 L4752.76 880.951 L4752.76 47.2441 L541.32 47.2441  Z" fill="#ffffff" fill-rule="evenodd" fill-opacity="1"/>
<defs>
  <clipPath id="clip772">
    <rect x="541" y="47" width="4212" height="835"/>
  </clipPath>
</defs>
<polyline clip-path="url(#clip772)" style="stroke:#000000; stroke-linecap:round; stroke-linejoin:round; stroke-width:2; stroke-opacity:0.1; fill:none" points="1085.54,880.951 1085.54,47.2441 "/>
<polyline clip-path="url(#clip772)" style="stroke:#000000; stroke-linecap:round; stroke-linejoin:round; stroke-width:2; stroke-opacity:0.1; fill:none" points="1972.54,880.951 1972.54,47.2441 "/>
<polyline clip-path="url(#clip772)" style="stroke:#000000; stroke-linecap:round; stroke-linejoin:round; stroke-width:2; stroke-opacity:0.1; fill:none" points="2859.55,880.951 2859.55,47.2441 "/>
<polyline clip-path="url(#clip772)" style="stroke:#000000; stroke-linecap:round; stroke-linejoin:round; stroke-width:2; stroke-opacity:0.1; fill:none" points="3746.56,880.951 3746.56,47.2441 "/>
<polyline clip-path="url(#clip772)" style="stroke:#000000; stroke-linecap:round; stroke-linejoin:round; stroke-width:2; stroke-opacity:0.1; fill:none" points="4633.56,880.951 4633.56,47.2441 "/>
<polyline clip-path="url(#clip770)" style="stroke:#000000; stroke-linecap:round; stroke-linejoin:round; stroke-width:4; stroke-opacity:1; fill:none" points="541.32,880.951 4752.76,880.951 "/>
<polyline clip-path="url(#clip770)" style="stroke:#000000; stroke-linecap:round; stroke-linejoin:round; stroke-width:4; stroke-opacity:1; fill:none" points="1085.54,880.951 1085.54,862.054 "/>
<polyline clip-path="url(#clip770)" style="stroke:#000000; stroke-linecap:round; stroke-linejoin:round; stroke-width:4; stroke-opacity:1; fill:none" points="1972.54,880.951 1972.54,862.054 "/>
<polyline clip-path="url(#clip770)" style="stroke:#000000; stroke-linecap:round; stroke-linejoin:round; stroke-width:4; stroke-opacity:1; fill:none" points="2859.55,880.951 2859.55,862.054 "/>
<polyline clip-path="url(#clip770)" style="stroke:#000000; stroke-linecap:round; stroke-linejoin:round; stroke-width:4; stroke-opacity:1; fill:none" points="3746.56,880.951 3746.56,862.054 "/>
<polyline clip-path="url(#clip770)" style="stroke:#000000; stroke-linecap:round; stroke-linejoin:round; stroke-width:4; stroke-opacity:1; fill:none" points="4633.56,880.951 4633.56,862.054 "/>
<path clip-path="url(#clip770)" d="M1074.84 997.881 L1107.48 997.881 L1107.48 1005.75 L1063.59 1005.75 L1063.59 997.881 Q1068.92 992.372 1078.08 983.113 Q1087.3 973.807 1089.66 971.122 Q1094.15 966.076 1095.91 962.604 Q1097.71 959.085 1097.71 955.705 Q1097.71 950.196 1093.82 946.724 Q1089.98 943.252 1083.78 943.252 Q1079.38 943.252 1074.47 944.78 Q1069.61 946.307 1064.05 949.409 L1064.05 939.965 Q1069.7 937.696 1074.61 936.539 Q1079.52 935.382 1083.59 935.382 Q1094.33 935.382 1100.72 940.752 Q1107.11 946.122 1107.11 955.104 Q1107.11 959.363 1105.49 963.205 Q1103.92 967.002 1099.7 972.187 Q1098.55 973.529 1092.34 979.965 Q1086.14 986.353 1074.84 997.881 Z" fill="#000000" fill-rule="nonzero" fill-opacity="1" /><path clip-path="url(#clip770)" d="M1978.56 944.78 L1954.95 981.678 L1978.56 981.678 L1978.56 944.78 M1976.11 936.631 L1987.87 936.631 L1987.87 981.678 L1997.73 981.678 L1997.73 989.455 L1987.87 989.455 L1987.87 1005.75 L1978.56 1005.75 L1978.56 989.455 L1947.36 989.455 L1947.36 980.428 L1976.11 936.631 Z" fill="#000000" fill-rule="nonzero" fill-opacity="1" /><path clip-path="url(#clip770)" d="M2860.36 967.465 Q2854.06 967.465 2850.36 971.77 Q2846.7 976.076 2846.7 983.576 Q2846.7 991.029 2850.36 995.381 Q2854.06 999.687 2860.36 999.687 Q2866.66 999.687 2870.31 995.381 Q2874.02 991.029 2874.02 983.576 Q2874.02 976.076 2870.31 971.77 Q2866.66 967.465 2860.36 967.465 M2878.93 938.159 L2878.93 946.678 Q2875.41 945.011 2871.8 944.131 Q2868.23 943.252 2864.71 943.252 Q2855.45 943.252 2850.55 949.502 Q2845.68 955.752 2844.99 968.391 Q2847.72 964.363 2851.84 962.233 Q2855.96 960.057 2860.92 960.057 Q2871.33 960.057 2877.35 966.4 Q2883.42 972.696 2883.42 983.576 Q2883.42 994.224 2877.12 1000.66 Q2870.82 1007.09 2860.36 1007.09 Q2848.37 1007.09 2842.03 997.927 Q2835.68 988.715 2835.68 971.261 Q2835.68 954.872 2843.46 945.15 Q2851.24 935.382 2864.34 935.382 Q2867.86 935.382 2871.43 936.076 Q2875.04 936.77 2878.93 938.159 Z" fill="#000000" fill-rule="nonzero" fill-opacity="1" /><path clip-path="url(#clip770)" d="M3746.56 972.928 Q3739.89 972.928 3736.05 976.492 Q3732.25 980.057 3732.25 986.307 Q3732.25 992.557 3736.05 996.122 Q3739.89 999.687 3746.56 999.687 Q3753.22 999.687 3757.07 996.122 Q3760.91 992.511 3760.91 986.307 Q3760.91 980.057 3757.07 976.492 Q3753.27 972.928 3746.56 972.928 M3737.21 968.946 Q3731.19 967.465 3727.81 963.344 Q3724.47 959.224 3724.47 953.298 Q3724.47 945.011 3730.35 940.196 Q3736.28 935.382 3746.56 935.382 Q3756.88 935.382 3762.76 940.196 Q3768.64 945.011 3768.64 953.298 Q3768.64 959.224 3765.26 963.344 Q3761.93 967.465 3755.96 968.946 Q3762.71 970.52 3766.46 975.104 Q3770.26 979.687 3770.26 986.307 Q3770.26 996.353 3764.1 1001.72 Q3757.99 1007.09 3746.56 1007.09 Q3735.12 1007.09 3728.96 1001.72 Q3722.85 996.353 3722.85 986.307 Q3722.85 979.687 3726.65 975.104 Q3730.45 970.52 3737.21 968.946 M3733.78 954.178 Q3733.78 959.548 3737.11 962.557 Q3740.49 965.567 3746.56 965.567 Q3752.58 965.567 3755.96 962.557 Q3759.38 959.548 3759.38 954.178 Q3759.38 948.807 3755.96 945.798 Q3752.58 942.789 3746.56 942.789 Q3740.49 942.789 3737.11 945.798 Q3733.78 948.807 3733.78 954.178 Z" fill="#000000" fill-rule="nonzero" fill-opacity="1" /><path clip-path="url(#clip770)" d="M4582.94 997.881 L4598.22 997.881 L4598.22 945.15 L4581.6 948.483 L4581.6 939.965 L4598.12 936.631 L4607.48 936.631 L4607.48 997.881 L4622.75 997.881 L4622.75 1005.75 L4582.94 1005.75 L4582.94 997.881 Z" fill="#000000" fill-rule="nonzero" fill-opacity="1" /><path clip-path="url(#clip770)" d="M4661.64 942.789 Q4654.42 942.789 4650.76 949.918 Q4647.15 957.002 4647.15 971.261 Q4647.15 985.474 4650.76 992.603 Q4654.42 999.687 4661.64 999.687 Q4668.91 999.687 4672.52 992.603 Q4676.18 985.474 4676.18 971.261 Q4676.18 957.002 4672.52 949.918 Q4668.91 942.789 4661.64 942.789 M4661.64 935.382 Q4673.26 935.382 4679.37 944.594 Q4685.53 953.761 4685.53 971.261 Q4685.53 988.715 4679.37 997.927 Q4673.26 1007.09 4661.64 1007.09 Q4650.02 1007.09 4643.87 997.927 Q4637.75 988.715 4637.75 971.261 Q4637.75 953.761 4643.87 944.594 Q4650.02 935.382 4661.64 935.382 Z" fill="#000000" fill-rule="nonzero" fill-opacity="1" /><path clip-path="url(#clip770)" d="M2364.28 1072.18 L2430.06 1072.18 L2430.06 1081.04 L2402.46 1081.04 L2402.46 1149.94 L2391.88 1149.94 L2391.88 1081.04 L2364.28 1081.04 L2364.28 1072.18 Z" fill="#000000" fill-rule="nonzero" fill-opacity="1" /><path clip-path="url(#clip770)" d="M2436.52 1091.61 L2446.1 1091.61 L2446.1 1149.94 L2436.52 1149.94 L2436.52 1091.61 M2436.52 1068.9 L2446.1 1068.9 L2446.1 1081.04 L2436.52 1081.04 L2436.52 1068.9 Z" fill="#000000" fill-rule="nonzero" fill-opacity="1" /><path clip-path="url(#clip770)" d="M2511.57 1102.81 Q2515.16 1096.35 2520.16 1093.28 Q2525.16 1090.2 2531.93 1090.2 Q2541.05 1090.2 2546 1096.61 Q2550.94 1102.96 2550.94 1114.74 L2550.94 1149.94 L2541.31 1149.94 L2541.31 1115.05 Q2541.31 1106.66 2538.34 1102.6 Q2535.37 1098.54 2529.28 1098.54 Q2521.83 1098.54 2517.51 1103.49 Q2513.18 1108.43 2513.18 1116.97 L2513.18 1149.94 L2503.55 1149.94 L2503.55 1115.05 Q2503.55 1106.61 2500.58 1102.6 Q2497.61 1098.54 2491.41 1098.54 Q2484.07 1098.54 2479.75 1103.54 Q2475.42 1108.49 2475.42 1116.97 L2475.42 1149.94 L2465.79 1149.94 L2465.79 1091.61 L2475.42 1091.61 L2475.42 1100.67 Q2478.71 1095.31 2483.29 1092.76 Q2487.87 1090.2 2494.17 1090.2 Q2500.53 1090.2 2504.96 1093.43 Q2509.43 1096.66 2511.57 1102.81 Z" fill="#000000" fill-rule="nonzero" fill-opacity="1" /><path clip-path="url(#clip770)" d="M2619.95 1118.38 L2619.95 1123.07 L2575.89 1123.07 Q2576.52 1132.96 2581.83 1138.17 Q2587.19 1143.33 2596.73 1143.33 Q2602.25 1143.33 2607.4 1141.97 Q2612.61 1140.62 2617.72 1137.91 L2617.72 1146.97 Q2612.56 1149.16 2607.14 1150.31 Q2601.73 1151.45 2596.15 1151.45 Q2582.19 1151.45 2574.02 1143.33 Q2565.89 1135.2 2565.89 1121.35 Q2565.89 1107.03 2573.6 1098.64 Q2581.36 1090.2 2594.49 1090.2 Q2606.26 1090.2 2613.08 1097.81 Q2619.95 1105.36 2619.95 1118.38 M2610.37 1115.57 Q2610.27 1107.7 2605.94 1103.02 Q2601.67 1098.33 2594.59 1098.33 Q2586.57 1098.33 2581.73 1102.86 Q2576.93 1107.39 2576.21 1115.62 L2610.37 1115.57 Z" fill="#000000" fill-rule="nonzero" fill-opacity="1" /><path clip-path="url(#clip770)" d="M2692.61 1069.01 Q2685.63 1080.99 2682.25 1092.7 Q2678.86 1104.42 2678.86 1116.45 Q2678.86 1128.49 2682.25 1140.31 Q2685.68 1152.08 2692.61 1164.01 L2684.28 1164.01 Q2676.46 1151.77 2672.56 1139.94 Q2668.7 1128.12 2668.7 1116.45 Q2668.7 1104.84 2672.56 1093.07 Q2676.41 1081.3 2684.28 1069.01 L2692.61 1069.01 Z" fill="#000000" fill-rule="nonzero" fill-opacity="1" /><path clip-path="url(#clip770)" d="M2749.59 1100.46 L2749.59 1068.9 L2759.17 1068.9 L2759.17 1149.94 L2749.59 1149.94 L2749.59 1141.19 Q2746.57 1146.4 2741.93 1148.95 Q2737.35 1151.45 2730.89 1151.45 Q2720.32 1151.45 2713.65 1143.02 Q2707.04 1134.58 2707.04 1120.83 Q2707.04 1107.08 2713.65 1098.64 Q2720.32 1090.2 2730.89 1090.2 Q2737.35 1090.2 2741.93 1092.76 Q2746.57 1095.26 2749.59 1100.46 M2716.93 1120.83 Q2716.93 1131.4 2721.26 1137.44 Q2725.63 1143.43 2733.24 1143.43 Q2740.84 1143.43 2745.21 1137.44 Q2749.59 1131.4 2749.59 1120.83 Q2749.59 1110.26 2745.21 1104.27 Q2740.84 1098.23 2733.24 1098.23 Q2725.63 1098.23 2721.26 1104.27 Q2716.93 1110.26 2716.93 1120.83 Z" fill="#000000" fill-rule="nonzero" fill-opacity="1" /><path clip-path="url(#clip770)" d="M2805.42 1120.62 Q2793.81 1120.62 2789.33 1123.28 Q2784.85 1125.93 2784.85 1132.34 Q2784.85 1137.44 2788.18 1140.46 Q2791.57 1143.43 2797.35 1143.43 Q2805.32 1143.43 2810.11 1137.81 Q2814.95 1132.13 2814.95 1122.76 L2814.95 1120.62 L2805.42 1120.62 M2824.54 1116.66 L2824.54 1149.94 L2814.95 1149.94 L2814.95 1141.09 Q2811.67 1146.4 2806.78 1148.95 Q2801.88 1151.45 2794.8 1151.45 Q2785.84 1151.45 2780.53 1146.45 Q2775.27 1141.4 2775.27 1132.96 Q2775.27 1123.12 2781.83 1118.12 Q2788.44 1113.12 2801.52 1113.12 L2814.95 1113.12 L2814.95 1112.18 Q2814.95 1105.57 2810.58 1101.98 Q2806.26 1098.33 2798.39 1098.33 Q2793.39 1098.33 2788.65 1099.53 Q2783.91 1100.73 2779.54 1103.12 L2779.54 1094.27 Q2784.8 1092.24 2789.75 1091.25 Q2794.69 1090.2 2799.38 1090.2 Q2812.04 1090.2 2818.29 1096.77 Q2824.54 1103.33 2824.54 1116.66 Z" fill="#000000" fill-rule="nonzero" fill-opacity="1" /><path clip-path="url(#clip770)" d="M2868.55 1155.36 Q2864.48 1165.78 2860.63 1168.95 Q2856.78 1172.13 2850.32 1172.13 L2842.66 1172.13 L2842.66 1164.11 L2848.29 1164.11 Q2852.25 1164.11 2854.43 1162.24 Q2856.62 1160.36 2859.28 1153.38 L2861 1149.01 L2837.4 1091.61 L2847.56 1091.61 L2865.79 1137.24 L2884.02 1091.61 L2894.17 1091.61 L2868.55 1155.36 Z" fill="#000000" fill-rule="nonzero" fill-opacity="1" /><path clip-path="url(#clip770)" d="M2905.89 1069.01 L2914.22 1069.01 Q2922.04 1081.3 2925.89 1093.07 Q2929.8 1104.84 2929.8 1116.45 Q2929.8 1128.12 2925.89 1139.94 Q2922.04 1151.77 2914.22 1164.01 L2905.89 1164.01 Q2912.82 1152.08 2916.2 1140.31 Q2919.64 1128.49 2919.64 1116.45 Q2919.64 1104.42 2916.2 1092.7 Q2912.82 1080.99 2905.89 1069.01 Z" fill="#000000" fill-rule="nonzero" fill-opacity="1" /><polyline clip-path="url(#clip772)" style="stroke:#000000; stroke-linecap:round; stroke-linejoin:round; stroke-width:2; stroke-opacity:0.1; fill:none" points="541.32,826.723 4752.76,826.723 "/>
<polyline clip-path="url(#clip772)" style="stroke:#000000; stroke-linecap:round; stroke-linejoin:round; stroke-width:2; stroke-opacity:0.1; fill:none" points="541.32,637.959 4752.76,637.959 "/>
<polyline clip-path="url(#clip772)" style="stroke:#000000; stroke-linecap:round; stroke-linejoin:round; stroke-width:2; stroke-opacity:0.1; fill:none" points="541.32,449.194 4752.76,449.194 "/>
<polyline clip-path="url(#clip772)" style="stroke:#000000; stroke-linecap:round; stroke-linejoin:round; stroke-width:2; stroke-opacity:0.1; fill:none" points="541.32,260.43 4752.76,260.43 "/>
<polyline clip-path="url(#clip772)" style="stroke:#000000; stroke-linecap:round; stroke-linejoin:round; stroke-width:2; stroke-opacity:0.1; fill:none" points="541.32,71.6655 4752.76,71.6655 "/>
<polyline clip-path="url(#clip770)" style="stroke:#000000; stroke-linecap:round; stroke-linejoin:round; stroke-width:4; stroke-opacity:1; fill:none" points="541.32,880.951 541.32,47.2441 "/>
<polyline clip-path="url(#clip770)" style="stroke:#000000; stroke-linecap:round; stroke-linejoin:round; stroke-width:4; stroke-opacity:1; fill:none" points="541.32,826.723 560.218,826.723 "/>
<polyline clip-path="url(#clip770)" style="stroke:#000000; stroke-linecap:round; stroke-linejoin:round; stroke-width:4; stroke-opacity:1; fill:none" points="541.32,637.959 560.218,637.959 "/>
<polyline clip-path="url(#clip770)" style="stroke:#000000; stroke-linecap:round; stroke-linejoin:round; stroke-width:4; stroke-opacity:1; fill:none" points="541.32,449.194 560.218,449.194 "/>
<polyline clip-path="url(#clip770)" style="stroke:#000000; stroke-linecap:round; stroke-linejoin:round; stroke-width:4; stroke-opacity:1; fill:none" points="541.32,260.43 560.218,260.43 "/>
<polyline clip-path="url(#clip770)" style="stroke:#000000; stroke-linecap:round; stroke-linejoin:round; stroke-width:4; stroke-opacity:1; fill:none" points="541.32,71.6655 560.218,71.6655 "/>
<path clip-path="url(#clip770)" d="M194.136 827.626 L253.488 827.626 L253.488 835.496 L194.136 835.496 L194.136 827.626 Z" fill="#000000" fill-rule="nonzero" fill-opacity="1" /><path clip-path="url(#clip770)" d="M293.673 798.32 Q286.451 798.32 282.793 805.45 Q279.182 812.533 279.182 826.792 Q279.182 841.005 282.793 848.135 Q286.451 855.218 293.673 855.218 Q300.941 855.218 304.552 848.135 Q308.21 841.005 308.21 826.792 Q308.21 812.533 304.552 805.45 Q300.941 798.32 293.673 798.32 M293.673 790.913 Q305.293 790.913 311.404 800.126 Q317.562 809.293 317.562 826.792 Q317.562 844.246 311.404 853.459 Q305.293 862.626 293.673 862.626 Q282.053 862.626 275.895 853.459 Q269.784 844.246 269.784 826.792 Q269.784 809.293 275.895 800.126 Q282.053 790.913 293.673 790.913 Z" fill="#000000" fill-rule="nonzero" fill-opacity="1" /><path clip-path="url(#clip770)" d="M333.997 849.524 L343.765 849.524 L343.765 861.283 L333.997 861.283 L333.997 849.524 Z" fill="#000000" fill-rule="nonzero" fill-opacity="1" /><path clip-path="url(#clip770)" d="M384.135 798.32 Q376.913 798.32 373.256 805.45 Q369.645 812.533 369.645 826.792 Q369.645 841.005 373.256 848.135 Q376.913 855.218 384.135 855.218 Q391.404 855.218 395.015 848.135 Q398.672 841.005 398.672 826.792 Q398.672 812.533 395.015 805.45 Q391.404 798.32 384.135 798.32 M384.135 790.913 Q395.756 790.913 401.867 800.126 Q408.024 809.293 408.024 826.792 Q408.024 844.246 401.867 853.459 Q395.756 862.626 384.135 862.626 Q372.515 862.626 366.358 853.459 Q360.247 844.246 360.247 826.792 Q360.247 809.293 366.358 800.126 Q372.515 790.913 384.135 790.913 Z" fill="#000000" fill-rule="nonzero" fill-opacity="1" /><path clip-path="url(#clip770)" d="M450.154 800.311 L426.543 837.209 L450.154 837.209 L450.154 800.311 M447.7 792.163 L459.459 792.163 L459.459 837.209 L469.32 837.209 L469.32 844.987 L459.459 844.987 L459.459 861.283 L450.154 861.283 L450.154 844.987 L418.95 844.987 L418.95 835.959 L447.7 792.163 Z" fill="#000000" fill-rule="nonzero" fill-opacity="1" /><path clip-path="url(#clip770)" d="M196.405 638.861 L255.756 638.861 L255.756 646.732 L196.405 646.732 L196.405 638.861 Z" fill="#000000" fill-rule="nonzero" fill-opacity="1" /><path clip-path="url(#clip770)" d="M295.941 609.556 Q288.719 609.556 285.062 616.686 Q281.451 623.769 281.451 638.028 Q281.451 652.241 285.062 659.371 Q288.719 666.454 295.941 666.454 Q303.21 666.454 306.821 659.371 Q310.478 652.241 310.478 638.028 Q310.478 623.769 306.821 616.686 Q303.21 609.556 295.941 609.556 M295.941 602.149 Q307.562 602.149 313.673 611.362 Q319.83 620.528 319.83 638.028 Q319.83 655.482 313.673 664.695 Q307.562 673.861 295.941 673.861 Q284.321 673.861 278.164 664.695 Q272.053 655.482 272.053 638.028 Q272.053 620.528 278.164 611.362 Q284.321 602.149 295.941 602.149 Z" fill="#000000" fill-rule="nonzero" fill-opacity="1" /><path clip-path="url(#clip770)" d="M336.265 660.759 L346.034 660.759 L346.034 672.519 L336.265 672.519 L336.265 660.759 Z" fill="#000000" fill-rule="nonzero" fill-opacity="1" /><path clip-path="url(#clip770)" d="M386.404 609.556 Q379.182 609.556 375.524 616.686 Q371.913 623.769 371.913 638.028 Q371.913 652.241 375.524 659.371 Q379.182 666.454 386.404 666.454 Q393.672 666.454 397.283 659.371 Q400.941 652.241 400.941 638.028 Q400.941 623.769 397.283 616.686 Q393.672 609.556 386.404 609.556 M386.404 602.149 Q398.024 602.149 404.135 611.362 Q410.293 620.528 410.293 638.028 Q410.293 655.482 404.135 664.695 Q398.024 673.861 386.404 673.861 Q374.784 673.861 368.626 664.695 Q362.515 655.482 362.515 638.028 Q362.515 620.528 368.626 611.362 Q374.784 602.149 386.404 602.149 Z" fill="#000000" fill-rule="nonzero" fill-opacity="1" /><path clip-path="url(#clip770)" d="M455.061 635.25 Q461.774 636.686 465.524 641.223 Q469.32 645.76 469.32 652.426 Q469.32 662.658 462.283 668.259 Q455.246 673.861 442.283 673.861 Q437.931 673.861 433.302 672.982 Q428.718 672.148 423.811 670.435 L423.811 661.408 Q427.7 663.676 432.33 664.834 Q436.959 665.991 442.005 665.991 Q450.802 665.991 455.385 662.519 Q460.015 659.047 460.015 652.426 Q460.015 646.315 455.709 642.889 Q451.45 639.417 443.811 639.417 L435.755 639.417 L435.755 631.732 L444.181 631.732 Q451.079 631.732 454.737 629 Q458.394 626.223 458.394 621.037 Q458.394 615.713 454.598 612.889 Q450.848 610.019 443.811 610.019 Q439.968 610.019 435.57 610.852 Q431.172 611.686 425.894 613.445 L425.894 605.112 Q431.218 603.63 435.848 602.889 Q440.524 602.149 444.644 602.149 Q455.292 602.149 461.496 607.01 Q467.7 611.825 467.7 620.065 Q467.7 625.806 464.413 629.787 Q461.126 633.723 455.061 635.25 Z" fill="#000000" fill-rule="nonzero" fill-opacity="1" /><path clip-path="url(#clip770)" d="M198.303 450.097 L257.655 450.097 L257.655 457.967 L198.303 457.967 L198.303 450.097 Z" fill="#000000" fill-rule="nonzero" fill-opacity="1" /><path clip-path="url(#clip770)" d="M297.84 420.792 Q290.617 420.792 286.96 427.921 Q283.349 435.005 283.349 449.264 Q283.349 463.477 286.96 470.606 Q290.617 477.689 297.84 477.689 Q305.108 477.689 308.719 470.606 Q312.376 463.477 312.376 449.264 Q312.376 435.005 308.719 427.921 Q305.108 420.792 297.84 420.792 M297.84 413.384 Q309.46 413.384 315.571 422.597 Q321.728 431.764 321.728 449.264 Q321.728 466.717 315.571 475.93 Q309.46 485.097 297.84 485.097 Q286.219 485.097 280.062 475.93 Q273.951 466.717 273.951 449.264 Q273.951 431.764 280.062 422.597 Q286.219 413.384 297.84 413.384 Z" fill="#000000" fill-rule="nonzero" fill-opacity="1" /><path clip-path="url(#clip770)" d="M338.163 471.995 L347.932 471.995 L347.932 483.754 L338.163 483.754 L338.163 471.995 Z" fill="#000000" fill-rule="nonzero" fill-opacity="1" /><path clip-path="url(#clip770)" d="M388.302 420.792 Q381.08 420.792 377.422 427.921 Q373.811 435.005 373.811 449.264 Q373.811 463.477 377.422 470.606 Q381.08 477.689 388.302 477.689 Q395.57 477.689 399.182 470.606 Q402.839 463.477 402.839 449.264 Q402.839 435.005 399.182 427.921 Q395.57 420.792 388.302 420.792 M388.302 413.384 Q399.922 413.384 406.033 422.597 Q412.191 431.764 412.191 449.264 Q412.191 466.717 406.033 475.93 Q399.922 485.097 388.302 485.097 Q376.682 485.097 370.524 475.93 Q364.413 466.717 364.413 449.264 Q364.413 431.764 370.524 422.597 Q376.682 413.384 388.302 413.384 Z" fill="#000000" fill-rule="nonzero" fill-opacity="1" /><path clip-path="url(#clip770)" d="M436.681 475.884 L469.32 475.884 L469.32 483.754 L425.431 483.754 L425.431 475.884 Q430.755 470.375 439.922 461.116 Q449.135 451.81 451.496 449.125 Q455.987 444.079 457.746 440.606 Q459.552 437.088 459.552 433.708 Q459.552 428.199 455.663 424.727 Q451.82 421.255 445.617 421.255 Q441.218 421.255 436.311 422.782 Q431.45 424.31 425.894 427.412 L425.894 417.968 Q431.543 415.699 436.45 414.542 Q441.357 413.384 445.431 413.384 Q456.172 413.384 462.561 418.755 Q468.95 424.125 468.95 433.106 Q468.95 437.366 467.329 441.208 Q465.755 445.004 461.542 450.19 Q460.385 451.532 454.181 457.967 Q447.978 464.356 436.681 475.884 Z" fill="#000000" fill-rule="nonzero" fill-opacity="1" /><path clip-path="url(#clip770)" d="M197.562 261.333 L256.914 261.333 L256.914 269.203 L197.562 269.203 L197.562 261.333 Z" fill="#000000" fill-rule="nonzero" fill-opacity="1" /><path clip-path="url(#clip770)" d="M297.099 232.027 Q289.877 232.027 286.219 239.157 Q282.608 246.24 282.608 260.499 Q282.608 274.712 286.219 281.842 Q289.877 288.925 297.099 288.925 Q304.367 288.925 307.978 281.842 Q311.636 274.712 311.636 260.499 Q311.636 246.24 307.978 239.157 Q304.367 232.027 297.099 232.027 M297.099 224.62 Q308.719 224.62 314.83 233.833 Q320.988 242.999 320.988 260.499 Q320.988 277.953 314.83 287.166 Q308.719 296.332 297.099 296.332 Q285.478 296.332 279.321 287.166 Q273.21 277.953 273.21 260.499 Q273.21 242.999 279.321 233.833 Q285.478 224.62 297.099 224.62 Z" fill="#000000" fill-rule="nonzero" fill-opacity="1" /><path clip-path="url(#clip770)" d="M337.423 283.231 L347.191 283.231 L347.191 294.99 L337.423 294.99 L337.423 283.231 Z" fill="#000000" fill-rule="nonzero" fill-opacity="1" /><path clip-path="url(#clip770)" d="M387.561 232.027 Q380.339 232.027 376.682 239.157 Q373.071 246.24 373.071 260.499 Q373.071 274.712 376.682 281.842 Q380.339 288.925 387.561 288.925 Q394.83 288.925 398.441 281.842 Q402.098 274.712 402.098 260.499 Q402.098 246.24 398.441 239.157 Q394.83 232.027 387.561 232.027 M387.561 224.62 Q399.182 224.62 405.293 233.833 Q411.45 242.999 411.45 260.499 Q411.45 277.953 405.293 287.166 Q399.182 296.332 387.561 296.332 Q375.941 296.332 369.784 287.166 Q363.673 277.953 363.673 260.499 Q363.673 242.999 369.784 233.833 Q375.941 224.62 387.561 224.62 Z" fill="#000000" fill-rule="nonzero" fill-opacity="1" /><path clip-path="url(#clip770)" d="M429.505 287.12 L444.783 287.12 L444.783 234.388 L428.163 237.722 L428.163 229.203 L444.691 225.87 L454.042 225.87 L454.042 287.12 L469.32 287.12 L469.32 294.99 L429.505 294.99 L429.505 287.12 Z" fill="#000000" fill-rule="nonzero" fill-opacity="1" /><path clip-path="url(#clip770)" d="M294.645 43.2629 Q287.423 43.2629 283.766 50.3925 Q280.154 57.4758 280.154 71.7349 Q280.154 85.9478 283.766 93.0774 Q287.423 100.161 294.645 100.161 Q301.914 100.161 305.525 93.0774 Q309.182 85.9478 309.182 71.7349 Q309.182 57.4758 305.525 50.3925 Q301.914 43.2629 294.645 43.2629 M294.645 35.8555 Q306.265 35.8555 312.376 45.0684 Q318.534 54.235 318.534 71.7349 Q318.534 89.1885 312.376 98.4015 Q306.265 107.568 294.645 107.568 Q283.025 107.568 276.867 98.4015 Q270.756 89.1885 270.756 71.7349 Q270.756 54.235 276.867 45.0684 Q283.025 35.8555 294.645 35.8555 Z" fill="#000000" fill-rule="nonzero" fill-opacity="1" /><path clip-path="url(#clip770)" d="M334.969 94.4663 L344.737 94.4663 L344.737 106.225 L334.969 106.225 L334.969 94.4663 Z" fill="#000000" fill-rule="nonzero" fill-opacity="1" /><path clip-path="url(#clip770)" d="M385.108 43.2629 Q377.885 43.2629 374.228 50.3925 Q370.617 57.4758 370.617 71.7349 Q370.617 85.9478 374.228 93.0774 Q377.885 100.161 385.108 100.161 Q392.376 100.161 395.987 93.0774 Q399.645 85.9478 399.645 71.7349 Q399.645 57.4758 395.987 50.3925 Q392.376 43.2629 385.108 43.2629 M385.108 35.8555 Q396.728 35.8555 402.839 45.0684 Q408.996 54.235 408.996 71.7349 Q408.996 89.1885 402.839 98.4015 Q396.728 107.568 385.108 107.568 Q373.487 107.568 367.33 98.4015 Q361.219 89.1885 361.219 71.7349 Q361.219 54.235 367.33 45.0684 Q373.487 35.8555 385.108 35.8555 Z" fill="#000000" fill-rule="nonzero" fill-opacity="1" /><path clip-path="url(#clip770)" d="M445.431 43.2629 Q438.209 43.2629 434.552 50.3925 Q430.941 57.4758 430.941 71.7349 Q430.941 85.9478 434.552 93.0774 Q438.209 100.161 445.431 100.161 Q452.7 100.161 456.311 93.0774 Q459.968 85.9478 459.968 71.7349 Q459.968 57.4758 456.311 50.3925 Q452.7 43.2629 445.431 43.2629 M445.431 35.8555 Q457.052 35.8555 463.163 45.0684 Q469.32 54.235 469.32 71.7349 Q469.32 89.1885 463.163 98.4015 Q457.052 107.568 445.431 107.568 Q433.811 107.568 427.654 98.4015 Q421.543 89.1885 421.543 71.7349 Q421.543 54.235 427.654 45.0684 Q433.811 35.8555 445.431 35.8555 Z" fill="#000000" fill-rule="nonzero" fill-opacity="1" /><path clip-path="url(#clip770)" d="M21.0484 791.935 L21.0484 781.414 L52.9232 781.414 L52.9232 743.185 L21.0484 743.185 L21.0484 732.664 L98.8084 732.664 L98.8084 743.185 L61.7773 743.185 L61.7773 781.414 L98.8084 781.414 L98.8084 791.935 L21.0484 791.935 Z" fill="#000000" fill-rule="nonzero" fill-opacity="1" /><path clip-path="url(#clip770)" d="M27.0379 653.498 L38.1316 653.498 Q33.1837 658.81 30.7358 664.852 Q28.2879 670.841 28.2879 677.612 Q28.2879 690.946 36.465 698.029 Q44.5899 705.112 60.0065 705.112 Q75.371 705.112 83.548 698.029 Q91.673 690.946 91.673 677.612 Q91.673 670.841 89.2251 664.852 Q86.7772 658.81 81.8293 653.498 L92.8188 653.498 Q96.5688 659.019 98.4438 665.217 Q100.319 671.362 100.319 678.237 Q100.319 695.893 89.5376 706.05 Q78.7043 716.206 60.0065 716.206 Q41.2566 716.206 30.4754 706.05 Q19.6421 695.893 19.6421 678.237 Q19.6421 671.258 21.5171 665.112 Q23.34 658.914 27.0379 653.498 Z" fill="#000000" fill-rule="nonzero" fill-opacity="1" /><path clip-path="url(#clip770)" d="M21.0484 637.248 L21.0484 626.727 L52.9232 626.727 L52.9232 588.498 L21.0484 588.498 L21.0484 577.977 L98.8084 577.977 L98.8084 588.498 L61.7773 588.498 L61.7773 626.727 L98.8084 626.727 L98.8084 637.248 L21.0484 637.248 Z" fill="#000000" fill-rule="nonzero" fill-opacity="1" /><path clip-path="url(#clip770)" d="M28.1838 525.478 Q28.1838 536.936 36.7254 543.707 Q45.267 550.425 60.0065 550.425 Q74.6939 550.425 83.2355 543.707 Q91.7772 536.936 91.7772 525.478 Q91.7772 514.019 83.2355 507.353 Q74.6939 500.634 60.0065 500.634 Q45.267 500.634 36.7254 507.353 Q28.1838 514.019 28.1838 525.478 M19.6421 525.478 Q19.6421 509.124 30.6317 499.332 Q41.5691 489.54 60.0065 489.54 Q78.3918 489.54 89.3813 499.332 Q100.319 509.124 100.319 525.478 Q100.319 541.884 89.3813 551.728 Q78.4439 561.519 60.0065 561.519 Q41.5691 561.519 30.6317 551.728 Q19.6421 541.884 19.6421 525.478 Z" fill="#000000" fill-rule="nonzero" fill-opacity="1" /><path clip-path="url(#clip770)" d="M17.8713 416.572 Q29.8504 423.551 41.5691 426.937 Q53.2878 430.322 65.319 430.322 Q77.3502 430.322 89.173 426.937 Q100.944 423.499 112.871 416.572 L112.871 424.905 Q100.631 432.718 88.8084 436.624 Q76.9856 440.478 65.319 440.478 Q53.7045 440.478 41.9337 436.624 Q30.1629 432.77 17.8713 424.905 L17.8713 416.572 Z" fill="#000000" fill-rule="nonzero" fill-opacity="1" /><path clip-path="url(#clip770)" d="M90.0584 388.708 L120.996 388.708 L120.996 398.343 L40.4754 398.343 L40.4754 388.708 L49.3295 388.708 Q44.1212 385.687 41.6212 381.103 Q39.0691 376.468 39.0691 370.062 Q39.0691 359.437 47.5066 352.822 Q55.944 346.156 69.694 346.156 Q83.4439 346.156 91.8813 352.822 Q100.319 359.437 100.319 370.062 Q100.319 376.468 97.8188 381.103 Q95.2667 385.687 90.0584 388.708 M69.694 356.104 Q59.1211 356.104 53.1315 360.479 Q47.0899 364.801 47.0899 372.406 Q47.0899 380.01 53.1315 384.385 Q59.1211 388.708 69.694 388.708 Q80.2668 388.708 86.3084 384.385 Q92.298 380.01 92.298 372.406 Q92.298 364.801 86.3084 360.479 Q80.2668 356.104 69.694 356.104 Z" fill="#000000" fill-rule="nonzero" fill-opacity="1" /><path clip-path="url(#clip770)" d="M90.0584 321 L120.996 321 L120.996 330.635 L40.4754 330.635 L40.4754 321 L49.3295 321 Q44.1212 317.979 41.6212 313.395 Q39.0691 308.76 39.0691 302.354 Q39.0691 291.729 47.5066 285.114 Q55.944 278.448 69.694 278.448 Q83.4439 278.448 91.8813 285.114 Q100.319 291.729 100.319 302.354 Q100.319 308.76 97.8188 313.395 Q95.2667 317.979 90.0584 321 M69.694 288.396 Q59.1211 288.396 53.1315 292.771 Q47.0899 297.093 47.0899 304.698 Q47.0899 312.302 53.1315 316.677 Q59.1211 321 69.694 321 Q80.2668 321 86.3084 316.677 Q92.298 312.302 92.298 304.698 Q92.298 297.093 86.3084 292.771 Q80.2668 288.396 69.694 288.396 Z" fill="#000000" fill-rule="nonzero" fill-opacity="1" /><path clip-path="url(#clip770)" d="M51.6732 217.146 Q45.2149 213.552 42.142 208.552 Q39.0691 203.552 39.0691 196.782 Q39.0691 187.667 45.4753 182.719 Q51.8295 177.771 63.6002 177.771 L98.8084 177.771 L98.8084 187.407 L63.9127 187.407 Q55.5274 187.407 51.4649 190.375 Q47.4024 193.344 47.4024 199.438 Q47.4024 206.886 52.3503 211.209 Q57.2982 215.531 65.8398 215.531 L98.8084 215.531 L98.8084 225.167 L63.9127 225.167 Q55.4753 225.167 51.4649 228.136 Q47.4024 231.104 47.4024 237.302 Q47.4024 244.646 52.4024 248.969 Q57.3503 253.292 65.8398 253.292 L98.8084 253.292 L98.8084 262.927 L40.4754 262.927 L40.4754 253.292 L49.5378 253.292 Q44.1733 250.01 41.6212 245.427 Q39.0691 240.844 39.0691 234.542 Q39.0691 228.188 42.2983 223.761 Q45.5274 219.281 51.6732 217.146 Z" fill="#000000" fill-rule="nonzero" fill-opacity="1" /><path clip-path="url(#clip770)" d="M17.8713 160.167 L17.8713 151.834 Q30.1629 144.021 41.9337 140.167 Q53.7045 136.261 65.319 136.261 Q76.9856 136.261 88.8084 140.167 Q100.631 144.021 112.871 151.834 L112.871 160.167 Q100.944 153.24 89.173 149.855 Q77.3502 146.417 65.319 146.417 Q53.2878 146.417 41.5691 149.855 Q29.8504 153.24 17.8713 160.167 Z" fill="#000000" fill-rule="nonzero" fill-opacity="1" /><path clip-path="url(#clip772)" d="M660.512 783.251 L678.991 72.1702 L697.47 123.387 L715.95 582.634 L734.429 73.2947 L752.908 95.7867 L771.388 377.038 L789.867 73.5815 L808.346 112.311 L826.826 705.663 L845.305 72.9776 L863.784 129.112 L882.263 516.023 L900.743 73.0643 L919.222 101.283 L937.701 850.747 L956.181 72.5045 L974.66 118.046 L993.139 640.157 L1011.62 72.7717 L1030.1 134.778 L1048.58 442.803 L1067.06 73.8214 L1085.54 106.839 L1104.02 783.866 L1122.49 72.5125 L1140.97 123.608 L1159.45 583.173 L1177.93 73.3273 L1196.41 95.842 L1214.89 377.103 L1233.37 73.5903 L1251.85 112.435 L1270.33 706.307 L1288.81 72.9867 L1307.29 129.348 L1325.77 516.384 L1344.25 73.0667 L1362.73 101.355 L1381.2 851.303 L1399.68 72.4847 L1418.16 118.202 L1436.64 640.596 L1455.12 72.7762 L1473.6 135.063 L1492.08 442.978 L1510.56 73.8333 L1529.04 106.94 L1547.52 784.606 L1566 72.6796 L1584.48 123.805 L1602.96 583.413 L1621.44 73.3343 L1639.92 95.8933 L1658.39 377.234 L1676.87 73.602 L1695.35 112.558 L1713.83 706.863 L1732.31 72.9889 L1750.79 129.589 L1769.27 516.645 L1787.75 73.0731 L1806.23 101.414 L1824.71 852.151 L1843.19 72.5076 L1861.67 118.36 L1880.15 641.079 L1898.63 72.7796 L1917.11 135.357 L1935.58 443.229 L1954.06 73.8448 L1972.54 107.028 L1991.02 785.14 L2009.5 72.6804 L2027.98 124.004 L2046.46 583.744 L2064.94 73.3417 L2083.42 95.9363 L2101.9 377.363 L2120.38 73.6106 L2138.86 112.677 L2157.34 707.426 L2175.82 72.9947 L2194.29 129.831 L2212.77 516.826 L2231.25 73.0786 L2249.73 101.48 L2268.21 853.038 L2286.69 72.4896 L2305.17 118.521 L2323.65 641.657 L2342.13 72.7833 L2360.61 135.653 L2379.09 443.371 L2397.57 73.856 L2416.05 107.123 L2434.53 785.834 L2453.01 72.6819 L2471.48 124.206 L2489.96 584.157 L2508.44 73.349 L2526.92 95.98 L2545.4 377.6 L2563.88 73.6203 L2582.36 112.803 L2600.84 707.993 L2619.32 72.9989 L2637.8 130.075 L2656.28 517.123 L2674.76 73.0844 L2693.24 101.544 L2711.72 853.936 L2730.19 72.4972 L2748.67 118.677 L2767.15 642.026 L2785.63 72.7866 L2804.11 135.944 L2822.59 443.565 L2841.07 73.8671 L2859.55 107.216 L2878.03 786.536 L2896.51 72.6792 L2914.99 124.407 L2933.47 584.492 L2951.95 73.3563 L2970.43 96.0193 L2988.91 377.64 L3007.38 73.6298 L3025.86 112.933 L3044.34 708.519 L3062.82 73.0039 L3081.3 130.322 L3099.78 517.528 L3118.26 73.0902 L3136.74 101.611 L3155.22 854.828 L3173.7 72.4949 L3192.18 118.837 L3210.66 642.64 L3229.14 72.7903 L3247.62 136.242 L3266.1 443.771 L3284.57 73.8785 L3303.05 107.309 L3321.53 787.254 L3340.01 72.6809 L3358.49 124.608 L3376.97 584.866 L3395.45 73.3638 L3413.93 96.0679 L3432.41 377.843 L3450.89 73.6393 L3469.37 113.053 L3487.85 708.95 L3506.33 73.0085 L3524.81 130.57 L3543.28 517.681 L3561.76 73.0962 L3580.24 101.685 L3598.72 855.657 L3617.2 72.4972 L3635.68 118.998 L3654.16 642.929 L3672.64 72.7941 L3691.12 136.541 L3709.6 443.989 L3728.08 73.8899 L3746.56 107.402 L3765.04 787.937 L3783.52 72.68 L3802 124.811 L3820.47 585.211 L3838.95 73.3712 L3857.43 96.1115 L3875.91 377.896 L3894.39 73.6488 L3912.87 113.177 L3931.35 709.711 L3949.83 73.0137 L3968.31 130.811 L3986.79 518.094 L4005.27 73.102 L4023.75 101.743 L4042.23 856.504 L4060.71 72.4996 L4079.18 119.162 L4097.66 643.363 L4116.14 72.7976 L4134.62 136.844 L4153.1 444.29 L4171.58 73.9016 L4190.06 107.495 L4208.54 788.662 L4227.02 72.6786 L4245.5 125.004 L4263.98 585.633 L4282.46 73.3787 L4300.94 96.1559 L4319.42 378.037 L4337.9 73.6584 L4356.37 113.303 L4374.85 710.287 L4393.33 73.0182 L4411.81 131.062 L4430.29 518.202 L4448.77 73.108 L4467.25 101.809 L4485.73 857.356 L4504.21 72.5024 L4522.69 119.322 L4541.17 643.828 L4559.65 72.8012 L4578.13 137.15 L4596.61 444.335 L4615.09 73.9129 L4633.56 107.597 L4633.56 70.9534 L4615.09 70.8685 L4596.61 71.8659 L4578.13 71.0732 L4559.65 70.8937 L4541.17 72.4199 L4522.69 71.0108 L4504.21 70.8582 L4485.73 72.9683 L4467.25 70.9729 L4448.77 70.8836 L4430.29 72.0865 L4411.81 71.0757 L4393.33 70.8941 L4374.85 72.5889 L4356.37 70.9848 L4337.9 70.8889 L4319.42 71.7133 L4300.94 70.945 L4282.46 70.865 L4263.98 72.2448 L4245.5 71.0329 L4227.02 70.8664 L4208.54 72.7819 L4190.06 70.9525 L4171.58 70.8687 L4153.1 71.8657 L4134.62 71.0738 L4116.14 70.8936 L4097.66 72.4186 L4079.18 71.0102 L4060.71 70.858 L4042.23 72.966 L4023.75 70.9728 L4005.27 70.8835 L3986.79 72.0861 L3968.31 71.0754 L3949.83 70.8941 L3931.35 72.5873 L3912.87 70.9843 L3894.39 70.8887 L3875.91 71.7128 L3857.43 70.9447 L3838.95 70.8651 L3820.47 72.2435 L3802 71.0323 L3783.52 70.8667 L3765.04 72.7799 L3746.56 70.9525 L3728.08 70.8684 L3709.6 71.8648 L3691.12 71.075 L3672.64 70.8937 L3654.16 72.4174 L3635.68 71.01 L3617.2 70.858 L3598.72 72.9637 L3580.24 70.9724 L3561.76 70.8834 L3543.28 72.0846 L3524.81 71.0744 L3506.33 70.8938 L3487.85 72.5851 L3469.37 70.984 L3450.89 70.8887 L3432.41 71.7127 L3413.93 70.9447 L3395.45 70.8651 L3376.97 72.2427 L3358.49 71.0317 L3340.01 70.8667 L3321.53 72.778 L3303.05 70.9522 L3284.57 70.8683 L3266.1 71.8643 L3247.62 71.0724 L3229.14 70.8936 L3210.66 72.4165 L3192.18 71.0093 L3173.7 70.8581 L3155.22 72.9613 L3136.74 70.9723 L3118.26 70.8832 L3099.78 72.0843 L3081.3 71.074 L3062.82 70.894 L3044.34 72.584 L3025.86 70.9836 L3007.38 70.8886 L2988.91 71.7121 L2970.43 70.9444 L2951.95 70.865 L2933.47 72.2416 L2914.99 71.0312 L2896.51 70.8668 L2878.03 72.776 L2859.55 70.9519 L2841.07 70.8684 L2822.59 71.8636 L2804.11 71.0743 L2785.63 70.8935 L2767.15 72.4148 L2748.67 71.0088 L2730.19 70.8581 L2711.72 72.9588 L2693.24 70.972 L2674.76 70.8834 L2656.28 72.0832 L2637.8 71.073 L2619.32 70.8937 L2600.84 72.5824 L2582.36 70.9833 L2563.88 70.8886 L2545.4 71.7118 L2526.92 70.9444 L2508.44 70.865 L2489.96 72.2404 L2471.48 71.0305 L2453.01 70.8664 L2434.53 72.7739 L2416.05 70.9512 L2397.57 70.8685 L2379.09 71.8634 L2360.61 71.07 L2342.13 70.8936 L2323.65 72.4138 L2305.17 71.0083 L2286.69 70.8578 L2268.21 72.9563 L2249.73 70.972 L2231.25 70.8832 L2212.77 72.0821 L2194.29 71.0726 L2175.82 70.8943 L2157.34 72.5811 L2138.86 70.9828 L2120.38 70.8881 L2101.9 71.7115 L2083.42 70.944 L2064.94 70.8649 L2046.46 72.2393 L2027.98 71.03 L2009.5 70.8664 L1991.02 72.7721 L1972.54 70.9514 L1954.06 70.8684 L1935.58 71.8628 L1917.11 71.0679 L1898.63 70.8935 L1880.15 72.412 L1861.67 71.008 L1843.19 70.858 L1824.71 72.9539 L1806.23 70.9713 L1787.75 70.8835 L1769.27 72.0824 L1750.79 71.0715 L1732.31 70.8932 L1713.83 72.5791 L1695.35 70.9827 L1676.87 70.8886 L1658.39 71.7113 L1639.92 70.9439 L1621.44 70.8649 L1602.96 72.2383 L1584.48 71.0292 L1566 70.8662 L1547.52 72.7704 L1529.04 70.951 L1510.56 70.8682 L1492.08 71.8621 L1473.6 71.0693 L1455.12 70.8937 L1436.64 72.4112 L1418.16 71.0075 L1399.68 70.8576 L1381.2 72.9515 L1362.73 70.9717 L1344.25 70.8828 L1325.77 72.0806 L1307.29 71.0709 L1288.81 70.8955 L1270.33 72.5783 L1251.85 70.9815 L1233.37 70.8871 L1214.89 71.7108 L1196.41 70.9437 L1177.93 70.8651 L1159.45 72.238 L1140.97 71.0284 L1122.49 70.8643 L1104.02 72.7685 L1085.54 70.9514 L1067.06 70.8681 L1048.58 71.8616 L1030.1 71.0665 L1011.62 70.8929 L993.139 72.4088 L974.66 71.0088 L956.181 70.858 L937.701 72.9493 L919.222 70.9733 L900.743 70.8836 L882.263 72.076 L863.784 71.0541 L845.305 70.8922 L826.826 72.5748 L808.346 70.9854 L789.867 70.885 L771.388 71.6985 L752.908 70.9303 L734.429 70.8504 L715.95 72.2203 L697.47 71.0085 L678.991 70.8396 L660.512 72.8018  Z" fill="#c8c8c8" fill-rule="evenodd" fill-opacity="0.5"/>
<polyline clip-path="url(#clip772)" style="stroke:#c8c8c8; stroke-linecap:round; stroke-linejoin:round; stroke-width:0; stroke-opacity:1; fill:none" points="660.512,73.3699 678.991,71.4322 697.47,71.586 715.95,72.8154 734.429,71.4513 752.908,71.5228 771.388,72.2802 789.867,71.4702 808.346,71.5808 826.826,73.1694 845.305,71.4717 863.784,71.6383 882.263,72.6691 900.743,71.4755 919.222,71.5502 937.701,73.556 956.181,71.4608 974.66,71.5944 993.139,72.9945 1011.62,71.4697 1030.1,71.6479 1048.58,72.4605 1067.06,71.4708 1085.54,71.5614 1104.02,73.3791 1122.49,71.4623 1140.97,71.6095 1159.45,72.8339 1177.93,71.4662 1196.41,71.5341 1214.89,72.2886 1233.37,71.4706 1251.85,71.5773 1270.33,73.1726 1288.81,71.4737 1307.29,71.6377 1325.77,72.6659 1344.25,71.4708 1362.73,71.5485 1381.2,73.5566 1399.68,71.4606 1418.16,71.5962 1436.64,72.9973 1455.12,71.4698 1473.6,71.6484 1492.08,72.4611 1510.56,71.4711 1529.04,71.5621 1547.52,73.3812 1566,71.4631 1584.48,71.6104 1602.96,72.8341 1621.44,71.466 1639.92,71.5345 1658.39,72.2893 1676.87,71.4721 1695.35,71.5785 1713.83,73.1735 1732.31,71.4713 1750.79,71.638 1769.27,72.6674 1787.75,71.4714 1806.23,71.5481 1824.71,73.559 1843.19,71.4609 1861.67,71.5967 1880.15,72.998 1898.63,71.4696 1917.11,71.6494 1935.58,72.4617 1954.06,71.4712 1972.54,71.5624 1991.02,73.3829 2009.5,71.4633 2027.98,71.6112 2046.46,72.8351 2064.94,71.466 2083.42,71.5345 2101.9,72.2896 2120.38,71.4716 2138.86,71.5787 2157.34,73.1753 2175.82,71.4724 2194.29,71.639 2212.77,72.6671 2231.25,71.4711 2249.73,71.5489 2268.21,73.5614 2286.69,71.4607 2305.17,71.5971 2323.65,72.9998 2342.13,71.4697 2360.61,71.6502 2379.09,72.4622 2397.57,71.4713 2416.05,71.5623 2434.53,73.3848 2453.01,71.4632 2471.48,71.6117 2489.96,72.8362 2508.44,71.4661 2526.92,71.5348 2545.4,72.2904 2563.88,71.472 2582.36,71.5791 2600.84,73.1767 2619.32,71.4718 2637.8,71.6395 2656.28,72.6682 2674.76,71.4712 2693.24,71.5488 2711.72,73.5638 2730.19,71.461 2748.67,71.5975 2767.15,73.0008 2785.63,71.4696 2804.11,71.6511 2822.59,72.4625 2841.07,71.4712 2859.55,71.5629 2878.03,73.3868 2896.51,71.4636 2914.99,71.6123 2933.47,72.8373 2951.95,71.466 2970.43,71.5349 2988.91,72.2906 3007.38,71.4721 3025.86,71.5794 3044.34,73.1783 3062.82,71.4721 3081.3,71.6404 3099.78,72.6693 3118.26,71.471 3136.74,71.5491 3155.22,73.5662 3173.7,71.461 3192.18,71.5981 3210.66,73.0025 3229.14,71.4698 3247.62,71.6518 3266.1,72.4632 3284.57,71.4711 3303.05,71.5632 3321.53,73.3888 3340.01,71.4635 3358.49,71.6129 3376.97,72.8384 3395.45,71.4662 3413.93,71.5351 3432.41,72.2912 3450.89,71.4722 3469.37,71.5798 3487.85,73.1794 3506.33,71.4719 3524.81,71.6409 3543.28,72.6696 3561.76,71.4711 3580.24,71.5493 3598.72,73.5685 3617.2,71.4609 3635.68,71.5987 3654.16,73.0034 3672.64,71.4698 3691.12,71.6527 3709.6,72.4638 3728.08,71.4712 3746.56,71.5635 3765.04,73.3908 3783.52,71.4635 3802,71.6135 3820.47,72.8391 3838.95,71.4661 3857.43,71.5352 3875.91,72.2912 3894.39,71.4722 3912.87,71.5801 3931.35,73.1816 3949.83,71.4722 3968.31,71.6418 3986.79,72.6711 4005.27,71.4712 4023.75,71.5496 4042.23,73.5709 4060.71,71.4609 4079.18,71.599 4097.66,73.0046 4116.14,71.4698 4134.62,71.6536 4153.1,72.4646 4171.58,71.4715 4190.06,71.5635 4208.54,73.3928 4227.02,71.4632 4245.5,71.614 4263.98,72.8406 4282.46,71.4661 4300.94,71.5354 4319.42,72.2916 4337.9,71.4723 4356.37,71.5806 4374.85,73.1832 4393.33,71.4721 4411.81,71.6424 4430.29,72.6714 4448.77,71.4712 4467.25,71.5497 4485.73,73.5733 4504.21,71.4611 4522.69,71.5995 4541.17,73.006 4559.65,71.4699 4578.13,71.6545 4596.61,72.4648 4615.09,71.4713 4633.56,71.5644 "/>
<path clip-path="url(#clip772)" d="M660.512 73.5516 L678.991 71.6555 L697.47 71.8481 L715.95 73.0758 L734.429 71.6973 L752.908 71.7892 L771.388 72.5539 L789.867 71.7551 L808.346 71.8878 L826.826 73.4904 L845.305 71.7956 L863.784 72.0121 L882.263 73.0429 L900.743 71.7742 L919.222 71.8723 L937.701 73.8978 L956.181 71.7742 L974.66 71.9129 L993.139 73.3398 L1011.62 71.812 L1030.1 71.9721 L1048.58 72.7915 L1067.06 71.7893 L1085.54 71.8574 L1104.02 73.747 L1122.49 71.7657 L1140.97 71.9768 L1159.45 73.1727 L1177.93 71.7632 L1196.41 71.8551 L1214.89 72.5969 L1233.37 71.7976 L1251.85 71.8908 L1270.33 73.5693 L1288.81 71.8614 L1307.29 72.0001 L1325.77 73.027 L1344.25 71.7964 L1362.73 71.8797 L1381.2 73.9099 L1399.68 71.7766 L1418.16 71.9292 L1436.64 73.3406 L1455.12 71.8215 L1473.6 71.9843 L1492.08 72.8279 L1510.56 71.7936 L1529.04 71.8728 L1547.52 73.7645 L1566 71.8005 L1584.48 71.9812 L1602.96 73.181 L1621.44 71.768 L1639.92 71.8781 L1658.39 72.6156 L1676.87 71.8003 L1695.35 71.8932 L1713.83 73.5757 L1732.31 71.8468 L1750.79 71.9928 L1769.27 73.0395 L1787.75 71.7995 L1806.23 71.8792 L1824.71 73.9141 L1843.19 71.777 L1861.67 71.9309 L1880.15 73.3416 L1898.63 71.8194 L1917.11 71.9853 L1935.58 72.8134 L1954.06 71.7964 L1972.54 71.8654 L1991.02 73.7673 L2009.5 71.8002 L2027.98 71.9824 L2046.46 73.1822 L2064.94 71.7695 L2083.42 71.8688 L2101.9 72.6155 L2120.38 71.799 L2138.86 71.8933 L2157.34 73.5772 L2175.82 71.8525 L2194.29 71.9936 L2212.77 73.0335 L2231.25 71.7979 L2249.73 71.88 L2268.21 73.9165 L2286.69 71.7761 L2305.17 71.931 L2323.65 73.3435 L2342.13 71.8203 L2360.61 71.9871 L2379.09 72.8139 L2397.57 71.7965 L2416.05 71.8652 L2434.53 73.7698 L2453.01 71.8006 L2471.48 71.9832 L2489.96 73.1834 L2508.44 71.7693 L2526.92 71.8731 L2545.4 72.616 L2563.88 71.7995 L2582.36 71.8938 L2600.84 73.5792 L2619.32 71.8525 L2637.8 71.9943 L2656.28 73.0352 L2674.76 71.7979 L2693.24 71.8801 L2711.72 73.919 L2730.19 71.7778 L2748.67 71.9319 L2767.15 73.3439 L2785.63 71.8202 L2804.11 71.9881 L2822.59 72.8144 L2841.07 71.7964 L2859.55 71.8658 L2878.03 73.7713 L2896.51 71.8013 L2914.99 71.9833 L2933.47 73.1844 L2951.95 71.7693 L2970.43 71.8723 L2988.91 72.6163 L3007.38 71.7993 L3025.86 71.8943 L3044.34 73.5807 L3062.82 71.8499 L3081.3 71.9949 L3099.78 73.036 L3118.26 71.7979 L3136.74 71.8808 L3155.22 73.9213 L3173.7 71.7782 L3192.18 71.9321 L3210.66 73.3461 L3229.14 71.8201 L3247.62 71.9883 L3266.1 72.8156 L3284.57 71.7961 L3303.05 71.8663 L3321.53 73.7735 L3340.01 71.8011 L3358.49 71.9842 L3376.97 73.1855 L3395.45 71.7694 L3413.93 71.8723 L3432.41 72.617 L3450.89 71.7998 L3469.37 71.8944 L3487.85 73.5818 L3506.33 71.85 L3524.81 71.9953 L3543.28 73.0354 L3561.76 71.7982 L3580.24 71.8809 L3598.72 73.9237 L3617.2 71.7777 L3635.68 71.933 L3654.16 73.3473 L3672.64 71.8204 L3691.12 71.9895 L3709.6 72.8145 L3728.08 71.7964 L3746.56 71.8664 L3765.04 73.7758 L3783.52 71.8007 L3802 71.9847 L3820.47 73.1862 L3838.95 71.7697 L3857.43 71.873 L3875.91 72.6171 L3894.39 71.7998 L3912.87 71.8947 L3931.35 73.584 L3949.83 71.8547 L3968.31 71.9955 L3986.79 73.0375 L4005.27 71.7978 L4023.75 71.8814 L4042.23 73.9257 L4060.71 71.7785 L4079.18 71.9325 L4097.66 73.3478 L4116.14 71.8204 L4134.62 71.9904 L4153.1 72.8158 L4171.58 71.7969 L4190.06 71.8665 L4208.54 73.7771 L4227.02 71.8006 L4245.5 71.9851 L4263.98 73.1877 L4282.46 71.7696 L4300.94 71.8726 L4319.42 72.6176 L4337.9 71.7996 L4356.37 71.8952 L4374.85 73.5857 L4393.33 71.849 L4411.81 71.9964 L4430.29 73.0379 L4448.77 71.7984 L4467.25 71.8811 L4485.73 73.9286 L4504.21 71.7782 L4522.69 71.9337 L4541.17 73.3495 L4559.65 71.8197 L4578.13 71.9915 L4596.61 72.8152 L4615.09 71.7961 L4633.56 71.8671 L4633.56 71.0696 L4615.09 70.9779 L4596.61 71.9769 L4578.13 71.1712 L4559.65 70.9893 L4541.17 72.5232 L4522.69 71.1165 L4504.21 70.9739 L4485.73 73.0836 L4467.25 71.063 L4448.77 70.9809 L4430.29 72.1788 L4411.81 71.1398 L4393.33 70.9659 L4374.85 72.682 L4356.37 71.0758 L4337.9 70.9685 L4319.42 71.7833 L4300.94 71.0328 L4282.46 70.9636 L4263.98 72.3476 L4245.5 71.1209 L4227.02 70.9704 L4208.54 72.8951 L4190.06 71.069 L4171.58 70.978 L4153.1 71.9766 L4134.62 71.1704 L4116.14 70.9893 L4097.66 72.5212 L4079.18 71.116 L4060.71 70.9737 L4042.23 73.0814 L4023.75 71.0629 L4005.27 70.9807 L3986.79 72.1784 L3968.31 71.139 L3949.83 70.9661 L3931.35 72.6804 L3912.87 71.0753 L3894.39 70.9683 L3875.91 71.7829 L3857.43 71.0325 L3838.95 70.9634 L3820.47 72.3463 L3802 71.1203 L3783.52 70.9707 L3765.04 72.893 L3746.56 71.068 L3728.08 70.9779 L3709.6 71.9759 L3691.12 71.1694 L3672.64 70.9892 L3654.16 72.5202 L3635.68 71.1157 L3617.2 70.9737 L3598.72 73.079 L3580.24 71.0626 L3561.76 70.9808 L3543.28 72.1769 L3524.81 71.1378 L3506.33 70.9657 L3487.85 72.6782 L3469.37 71.075 L3450.89 70.9683 L3432.41 71.7829 L3413.93 71.0325 L3395.45 70.9636 L3376.97 72.3456 L3358.49 71.1197 L3340.01 70.9705 L3321.53 72.8911 L3303.05 71.0684 L3284.57 70.9778 L3266.1 71.9753 L3247.62 71.1685 L3229.14 70.9892 L3210.66 72.5194 L3192.18 71.1151 L3173.7 70.9738 L3155.22 73.0768 L3136.74 71.0625 L3118.26 70.9807 L3099.78 72.1766 L3081.3 71.137 L3062.82 70.9659 L3044.34 72.6771 L3025.86 71.0746 L3007.38 70.9683 L2988.91 71.7823 L2970.43 71.0323 L2951.95 70.9635 L2933.47 72.3445 L2914.99 71.1192 L2896.51 70.9708 L2878.03 72.8891 L2859.55 71.0676 L2841.07 70.9779 L2822.59 71.9746 L2804.11 71.1679 L2785.63 70.9891 L2767.15 72.5175 L2748.67 71.1145 L2730.19 70.9738 L2711.72 73.0741 L2693.24 71.0621 L2674.76 70.9809 L2656.28 72.1755 L2637.8 71.1362 L2619.32 70.9656 L2600.84 72.6755 L2582.36 71.0743 L2563.88 70.9681 L2545.4 71.782 L2526.92 71.0322 L2508.44 70.9634 L2489.96 72.3434 L2471.48 71.1185 L2453.01 70.9702 L2434.53 72.8871 L2416.05 71.067 L2397.57 70.978 L2379.09 71.9743 L2360.61 71.1668 L2342.13 70.9892 L2323.65 72.5163 L2305.17 71.1141 L2286.69 70.9734 L2268.21 73.0722 L2249.73 71.0622 L2231.25 70.9808 L2212.77 72.1745 L2194.29 71.136 L2175.82 70.9662 L2157.34 72.6742 L2138.86 71.0738 L2120.38 70.9677 L2101.9 71.7813 L2083.42 71.0319 L2064.94 70.9636 L2046.46 72.3423 L2027.98 71.118 L2009.5 70.9707 L1991.02 72.8853 L1972.54 71.0671 L1954.06 70.9778 L1935.58 71.9738 L1917.11 71.1661 L1898.63 70.989 L1880.15 72.5155 L1861.67 71.1137 L1843.19 70.9735 L1824.71 73.0696 L1806.23 71.0614 L1787.75 70.9811 L1769.27 72.1747 L1750.79 71.1344 L1732.31 70.9651 L1713.83 72.6723 L1695.35 71.0738 L1676.87 70.9682 L1658.39 71.781 L1639.92 71.0318 L1621.44 70.9635 L1602.96 72.3412 L1584.48 71.1172 L1566 70.9699 L1547.52 72.8837 L1529.04 71.0674 L1510.56 70.9778 L1492.08 71.9732 L1473.6 71.165 L1455.12 70.9893 L1436.64 72.5137 L1418.16 71.1133 L1399.68 70.9724 L1381.2 73.0671 L1362.73 71.0618 L1344.25 70.9802 L1325.77 72.1732 L1307.29 71.1349 L1288.81 70.9676 L1270.33 72.6714 L1251.85 71.0727 L1233.37 70.9666 L1214.89 71.7801 L1196.41 71.0324 L1177.93 70.9648 L1159.45 72.3409 L1140.97 71.1171 L1122.49 70.9702 L1104.02 72.8807 L1085.54 71.0659 L1067.06 70.978 L1048.58 71.972 L1030.1 71.1645 L1011.62 70.9874 L993.139 72.5113 L974.66 71.1116 L956.181 70.9667 L937.701 73.0664 L919.222 71.0597 L900.743 70.9861 L882.263 72.1776 L863.784 71.1431 L845.305 70.9659 L826.826 72.6656 L808.346 71.0797 L789.867 70.9674 L771.388 71.7708 L752.908 71.016 L734.429 70.9433 L715.95 72.3102 L697.47 71.074 L678.991 70.9171 L660.512 72.8899  Z" fill="#525252" fill-rule="evenodd" fill-opacity="0.5"/>
<polyline clip-path="url(#clip772)" style="stroke:#525252; stroke-linecap:round; stroke-linejoin:round; stroke-width:0; stroke-opacity:1; fill:none" points="660.512,73.3699 678.991,71.4322 697.47,71.586 715.95,72.8154 734.429,71.4513 752.908,71.5228 771.388,72.2802 789.867,71.4702 808.346,71.5808 826.826,73.1694 845.305,71.4717 863.784,71.6383 882.263,72.6691 900.743,71.4755 919.222,71.5502 937.701,73.556 956.181,71.4608 974.66,71.5944 993.139,72.9945 1011.62,71.4697 1030.1,71.6479 1048.58,72.4605 1067.06,71.4708 1085.54,71.5614 1104.02,73.3791 1122.49,71.4623 1140.97,71.6095 1159.45,72.8339 1177.93,71.4662 1196.41,71.5341 1214.89,72.2886 1233.37,71.4706 1251.85,71.5773 1270.33,73.1726 1288.81,71.4737 1307.29,71.6377 1325.77,72.6659 1344.25,71.4708 1362.73,71.5485 1381.2,73.5566 1399.68,71.4606 1418.16,71.5962 1436.64,72.9973 1455.12,71.4698 1473.6,71.6484 1492.08,72.4611 1510.56,71.4711 1529.04,71.5621 1547.52,73.3812 1566,71.4631 1584.48,71.6104 1602.96,72.8341 1621.44,71.466 1639.92,71.5345 1658.39,72.2893 1676.87,71.4721 1695.35,71.5785 1713.83,73.1735 1732.31,71.4713 1750.79,71.638 1769.27,72.6674 1787.75,71.4714 1806.23,71.5481 1824.71,73.559 1843.19,71.4609 1861.67,71.5967 1880.15,72.998 1898.63,71.4696 1917.11,71.6494 1935.58,72.4617 1954.06,71.4712 1972.54,71.5624 1991.02,73.3829 2009.5,71.4633 2027.98,71.6112 2046.46,72.8351 2064.94,71.466 2083.42,71.5345 2101.9,72.2896 2120.38,71.4716 2138.86,71.5787 2157.34,73.1753 2175.82,71.4724 2194.29,71.639 2212.77,72.6671 2231.25,71.4711 2249.73,71.5489 2268.21,73.5614 2286.69,71.4607 2305.17,71.5971 2323.65,72.9998 2342.13,71.4697 2360.61,71.6502 2379.09,72.4622 2397.57,71.4713 2416.05,71.5623 2434.53,73.3848 2453.01,71.4632 2471.48,71.6117 2489.96,72.8362 2508.44,71.4661 2526.92,71.5348 2545.4,72.2904 2563.88,71.472 2582.36,71.5791 2600.84,73.1767 2619.32,71.4718 2637.8,71.6395 2656.28,72.6682 2674.76,71.4712 2693.24,71.5488 2711.72,73.5638 2730.19,71.461 2748.67,71.5975 2767.15,73.0008 2785.63,71.4696 2804.11,71.6511 2822.59,72.4625 2841.07,71.4712 2859.55,71.5629 2878.03,73.3868 2896.51,71.4636 2914.99,71.6123 2933.47,72.8373 2951.95,71.466 2970.43,71.5349 2988.91,72.2906 3007.38,71.4721 3025.86,71.5794 3044.34,73.1783 3062.82,71.4721 3081.3,71.6404 3099.78,72.6693 3118.26,71.471 3136.74,71.5491 3155.22,73.5662 3173.7,71.461 3192.18,71.5981 3210.66,73.0025 3229.14,71.4698 3247.62,71.6518 3266.1,72.4632 3284.57,71.4711 3303.05,71.5632 3321.53,73.3888 3340.01,71.4635 3358.49,71.6129 3376.97,72.8384 3395.45,71.4662 3413.93,71.5351 3432.41,72.2912 3450.89,71.4722 3469.37,71.5798 3487.85,73.1794 3506.33,71.4719 3524.81,71.6409 3543.28,72.6696 3561.76,71.4711 3580.24,71.5493 3598.72,73.5685 3617.2,71.4609 3635.68,71.5987 3654.16,73.0034 3672.64,71.4698 3691.12,71.6527 3709.6,72.4638 3728.08,71.4712 3746.56,71.5635 3765.04,73.3908 3783.52,71.4635 3802,71.6135 3820.47,72.8391 3838.95,71.4661 3857.43,71.5352 3875.91,72.2912 3894.39,71.4722 3912.87,71.5801 3931.35,73.1816 3949.83,71.4722 3968.31,71.6418 3986.79,72.6711 4005.27,71.4712 4023.75,71.5496 4042.23,73.5709 4060.71,71.4609 4079.18,71.599 4097.66,73.0046 4116.14,71.4698 4134.62,71.6536 4153.1,72.4646 4171.58,71.4715 4190.06,71.5635 4208.54,73.3928 4227.02,71.4632 4245.5,71.614 4263.98,72.8406 4282.46,71.4661 4300.94,71.5354 4319.42,72.2916 4337.9,71.4723 4356.37,71.5806 4374.85,73.1832 4393.33,71.4721 4411.81,71.6424 4430.29,72.6714 4448.77,71.4712 4467.25,71.5497 4485.73,73.5733 4504.21,71.4611 4522.69,71.5995 4541.17,73.006 4559.65,71.4699 4578.13,71.6545 4596.61,72.4648 4615.09,71.4713 4633.56,71.5644 "/>
<path clip-path="url(#clip772)" d="M660.512 73.4755 L678.991 71.5401 L697.47 71.727 L715.95 72.9569 L734.429 71.599 L752.908 71.6582 L771.388 72.4333 L789.867 71.6337 L808.346 71.7776 L826.826 73.3791 L845.305 71.696 L863.784 71.8552 L882.263 72.8671 L900.743 71.6693 L919.222 71.7373 L937.701 73.7313 L956.181 71.6179 L974.66 71.8049 L993.139 73.1864 L1011.62 71.6809 L1030.1 71.845 L1048.58 72.6366 L1067.06 71.6663 L1085.54 71.7384 L1104.02 73.5614 L1122.49 71.6765 L1140.97 71.7965 L1159.45 73.0529 L1177.93 71.6449 L1196.41 71.7221 L1214.89 72.4588 L1233.37 71.6421 L1251.85 71.7816 L1270.33 73.4046 L1288.81 71.6944 L1307.29 71.8718 L1325.77 72.8554 L1344.25 71.6561 L1362.73 71.7325 L1381.2 73.7227 L1399.68 71.6228 L1418.16 71.8093 L1436.64 73.1911 L1455.12 71.6809 L1473.6 71.8415 L1492.08 72.6306 L1510.56 71.6592 L1529.04 71.7411 L1547.52 73.5583 L1566 71.6834 L1584.48 71.7988 L1602.96 73.0482 L1621.44 71.6457 L1639.92 71.7241 L1658.39 72.4611 L1676.87 71.6492 L1695.35 71.7729 L1713.83 73.3891 L1732.31 71.6918 L1750.79 71.8623 L1769.27 72.8636 L1787.75 71.6565 L1806.23 71.7326 L1824.71 73.7222 L1843.19 71.6241 L1861.67 71.8092 L1880.15 73.1883 L1898.63 71.6808 L1917.11 71.8419 L1935.58 72.6399 L1954.06 71.6588 L1972.54 71.7436 L1991.02 73.5602 L2009.5 71.6839 L2027.98 71.8006 L2046.46 73.0514 L2064.94 71.6457 L2083.42 71.7241 L2101.9 72.4599 L2120.38 71.6464 L2138.86 71.773 L2157.34 73.4018 L2175.82 71.6959 L2194.29 71.8626 L2212.77 72.8556 L2231.25 71.6564 L2249.73 71.733 L2268.21 73.7242 L2286.69 71.6245 L2305.17 71.8102 L2323.65 73.1939 L2342.13 71.6811 L2360.61 71.8435 L2379.09 72.6405 L2397.57 71.659 L2416.05 71.742 L2434.53 73.5621 L2453.01 71.6837 L2471.48 71.8008 L2489.96 73.0505 L2508.44 71.6456 L2526.92 71.7242 L2545.4 72.4621 L2563.88 71.6488 L2582.36 71.7737 L2600.84 73.4028 L2619.32 71.6944 L2637.8 71.8631 L2656.28 72.8644 L2674.76 71.6563 L2693.24 71.7318 L2711.72 73.7264 L2730.19 71.6249 L2748.67 71.8112 L2767.15 73.195 L2785.63 71.6809 L2804.11 71.8442 L2822.59 72.6407 L2841.07 71.659 L2859.55 71.7426 L2878.03 73.5641 L2896.51 71.6843 L2914.99 71.8018 L2933.47 73.0514 L2951.95 71.6457 L2970.43 71.7246 L2988.91 72.4609 L3007.38 71.6481 L3025.86 71.7738 L3044.34 73.4047 L3062.82 71.6937 L3081.3 71.8638 L3099.78 72.8583 L3118.26 71.6564 L3136.74 71.7325 L3155.22 73.7289 L3173.7 71.6243 L3192.18 71.8109 L3210.66 73.1967 L3229.14 71.681 L3247.62 71.8437 L3266.1 72.6415 L3284.57 71.6593 L3303.05 71.7414 L3321.53 73.566 L3340.01 71.6841 L3358.49 71.8019 L3376.97 73.0525 L3395.45 71.6458 L3413.93 71.7247 L3432.41 72.4618 L3450.89 71.6495 L3469.37 71.7741 L3487.85 73.4055 L3506.33 71.6937 L3524.81 71.8642 L3543.28 72.8653 L3561.76 71.6564 L3580.24 71.7308 L3598.72 73.7311 L3617.2 71.6249 L3635.68 71.8125 L3654.16 73.1974 L3672.64 71.6813 L3691.12 71.8448 L3709.6 72.6422 L3728.08 71.6592 L3746.56 71.7433 L3765.04 73.5679 L3783.52 71.6842 L3802 71.803 L3820.47 73.0536 L3838.95 71.6458 L3857.43 71.7247 L3875.91 72.4614 L3894.39 71.6486 L3912.87 71.7743 L3931.35 73.4077 L3949.83 71.694 L3968.31 71.8649 L3986.79 72.8651 L4005.27 71.6566 L4023.75 71.7325 L4042.23 73.7336 L4060.71 71.6249 L4079.18 71.8115 L4097.66 73.1985 L4116.14 71.6811 L4134.62 71.8461 L4153.1 72.6429 L4171.58 71.659 L4190.06 71.7433 L4208.54 73.57 L4227.02 71.6839 L4245.5 71.8032 L4263.98 73.0545 L4282.46 71.6458 L4300.94 71.7251 L4319.42 72.4619 L4337.9 71.6493 L4356.37 71.7751 L4374.85 73.4097 L4393.33 71.6942 L4411.81 71.8656 L4430.29 72.8668 L4448.77 71.656 L4467.25 71.7339 L4485.73 73.7359 L4504.21 71.6249 L4522.69 71.8125 L4541.17 73.2001 L4559.65 71.6813 L4578.13 71.8483 L4596.61 72.643 L4615.09 71.6587 L4633.56 71.7442 L4633.56 71.1065 L4615.09 71.0149 L4596.61 72.009 L4578.13 71.2043 L4559.65 71.0152 L4541.17 72.5506 L4522.69 71.1501 L4504.21 71.0055 L4485.73 73.1238 L4467.25 71.0915 L4448.77 71.0188 L4430.29 72.2145 L4411.81 71.1814 L4393.33 71.0083 L4374.85 72.7107 L4356.37 71.1041 L4337.9 71.0026 L4319.42 71.8254 L4300.94 71.0671 L4282.46 70.9978 L4263.98 72.3751 L4245.5 71.1516 L4227.02 71.0077 L4208.54 72.9335 L4190.06 71.1044 L4171.58 71.0153 L4153.1 72.0094 L4134.62 71.2033 L4116.14 71.0148 L4097.66 72.5495 L4079.18 71.1496 L4060.71 71.0052 L4042.23 73.1214 L4023.75 71.0915 L4005.27 71.0188 L3986.79 72.2142 L3968.31 71.1819 L3949.83 71.0085 L3931.35 72.7095 L3912.87 71.1034 L3894.39 71.0021 L3875.91 71.8241 L3857.43 71.0673 L3838.95 70.9976 L3820.47 72.3736 L3802 71.1494 L3783.52 71.008 L3765.04 72.9315 L3746.56 71.1043 L3728.08 71.0142 L3709.6 72.0079 L3691.12 71.2025 L3672.64 71.0155 L3654.16 72.5484 L3635.68 71.1492 L3617.2 71.0053 L3598.72 73.1191 L3580.24 71.0912 L3561.76 71.0187 L3543.28 72.2126 L3524.81 71.1799 L3506.33 71.0084 L3487.85 72.7067 L3469.37 71.1031 L3450.89 71.002 L3432.41 71.8251 L3413.93 71.0669 L3395.45 70.998 L3376.97 72.3726 L3358.49 71.1488 L3340.01 71.0081 L3321.53 72.9295 L3303.05 71.1041 L3284.57 71.0147 L3266.1 72.0074 L3247.62 71.2016 L3229.14 71.0148 L3210.66 72.5478 L3192.18 71.1486 L3173.7 71.0053 L3155.22 73.1168 L3136.74 71.091 L3118.26 71.0187 L3099.78 72.2126 L3081.3 71.1805 L3062.82 71.0084 L3044.34 72.7058 L3025.86 71.103 L3007.38 71.002 L2988.91 71.8243 L2970.43 71.0666 L2951.95 70.9978 L2933.47 72.3708 L2914.99 71.1487 L2896.51 71.0081 L2878.03 72.9275 L2859.55 71.1033 L2841.07 71.0142 L2822.59 72.0067 L2804.11 71.2009 L2785.63 71.0156 L2767.15 72.5452 L2748.67 71.1482 L2730.19 71.0054 L2711.72 73.1143 L2693.24 71.0906 L2674.76 71.0188 L2656.28 72.211 L2637.8 71.1784 L2619.32 71.008 L2600.84 72.7046 L2582.36 71.1027 L2563.88 71.002 L2545.4 71.8235 L2526.92 71.0669 L2508.44 70.9976 L2489.96 72.3707 L2471.48 71.1484 L2453.01 71.0077 L2434.53 72.9254 L2416.05 71.1033 L2397.57 71.0143 L2379.09 72.0063 L2360.61 71.1999 L2342.13 71.0148 L2323.65 72.5449 L2305.17 71.1472 L2286.69 71.0051 L2268.21 73.1117 L2249.73 71.0908 L2231.25 71.0188 L2212.77 72.2105 L2194.29 71.179 L2175.82 71.0084 L2157.34 72.7028 L2138.86 71.1019 L2120.38 71.0016 L2101.9 71.8233 L2083.42 71.0662 L2064.94 70.9978 L2046.46 72.3696 L2027.98 71.1474 L2009.5 71.0078 L1991.02 72.9235 L1972.54 71.1029 L1954.06 71.0141 L1935.58 72.0065 L1917.11 71.1992 L1898.63 71.0166 L1880.15 72.5424 L1861.67 71.1476 L1843.19 71.0052 L1824.71 73.1095 L1806.23 71.0899 L1787.75 71.0188 L1769.27 72.2099 L1750.79 71.1768 L1732.31 71.0078 L1713.83 72.7014 L1695.35 71.1022 L1676.87 71.0021 L1658.39 71.8222 L1639.92 71.0662 L1621.44 70.9975 L1602.96 72.366 L1584.48 71.1475 L1566 71.0076 L1547.52 72.9219 L1529.04 71.1035 L1510.56 71.0147 L1492.08 72.0042 L1473.6 71.1983 L1455.12 71.0149 L1436.64 72.5428 L1418.16 71.1446 L1399.68 71.0059 L1381.2 73.1072 L1362.73 71.0891 L1344.25 71.0187 L1325.77 72.2096 L1307.29 71.1774 L1288.81 71.0085 L1270.33 72.6993 L1251.85 71.1016 L1233.37 71.0007 L1214.89 71.8236 L1196.41 71.0655 L1177.93 70.9977 L1159.45 72.3669 L1140.97 71.147 L1122.49 71.0065 L1104.02 72.92 L1085.54 71.1036 L1067.06 71.0142 L1048.58 72.0056 L1030.1 71.1947 L1011.62 71.0167 L993.139 72.5382 L974.66 71.1417 L956.181 71.005 L937.701 73.1062 L919.222 71.0937 L900.743 71.0223 L882.263 72.2126 L863.784 71.1809 L845.305 71.0109 L826.826 72.6931 L808.346 71.1078 L789.867 71.0028 L771.388 71.8151 L752.908 71.0549 L734.429 70.9774 L715.95 72.3405 L697.47 71.1063 L678.991 70.9517 L660.512 72.9152  Z" fill="#000000" fill-rule="evenodd" fill-opacity="0.5"/>
<polyline clip-path="url(#clip772)" style="stroke:#000000; stroke-linecap:round; stroke-linejoin:round; stroke-width:0; stroke-opacity:1; fill:none" points="660.512,73.3699 678.991,71.4322 697.47,71.586 715.95,72.8154 734.429,71.4513 752.908,71.5228 771.388,72.2802 789.867,71.4702 808.346,71.5808 826.826,73.1694 845.305,71.4717 863.784,71.6383 882.263,72.6691 900.743,71.4755 919.222,71.5502 937.701,73.556 956.181,71.4608 974.66,71.5944 993.139,72.9945 1011.62,71.4697 1030.1,71.6479 1048.58,72.4605 1067.06,71.4708 1085.54,71.5614 1104.02,73.3791 1122.49,71.4623 1140.97,71.6095 1159.45,72.8339 1177.93,71.4662 1196.41,71.5341 1214.89,72.2886 1233.37,71.4706 1251.85,71.5773 1270.33,73.1726 1288.81,71.4737 1307.29,71.6377 1325.77,72.6659 1344.25,71.4708 1362.73,71.5485 1381.2,73.5566 1399.68,71.4606 1418.16,71.5962 1436.64,72.9973 1455.12,71.4698 1473.6,71.6484 1492.08,72.4611 1510.56,71.4711 1529.04,71.5621 1547.52,73.3812 1566,71.4631 1584.48,71.6104 1602.96,72.8341 1621.44,71.466 1639.92,71.5345 1658.39,72.2893 1676.87,71.4721 1695.35,71.5785 1713.83,73.1735 1732.31,71.4713 1750.79,71.638 1769.27,72.6674 1787.75,71.4714 1806.23,71.5481 1824.71,73.559 1843.19,71.4609 1861.67,71.5967 1880.15,72.998 1898.63,71.4696 1917.11,71.6494 1935.58,72.4617 1954.06,71.4712 1972.54,71.5624 1991.02,73.3829 2009.5,71.4633 2027.98,71.6112 2046.46,72.8351 2064.94,71.466 2083.42,71.5345 2101.9,72.2896 2120.38,71.4716 2138.86,71.5787 2157.34,73.1753 2175.82,71.4724 2194.29,71.639 2212.77,72.6671 2231.25,71.4711 2249.73,71.5489 2268.21,73.5614 2286.69,71.4607 2305.17,71.5971 2323.65,72.9998 2342.13,71.4697 2360.61,71.6502 2379.09,72.4622 2397.57,71.4713 2416.05,71.5623 2434.53,73.3848 2453.01,71.4632 2471.48,71.6117 2489.96,72.8362 2508.44,71.4661 2526.92,71.5348 2545.4,72.2904 2563.88,71.472 2582.36,71.5791 2600.84,73.1767 2619.32,71.4718 2637.8,71.6395 2656.28,72.6682 2674.76,71.4712 2693.24,71.5488 2711.72,73.5638 2730.19,71.461 2748.67,71.5975 2767.15,73.0008 2785.63,71.4696 2804.11,71.6511 2822.59,72.4625 2841.07,71.4712 2859.55,71.5629 2878.03,73.3868 2896.51,71.4636 2914.99,71.6123 2933.47,72.8373 2951.95,71.466 2970.43,71.5349 2988.91,72.2906 3007.38,71.4721 3025.86,71.5794 3044.34,73.1783 3062.82,71.4721 3081.3,71.6404 3099.78,72.6693 3118.26,71.471 3136.74,71.5491 3155.22,73.5662 3173.7,71.461 3192.18,71.5981 3210.66,73.0025 3229.14,71.4698 3247.62,71.6518 3266.1,72.4632 3284.57,71.4711 3303.05,71.5632 3321.53,73.3888 3340.01,71.4635 3358.49,71.6129 3376.97,72.8384 3395.45,71.4662 3413.93,71.5351 3432.41,72.2912 3450.89,71.4722 3469.37,71.5798 3487.85,73.1794 3506.33,71.4719 3524.81,71.6409 3543.28,72.6696 3561.76,71.4711 3580.24,71.5493 3598.72,73.5685 3617.2,71.4609 3635.68,71.5987 3654.16,73.0034 3672.64,71.4698 3691.12,71.6527 3709.6,72.4638 3728.08,71.4712 3746.56,71.5635 3765.04,73.3908 3783.52,71.4635 3802,71.6135 3820.47,72.8391 3838.95,71.4661 3857.43,71.5352 3875.91,72.2912 3894.39,71.4722 3912.87,71.5801 3931.35,73.1816 3949.83,71.4722 3968.31,71.6418 3986.79,72.6711 4005.27,71.4712 4023.75,71.5496 4042.23,73.5709 4060.71,71.4609 4079.18,71.599 4097.66,73.0046 4116.14,71.4698 4134.62,71.6536 4153.1,72.4646 4171.58,71.4715 4190.06,71.5635 4208.54,73.3928 4227.02,71.4632 4245.5,71.614 4263.98,72.8406 4282.46,71.4661 4300.94,71.5354 4319.42,72.2916 4337.9,71.4723 4356.37,71.5806 4374.85,73.1832 4393.33,71.4721 4411.81,71.6424 4430.29,72.6714 4448.77,71.4712 4467.25,71.5497 4485.73,73.5733 4504.21,71.4611 4522.69,71.5995 4541.17,73.006 4559.65,71.4699 4578.13,71.6545 4596.61,72.4648 4615.09,71.4713 4633.56,71.5644 "/>
<path clip-path="url(#clip770)" d="M3871.96 853.161 L4612.37 853.161 L4612.37 334.761 L3871.96 334.761  Z" fill="#ffffff" fill-rule="evenodd" fill-opacity="1"/>
<polyline clip-path="url(#clip770)" style="stroke:#000000; stroke-linecap:round; stroke-linejoin:round; stroke-width:4; stroke-opacity:1; fill:none" points="3871.96,853.161 4612.37,853.161 4612.37,334.761 3871.96,334.761 3871.96,853.161 "/>
<polyline clip-path="url(#clip770)" style="stroke:#c8c8c8; stroke-linecap:round; stroke-linejoin:round; stroke-width:2; stroke-opacity:1; fill:none" points="3918.76,464.361 4199.52,464.361 "/>
<path clip-path="url(#clip770)" d="M4247.99 497.723 L4267.09 497.723 L4267.09 431.809 L4246.31 435.976 L4246.31 425.328 L4266.97 421.161 L4278.66 421.161 L4278.66 497.723 L4297.76 497.723 L4297.76 507.561 L4247.99 507.561 L4247.99 497.723 Z" fill="#000000" fill-rule="nonzero" fill-opacity="1" /><path clip-path="url(#clip770)" d="M4346.37 428.858 Q4337.34 428.858 4332.77 437.77 Q4328.26 446.624 4328.26 464.448 Q4328.26 482.214 4332.77 491.126 Q4337.34 499.98 4346.37 499.98 Q4355.45 499.98 4359.97 491.126 Q4364.54 482.214 4364.54 464.448 Q4364.54 446.624 4359.97 437.77 Q4355.45 428.858 4346.37 428.858 M4346.37 419.599 Q4360.89 419.599 4368.53 431.115 Q4376.23 442.573 4376.23 464.448 Q4376.23 486.265 4368.53 497.781 Q4360.89 509.239 4346.37 509.239 Q4331.84 509.239 4324.15 497.781 Q4316.51 486.265 4316.51 464.448 Q4316.51 442.573 4324.15 431.115 Q4331.84 419.599 4346.37 419.599 Z" fill="#000000" fill-rule="nonzero" fill-opacity="1" /><path clip-path="url(#clip770)" d="M4421.77 428.858 Q4412.75 428.858 4408.17 437.77 Q4403.66 446.624 4403.66 464.448 Q4403.66 482.214 4408.17 491.126 Q4412.75 499.98 4421.77 499.98 Q4430.86 499.98 4435.37 491.126 Q4439.95 482.214 4439.95 464.448 Q4439.95 446.624 4435.37 437.77 Q4430.86 428.858 4421.77 428.858 M4421.77 419.599 Q4436.3 419.599 4443.94 431.115 Q4451.63 442.573 4451.63 464.448 Q4451.63 486.265 4443.94 497.781 Q4436.3 509.239 4421.77 509.239 Q4407.25 509.239 4399.55 497.781 Q4391.91 486.265 4391.91 464.448 Q4391.91 442.573 4399.55 431.115 Q4407.25 419.599 4421.77 419.599 Z" fill="#000000" fill-rule="nonzero" fill-opacity="1" /><path clip-path="url(#clip770)" d="M4545.67 469.541 Q4540.64 469.541 4537.75 473.823 Q4534.91 478.105 4534.91 485.744 Q4534.91 493.267 4537.75 497.608 Q4540.64 501.89 4545.67 501.89 Q4550.59 501.89 4553.43 497.608 Q4556.32 493.267 4556.32 485.744 Q4556.32 478.163 4553.43 473.881 Q4550.59 469.541 4545.67 469.541 M4545.67 462.191 Q4554.82 462.191 4560.2 468.557 Q4565.58 474.923 4565.58 485.744 Q4565.58 496.566 4560.14 502.932 Q4554.76 509.239 4545.67 509.239 Q4536.41 509.239 4531.03 502.932 Q4525.65 496.566 4525.65 485.744 Q4525.65 474.865 4531.03 468.557 Q4536.47 462.191 4545.67 462.191 M4485.95 426.948 Q4480.97 426.948 4478.08 431.289 Q4475.25 435.571 4475.25 443.094 Q4475.25 450.733 4478.08 455.015 Q4480.92 459.298 4485.95 459.298 Q4490.99 459.298 4493.82 455.015 Q4496.72 450.733 4496.72 443.094 Q4496.72 435.629 4493.82 431.289 Q4490.93 426.948 4485.95 426.948 M4538.21 419.599 L4547.47 419.599 L4493.42 509.239 L4484.16 509.239 L4538.21 419.599 M4485.95 419.599 Q4495.1 419.599 4500.54 425.964 Q4505.97 432.272 4505.97 443.094 Q4505.97 454.031 4500.54 460.339 Q4495.15 466.647 4485.95 466.647 Q4476.75 466.647 4471.37 460.339 Q4466.04 453.974 4466.04 443.094 Q4466.04 432.33 4471.43 425.964 Q4476.81 419.599 4485.95 419.599 Z" fill="#000000" fill-rule="nonzero" fill-opacity="1" /><polyline clip-path="url(#clip770)" style="stroke:#525252; stroke-linecap:round; stroke-linejoin:round; stroke-width:2; stroke-opacity:1; fill:none" points="3918.76,593.961 4199.52,593.961 "/>
<path clip-path="url(#clip770)" d="M4251.87 635.367 L4251.87 624.719 Q4256.27 626.803 4260.78 627.902 Q4265.29 629.002 4269.63 629.002 Q4281.21 629.002 4287.28 621.247 Q4293.42 613.435 4294.29 597.578 Q4290.93 602.555 4285.78 605.217 Q4280.63 607.879 4274.38 607.879 Q4261.42 607.879 4253.83 600.067 Q4246.31 592.196 4246.31 578.597 Q4246.31 565.287 4254.18 557.243 Q4262.05 549.199 4275.13 549.199 Q4290.12 549.199 4297.99 560.715 Q4305.92 572.173 4305.92 594.048 Q4305.92 614.476 4296.2 626.687 Q4286.53 638.839 4270.15 638.839 Q4265.76 638.839 4261.24 637.971 Q4256.73 637.103 4251.87 635.367 M4275.13 598.736 Q4283 598.736 4287.57 593.354 Q4292.2 587.972 4292.2 578.597 Q4292.2 569.28 4287.57 563.898 Q4283 558.458 4275.13 558.458 Q4267.26 558.458 4262.63 563.898 Q4258.06 569.28 4258.06 578.597 Q4258.06 587.972 4262.63 593.354 Q4267.26 598.736 4275.13 598.736 Z" fill="#000000" fill-rule="nonzero" fill-opacity="1" /><path clip-path="url(#clip770)" d="M4351.92 558.458 Q4342.9 558.458 4338.33 567.37 Q4333.81 576.224 4333.81 594.048 Q4333.81 611.814 4338.33 620.726 Q4342.9 629.58 4351.92 629.58 Q4361.01 629.58 4365.52 620.726 Q4370.1 611.814 4370.1 594.048 Q4370.1 576.224 4365.52 567.37 Q4361.01 558.458 4351.92 558.458 M4351.92 549.199 Q4366.45 549.199 4374.09 560.715 Q4381.79 572.173 4381.79 594.048 Q4381.79 615.865 4374.09 627.381 Q4366.45 638.839 4351.92 638.839 Q4337.4 638.839 4329.7 627.381 Q4322.06 615.865 4322.06 594.048 Q4322.06 572.173 4329.7 560.715 Q4337.4 549.199 4351.92 549.199 Z" fill="#000000" fill-rule="nonzero" fill-opacity="1" /><path clip-path="url(#clip770)" d="M4475.82 599.141 Q4470.79 599.141 4467.9 603.423 Q4465.06 607.705 4465.06 615.344 Q4465.06 622.867 4467.9 627.208 Q4470.79 631.49 4475.82 631.49 Q4480.74 631.49 4483.58 627.208 Q4486.47 622.867 4486.47 615.344 Q4486.47 607.763 4483.58 603.481 Q4480.74 599.141 4475.82 599.141 M4475.82 591.791 Q4484.97 591.791 4490.35 598.157 Q4495.73 604.523 4495.73 615.344 Q4495.73 626.166 4490.29 632.532 Q4484.91 638.839 4475.82 638.839 Q4466.57 638.839 4461.18 632.532 Q4455.8 626.166 4455.8 615.344 Q4455.8 604.465 4461.18 598.157 Q4466.62 591.791 4475.82 591.791 M4416.1 556.548 Q4411.13 556.548 4408.23 560.889 Q4405.4 565.171 4405.4 572.694 Q4405.4 580.333 4408.23 584.615 Q4411.07 588.898 4416.1 588.898 Q4421.14 588.898 4423.97 584.615 Q4426.87 580.333 4426.87 572.694 Q4426.87 565.229 4423.97 560.889 Q4421.08 556.548 4416.1 556.548 M4468.36 549.199 L4477.62 549.199 L4423.57 638.839 L4414.31 638.839 L4468.36 549.199 M4416.1 549.199 Q4425.25 549.199 4430.69 555.564 Q4436.13 561.872 4436.13 572.694 Q4436.13 583.631 4430.69 589.939 Q4425.3 596.247 4416.1 596.247 Q4406.9 596.247 4401.52 589.939 Q4396.2 583.574 4396.2 572.694 Q4396.2 561.93 4401.58 555.564 Q4406.96 549.199 4416.1 549.199 Z" fill="#000000" fill-rule="nonzero" fill-opacity="1" /><polyline clip-path="url(#clip770)" style="stroke:#000000; stroke-linecap:round; stroke-linejoin:round; stroke-width:2; stroke-opacity:1; fill:none" points="3918.76,723.561 4199.52,723.561 "/>
<path clip-path="url(#clip770)" d="M4275.94 725.731 Q4267.61 725.731 4262.8 730.187 Q4258.06 734.643 4258.06 742.456 Q4258.06 750.268 4262.8 754.724 Q4267.61 759.18 4275.94 759.18 Q4284.27 759.18 4289.08 754.724 Q4293.88 750.21 4293.88 742.456 Q4293.88 734.643 4289.08 730.187 Q4284.33 725.731 4275.94 725.731 M4264.25 720.755 Q4256.73 718.903 4252.5 713.752 Q4248.34 708.602 4248.34 701.194 Q4248.34 690.836 4255.69 684.817 Q4263.09 678.799 4275.94 678.799 Q4288.85 678.799 4296.2 684.817 Q4303.55 690.836 4303.55 701.194 Q4303.55 708.602 4299.32 713.752 Q4295.15 718.903 4287.69 720.755 Q4296.14 722.722 4300.83 728.451 Q4305.57 734.18 4305.57 742.456 Q4305.57 755.014 4297.87 761.727 Q4290.24 768.439 4275.94 768.439 Q4261.65 768.439 4253.95 761.727 Q4246.31 755.014 4246.31 742.456 Q4246.31 734.18 4251.06 728.451 Q4255.8 722.722 4264.25 720.755 M4259.97 702.294 Q4259.97 709.007 4264.14 712.768 Q4268.36 716.53 4275.94 716.53 Q4283.46 716.53 4287.69 712.768 Q4291.97 709.007 4291.97 702.294 Q4291.97 695.581 4287.69 691.82 Q4283.46 688.058 4275.94 688.058 Q4268.36 688.058 4264.14 691.82 Q4259.97 695.581 4259.97 702.294 Z" fill="#000000" fill-rule="nonzero" fill-opacity="1" /><path clip-path="url(#clip770)" d="M4351.35 688.058 Q4342.32 688.058 4337.75 696.97 Q4333.23 705.824 4333.23 723.648 Q4333.23 741.414 4337.75 750.326 Q4342.32 759.18 4351.35 759.18 Q4360.43 759.18 4364.95 750.326 Q4369.52 741.414 4369.52 723.648 Q4369.52 705.824 4364.95 696.97 Q4360.43 688.058 4351.35 688.058 M4351.35 678.799 Q4365.87 678.799 4373.51 690.315 Q4381.21 701.773 4381.21 723.648 Q4381.21 745.465 4373.51 756.981 Q4365.87 768.439 4351.35 768.439 Q4336.82 768.439 4329.12 756.981 Q4321.49 745.465 4321.49 723.648 Q4321.49 701.773 4329.12 690.315 Q4336.82 678.799 4351.35 678.799 Z" fill="#000000" fill-rule="nonzero" fill-opacity="1" /><path clip-path="url(#clip770)" d="M4475.25 728.741 Q4470.21 728.741 4467.32 733.023 Q4464.48 737.305 4464.48 744.944 Q4464.48 752.467 4467.32 756.808 Q4470.21 761.09 4475.25 761.09 Q4480.16 761.09 4483 756.808 Q4485.89 752.467 4485.89 744.944 Q4485.89 737.363 4483 733.081 Q4480.16 728.741 4475.25 728.741 M4475.25 721.391 Q4484.39 721.391 4489.77 727.757 Q4495.15 734.123 4495.15 744.944 Q4495.15 755.766 4489.71 762.132 Q4484.33 768.439 4475.25 768.439 Q4465.99 768.439 4460.6 762.132 Q4455.22 755.766 4455.22 744.944 Q4455.22 734.065 4460.6 727.757 Q4466.04 721.391 4475.25 721.391 M4415.52 686.148 Q4410.55 686.148 4407.65 690.489 Q4404.82 694.771 4404.82 702.294 Q4404.82 709.933 4407.65 714.215 Q4410.49 718.498 4415.52 718.498 Q4420.56 718.498 4423.39 714.215 Q4426.29 709.933 4426.29 702.294 Q4426.29 694.829 4423.39 690.489 Q4420.5 686.148 4415.52 686.148 M4467.78 678.799 L4477.04 678.799 L4422.99 768.439 L4413.73 768.439 L4467.78 678.799 M4415.52 678.799 Q4424.67 678.799 4430.11 685.164 Q4435.55 691.472 4435.55 702.294 Q4435.55 713.231 4430.11 719.539 Q4424.73 725.847 4415.52 725.847 Q4406.32 725.847 4400.94 719.539 Q4395.62 713.174 4395.62 702.294 Q4395.62 691.53 4401 685.164 Q4406.38 678.799 4415.52 678.799 Z" fill="#000000" fill-rule="nonzero" fill-opacity="1" /></svg>
