<?xml version="1.0" encoding="utf-8"?>
<svg xmlns="http://www.w3.org/2000/svg" xmlns:xlink="http://www.w3.org/1999/xlink" width="1200" height="300" viewBox="0 0 4800 1200">
<defs>
  <clipPath id="clip010">
    <rect x="0" y="0" width="4800" height="1200"/>
  </clipPath>
</defs>
<path clip-path="url(#clip010)" d="M0 1200 L4800 1200 L4800 0 L0 0  Z" fill="#ffffff" fill-rule="evenodd" fill-opacity="1"/>
<defs>
  <clipPath id="clip011">
    <rect x="960" y="0" width="3361" height="1200"/>
  </clipPath>
</defs>
<path clip-path="url(#clip010)" d="M829.412 880.951 L4752.76 880.951 L4752.76 47.2441 L829.412 47.2441  Z" fill="#ffffff" fill-rule="evenodd" fill-opacity="1"/>
<defs>
  <clipPath id="clip012">
    <rect x="829" y="47" width="3924" height="835"/>
  </clipPath>
</defs>
<polyline clip-path="url(#clip012)" style="stroke:#000000; stroke-linecap:round; stroke-linejoin:round; stroke-width:2; stroke-opacity:0.1; fill:none" points="1336.4,880.951 1336.4,47.2441 "/>
<polyline clip-path="url(#clip012)" style="stroke:#000000; stroke-linecap:round; stroke-linejoin:round; stroke-width:2; stroke-opacity:0.1; fill:none" points="2162.73,880.951 2162.73,47.2441 "/>
<polyline clip-path="url(#clip012)" style="stroke:#000000; stroke-linecap:round; stroke-linejoin:round; stroke-width:2; stroke-opacity:0.1; fill:none" points="2989.06,880.951 2989.06,47.2441 "/>
<polyline clip-path="url(#clip012)" style="stroke:#000000; stroke-linecap:round; stroke-linejoin:round; stroke-width:2; stroke-opacity:0.1; fill:none" points="3815.39,880.951 3815.39,47.2441 "/>
<polyline clip-path="url(#clip012)" style="stroke:#000000; stroke-linecap:round; stroke-linejoin:round; stroke-width:2; stroke-opacity:0.1; fill:none" points="4641.72,880.951 4641.72,47.2441 "/>
<polyline clip-path="url(#clip010)" style="stroke:#000000; stroke-linecap:round; stroke-linejoin:round; stroke-width:4; stroke-opacity:1; fill:none" points="829.412,880.951 4752.76,880.951 "/>
<polyline clip-path="url(#clip010)" style="stroke:#000000; stroke-linecap:round; stroke-linejoin:round; stroke-width:4; stroke-opacity:1; fill:none" points="1336.4,880.951 1336.4,862.054 "/>
<polyline clip-path="url(#clip010)" style="stroke:#000000; stroke-linecap:round; stroke-linejoin:round; stroke-width:4; stroke-opacity:1; fill:none" points="2162.73,880.951 2162.73,862.054 "/>
<polyline clip-path="url(#clip010)" style="stroke:#000000; stroke-linecap:round; stroke-linejoin:round; stroke-width:4; stroke-opacity:1; fill:none" points="2989.06,880.951 2989.06,862.054 "/>
<polyline clip-path="url(#clip010)" style="stroke:#000000; stroke-linecap:round; stroke-linejoin:round; stroke-width:4; stroke-opacity:1; fill:none" points="3815.39,880.951 3815.39,862.054 "/>
<polyline clip-path="url(#clip010)" style="stroke:#000000; stroke-linecap:round; stroke-linejoin:round; stroke-width:4; stroke-opacity:1; fill:none" points="4641.72,880.951 4641.72,862.054 "/>
<path clip-path="url(#clip010)" d="M1325.7 997.881 L1358.34 997.881 L1358.34 1005.75 L1314.46 1005.75 L1314.46 997.881 Q1319.78 992.372 1328.95 983.113 Q1338.16 973.807 1340.52 971.122 Q1345.01 966.076 1346.77 962.604 Q1348.58 959.085 1348.58 955.705 Q1348.58 950.196 1344.69 946.724 Q1340.84 943.252 1334.64 943.252 Q1330.24 943.252 1325.33 944.78 Q1320.47 946.307 1314.92 949.409 L1314.92 939.965 Q1320.57 937.696 1325.47 936.539 Q1330.38 935.382 1334.45 935.382 Q1345.2 935.382 1351.58 940.752 Q1357.97 946.122 1357.97 955.104 Q1357.97 959.363 1356.35 963.205 Q1354.78 967.002 1350.57 972.187 Q1349.41 973.529 1343.2 979.965 Q1337 986.353 1325.7 997.881 Z" fill="#000000" fill-rule="nonzero" fill-opacity="1" /><path clip-path="url(#clip010)" d="M2168.75 944.78 L2145.14 981.678 L2168.75 981.678 L2168.75 944.78 M2166.29 936.631 L2178.05 936.631 L2178.05 981.678 L2187.91 981.678 L2187.91 989.455 L2178.05 989.455 L2178.05 1005.75 L2168.75 1005.75 L2168.75 989.455 L2137.54 989.455 L2137.54 980.428 L2166.29 936.631 Z" fill="#000000" fill-rule="nonzero" fill-opacity="1" /><path clip-path="url(#clip010)" d="M2989.87 967.465 Q2983.57 967.465 2979.87 971.77 Q2976.21 976.076 2976.21 983.576 Q2976.21 991.029 2979.87 995.381 Q2983.57 999.687 2989.87 999.687 Q2996.17 999.687 2999.82 995.381 Q3003.53 991.029 3003.53 983.576 Q3003.53 976.076 2999.82 971.77 Q2996.17 967.465 2989.87 967.465 M3008.43 938.159 L3008.43 946.678 Q3004.92 945.011 3001.3 944.131 Q2997.74 943.252 2994.22 943.252 Q2984.96 943.252 2980.05 949.502 Q2975.19 955.752 2974.5 968.391 Q2977.23 964.363 2981.35 962.233 Q2985.47 960.057 2990.42 960.057 Q3000.84 960.057 3006.86 966.4 Q3012.92 972.696 3012.92 983.576 Q3012.92 994.224 3006.63 1000.66 Q3000.33 1007.09 2989.87 1007.09 Q2977.88 1007.09 2971.54 997.927 Q2965.19 988.715 2965.19 971.261 Q2965.19 954.872 2972.97 945.15 Q2980.75 935.382 2993.85 935.382 Q2997.37 935.382 3000.93 936.076 Q3004.54 936.77 3008.43 938.159 Z" fill="#000000" fill-rule="nonzero" fill-opacity="1" /><path clip-path="url(#clip010)" d="M3815.39 972.928 Q3808.72 972.928 3804.88 976.492 Q3801.08 980.057 3801.08 986.307 Q3801.08 992.557 3804.88 996.122 Q3808.72 999.687 3815.39 999.687 Q3822.05 999.687 3825.9 996.122 Q3829.74 992.511 3829.74 986.307 Q3829.74 980.057 3825.9 976.492 Q3822.1 972.928 3815.39 972.928 M3806.04 968.946 Q3800.02 967.465 3796.64 963.344 Q3793.31 959.224 3793.31 953.298 Q3793.31 945.011 3799.18 940.196 Q3805.11 935.382 3815.39 935.382 Q3825.71 935.382 3831.59 940.196 Q3837.47 945.011 3837.47 953.298 Q3837.47 959.224 3834.09 963.344 Q3830.76 967.465 3824.79 968.946 Q3831.55 970.52 3835.3 975.104 Q3839.09 979.687 3839.09 986.307 Q3839.09 996.353 3832.93 1001.72 Q3826.82 1007.09 3815.39 1007.09 Q3803.95 1007.09 3797.8 1001.72 Q3791.68 996.353 3791.68 986.307 Q3791.68 979.687 3795.48 975.104 Q3799.28 970.52 3806.04 968.946 M3802.61 954.178 Q3802.61 959.548 3805.94 962.557 Q3809.32 965.567 3815.39 965.567 Q3821.41 965.567 3824.79 962.557 Q3828.21 959.548 3828.21 954.178 Q3828.21 948.807 3824.79 945.798 Q3821.41 942.789 3815.39 942.789 Q3809.32 942.789 3805.94 945.798 Q3802.61 948.807 3802.61 954.178 Z" fill="#000000" fill-rule="nonzero" fill-opacity="1" /><path clip-path="url(#clip010)" d="M4591.09 997.881 L4606.37 997.881 L4606.37 945.15 L4589.75 948.483 L4589.75 939.965 L4606.28 936.631 L4615.63 936.631 L4615.63 997.881 L4630.91 997.881 L4630.91 1005.75 L4591.09 1005.75 L4591.09 997.881 Z" fill="#000000" fill-rule="nonzero" fill-opacity="1" /><path clip-path="url(#clip010)" d="M4669.8 942.789 Q4662.57 942.789 4658.92 949.918 Q4655.31 957.002 4655.31 971.261 Q4655.31 985.474 4658.92 992.603 Q4662.57 999.687 4669.8 999.687 Q4677.06 999.687 4680.68 992.603 Q4684.33 985.474 4684.33 971.261 Q4684.33 957.002 4680.68 949.918 Q4677.06 942.789 4669.8 942.789 M4669.8 935.382 Q4681.42 935.382 4687.53 944.594 Q4693.69 953.761 4693.69 971.261 Q4693.69 988.715 4687.53 997.927 Q4681.42 1007.09 4669.8 1007.09 Q4658.18 1007.09 4652.02 997.927 Q4645.91 988.715 4645.91 971.261 Q4645.91 953.761 4652.02 944.594 Q4658.18 935.382 4669.8 935.382 Z" fill="#000000" fill-rule="nonzero" fill-opacity="1" /><path clip-path="url(#clip010)" d="M2508.32 1072.18 L2574.11 1072.18 L2574.11 1081.04 L2546.5 1081.04 L2546.5 1149.94 L2535.93 1149.94 L2535.93 1081.04 L2508.32 1081.04 L2508.32 1072.18 Z" fill="#000000" fill-rule="nonzero" fill-opacity="1" /><path clip-path="url(#clip010)" d="M2580.56 1091.61 L2590.15 1091.61 L2590.15 1149.94 L2580.56 1149.94 L2580.56 1091.61 M2580.56 1068.9 L2590.15 1068.9 L2590.15 1081.04 L2580.56 1081.04 L2580.56 1068.9 Z" fill="#000000" fill-rule="nonzero" fill-opacity="1" /><path clip-path="url(#clip010)" d="M2655.62 1102.81 Q2659.21 1096.35 2664.21 1093.28 Q2669.21 1090.2 2675.98 1090.2 Q2685.09 1090.2 2690.04 1096.61 Q2694.99 1102.96 2694.99 1114.74 L2694.99 1149.94 L2685.36 1149.94 L2685.36 1115.05 Q2685.36 1106.66 2682.39 1102.6 Q2679.42 1098.54 2673.32 1098.54 Q2665.88 1098.54 2661.55 1103.49 Q2657.23 1108.43 2657.23 1116.97 L2657.23 1149.94 L2647.59 1149.94 L2647.59 1115.05 Q2647.59 1106.61 2644.63 1102.6 Q2641.66 1098.54 2635.46 1098.54 Q2628.12 1098.54 2623.79 1103.54 Q2619.47 1108.49 2619.47 1116.97 L2619.47 1149.94 L2609.83 1149.94 L2609.83 1091.61 L2619.47 1091.61 L2619.47 1100.67 Q2622.75 1095.31 2627.33 1092.76 Q2631.92 1090.2 2638.22 1090.2 Q2644.57 1090.2 2649 1093.43 Q2653.48 1096.66 2655.62 1102.81 Z" fill="#000000" fill-rule="nonzero" fill-opacity="1" /><path clip-path="url(#clip010)" d="M2764 1118.38 L2764 1123.07 L2719.94 1123.07 Q2720.56 1132.96 2725.88 1138.17 Q2731.24 1143.33 2740.77 1143.33 Q2746.29 1143.33 2751.45 1141.97 Q2756.66 1140.62 2761.76 1137.91 L2761.76 1146.97 Q2756.6 1149.16 2751.19 1150.31 Q2745.77 1151.45 2740.2 1151.45 Q2726.24 1151.45 2718.06 1143.33 Q2709.94 1135.2 2709.94 1121.35 Q2709.94 1107.03 2717.65 1098.64 Q2725.41 1090.2 2738.53 1090.2 Q2750.3 1090.2 2757.13 1097.81 Q2764 1105.36 2764 1118.38 M2754.42 1115.57 Q2754.31 1107.7 2749.99 1103.02 Q2745.72 1098.33 2738.64 1098.33 Q2730.62 1098.33 2725.77 1102.86 Q2720.98 1107.39 2720.25 1115.62 L2754.42 1115.57 Z" fill="#000000" fill-rule="nonzero" fill-opacity="1" /><path clip-path="url(#clip010)" d="M2836.66 1069.01 Q2829.68 1080.99 2826.29 1092.7 Q2822.91 1104.42 2822.91 1116.45 Q2822.91 1128.49 2826.29 1140.31 Q2829.73 1152.08 2836.66 1164.01 L2828.32 1164.01 Q2820.51 1151.77 2816.6 1139.94 Q2812.75 1128.12 2812.75 1116.45 Q2812.75 1104.84 2816.6 1093.07 Q2820.46 1081.3 2828.32 1069.01 L2836.66 1069.01 Z" fill="#000000" fill-rule="nonzero" fill-opacity="1" /><path clip-path="url(#clip010)" d="M2893.64 1100.46 L2893.64 1068.9 L2903.22 1068.9 L2903.22 1149.94 L2893.64 1149.94 L2893.64 1141.19 Q2890.61 1146.4 2885.98 1148.95 Q2881.4 1151.45 2874.94 1151.45 Q2864.36 1151.45 2857.7 1143.02 Q2851.08 1134.58 2851.08 1120.83 Q2851.08 1107.08 2857.7 1098.64 Q2864.36 1090.2 2874.94 1090.2 Q2881.4 1090.2 2885.98 1092.76 Q2890.61 1095.26 2893.64 1100.46 M2860.98 1120.83 Q2860.98 1131.4 2865.3 1137.44 Q2869.68 1143.43 2877.28 1143.43 Q2884.89 1143.43 2889.26 1137.44 Q2893.64 1131.4 2893.64 1120.83 Q2893.64 1110.26 2889.26 1104.27 Q2884.89 1098.23 2877.28 1098.23 Q2869.68 1098.23 2865.3 1104.27 Q2860.98 1110.26 2860.98 1120.83 Z" fill="#000000" fill-rule="nonzero" fill-opacity="1" /><path clip-path="url(#clip010)" d="M2949.47 1120.62 Q2937.85 1120.62 2933.37 1123.28 Q2928.9 1125.93 2928.9 1132.34 Q2928.9 1137.44 2932.23 1140.46 Q2935.61 1143.43 2941.4 1143.43 Q2949.36 1143.43 2954.16 1137.81 Q2959 1132.13 2959 1122.76 L2959 1120.62 L2949.47 1120.62 M2968.58 1116.66 L2968.58 1149.94 L2959 1149.94 L2959 1141.09 Q2955.72 1146.4 2950.82 1148.95 Q2945.93 1151.45 2938.84 1151.45 Q2929.89 1151.45 2924.57 1146.45 Q2919.31 1141.4 2919.31 1132.96 Q2919.31 1123.12 2925.87 1118.12 Q2932.49 1113.12 2945.56 1113.12 L2959 1113.12 L2959 1112.18 Q2959 1105.57 2954.62 1101.98 Q2950.3 1098.33 2942.44 1098.33 Q2937.44 1098.33 2932.7 1099.53 Q2927.96 1100.73 2923.58 1103.12 L2923.58 1094.27 Q2928.84 1092.24 2933.79 1091.25 Q2938.74 1090.2 2943.43 1090.2 Q2956.08 1090.2 2962.33 1096.77 Q2968.58 1103.33 2968.58 1116.66 Z" fill="#000000" fill-rule="nonzero" fill-opacity="1" /><path clip-path="url(#clip010)" d="M3012.59 1155.36 Q3008.53 1165.78 3004.68 1168.95 Q3000.82 1172.13 2994.36 1172.13 L2986.71 1172.13 L2986.71 1164.11 L2992.33 1164.11 Q2996.29 1164.11 2998.48 1162.24 Q3000.67 1160.36 3003.32 1153.38 L3005.04 1149.01 L2981.45 1091.61 L2991.6 1091.61 L3009.83 1137.24 L3028.06 1091.61 L3038.22 1091.61 L3012.59 1155.36 Z" fill="#000000" fill-rule="nonzero" fill-opacity="1" /><path clip-path="url(#clip010)" d="M3049.94 1069.01 L3058.27 1069.01 Q3066.08 1081.3 3069.94 1093.07 Q3073.84 1104.84 3073.84 1116.45 Q3073.84 1128.12 3069.94 1139.94 Q3066.08 1151.77 3058.27 1164.01 L3049.94 1164.01 Q3056.86 1152.08 3060.25 1140.31 Q3063.69 1128.49 3063.69 1116.45 Q3063.69 1104.42 3060.25 1092.7 Q3056.86 1080.99 3049.94 1069.01 Z" fill="#000000" fill-rule="nonzero" fill-opacity="1" /><polyline clip-path="url(#clip012)" style="stroke:#000000; stroke-linecap:round; stroke-linejoin:round; stroke-width:2; stroke-opacity:0.1; fill:none" points="829.412,849.832 4752.76,849.832 "/>
<polyline clip-path="url(#clip012)" style="stroke:#000000; stroke-linecap:round; stroke-linejoin:round; stroke-width:2; stroke-opacity:0.1; fill:none" points="829.412,663.515 4752.76,663.515 "/>
<polyline clip-path="url(#clip012)" style="stroke:#000000; stroke-linecap:round; stroke-linejoin:round; stroke-width:2; stroke-opacity:0.1; fill:none" points="829.412,477.198 4752.76,477.198 "/>
<polyline clip-path="url(#clip012)" style="stroke:#000000; stroke-linecap:round; stroke-linejoin:round; stroke-width:2; stroke-opacity:0.1; fill:none" points="829.412,290.882 4752.76,290.882 "/>
<polyline clip-path="url(#clip012)" style="stroke:#000000; stroke-linecap:round; stroke-linejoin:round; stroke-width:2; stroke-opacity:0.1; fill:none" points="829.412,104.565 4752.76,104.565 "/>
<polyline clip-path="url(#clip010)" style="stroke:#000000; stroke-linecap:round; stroke-linejoin:round; stroke-width:4; stroke-opacity:1; fill:none" points="829.412,880.951 829.412,47.2441 "/>
<polyline clip-path="url(#clip010)" style="stroke:#000000; stroke-linecap:round; stroke-linejoin:round; stroke-width:4; stroke-opacity:1; fill:none" points="829.412,849.832 848.309,849.832 "/>
<polyline clip-path="url(#clip010)" style="stroke:#000000; stroke-linecap:round; stroke-linejoin:round; stroke-width:4; stroke-opacity:1; fill:none" points="829.412,663.515 848.309,663.515 "/>
<polyline clip-path="url(#clip010)" style="stroke:#000000; stroke-linecap:round; stroke-linejoin:round; stroke-width:4; stroke-opacity:1; fill:none" points="829.412,477.198 848.309,477.198 "/>
<polyline clip-path="url(#clip010)" style="stroke:#000000; stroke-linecap:round; stroke-linejoin:round; stroke-width:4; stroke-opacity:1; fill:none" points="829.412,290.882 848.309,290.882 "/>
<polyline clip-path="url(#clip010)" style="stroke:#000000; stroke-linecap:round; stroke-linejoin:round; stroke-width:4; stroke-opacity:1; fill:none" points="829.412,104.565 848.309,104.565 "/>
<path clip-path="url(#clip010)" d="M243.45 863.63 L302.802 863.63 L302.802 871.5 L243.45 871.5 L243.45 863.63 Z" fill="#000000" fill-rule="nonzero" fill-opacity="1" /><path clip-path="url(#clip010)" d="M324.607 889.417 L339.885 889.417 L339.885 836.686 L323.265 840.019 L323.265 831.501 L339.792 828.167 L349.144 828.167 L349.144 889.417 L364.422 889.417 L364.422 897.287 L324.607 897.287 L324.607 889.417 Z" fill="#000000" fill-rule="nonzero" fill-opacity="1" /><path clip-path="url(#clip010)" d="M383.311 885.528 L393.079 885.528 L393.079 897.287 L383.311 897.287 L383.311 885.528 Z" fill="#000000" fill-rule="nonzero" fill-opacity="1" /><path clip-path="url(#clip010)" d="M433.449 834.325 Q426.227 834.325 422.57 841.454 Q418.959 848.538 418.959 862.797 Q418.959 877.01 422.57 884.139 Q426.227 891.222 433.449 891.222 Q440.718 891.222 444.329 884.139 Q447.986 877.01 447.986 862.797 Q447.986 848.538 444.329 841.454 Q440.718 834.325 433.449 834.325 M433.449 826.917 Q445.07 826.917 451.181 836.13 Q457.338 845.297 457.338 862.797 Q457.338 880.25 451.181 889.463 Q445.07 898.63 433.449 898.63 Q421.829 898.63 415.672 889.463 Q409.561 880.25 409.561 862.797 Q409.561 845.297 415.672 836.13 Q421.829 826.917 433.449 826.917 Z" fill="#000000" fill-rule="nonzero" fill-opacity="1" /><path clip-path="url(#clip010)" d="M530.115 846.362 L508.958 867.612 L530.115 888.769 L524.606 894.371 L503.356 873.121 L482.106 894.371 L476.644 888.769 L497.755 867.612 L476.644 846.362 L482.106 840.76 L503.356 862.01 L524.606 840.76 L530.115 846.362 Z" fill="#000000" fill-rule="nonzero" fill-opacity="1" /><path clip-path="url(#clip010)" d="M554.838 889.417 L570.115 889.417 L570.115 836.686 L553.495 840.019 L553.495 831.501 L570.023 828.167 L579.374 828.167 L579.374 889.417 L594.652 889.417 L594.652 897.287 L554.838 897.287 L554.838 889.417 Z" fill="#000000" fill-rule="nonzero" fill-opacity="1" /><path clip-path="url(#clip010)" d="M633.541 834.325 Q626.319 834.325 622.661 841.454 Q619.05 848.538 619.05 862.797 Q619.05 877.01 622.661 884.139 Q626.319 891.222 633.541 891.222 Q640.809 891.222 644.42 884.139 Q648.078 877.01 648.078 862.797 Q648.078 848.538 644.42 841.454 Q640.809 834.325 633.541 834.325 M633.541 826.917 Q645.161 826.917 651.272 836.13 Q657.43 845.297 657.43 862.797 Q657.43 880.25 651.272 889.463 Q645.161 898.63 633.541 898.63 Q621.921 898.63 615.763 889.463 Q609.652 880.25 609.652 862.797 Q609.652 845.297 615.763 836.13 Q621.921 826.917 633.541 826.917 Z" fill="#000000" fill-rule="nonzero" fill-opacity="1" /><path clip-path="url(#clip010)" d="M657.43 815.12 L705.653 815.12 L705.653 821.515 L657.43 821.515 L657.43 815.12 Z" fill="#000000" fill-rule="nonzero" fill-opacity="1" /><path clip-path="url(#clip010)" d="M722.279 841.3 L722.279 834.379 Q725.138 835.733 728.072 836.448 Q731.006 837.163 733.827 837.163 Q741.35 837.163 745.3 832.122 Q749.287 827.044 749.851 816.737 Q747.669 819.972 744.322 821.703 Q740.974 823.433 736.911 823.433 Q728.485 823.433 723.558 818.355 Q718.668 813.239 718.668 804.4 Q718.668 795.748 723.783 790.519 Q728.899 785.291 737.4 785.291 Q747.143 785.291 752.258 792.776 Q757.412 800.224 757.412 814.443 Q757.412 827.721 751.092 835.658 Q744.811 843.557 734.165 843.557 Q731.307 843.557 728.373 842.993 Q725.439 842.429 722.279 841.3 M737.4 817.49 Q742.516 817.49 745.488 813.992 Q748.497 810.493 748.497 804.4 Q748.497 798.343 745.488 794.845 Q742.516 791.309 737.4 791.309 Q732.285 791.309 729.275 794.845 Q726.304 798.343 726.304 804.4 Q726.304 810.493 729.275 813.992 Q732.285 817.49 737.4 817.49 Z" fill="#000000" fill-rule="nonzero" fill-opacity="1" /><path clip-path="url(#clip010)" d="M194.136 677.313 L253.488 677.313 L253.488 685.184 L194.136 685.184 L194.136 677.313 Z" fill="#000000" fill-rule="nonzero" fill-opacity="1" /><path clip-path="url(#clip010)" d="M273.766 641.85 L310.478 641.85 L310.478 649.721 L282.33 649.721 L282.33 666.665 Q284.367 665.971 286.404 665.647 Q288.441 665.276 290.478 665.276 Q302.052 665.276 308.812 671.619 Q315.571 677.961 315.571 688.795 Q315.571 699.952 308.627 706.156 Q301.682 712.313 289.043 712.313 Q284.691 712.313 280.154 711.572 Q275.664 710.832 270.849 709.35 L270.849 699.952 Q275.016 702.22 279.46 703.332 Q283.904 704.443 288.858 704.443 Q296.867 704.443 301.543 700.23 Q306.219 696.017 306.219 688.795 Q306.219 681.572 301.543 677.36 Q296.867 673.147 288.858 673.147 Q285.108 673.147 281.358 673.98 Q277.654 674.813 273.766 676.572 L273.766 641.85 Z" fill="#000000" fill-rule="nonzero" fill-opacity="1" /><path clip-path="url(#clip010)" d="M333.997 699.211 L343.765 699.211 L343.765 710.97 L333.997 710.97 L333.997 699.211 Z" fill="#000000" fill-rule="nonzero" fill-opacity="1" /><path clip-path="url(#clip010)" d="M384.135 648.008 Q376.913 648.008 373.256 655.137 Q369.645 662.221 369.645 676.48 Q369.645 690.693 373.256 697.822 Q376.913 704.906 384.135 704.906 Q391.404 704.906 395.015 697.822 Q398.672 690.693 398.672 676.48 Q398.672 662.221 395.015 655.137 Q391.404 648.008 384.135 648.008 M384.135 640.6 Q395.756 640.6 401.867 649.813 Q408.024 658.98 408.024 676.48 Q408.024 693.934 401.867 703.146 Q395.756 712.313 384.135 712.313 Q372.515 712.313 366.358 703.146 Q360.247 693.934 360.247 676.48 Q360.247 658.98 366.358 649.813 Q372.515 640.6 384.135 640.6 Z" fill="#000000" fill-rule="nonzero" fill-opacity="1" /><path clip-path="url(#clip010)" d="M480.802 660.045 L459.644 681.295 L480.802 702.452 L475.292 708.054 L454.042 686.804 L432.793 708.054 L427.33 702.452 L448.441 681.295 L427.33 660.045 L432.793 654.443 L454.042 675.693 L475.292 654.443 L480.802 660.045 Z" fill="#000000" fill-rule="nonzero" fill-opacity="1" /><path clip-path="url(#clip010)" d="M505.524 703.1 L520.801 703.1 L520.801 650.369 L504.181 653.702 L504.181 645.184 L520.709 641.85 L530.061 641.85 L530.061 703.1 L545.338 703.1 L545.338 710.97 L505.524 710.97 L505.524 703.1 Z" fill="#000000" fill-rule="nonzero" fill-opacity="1" /><path clip-path="url(#clip010)" d="M584.227 648.008 Q577.005 648.008 573.347 655.137 Q569.736 662.221 569.736 676.48 Q569.736 690.693 573.347 697.822 Q577.005 704.906 584.227 704.906 Q591.495 704.906 595.106 697.822 Q598.764 690.693 598.764 676.48 Q598.764 662.221 595.106 655.137 Q591.495 648.008 584.227 648.008 M584.227 640.6 Q595.847 640.6 601.958 649.813 Q608.116 658.98 608.116 676.48 Q608.116 693.934 601.958 703.146 Q595.847 712.313 584.227 712.313 Q572.607 712.313 566.449 703.146 Q560.338 693.934 560.338 676.48 Q560.338 658.98 566.449 649.813 Q572.607 640.6 584.227 640.6 Z" fill="#000000" fill-rule="nonzero" fill-opacity="1" /><path clip-path="url(#clip010)" d="M608.116 628.803 L656.339 628.803 L656.339 635.198 L608.116 635.198 L608.116 628.803 Z" fill="#000000" fill-rule="nonzero" fill-opacity="1" /><path clip-path="url(#clip010)" d="M674.056 649.755 L686.469 649.755 L686.469 606.911 L672.965 609.619 L672.965 602.698 L686.394 599.99 L693.992 599.99 L693.992 649.755 L706.405 649.755 L706.405 656.15 L674.056 656.15 L674.056 649.755 Z" fill="#000000" fill-rule="nonzero" fill-opacity="1" /><path clip-path="url(#clip010)" d="M738.002 604.993 Q732.134 604.993 729.162 610.785 Q726.228 616.54 726.228 628.126 Q726.228 639.674 729.162 645.467 Q732.134 651.222 738.002 651.222 Q743.908 651.222 746.842 645.467 Q749.813 639.674 749.813 628.126 Q749.813 616.54 746.842 610.785 Q743.908 604.993 738.002 604.993 M738.002 598.974 Q747.444 598.974 752.409 606.46 Q757.412 613.907 757.412 628.126 Q757.412 642.307 752.409 649.793 Q747.444 657.24 738.002 657.24 Q728.561 657.24 723.558 649.793 Q718.592 642.307 718.592 628.126 Q718.592 613.907 723.558 606.46 Q728.561 598.974 738.002 598.974 Z" fill="#000000" fill-rule="nonzero" fill-opacity="1" /><path clip-path="url(#clip010)" d="M733.523 448.796 Q726.301 448.796 722.643 455.925 Q719.032 463.009 719.032 477.268 Q719.032 491.481 722.643 498.61 Q726.301 505.694 733.523 505.694 Q740.791 505.694 744.403 498.61 Q748.06 491.481 748.06 477.268 Q748.06 463.009 744.403 455.925 Q740.791 448.796 733.523 448.796 M733.523 441.388 Q745.143 441.388 751.254 450.601 Q757.412 459.768 757.412 477.268 Q757.412 494.721 751.254 503.934 Q745.143 513.101 733.523 513.101 Q721.903 513.101 715.745 503.934 Q709.634 494.721 709.634 477.268 Q709.634 459.768 715.745 450.601 Q721.903 441.388 733.523 441.388 Z" fill="#000000" fill-rule="nonzero" fill-opacity="1" /><path clip-path="url(#clip010)" d="M273.766 269.217 L310.478 269.217 L310.478 277.087 L282.33 277.087 L282.33 294.031 Q284.367 293.337 286.404 293.013 Q288.441 292.643 290.478 292.643 Q302.052 292.643 308.812 298.985 Q315.571 305.328 315.571 316.161 Q315.571 327.318 308.627 333.522 Q301.682 339.679 289.043 339.679 Q284.691 339.679 280.154 338.939 Q275.664 338.198 270.849 336.716 L270.849 327.318 Q275.016 329.587 279.46 330.698 Q283.904 331.809 288.858 331.809 Q296.867 331.809 301.543 327.596 Q306.219 323.383 306.219 316.161 Q306.219 308.939 301.543 304.726 Q296.867 300.513 288.858 300.513 Q285.108 300.513 281.358 301.346 Q277.654 302.18 273.766 303.939 L273.766 269.217 Z" fill="#000000" fill-rule="nonzero" fill-opacity="1" /><path clip-path="url(#clip010)" d="M333.997 326.578 L343.765 326.578 L343.765 338.337 L333.997 338.337 L333.997 326.578 Z" fill="#000000" fill-rule="nonzero" fill-opacity="1" /><path clip-path="url(#clip010)" d="M384.135 275.374 Q376.913 275.374 373.256 282.504 Q369.645 289.587 369.645 303.846 Q369.645 318.059 373.256 325.189 Q376.913 332.272 384.135 332.272 Q391.404 332.272 395.015 325.189 Q398.672 318.059 398.672 303.846 Q398.672 289.587 395.015 282.504 Q391.404 275.374 384.135 275.374 M384.135 267.967 Q395.756 267.967 401.867 277.18 Q408.024 286.346 408.024 303.846 Q408.024 321.3 401.867 330.513 Q395.756 339.679 384.135 339.679 Q372.515 339.679 366.358 330.513 Q360.247 321.3 360.247 303.846 Q360.247 286.346 366.358 277.18 Q372.515 267.967 384.135 267.967 Z" fill="#000000" fill-rule="nonzero" fill-opacity="1" /><path clip-path="url(#clip010)" d="M480.802 287.411 L459.644 308.661 L480.802 329.818 L475.292 335.42 L454.042 314.17 L432.793 335.42 L427.33 329.818 L448.441 308.661 L427.33 287.411 L432.793 281.809 L454.042 303.059 L475.292 281.809 L480.802 287.411 Z" fill="#000000" fill-rule="nonzero" fill-opacity="1" /><path clip-path="url(#clip010)" d="M505.524 330.466 L520.801 330.466 L520.801 277.735 L504.181 281.069 L504.181 272.55 L520.709 269.217 L530.061 269.217 L530.061 330.466 L545.338 330.466 L545.338 338.337 L505.524 338.337 L505.524 330.466 Z" fill="#000000" fill-rule="nonzero" fill-opacity="1" /><path clip-path="url(#clip010)" d="M584.227 275.374 Q577.005 275.374 573.347 282.504 Q569.736 289.587 569.736 303.846 Q569.736 318.059 573.347 325.189 Q577.005 332.272 584.227 332.272 Q591.495 332.272 595.106 325.189 Q598.764 318.059 598.764 303.846 Q598.764 289.587 595.106 282.504 Q591.495 275.374 584.227 275.374 M584.227 267.967 Q595.847 267.967 601.958 277.18 Q608.116 286.346 608.116 303.846 Q608.116 321.3 601.958 330.513 Q595.847 339.679 584.227 339.679 Q572.607 339.679 566.449 330.513 Q560.338 321.3 560.338 303.846 Q560.338 286.346 566.449 277.18 Q572.607 267.967 584.227 267.967 Z" fill="#000000" fill-rule="nonzero" fill-opacity="1" /><path clip-path="url(#clip010)" d="M608.116 256.169 L656.339 256.169 L656.339 262.564 L608.116 262.564 L608.116 256.169 Z" fill="#000000" fill-rule="nonzero" fill-opacity="1" /><path clip-path="url(#clip010)" d="M674.056 277.121 L686.469 277.121 L686.469 234.277 L672.965 236.986 L672.965 230.064 L686.394 227.356 L693.992 227.356 L693.992 277.121 L706.405 277.121 L706.405 283.516 L674.056 283.516 L674.056 277.121 Z" fill="#000000" fill-rule="nonzero" fill-opacity="1" /><path clip-path="url(#clip010)" d="M738.002 232.359 Q732.134 232.359 729.162 238.152 Q726.228 243.907 726.228 255.492 Q726.228 267.04 729.162 272.833 Q732.134 278.588 738.002 278.588 Q743.908 278.588 746.842 272.833 Q749.813 267.04 749.813 255.492 Q749.813 243.907 746.842 238.152 Q743.908 232.359 738.002 232.359 M738.002 226.34 Q747.444 226.34 752.409 233.826 Q757.412 241.274 757.412 255.492 Q757.412 269.673 752.409 277.159 Q747.444 284.607 738.002 284.607 Q728.561 284.607 723.558 277.159 Q718.592 269.673 718.592 255.492 Q718.592 241.274 723.558 233.826 Q728.561 226.34 738.002 226.34 Z" fill="#000000" fill-rule="nonzero" fill-opacity="1" /><path clip-path="url(#clip010)" d="M324.607 144.15 L339.885 144.15 L339.885 91.4184 L323.265 94.7517 L323.265 86.2333 L339.792 82.8999 L349.144 82.8999 L349.144 144.15 L364.422 144.15 L364.422 152.02 L324.607 152.02 L324.607 144.15 Z" fill="#000000" fill-rule="nonzero" fill-opacity="1" /><path clip-path="url(#clip010)" d="M383.311 140.261 L393.079 140.261 L393.079 152.02 L383.311 152.02 L383.311 140.261 Z" fill="#000000" fill-rule="nonzero" fill-opacity="1" /><path clip-path="url(#clip010)" d="M433.449 89.0573 Q426.227 89.0573 422.57 96.1869 Q418.959 103.27 418.959 117.529 Q418.959 131.742 422.57 138.872 Q426.227 145.955 433.449 145.955 Q440.718 145.955 444.329 138.872 Q447.986 131.742 447.986 117.529 Q447.986 103.27 444.329 96.1869 Q440.718 89.0573 433.449 89.0573 M433.449 81.65 Q445.07 81.65 451.181 90.8629 Q457.338 100.029 457.338 117.529 Q457.338 134.983 451.181 144.196 Q445.07 153.363 433.449 153.363 Q421.829 153.363 415.672 144.196 Q409.561 134.983 409.561 117.529 Q409.561 100.029 415.672 90.8629 Q421.829 81.65 433.449 81.65 Z" fill="#000000" fill-rule="nonzero" fill-opacity="1" /><path clip-path="url(#clip010)" d="M530.115 101.094 L508.958 122.344 L530.115 143.501 L524.606 149.103 L503.356 127.853 L482.106 149.103 L476.644 143.501 L497.755 122.344 L476.644 101.094 L482.106 95.4925 L503.356 116.742 L524.606 95.4925 L530.115 101.094 Z" fill="#000000" fill-rule="nonzero" fill-opacity="1" /><path clip-path="url(#clip010)" d="M554.838 144.15 L570.115 144.15 L570.115 91.4184 L553.495 94.7517 L553.495 86.2333 L570.023 82.8999 L579.374 82.8999 L579.374 144.15 L594.652 144.15 L594.652 152.02 L554.838 152.02 L554.838 144.15 Z" fill="#000000" fill-rule="nonzero" fill-opacity="1" /><path clip-path="url(#clip010)" d="M633.541 89.0573 Q626.319 89.0573 622.661 96.1869 Q619.05 103.27 619.05 117.529 Q619.05 131.742 622.661 138.872 Q626.319 145.955 633.541 145.955 Q640.809 145.955 644.42 138.872 Q648.078 131.742 648.078 117.529 Q648.078 103.27 644.42 96.1869 Q640.809 89.0573 633.541 89.0573 M633.541 81.65 Q645.161 81.65 651.272 90.8629 Q657.43 100.029 657.43 117.529 Q657.43 134.983 651.272 144.196 Q645.161 153.363 633.541 153.363 Q621.921 153.363 615.763 144.196 Q609.652 134.983 609.652 117.529 Q609.652 100.029 615.763 90.8629 Q621.921 81.65 633.541 81.65 Z" fill="#000000" fill-rule="nonzero" fill-opacity="1" /><path clip-path="url(#clip010)" d="M657.43 69.8527 L705.653 69.8527 L705.653 76.2473 L657.43 76.2473 L657.43 69.8527 Z" fill="#000000" fill-rule="nonzero" fill-opacity="1" /><path clip-path="url(#clip010)" d="M722.279 96.0331 L722.279 89.1118 Q725.138 90.466 728.072 91.1807 Q731.006 91.8954 733.827 91.8954 Q741.35 91.8954 745.3 86.8549 Q749.287 81.7768 749.851 71.4701 Q747.669 74.7051 744.322 76.4354 Q740.974 78.1657 736.911 78.1657 Q728.485 78.1657 723.558 73.0876 Q718.668 67.9719 718.668 59.1322 Q718.668 50.4806 723.783 45.2521 Q728.899 40.0235 737.4 40.0235 Q747.143 40.0235 752.258 47.509 Q757.412 54.9569 757.412 69.1756 Q757.412 82.4539 751.092 90.3907 Q744.811 98.29 734.165 98.29 Q731.307 98.29 728.373 97.7258 Q725.439 97.1615 722.279 96.0331 M737.4 72.2224 Q742.516 72.2224 745.488 68.7242 Q748.497 65.2259 748.497 59.1322 Q748.497 53.0761 745.488 49.5779 Q742.516 46.042 737.4 46.042 Q732.285 46.042 729.275 49.5779 Q726.304 53.0761 726.304 59.1322 Q726.304 65.2259 729.275 68.7242 Q732.285 72.2224 737.4 72.2224 Z" fill="#000000" fill-rule="nonzero" fill-opacity="1" /><path clip-path="url(#clip010)" d="M28.1838 640.685 Q28.1838 652.144 36.7254 658.914 Q45.267 665.633 60.0065 665.633 Q74.6939 665.633 83.2355 658.914 Q91.7772 652.144 91.7772 640.685 Q91.7772 629.227 83.2355 622.56 Q74.6939 615.842 60.0065 615.842 Q45.267 615.842 36.7254 622.56 Q28.1838 629.227 28.1838 640.685 M19.6421 640.685 Q19.6421 624.331 30.6317 614.54 Q41.5691 604.748 60.0065 604.748 Q78.3918 604.748 89.3813 614.54 Q100.319 624.331 100.319 640.685 Q100.319 657.092 89.3813 666.935 Q78.4439 676.727 60.0065 676.727 Q41.5691 676.727 30.6317 666.935 Q19.6421 657.092 19.6421 640.685 Z" fill="#000000" fill-rule="nonzero" fill-opacity="1" /><path clip-path="url(#clip010)" d="M17.8713 531.78 Q29.8504 538.759 41.5691 542.144 Q53.2878 545.53 65.319 545.53 Q77.3502 545.53 89.173 542.144 Q100.944 538.707 112.871 531.78 L112.871 540.113 Q100.631 547.925 88.8084 551.832 Q76.9856 555.686 65.319 555.686 Q53.7045 555.686 41.9337 551.832 Q30.1629 547.978 17.8713 540.113 L17.8713 531.78 Z" fill="#000000" fill-rule="nonzero" fill-opacity="1" /><path clip-path="url(#clip010)" d="M90.0584 503.915 L120.996 503.915 L120.996 513.551 L40.4754 513.551 L40.4754 503.915 L49.3295 503.915 Q44.1212 500.894 41.6212 496.311 Q39.0691 491.676 39.0691 485.27 Q39.0691 474.645 47.5066 468.03 Q55.944 461.363 69.694 461.363 Q83.4439 461.363 91.8813 468.03 Q100.319 474.645 100.319 485.27 Q100.319 491.676 97.8188 496.311 Q95.2667 500.894 90.0584 503.915 M69.694 471.311 Q59.1211 471.311 53.1315 475.686 Q47.0899 480.009 47.0899 487.613 Q47.0899 495.217 53.1315 499.592 Q59.1211 503.915 69.694 503.915 Q80.2668 503.915 86.3084 499.592 Q92.298 495.217 92.298 487.613 Q92.298 480.009 86.3084 475.686 Q80.2668 471.311 69.694 471.311 Z" fill="#000000" fill-rule="nonzero" fill-opacity="1" /><path clip-path="url(#clip010)" d="M90.0584 436.207 L120.996 436.207 L120.996 445.843 L40.4754 445.843 L40.4754 436.207 L49.3295 436.207 Q44.1212 433.187 41.6212 428.603 Q39.0691 423.968 39.0691 417.562 Q39.0691 406.937 47.5066 400.322 Q55.944 393.655 69.694 393.655 Q83.4439 393.655 91.8813 400.322 Q100.319 406.937 100.319 417.562 Q100.319 423.968 97.8188 428.603 Q95.2667 433.187 90.0584 436.207 M69.694 403.603 Q59.1211 403.603 53.1315 407.978 Q47.0899 412.301 47.0899 419.905 Q47.0899 427.509 53.1315 431.884 Q59.1211 436.207 69.694 436.207 Q80.2668 436.207 86.3084 431.884 Q92.298 427.509 92.298 419.905 Q92.298 412.301 86.3084 407.978 Q80.2668 403.603 69.694 403.603 Z" fill="#000000" fill-rule="nonzero" fill-opacity="1" /><path clip-path="url(#clip010)" d="M51.6732 332.354 Q45.2149 328.76 42.142 323.76 Q39.0691 318.76 39.0691 311.989 Q39.0691 302.875 45.4753 297.927 Q51.8295 292.979 63.6002 292.979 L98.8084 292.979 L98.8084 302.614 L63.9127 302.614 Q55.5274 302.614 51.4649 305.583 Q47.4024 308.552 47.4024 314.645 Q47.4024 322.093 52.3503 326.416 Q57.2982 330.739 65.8398 330.739 L98.8084 330.739 L98.8084 340.374 L63.9127 340.374 Q55.4753 340.374 51.4649 343.343 Q47.4024 346.312 47.4024 352.51 Q47.4024 359.854 52.4024 364.176 Q57.3503 368.499 65.8398 368.499 L98.8084 368.499 L98.8084 378.135 L40.4754 378.135 L40.4754 368.499 L49.5378 368.499 Q44.1733 365.218 41.6212 360.635 Q39.0691 356.051 39.0691 349.749 Q39.0691 343.395 42.2983 338.968 Q45.5274 334.489 51.6732 332.354 Z" fill="#000000" fill-rule="nonzero" fill-opacity="1" /><path clip-path="url(#clip010)" d="M17.8713 275.375 L17.8713 267.042 Q30.1629 259.229 41.9337 255.375 Q53.7045 251.469 65.319 251.469 Q76.9856 251.469 88.8084 255.375 Q100.631 259.229 112.871 267.042 L112.871 275.375 Q100.944 268.448 89.173 265.062 Q77.3502 261.625 65.319 261.625 Q53.2878 261.625 41.5691 265.062 Q29.8504 268.448 17.8713 275.375 Z" fill="#000000" fill-rule="nonzero" fill-opacity="1" /><path clip-path="url(#clip012)" d="M940.45 649.618 L957.665 723.799 L974.88 722.016 L992.095 737.707 L1009.31 712.405 L1026.53 774.941 L1043.74 719.522 L1060.96 673.475 L1078.17 683.213 L1095.39 748.824 L1112.6 677.411 L1129.82 682.077 L1147.03 692.929 L1164.25 712.236 L1181.46 708.822 L1198.68 787.256 L1215.89 800.23 L1233.11 852.188 L1250.32 751.408 L1267.54 687.57 L1284.75 808.057 L1301.97 735.509 L1319.18 775.844 L1336.4 727.562 L1353.61 766.83 L1370.83 741.202 L1388.04 824.137 L1405.26 723.218 L1422.48 742.312 L1439.69 779.387 L1456.91 730.238 L1474.12 698.145 L1491.34 848.756 L1508.55 726.741 L1525.77 672.385 L1542.98 820.406 L1560.2 697.715 L1577.41 715.505 L1594.63 710.755 L1611.84 832.009 L1629.06 806.529 L1646.27 826.725 L1663.49 726.942 L1680.7 687.59 L1697.92 778.534 L1715.13 734.668 L1732.35 752.007 L1749.56 729.125 L1766.78 767.873 L1783.99 741.993 L1801.21 711.717 L1818.42 729.759 L1835.64 727.183 L1852.86 781.123 L1870.07 732.105 L1887.29 679.734 L1904.5 852.985 L1921.72 738.191 L1938.93 673.853 L1956.15 823.799 L1973.36 712.449 L1990.58 716.195 L2007.79 711.622 L2025.01 822.922 L2042.22 806.575 L2059.44 828.626 L2076.65 727.461 L2093.87 689.765 L2111.08 782.799 L2128.3 735.374 L2145.51 759.759 L2162.73 729.48 L2179.94 768.714 L2197.16 742.716 L2214.37 712.666 L2231.59 731.426 L2248.8 727.94 L2266.02 782.165 L2283.24 733.24 L2300.45 682.765 L2317.67 852.384 L2334.88 737.449 L2352.1 674.583 L2369.31 824.31 L2386.53 710.691 L2403.74 716.198 L2420.96 711.721 L2438.17 825.178 L2455.39 807.344 L2472.6 830.444 L2489.82 727.491 L2507.03 688.885 L2524.25 778.308 L2541.46 735.765 L2558.68 753.519 L2575.89 729.923 L2593.11 769.551 L2610.32 743.594 L2627.54 713.75 L2644.75 732.798 L2661.97 728.68 L2679.19 783.006 L2696.4 734.147 L2713.62 683.336 L2730.83 855.043 L2748.05 737.994 L2765.26 675.402 L2782.48 824.989 L2799.69 713.624 L2816.91 716.459 L2834.12 712.27 L2851.34 826.683 L2868.55 808.052 L2885.77 822.317 L2902.98 732.613 L2920.2 689.557 L2937.41 778.456 L2954.63 736.043 L2971.84 758.372 L2989.06 730.925 L3006.27 770.685 L3023.49 744.376 L3040.7 714.632 L3057.92 731.692 L3075.13 729.451 L3092.35 784.042 L3109.57 735.254 L3126.78 683.09 L3144 854.051 L3161.21 738.229 L3178.43 675.42 L3195.64 825.456 L3212.86 712.048 L3230.07 717.464 L3247.29 712.975 L3264.5 827.065 L3281.72 808.1 L3298.93 823.48 L3316.15 733.15 L3333.36 689.766 L3350.58 778.423 L3367.79 736.522 L3385.01 760.453 L3402.22 731.81 L3419.44 771.768 L3436.65 745.224 L3453.87 715.569 L3471.08 732.74 L3488.3 730.28 L3505.51 784.962 L3522.73 736.281 L3539.95 684.014 L3557.16 856.426 L3574.38 739.439 L3591.59 676.687 L3608.81 826.141 L3626.02 717.577 L3643.24 718.01 L3660.45 713.552 L3677.67 827.479 L3694.88 808.848 L3712.1 820.447 L3729.31 735.842 L3746.53 690.894 L3763.74 780.164 L3780.96 736.877 L3798.17 761.976 L3815.39 732.295 L3832.6 772.557 L3849.82 746.009 L3867.03 716.787 L3884.25 732.575 L3901.46 731.098 L3918.68 785.986 L3935.89 737.391 L3953.11 684.44 L3970.33 857.356 L3987.54 739.665 L4004.76 677.089 L4021.97 826.638 L4039.19 713.391 L4056.4 718.087 L4073.62 713.899 L4090.83 827.966 L4108.05 809.916 L4125.26 824.875 L4142.48 734.79 L4159.69 691.307 L4176.91 777.257 L4194.12 737.368 L4211.34 759.46 L4228.55 733.986 L4245.77 774.053 L4262.98 746.81 L4280.2 717.903 L4297.41 732.607 L4314.63 731.889 L4331.84 786.963 L4349.06 738.437 L4366.27 684.973 L4383.49 855.428 L4400.71 740.233 L4417.92 677.705 L4435.14 827.225 L4452.35 719.545 L4469.57 718.201 L4486.78 714.234 L4504 828.506 L4521.21 809.992 L4538.43 828.168 L4555.64 734.105 L4572.86 691.829 L4590.07 779.107 L4607.29 738.451 L4624.5 760.015 L4641.72 734.164 L4641.72 190.554 L4624.5 98.0884 L4607.29 179.741 L4590.07 216.465 L4572.86 119.088 L4555.64 164.869 L4538.43 134.347 L4521.21 202.142 L4504 231.667 L4486.78 98.353 L4469.57 118.315 L4452.35 149.7 L4435.14 167.458 L4417.92 167.59 L4400.71 105.002 L4383.49 203.781 L4366.27 159.863 L4349.06 117.837 L4331.84 185.499 L4314.63 175.029 L4297.41 234.634 L4280.2 180.864 L4262.98 76.4685 L4245.77 174.112 L4228.55 190.1 L4211.34 97.6983 L4194.12 177.175 L4176.91 216.317 L4159.69 117.309 L4142.48 166.009 L4125.26 133.685 L4108.05 202.288 L4090.83 233.184 L4073.62 99.18 L4056.4 120.55 L4039.19 149.29 L4021.97 168.791 L4004.76 167.106 L3987.54 104.257 L3970.33 201.924 L3953.11 158.701 L3935.89 120.1 L3918.68 183.06 L3901.46 174.542 L3884.25 235.346 L3867.03 178.903 L3849.82 74.8185 L3832.6 173.354 L3815.39 189.682 L3798.17 97.3692 L3780.96 177.875 L3763.74 215.596 L3746.53 120.949 L3729.31 162.604 L3712.1 132.872 L3694.88 201.28 L3677.67 235.442 L3660.45 99.2429 L3643.24 117.273 L3626.02 148.727 L3608.81 164.905 L3591.59 166.679 L3574.38 103.591 L3557.16 203.661 L3539.95 159.339 L3522.73 118.754 L3505.51 184.615 L3488.3 173.544 L3471.08 234.438 L3453.87 181.027 L3436.65 73.2783 L3419.44 172.648 L3402.22 189.21 L3385.01 96.9125 L3367.79 175.209 L3350.58 214.699 L3333.36 117.321 L3316.15 162.864 L3298.93 132.049 L3281.72 201.261 L3264.5 230.804 L3247.29 98.6654 L3230.07 119.449 L3212.86 148.308 L3195.64 169.021 L3178.43 166.07 L3161.21 102.732 L3144 199.693 L3126.78 158.995 L3109.57 115.32 L3092.35 184.507 L3075.13 173.209 L3057.92 234.611 L3040.7 176.368 L3023.49 74.4382 L3006.27 171.969 L2989.06 188.881 L2971.84 96.671 L2954.63 175.945 L2937.41 215.732 L2920.2 119.331 L2902.98 162.489 L2885.77 131.479 L2868.55 199.983 L2851.34 229.826 L2834.12 97.0512 L2816.91 116.086 L2799.69 147.83 L2782.48 161.258 L2765.26 165.9 L2748.05 102.097 L2730.83 202.716 L2713.62 156.97 L2696.4 116.814 L2679.19 182.144 L2661.97 172.226 L2644.75 233.746 L2627.54 180.978 L2610.32 70.8396 L2593.11 171.431 L2575.89 188.094 L2558.68 96.0125 L2541.46 175.969 L2524.25 212.089 L2507.03 116.657 L2489.82 161.826 L2472.6 130.118 L2455.39 199.305 L2438.17 221.687 L2420.96 96.1441 L2403.74 118.29 L2386.53 146.555 L2369.31 168.447 L2352.1 159.527 L2334.88 101.272 L2317.67 199.056 L2300.45 162.739 L2283.24 113.801 L2266.02 183.944 L2248.8 171.468 L2231.59 234.248 L2214.37 172.339 L2197.16 71.9779 L2179.94 171.189 L2162.73 188.811 L2145.51 94.7193 L2128.3 174.841 L2111.08 217.711 L2093.87 115.013 L2076.65 157.446 L2059.44 133.8 L2042.22 200.205 L2025.01 221.85 L2007.79 96.6906 L1990.58 114.514 L1973.36 150.151 L1956.15 152.108 L1938.93 175.367 L1921.72 101.29 L1904.5 202.342 L1887.29 147.148 L1870.07 114.449 L1852.86 178.778 L1835.64 170.663 L1818.42 230.401 L1801.21 188.924 L1783.99 72.8898 L1766.78 170.375 L1749.56 183.914 L1732.35 93.9359 L1715.13 176.925 L1697.92 212.696 L1680.7 115.805 L1663.49 159.7 L1646.27 131.227 L1629.06 198.415 L1611.84 221.159 L1594.63 98.9379 L1577.41 115.728 L1560.2 132.92 L1542.98 178.042 L1525.77 105.999 L1508.55 89.1485 L1491.34 201.696 L1474.12 191.446 L1456.91 108.903 L1439.69 192.393 L1422.48 171.5 L1405.26 231.058 L1388.04 163.798 L1370.83 203.029 L1353.61 163.331 L1336.4 211.972 L1319.18 112.018 L1301.97 168.732 L1284.75 231.65 L1267.54 137.67 L1250.32 134.086 L1233.11 216.562 L1215.89 191.955 L1198.68 196.229 L1181.46 110.405 L1164.25 116.758 L1147.03 200.655 L1129.82 152.372 L1112.6 285.472 L1095.39 227.51 L1078.17 222.28 L1060.96 112.206 L1043.74 268.016 L1026.53 250.154 L1009.31 326.093 L992.095 323.903 L974.88 290.284 L957.665 353.201 L940.45 384.778  Z" fill="#c8c8c8" fill-rule="evenodd" fill-opacity="0.5"/>
<polyline clip-path="url(#clip012)" style="stroke:#c8c8c8; stroke-linecap:round; stroke-linejoin:round; stroke-width:0; stroke-opacity:1; fill:none" points="940.45,477.128 957.665,502.47 974.88,497.567 992.095,493.175 1009.31,490.476 1026.53,487.188 1043.74,484.383 1060.96,481.293 1078.17,480.499 1095.39,479.751 1112.6,477.716 1129.82,475.287 1147.03,475.548 1164.25,476.239 1181.46,478.502 1198.68,481.592 1215.89,483.405 1233.11,483.222 1250.32,481.015 1267.54,478.674 1284.75,477.855 1301.97,479.075 1319.18,480.064 1336.4,482.177 1353.61,482.561 1370.83,482.554 1388.04,482.668 1405.26,482.354 1422.48,481.743 1439.69,481.2 1456.91,480.215 1474.12,481.755 1491.34,482.359 1508.55,479.095 1525.77,476.992 1542.98,476.414 1560.2,477.905 1577.41,478.551 1594.63,479.223 1611.84,481.835 1629.06,483.122 1646.27,482.28 1663.49,480.268 1680.7,478.759 1697.92,478.081 1715.13,479.145 1732.35,480.005 1749.56,482.063 1766.78,482.622 1783.99,482.113 1801.21,482.675 1818.42,482.661 1835.64,481.924 1852.86,481.112 1870.07,480.074 1887.29,481.074 1904.5,482.113 1921.72,479.674 1938.93,478.334 1956.15,476.563 1973.36,477.561 1990.58,478.437 2007.79,479.436 2025.01,481.919 2042.22,483.13 2059.44,482.498 2076.65,480.63 2093.87,478.897 2111.08,478.101 2128.3,479.285 2145.51,480.166 2162.73,482.145 2179.94,482.67 2197.16,482.178 2214.37,482.723 2231.59,482.82 2248.8,482.054 2266.02,481.359 2283.24,480.354 2300.45,481.469 2317.67,482.338 2334.88,479.579 2352.1,477.934 2369.31,476.608 2386.53,477.897 2403.74,478.757 2420.96,479.506 2438.17,482.09 2455.39,483.392 2472.6,482.605 2489.82,480.711 2507.03,479.039 2524.25,478.262 2541.46,479.368 2558.68,480.273 2575.89,482.312 2593.11,482.869 2610.32,482.35 2627.54,482.842 2644.75,482.935 2661.97,482.173 2679.19,481.409 2696.4,480.381 2713.62,481.488 2730.83,482.466 2748.05,479.88 2765.26,478.411 2782.48,476.814 2799.69,477.946 2816.91,478.8 2834.12,479.723 2851.34,482.261 2868.55,483.447 2885.77,482.737 2902.98,480.871 2920.2,479.15 2937.41,478.392 2954.63,479.564 2971.84,480.478 2989.06,482.454 3006.27,482.966 3023.49,482.467 3040.7,482.983 3057.92,483.113 3075.13,482.337 3092.35,481.593 3109.57,480.559 3126.78,481.694 3144,482.617 3161.21,479.94 3178.43,478.367 3195.64,476.912 3212.86,478.126 3230.07,479.025 3247.29,479.833 3264.5,482.378 3281.72,483.614 3298.93,482.897 3316.15,481.012 3333.36,479.322 3350.58,478.527 3367.79,479.695 3385.01,480.565 3402.22,482.593 3419.44,483.105 3436.65,482.614 3453.87,483.143 3471.08,483.2 3488.3,482.454 3505.51,481.687 3522.73,480.68 3539.95,481.797 3557.16,482.762 3574.38,480.159 3591.59,478.642 3608.81,477.121 3626.02,478.259 3643.24,479.122 3660.45,479.984 3677.67,482.518 3694.88,483.706 3712.1,483.016 3729.31,481.143 3746.53,479.459 3763.74,478.691 3780.96,479.865 3798.17,480.759 3815.39,482.739 3832.6,483.247 3849.82,482.775 3867.03,483.289 3884.25,483.363 3901.46,482.636 3918.68,481.869 3935.89,480.864 3953.11,481.937 3970.33,482.899 3987.54,480.254 4004.76,478.689 4021.97,477.16 4039.19,478.399 4056.4,479.3 4073.62,480.133 4090.83,482.661 4108.05,483.892 4125.26,483.186 4142.48,481.297 4159.69,479.587 4176.91,478.812 4194.12,479.969 4211.34,480.859 4228.55,482.871 4245.77,483.391 4262.98,482.917 4280.2,483.44 4297.41,483.522 4314.63,482.779 4331.84,482.015 4349.06,480.999 4366.27,482.091 4383.49,483.005 4400.71,480.39 4417.92,478.937 4435.14,477.363 4452.35,478.536 4469.57,479.42 4486.78,480.279 4504,482.809 4521.21,484.013 4538.43,483.292 4555.64,481.424 4572.86,479.718 4590.07,478.94 4607.29,480.105 4624.5,481.01 4641.72,483.034 "/>
<path clip-path="url(#clip012)" d="M940.45 537.596 L957.665 592.805 L974.88 592.108 L992.095 576.344 L1009.31 587.901 L1026.53 590.199 L1043.74 579.399 L1060.96 584.285 L1078.17 581.737 L1095.39 572.433 L1112.6 568.783 L1129.82 569.599 L1147.03 576.114 L1164.25 563.829 L1181.46 580.189 L1198.68 593.441 L1215.89 606.835 L1233.11 611.063 L1250.32 593.892 L1267.54 579.887 L1284.75 552.942 L1301.97 572.028 L1319.18 580.947 L1336.4 583.784 L1353.61 594.17 L1370.83 582.962 L1388.04 596.297 L1405.26 575.176 L1422.48 583.948 L1439.69 570.056 L1456.91 579.008 L1474.12 598.742 L1491.34 599.541 L1508.55 584.489 L1525.77 572.146 L1542.98 569.794 L1560.2 585.252 L1577.41 590.549 L1594.63 589.122 L1611.84 597.51 L1629.06 604.242 L1646.27 609.873 L1663.49 592.624 L1680.7 576.755 L1697.92 559.279 L1715.13 577.671 L1732.35 582.422 L1749.56 583.124 L1766.78 600.157 L1783.99 588.601 L1801.21 592.734 L1818.42 573.371 L1835.64 584.373 L1852.86 574.339 L1870.07 582.322 L1887.29 592.371 L1904.5 599.402 L1921.72 582.24 L1938.93 576.955 L1956.15 574.024 L1973.36 581.246 L1990.58 591.142 L2007.79 592.887 L2025.01 597.856 L2042.22 604.408 L2059.44 610.35 L2076.65 593.317 L2093.87 578.975 L2111.08 559.37 L2128.3 575.119 L2145.51 589.1 L2162.73 583.95 L2179.94 597.739 L2197.16 587.326 L2214.37 594.007 L2231.59 572.72 L2248.8 584.733 L2266.02 574.474 L2283.24 581.155 L2300.45 598.305 L2317.67 599.942 L2334.88 585.545 L2352.1 575.035 L2369.31 573.412 L2386.53 586.981 L2403.74 591.876 L2420.96 594.858 L2438.17 598.466 L2455.39 604.926 L2472.6 610.64 L2489.82 593.972 L2507.03 579.301 L2524.25 559.993 L2541.46 574.674 L2558.68 583.664 L2575.89 584.2 L2593.11 599.715 L2610.32 588.226 L2627.54 593.65 L2644.75 572.008 L2661.97 585.181 L2679.19 574.835 L2696.4 581.745 L2713.62 593.935 L2730.83 600.314 L2748.05 583.03 L2765.26 576.337 L2782.48 573.981 L2799.69 582.594 L2816.91 592.742 L2834.12 595.196 L2851.34 598.639 L2868.55 605.203 L2885.77 610.973 L2902.98 594.401 L2920.2 580.114 L2937.41 560.097 L2954.63 575.997 L2971.84 585.191 L2989.06 584.78 L3006.27 599.306 L3023.49 588.622 L3040.7 594.3 L3057.92 572.859 L3075.13 585.593 L3092.35 575.33 L3109.57 581.555 L3126.78 597.971 L3144 600.783 L3161.21 583.63 L3178.43 576.357 L3195.64 573.8 L3212.86 583.094 L3230.07 593.409 L3247.29 596.052 L3264.5 599.059 L3281.72 605.691 L3298.93 611.502 L3316.15 594.877 L3333.36 580.771 L3350.58 560.345 L3367.79 576.449 L3385.01 585.102 L3402.22 585.187 L3419.44 600.313 L3436.65 589.153 L3453.87 595.153 L3471.08 572.873 L3488.3 585.929 L3505.51 576.011 L3522.73 582.104 L3539.95 597.233 L3557.16 601.301 L3574.38 585.65 L3591.59 576.428 L3608.81 574.874 L3626.02 583.571 L3643.24 594.325 L3660.45 596.73 L3677.67 599.544 L3694.88 606.074 L3712.1 611.741 L3729.31 595.097 L3746.53 581.317 L3763.74 560.781 L3780.96 576.897 L3798.17 585.295 L3815.39 585.708 L3832.6 600.606 L3849.82 589.541 L3867.03 595.867 L3884.25 574.053 L3901.46 586.456 L3918.68 576.92 L3935.89 582.824 L3953.11 597.671 L3970.33 601.711 L3987.54 584.727 L4004.76 577.954 L4021.97 573.653 L4039.19 584.05 L4056.4 594.99 L4073.62 597.521 L4090.83 599.931 L4108.05 606.505 L4125.26 611.994 L4142.48 595.589 L4159.69 581.524 L4176.91 561.064 L4194.12 577.337 L4211.34 586.24 L4228.55 585.881 L4245.77 601.234 L4262.98 589.975 L4280.2 596.539 L4297.41 573.755 L4314.63 586.874 L4331.84 577.715 L4349.06 582.908 L4366.27 597.944 L4383.49 602.069 L4400.71 585.232 L4417.92 577.501 L4435.14 576.109 L4452.35 584.546 L4469.57 595.847 L4486.78 598.272 L4504 600.251 L4521.21 606.978 L4538.43 612.395 L4555.64 595.992 L4572.86 582.407 L4590.07 561.352 L4607.29 577.758 L4624.5 586.852 L4641.72 585.274 L4641.72 375.93 L4624.5 370.353 L4607.29 376.283 L4590.07 378.582 L4572.86 364.716 L4555.64 376.725 L4538.43 381.995 L4521.21 363.722 L4504 367.319 L4486.78 376.208 L4469.57 365.477 L4452.35 376.917 L4435.14 363.554 L4417.92 354.543 L4400.71 382.71 L4383.49 394.923 L4366.27 378.337 L4349.06 377.063 L4331.84 377.387 L4314.63 370.221 L4297.41 364.984 L4280.2 368.531 L4262.98 374.034 L4245.77 363.88 L4228.55 375.53 L4211.34 369.627 L4194.12 375.629 L4176.91 378.259 L4159.69 362.261 L4142.48 376.374 L4125.26 381.809 L4108.05 363.161 L4090.83 366.784 L4073.62 375.862 L4056.4 365.305 L4039.19 376.454 L4021.97 362.998 L4004.76 354.369 L3987.54 382.217 L3970.33 394.923 L3953.11 377.59 L3935.89 376.573 L3918.68 376.973 L3901.46 369.758 L3884.25 363.85 L3867.03 368.351 L3849.82 373.15 L3832.6 363.589 L3815.39 374.96 L3798.17 369.448 L3780.96 375.064 L3763.74 377.979 L3746.53 365.83 L3729.31 375.555 L3712.1 380.984 L3694.88 362.566 L3677.67 366.478 L3660.45 375.803 L3643.24 364.341 L3626.02 376.229 L3608.81 362.877 L3591.59 352.406 L3574.38 381.508 L3557.16 395.715 L3539.95 377.555 L3522.73 375.671 L3505.51 376.266 L3488.3 369.536 L3471.08 363.407 L3453.87 367.634 L3436.65 372.909 L3419.44 363.138 L3402.22 374.522 L3385.01 368.824 L3367.79 374.413 L3350.58 377.601 L3333.36 364.323 L3316.15 375.61 L3298.93 380.753 L3281.72 362.256 L3264.5 366.039 L3247.29 375.167 L3230.07 363.972 L3212.86 375.837 L3195.64 362.174 L3178.43 352.019 L3161.21 379.162 L3144 393.785 L3126.78 377.277 L3109.57 375.388 L3092.35 375.33 L3075.13 369.189 L3057.92 364.698 L3040.7 367.537 L3023.49 372.308 L3006.27 362.706 L2989.06 374.08 L2971.84 368.494 L2954.63 373.867 L2937.41 377.158 L2920.2 363.702 L2902.98 375.225 L2885.77 379.978 L2868.55 361.81 L2851.34 365.861 L2834.12 374.901 L2816.91 363.917 L2799.69 375.272 L2782.48 361.877 L2765.26 352.398 L2748.05 380.558 L2730.83 390.08 L2713.62 376.771 L2696.4 374.931 L2679.19 375.331 L2661.97 369.318 L2644.75 363.534 L2627.54 366.638 L2610.32 371.866 L2593.11 362.389 L2575.89 373.559 L2558.68 367.252 L2541.46 373.184 L2524.25 376.805 L2507.03 363.551 L2489.82 374.587 L2472.6 379.513 L2455.39 361.435 L2438.17 365.673 L2420.96 374.467 L2403.74 364.2 L2386.53 375.053 L2369.31 361.268 L2352.1 350.805 L2334.88 372.48 L2317.67 394.538 L2300.45 376.391 L2283.24 374.661 L2266.02 374.756 L2248.8 369.579 L2231.59 362.9 L2214.37 365.584 L2197.16 371.181 L2179.94 361.812 L2162.73 373.068 L2145.51 367.385 L2128.3 372.736 L2111.08 376.324 L2093.87 368.321 L2076.65 374.158 L2059.44 378.734 L2042.22 361.025 L2025.01 363.84 L2007.79 374.247 L1990.58 363.297 L1973.36 373.415 L1956.15 361.44 L1938.93 351.654 L1921.72 379.528 L1904.5 385.166 L1887.29 376.506 L1870.07 374.321 L1852.86 374.662 L1835.64 369.281 L1818.42 362.181 L1801.21 364.772 L1783.99 370.961 L1766.78 361.524 L1749.56 373.019 L1732.35 367.543 L1715.13 369.079 L1697.92 375.515 L1680.7 363.804 L1663.49 373.724 L1646.27 378.949 L1629.06 362.667 L1611.84 364.557 L1594.63 375.263 L1577.41 361.679 L1560.2 368.838 L1542.98 364.78 L1525.77 347.847 L1508.55 372.269 L1491.34 392.413 L1474.12 379.981 L1456.91 377.061 L1439.69 382.276 L1422.48 368.491 L1405.26 368.461 L1388.04 364.536 L1370.83 367.874 L1353.61 362.192 L1336.4 375.816 L1319.18 371.739 L1301.97 375.631 L1284.75 374.169 L1267.54 370.583 L1250.32 377.961 L1233.11 374.006 L1215.89 364.562 L1198.68 361.222 L1181.46 375.91 L1164.25 362.485 L1147.03 355.186 L1129.82 367.435 L1112.6 376.664 L1095.39 391.631 L1078.17 402.553 L1060.96 404.736 L1043.74 408.908 L1026.53 417.023 L1009.31 429.863 L992.095 441.213 L974.88 459.521 L957.665 474.572 L940.45 436.622  Z" fill="#525252" fill-rule="evenodd" fill-opacity="0.5"/>
<polyline clip-path="url(#clip012)" style="stroke:#525252; stroke-linecap:round; stroke-linejoin:round; stroke-width:0; stroke-opacity:1; fill:none" points="940.45,477.128 957.665,502.47 974.88,497.567 992.095,493.175 1009.31,490.476 1026.53,487.188 1043.74,484.383 1060.96,481.293 1078.17,480.499 1095.39,479.751 1112.6,477.716 1129.82,475.287 1147.03,475.548 1164.25,476.239 1181.46,478.502 1198.68,481.592 1215.89,483.405 1233.11,483.222 1250.32,481.015 1267.54,478.674 1284.75,477.855 1301.97,479.075 1319.18,480.064 1336.4,482.177 1353.61,482.561 1370.83,482.554 1388.04,482.668 1405.26,482.354 1422.48,481.743 1439.69,481.2 1456.91,480.215 1474.12,481.755 1491.34,482.359 1508.55,479.095 1525.77,476.992 1542.98,476.414 1560.2,477.905 1577.41,478.551 1594.63,479.223 1611.84,481.835 1629.06,483.122 1646.27,482.28 1663.49,480.268 1680.7,478.759 1697.92,478.081 1715.13,479.145 1732.35,480.005 1749.56,482.063 1766.78,482.622 1783.99,482.113 1801.21,482.675 1818.42,482.661 1835.64,481.924 1852.86,481.112 1870.07,480.074 1887.29,481.074 1904.5,482.113 1921.72,479.674 1938.93,478.334 1956.15,476.563 1973.36,477.561 1990.58,478.437 2007.79,479.436 2025.01,481.919 2042.22,483.13 2059.44,482.498 2076.65,480.63 2093.87,478.897 2111.08,478.101 2128.3,479.285 2145.51,480.166 2162.73,482.145 2179.94,482.67 2197.16,482.178 2214.37,482.723 2231.59,482.82 2248.8,482.054 2266.02,481.359 2283.24,480.354 2300.45,481.469 2317.67,482.338 2334.88,479.579 2352.1,477.934 2369.31,476.608 2386.53,477.897 2403.74,478.757 2420.96,479.506 2438.17,482.09 2455.39,483.392 2472.6,482.605 2489.82,480.711 2507.03,479.039 2524.25,478.262 2541.46,479.368 2558.68,480.273 2575.89,482.312 2593.11,482.869 2610.32,482.35 2627.54,482.842 2644.75,482.935 2661.97,482.173 2679.19,481.409 2696.4,480.381 2713.62,481.488 2730.83,482.466 2748.05,479.88 2765.26,478.411 2782.48,476.814 2799.69,477.946 2816.91,478.8 2834.12,479.723 2851.34,482.261 2868.55,483.447 2885.77,482.737 2902.98,480.871 2920.2,479.15 2937.41,478.392 2954.63,479.564 2971.84,480.478 2989.06,482.454 3006.27,482.966 3023.49,482.467 3040.7,482.983 3057.92,483.113 3075.13,482.337 3092.35,481.593 3109.57,480.559 3126.78,481.694 3144,482.617 3161.21,479.94 3178.43,478.367 3195.64,476.912 3212.86,478.126 3230.07,479.025 3247.29,479.833 3264.5,482.378 3281.72,483.614 3298.93,482.897 3316.15,481.012 3333.36,479.322 3350.58,478.527 3367.79,479.695 3385.01,480.565 3402.22,482.593 3419.44,483.105 3436.65,482.614 3453.87,483.143 3471.08,483.2 3488.3,482.454 3505.51,481.687 3522.73,480.68 3539.95,481.797 3557.16,482.762 3574.38,480.159 3591.59,478.642 3608.81,477.121 3626.02,478.259 3643.24,479.122 3660.45,479.984 3677.67,482.518 3694.88,483.706 3712.1,483.016 3729.31,481.143 3746.53,479.459 3763.74,478.691 3780.96,479.865 3798.17,480.759 3815.39,482.739 3832.6,483.247 3849.82,482.775 3867.03,483.289 3884.25,483.363 3901.46,482.636 3918.68,481.869 3935.89,480.864 3953.11,481.937 3970.33,482.899 3987.54,480.254 4004.76,478.689 4021.97,477.16 4039.19,478.399 4056.4,479.3 4073.62,480.133 4090.83,482.661 4108.05,483.892 4125.26,483.186 4142.48,481.297 4159.69,479.587 4176.91,478.812 4194.12,479.969 4211.34,480.859 4228.55,482.871 4245.77,483.391 4262.98,482.917 4280.2,483.44 4297.41,483.522 4314.63,482.779 4331.84,482.015 4349.06,480.999 4366.27,482.091 4383.49,483.005 4400.71,480.39 4417.92,478.937 4435.14,477.363 4452.35,478.536 4469.57,479.42 4486.78,480.279 4504,482.809 4521.21,484.013 4538.43,483.292 4555.64,481.424 4572.86,479.718 4590.07,478.94 4607.29,480.105 4624.5,481.01 4641.72,483.034 "/>
<path clip-path="url(#clip012)" d="M940.45 512.23 L957.665 572.211 L974.88 570.123 L992.095 557.987 L1009.31 561.367 L1026.53 558.512 L1043.74 547.725 L1060.96 545.921 L1078.17 541.71 L1095.39 540.167 L1112.6 540.35 L1129.82 529.759 L1147.03 533.302 L1164.25 525.287 L1181.46 536.997 L1198.68 559.158 L1215.89 554.367 L1233.11 561.696 L1250.32 551.916 L1267.54 539.218 L1284.75 531.193 L1301.97 535.869 L1319.18 538.65 L1336.4 546.881 L1353.61 551.805 L1370.83 549.749 L1388.04 548.385 L1405.26 543.124 L1422.48 546.977 L1439.69 551.372 L1456.91 546.377 L1474.12 555.508 L1491.34 549.409 L1508.55 549.509 L1525.77 545.469 L1542.98 537.054 L1560.2 538.791 L1577.41 539.686 L1594.63 544.714 L1611.84 557.198 L1629.06 548.173 L1646.27 558.439 L1663.49 551.474 L1680.7 541.764 L1697.92 532.09 L1715.13 540.676 L1732.35 538.066 L1749.56 550.47 L1766.78 551.535 L1783.99 550.861 L1801.21 550.421 L1818.42 544.135 L1835.64 549.974 L1852.86 551.409 L1870.07 546.517 L1887.29 555.325 L1904.5 549.219 L1921.72 552.825 L1938.93 551.021 L1956.15 540.032 L1973.36 538.371 L1990.58 539.308 L2007.79 545.393 L2025.01 561.237 L2042.22 551.166 L2059.44 556.955 L2076.65 551.645 L2093.87 542.222 L2111.08 532.632 L2128.3 539.675 L2145.51 539.097 L2162.73 550.811 L2179.94 551.504 L2197.16 551.119 L2214.37 550.542 L2231.59 544.618 L2248.8 550.111 L2266.02 551.941 L2283.24 547.638 L2300.45 556.025 L2317.67 549.59 L2334.88 553.403 L2352.1 550.695 L2369.31 540.603 L2386.53 538.284 L2403.74 540.832 L2420.96 545.738 L2438.17 561.927 L2455.39 552.256 L2472.6 558.05 L2489.82 551.9 L2507.03 542.513 L2524.25 532.737 L2541.46 540.088 L2558.68 539.284 L2575.89 550.709 L2593.11 552.078 L2610.32 551.808 L2627.54 550.394 L2644.75 545.197 L2661.97 550.241 L2679.19 552.365 L2696.4 547.3 L2713.62 556.065 L2730.83 550.055 L2748.05 553.795 L2765.26 551.932 L2782.48 540.841 L2799.69 539.128 L2816.91 539.891 L2834.12 546.366 L2851.34 562.077 L2868.55 552.366 L2885.77 558.069 L2902.98 552.634 L2920.2 542.881 L2937.41 533.688 L2954.63 540.367 L2971.84 539.856 L2989.06 550.807 L3006.27 552.349 L3023.49 551.82 L3040.7 550.886 L3057.92 545.511 L3075.13 550.91 L3092.35 552.857 L3109.57 547.778 L3126.78 556.571 L3144 550.49 L3161.21 554.129 L3178.43 551.682 L3195.64 541.459 L3212.86 539.572 L3230.07 542.355 L3247.29 546.563 L3264.5 562.689 L3281.72 552.718 L3298.93 559.016 L3316.15 552.823 L3333.36 543.251 L3350.58 534.04 L3367.79 540.683 L3385.01 540.133 L3402.22 551.272 L3419.44 551.459 L3436.65 552.474 L3453.87 551.188 L3471.08 546.16 L3488.3 550.925 L3505.51 553.203 L3522.73 548.33 L3539.95 556.864 L3557.16 551.015 L3574.38 554.527 L3591.59 552.928 L3608.81 542.037 L3626.02 539.926 L3643.24 541.803 L3660.45 546.978 L3677.67 563.262 L3694.88 553.268 L3712.1 559.191 L3729.31 553.25 L3746.53 543.597 L3763.74 534.548 L3780.96 541.032 L3798.17 540.609 L3815.39 552.073 L3832.6 552.03 L3849.82 552.526 L3867.03 551.708 L3884.25 546.655 L3901.46 551.579 L3918.68 553.827 L3935.89 548.764 L3953.11 557.234 L3970.33 551.37 L3987.54 554.774 L4004.76 552.358 L4021.97 542.292 L4039.19 540.387 L4056.4 542.739 L4073.62 547.347 L4090.83 563.058 L4108.05 553.84 L4125.26 559.721 L4142.48 552.921 L4159.69 543.95 L4176.91 534.398 L4194.12 541.303 L4211.34 540.897 L4228.55 552.172 L4245.77 553.227 L4262.98 552.832 L4280.2 552.123 L4297.41 546.932 L4314.63 551.726 L4331.84 554.275 L4349.06 548.815 L4366.27 557.607 L4383.49 551.783 L4400.71 555.239 L4417.92 553.571 L4435.14 542.63 L4452.35 540.783 L4469.57 542.705 L4486.78 547.758 L4504 563.943 L4521.21 553.657 L4538.43 560.153 L4555.64 553.469 L4572.86 544.277 L4590.07 535.123 L4607.29 541.622 L4624.5 541.215 L4641.72 552.902 L4641.72 429.033 L4624.5 417.135 L4607.29 420.415 L4590.07 411.926 L4572.86 418.455 L4555.64 419.81 L4538.43 411.204 L4521.21 422.911 L4504 420.452 L4486.78 427.776 L4469.57 413.666 L4452.35 415.533 L4435.14 411.075 L4417.92 418.105 L4400.71 426.591 L4383.49 424.729 L4366.27 431.649 L4349.06 421.652 L4331.84 428.122 L4314.63 422.795 L4297.41 431.812 L4280.2 426.569 L4262.98 420.569 L4245.77 420.087 L4228.55 428.711 L4211.34 416.786 L4194.12 420.645 L4176.91 411.317 L4159.69 417.987 L4142.48 419.479 L4125.26 411.068 L4108.05 422.329 L4090.83 420.116 L4073.62 427.294 L4056.4 414.307 L4039.19 415.288 L4021.97 410.595 L4004.76 415.59 L3987.54 426.018 L3970.33 424.52 L3953.11 431.209 L3935.89 419.952 L3918.68 426.528 L3901.46 423.396 L3884.25 431.567 L3867.03 426.141 L3849.82 420.459 L3832.6 419.686 L3815.39 428.27 L3798.17 416.733 L3780.96 420.021 L3763.74 410.726 L3746.53 417.565 L3729.31 419.003 L3712.1 410.35 L3694.88 422.094 L3677.67 419.753 L3660.45 426.937 L3643.24 413.344 L3626.02 414.913 L3608.81 410.343 L3591.59 417.141 L3574.38 425.608 L3557.16 424.264 L3539.95 430.268 L3522.73 420.809 L3505.51 426.445 L3488.3 422.091 L3471.08 431.342 L3453.87 425.694 L3436.65 419.998 L3419.44 419.355 L3402.22 427.977 L3385.01 415.865 L3367.79 419.407 L3350.58 410.223 L3333.36 417.155 L3316.15 418.654 L3298.93 410.292 L3281.72 421.602 L3264.5 419.347 L3247.29 426.57 L3230.07 413.433 L3212.86 414.216 L3195.64 410.094 L3178.43 416.47 L3161.21 425.209 L3144 424.023 L3126.78 430.237 L3109.57 420.316 L3092.35 424.581 L3075.13 421.672 L3057.92 430.775 L3040.7 425.236 L3023.49 419.799 L3006.27 419 L2989.06 427.4 L2971.84 415.709 L2954.63 418.731 L2937.41 409.742 L2920.2 416.422 L2902.98 418.254 L2885.77 409.872 L2868.55 421.325 L2851.34 419.009 L2834.12 426.225 L2816.91 412.3 L2799.69 414.2 L2782.48 409.95 L2765.26 416.284 L2748.05 425.006 L2730.83 423.817 L2713.62 429.551 L2696.4 418.65 L2679.19 424.962 L2661.97 421.344 L2644.75 430.623 L2627.54 424.791 L2610.32 419.261 L2593.11 418.609 L2575.89 427.339 L2558.68 415.325 L2541.46 418.036 L2524.25 409.253 L2507.03 415.985 L2489.82 417.803 L2472.6 409.691 L2455.39 420.923 L2438.17 418.469 L2420.96 425.891 L2403.74 412.937 L2386.53 413.555 L2369.31 409.647 L2352.1 414.745 L2334.88 424.475 L2317.67 423.683 L2300.45 429.246 L2283.24 419.626 L2266.02 424.336 L2248.8 421.595 L2231.59 429.136 L2214.37 424.476 L2197.16 418.56 L2179.94 418.066 L2162.73 426.277 L2145.51 413.98 L2128.3 418.83 L2111.08 410.21 L2093.87 415.606 L2076.65 417.472 L2059.44 409.301 L2042.22 420.387 L2025.01 418.099 L2007.79 425.697 L1990.58 413.837 L1973.36 412.128 L1956.15 409.457 L1938.93 416.584 L1921.72 428.243 L1904.5 422.14 L1887.29 428.254 L1870.07 417.821 L1852.86 423.572 L1835.64 420.809 L1818.42 429.827 L1801.21 423.964 L1783.99 422.142 L1766.78 418.371 L1749.56 427.11 L1732.35 414.968 L1715.13 417.448 L1697.92 408.186 L1680.7 415.192 L1663.49 414.314 L1646.27 408.843 L1629.06 420.11 L1611.84 418.092 L1594.63 425.474 L1577.41 411.075 L1560.2 413.639 L1542.98 409.514 L1525.77 412.461 L1508.55 423.639 L1491.34 424.276 L1474.12 428.362 L1456.91 419.43 L1439.69 422.716 L1422.48 421.076 L1405.26 425.612 L1388.04 419.972 L1370.83 415.465 L1353.61 417.696 L1336.4 423.305 L1319.18 414.127 L1301.97 420.857 L1284.75 409.566 L1267.54 419.116 L1250.32 418.247 L1233.11 406.515 L1215.89 419.609 L1198.68 415.406 L1181.46 423.7 L1164.25 411.601 L1147.03 409.418 L1129.82 405.685 L1112.6 412.51 L1095.39 429.909 L1078.17 431.523 L1060.96 436.038 L1043.74 439.932 L1026.53 450.941 L1009.31 460.166 L992.095 468.052 L974.88 476.176 L957.665 489.533 L940.45 445.159  Z" fill="#000000" fill-rule="evenodd" fill-opacity="0.5"/>
<polyline clip-path="url(#clip012)" style="stroke:#000000; stroke-linecap:round; stroke-linejoin:round; stroke-width:0; stroke-opacity:1; fill:none" points="940.45,477.128 957.665,502.47 974.88,497.567 992.095,493.175 1009.31,490.476 1026.53,487.188 1043.74,484.383 1060.96,481.293 1078.17,480.499 1095.39,479.751 1112.6,477.716 1129.82,475.287 1147.03,475.548 1164.25,476.239 1181.46,478.502 1198.68,481.592 1215.89,483.405 1233.11,483.222 1250.32,481.015 1267.54,478.674 1284.75,477.855 1301.97,479.075 1319.18,480.064 1336.4,482.177 1353.61,482.561 1370.83,482.554 1388.04,482.668 1405.26,482.354 1422.48,481.743 1439.69,481.2 1456.91,480.215 1474.12,481.755 1491.34,482.359 1508.55,479.095 1525.77,476.992 1542.98,476.414 1560.2,477.905 1577.41,478.551 1594.63,479.223 1611.84,481.835 1629.06,483.122 1646.27,482.28 1663.49,480.268 1680.7,478.759 1697.92,478.081 1715.13,479.145 1732.35,480.005 1749.56,482.063 1766.78,482.622 1783.99,482.113 1801.21,482.675 1818.42,482.661 1835.64,481.924 1852.86,481.112 1870.07,480.074 1887.29,481.074 1904.5,482.113 1921.72,479.674 1938.93,478.334 1956.15,476.563 1973.36,477.561 1990.58,478.437 2007.79,479.436 2025.01,481.919 2042.22,483.13 2059.44,482.498 2076.65,480.63 2093.87,478.897 2111.08,478.101 2128.3,479.285 2145.51,480.166 2162.73,482.145 2179.94,482.67 2197.16,482.178 2214.37,482.723 2231.59,482.82 2248.8,482.054 2266.02,481.359 2283.24,480.354 2300.45,481.469 2317.67,482.338 2334.88,479.579 2352.1,477.934 2369.31,476.608 2386.53,477.897 2403.74,478.757 2420.96,479.506 2438.17,482.09 2455.39,483.392 2472.6,482.605 2489.82,480.711 2507.03,479.039 2524.25,478.262 2541.46,479.368 2558.68,480.273 2575.89,482.312 2593.11,482.869 2610.32,482.35 2627.54,482.842 2644.75,482.935 2661.97,482.173 2679.19,481.409 2696.4,480.381 2713.62,481.488 2730.83,482.466 2748.05,479.88 2765.26,478.411 2782.48,476.814 2799.69,477.946 2816.91,478.8 2834.12,479.723 2851.34,482.261 2868.55,483.447 2885.77,482.737 2902.98,480.871 2920.2,479.15 2937.41,478.392 2954.63,479.564 2971.84,480.478 2989.06,482.454 3006.27,482.966 3023.49,482.467 3040.7,482.983 3057.92,483.113 3075.13,482.337 3092.35,481.593 3109.57,480.559 3126.78,481.694 3144,482.617 3161.21,479.94 3178.43,478.367 3195.64,476.912 3212.86,478.126 3230.07,479.025 3247.29,479.833 3264.5,482.378 3281.72,483.614 3298.93,482.897 3316.15,481.012 3333.36,479.322 3350.58,478.527 3367.79,479.695 3385.01,480.565 3402.22,482.593 3419.44,483.105 3436.65,482.614 3453.87,483.143 3471.08,483.2 3488.3,482.454 3505.51,481.687 3522.73,480.68 3539.95,481.797 3557.16,482.762 3574.38,480.159 3591.59,478.642 3608.81,477.121 3626.02,478.259 3643.24,479.122 3660.45,479.984 3677.67,482.518 3694.88,483.706 3712.1,483.016 3729.31,481.143 3746.53,479.459 3763.74,478.691 3780.96,479.865 3798.17,480.759 3815.39,482.739 3832.6,483.247 3849.82,482.775 3867.03,483.289 3884.25,483.363 3901.46,482.636 3918.68,481.869 3935.89,480.864 3953.11,481.937 3970.33,482.899 3987.54,480.254 4004.76,478.689 4021.97,477.16 4039.19,478.399 4056.4,479.3 4073.62,480.133 4090.83,482.661 4108.05,483.892 4125.26,483.186 4142.48,481.297 4159.69,479.587 4176.91,478.812 4194.12,479.969 4211.34,480.859 4228.55,482.871 4245.77,483.391 4262.98,482.917 4280.2,483.44 4297.41,483.522 4314.63,482.779 4331.84,482.015 4349.06,480.999 4366.27,482.091 4383.49,483.005 4400.71,480.39 4417.92,478.937 4435.14,477.363 4452.35,478.536 4469.57,479.42 4486.78,480.279 4504,482.809 4521.21,484.013 4538.43,483.292 4555.64,481.424 4572.86,479.718 4590.07,478.94 4607.29,480.105 4624.5,481.01 4641.72,483.034 "/>
<path clip-path="url(#clip010)" d="M3910.37 593.434 L4621.98 593.434 L4621.98 75.0343 L3910.37 75.0343  Z" fill="#ffffff" fill-rule="evenodd" fill-opacity="1"/>
<polyline clip-path="url(#clip010)" style="stroke:#000000; stroke-linecap:round; stroke-linejoin:round; stroke-width:4; stroke-opacity:1; fill:none" points="3910.37,593.434 4621.98,593.434 4621.98,75.0343 3910.37,75.0343 3910.37,593.434 "/>
<polyline clip-path="url(#clip010)" style="stroke:#c8c8c8; stroke-linecap:round; stroke-linejoin:round; stroke-width:2; stroke-opacity:1; fill:none" points="3953.97,204.634 4215.52,204.634 "/>
<path clip-path="url(#clip010)" d="M4260.79 237.996 L4279.89 237.996 L4279.89 172.082 L4259.12 176.249 L4259.12 165.601 L4279.78 161.434 L4291.47 161.434 L4291.47 237.996 L4310.56 237.996 L4310.56 247.834 L4260.79 247.834 L4260.79 237.996 Z" fill="#000000" fill-rule="nonzero" fill-opacity="1" /><path clip-path="url(#clip010)" d="M4359.17 169.131 Q4350.15 169.131 4345.57 178.043 Q4341.06 186.897 4341.06 204.721 Q4341.06 222.487 4345.57 231.399 Q4350.15 240.253 4359.17 240.253 Q4368.26 240.253 4372.77 231.399 Q4377.34 222.487 4377.34 204.721 Q4377.34 186.897 4372.77 178.043 Q4368.26 169.131 4359.17 169.131 M4359.17 159.872 Q4373.7 159.872 4381.34 171.388 Q4389.03 182.846 4389.03 204.721 Q4389.03 226.538 4381.34 238.054 Q4373.7 249.513 4359.17 249.513 Q4344.65 249.513 4336.95 238.054 Q4329.31 226.538 4329.31 204.721 Q4329.31 182.846 4336.95 171.388 Q4344.65 159.872 4359.17 159.872 Z" fill="#000000" fill-rule="nonzero" fill-opacity="1" /><path clip-path="url(#clip010)" d="M4434.58 169.131 Q4425.55 169.131 4420.98 178.043 Q4416.46 186.897 4416.46 204.721 Q4416.46 222.487 4420.98 231.399 Q4425.55 240.253 4434.58 240.253 Q4443.66 240.253 4448.18 231.399 Q4452.75 222.487 4452.75 204.721 Q4452.75 186.897 4448.18 178.043 Q4443.66 169.131 4434.58 169.131 M4434.58 159.872 Q4449.1 159.872 4456.74 171.388 Q4464.44 182.846 4464.44 204.721 Q4464.44 226.538 4456.74 238.054 Q4449.1 249.513 4434.58 249.513 Q4420.05 249.513 4412.36 238.054 Q4404.72 226.538 4404.72 204.721 Q4404.72 182.846 4412.36 171.388 Q4420.05 159.872 4434.58 159.872 Z" fill="#000000" fill-rule="nonzero" fill-opacity="1" /><path clip-path="url(#clip010)" d="M4558.48 209.814 Q4553.44 209.814 4550.55 214.096 Q4547.71 218.378 4547.71 226.017 Q4547.71 233.54 4550.55 237.881 Q4553.44 242.163 4558.48 242.163 Q4563.4 242.163 4566.23 237.881 Q4569.13 233.54 4569.13 226.017 Q4569.13 218.436 4566.23 214.154 Q4563.4 209.814 4558.48 209.814 M4558.48 202.464 Q4567.62 202.464 4573 208.83 Q4578.39 215.196 4578.39 226.017 Q4578.39 236.839 4572.95 243.205 Q4567.56 249.513 4558.48 249.513 Q4549.22 249.513 4543.84 243.205 Q4538.45 236.839 4538.45 226.017 Q4538.45 215.138 4543.84 208.83 Q4549.28 202.464 4558.48 202.464 M4498.76 167.221 Q4493.78 167.221 4490.89 171.562 Q4488.05 175.844 4488.05 183.367 Q4488.05 191.006 4490.89 195.288 Q4493.72 199.571 4498.76 199.571 Q4503.79 199.571 4506.63 195.288 Q4509.52 191.006 4509.52 183.367 Q4509.52 175.902 4506.63 171.562 Q4503.73 167.221 4498.76 167.221 M4551.01 159.872 L4560.27 159.872 L4506.22 249.513 L4496.96 249.513 L4551.01 159.872 M4498.76 159.872 Q4507.9 159.872 4513.34 166.238 Q4518.78 172.545 4518.78 183.367 Q4518.78 194.305 4513.34 200.612 Q4507.96 206.92 4498.76 206.92 Q4489.55 206.92 4484.17 200.612 Q4478.85 194.247 4478.85 183.367 Q4478.85 172.603 4484.23 166.238 Q4489.61 159.872 4498.76 159.872 Z" fill="#000000" fill-rule="nonzero" fill-opacity="1" /><polyline clip-path="url(#clip010)" style="stroke:#525252; stroke-linecap:round; stroke-linejoin:round; stroke-width:2; stroke-opacity:1; fill:none" points="3953.97,334.234 4215.52,334.234 "/>
<path clip-path="url(#clip010)" d="M4264.67 375.64 L4264.67 364.992 Q4269.07 367.076 4273.58 368.175 Q4278.1 369.275 4282.44 369.275 Q4294.01 369.275 4300.09 361.52 Q4306.22 353.708 4307.09 337.851 Q4303.73 342.828 4298.58 345.49 Q4293.43 348.152 4287.18 348.152 Q4274.22 348.152 4266.64 340.34 Q4259.12 332.469 4259.12 318.87 Q4259.12 305.56 4266.99 297.516 Q4274.86 289.472 4287.94 289.472 Q4302.92 289.472 4310.79 300.988 Q4318.72 312.446 4318.72 334.321 Q4318.72 354.749 4309 366.96 Q4299.34 379.113 4282.96 379.113 Q4278.56 379.113 4274.05 378.245 Q4269.53 377.376 4264.67 375.64 M4287.94 339.009 Q4295.81 339.009 4300.38 333.627 Q4305.01 328.245 4305.01 318.87 Q4305.01 309.553 4300.38 304.171 Q4295.81 298.731 4287.94 298.731 Q4280.06 298.731 4275.44 304.171 Q4270.86 309.553 4270.86 318.87 Q4270.86 328.245 4275.44 333.627 Q4280.06 339.009 4287.94 339.009 Z" fill="#000000" fill-rule="nonzero" fill-opacity="1" /><path clip-path="url(#clip010)" d="M4364.73 298.731 Q4355.7 298.731 4351.13 307.643 Q4346.62 316.497 4346.62 334.321 Q4346.62 352.087 4351.13 360.999 Q4355.7 369.853 4364.73 369.853 Q4373.81 369.853 4378.33 360.999 Q4382.9 352.087 4382.9 334.321 Q4382.9 316.497 4378.33 307.643 Q4373.81 298.731 4364.73 298.731 M4364.73 289.472 Q4379.25 289.472 4386.89 300.988 Q4394.59 312.446 4394.59 334.321 Q4394.59 356.138 4386.89 367.654 Q4379.25 379.113 4364.73 379.113 Q4350.2 379.113 4342.51 367.654 Q4334.87 356.138 4334.87 334.321 Q4334.87 312.446 4342.51 300.988 Q4350.2 289.472 4364.73 289.472 Z" fill="#000000" fill-rule="nonzero" fill-opacity="1" /><path clip-path="url(#clip010)" d="M4488.63 339.414 Q4483.59 339.414 4480.7 343.696 Q4477.86 347.978 4477.86 355.617 Q4477.86 363.14 4480.7 367.481 Q4483.59 371.763 4488.63 371.763 Q4493.55 371.763 4496.38 367.481 Q4499.28 363.14 4499.28 355.617 Q4499.28 348.036 4496.38 343.754 Q4493.55 339.414 4488.63 339.414 M4488.63 332.064 Q4497.77 332.064 4503.15 338.43 Q4508.54 344.796 4508.54 355.617 Q4508.54 366.439 4503.1 372.805 Q4497.71 379.113 4488.63 379.113 Q4479.37 379.113 4473.99 372.805 Q4468.61 366.439 4468.61 355.617 Q4468.61 344.738 4473.99 338.43 Q4479.43 332.064 4488.63 332.064 M4428.91 296.821 Q4423.93 296.821 4421.04 301.162 Q4418.2 305.444 4418.2 312.967 Q4418.2 320.606 4421.04 324.888 Q4423.87 329.171 4428.91 329.171 Q4433.94 329.171 4436.78 324.888 Q4439.67 320.606 4439.67 312.967 Q4439.67 305.502 4436.78 301.162 Q4433.88 296.821 4428.91 296.821 M4481.16 289.472 L4490.42 289.472 L4436.37 379.113 L4427.11 379.113 L4481.16 289.472 M4428.91 289.472 Q4438.05 289.472 4443.49 295.838 Q4448.93 302.145 4448.93 312.967 Q4448.93 323.905 4443.49 330.212 Q4438.11 336.52 4428.91 336.52 Q4419.71 336.52 4414.32 330.212 Q4409 323.847 4409 312.967 Q4409 302.203 4414.38 295.838 Q4419.76 289.472 4428.91 289.472 Z" fill="#000000" fill-rule="nonzero" fill-opacity="1" /><polyline clip-path="url(#clip010)" style="stroke:#000000; stroke-linecap:round; stroke-linejoin:round; stroke-width:2; stroke-opacity:1; fill:none" points="3953.97,463.834 4215.52,463.834 "/>
<path clip-path="url(#clip010)" d="M4288.75 466.004 Q4280.41 466.004 4275.61 470.46 Q4270.86 474.916 4270.86 482.729 Q4270.86 490.541 4275.61 494.997 Q4280.41 499.453 4288.75 499.453 Q4297.08 499.453 4301.88 494.997 Q4306.69 490.484 4306.69 482.729 Q4306.69 474.916 4301.88 470.46 Q4297.14 466.004 4288.75 466.004 M4277.06 461.028 Q4269.53 459.176 4265.31 454.025 Q4261.14 448.875 4261.14 441.468 Q4261.14 431.109 4268.49 425.09 Q4275.9 419.072 4288.75 419.072 Q4301.65 419.072 4309 425.09 Q4316.35 431.109 4316.35 441.468 Q4316.35 448.875 4312.12 454.025 Q4307.96 459.176 4300.49 461.028 Q4308.94 462.995 4313.63 468.724 Q4318.37 474.453 4318.37 482.729 Q4318.37 495.287 4310.68 502 Q4303.04 508.713 4288.75 508.713 Q4274.45 508.713 4266.75 502 Q4259.12 495.287 4259.12 482.729 Q4259.12 474.453 4263.86 468.724 Q4268.61 462.995 4277.06 461.028 M4272.77 442.567 Q4272.77 449.28 4276.94 453.042 Q4281.16 456.803 4288.75 456.803 Q4296.27 456.803 4300.49 453.042 Q4304.78 449.28 4304.78 442.567 Q4304.78 435.854 4300.49 432.093 Q4296.27 428.331 4288.75 428.331 Q4281.16 428.331 4276.94 432.093 Q4272.77 435.854 4272.77 442.567 Z" fill="#000000" fill-rule="nonzero" fill-opacity="1" /><path clip-path="url(#clip010)" d="M4364.15 428.331 Q4355.12 428.331 4350.55 437.243 Q4346.04 446.097 4346.04 463.921 Q4346.04 481.687 4350.55 490.599 Q4355.12 499.453 4364.15 499.453 Q4373.24 499.453 4377.75 490.599 Q4382.32 481.687 4382.32 463.921 Q4382.32 446.097 4377.75 437.243 Q4373.24 428.331 4364.15 428.331 M4364.15 419.072 Q4378.68 419.072 4386.31 430.588 Q4394.01 442.046 4394.01 463.921 Q4394.01 485.738 4386.31 497.254 Q4378.68 508.713 4364.15 508.713 Q4349.62 508.713 4341.93 497.254 Q4334.29 485.738 4334.29 463.921 Q4334.29 442.046 4341.93 430.588 Q4349.62 419.072 4364.15 419.072 Z" fill="#000000" fill-rule="nonzero" fill-opacity="1" /><path clip-path="url(#clip010)" d="M4488.05 469.014 Q4483.02 469.014 4480.12 473.296 Q4477.29 477.578 4477.29 485.217 Q4477.29 492.74 4480.12 497.081 Q4483.02 501.363 4488.05 501.363 Q4492.97 501.363 4495.8 497.081 Q4498.7 492.74 4498.7 485.217 Q4498.7 477.636 4495.8 473.354 Q4492.97 469.014 4488.05 469.014 M4488.05 461.664 Q4497.19 461.664 4502.58 468.03 Q4507.96 474.396 4507.96 485.217 Q4507.96 496.039 4502.52 502.405 Q4497.14 508.713 4488.05 508.713 Q4478.79 508.713 4473.41 502.405 Q4468.03 496.039 4468.03 485.217 Q4468.03 474.338 4473.41 468.03 Q4478.85 461.664 4488.05 461.664 M4428.33 426.421 Q4423.35 426.421 4420.46 430.762 Q4417.62 435.044 4417.62 442.567 Q4417.62 450.206 4420.46 454.488 Q4423.29 458.771 4428.33 458.771 Q4433.36 458.771 4436.2 454.488 Q4439.09 450.206 4439.09 442.567 Q4439.09 435.102 4436.2 430.762 Q4433.3 426.421 4428.33 426.421 M4480.58 419.072 L4489.84 419.072 L4435.79 508.713 L4426.53 508.713 L4480.58 419.072 M4428.33 419.072 Q4437.47 419.072 4442.91 425.438 Q4448.35 431.745 4448.35 442.567 Q4448.35 453.505 4442.91 459.812 Q4437.53 466.12 4428.33 466.12 Q4419.13 466.12 4413.74 459.812 Q4408.42 453.447 4408.42 442.567 Q4408.42 431.803 4413.8 425.438 Q4419.18 419.072 4428.33 419.072 Z" fill="#000000" fill-rule="nonzero" fill-opacity="1" /></svg>
