<?xml version="1.0" encoding="utf-8"?>
<svg xmlns="http://www.w3.org/2000/svg" xmlns:xlink="http://www.w3.org/1999/xlink" width="1200" height="300" viewBox="0 0 4800 1200">
<defs>
  <clipPath id="clip850">
    <rect x="0" y="0" width="4800" height="1200"/>
  </clipPath>
</defs>
<path clip-path="url(#clip850)" d="M0 1200 L4800 1200 L4800 0 L0 0  Z" fill="#ffffff" fill-rule="evenodd" fill-opacity="1"/>
<defs>
  <clipPath id="clip851">
    <rect x="960" y="0" width="3361" height="1200"/>
  </clipPath>
</defs>
<path clip-path="url(#clip850)" d="M540.348 880.951 L4752.76 880.951 L4752.76 47.2441 L540.348 47.2441  Z" fill="#ffffff" fill-rule="evenodd" fill-opacity="1"/>
<defs>
  <clipPath id="clip852">
    <rect x="540" y="47" width="4213" height="835"/>
  </clipPath>
</defs>
<polyline clip-path="url(#clip852)" style="stroke:#000000; stroke-linecap:round; stroke-linejoin:round; stroke-width:2; stroke-opacity:0.1; fill:none" points="1084.69,880.951 1084.69,47.2441 "/>
<polyline clip-path="url(#clip852)" style="stroke:#000000; stroke-linecap:round; stroke-linejoin:round; stroke-width:2; stroke-opacity:0.1; fill:none" points="1971.9,880.951 1971.9,47.2441 "/>
<polyline clip-path="url(#clip852)" style="stroke:#000000; stroke-linecap:round; stroke-linejoin:round; stroke-width:2; stroke-opacity:0.1; fill:none" points="2859.11,880.951 2859.11,47.2441 "/>
<polyline clip-path="url(#clip852)" style="stroke:#000000; stroke-linecap:round; stroke-linejoin:round; stroke-width:2; stroke-opacity:0.1; fill:none" points="3746.32,880.951 3746.32,47.2441 "/>
<polyline clip-path="url(#clip852)" style="stroke:#000000; stroke-linecap:round; stroke-linejoin:round; stroke-width:2; stroke-opacity:0.1; fill:none" points="4633.54,880.951 4633.54,47.2441 "/>
<polyline clip-path="url(#clip850)" style="stroke:#000000; stroke-linecap:round; stroke-linejoin:round; stroke-width:4; stroke-opacity:1; fill:none" points="540.348,880.951 4752.76,880.951 "/>
<polyline clip-path="url(#clip850)" style="stroke:#000000; stroke-linecap:round; stroke-linejoin:round; stroke-width:4; stroke-opacity:1; fill:none" points="1084.69,880.951 1084.69,862.054 "/>
<polyline clip-path="url(#clip850)" style="stroke:#000000; stroke-linecap:round; stroke-linejoin:round; stroke-width:4; stroke-opacity:1; fill:none" points="1971.9,880.951 1971.9,862.054 "/>
<polyline clip-path="url(#clip850)" style="stroke:#000000; stroke-linecap:round; stroke-linejoin:round; stroke-width:4; stroke-opacity:1; fill:none" points="2859.11,880.951 2859.11,862.054 "/>
<polyline clip-path="url(#clip850)" style="stroke:#000000; stroke-linecap:round; stroke-linejoin:round; stroke-width:4; stroke-opacity:1; fill:none" points="3746.32,880.951 3746.32,862.054 "/>
<polyline clip-path="url(#clip850)" style="stroke:#000000; stroke-linecap:round; stroke-linejoin:round; stroke-width:4; stroke-opacity:1; fill:none" points="4633.54,880.951 4633.54,862.054 "/>
<path clip-path="url(#clip850)" d="M1073.99 997.881 L1106.63 997.881 L1106.63 1005.75 L1062.74 1005.75 L1062.74 997.881 Q1068.07 992.372 1077.24 983.113 Q1086.45 973.807 1088.81 971.122 Q1093.3 966.076 1095.06 962.604 Q1096.87 959.085 1096.87 955.705 Q1096.87 950.196 1092.98 946.724 Q1089.13 943.252 1082.93 943.252 Q1078.53 943.252 1073.62 944.78 Q1068.76 946.307 1063.21 949.409 L1063.21 939.965 Q1068.86 937.696 1073.76 936.539 Q1078.67 935.382 1082.74 935.382 Q1093.49 935.382 1099.87 940.752 Q1106.26 946.122 1106.26 955.104 Q1106.26 959.363 1104.64 963.205 Q1103.07 967.002 1098.86 972.187 Q1097.7 973.529 1091.49 979.965 Q1085.29 986.353 1073.99 997.881 Z" fill="#000000" fill-rule="nonzero" fill-opacity="1" /><path clip-path="url(#clip850)" d="M1977.92 944.78 L1954.31 981.678 L1977.92 981.678 L1977.92 944.78 M1975.47 936.631 L1987.23 936.631 L1987.23 981.678 L1997.09 981.678 L1997.09 989.455 L1987.23 989.455 L1987.23 1005.75 L1977.92 1005.75 L1977.92 989.455 L1946.72 989.455 L1946.72 980.428 L1975.47 936.631 Z" fill="#000000" fill-rule="nonzero" fill-opacity="1" /><path clip-path="url(#clip850)" d="M2859.92 967.465 Q2853.63 967.465 2849.92 971.77 Q2846.27 976.076 2846.27 983.576 Q2846.27 991.029 2849.92 995.381 Q2853.63 999.687 2859.92 999.687 Q2866.22 999.687 2869.88 995.381 Q2873.58 991.029 2873.58 983.576 Q2873.58 976.076 2869.88 971.77 Q2866.22 967.465 2859.92 967.465 M2878.49 938.159 L2878.49 946.678 Q2874.97 945.011 2871.36 944.131 Q2867.79 943.252 2864.28 943.252 Q2855.02 943.252 2850.11 949.502 Q2845.25 955.752 2844.55 968.391 Q2847.28 964.363 2851.4 962.233 Q2855.53 960.057 2860.48 960.057 Q2870.9 960.057 2876.91 966.4 Q2882.98 972.696 2882.98 983.576 Q2882.98 994.224 2876.68 1000.66 Q2870.39 1007.09 2859.92 1007.09 Q2847.93 1007.09 2841.59 997.927 Q2835.25 988.715 2835.25 971.261 Q2835.25 954.872 2843.03 945.15 Q2850.8 935.382 2863.9 935.382 Q2867.42 935.382 2870.99 936.076 Q2874.6 936.77 2878.49 938.159 Z" fill="#000000" fill-rule="nonzero" fill-opacity="1" /><path clip-path="url(#clip850)" d="M3746.32 972.928 Q3739.66 972.928 3735.82 976.492 Q3732.02 980.057 3732.02 986.307 Q3732.02 992.557 3735.82 996.122 Q3739.66 999.687 3746.32 999.687 Q3752.99 999.687 3756.83 996.122 Q3760.68 992.511 3760.68 986.307 Q3760.68 980.057 3756.83 976.492 Q3753.04 972.928 3746.32 972.928 M3736.97 968.946 Q3730.95 967.465 3727.58 963.344 Q3724.24 959.224 3724.24 953.298 Q3724.24 945.011 3730.12 940.196 Q3736.05 935.382 3746.32 935.382 Q3756.65 935.382 3762.53 940.196 Q3768.41 945.011 3768.41 953.298 Q3768.41 959.224 3765.03 963.344 Q3761.7 967.465 3755.72 968.946 Q3762.48 970.52 3766.23 975.104 Q3770.03 979.687 3770.03 986.307 Q3770.03 996.353 3763.87 1001.72 Q3757.76 1007.09 3746.32 1007.09 Q3734.89 1007.09 3728.73 1001.72 Q3722.62 996.353 3722.62 986.307 Q3722.62 979.687 3726.42 975.104 Q3730.21 970.52 3736.97 968.946 M3733.55 954.178 Q3733.55 959.548 3736.88 962.557 Q3740.26 965.567 3746.32 965.567 Q3752.34 965.567 3755.72 962.557 Q3759.15 959.548 3759.15 954.178 Q3759.15 948.807 3755.72 945.798 Q3752.34 942.789 3746.32 942.789 Q3740.26 942.789 3736.88 945.798 Q3733.55 948.807 3733.55 954.178 Z" fill="#000000" fill-rule="nonzero" fill-opacity="1" /><path clip-path="url(#clip850)" d="M4582.91 997.881 L4598.19 997.881 L4598.19 945.15 L4581.57 948.483 L4581.57 939.965 L4598.1 936.631 L4607.45 936.631 L4607.45 997.881 L4622.73 997.881 L4622.73 1005.75 L4582.91 1005.75 L4582.91 997.881 Z" fill="#000000" fill-rule="nonzero" fill-opacity="1" /><path clip-path="url(#clip850)" d="M4661.62 942.789 Q4654.39 942.789 4650.74 949.918 Q4647.12 957.002 4647.12 971.261 Q4647.12 985.474 4650.74 992.603 Q4654.39 999.687 4661.62 999.687 Q4668.88 999.687 4672.49 992.603 Q4676.15 985.474 4676.15 971.261 Q4676.15 957.002 4672.49 949.918 Q4668.88 942.789 4661.62 942.789 M4661.62 935.382 Q4673.24 935.382 4679.35 944.594 Q4685.5 953.761 4685.5 971.261 Q4685.5 988.715 4679.35 997.927 Q4673.24 1007.09 4661.62 1007.09 Q4650 1007.09 4643.84 997.927 Q4637.73 988.715 4637.73 971.261 Q4637.73 953.761 4643.84 944.594 Q4650 935.382 4661.62 935.382 Z" fill="#000000" fill-rule="nonzero" fill-opacity="1" /><path clip-path="url(#clip850)" d="M2363.79 1072.18 L2429.57 1072.18 L2429.57 1081.04 L2401.97 1081.04 L2401.97 1149.94 L2391.4 1149.94 L2391.4 1081.04 L2363.79 1081.04 L2363.79 1072.18 Z" fill="#000000" fill-rule="nonzero" fill-opacity="1" /><path clip-path="url(#clip850)" d="M2436.03 1091.61 L2445.62 1091.61 L2445.62 1149.94 L2436.03 1149.94 L2436.03 1091.61 M2436.03 1068.9 L2445.62 1068.9 L2445.62 1081.04 L2436.03 1081.04 L2436.03 1068.9 Z" fill="#000000" fill-rule="nonzero" fill-opacity="1" /><path clip-path="url(#clip850)" d="M2511.08 1102.81 Q2514.68 1096.35 2519.68 1093.28 Q2524.68 1090.2 2531.45 1090.2 Q2540.56 1090.2 2545.51 1096.61 Q2550.46 1102.96 2550.46 1114.74 L2550.46 1149.94 L2540.82 1149.94 L2540.82 1115.05 Q2540.82 1106.66 2537.85 1102.6 Q2534.89 1098.54 2528.79 1098.54 Q2521.34 1098.54 2517.02 1103.49 Q2512.7 1108.43 2512.7 1116.97 L2512.7 1149.94 L2503.06 1149.94 L2503.06 1115.05 Q2503.06 1106.61 2500.09 1102.6 Q2497.13 1098.54 2490.93 1098.54 Q2483.58 1098.54 2479.26 1103.54 Q2474.94 1108.49 2474.94 1116.97 L2474.94 1149.94 L2465.3 1149.94 L2465.3 1091.61 L2474.94 1091.61 L2474.94 1100.67 Q2478.22 1095.31 2482.8 1092.76 Q2487.39 1090.2 2493.69 1090.2 Q2500.04 1090.2 2504.47 1093.43 Q2508.95 1096.66 2511.08 1102.81 Z" fill="#000000" fill-rule="nonzero" fill-opacity="1" /><path clip-path="url(#clip850)" d="M2619.47 1118.38 L2619.47 1123.07 L2575.41 1123.07 Q2576.03 1132.96 2581.34 1138.17 Q2586.71 1143.33 2596.24 1143.33 Q2601.76 1143.33 2606.92 1141.97 Q2612.12 1140.62 2617.23 1137.91 L2617.23 1146.97 Q2612.07 1149.16 2606.66 1150.31 Q2601.24 1151.45 2595.67 1151.45 Q2581.71 1151.45 2573.53 1143.33 Q2565.41 1135.2 2565.41 1121.35 Q2565.41 1107.03 2573.11 1098.64 Q2580.88 1090.2 2594 1090.2 Q2605.77 1090.2 2612.59 1097.81 Q2619.47 1105.36 2619.47 1118.38 M2609.89 1115.57 Q2609.78 1107.7 2605.46 1103.02 Q2601.19 1098.33 2594.1 1098.33 Q2586.08 1098.33 2581.24 1102.86 Q2576.45 1107.39 2575.72 1115.62 L2609.89 1115.57 Z" fill="#000000" fill-rule="nonzero" fill-opacity="1" /><path clip-path="url(#clip850)" d="M2692.12 1069.01 Q2685.15 1080.99 2681.76 1092.7 Q2678.37 1104.42 2678.37 1116.45 Q2678.37 1128.49 2681.76 1140.31 Q2685.2 1152.08 2692.12 1164.01 L2683.79 1164.01 Q2675.98 1151.77 2672.07 1139.94 Q2668.22 1128.12 2668.22 1116.45 Q2668.22 1104.84 2672.07 1093.07 Q2675.93 1081.3 2683.79 1069.01 L2692.12 1069.01 Z" fill="#000000" fill-rule="nonzero" fill-opacity="1" /><path clip-path="url(#clip850)" d="M2749.1 1100.46 L2749.1 1068.9 L2758.69 1068.9 L2758.69 1149.94 L2749.1 1149.94 L2749.1 1141.19 Q2746.08 1146.4 2741.45 1148.95 Q2736.86 1151.45 2730.41 1151.45 Q2719.83 1151.45 2713.17 1143.02 Q2706.55 1134.58 2706.55 1120.83 Q2706.55 1107.08 2713.17 1098.64 Q2719.83 1090.2 2730.41 1090.2 Q2736.86 1090.2 2741.45 1092.76 Q2746.08 1095.26 2749.1 1100.46 M2716.45 1120.83 Q2716.45 1131.4 2720.77 1137.44 Q2725.15 1143.43 2732.75 1143.43 Q2740.35 1143.43 2744.73 1137.44 Q2749.1 1131.4 2749.1 1120.83 Q2749.1 1110.26 2744.73 1104.27 Q2740.35 1098.23 2732.75 1098.23 Q2725.15 1098.23 2720.77 1104.27 Q2716.45 1110.26 2716.45 1120.83 Z" fill="#000000" fill-rule="nonzero" fill-opacity="1" /><path clip-path="url(#clip850)" d="M2804.94 1120.62 Q2793.32 1120.62 2788.84 1123.28 Q2784.36 1125.93 2784.36 1132.34 Q2784.36 1137.44 2787.7 1140.46 Q2791.08 1143.43 2796.86 1143.43 Q2804.83 1143.43 2809.62 1137.81 Q2814.47 1132.13 2814.47 1122.76 L2814.47 1120.62 L2804.94 1120.62 M2824.05 1116.66 L2824.05 1149.94 L2814.47 1149.94 L2814.47 1141.09 Q2811.19 1146.4 2806.29 1148.95 Q2801.39 1151.45 2794.31 1151.45 Q2785.35 1151.45 2780.04 1146.45 Q2774.78 1141.4 2774.78 1132.96 Q2774.78 1123.12 2781.34 1118.12 Q2787.96 1113.12 2801.03 1113.12 L2814.47 1113.12 L2814.47 1112.18 Q2814.47 1105.57 2810.09 1101.98 Q2805.77 1098.33 2797.91 1098.33 Q2792.91 1098.33 2788.17 1099.53 Q2783.43 1100.73 2779.05 1103.12 L2779.05 1094.27 Q2784.31 1092.24 2789.26 1091.25 Q2794.21 1090.2 2798.89 1090.2 Q2811.55 1090.2 2817.8 1096.77 Q2824.05 1103.33 2824.05 1116.66 Z" fill="#000000" fill-rule="nonzero" fill-opacity="1" /><path clip-path="url(#clip850)" d="M2868.06 1155.36 Q2864 1165.78 2860.14 1168.95 Q2856.29 1172.13 2849.83 1172.13 L2842.18 1172.13 L2842.18 1164.11 L2847.8 1164.11 Q2851.76 1164.11 2853.95 1162.24 Q2856.13 1160.36 2858.79 1153.38 L2860.51 1149.01 L2836.92 1091.61 L2847.07 1091.61 L2865.3 1137.24 L2883.53 1091.61 L2893.69 1091.61 L2868.06 1155.36 Z" fill="#000000" fill-rule="nonzero" fill-opacity="1" /><path clip-path="url(#clip850)" d="M2905.4 1069.01 L2913.74 1069.01 Q2921.55 1081.3 2925.4 1093.07 Q2929.31 1104.84 2929.31 1116.45 Q2929.31 1128.12 2925.4 1139.94 Q2921.55 1151.77 2913.74 1164.01 L2905.4 1164.01 Q2912.33 1152.08 2915.72 1140.31 Q2919.15 1128.49 2919.15 1116.45 Q2919.15 1104.42 2915.72 1092.7 Q2912.33 1080.99 2905.4 1069.01 Z" fill="#000000" fill-rule="nonzero" fill-opacity="1" /><polyline clip-path="url(#clip852)" style="stroke:#000000; stroke-linecap:round; stroke-linejoin:round; stroke-width:2; stroke-opacity:0.1; fill:none" points="540.348,739.472 4752.76,739.472 "/>
<polyline clip-path="url(#clip852)" style="stroke:#000000; stroke-linecap:round; stroke-linejoin:round; stroke-width:2; stroke-opacity:0.1; fill:none" points="540.348,582.354 4752.76,582.354 "/>
<polyline clip-path="url(#clip852)" style="stroke:#000000; stroke-linecap:round; stroke-linejoin:round; stroke-width:2; stroke-opacity:0.1; fill:none" points="540.348,425.235 4752.76,425.235 "/>
<polyline clip-path="url(#clip852)" style="stroke:#000000; stroke-linecap:round; stroke-linejoin:round; stroke-width:2; stroke-opacity:0.1; fill:none" points="540.348,268.117 4752.76,268.117 "/>
<polyline clip-path="url(#clip852)" style="stroke:#000000; stroke-linecap:round; stroke-linejoin:round; stroke-width:2; stroke-opacity:0.1; fill:none" points="540.348,110.999 4752.76,110.999 "/>
<polyline clip-path="url(#clip850)" style="stroke:#000000; stroke-linecap:round; stroke-linejoin:round; stroke-width:4; stroke-opacity:1; fill:none" points="540.348,880.951 540.348,47.2441 "/>
<polyline clip-path="url(#clip850)" style="stroke:#000000; stroke-linecap:round; stroke-linejoin:round; stroke-width:4; stroke-opacity:1; fill:none" points="540.348,739.472 559.246,739.472 "/>
<polyline clip-path="url(#clip850)" style="stroke:#000000; stroke-linecap:round; stroke-linejoin:round; stroke-width:4; stroke-opacity:1; fill:none" points="540.348,582.354 559.246,582.354 "/>
<polyline clip-path="url(#clip850)" style="stroke:#000000; stroke-linecap:round; stroke-linejoin:round; stroke-width:4; stroke-opacity:1; fill:none" points="540.348,425.235 559.246,425.235 "/>
<polyline clip-path="url(#clip850)" style="stroke:#000000; stroke-linecap:round; stroke-linejoin:round; stroke-width:4; stroke-opacity:1; fill:none" points="540.348,268.117 559.246,268.117 "/>
<polyline clip-path="url(#clip850)" style="stroke:#000000; stroke-linecap:round; stroke-linejoin:round; stroke-width:4; stroke-opacity:1; fill:none" points="540.348,110.999 559.246,110.999 "/>
<path clip-path="url(#clip850)" d="M196.127 740.375 L255.479 740.375 L255.479 748.245 L196.127 748.245 L196.127 740.375 Z" fill="#000000" fill-rule="nonzero" fill-opacity="1" /><path clip-path="url(#clip850)" d="M295.664 711.069 Q288.441 711.069 284.784 718.199 Q281.173 725.282 281.173 739.541 Q281.173 753.754 284.784 760.884 Q288.441 767.967 295.664 767.967 Q302.932 767.967 306.543 760.884 Q310.201 753.754 310.201 739.541 Q310.201 725.282 306.543 718.199 Q302.932 711.069 295.664 711.069 M295.664 703.662 Q307.284 703.662 313.395 712.875 Q319.552 722.042 319.552 739.541 Q319.552 756.995 313.395 766.208 Q307.284 775.375 295.664 775.375 Q284.043 775.375 277.886 766.208 Q271.775 756.995 271.775 739.541 Q271.775 722.042 277.886 712.875 Q284.043 703.662 295.664 703.662 Z" fill="#000000" fill-rule="nonzero" fill-opacity="1" /><path clip-path="url(#clip850)" d="M335.987 762.273 L345.756 762.273 L345.756 774.032 L335.987 774.032 L335.987 762.273 Z" fill="#000000" fill-rule="nonzero" fill-opacity="1" /><path clip-path="url(#clip850)" d="M363.765 704.912 L408.209 704.912 L408.209 708.893 L383.117 774.032 L373.348 774.032 L396.959 712.782 L363.765 712.782 L363.765 704.912 Z" fill="#000000" fill-rule="nonzero" fill-opacity="1" /><path clip-path="url(#clip850)" d="M426.543 704.912 L463.255 704.912 L463.255 712.782 L435.107 712.782 L435.107 729.727 Q437.144 729.032 439.181 728.708 Q441.218 728.338 443.255 728.338 Q454.829 728.338 461.589 734.68 Q468.348 741.023 468.348 751.856 Q468.348 763.014 461.403 769.217 Q454.459 775.375 441.82 775.375 Q437.468 775.375 432.931 774.634 Q428.441 773.893 423.626 772.412 L423.626 763.014 Q427.793 765.282 432.237 766.393 Q436.681 767.504 441.635 767.504 Q449.644 767.504 454.32 763.291 Q458.996 759.078 458.996 751.856 Q458.996 744.634 454.32 740.421 Q449.644 736.208 441.635 736.208 Q437.885 736.208 434.135 737.041 Q430.431 737.875 426.543 739.634 L426.543 704.912 Z" fill="#000000" fill-rule="nonzero" fill-opacity="1" /><path clip-path="url(#clip850)" d="M194.136 583.256 L253.488 583.256 L253.488 591.127 L194.136 591.127 L194.136 583.256 Z" fill="#000000" fill-rule="nonzero" fill-opacity="1" /><path clip-path="url(#clip850)" d="M293.673 553.951 Q286.451 553.951 282.793 561.081 Q279.182 568.164 279.182 582.423 Q279.182 596.636 282.793 603.766 Q286.451 610.849 293.673 610.849 Q300.941 610.849 304.552 603.766 Q308.21 596.636 308.21 582.423 Q308.21 568.164 304.552 561.081 Q300.941 553.951 293.673 553.951 M293.673 546.544 Q305.293 546.544 311.404 555.757 Q317.562 564.923 317.562 582.423 Q317.562 599.877 311.404 609.09 Q305.293 618.256 293.673 618.256 Q282.053 618.256 275.895 609.09 Q269.784 599.877 269.784 582.423 Q269.784 564.923 275.895 555.757 Q282.053 546.544 293.673 546.544 Z" fill="#000000" fill-rule="nonzero" fill-opacity="1" /><path clip-path="url(#clip850)" d="M333.997 605.154 L343.765 605.154 L343.765 616.914 L333.997 616.914 L333.997 605.154 Z" fill="#000000" fill-rule="nonzero" fill-opacity="1" /><path clip-path="url(#clip850)" d="M364.228 547.794 L400.941 547.794 L400.941 555.664 L372.793 555.664 L372.793 572.608 Q374.83 571.914 376.867 571.59 Q378.904 571.219 380.941 571.219 Q392.515 571.219 399.274 577.562 Q406.033 583.905 406.033 594.738 Q406.033 605.895 399.089 612.099 Q392.145 618.256 379.506 618.256 Q375.154 618.256 370.617 617.515 Q366.126 616.775 361.311 615.293 L361.311 605.895 Q365.478 608.164 369.922 609.275 Q374.367 610.386 379.321 610.386 Q387.33 610.386 392.006 606.173 Q396.682 601.96 396.682 594.738 Q396.682 587.516 392.006 583.303 Q387.33 579.09 379.321 579.09 Q375.571 579.09 371.821 579.923 Q368.117 580.756 364.228 582.516 L364.228 547.794 Z" fill="#000000" fill-rule="nonzero" fill-opacity="1" /><path clip-path="url(#clip850)" d="M444.459 553.951 Q437.237 553.951 433.58 561.081 Q429.968 568.164 429.968 582.423 Q429.968 596.636 433.58 603.766 Q437.237 610.849 444.459 610.849 Q451.728 610.849 455.339 603.766 Q458.996 596.636 458.996 582.423 Q458.996 568.164 455.339 561.081 Q451.728 553.951 444.459 553.951 M444.459 546.544 Q456.079 546.544 462.19 555.757 Q468.348 564.923 468.348 582.423 Q468.348 599.877 462.19 609.09 Q456.079 618.256 444.459 618.256 Q432.839 618.256 426.681 609.09 Q420.57 599.877 420.57 582.423 Q420.57 564.923 426.681 555.757 Q432.839 546.544 444.459 546.544 Z" fill="#000000" fill-rule="nonzero" fill-opacity="1" /><path clip-path="url(#clip850)" d="M196.127 426.138 L255.479 426.138 L255.479 434.008 L196.127 434.008 L196.127 426.138 Z" fill="#000000" fill-rule="nonzero" fill-opacity="1" /><path clip-path="url(#clip850)" d="M295.664 396.833 Q288.441 396.833 284.784 403.962 Q281.173 411.046 281.173 425.305 Q281.173 439.518 284.784 446.647 Q288.441 453.73 295.664 453.73 Q302.932 453.73 306.543 446.647 Q310.201 439.518 310.201 425.305 Q310.201 411.046 306.543 403.962 Q302.932 396.833 295.664 396.833 M295.664 389.425 Q307.284 389.425 313.395 398.638 Q319.552 407.805 319.552 425.305 Q319.552 442.758 313.395 451.971 Q307.284 461.138 295.664 461.138 Q284.043 461.138 277.886 451.971 Q271.775 442.758 271.775 425.305 Q271.775 407.805 277.886 398.638 Q284.043 389.425 295.664 389.425 Z" fill="#000000" fill-rule="nonzero" fill-opacity="1" /><path clip-path="url(#clip850)" d="M335.987 448.036 L345.756 448.036 L345.756 459.795 L335.987 459.795 L335.987 448.036 Z" fill="#000000" fill-rule="nonzero" fill-opacity="1" /><path clip-path="url(#clip850)" d="M374.182 451.925 L406.82 451.925 L406.82 459.795 L362.932 459.795 L362.932 451.925 Q368.256 446.416 377.422 437.156 Q386.635 427.851 388.996 425.166 Q393.487 420.12 395.246 416.647 Q397.052 413.129 397.052 409.749 Q397.052 404.24 393.163 400.768 Q389.321 397.296 383.117 397.296 Q378.719 397.296 373.811 398.823 Q368.95 400.351 363.395 403.453 L363.395 394.009 Q369.043 391.74 373.95 390.583 Q378.858 389.425 382.932 389.425 Q393.672 389.425 400.061 394.796 Q406.45 400.166 406.45 409.147 Q406.45 413.407 404.83 417.249 Q403.256 421.045 399.043 426.231 Q397.885 427.573 391.682 434.008 Q385.478 440.397 374.182 451.925 Z" fill="#000000" fill-rule="nonzero" fill-opacity="1" /><path clip-path="url(#clip850)" d="M426.543 390.675 L463.255 390.675 L463.255 398.546 L435.107 398.546 L435.107 415.49 Q437.144 414.796 439.181 414.471 Q441.218 414.101 443.255 414.101 Q454.829 414.101 461.589 420.444 Q468.348 426.786 468.348 437.619 Q468.348 448.777 461.403 454.98 Q454.459 461.138 441.82 461.138 Q437.468 461.138 432.931 460.397 Q428.441 459.656 423.626 458.175 L423.626 448.777 Q427.793 451.045 432.237 452.156 Q436.681 453.268 441.635 453.268 Q449.644 453.268 454.32 449.055 Q458.996 444.842 458.996 437.619 Q458.996 430.397 454.32 426.184 Q449.644 421.971 441.635 421.971 Q437.885 421.971 434.135 422.805 Q430.431 423.638 426.543 425.397 L426.543 390.675 Z" fill="#000000" fill-rule="nonzero" fill-opacity="1" /><path clip-path="url(#clip850)" d="M293.673 239.714 Q286.451 239.714 282.793 246.844 Q279.182 253.927 279.182 268.186 Q279.182 282.399 282.793 289.529 Q286.451 296.612 293.673 296.612 Q300.941 296.612 304.552 289.529 Q308.21 282.399 308.21 268.186 Q308.21 253.927 304.552 246.844 Q300.941 239.714 293.673 239.714 M293.673 232.307 Q305.293 232.307 311.404 241.52 Q317.562 250.686 317.562 268.186 Q317.562 285.64 311.404 294.853 Q305.293 304.019 293.673 304.019 Q282.053 304.019 275.895 294.853 Q269.784 285.64 269.784 268.186 Q269.784 250.686 275.895 241.52 Q282.053 232.307 293.673 232.307 Z" fill="#000000" fill-rule="nonzero" fill-opacity="1" /><path clip-path="url(#clip850)" d="M333.997 290.918 L343.765 290.918 L343.765 302.677 L333.997 302.677 L333.997 290.918 Z" fill="#000000" fill-rule="nonzero" fill-opacity="1" /><path clip-path="url(#clip850)" d="M384.135 239.714 Q376.913 239.714 373.256 246.844 Q369.645 253.927 369.645 268.186 Q369.645 282.399 373.256 289.529 Q376.913 296.612 384.135 296.612 Q391.404 296.612 395.015 289.529 Q398.672 282.399 398.672 268.186 Q398.672 253.927 395.015 246.844 Q391.404 239.714 384.135 239.714 M384.135 232.307 Q395.756 232.307 401.867 241.52 Q408.024 250.686 408.024 268.186 Q408.024 285.64 401.867 294.853 Q395.756 304.019 384.135 304.019 Q372.515 304.019 366.358 294.853 Q360.247 285.64 360.247 268.186 Q360.247 250.686 366.358 241.52 Q372.515 232.307 384.135 232.307 Z" fill="#000000" fill-rule="nonzero" fill-opacity="1" /><path clip-path="url(#clip850)" d="M444.459 239.714 Q437.237 239.714 433.58 246.844 Q429.968 253.927 429.968 268.186 Q429.968 282.399 433.58 289.529 Q437.237 296.612 444.459 296.612 Q451.728 296.612 455.339 289.529 Q458.996 282.399 458.996 268.186 Q458.996 253.927 455.339 246.844 Q451.728 239.714 444.459 239.714 M444.459 232.307 Q456.079 232.307 462.19 241.52 Q468.348 250.686 468.348 268.186 Q468.348 285.64 462.19 294.853 Q456.079 304.019 444.459 304.019 Q432.839 304.019 426.681 294.853 Q420.57 285.64 420.57 268.186 Q420.57 250.686 426.681 241.52 Q432.839 232.307 444.459 232.307 Z" fill="#000000" fill-rule="nonzero" fill-opacity="1" /><path clip-path="url(#clip850)" d="M295.664 82.5959 Q288.441 82.5959 284.784 89.7255 Q281.173 96.8088 281.173 111.068 Q281.173 125.281 284.784 132.41 Q288.441 139.494 295.664 139.494 Q302.932 139.494 306.543 132.41 Q310.201 125.281 310.201 111.068 Q310.201 96.8088 306.543 89.7255 Q302.932 82.5959 295.664 82.5959 M295.664 75.1885 Q307.284 75.1885 313.395 84.4015 Q319.552 93.5681 319.552 111.068 Q319.552 128.522 313.395 137.735 Q307.284 146.901 295.664 146.901 Q284.043 146.901 277.886 137.735 Q271.775 128.522 271.775 111.068 Q271.775 93.5681 277.886 84.4015 Q284.043 75.1885 295.664 75.1885 Z" fill="#000000" fill-rule="nonzero" fill-opacity="1" /><path clip-path="url(#clip850)" d="M335.987 133.799 L345.756 133.799 L345.756 145.559 L335.987 145.559 L335.987 133.799 Z" fill="#000000" fill-rule="nonzero" fill-opacity="1" /><path clip-path="url(#clip850)" d="M374.182 137.688 L406.82 137.688 L406.82 145.559 L362.932 145.559 L362.932 137.688 Q368.256 132.179 377.422 122.92 Q386.635 113.614 388.996 110.929 Q393.487 105.883 395.246 102.411 Q397.052 98.8921 397.052 95.5125 Q397.052 90.0033 393.163 86.5311 Q389.321 83.0589 383.117 83.0589 Q378.719 83.0589 373.811 84.5866 Q368.95 86.1144 363.395 89.2163 L363.395 79.7719 Q369.043 77.5034 373.95 76.346 Q378.858 75.1885 382.932 75.1885 Q393.672 75.1885 400.061 80.5589 Q406.45 85.9292 406.45 94.9107 Q406.45 99.1699 404.83 103.012 Q403.256 106.809 399.043 111.994 Q397.885 113.336 391.682 119.772 Q385.478 126.16 374.182 137.688 Z" fill="#000000" fill-rule="nonzero" fill-opacity="1" /><path clip-path="url(#clip850)" d="M426.543 76.4385 L463.255 76.4385 L463.255 84.3089 L435.107 84.3089 L435.107 101.253 Q437.144 100.559 439.181 100.235 Q441.218 99.8643 443.255 99.8643 Q454.829 99.8643 461.589 106.207 Q468.348 112.549 468.348 123.383 Q468.348 134.54 461.403 140.744 Q454.459 146.901 441.82 146.901 Q437.468 146.901 432.931 146.16 Q428.441 145.42 423.626 143.938 L423.626 134.54 Q427.793 136.809 432.237 137.92 Q436.681 139.031 441.635 139.031 Q449.644 139.031 454.32 134.818 Q458.996 130.605 458.996 123.383 Q458.996 116.161 454.32 111.948 Q449.644 107.735 441.635 107.735 Q437.885 107.735 434.135 108.568 Q430.431 109.401 426.543 111.161 L426.543 76.4385 Z" fill="#000000" fill-rule="nonzero" fill-opacity="1" /><path clip-path="url(#clip850)" d="M21.0484 788.627 L21.0484 778.107 L52.9232 778.107 L52.9232 739.878 L21.0484 739.878 L21.0484 729.357 L98.8084 729.357 L98.8084 739.878 L61.7773 739.878 L61.7773 778.107 L98.8084 778.107 L98.8084 788.627 L21.0484 788.627 Z" fill="#000000" fill-rule="nonzero" fill-opacity="1" /><path clip-path="url(#clip850)" d="M28.1838 676.857 Q28.1838 688.315 36.7254 695.086 Q45.267 701.805 60.0065 701.805 Q74.6939 701.805 83.2355 695.086 Q91.7772 688.315 91.7772 676.857 Q91.7772 665.399 83.2355 658.732 Q74.6939 652.013 60.0065 652.013 Q45.267 652.013 36.7254 658.732 Q28.1838 665.399 28.1838 676.857 M19.6421 676.857 Q19.6421 660.503 30.6317 650.711 Q41.5691 640.92 60.0065 640.92 Q78.3918 640.92 89.3813 650.711 Q100.319 660.503 100.319 676.857 Q100.319 693.263 89.3813 703.107 Q78.4439 712.899 60.0065 712.899 Q41.5691 712.899 30.6317 703.107 Q19.6421 693.263 19.6421 676.857 Z" fill="#000000" fill-rule="nonzero" fill-opacity="1" /><path clip-path="url(#clip850)" d="M89.9543 614.462 L89.9543 577.743 L98.8084 577.743 L98.8084 627.118 L89.9543 627.118 Q83.7564 621.128 73.3398 610.816 Q62.8711 600.451 59.8503 597.795 Q54.1732 592.743 50.267 590.764 Q46.3087 588.733 42.5066 588.733 Q36.3087 588.733 32.4025 593.108 Q28.4963 597.43 28.4963 604.41 Q28.4963 609.357 30.215 614.878 Q31.9337 620.347 35.4233 626.597 L24.7984 626.597 Q22.2463 620.243 20.9442 614.722 Q19.6421 609.201 19.6421 604.618 Q19.6421 592.535 25.6838 585.347 Q31.7254 578.16 41.8295 578.16 Q46.6212 578.16 50.9441 579.983 Q55.2149 581.753 61.0482 586.493 Q62.5586 587.795 69.7981 594.774 Q76.9856 601.753 89.9543 614.462 Z" fill="#000000" fill-rule="nonzero" fill-opacity="1" /><path clip-path="url(#clip850)" d="M21.0484 556.597 L21.0484 546.077 L52.9232 546.077 L52.9232 507.848 L21.0484 507.848 L21.0484 497.327 L98.8084 497.327 L98.8084 507.848 L61.7773 507.848 L61.7773 546.077 L98.8084 546.077 L98.8084 556.597 L21.0484 556.597 Z" fill="#000000" fill-rule="nonzero" fill-opacity="1" /><path clip-path="url(#clip850)" d="M17.8713 419.879 Q29.8504 426.858 41.5691 430.244 Q53.2878 433.629 65.319 433.629 Q77.3502 433.629 89.173 430.244 Q100.944 426.806 112.871 419.879 L112.871 428.213 Q100.631 436.025 88.8084 439.931 Q76.9856 443.785 65.319 443.785 Q53.7045 443.785 41.9337 439.931 Q30.1629 436.077 17.8713 428.213 L17.8713 419.879 Z" fill="#000000" fill-rule="nonzero" fill-opacity="1" /><path clip-path="url(#clip850)" d="M90.0584 392.015 L120.996 392.015 L120.996 401.65 L40.4754 401.65 L40.4754 392.015 L49.3295 392.015 Q44.1212 388.994 41.6212 384.411 Q39.0691 379.775 39.0691 373.369 Q39.0691 362.744 47.5066 356.13 Q55.944 349.463 69.694 349.463 Q83.4439 349.463 91.8813 356.13 Q100.319 362.744 100.319 373.369 Q100.319 379.775 97.8188 384.411 Q95.2667 388.994 90.0584 392.015 M69.694 359.411 Q59.1211 359.411 53.1315 363.786 Q47.0899 368.109 47.0899 375.713 Q47.0899 383.317 53.1315 387.692 Q59.1211 392.015 69.694 392.015 Q80.2668 392.015 86.3084 387.692 Q92.298 383.317 92.298 375.713 Q92.298 368.109 86.3084 363.786 Q80.2668 359.411 69.694 359.411 Z" fill="#000000" fill-rule="nonzero" fill-opacity="1" /><path clip-path="url(#clip850)" d="M90.0584 324.307 L120.996 324.307 L120.996 333.942 L40.4754 333.942 L40.4754 324.307 L49.3295 324.307 Q44.1212 321.286 41.6212 316.703 Q39.0691 312.067 39.0691 305.661 Q39.0691 295.036 47.5066 288.422 Q55.944 281.755 69.694 281.755 Q83.4439 281.755 91.8813 288.422 Q100.319 295.036 100.319 305.661 Q100.319 312.067 97.8188 316.703 Q95.2667 321.286 90.0584 324.307 M69.694 291.703 Q59.1211 291.703 53.1315 296.078 Q47.0899 300.401 47.0899 308.005 Q47.0899 315.609 53.1315 319.984 Q59.1211 324.307 69.694 324.307 Q80.2668 324.307 86.3084 319.984 Q92.298 315.609 92.298 308.005 Q92.298 300.401 86.3084 296.078 Q80.2668 291.703 69.694 291.703 Z" fill="#000000" fill-rule="nonzero" fill-opacity="1" /><path clip-path="url(#clip850)" d="M51.6732 220.453 Q45.2149 216.86 42.142 211.86 Q39.0691 206.86 39.0691 200.089 Q39.0691 190.974 45.4753 186.026 Q51.8295 181.078 63.6002 181.078 L98.8084 181.078 L98.8084 190.714 L63.9127 190.714 Q55.5274 190.714 51.4649 193.683 Q47.4024 196.651 47.4024 202.745 Q47.4024 210.193 52.3503 214.516 Q57.2982 218.839 65.8398 218.839 L98.8084 218.839 L98.8084 228.474 L63.9127 228.474 Q55.4753 228.474 51.4649 231.443 Q47.4024 234.412 47.4024 240.609 Q47.4024 247.953 52.4024 252.276 Q57.3503 256.599 65.8398 256.599 L98.8084 256.599 L98.8084 266.234 L40.4754 266.234 L40.4754 256.599 L49.5378 256.599 Q44.1733 253.318 41.6212 248.734 Q39.0691 244.151 39.0691 237.849 Q39.0691 231.495 42.2983 227.068 Q45.5274 222.589 51.6732 220.453 Z" fill="#000000" fill-rule="nonzero" fill-opacity="1" /><path clip-path="url(#clip850)" d="M17.8713 163.474 L17.8713 155.141 Q30.1629 147.329 41.9337 143.475 Q53.7045 139.568 65.319 139.568 Q76.9856 139.568 88.8084 143.475 Q100.631 147.329 112.871 155.141 L112.871 163.474 Q100.944 156.547 89.173 153.162 Q77.3502 149.724 65.319 149.724 Q53.2878 149.724 41.5691 153.162 Q29.8504 156.547 17.8713 163.474 Z" fill="#000000" fill-rule="nonzero" fill-opacity="1" /><path clip-path="url(#clip852)" d="M659.567 268.318 L678.051 332.9 L696.534 370.307 L715.018 437.691 L733.501 453.409 L751.985 368.398 L770.468 350.407 L788.952 503.915 L807.436 590.508 L825.919 437.385 L844.403 690.498 L862.886 510.209 L881.37 492.408 L899.854 617.458 L918.337 674.861 L936.821 785.22 L955.304 746.02 L973.788 653.152 L992.271 503.192 L1010.75 818.715 L1029.24 624.982 L1047.72 568.943 L1066.21 717.177 L1084.69 671.442 L1103.17 621.449 L1121.66 857.356 L1140.14 610.066 L1158.62 716.593 L1177.11 625.031 L1195.59 638.452 L1214.07 517.134 L1232.56 785.013 L1251.04 534.143 L1269.53 463.492 L1288.01 686.305 L1306.49 649.79 L1324.98 523.294 L1343.46 661.227 L1361.94 721.888 L1380.43 787.06 L1398.91 748.059 L1417.39 635.632 L1435.88 506.931 L1454.36 817.567 L1472.84 632.842 L1491.33 570.731 L1509.81 717.979 L1528.3 672.361 L1546.78 596.963 L1565.26 678.13 L1583.75 632.191 L1602.23 641.211 L1620.71 628.301 L1639.2 635.354 L1657.68 517.347 L1676.16 786.978 L1694.65 540.402 L1713.13 436.487 L1731.61 692.907 L1750.1 606.482 L1768.58 516.444 L1787.07 637.499 L1805.55 715.021 L1824.03 787.09 L1842.52 748.145 L1861 634.257 L1879.48 506.56 L1897.97 817.459 L1916.45 633.557 L1934.93 570.96 L1953.42 709.7 L1971.9 673.412 L1990.38 596.247 L2008.87 674.202 L2027.35 620.864 L2045.84 641.331 L2064.32 626.6 L2082.8 635.532 L2101.29 518.13 L2119.77 786.643 L2138.25 540.001 L2156.74 431.441 L2175.22 692.903 L2193.7 624.65 L2212.19 518.118 L2230.67 641.832 L2249.15 718.211 L2267.64 786.862 L2286.12 747.955 L2304.61 635.883 L2323.09 506.755 L2341.57 817.109 L2360.06 633.126 L2378.54 571.249 L2397.02 715.582 L2415.51 672.831 L2433.99 588.801 L2452.47 670.52 L2470.96 625.012 L2489.44 640.747 L2507.93 620.191 L2526.41 633.848 L2544.89 518.643 L2563.38 787.59 L2581.86 540.183 L2600.34 434.718 L2618.83 692.879 L2637.31 618.852 L2655.79 518.235 L2674.28 643.756 L2692.76 721.1 L2711.24 786.301 L2729.73 748.004 L2748.21 635.707 L2766.7 506.102 L2785.18 817.033 L2803.66 632.529 L2822.15 571.367 L2840.63 715.96 L2859.11 672.769 L2877.6 592.074 L2896.08 676.619 L2914.56 626.549 L2933.05 640.745 L2951.53 614.884 L2970.01 632.144 L2988.5 518.884 L3006.98 786.241 L3025.47 540.099 L3043.95 433.517 L3062.43 692.707 L3080.92 618.958 L3099.4 521.185 L3117.88 643.488 L3136.37 715.08 L3154.85 786.909 L3173.33 748.236 L3191.82 634.809 L3210.3 506.252 L3228.78 816.606 L3247.27 633.306 L3265.75 570.903 L3284.24 715.345 L3302.72 672.852 L3321.2 588.882 L3339.69 673.632 L3358.17 622.536 L3376.65 641.286 L3395.14 619.462 L3413.62 633.363 L3432.1 518.586 L3450.59 787.957 L3469.07 539.492 L3487.55 433.111 L3506.04 692.847 L3524.52 619.289 L3543.01 518.727 L3561.49 643.286 L3579.97 718.131 L3598.46 786.513 L3616.94 748.652 L3635.42 635.296 L3653.91 506.152 L3672.39 816.952 L3690.87 632.497 L3709.36 570.62 L3727.84 715.922 L3746.32 672.78 L3764.81 593.78 L3783.29 675.714 L3801.78 622.381 L3820.26 640.594 L3838.74 617.286 L3857.23 632.693 L3875.71 518.696 L3894.19 788.162 L3912.68 539.87 L3931.16 430.072 L3949.64 692.865 L3968.13 618.829 L3986.61 529.18 L4005.1 643.197 L4023.58 723.866 L4042.06 786.473 L4060.55 748.481 L4079.03 634.875 L4097.51 506.333 L4116 817.018 L4134.48 633.777 L4152.96 571.009 L4171.45 715.379 L4189.93 672.883 L4208.41 589.695 L4226.9 677.768 L4245.38 624.357 L4263.87 641.053 L4282.35 620.504 L4300.83 633.7 L4319.32 518.521 L4337.8 786.77 L4356.28 540.037 L4374.77 434.795 L4393.25 692.677 L4411.73 619.282 L4430.22 522.635 L4448.7 647.214 L4467.18 714.932 L4485.67 786.34 L4504.15 748.018 L4522.64 635.664 L4541.12 506.087 L4559.6 816.731 L4578.09 633.371 L4596.57 570.879 L4615.05 715.955 L4633.54 672.817 L4633.54 93.3437 L4615.05 109.503 L4596.57 107.31 L4578.09 98.3957 L4559.6 95.1149 L4541.12 74.2837 L4522.64 81.3174 L4504.15 91.5182 L4485.67 76.7031 L4467.18 85.7097 L4448.7 95.7914 L4430.22 88.8196 L4411.73 75.9511 L4393.25 80.679 L4374.77 92.2279 L4356.28 96.4699 L4337.8 75.6264 L4319.32 83.4668 L4300.83 86.7257 L4282.35 91.0999 L4263.87 83.6035 L4245.38 75.1837 L4226.9 103.207 L4208.41 102.05 L4189.93 93.3267 L4171.45 109.48 L4152.96 107.374 L4134.48 98.0577 L4116 95.6199 L4097.51 74.754 L4079.03 81.5484 L4060.55 91.4797 L4042.06 77.1354 L4023.58 85.9993 L4005.1 95.2473 L3986.61 88.8037 L3968.13 76.2651 L3949.64 80.9114 L3931.16 92.8096 L3912.68 96.1808 L3894.19 76.091 L3875.71 83.9134 L3857.23 86.1851 L3838.74 90.6949 L3820.26 83.9284 L3801.78 75.5363 L3783.29 103.014 L3764.81 101.862 L3746.32 93.2356 L3727.84 109.375 L3709.36 106.969 L3690.87 98.1116 L3672.39 96.0512 L3653.91 75.1666 L3635.42 81.7884 L3616.94 91.2593 L3598.46 76.8175 L3579.97 85.7032 L3561.49 95.4636 L3543.01 88.6559 L3524.52 75.105 L3506.04 79.9496 L3487.55 91.2996 L3469.07 96.7708 L3450.59 76.247 L3432.1 84.2651 L3413.62 86.5451 L3395.14 91.0495 L3376.65 83.2427 L3358.17 74.8615 L3339.69 102.254 L3321.2 101.111 L3302.72 93.281 L3284.24 109.432 L3265.75 106.279 L3247.27 98.295 L3228.78 95.2804 L3210.3 74.4335 L3191.82 81.4134 L3173.33 91.1607 L3154.85 76.9003 L3136.37 85.8427 L3117.88 95.0392 L3099.4 88.6256 L3080.92 75.2356 L3062.43 80.0195 L3043.95 92.7265 L3025.47 96.6553 L3006.98 76.9421 L2988.5 84.0896 L2970.01 85.9119 L2951.53 90.4056 L2933.05 83.9265 L2914.56 75.4973 L2896.08 103.081 L2877.6 101.899 L2859.11 93.3377 L2840.63 109.489 L2822.15 106.686 L2803.66 98.4874 L2785.18 95.1012 L2766.7 74.2604 L2748.21 81.2944 L2729.73 91.4805 L2711.24 77.1091 L2692.76 86.0291 L2674.28 95.7585 L2655.79 88.9867 L2637.31 76.0586 L2618.83 80.8124 L2600.34 90.5791 L2581.86 96.2176 L2563.38 75.6097 L2544.89 83.8632 L2526.41 85.138 L2507.93 89.7117 L2489.44 83.5374 L2470.96 75.1032 L2452.47 102.207 L2433.99 101.088 L2415.51 93.4229 L2397.02 109.582 L2378.54 106.411 L2360.06 97.2964 L2341.57 95.4352 L2323.09 74.5158 L2304.61 81.2267 L2286.12 91.1636 L2267.64 76.4723 L2249.15 85.392 L2230.67 95.199 L2212.19 88.309 L2193.7 76.0843 L2175.22 80.659 L2156.74 94.7395 L2138.25 96.6178 L2119.77 77.9164 L2101.29 82.6957 L2082.8 85.2449 L2064.32 89.8265 L2045.84 83.8323 L2027.35 75.3964 L2008.87 102.997 L1990.38 101.857 L1971.9 93.4734 L1953.42 109.607 L1934.93 107.104 L1916.45 98.5983 L1897.97 95.8252 L1879.48 74.9189 L1861 81.6172 L1842.52 91.1701 L1824.03 75.9918 L1805.55 85.0828 L1787.07 94.9494 L1768.58 88.6193 L1750.1 75.9099 L1731.61 80.7732 L1713.13 87.7593 L1694.65 95.5289 L1676.16 75.0926 L1657.68 83.9525 L1639.2 86.2123 L1620.71 90.8119 L1602.23 84.152 L1583.75 75.9015 L1565.26 103.744 L1546.78 102.631 L1528.3 94.3395 L1509.81 110.557 L1491.33 107.924 L1472.84 98.3198 L1454.36 95.5972 L1435.88 74.7691 L1417.39 81.6151 L1398.91 91.4389 L1380.43 77.1337 L1361.94 85.9718 L1343.46 96.1433 L1324.98 88.3593 L1306.49 76.416 L1288.01 80.8901 L1269.53 93.6342 L1251.04 96.1042 L1232.56 79.877 L1214.07 88.2242 L1195.59 88.4061 L1177.11 93.6779 L1158.62 87.4381 L1140.14 81.6566 L1121.66 111.246 L1103.17 109.777 L1084.69 105.365 L1066.21 123.269 L1047.72 117.327 L1029.24 103.965 L1010.75 101.118 L992.271 82.4866 L973.788 87.6584 L955.304 91.8191 L936.821 76.4814 L918.337 84.8472 L899.854 103.252 L881.37 89.8654 L862.886 101.111 L844.403 94.9434 L825.919 77.8445 L807.436 105.368 L788.952 70.8396 L770.468 91.3453 L751.985 92.0963 L733.501 104.203 L715.018 138.043 L696.534 177.992 L678.051 239.234 L659.567 267.931  Z" fill="#c8c8c8" fill-rule="evenodd" fill-opacity="0.5"/>
<polyline clip-path="url(#clip852)" style="stroke:#c8c8c8; stroke-linecap:round; stroke-linejoin:round; stroke-width:0; stroke-opacity:1; fill:none" points="659.567,268.118 678.051,277.433 696.534,268.987 715.018,263.214 733.501,258.002 751.985,254.18 770.468,252.117 788.952,252.225 807.436,252.756 825.919,251.75 844.403,252.188 862.886,253.706 881.37,255.604 899.854,257.796 918.337,259.529 936.821,259.365 955.304,258.185 973.788,256.818 992.271,255.209 1010.75,256.877 1029.24,258.051 1047.72,257.998 1066.21,259.846 1084.69,258.179 1103.17,257.064 1121.66,256.444 1140.14,254.851 1158.62,253.851 1177.11,252.505 1195.59,252.403 1214.07,252.067 1232.56,254.523 1251.04,251.57 1269.53,251.508 1288.01,253.018 1306.49,255.137 1324.98,255.379 1343.46,256.634 1361.94,257.971 1380.43,257.806 1398.91,256.341 1417.39,255.419 1435.88,254.899 1454.36,256.776 1472.84,257.636 1491.33,257.927 1509.81,259.464 1528.3,258.235 1546.78,257.038 1565.26,256.201 1583.75,255.089 1602.23,253.508 1620.71,252.096 1639.2,251.951 1657.68,251.679 1676.16,254.209 1694.65,252.034 1713.13,251.842 1731.61,252.572 1750.1,254.196 1768.58,255.077 1787.07,256.542 1805.55,257.755 1824.03,257.518 1842.52,256.268 1861,255.39 1879.48,254.611 1897.97,256.466 1916.45,257.526 1934.93,257.751 1953.42,259.359 1971.9,258.099 1990.38,256.983 2008.87,256.135 2027.35,255.153 2045.84,253.566 2064.32,252.205 2082.8,252.121 2101.29,251.738 2119.77,254.204 2138.25,251.763 2156.74,251.633 2175.22,252.706 2193.7,254.624 2212.19,255.203 2230.67,256.524 2249.15,257.834 2267.64,257.633 2286.12,256.259 2304.61,255.323 2323.09,254.659 2341.57,256.529 2360.06,257.467 2378.54,257.78 2397.02,259.398 2415.51,258.105 2433.99,256.937 2452.47,256.08 2470.96,255.056 2489.44,253.511 2507.93,252.11 2526.41,252.024 2544.89,251.725 2563.38,254.242 2581.86,251.946 2600.34,251.767 2618.83,252.655 2637.31,254.401 2655.79,255.158 2674.28,256.558 2692.76,257.793 2711.24,257.527 2729.73,256.239 2748.21,255.352 2766.7,254.644 2785.18,256.521 2803.66,257.532 2822.15,257.781 2840.63,259.389 2859.11,258.093 2877.6,256.96 2896.08,256.133 2914.56,255.121 2933.05,253.552 2951.53,252.149 2970.01,252.084 2988.5,251.753 3006.98,254.227 3025.47,251.846 3043.95,251.696 3062.43,252.678 3080.92,254.528 3099.4,255.184 3117.88,256.537 3136.37,257.785 3154.85,257.558 3173.33,256.255 3191.82,255.36 3210.3,254.664 3228.78,256.52 3247.27,257.497 3265.75,257.762 3284.24,259.363 3302.72,258.073 3321.2,256.93 3339.69,256.096 3358.17,255.063 3376.65,253.51 3395.14,252.13 3413.62,252.063 3432.1,251.745 3450.59,254.264 3469.07,251.929 3487.55,251.746 3506.04,252.672 3524.52,254.459 3543.01,255.137 3561.49,256.532 3579.97,257.766 3598.46,257.525 3616.94,256.245 3635.42,255.365 3653.91,254.669 3672.39,256.547 3690.87,257.542 3709.36,257.77 3727.84,259.367 3746.32,258.086 3764.81,256.96 3783.29,256.113 3801.78,255.092 3820.26,253.552 3838.74,252.161 3857.23,252.066 3875.71,251.732 3894.19,254.237 3912.68,251.87 3931.16,251.692 3949.64,252.66 3968.13,254.499 3986.61,255.203 4005.1,256.536 4023.58,257.81 4042.06,257.578 4060.55,256.257 4079.03,255.36 4097.51,254.653 4116,256.523 4134.48,257.519 4152.96,257.775 4171.45,259.381 4189.93,258.093 4208.41,256.953 4226.9,256.121 4245.38,255.101 4263.87,253.545 4282.35,252.132 4300.83,252.058 4319.32,251.72 4337.8,254.212 4356.28,251.908 4374.77,251.772 4393.25,252.699 4411.73,254.47 4430.22,255.181 4448.7,256.584 4467.18,257.802 4485.67,257.57 4504.15,256.257 4522.64,255.366 4541.12,254.668 4559.6,256.543 4578.09,257.54 4596.57,257.799 4615.05,259.405 4633.54,258.113 "/>
<path clip-path="url(#clip852)" d="M659.567 268.223 L678.051 305.264 L696.534 304.277 L715.018 302.557 L733.501 303.754 L751.985 297.689 L770.468 299.682 L788.952 301.481 L807.436 304.877 L825.919 307.894 L844.403 313.384 L862.886 321.011 L881.37 329.457 L899.854 340.805 L918.337 339.821 L936.821 340.714 L955.304 335.457 L973.788 327.874 L992.271 324.747 L1010.75 324.17 L1029.24 324.018 L1047.72 328.725 L1066.21 321.94 L1084.69 316.156 L1103.17 308.31 L1121.66 315.161 L1140.14 316.333 L1158.62 312.957 L1177.11 315.031 L1195.59 309.063 L1214.07 308.116 L1232.56 313.912 L1251.04 307.534 L1269.53 309.827 L1288.01 318.785 L1306.49 325.215 L1324.98 334.827 L1343.46 333.073 L1361.94 337.161 L1380.43 338.55 L1398.91 336.927 L1417.39 328.066 L1435.88 324.325 L1454.36 326.485 L1472.84 327.982 L1491.33 329.447 L1509.81 323.047 L1528.3 319.469 L1546.78 314.087 L1565.26 317.953 L1583.75 322.564 L1602.23 311.463 L1620.71 314.381 L1639.2 310.321 L1657.68 305.924 L1676.16 315.263 L1694.65 306.032 L1713.13 312.833 L1731.61 316.775 L1750.1 325.734 L1768.58 334.078 L1787.07 338.916 L1805.55 337.032 L1824.03 338.133 L1842.52 338.957 L1861 327.477 L1879.48 323.781 L1897.97 325.566 L1916.45 328.034 L1934.93 328.876 L1953.42 323.824 L1971.9 319.705 L1990.38 314.49 L2008.87 318.275 L2027.35 322.204 L2045.84 311.734 L2064.32 314.644 L2082.8 309.631 L2101.29 306.057 L2119.77 315.037 L2138.25 307.928 L2156.74 312.61 L2175.22 320.041 L2193.7 326.268 L2212.19 334.133 L2230.67 337.046 L2249.15 337.195 L2267.64 338.339 L2286.12 338.744 L2304.61 327.757 L2323.09 323.255 L2341.57 327.531 L2360.06 328.811 L2378.54 328.938 L2397.02 324.33 L2415.51 319.649 L2433.99 314.493 L2452.47 318.203 L2470.96 321.831 L2489.44 311.918 L2507.93 314.649 L2526.41 309.593 L2544.89 306.144 L2563.38 315.754 L2581.86 308.17 L2600.34 312.76 L2618.83 318.469 L2637.31 326.088 L2655.79 334.14 L2674.28 338.471 L2692.76 337.191 L2711.24 338.272 L2729.73 339.102 L2748.21 327.531 L2766.7 323.118 L2785.18 327.513 L2803.66 328.666 L2822.15 328.893 L2840.63 324.471 L2859.11 319.515 L2877.6 314.542 L2896.08 318.193 L2914.56 322.416 L2933.05 311.916 L2951.53 314.549 L2970.01 309.621 L2988.5 306.179 L3006.98 315.045 L3025.47 308.152 L3043.95 312.661 L3062.43 318.553 L3080.92 326.082 L3099.4 334.202 L3117.88 336.966 L3136.37 337.376 L3154.85 338.504 L3173.33 338.873 L3191.82 327.699 L3210.3 323.429 L3228.78 327.507 L3247.27 327.442 L3265.75 328.761 L3284.24 324.154 L3302.72 319.61 L3321.2 314.507 L3339.69 318.101 L3358.17 322.094 L3376.65 311.76 L3395.14 314.615 L3413.62 309.612 L3432.1 306.077 L3450.59 315.767 L3469.07 308.545 L3487.55 312.74 L3506.04 318.546 L3524.52 326.007 L3543.01 334.185 L3561.49 337.034 L3579.97 336.958 L3598.46 338.097 L3616.94 339.203 L3635.42 327.634 L3653.91 323.655 L3672.39 327.787 L3690.87 327.608 L3709.36 328.879 L3727.84 324.527 L3746.32 319.376 L3764.81 314.472 L3783.29 318.167 L3801.78 322.213 L3820.26 311.858 L3838.74 314.654 L3857.23 309.567 L3875.71 306.146 L3894.19 315.52 L3912.68 308.287 L3931.16 312.672 L3949.64 318.534 L3968.13 326.112 L3986.61 334.238 L4005.1 336.98 L4023.58 337.195 L4042.06 338.332 L4060.55 339.137 L4079.03 327.906 L4097.51 323.052 L4116 327.607 L4134.48 328.109 L4152.96 328.873 L4171.45 324.447 L4189.93 319.354 L4208.41 314.586 L4226.9 318.21 L4245.38 321.812 L4263.87 311.914 L4282.35 314.613 L4300.83 309.617 L4319.32 305.914 L4337.8 315.723 L4356.28 308.404 L4374.77 312.753 L4393.25 318.535 L4411.73 326.067 L4430.22 334.121 L4448.7 337.078 L4467.18 337.144 L4485.67 338.314 L4504.15 338.532 L4522.64 327.732 L4541.12 323.113 L4559.6 327.568 L4578.09 328.802 L4596.57 328.855 L4615.05 324.441 L4633.54 319.548 L4633.54 148.544 L4615.05 149.634 L4596.57 143.906 L4578.09 140.16 L4559.6 137.522 L4541.12 135.245 L4522.64 130.734 L4504.15 135.221 L4485.67 139.509 L4467.18 136.722 L4448.7 136.093 L4430.22 127.861 L4411.73 132.348 L4393.25 129.816 L4374.77 131.451 L4356.28 131.488 L4337.8 137.503 L4319.32 137.247 L4300.83 143.193 L4282.35 141.032 L4263.87 137.439 L4245.38 145.48 L4226.9 151.886 L4208.41 144.188 L4189.93 148.859 L4171.45 149.453 L4152.96 143.791 L4134.48 140.112 L4116 137.59 L4097.51 135.227 L4079.03 130.812 L4060.55 135.42 L4042.06 140.04 L4023.58 136.624 L4005.1 136.828 L3986.61 128.255 L3968.13 132.045 L3949.64 129.883 L3931.16 131.51 L3912.68 131.577 L3894.19 137.486 L3875.71 137.378 L3857.23 143.557 L3838.74 141.156 L3820.26 136.777 L3801.78 145.333 L3783.29 152.003 L3764.81 144.39 L3746.32 148.624 L3727.84 149.554 L3709.36 143.91 L3690.87 139.959 L3672.39 137.564 L3653.91 135.25 L3635.42 130.533 L3616.94 135.327 L3598.46 139.46 L3579.97 136.382 L3561.49 135.995 L3543.01 127.518 L3524.52 132.191 L3506.04 129.936 L3487.55 131.222 L3469.07 131.537 L3450.59 137.094 L3432.1 137.306 L3413.62 142.749 L3395.14 141.395 L3376.65 137.578 L3358.17 145.658 L3339.69 151.571 L3321.2 144.217 L3302.72 148.626 L3284.24 149.613 L3265.75 143.825 L3247.27 139.959 L3228.78 137.626 L3210.3 135.24 L3191.82 130.02 L3173.33 135.885 L3154.85 140.018 L3136.37 135.987 L3117.88 135.588 L3099.4 127.966 L3080.92 132.225 L3062.43 129.924 L3043.95 131.519 L3025.47 131.457 L3006.98 137.3 L2988.5 137.372 L2970.01 143.657 L2951.53 140.777 L2933.05 137.95 L2914.56 145.985 L2896.08 151.891 L2877.6 144.035 L2859.11 148.521 L2840.63 149.633 L2822.15 143.835 L2803.66 140.078 L2785.18 137.51 L2766.7 135.193 L2748.21 130.626 L2729.73 135.043 L2711.24 139.448 L2692.76 136.65 L2674.28 135.973 L2655.79 127.5 L2637.31 132.147 L2618.83 129.753 L2600.34 131.53 L2581.86 131.43 L2563.38 137.227 L2544.89 137.294 L2526.41 143.023 L2507.93 140.95 L2489.44 137.046 L2470.96 145.497 L2452.47 151.943 L2433.99 143.659 L2415.51 148.814 L2397.02 149.332 L2378.54 143.908 L2360.06 140.074 L2341.57 137.156 L2323.09 135.173 L2304.61 130.787 L2286.12 135.515 L2267.64 140.099 L2249.15 136.111 L2230.67 135.364 L2212.19 128.218 L2193.7 132.424 L2175.22 130.006 L2156.74 131.121 L2138.25 131.389 L2119.77 137.307 L2101.29 137.505 L2082.8 142.871 L2064.32 140.517 L2045.84 137.218 L2027.35 145.738 L2008.87 152.799 L1990.38 145.174 L1971.9 148.641 L1953.42 149.524 L1934.93 143.722 L1916.45 140.119 L1897.97 137.61 L1879.48 135.157 L1861 130.546 L1842.52 135.714 L1824.03 139.464 L1805.55 136.1 L1787.07 135.731 L1768.58 127.526 L1750.1 132.038 L1731.61 129.979 L1713.13 130.867 L1694.65 132.147 L1676.16 137.686 L1657.68 137.511 L1639.2 143.708 L1620.71 141.923 L1602.23 136.205 L1583.75 145.661 L1565.26 152.708 L1546.78 144.915 L1528.3 148.757 L1509.81 146.573 L1491.33 144.383 L1472.84 140.392 L1454.36 138.552 L1435.88 135.699 L1417.39 130.295 L1398.91 135.548 L1380.43 140.629 L1361.94 136.661 L1343.46 136.89 L1324.98 128.787 L1306.49 133.301 L1288.01 131.302 L1269.53 130.774 L1251.04 133.111 L1232.56 140.978 L1214.07 138.336 L1195.59 142.668 L1177.11 139.638 L1158.62 137.81 L1140.14 143.605 L1121.66 150.368 L1103.17 144.532 L1084.69 151.747 L1066.21 151.159 L1047.72 145.834 L1029.24 147.457 L1010.75 147.015 L992.271 139.207 L973.788 137.268 L955.304 144.827 L936.821 144.292 L918.337 138.889 L899.854 135.784 L881.37 132.564 L862.886 138.807 L844.403 134.924 L825.919 142.158 L807.436 147.318 L788.952 151.797 L770.468 155.883 L751.985 173.437 L733.501 184.576 L715.018 203.867 L696.534 230.573 L678.051 262.47 L659.567 267.977  Z" fill="#525252" fill-rule="evenodd" fill-opacity="0.5"/>
<polyline clip-path="url(#clip852)" style="stroke:#525252; stroke-linecap:round; stroke-linejoin:round; stroke-width:0; stroke-opacity:1; fill:none" points="659.567,268.118 678.051,277.433 696.534,268.987 715.018,263.214 733.501,258.002 751.985,254.18 770.468,252.117 788.952,252.225 807.436,252.756 825.919,251.75 844.403,252.188 862.886,253.706 881.37,255.604 899.854,257.796 918.337,259.529 936.821,259.365 955.304,258.185 973.788,256.818 992.271,255.209 1010.75,256.877 1029.24,258.051 1047.72,257.998 1066.21,259.846 1084.69,258.179 1103.17,257.064 1121.66,256.444 1140.14,254.851 1158.62,253.851 1177.11,252.505 1195.59,252.403 1214.07,252.067 1232.56,254.523 1251.04,251.57 1269.53,251.508 1288.01,253.018 1306.49,255.137 1324.98,255.379 1343.46,256.634 1361.94,257.971 1380.43,257.806 1398.91,256.341 1417.39,255.419 1435.88,254.899 1454.36,256.776 1472.84,257.636 1491.33,257.927 1509.81,259.464 1528.3,258.235 1546.78,257.038 1565.26,256.201 1583.75,255.089 1602.23,253.508 1620.71,252.096 1639.2,251.951 1657.68,251.679 1676.16,254.209 1694.65,252.034 1713.13,251.842 1731.61,252.572 1750.1,254.196 1768.58,255.077 1787.07,256.542 1805.55,257.755 1824.03,257.518 1842.52,256.268 1861,255.39 1879.48,254.611 1897.97,256.466 1916.45,257.526 1934.93,257.751 1953.42,259.359 1971.9,258.099 1990.38,256.983 2008.87,256.135 2027.35,255.153 2045.84,253.566 2064.32,252.205 2082.8,252.121 2101.29,251.738 2119.77,254.204 2138.25,251.763 2156.74,251.633 2175.22,252.706 2193.7,254.624 2212.19,255.203 2230.67,256.524 2249.15,257.834 2267.64,257.633 2286.12,256.259 2304.61,255.323 2323.09,254.659 2341.57,256.529 2360.06,257.467 2378.54,257.78 2397.02,259.398 2415.51,258.105 2433.99,256.937 2452.47,256.08 2470.96,255.056 2489.44,253.511 2507.93,252.11 2526.41,252.024 2544.89,251.725 2563.38,254.242 2581.86,251.946 2600.34,251.767 2618.83,252.655 2637.31,254.401 2655.79,255.158 2674.28,256.558 2692.76,257.793 2711.24,257.527 2729.73,256.239 2748.21,255.352 2766.7,254.644 2785.18,256.521 2803.66,257.532 2822.15,257.781 2840.63,259.389 2859.11,258.093 2877.6,256.96 2896.08,256.133 2914.56,255.121 2933.05,253.552 2951.53,252.149 2970.01,252.084 2988.5,251.753 3006.98,254.227 3025.47,251.846 3043.95,251.696 3062.43,252.678 3080.92,254.528 3099.4,255.184 3117.88,256.537 3136.37,257.785 3154.85,257.558 3173.33,256.255 3191.82,255.36 3210.3,254.664 3228.78,256.52 3247.27,257.497 3265.75,257.762 3284.24,259.363 3302.72,258.073 3321.2,256.93 3339.69,256.096 3358.17,255.063 3376.65,253.51 3395.14,252.13 3413.62,252.063 3432.1,251.745 3450.59,254.264 3469.07,251.929 3487.55,251.746 3506.04,252.672 3524.52,254.459 3543.01,255.137 3561.49,256.532 3579.97,257.766 3598.46,257.525 3616.94,256.245 3635.42,255.365 3653.91,254.669 3672.39,256.547 3690.87,257.542 3709.36,257.77 3727.84,259.367 3746.32,258.086 3764.81,256.96 3783.29,256.113 3801.78,255.092 3820.26,253.552 3838.74,252.161 3857.23,252.066 3875.71,251.732 3894.19,254.237 3912.68,251.87 3931.16,251.692 3949.64,252.66 3968.13,254.499 3986.61,255.203 4005.1,256.536 4023.58,257.81 4042.06,257.578 4060.55,256.257 4079.03,255.36 4097.51,254.653 4116,256.523 4134.48,257.519 4152.96,257.775 4171.45,259.381 4189.93,258.093 4208.41,256.953 4226.9,256.121 4245.38,255.101 4263.87,253.545 4282.35,252.132 4300.83,252.058 4319.32,251.72 4337.8,254.212 4356.28,251.908 4374.77,251.772 4393.25,252.699 4411.73,254.47 4430.22,255.181 4448.7,256.584 4467.18,257.802 4485.67,257.57 4504.15,256.257 4522.64,255.366 4541.12,254.668 4559.6,256.543 4578.09,257.54 4596.57,257.799 4615.05,259.405 4633.54,258.113 "/>
<path clip-path="url(#clip852)" d="M659.567 268.21 L678.051 300.319 L696.534 292.195 L715.018 289.164 L733.501 285.254 L751.985 282.863 L770.468 282.301 L788.952 287.012 L807.436 292.917 L825.919 292.827 L844.403 298.192 L862.886 301.706 L881.37 309.462 L899.854 313.776 L918.337 313.521 L936.821 312.34 L955.304 309.125 L973.788 302.453 L992.271 297.587 L1010.75 297.921 L1029.24 304.777 L1047.72 303.379 L1066.21 300.387 L1084.69 301.121 L1103.17 296.373 L1121.66 294.6 L1140.14 293.057 L1158.62 291.687 L1177.11 290.363 L1195.59 290.338 L1214.07 293.287 L1232.56 297.542 L1251.04 294.278 L1269.53 295.688 L1288.01 300.243 L1306.49 308.297 L1324.98 307.637 L1343.46 304.63 L1361.94 305.594 L1380.43 308.35 L1398.91 305.527 L1417.39 301.767 L1435.88 299.706 L1454.36 301.363 L1472.84 305.184 L1491.33 302.207 L1509.81 301.214 L1528.3 301.652 L1546.78 298.538 L1565.26 296.879 L1583.75 293.275 L1602.23 291.149 L1620.71 289.931 L1639.2 290.921 L1657.68 292.768 L1676.16 297.402 L1694.65 294.793 L1713.13 298.15 L1731.61 300.189 L1750.1 308.107 L1768.58 306.966 L1787.07 309.272 L1805.55 304.717 L1824.03 308.156 L1842.52 305.176 L1861 301.906 L1879.48 299.254 L1897.97 301.942 L1916.45 305.013 L1934.93 302.176 L1953.42 302.921 L1971.9 301.632 L1990.38 298.635 L2008.87 297.242 L2027.35 293.426 L2045.84 291.773 L2064.32 293.496 L2082.8 291.126 L2101.29 293.26 L2119.77 299.085 L2138.25 295.426 L2156.74 296.952 L2175.22 300.031 L2193.7 308.424 L2212.19 307.03 L2230.67 307.696 L2249.15 304.786 L2267.64 308.11 L2286.12 305.116 L2304.61 301.706 L2323.09 299.339 L2341.57 302.044 L2360.06 304.966 L2378.54 302.245 L2397.02 301.189 L2415.51 301.546 L2433.99 298.578 L2452.47 297.343 L2470.96 293.372 L2489.44 291.767 L2507.93 292.628 L2526.41 291.045 L2544.89 293.311 L2563.38 299.602 L2581.86 295.821 L2600.34 297.008 L2618.83 300.045 L2637.31 308.21 L2655.79 307.05 L2674.28 307.775 L2692.76 304.755 L2711.24 307.945 L2729.73 305.064 L2748.21 301.784 L2766.7 299.312 L2785.18 301.995 L2803.66 304.999 L2822.15 302.231 L2840.63 302.146 L2859.11 301.609 L2877.6 298.649 L2896.08 297.284 L2914.56 293.405 L2933.05 291.583 L2951.53 293.087 L2970.01 291.067 L2988.5 293.162 L3006.98 299.567 L3025.47 295.828 L3043.95 297.055 L3062.43 300.033 L3080.92 308.385 L3099.4 307.082 L3117.88 307.696 L3136.37 304.735 L3154.85 308.038 L3173.33 305.104 L3191.82 301.688 L3210.3 299.309 L3228.78 301.951 L3247.27 304.929 L3265.75 302 L3284.24 301.403 L3302.72 301.576 L3321.2 298.662 L3339.69 297.365 L3358.17 293.392 L3376.65 291.934 L3395.14 292.892 L3413.62 291.08 L3432.1 293.266 L3450.59 299.64 L3469.07 295.909 L3487.55 297.473 L3506.04 300.014 L3524.52 308.371 L3543.01 307.041 L3561.49 307.717 L3579.97 304.768 L3598.46 308.091 L3616.94 305.19 L3635.42 301.809 L3653.91 299.331 L3672.39 301.999 L3690.87 305.006 L3709.36 302.16 L3727.84 301.386 L3746.32 301.576 L3764.81 298.543 L3783.29 297.314 L3801.78 293.382 L3820.26 292.087 L3838.74 293.031 L3857.23 291.088 L3875.71 293.267 L3894.19 299.633 L3912.68 295.843 L3931.16 297.059 L3949.64 300.079 L3968.13 308.408 L3986.61 307.149 L4005.1 307.745 L4023.58 304.742 L4042.06 308.126 L4060.55 304.991 L4079.03 301.794 L4097.51 299.324 L4116 302.026 L4134.48 305.295 L4152.96 302.231 L4171.45 301.423 L4189.93 301.524 L4208.41 298.569 L4226.9 297.121 L4245.38 293.346 L4263.87 291.698 L4282.35 292.911 L4300.83 291.037 L4319.32 293.233 L4337.8 299.591 L4356.28 295.858 L4374.77 297.877 L4393.25 300.077 L4411.73 308.24 L4430.22 307.133 L4448.7 307.782 L4467.18 304.915 L4485.67 308.039 L4504.15 305.066 L4522.64 301.883 L4541.12 299.342 L4559.6 301.908 L4578.09 304.981 L4596.57 302.187 L4615.05 301.691 L4633.54 301.602 L4633.54 178.03 L4615.05 172.485 L4596.57 165.227 L4578.09 162.594 L4559.6 163.815 L4541.12 158.828 L4522.64 152.601 L4504.15 158.61 L4485.67 158.976 L4467.18 155.992 L4448.7 159.264 L4430.22 156.222 L4411.73 157 L4393.25 152.727 L4374.77 157.252 L4356.28 152.431 L4337.8 157.596 L4319.32 160.679 L4300.83 159.092 L4282.35 162.811 L4263.87 169.053 L4245.38 167.257 L4226.9 172.215 L4208.41 173.038 L4189.93 177.956 L4171.45 172.118 L4152.96 165.263 L4134.48 162.842 L4116 163.86 L4097.51 158.561 L4079.03 152.478 L4060.55 158.67 L4042.06 159.014 L4023.58 156.018 L4005.1 159.428 L3986.61 156.262 L3968.13 157.035 L3949.64 152.658 L3931.16 157.293 L3912.68 152.572 L3894.19 157.556 L3875.71 161.001 L3857.23 159.599 L3838.74 163.469 L3820.26 169.2 L3801.78 167.222 L3783.29 172.266 L3764.81 173.338 L3746.32 177.727 L3727.84 172.438 L3709.36 165.28 L3690.87 162.461 L3672.39 163.94 L3653.91 158.702 L3635.42 153.163 L3616.94 158.646 L3598.46 158.884 L3579.97 155.93 L3561.49 159.075 L3543.01 156.161 L3524.52 156.726 L3506.04 153.079 L3487.55 157.171 L3469.07 152.025 L3450.59 157.776 L3432.1 160.67 L3413.62 159.318 L3395.14 163.059 L3376.65 169.247 L3358.17 167.221 L3339.69 172.136 L3321.2 173.207 L3302.72 177.805 L3284.24 172.128 L3265.75 165.406 L3247.27 162.845 L3228.78 163.76 L3210.3 158.732 L3191.82 152.673 L3173.33 158.453 L3154.85 158.963 L3136.37 156.24 L3117.88 159.056 L3099.4 156.218 L3080.92 156.783 L3062.43 153.023 L3043.95 157.208 L3025.47 151.936 L3006.98 157.694 L2988.5 160.61 L2970.01 159.345 L2951.53 163.159 L2933.05 169.679 L2914.56 167.224 L2896.08 172.311 L2877.6 173.17 L2859.11 177.936 L2840.63 172.331 L2822.15 165.337 L2803.66 162.379 L2785.18 163.955 L2766.7 158.767 L2748.21 152.49 L2729.73 158.595 L2711.24 158.957 L2692.76 155.792 L2674.28 159.265 L2655.79 156.25 L2637.31 156.722 L2618.83 153.151 L2600.34 157.242 L2581.86 152.152 L2563.38 157.542 L2544.89 160.816 L2526.41 159.262 L2507.93 163.006 L2489.44 169.326 L2470.96 167.266 L2452.47 171.98 L2433.99 173.245 L2415.51 177.866 L2397.02 172.495 L2378.54 165.242 L2360.06 162.894 L2341.57 163.945 L2323.09 158.769 L2304.61 152.507 L2286.12 158.513 L2267.64 158.976 L2249.15 155.576 L2230.67 159.216 L2212.19 156.028 L2193.7 157.16 L2175.22 152.937 L2156.74 157.16 L2138.25 151.94 L2119.77 156.792 L2101.29 160.757 L2082.8 159.528 L2064.32 163.216 L2045.84 169.529 L2027.35 167.031 L2008.87 172.137 L1990.38 173.362 L1971.9 177.949 L1953.42 172.365 L1934.93 166.669 L1916.45 162.354 L1897.97 163.529 L1879.48 158.317 L1861 152.761 L1842.52 158.945 L1824.03 159.228 L1805.55 155.855 L1787.07 159.193 L1768.58 156.326 L1750.1 156.667 L1731.61 153.102 L1713.13 157.548 L1694.65 152.142 L1676.16 157.759 L1657.68 160.863 L1639.2 159.759 L1620.71 162.645 L1602.23 169.4 L1583.75 167.418 L1565.26 172.855 L1546.78 173.579 L1528.3 178.247 L1509.81 172.201 L1491.33 165.407 L1472.84 163.47 L1454.36 164.432 L1435.88 160.083 L1417.39 153.669 L1398.91 159.277 L1380.43 160.232 L1361.94 156.313 L1343.46 159.403 L1324.98 155.213 L1306.49 157.528 L1288.01 154.39 L1269.53 157.515 L1251.04 152.514 L1232.56 155.579 L1214.07 161.394 L1195.59 160.532 L1177.11 165.166 L1158.62 168.989 L1140.14 170.392 L1121.66 174.15 L1103.17 168.209 L1084.69 174.301 L1066.21 173.537 L1047.72 168.808 L1029.24 165.683 L1010.75 163.075 L992.271 164.038 L973.788 159.902 L955.304 165.747 L936.821 165.467 L918.337 162.389 L899.854 162.922 L881.37 156.034 L862.886 154.967 L844.403 160.961 L825.919 163.731 L807.436 163.854 L788.952 167.875 L770.468 178.63 L751.985 186.28 L733.501 201.691 L715.018 221.547 L696.534 246.619 L678.051 273.832 L659.567 268.018  Z" fill="#000000" fill-rule="evenodd" fill-opacity="0.5"/>
<polyline clip-path="url(#clip852)" style="stroke:#000000; stroke-linecap:round; stroke-linejoin:round; stroke-width:0; stroke-opacity:1; fill:none" points="659.567,268.118 678.051,277.433 696.534,268.987 715.018,263.214 733.501,258.002 751.985,254.18 770.468,252.117 788.952,252.225 807.436,252.756 825.919,251.75 844.403,252.188 862.886,253.706 881.37,255.604 899.854,257.796 918.337,259.529 936.821,259.365 955.304,258.185 973.788,256.818 992.271,255.209 1010.75,256.877 1029.24,258.051 1047.72,257.998 1066.21,259.846 1084.69,258.179 1103.17,257.064 1121.66,256.444 1140.14,254.851 1158.62,253.851 1177.11,252.505 1195.59,252.403 1214.07,252.067 1232.56,254.523 1251.04,251.57 1269.53,251.508 1288.01,253.018 1306.49,255.137 1324.98,255.379 1343.46,256.634 1361.94,257.971 1380.43,257.806 1398.91,256.341 1417.39,255.419 1435.88,254.899 1454.36,256.776 1472.84,257.636 1491.33,257.927 1509.81,259.464 1528.3,258.235 1546.78,257.038 1565.26,256.201 1583.75,255.089 1602.23,253.508 1620.71,252.096 1639.2,251.951 1657.68,251.679 1676.16,254.209 1694.65,252.034 1713.13,251.842 1731.61,252.572 1750.1,254.196 1768.58,255.077 1787.07,256.542 1805.55,257.755 1824.03,257.518 1842.52,256.268 1861,255.39 1879.48,254.611 1897.97,256.466 1916.45,257.526 1934.93,257.751 1953.42,259.359 1971.9,258.099 1990.38,256.983 2008.87,256.135 2027.35,255.153 2045.84,253.566 2064.32,252.205 2082.8,252.121 2101.29,251.738 2119.77,254.204 2138.25,251.763 2156.74,251.633 2175.22,252.706 2193.7,254.624 2212.19,255.203 2230.67,256.524 2249.15,257.834 2267.64,257.633 2286.12,256.259 2304.61,255.323 2323.09,254.659 2341.57,256.529 2360.06,257.467 2378.54,257.78 2397.02,259.398 2415.51,258.105 2433.99,256.937 2452.47,256.08 2470.96,255.056 2489.44,253.511 2507.93,252.11 2526.41,252.024 2544.89,251.725 2563.38,254.242 2581.86,251.946 2600.34,251.767 2618.83,252.655 2637.31,254.401 2655.79,255.158 2674.28,256.558 2692.76,257.793 2711.24,257.527 2729.73,256.239 2748.21,255.352 2766.7,254.644 2785.18,256.521 2803.66,257.532 2822.15,257.781 2840.63,259.389 2859.11,258.093 2877.6,256.96 2896.08,256.133 2914.56,255.121 2933.05,253.552 2951.53,252.149 2970.01,252.084 2988.5,251.753 3006.98,254.227 3025.47,251.846 3043.95,251.696 3062.43,252.678 3080.92,254.528 3099.4,255.184 3117.88,256.537 3136.37,257.785 3154.85,257.558 3173.33,256.255 3191.82,255.36 3210.3,254.664 3228.78,256.52 3247.27,257.497 3265.75,257.762 3284.24,259.363 3302.72,258.073 3321.2,256.93 3339.69,256.096 3358.17,255.063 3376.65,253.51 3395.14,252.13 3413.62,252.063 3432.1,251.745 3450.59,254.264 3469.07,251.929 3487.55,251.746 3506.04,252.672 3524.52,254.459 3543.01,255.137 3561.49,256.532 3579.97,257.766 3598.46,257.525 3616.94,256.245 3635.42,255.365 3653.91,254.669 3672.39,256.547 3690.87,257.542 3709.36,257.77 3727.84,259.367 3746.32,258.086 3764.81,256.96 3783.29,256.113 3801.78,255.092 3820.26,253.552 3838.74,252.161 3857.23,252.066 3875.71,251.732 3894.19,254.237 3912.68,251.87 3931.16,251.692 3949.64,252.66 3968.13,254.499 3986.61,255.203 4005.1,256.536 4023.58,257.81 4042.06,257.578 4060.55,256.257 4079.03,255.36 4097.51,254.653 4116,256.523 4134.48,257.519 4152.96,257.775 4171.45,259.381 4189.93,258.093 4208.41,256.953 4226.9,256.121 4245.38,255.101 4263.87,253.545 4282.35,252.132 4300.83,252.058 4319.32,251.72 4337.8,254.212 4356.28,251.908 4374.77,251.772 4393.25,252.699 4411.73,254.47 4430.22,255.181 4448.7,256.584 4467.18,257.802 4485.67,257.57 4504.15,256.257 4522.64,255.366 4541.12,254.668 4559.6,256.543 4578.09,257.54 4596.57,257.799 4615.05,259.405 4633.54,258.113 "/>
<path clip-path="url(#clip850)" d="M3871.83 853.161 L4612.34 853.161 L4612.34 334.761 L3871.83 334.761  Z" fill="#ffffff" fill-rule="evenodd" fill-opacity="1"/>
<polyline clip-path="url(#clip850)" style="stroke:#000000; stroke-linecap:round; stroke-linejoin:round; stroke-width:4; stroke-opacity:1; fill:none" points="3871.83,853.161 4612.34,853.161 4612.34,334.761 3871.83,334.761 3871.83,853.161 "/>
<polyline clip-path="url(#clip850)" style="stroke:#c8c8c8; stroke-linecap:round; stroke-linejoin:round; stroke-width:2; stroke-opacity:1; fill:none" points="3918.64,464.361 4199.46,464.361 "/>
<path clip-path="url(#clip850)" d="M4247.95 497.723 L4267.04 497.723 L4267.04 431.809 L4246.27 435.976 L4246.27 425.328 L4266.93 421.161 L4278.62 421.161 L4278.62 497.723 L4297.72 497.723 L4297.72 507.561 L4247.95 507.561 L4247.95 497.723 Z" fill="#000000" fill-rule="nonzero" fill-opacity="1" /><path clip-path="url(#clip850)" d="M4346.33 428.858 Q4337.3 428.858 4332.73 437.77 Q4328.21 446.624 4328.21 464.448 Q4328.21 482.214 4332.73 491.126 Q4337.3 499.98 4346.33 499.98 Q4355.41 499.98 4359.93 491.126 Q4364.5 482.214 4364.5 464.448 Q4364.5 446.624 4359.93 437.77 Q4355.41 428.858 4346.33 428.858 M4346.33 419.599 Q4360.85 419.599 4368.49 431.115 Q4376.19 442.573 4376.19 464.448 Q4376.19 486.265 4368.49 497.781 Q4360.85 509.239 4346.33 509.239 Q4331.8 509.239 4324.1 497.781 Q4316.47 486.265 4316.47 464.448 Q4316.47 442.573 4324.1 431.115 Q4331.8 419.599 4346.33 419.599 Z" fill="#000000" fill-rule="nonzero" fill-opacity="1" /><path clip-path="url(#clip850)" d="M4421.73 428.858 Q4412.7 428.858 4408.13 437.77 Q4403.62 446.624 4403.62 464.448 Q4403.62 482.214 4408.13 491.126 Q4412.7 499.98 4421.73 499.98 Q4430.82 499.98 4435.33 491.126 Q4439.9 482.214 4439.9 464.448 Q4439.9 446.624 4435.33 437.77 Q4430.82 428.858 4421.73 428.858 M4421.73 419.599 Q4436.26 419.599 4443.89 431.115 Q4451.59 442.573 4451.59 464.448 Q4451.59 486.265 4443.89 497.781 Q4436.26 509.239 4421.73 509.239 Q4407.21 509.239 4399.51 497.781 Q4391.87 486.265 4391.87 464.448 Q4391.87 442.573 4399.51 431.115 Q4407.21 419.599 4421.73 419.599 Z" fill="#000000" fill-rule="nonzero" fill-opacity="1" /><path clip-path="url(#clip850)" d="M4545.63 469.541 Q4540.6 469.541 4537.7 473.823 Q4534.87 478.105 4534.87 485.744 Q4534.87 493.267 4537.7 497.608 Q4540.6 501.89 4545.63 501.89 Q4550.55 501.89 4553.39 497.608 Q4556.28 493.267 4556.28 485.744 Q4556.28 478.163 4553.39 473.881 Q4550.55 469.541 4545.63 469.541 M4545.63 462.191 Q4554.77 462.191 4560.16 468.557 Q4565.54 474.923 4565.54 485.744 Q4565.54 496.566 4560.1 502.932 Q4554.72 509.239 4545.63 509.239 Q4536.37 509.239 4530.99 502.932 Q4525.61 496.566 4525.61 485.744 Q4525.61 474.865 4530.99 468.557 Q4536.43 462.191 4545.63 462.191 M4485.91 426.948 Q4480.93 426.948 4478.04 431.289 Q4475.2 435.571 4475.2 443.094 Q4475.2 450.733 4478.04 455.015 Q4480.87 459.298 4485.91 459.298 Q4490.94 459.298 4493.78 455.015 Q4496.67 450.733 4496.67 443.094 Q4496.67 435.629 4493.78 431.289 Q4490.89 426.948 4485.91 426.948 M4538.17 419.599 L4547.42 419.599 L4493.37 509.239 L4484.11 509.239 L4538.17 419.599 M4485.91 419.599 Q4495.05 419.599 4500.49 425.964 Q4505.93 432.272 4505.93 443.094 Q4505.93 454.031 4500.49 460.339 Q4495.11 466.647 4485.91 466.647 Q4476.71 466.647 4471.33 460.339 Q4466 453.974 4466 443.094 Q4466 432.33 4471.38 425.964 Q4476.77 419.599 4485.91 419.599 Z" fill="#000000" fill-rule="nonzero" fill-opacity="1" /><polyline clip-path="url(#clip850)" style="stroke:#525252; stroke-linecap:round; stroke-linejoin:round; stroke-width:2; stroke-opacity:1; fill:none" points="3918.64,593.961 4199.46,593.961 "/>
<path clip-path="url(#clip850)" d="M4251.82 635.367 L4251.82 624.719 Q4256.22 626.803 4260.74 627.902 Q4265.25 629.002 4269.59 629.002 Q4281.16 629.002 4287.24 621.247 Q4293.37 613.435 4294.24 597.578 Q4290.89 602.555 4285.74 605.217 Q4280.59 607.879 4274.34 607.879 Q4261.37 607.879 4253.79 600.067 Q4246.27 592.196 4246.27 578.597 Q4246.27 565.287 4254.14 557.243 Q4262.01 549.199 4275.09 549.199 Q4290.08 549.199 4297.95 560.715 Q4305.87 572.173 4305.87 594.048 Q4305.87 614.476 4296.15 626.687 Q4286.49 638.839 4270.11 638.839 Q4265.71 638.839 4261.2 637.971 Q4256.69 637.103 4251.82 635.367 M4275.09 598.736 Q4282.96 598.736 4287.53 593.354 Q4292.16 587.972 4292.16 578.597 Q4292.16 569.28 4287.53 563.898 Q4282.96 558.458 4275.09 558.458 Q4267.22 558.458 4262.59 563.898 Q4258.02 569.28 4258.02 578.597 Q4258.02 587.972 4262.59 593.354 Q4267.22 598.736 4275.09 598.736 Z" fill="#000000" fill-rule="nonzero" fill-opacity="1" /><path clip-path="url(#clip850)" d="M4351.88 558.458 Q4342.85 558.458 4338.28 567.37 Q4333.77 576.224 4333.77 594.048 Q4333.77 611.814 4338.28 620.726 Q4342.85 629.58 4351.88 629.58 Q4360.97 629.58 4365.48 620.726 Q4370.05 611.814 4370.05 594.048 Q4370.05 576.224 4365.48 567.37 Q4360.97 558.458 4351.88 558.458 M4351.88 549.199 Q4366.41 549.199 4374.05 560.715 Q4381.74 572.173 4381.74 594.048 Q4381.74 615.865 4374.05 627.381 Q4366.41 638.839 4351.88 638.839 Q4337.36 638.839 4329.66 627.381 Q4322.02 615.865 4322.02 594.048 Q4322.02 572.173 4329.66 560.715 Q4337.36 549.199 4351.88 549.199 Z" fill="#000000" fill-rule="nonzero" fill-opacity="1" /><path clip-path="url(#clip850)" d="M4475.78 599.141 Q4470.75 599.141 4467.85 603.423 Q4465.02 607.705 4465.02 615.344 Q4465.02 622.867 4467.85 627.208 Q4470.75 631.49 4475.78 631.49 Q4480.7 631.49 4483.54 627.208 Q4486.43 622.867 4486.43 615.344 Q4486.43 607.763 4483.54 603.481 Q4480.7 599.141 4475.78 599.141 M4475.78 591.791 Q4484.92 591.791 4490.31 598.157 Q4495.69 604.523 4495.69 615.344 Q4495.69 626.166 4490.25 632.532 Q4484.87 638.839 4475.78 638.839 Q4466.52 638.839 4461.14 632.532 Q4455.76 626.166 4455.76 615.344 Q4455.76 604.465 4461.14 598.157 Q4466.58 591.791 4475.78 591.791 M4416.06 556.548 Q4411.08 556.548 4408.19 560.889 Q4405.35 565.171 4405.35 572.694 Q4405.35 580.333 4408.19 584.615 Q4411.02 588.898 4416.06 588.898 Q4421.09 588.898 4423.93 584.615 Q4426.82 580.333 4426.82 572.694 Q4426.82 565.229 4423.93 560.889 Q4421.04 556.548 4416.06 556.548 M4468.32 549.199 L4477.58 549.199 L4423.52 638.839 L4414.27 638.839 L4468.32 549.199 M4416.06 549.199 Q4425.2 549.199 4430.64 555.564 Q4436.08 561.872 4436.08 572.694 Q4436.08 583.631 4430.64 589.939 Q4425.26 596.247 4416.06 596.247 Q4406.86 596.247 4401.48 589.939 Q4396.15 583.574 4396.15 572.694 Q4396.15 561.93 4401.53 555.564 Q4406.92 549.199 4416.06 549.199 Z" fill="#000000" fill-rule="nonzero" fill-opacity="1" /><polyline clip-path="url(#clip850)" style="stroke:#000000; stroke-linecap:round; stroke-linejoin:round; stroke-width:2; stroke-opacity:1; fill:none" points="3918.64,723.561 4199.46,723.561 "/>
<path clip-path="url(#clip850)" d="M4275.9 725.731 Q4267.56 725.731 4262.76 730.187 Q4258.02 734.643 4258.02 742.456 Q4258.02 750.268 4262.76 754.724 Q4267.56 759.18 4275.9 759.18 Q4284.23 759.18 4289.03 754.724 Q4293.84 750.21 4293.84 742.456 Q4293.84 734.643 4289.03 730.187 Q4284.29 725.731 4275.9 725.731 M4264.21 720.755 Q4256.69 718.903 4252.46 713.752 Q4248.29 708.602 4248.29 701.194 Q4248.29 690.836 4255.64 684.817 Q4263.05 678.799 4275.9 678.799 Q4288.8 678.799 4296.15 684.817 Q4303.5 690.836 4303.5 701.194 Q4303.5 708.602 4299.28 713.752 Q4295.11 718.903 4287.65 720.755 Q4296.09 722.722 4300.78 728.451 Q4305.53 734.18 4305.53 742.456 Q4305.53 755.014 4297.83 761.727 Q4290.19 768.439 4275.9 768.439 Q4261.6 768.439 4253.91 761.727 Q4246.27 755.014 4246.27 742.456 Q4246.27 734.18 4251.01 728.451 Q4255.76 722.722 4264.21 720.755 M4259.93 702.294 Q4259.93 709.007 4264.09 712.768 Q4268.32 716.53 4275.9 716.53 Q4283.42 716.53 4287.65 712.768 Q4291.93 709.007 4291.93 702.294 Q4291.93 695.581 4287.65 691.82 Q4283.42 688.058 4275.9 688.058 Q4268.32 688.058 4264.09 691.82 Q4259.93 695.581 4259.93 702.294 Z" fill="#000000" fill-rule="nonzero" fill-opacity="1" /><path clip-path="url(#clip850)" d="M4351.3 688.058 Q4342.28 688.058 4337.7 696.97 Q4333.19 705.824 4333.19 723.648 Q4333.19 741.414 4337.7 750.326 Q4342.28 759.18 4351.3 759.18 Q4360.39 759.18 4364.9 750.326 Q4369.47 741.414 4369.47 723.648 Q4369.47 705.824 4364.9 696.97 Q4360.39 688.058 4351.3 688.058 M4351.3 678.799 Q4365.83 678.799 4373.47 690.315 Q4381.16 701.773 4381.16 723.648 Q4381.16 745.465 4373.47 756.981 Q4365.83 768.439 4351.3 768.439 Q4336.78 768.439 4329.08 756.981 Q4321.44 745.465 4321.44 723.648 Q4321.44 701.773 4329.08 690.315 Q4336.78 678.799 4351.3 678.799 Z" fill="#000000" fill-rule="nonzero" fill-opacity="1" /><path clip-path="url(#clip850)" d="M4475.2 728.741 Q4470.17 728.741 4467.27 733.023 Q4464.44 737.305 4464.44 744.944 Q4464.44 752.467 4467.27 756.808 Q4470.17 761.09 4475.2 761.09 Q4480.12 761.09 4482.96 756.808 Q4485.85 752.467 4485.85 744.944 Q4485.85 737.363 4482.96 733.081 Q4480.12 728.741 4475.2 728.741 M4475.2 721.391 Q4484.35 721.391 4489.73 727.757 Q4495.11 734.123 4495.11 744.944 Q4495.11 755.766 4489.67 762.132 Q4484.29 768.439 4475.2 768.439 Q4465.94 768.439 4460.56 762.132 Q4455.18 755.766 4455.18 744.944 Q4455.18 734.065 4460.56 727.757 Q4466 721.391 4475.2 721.391 M4415.48 686.148 Q4410.5 686.148 4407.61 690.489 Q4404.77 694.771 4404.77 702.294 Q4404.77 709.933 4407.61 714.215 Q4410.45 718.498 4415.48 718.498 Q4420.52 718.498 4423.35 714.215 Q4426.24 709.933 4426.24 702.294 Q4426.24 694.829 4423.35 690.489 Q4420.46 686.148 4415.48 686.148 M4467.74 678.799 L4477 678.799 L4422.95 768.439 L4413.69 768.439 L4467.74 678.799 M4415.48 678.799 Q4424.62 678.799 4430.06 685.164 Q4435.5 691.472 4435.5 702.294 Q4435.5 713.231 4430.06 719.539 Q4424.68 725.847 4415.48 725.847 Q4406.28 725.847 4400.9 719.539 Q4395.57 713.174 4395.57 702.294 Q4395.57 691.53 4400.96 685.164 Q4406.34 678.799 4415.48 678.799 Z" fill="#000000" fill-rule="nonzero" fill-opacity="1" /></svg>
