<?xml version="1.0" encoding="utf-8"?>
<svg xmlns="http://www.w3.org/2000/svg" xmlns:xlink="http://www.w3.org/1999/xlink" width="1200" height="300" viewBox="0 0 4800 1200">
<defs>
  <clipPath id="clip330">
    <rect x="0" y="0" width="4800" height="1200"/>
  </clipPath>
</defs>
<path clip-path="url(#clip330)" d="M0 1200 L4800 1200 L4800 0 L0 0  Z" fill="#ffffff" fill-rule="evenodd" fill-opacity="1"/>
<defs>
  <clipPath id="clip331">
    <rect x="960" y="0" width="3361" height="1200"/>
  </clipPath>
</defs>
<path clip-path="url(#clip330)" d="M827.418 880.951 L4752.76 880.951 L4752.76 47.2441 L827.418 47.2441  Z" fill="#ffffff" fill-rule="evenodd" fill-opacity="1"/>
<defs>
  <clipPath id="clip332">
    <rect x="827" y="47" width="3926" height="835"/>
  </clipPath>
</defs>
<polyline clip-path="url(#clip332)" style="stroke:#000000; stroke-linecap:round; stroke-linejoin:round; stroke-width:2; stroke-opacity:0.1; fill:none" points="1334.66,880.951 1334.66,47.2441 "/>
<polyline clip-path="url(#clip332)" style="stroke:#000000; stroke-linecap:round; stroke-linejoin:round; stroke-width:2; stroke-opacity:0.1; fill:none" points="2161.41,880.951 2161.41,47.2441 "/>
<polyline clip-path="url(#clip332)" style="stroke:#000000; stroke-linecap:round; stroke-linejoin:round; stroke-width:2; stroke-opacity:0.1; fill:none" points="2988.16,880.951 2988.16,47.2441 "/>
<polyline clip-path="url(#clip332)" style="stroke:#000000; stroke-linecap:round; stroke-linejoin:round; stroke-width:2; stroke-opacity:0.1; fill:none" points="3814.91,880.951 3814.91,47.2441 "/>
<polyline clip-path="url(#clip332)" style="stroke:#000000; stroke-linecap:round; stroke-linejoin:round; stroke-width:2; stroke-opacity:0.1; fill:none" points="4641.66,880.951 4641.66,47.2441 "/>
<polyline clip-path="url(#clip330)" style="stroke:#000000; stroke-linecap:round; stroke-linejoin:round; stroke-width:4; stroke-opacity:1; fill:none" points="827.418,880.951 4752.76,880.951 "/>
<polyline clip-path="url(#clip330)" style="stroke:#000000; stroke-linecap:round; stroke-linejoin:round; stroke-width:4; stroke-opacity:1; fill:none" points="1334.66,880.951 1334.66,862.054 "/>
<polyline clip-path="url(#clip330)" style="stroke:#000000; stroke-linecap:round; stroke-linejoin:round; stroke-width:4; stroke-opacity:1; fill:none" points="2161.41,880.951 2161.41,862.054 "/>
<polyline clip-path="url(#clip330)" style="stroke:#000000; stroke-linecap:round; stroke-linejoin:round; stroke-width:4; stroke-opacity:1; fill:none" points="2988.16,880.951 2988.16,862.054 "/>
<polyline clip-path="url(#clip330)" style="stroke:#000000; stroke-linecap:round; stroke-linejoin:round; stroke-width:4; stroke-opacity:1; fill:none" points="3814.91,880.951 3814.91,862.054 "/>
<polyline clip-path="url(#clip330)" style="stroke:#000000; stroke-linecap:round; stroke-linejoin:round; stroke-width:4; stroke-opacity:1; fill:none" points="4641.66,880.951 4641.66,862.054 "/>
<path clip-path="url(#clip330)" d="M1323.97 997.881 L1356.61 997.881 L1356.61 1005.75 L1312.72 1005.75 L1312.72 997.881 Q1318.04 992.372 1327.21 983.113 Q1336.42 973.807 1338.78 971.122 Q1343.27 966.076 1345.03 962.604 Q1346.84 959.085 1346.84 955.705 Q1346.84 950.196 1342.95 946.724 Q1339.11 943.252 1332.9 943.252 Q1328.51 943.252 1323.6 944.78 Q1318.74 946.307 1313.18 949.409 L1313.18 939.965 Q1318.83 937.696 1323.74 936.539 Q1328.64 935.382 1332.72 935.382 Q1343.46 935.382 1349.85 940.752 Q1356.24 946.122 1356.24 955.104 Q1356.24 959.363 1354.62 963.205 Q1353.04 967.002 1348.83 972.187 Q1347.67 973.529 1341.47 979.965 Q1335.27 986.353 1323.97 997.881 Z" fill="#000000" fill-rule="nonzero" fill-opacity="1" /><path clip-path="url(#clip330)" d="M2167.43 944.78 L2143.82 981.678 L2167.43 981.678 L2167.43 944.78 M2164.98 936.631 L2176.74 936.631 L2176.74 981.678 L2186.6 981.678 L2186.6 989.455 L2176.74 989.455 L2176.74 1005.75 L2167.43 1005.75 L2167.43 989.455 L2136.23 989.455 L2136.23 980.428 L2164.98 936.631 Z" fill="#000000" fill-rule="nonzero" fill-opacity="1" /><path clip-path="url(#clip330)" d="M2988.97 967.465 Q2982.68 967.465 2978.97 971.77 Q2975.32 976.076 2975.32 983.576 Q2975.32 991.029 2978.97 995.381 Q2982.68 999.687 2988.97 999.687 Q2995.27 999.687 2998.93 995.381 Q3002.63 991.029 3002.63 983.576 Q3002.63 976.076 2998.93 971.77 Q2995.27 967.465 2988.97 967.465 M3007.54 938.159 L3007.54 946.678 Q3004.02 945.011 3000.41 944.131 Q2996.84 943.252 2993.32 943.252 Q2984.07 943.252 2979.16 949.502 Q2974.3 955.752 2973.6 968.391 Q2976.33 964.363 2980.45 962.233 Q2984.57 960.057 2989.53 960.057 Q2999.94 960.057 3005.96 966.4 Q3012.03 972.696 3012.03 983.576 Q3012.03 994.224 3005.73 1000.66 Q2999.44 1007.09 2988.97 1007.09 Q2976.98 1007.09 2970.64 997.927 Q2964.3 988.715 2964.3 971.261 Q2964.3 954.872 2972.07 945.15 Q2979.85 935.382 2992.95 935.382 Q2996.47 935.382 3000.04 936.076 Q3003.65 936.77 3007.54 938.159 Z" fill="#000000" fill-rule="nonzero" fill-opacity="1" /><path clip-path="url(#clip330)" d="M3814.91 972.928 Q3808.25 972.928 3804.4 976.492 Q3800.61 980.057 3800.61 986.307 Q3800.61 992.557 3804.4 996.122 Q3808.25 999.687 3814.91 999.687 Q3821.58 999.687 3825.42 996.122 Q3829.26 992.511 3829.26 986.307 Q3829.26 980.057 3825.42 976.492 Q3821.62 972.928 3814.91 972.928 M3805.56 968.946 Q3799.54 967.465 3796.16 963.344 Q3792.83 959.224 3792.83 953.298 Q3792.83 945.011 3798.71 940.196 Q3804.63 935.382 3814.91 935.382 Q3825.24 935.382 3831.12 940.196 Q3837 945.011 3837 953.298 Q3837 959.224 3833.62 963.344 Q3830.28 967.465 3824.31 968.946 Q3831.07 970.52 3834.82 975.104 Q3838.62 979.687 3838.62 986.307 Q3838.62 996.353 3832.46 1001.72 Q3826.35 1007.09 3814.91 1007.09 Q3803.48 1007.09 3797.32 1001.72 Q3791.21 996.353 3791.21 986.307 Q3791.21 979.687 3795 975.104 Q3798.8 970.52 3805.56 968.946 M3802.13 954.178 Q3802.13 959.548 3805.47 962.557 Q3808.85 965.567 3814.91 965.567 Q3820.93 965.567 3824.31 962.557 Q3827.74 959.548 3827.74 954.178 Q3827.74 948.807 3824.31 945.798 Q3820.93 942.789 3814.91 942.789 Q3808.85 942.789 3805.47 945.798 Q3802.13 948.807 3802.13 954.178 Z" fill="#000000" fill-rule="nonzero" fill-opacity="1" /><path clip-path="url(#clip330)" d="M4591.04 997.881 L4606.31 997.881 L4606.31 945.15 L4589.69 948.483 L4589.69 939.965 L4606.22 936.631 L4615.57 936.631 L4615.57 997.881 L4630.85 997.881 L4630.85 1005.75 L4591.04 1005.75 L4591.04 997.881 Z" fill="#000000" fill-rule="nonzero" fill-opacity="1" /><path clip-path="url(#clip330)" d="M4669.74 942.789 Q4662.52 942.789 4658.86 949.918 Q4655.25 957.002 4655.25 971.261 Q4655.25 985.474 4658.86 992.603 Q4662.52 999.687 4669.74 999.687 Q4677.01 999.687 4680.62 992.603 Q4684.28 985.474 4684.28 971.261 Q4684.28 957.002 4680.62 949.918 Q4677.01 942.789 4669.74 942.789 M4669.74 935.382 Q4681.36 935.382 4687.47 944.594 Q4693.63 953.761 4693.63 971.261 Q4693.63 988.715 4687.47 997.927 Q4681.36 1007.09 4669.74 1007.09 Q4658.12 1007.09 4651.96 997.927 Q4645.85 988.715 4645.85 971.261 Q4645.85 953.761 4651.96 944.594 Q4658.12 935.382 4669.74 935.382 Z" fill="#000000" fill-rule="nonzero" fill-opacity="1" /><path clip-path="url(#clip330)" d="M2507.33 1072.18 L2573.11 1072.18 L2573.11 1081.04 L2545.5 1081.04 L2545.5 1149.94 L2534.93 1149.94 L2534.93 1081.04 L2507.33 1081.04 L2507.33 1072.18 Z" fill="#000000" fill-rule="nonzero" fill-opacity="1" /><path clip-path="url(#clip330)" d="M2579.57 1091.61 L2589.15 1091.61 L2589.15 1149.94 L2579.57 1149.94 L2579.57 1091.61 M2579.57 1068.9 L2589.15 1068.9 L2589.15 1081.04 L2579.57 1081.04 L2579.57 1068.9 Z" fill="#000000" fill-rule="nonzero" fill-opacity="1" /><path clip-path="url(#clip330)" d="M2654.62 1102.81 Q2658.21 1096.35 2663.21 1093.28 Q2668.21 1090.2 2674.98 1090.2 Q2684.1 1090.2 2689.05 1096.61 Q2693.99 1102.96 2693.99 1114.74 L2693.99 1149.94 L2684.36 1149.94 L2684.36 1115.05 Q2684.36 1106.66 2681.39 1102.6 Q2678.42 1098.54 2672.33 1098.54 Q2664.88 1098.54 2660.56 1103.49 Q2656.23 1108.43 2656.23 1116.97 L2656.23 1149.94 L2646.6 1149.94 L2646.6 1115.05 Q2646.6 1106.61 2643.63 1102.6 Q2640.66 1098.54 2634.46 1098.54 Q2627.12 1098.54 2622.8 1103.54 Q2618.47 1108.49 2618.47 1116.97 L2618.47 1149.94 L2608.84 1149.94 L2608.84 1091.61 L2618.47 1091.61 L2618.47 1100.67 Q2621.75 1095.31 2626.34 1092.76 Q2630.92 1090.2 2637.22 1090.2 Q2643.58 1090.2 2648 1093.43 Q2652.48 1096.66 2654.62 1102.81 Z" fill="#000000" fill-rule="nonzero" fill-opacity="1" /><path clip-path="url(#clip330)" d="M2763 1118.38 L2763 1123.07 L2718.94 1123.07 Q2719.57 1132.96 2724.88 1138.17 Q2730.24 1143.33 2739.77 1143.33 Q2745.3 1143.33 2750.45 1141.97 Q2755.66 1140.62 2760.76 1137.91 L2760.76 1146.97 Q2755.61 1149.16 2750.19 1150.31 Q2744.77 1151.45 2739.2 1151.45 Q2725.24 1151.45 2717.07 1143.33 Q2708.94 1135.2 2708.94 1121.35 Q2708.94 1107.03 2716.65 1098.64 Q2724.41 1090.2 2737.54 1090.2 Q2749.31 1090.2 2756.13 1097.81 Q2763 1105.36 2763 1118.38 M2753.42 1115.57 Q2753.32 1107.7 2748.99 1103.02 Q2744.72 1098.33 2737.64 1098.33 Q2729.62 1098.33 2724.77 1102.86 Q2719.98 1107.39 2719.25 1115.62 L2753.42 1115.57 Z" fill="#000000" fill-rule="nonzero" fill-opacity="1" /><path clip-path="url(#clip330)" d="M2835.66 1069.01 Q2828.68 1080.99 2825.3 1092.7 Q2821.91 1104.42 2821.91 1116.45 Q2821.91 1128.49 2825.3 1140.31 Q2828.73 1152.08 2835.66 1164.01 L2827.33 1164.01 Q2819.51 1151.77 2815.61 1139.94 Q2811.75 1128.12 2811.75 1116.45 Q2811.75 1104.84 2815.61 1093.07 Q2819.46 1081.3 2827.33 1069.01 L2835.66 1069.01 Z" fill="#000000" fill-rule="nonzero" fill-opacity="1" /><path clip-path="url(#clip330)" d="M2892.64 1100.46 L2892.64 1068.9 L2902.22 1068.9 L2902.22 1149.94 L2892.64 1149.94 L2892.64 1141.19 Q2889.62 1146.4 2884.98 1148.95 Q2880.4 1151.45 2873.94 1151.45 Q2863.37 1151.45 2856.7 1143.02 Q2850.09 1134.58 2850.09 1120.83 Q2850.09 1107.08 2856.7 1098.64 Q2863.37 1090.2 2873.94 1090.2 Q2880.4 1090.2 2884.98 1092.76 Q2889.62 1095.26 2892.64 1100.46 M2859.98 1120.83 Q2859.98 1131.4 2864.31 1137.44 Q2868.68 1143.43 2876.28 1143.43 Q2883.89 1143.43 2888.26 1137.44 Q2892.64 1131.4 2892.64 1120.83 Q2892.64 1110.26 2888.26 1104.27 Q2883.89 1098.23 2876.28 1098.23 Q2868.68 1098.23 2864.31 1104.27 Q2859.98 1110.26 2859.98 1120.83 Z" fill="#000000" fill-rule="nonzero" fill-opacity="1" /><path clip-path="url(#clip330)" d="M2948.47 1120.62 Q2936.86 1120.62 2932.38 1123.28 Q2927.9 1125.93 2927.9 1132.34 Q2927.9 1137.44 2931.23 1140.46 Q2934.62 1143.43 2940.4 1143.43 Q2948.37 1143.43 2953.16 1137.81 Q2958 1132.13 2958 1122.76 L2958 1120.62 L2948.47 1120.62 M2967.59 1116.66 L2967.59 1149.94 L2958 1149.94 L2958 1141.09 Q2954.72 1146.4 2949.83 1148.95 Q2944.93 1151.45 2937.85 1151.45 Q2928.89 1151.45 2923.58 1146.45 Q2918.32 1141.4 2918.32 1132.96 Q2918.32 1123.12 2924.88 1118.12 Q2931.49 1113.12 2944.57 1113.12 L2958 1113.12 L2958 1112.18 Q2958 1105.57 2953.63 1101.98 Q2949.3 1098.33 2941.44 1098.33 Q2936.44 1098.33 2931.7 1099.53 Q2926.96 1100.73 2922.59 1103.12 L2922.59 1094.27 Q2927.85 1092.24 2932.79 1091.25 Q2937.74 1090.2 2942.43 1090.2 Q2955.09 1090.2 2961.34 1096.77 Q2967.59 1103.33 2967.59 1116.66 Z" fill="#000000" fill-rule="nonzero" fill-opacity="1" /><path clip-path="url(#clip330)" d="M3011.6 1155.36 Q3007.53 1165.78 3003.68 1168.95 Q2999.83 1172.13 2993.37 1172.13 L2985.71 1172.13 L2985.71 1164.11 L2991.34 1164.11 Q2995.29 1164.11 2997.48 1162.24 Q2999.67 1160.36 3002.33 1153.38 L3004.04 1149.01 L2980.45 1091.61 L2990.61 1091.61 L3008.84 1137.24 L3027.06 1091.61 L3037.22 1091.61 L3011.6 1155.36 Z" fill="#000000" fill-rule="nonzero" fill-opacity="1" /><path clip-path="url(#clip330)" d="M3048.94 1069.01 L3057.27 1069.01 Q3065.09 1081.3 3068.94 1093.07 Q3072.85 1104.84 3072.85 1116.45 Q3072.85 1128.12 3068.94 1139.94 Q3065.09 1151.77 3057.27 1164.01 L3048.94 1164.01 Q3055.87 1152.08 3059.25 1140.31 Q3062.69 1128.49 3062.69 1116.45 Q3062.69 1104.42 3059.25 1092.7 Q3055.87 1080.99 3048.94 1069.01 Z" fill="#000000" fill-rule="nonzero" fill-opacity="1" /><polyline clip-path="url(#clip332)" style="stroke:#000000; stroke-linecap:round; stroke-linejoin:round; stroke-width:2; stroke-opacity:0.1; fill:none" points="827.418,751.269 4752.76,751.269 "/>
<polyline clip-path="url(#clip332)" style="stroke:#000000; stroke-linecap:round; stroke-linejoin:round; stroke-width:2; stroke-opacity:0.1; fill:none" points="827.418,618.967 4752.76,618.967 "/>
<polyline clip-path="url(#clip332)" style="stroke:#000000; stroke-linecap:round; stroke-linejoin:round; stroke-width:2; stroke-opacity:0.1; fill:none" points="827.418,486.665 4752.76,486.665 "/>
<polyline clip-path="url(#clip332)" style="stroke:#000000; stroke-linecap:round; stroke-linejoin:round; stroke-width:2; stroke-opacity:0.1; fill:none" points="827.418,354.363 4752.76,354.363 "/>
<polyline clip-path="url(#clip332)" style="stroke:#000000; stroke-linecap:round; stroke-linejoin:round; stroke-width:2; stroke-opacity:0.1; fill:none" points="827.418,222.061 4752.76,222.061 "/>
<polyline clip-path="url(#clip332)" style="stroke:#000000; stroke-linecap:round; stroke-linejoin:round; stroke-width:2; stroke-opacity:0.1; fill:none" points="827.418,89.7586 4752.76,89.7586 "/>
<polyline clip-path="url(#clip330)" style="stroke:#000000; stroke-linecap:round; stroke-linejoin:round; stroke-width:4; stroke-opacity:1; fill:none" points="827.418,880.951 827.418,47.2441 "/>
<polyline clip-path="url(#clip330)" style="stroke:#000000; stroke-linecap:round; stroke-linejoin:round; stroke-width:4; stroke-opacity:1; fill:none" points="827.418,751.269 846.316,751.269 "/>
<polyline clip-path="url(#clip330)" style="stroke:#000000; stroke-linecap:round; stroke-linejoin:round; stroke-width:4; stroke-opacity:1; fill:none" points="827.418,618.967 846.316,618.967 "/>
<polyline clip-path="url(#clip330)" style="stroke:#000000; stroke-linecap:round; stroke-linejoin:round; stroke-width:4; stroke-opacity:1; fill:none" points="827.418,486.665 846.316,486.665 "/>
<polyline clip-path="url(#clip330)" style="stroke:#000000; stroke-linecap:round; stroke-linejoin:round; stroke-width:4; stroke-opacity:1; fill:none" points="827.418,354.363 846.316,354.363 "/>
<polyline clip-path="url(#clip330)" style="stroke:#000000; stroke-linecap:round; stroke-linejoin:round; stroke-width:4; stroke-opacity:1; fill:none" points="827.418,222.061 846.316,222.061 "/>
<polyline clip-path="url(#clip330)" style="stroke:#000000; stroke-linecap:round; stroke-linejoin:round; stroke-width:4; stroke-opacity:1; fill:none" points="827.418,89.7586 846.316,89.7586 "/>
<path clip-path="url(#clip330)" d="M194.136 765.067 L253.488 765.067 L253.488 772.937 L194.136 772.937 L194.136 765.067 Z" fill="#000000" fill-rule="nonzero" fill-opacity="1" /><path clip-path="url(#clip330)" d="M273.766 729.604 L310.478 729.604 L310.478 737.474 L282.33 737.474 L282.33 754.419 Q284.367 753.724 286.404 753.4 Q288.441 753.03 290.478 753.03 Q302.052 753.03 308.812 759.373 Q315.571 765.715 315.571 776.548 Q315.571 787.706 308.627 793.909 Q301.682 800.067 289.043 800.067 Q284.691 800.067 280.154 799.326 Q275.664 798.585 270.849 797.104 L270.849 787.706 Q275.016 789.974 279.46 791.085 Q283.904 792.196 288.858 792.196 Q296.867 792.196 301.543 787.983 Q306.219 783.771 306.219 776.548 Q306.219 769.326 301.543 765.113 Q296.867 760.9 288.858 760.9 Q285.108 760.9 281.358 761.734 Q277.654 762.567 273.766 764.326 L273.766 729.604 Z" fill="#000000" fill-rule="nonzero" fill-opacity="1" /><path clip-path="url(#clip330)" d="M333.997 786.965 L343.765 786.965 L343.765 798.724 L333.997 798.724 L333.997 786.965 Z" fill="#000000" fill-rule="nonzero" fill-opacity="1" /><path clip-path="url(#clip330)" d="M384.135 735.762 Q376.913 735.762 373.256 742.891 Q369.645 749.974 369.645 764.234 Q369.645 778.446 373.256 785.576 Q376.913 792.659 384.135 792.659 Q391.404 792.659 395.015 785.576 Q398.672 778.446 398.672 764.234 Q398.672 749.974 395.015 742.891 Q391.404 735.762 384.135 735.762 M384.135 728.354 Q395.756 728.354 401.867 737.567 Q408.024 746.734 408.024 764.234 Q408.024 781.687 401.867 790.9 Q395.756 800.067 384.135 800.067 Q372.515 800.067 366.358 790.9 Q360.247 781.687 360.247 764.234 Q360.247 746.734 366.358 737.567 Q372.515 728.354 384.135 728.354 Z" fill="#000000" fill-rule="nonzero" fill-opacity="1" /><path clip-path="url(#clip330)" d="M480.802 747.799 L459.644 769.048 L480.802 790.206 L475.292 795.808 L454.042 774.558 L432.793 795.808 L427.33 790.206 L448.441 769.048 L427.33 747.799 L432.793 742.197 L454.042 763.447 L475.292 742.197 L480.802 747.799 Z" fill="#000000" fill-rule="nonzero" fill-opacity="1" /><path clip-path="url(#clip330)" d="M505.524 790.854 L520.801 790.854 L520.801 738.123 L504.181 741.456 L504.181 732.937 L520.709 729.604 L530.061 729.604 L530.061 790.854 L545.338 790.854 L545.338 798.724 L505.524 798.724 L505.524 790.854 Z" fill="#000000" fill-rule="nonzero" fill-opacity="1" /><path clip-path="url(#clip330)" d="M584.227 735.762 Q577.005 735.762 573.347 742.891 Q569.736 749.974 569.736 764.234 Q569.736 778.446 573.347 785.576 Q577.005 792.659 584.227 792.659 Q591.495 792.659 595.106 785.576 Q598.764 778.446 598.764 764.234 Q598.764 749.974 595.106 742.891 Q591.495 735.762 584.227 735.762 M584.227 728.354 Q595.847 728.354 601.958 737.567 Q608.116 746.734 608.116 764.234 Q608.116 781.687 601.958 790.9 Q595.847 800.067 584.227 800.067 Q572.607 800.067 566.449 790.9 Q560.338 781.687 560.338 764.234 Q560.338 746.734 566.449 737.567 Q572.607 728.354 584.227 728.354 Z" fill="#000000" fill-rule="nonzero" fill-opacity="1" /><path clip-path="url(#clip330)" d="M608.116 716.557 L656.339 716.557 L656.339 722.952 L608.116 722.952 L608.116 716.557 Z" fill="#000000" fill-rule="nonzero" fill-opacity="1" /><path clip-path="url(#clip330)" d="M674.056 737.509 L686.469 737.509 L686.469 694.665 L672.965 697.373 L672.965 690.452 L686.394 687.743 L693.992 687.743 L693.992 737.509 L706.405 737.509 L706.405 743.903 L674.056 743.903 L674.056 737.509 Z" fill="#000000" fill-rule="nonzero" fill-opacity="1" /><path clip-path="url(#clip330)" d="M723.069 737.509 L735.482 737.509 L735.482 694.665 L721.978 697.373 L721.978 690.452 L735.407 687.743 L743.005 687.743 L743.005 737.509 L755.418 737.509 L755.418 743.903 L723.069 743.903 L723.069 737.509 Z" fill="#000000" fill-rule="nonzero" fill-opacity="1" /><path clip-path="url(#clip330)" d="M194.136 632.765 L253.488 632.765 L253.488 640.635 L194.136 640.635 L194.136 632.765 Z" fill="#000000" fill-rule="nonzero" fill-opacity="1" /><path clip-path="url(#clip330)" d="M299.367 605.45 L275.756 642.348 L299.367 642.348 L299.367 605.45 M296.914 597.302 L308.673 597.302 L308.673 642.348 L318.534 642.348 L318.534 650.126 L308.673 650.126 L308.673 666.422 L299.367 666.422 L299.367 650.126 L268.164 650.126 L268.164 641.098 L296.914 597.302 Z" fill="#000000" fill-rule="nonzero" fill-opacity="1" /><path clip-path="url(#clip330)" d="M333.997 654.663 L343.765 654.663 L343.765 666.422 L333.997 666.422 L333.997 654.663 Z" fill="#000000" fill-rule="nonzero" fill-opacity="1" /><path clip-path="url(#clip330)" d="M384.135 603.459 Q376.913 603.459 373.256 610.589 Q369.645 617.672 369.645 631.932 Q369.645 646.144 373.256 653.274 Q376.913 660.357 384.135 660.357 Q391.404 660.357 395.015 653.274 Q398.672 646.144 398.672 631.932 Q398.672 617.672 395.015 610.589 Q391.404 603.459 384.135 603.459 M384.135 596.052 Q395.756 596.052 401.867 605.265 Q408.024 614.432 408.024 631.932 Q408.024 649.385 401.867 658.598 Q395.756 667.765 384.135 667.765 Q372.515 667.765 366.358 658.598 Q360.247 649.385 360.247 631.932 Q360.247 614.432 366.358 605.265 Q372.515 596.052 384.135 596.052 Z" fill="#000000" fill-rule="nonzero" fill-opacity="1" /><path clip-path="url(#clip330)" d="M480.802 615.496 L459.644 636.746 L480.802 657.904 L475.292 663.505 L454.042 642.256 L432.793 663.505 L427.33 657.904 L448.441 636.746 L427.33 615.496 L432.793 609.895 L454.042 631.145 L475.292 609.895 L480.802 615.496 Z" fill="#000000" fill-rule="nonzero" fill-opacity="1" /><path clip-path="url(#clip330)" d="M505.524 658.552 L520.801 658.552 L520.801 605.821 L504.181 609.154 L504.181 600.635 L520.709 597.302 L530.061 597.302 L530.061 658.552 L545.338 658.552 L545.338 666.422 L505.524 666.422 L505.524 658.552 Z" fill="#000000" fill-rule="nonzero" fill-opacity="1" /><path clip-path="url(#clip330)" d="M584.227 603.459 Q577.005 603.459 573.347 610.589 Q569.736 617.672 569.736 631.932 Q569.736 646.144 573.347 653.274 Q577.005 660.357 584.227 660.357 Q591.495 660.357 595.106 653.274 Q598.764 646.144 598.764 631.932 Q598.764 617.672 595.106 610.589 Q591.495 603.459 584.227 603.459 M584.227 596.052 Q595.847 596.052 601.958 605.265 Q608.116 614.432 608.116 631.932 Q608.116 649.385 601.958 658.598 Q595.847 667.765 584.227 667.765 Q572.607 667.765 566.449 658.598 Q560.338 649.385 560.338 631.932 Q560.338 614.432 566.449 605.265 Q572.607 596.052 584.227 596.052 Z" fill="#000000" fill-rule="nonzero" fill-opacity="1" /><path clip-path="url(#clip330)" d="M608.116 584.255 L656.339 584.255 L656.339 590.649 L608.116 590.649 L608.116 584.255 Z" fill="#000000" fill-rule="nonzero" fill-opacity="1" /><path clip-path="url(#clip330)" d="M674.056 605.207 L686.469 605.207 L686.469 562.363 L672.965 565.071 L672.965 558.15 L686.394 555.441 L693.992 555.441 L693.992 605.207 L706.405 605.207 L706.405 611.601 L674.056 611.601 L674.056 605.207 Z" fill="#000000" fill-rule="nonzero" fill-opacity="1" /><path clip-path="url(#clip330)" d="M723.069 605.207 L735.482 605.207 L735.482 562.363 L721.978 565.071 L721.978 558.15 L735.407 555.441 L743.005 555.441 L743.005 605.207 L755.418 605.207 L755.418 611.601 L723.069 611.601 L723.069 605.207 Z" fill="#000000" fill-rule="nonzero" fill-opacity="1" /><path clip-path="url(#clip330)" d="M194.136 500.463 L253.488 500.463 L253.488 508.333 L194.136 508.333 L194.136 500.463 Z" fill="#000000" fill-rule="nonzero" fill-opacity="1" /><path clip-path="url(#clip330)" d="M302.006 496.852 Q308.719 498.287 312.469 502.824 Q316.265 507.361 316.265 514.028 Q316.265 524.259 309.228 529.861 Q302.191 535.463 289.228 535.463 Q284.877 535.463 280.247 534.583 Q275.664 533.75 270.756 532.037 L270.756 523.009 Q274.645 525.277 279.275 526.435 Q283.904 527.592 288.951 527.592 Q297.747 527.592 302.33 524.12 Q306.96 520.648 306.96 514.028 Q306.96 507.916 302.654 504.491 Q298.395 501.018 290.756 501.018 L282.701 501.018 L282.701 493.333 L291.127 493.333 Q298.025 493.333 301.682 490.602 Q305.339 487.824 305.339 482.639 Q305.339 477.315 301.543 474.491 Q297.793 471.62 290.756 471.62 Q286.914 471.62 282.516 472.454 Q278.117 473.287 272.84 475.046 L272.84 466.713 Q278.164 465.232 282.793 464.491 Q287.469 463.75 291.59 463.75 Q302.238 463.75 308.441 468.611 Q314.645 473.426 314.645 481.667 Q314.645 487.407 311.358 491.389 Q308.071 495.324 302.006 496.852 Z" fill="#000000" fill-rule="nonzero" fill-opacity="1" /><path clip-path="url(#clip330)" d="M333.997 522.361 L343.765 522.361 L343.765 534.12 L333.997 534.12 L333.997 522.361 Z" fill="#000000" fill-rule="nonzero" fill-opacity="1" /><path clip-path="url(#clip330)" d="M384.135 471.157 Q376.913 471.157 373.256 478.287 Q369.645 485.37 369.645 499.629 Q369.645 513.842 373.256 520.972 Q376.913 528.055 384.135 528.055 Q391.404 528.055 395.015 520.972 Q398.672 513.842 398.672 499.629 Q398.672 485.37 395.015 478.287 Q391.404 471.157 384.135 471.157 M384.135 463.75 Q395.756 463.75 401.867 472.963 Q408.024 482.13 408.024 499.629 Q408.024 517.083 401.867 526.296 Q395.756 535.463 384.135 535.463 Q372.515 535.463 366.358 526.296 Q360.247 517.083 360.247 499.629 Q360.247 482.13 366.358 472.963 Q372.515 463.75 384.135 463.75 Z" fill="#000000" fill-rule="nonzero" fill-opacity="1" /><path clip-path="url(#clip330)" d="M480.802 483.194 L459.644 504.444 L480.802 525.602 L475.292 531.203 L454.042 509.954 L432.793 531.203 L427.33 525.602 L448.441 504.444 L427.33 483.194 L432.793 477.593 L454.042 498.842 L475.292 477.593 L480.802 483.194 Z" fill="#000000" fill-rule="nonzero" fill-opacity="1" /><path clip-path="url(#clip330)" d="M505.524 526.25 L520.801 526.25 L520.801 473.519 L504.181 476.852 L504.181 468.333 L520.709 465 L530.061 465 L530.061 526.25 L545.338 526.25 L545.338 534.12 L505.524 534.12 L505.524 526.25 Z" fill="#000000" fill-rule="nonzero" fill-opacity="1" /><path clip-path="url(#clip330)" d="M584.227 471.157 Q577.005 471.157 573.347 478.287 Q569.736 485.37 569.736 499.629 Q569.736 513.842 573.347 520.972 Q577.005 528.055 584.227 528.055 Q591.495 528.055 595.106 520.972 Q598.764 513.842 598.764 499.629 Q598.764 485.37 595.106 478.287 Q591.495 471.157 584.227 471.157 M584.227 463.75 Q595.847 463.75 601.958 472.963 Q608.116 482.13 608.116 499.629 Q608.116 517.083 601.958 526.296 Q595.847 535.463 584.227 535.463 Q572.607 535.463 566.449 526.296 Q560.338 517.083 560.338 499.629 Q560.338 482.13 566.449 472.963 Q572.607 463.75 584.227 463.75 Z" fill="#000000" fill-rule="nonzero" fill-opacity="1" /><path clip-path="url(#clip330)" d="M608.116 451.953 L656.339 451.953 L656.339 458.347 L608.116 458.347 L608.116 451.953 Z" fill="#000000" fill-rule="nonzero" fill-opacity="1" /><path clip-path="url(#clip330)" d="M674.056 472.905 L686.469 472.905 L686.469 430.06 L672.965 432.769 L672.965 425.848 L686.394 423.139 L693.992 423.139 L693.992 472.905 L706.405 472.905 L706.405 479.299 L674.056 479.299 L674.056 472.905 Z" fill="#000000" fill-rule="nonzero" fill-opacity="1" /><path clip-path="url(#clip330)" d="M723.069 472.905 L735.482 472.905 L735.482 430.06 L721.978 432.769 L721.978 425.848 L735.407 423.139 L743.005 423.139 L743.005 472.905 L755.418 472.905 L755.418 479.299 L723.069 479.299 L723.069 472.905 Z" fill="#000000" fill-rule="nonzero" fill-opacity="1" /><path clip-path="url(#clip330)" d="M194.136 368.161 L253.488 368.161 L253.488 376.031 L194.136 376.031 L194.136 368.161 Z" fill="#000000" fill-rule="nonzero" fill-opacity="1" /><path clip-path="url(#clip330)" d="M281.729 393.948 L314.367 393.948 L314.367 401.818 L270.479 401.818 L270.479 393.948 Q275.803 388.438 284.969 379.179 Q294.182 369.874 296.543 367.189 Q301.034 362.142 302.793 358.67 Q304.599 355.152 304.599 351.772 Q304.599 346.263 300.71 342.791 Q296.867 339.318 290.664 339.318 Q286.266 339.318 281.358 340.846 Q276.497 342.374 270.942 345.476 L270.942 336.031 Q276.59 333.763 281.497 332.605 Q286.404 331.448 290.478 331.448 Q301.219 331.448 307.608 336.818 Q313.997 342.189 313.997 351.17 Q313.997 355.429 312.376 359.272 Q310.802 363.068 306.589 368.253 Q305.432 369.596 299.228 376.031 Q293.025 382.42 281.729 393.948 Z" fill="#000000" fill-rule="nonzero" fill-opacity="1" /><path clip-path="url(#clip330)" d="M333.997 390.059 L343.765 390.059 L343.765 401.818 L333.997 401.818 L333.997 390.059 Z" fill="#000000" fill-rule="nonzero" fill-opacity="1" /><path clip-path="url(#clip330)" d="M384.135 338.855 Q376.913 338.855 373.256 345.985 Q369.645 353.068 369.645 367.327 Q369.645 381.54 373.256 388.67 Q376.913 395.753 384.135 395.753 Q391.404 395.753 395.015 388.67 Q398.672 381.54 398.672 367.327 Q398.672 353.068 395.015 345.985 Q391.404 338.855 384.135 338.855 M384.135 331.448 Q395.756 331.448 401.867 340.661 Q408.024 349.828 408.024 367.327 Q408.024 384.781 401.867 393.994 Q395.756 403.161 384.135 403.161 Q372.515 403.161 366.358 393.994 Q360.247 384.781 360.247 367.327 Q360.247 349.828 366.358 340.661 Q372.515 331.448 384.135 331.448 Z" fill="#000000" fill-rule="nonzero" fill-opacity="1" /><path clip-path="url(#clip330)" d="M480.802 350.892 L459.644 372.142 L480.802 393.299 L475.292 398.901 L454.042 377.651 L432.793 398.901 L427.33 393.299 L448.441 372.142 L427.33 350.892 L432.793 345.29 L454.042 366.54 L475.292 345.29 L480.802 350.892 Z" fill="#000000" fill-rule="nonzero" fill-opacity="1" /><path clip-path="url(#clip330)" d="M505.524 393.948 L520.801 393.948 L520.801 341.216 L504.181 344.55 L504.181 336.031 L520.709 332.698 L530.061 332.698 L530.061 393.948 L545.338 393.948 L545.338 401.818 L505.524 401.818 L505.524 393.948 Z" fill="#000000" fill-rule="nonzero" fill-opacity="1" /><path clip-path="url(#clip330)" d="M584.227 338.855 Q577.005 338.855 573.347 345.985 Q569.736 353.068 569.736 367.327 Q569.736 381.54 573.347 388.67 Q577.005 395.753 584.227 395.753 Q591.495 395.753 595.106 388.67 Q598.764 381.54 598.764 367.327 Q598.764 353.068 595.106 345.985 Q591.495 338.855 584.227 338.855 M584.227 331.448 Q595.847 331.448 601.958 340.661 Q608.116 349.828 608.116 367.327 Q608.116 384.781 601.958 393.994 Q595.847 403.161 584.227 403.161 Q572.607 403.161 566.449 393.994 Q560.338 384.781 560.338 367.327 Q560.338 349.828 566.449 340.661 Q572.607 331.448 584.227 331.448 Z" fill="#000000" fill-rule="nonzero" fill-opacity="1" /><path clip-path="url(#clip330)" d="M608.116 319.651 L656.339 319.651 L656.339 326.045 L608.116 326.045 L608.116 319.651 Z" fill="#000000" fill-rule="nonzero" fill-opacity="1" /><path clip-path="url(#clip330)" d="M674.056 340.603 L686.469 340.603 L686.469 297.758 L672.965 300.467 L672.965 293.545 L686.394 290.837 L693.992 290.837 L693.992 340.603 L706.405 340.603 L706.405 346.997 L674.056 346.997 L674.056 340.603 Z" fill="#000000" fill-rule="nonzero" fill-opacity="1" /><path clip-path="url(#clip330)" d="M723.069 340.603 L735.482 340.603 L735.482 297.758 L721.978 300.467 L721.978 293.545 L735.407 290.837 L743.005 290.837 L743.005 340.603 L755.418 340.603 L755.418 346.997 L723.069 346.997 L723.069 340.603 Z" fill="#000000" fill-rule="nonzero" fill-opacity="1" /><path clip-path="url(#clip330)" d="M194.136 235.859 L253.488 235.859 L253.488 243.729 L194.136 243.729 L194.136 235.859 Z" fill="#000000" fill-rule="nonzero" fill-opacity="1" /><path clip-path="url(#clip330)" d="M275.293 261.646 L290.571 261.646 L290.571 208.914 L273.951 212.248 L273.951 203.729 L290.478 200.396 L299.83 200.396 L299.83 261.646 L315.108 261.646 L315.108 269.516 L275.293 269.516 L275.293 261.646 Z" fill="#000000" fill-rule="nonzero" fill-opacity="1" /><path clip-path="url(#clip330)" d="M333.997 257.757 L343.765 257.757 L343.765 269.516 L333.997 269.516 L333.997 257.757 Z" fill="#000000" fill-rule="nonzero" fill-opacity="1" /><path clip-path="url(#clip330)" d="M384.135 206.553 Q376.913 206.553 373.256 213.683 Q369.645 220.766 369.645 235.025 Q369.645 249.238 373.256 256.368 Q376.913 263.451 384.135 263.451 Q391.404 263.451 395.015 256.368 Q398.672 249.238 398.672 235.025 Q398.672 220.766 395.015 213.683 Q391.404 206.553 384.135 206.553 M384.135 199.146 Q395.756 199.146 401.867 208.359 Q408.024 217.525 408.024 235.025 Q408.024 252.479 401.867 261.692 Q395.756 270.858 384.135 270.858 Q372.515 270.858 366.358 261.692 Q360.247 252.479 360.247 235.025 Q360.247 217.525 366.358 208.359 Q372.515 199.146 384.135 199.146 Z" fill="#000000" fill-rule="nonzero" fill-opacity="1" /><path clip-path="url(#clip330)" d="M480.802 218.59 L459.644 239.84 L480.802 260.997 L475.292 266.599 L454.042 245.349 L432.793 266.599 L427.33 260.997 L448.441 239.84 L427.33 218.59 L432.793 212.988 L454.042 234.238 L475.292 212.988 L480.802 218.59 Z" fill="#000000" fill-rule="nonzero" fill-opacity="1" /><path clip-path="url(#clip330)" d="M505.524 261.646 L520.801 261.646 L520.801 208.914 L504.181 212.248 L504.181 203.729 L520.709 200.396 L530.061 200.396 L530.061 261.646 L545.338 261.646 L545.338 269.516 L505.524 269.516 L505.524 261.646 Z" fill="#000000" fill-rule="nonzero" fill-opacity="1" /><path clip-path="url(#clip330)" d="M584.227 206.553 Q577.005 206.553 573.347 213.683 Q569.736 220.766 569.736 235.025 Q569.736 249.238 573.347 256.368 Q577.005 263.451 584.227 263.451 Q591.495 263.451 595.106 256.368 Q598.764 249.238 598.764 235.025 Q598.764 220.766 595.106 213.683 Q591.495 206.553 584.227 206.553 M584.227 199.146 Q595.847 199.146 601.958 208.359 Q608.116 217.525 608.116 235.025 Q608.116 252.479 601.958 261.692 Q595.847 270.858 584.227 270.858 Q572.607 270.858 566.449 261.692 Q560.338 252.479 560.338 235.025 Q560.338 217.525 566.449 208.359 Q572.607 199.146 584.227 199.146 Z" fill="#000000" fill-rule="nonzero" fill-opacity="1" /><path clip-path="url(#clip330)" d="M608.116 187.349 L656.339 187.349 L656.339 193.743 L608.116 193.743 L608.116 187.349 Z" fill="#000000" fill-rule="nonzero" fill-opacity="1" /><path clip-path="url(#clip330)" d="M674.056 208.3 L686.469 208.3 L686.469 165.456 L672.965 168.165 L672.965 161.243 L686.394 158.535 L693.992 158.535 L693.992 208.3 L706.405 208.3 L706.405 214.695 L674.056 214.695 L674.056 208.3 Z" fill="#000000" fill-rule="nonzero" fill-opacity="1" /><path clip-path="url(#clip330)" d="M723.069 208.3 L735.482 208.3 L735.482 165.456 L721.978 168.165 L721.978 161.243 L735.407 158.535 L743.005 158.535 L743.005 208.3 L755.418 208.3 L755.418 214.695 L723.069 214.695 L723.069 208.3 Z" fill="#000000" fill-rule="nonzero" fill-opacity="1" /><path clip-path="url(#clip330)" d="M731.529 61.356 Q724.307 61.356 720.65 68.4856 Q717.039 75.5689 717.039 89.8281 Q717.039 104.041 720.65 111.171 Q724.307 118.254 731.529 118.254 Q738.798 118.254 742.409 111.171 Q746.066 104.041 746.066 89.8281 Q746.066 75.5689 742.409 68.4856 Q738.798 61.356 731.529 61.356 M731.529 53.9486 Q743.15 53.9486 749.261 63.1616 Q755.418 72.3282 755.418 89.8281 Q755.418 107.282 749.261 116.495 Q743.15 125.661 731.529 125.661 Q719.909 125.661 713.752 116.495 Q707.641 107.282 707.641 89.8281 Q707.641 72.3282 713.752 63.1616 Q719.909 53.9486 731.529 53.9486 Z" fill="#000000" fill-rule="nonzero" fill-opacity="1" /><path clip-path="url(#clip330)" d="M21.0484 706.544 L21.0484 696.024 L52.9232 696.024 L52.9232 657.795 L21.0484 657.795 L21.0484 647.274 L98.8084 647.274 L98.8084 657.795 L61.7773 657.795 L61.7773 696.024 L98.8084 696.024 L98.8084 706.544 L21.0484 706.544 Z" fill="#000000" fill-rule="nonzero" fill-opacity="1" /><path clip-path="url(#clip330)" d="M89.9543 616.337 L89.9543 579.618 L98.8084 579.618 L98.8084 628.993 L89.9543 628.993 Q83.7564 623.003 73.3398 612.691 Q62.8711 602.326 59.8503 599.67 Q54.1732 594.618 50.267 592.639 Q46.3087 590.608 42.5066 590.608 Q36.3087 590.608 32.4025 594.983 Q28.4963 599.305 28.4963 606.285 Q28.4963 611.232 30.215 616.753 Q31.9337 622.222 35.4233 628.472 L24.7984 628.472 Q22.2463 622.118 20.9442 616.597 Q19.6421 611.076 19.6421 606.493 Q19.6421 594.41 25.6838 587.222 Q31.7254 580.035 41.8295 580.035 Q46.6212 580.035 50.9441 581.858 Q55.2149 583.628 61.0482 588.368 Q62.5586 589.67 69.7981 596.649 Q76.9856 603.628 89.9543 616.337 Z" fill="#000000" fill-rule="nonzero" fill-opacity="1" /><path clip-path="url(#clip330)" d="M17.8713 501.962 Q29.8504 508.941 41.5691 512.327 Q53.2878 515.712 65.319 515.712 Q77.3502 515.712 89.173 512.327 Q100.944 508.889 112.871 501.962 L112.871 510.295 Q100.631 518.108 88.8084 522.014 Q76.9856 525.868 65.319 525.868 Q53.7045 525.868 41.9337 522.014 Q30.1629 518.16 17.8713 510.295 L17.8713 501.962 Z" fill="#000000" fill-rule="nonzero" fill-opacity="1" /><path clip-path="url(#clip330)" d="M90.0584 474.098 L120.996 474.098 L120.996 483.733 L40.4754 483.733 L40.4754 474.098 L49.3295 474.098 Q44.1212 471.077 41.6212 466.494 Q39.0691 461.858 39.0691 455.452 Q39.0691 444.827 47.5066 438.213 Q55.944 431.546 69.694 431.546 Q83.4439 431.546 91.8813 438.213 Q100.319 444.827 100.319 455.452 Q100.319 461.858 97.8188 466.494 Q95.2667 471.077 90.0584 474.098 M69.694 441.494 Q59.1211 441.494 53.1315 445.869 Q47.0899 450.192 47.0899 457.796 Q47.0899 465.4 53.1315 469.775 Q59.1211 474.098 69.694 474.098 Q80.2668 474.098 86.3084 469.775 Q92.298 465.4 92.298 457.796 Q92.298 450.192 86.3084 445.869 Q80.2668 441.494 69.694 441.494 Z" fill="#000000" fill-rule="nonzero" fill-opacity="1" /><path clip-path="url(#clip330)" d="M90.0584 406.39 L120.996 406.39 L120.996 416.025 L40.4754 416.025 L40.4754 406.39 L49.3295 406.39 Q44.1212 403.369 41.6212 398.786 Q39.0691 394.15 39.0691 387.744 Q39.0691 377.119 47.5066 370.505 Q55.944 363.838 69.694 363.838 Q83.4439 363.838 91.8813 370.505 Q100.319 377.119 100.319 387.744 Q100.319 394.15 97.8188 398.786 Q95.2667 403.369 90.0584 406.39 M69.694 373.786 Q59.1211 373.786 53.1315 378.161 Q47.0899 382.484 47.0899 390.088 Q47.0899 397.692 53.1315 402.067 Q59.1211 406.39 69.694 406.39 Q80.2668 406.39 86.3084 402.067 Q92.298 397.692 92.298 390.088 Q92.298 382.484 86.3084 378.161 Q80.2668 373.786 69.694 373.786 Z" fill="#000000" fill-rule="nonzero" fill-opacity="1" /><path clip-path="url(#clip330)" d="M51.6732 302.536 Q45.2149 298.942 42.142 293.942 Q39.0691 288.942 39.0691 282.172 Q39.0691 273.057 45.4753 268.109 Q51.8295 263.161 63.6002 263.161 L98.8084 263.161 L98.8084 272.797 L63.9127 272.797 Q55.5274 272.797 51.4649 275.765 Q47.4024 278.734 47.4024 284.828 Q47.4024 292.276 52.3503 296.599 Q57.2982 300.922 65.8398 300.922 L98.8084 300.922 L98.8084 310.557 L63.9127 310.557 Q55.4753 310.557 51.4649 313.526 Q47.4024 316.494 47.4024 322.692 Q47.4024 330.036 52.4024 334.359 Q57.3503 338.682 65.8398 338.682 L98.8084 338.682 L98.8084 348.317 L40.4754 348.317 L40.4754 338.682 L49.5378 338.682 Q44.1733 335.401 41.6212 330.817 Q39.0691 326.234 39.0691 319.932 Q39.0691 313.578 42.2983 309.151 Q45.5274 304.672 51.6732 302.536 Z" fill="#000000" fill-rule="nonzero" fill-opacity="1" /><path clip-path="url(#clip330)" d="M17.8713 245.557 L17.8713 237.224 Q30.1629 229.412 41.9337 225.557 Q53.7045 221.651 65.319 221.651 Q76.9856 221.651 88.8084 225.557 Q100.631 229.412 112.871 237.224 L112.871 245.557 Q100.944 238.63 89.173 235.245 Q77.3502 231.807 65.319 231.807 Q53.2878 231.807 41.5691 235.245 Q29.8504 238.63 17.8713 245.557 Z" fill="#000000" fill-rule="nonzero" fill-opacity="1" /><path clip-path="url(#clip332)" d="M938.513 125.847 L955.737 640.332 L972.96 648.472 L990.184 650.925 L1007.41 650.065 L1024.63 656.091 L1041.86 661.958 L1059.08 667.995 L1076.3 671.879 L1093.53 674.935 L1110.75 677.978 L1127.98 679.857 L1145.2 680.811 L1162.42 681.394 L1179.65 678.328 L1196.87 673.189 L1214.1 667.661 L1231.32 808.568 L1248.54 669.353 L1265.77 706.405 L1282.99 663.412 L1300.22 664.227 L1317.44 664.777 L1334.66 662.179 L1351.89 659.405 L1369.11 687.1 L1386.34 662.68 L1403.56 668.217 L1420.78 662.838 L1438.01 667.805 L1455.23 673.599 L1472.45 680.151 L1489.68 683.384 L1506.9 687.406 L1524.13 690.547 L1541.35 693.076 L1558.57 693.744 L1575.8 693.632 L1593.02 690.236 L1610.25 685.152 L1627.47 679.481 L1644.69 750.348 L1661.92 697.144 L1679.14 712.206 L1696.37 674.532 L1713.59 675.616 L1730.81 675.958 L1748.04 673.455 L1765.26 670.57 L1782.49 674.008 L1799.71 674.939 L1816.93 676.735 L1834.16 675.109 L1851.38 679.686 L1868.61 685.561 L1885.83 692.262 L1903.05 695.696 L1920.28 699.721 L1937.5 702.726 L1954.73 705.333 L1971.95 706.005 L1989.17 705.867 L2006.4 702.367 L2023.62 697.163 L2040.85 691.512 L2058.07 793.754 L2075.29 699.986 L2092.52 723.833 L2109.74 685.85 L2126.96 686.891 L2144.19 687.301 L2161.41 684.72 L2178.64 681.823 L2195.86 686.482 L2213.08 687.732 L2230.31 689.182 L2247.53 687.685 L2264.76 691.653 L2281.98 697.622 L2299.2 704.423 L2316.43 707.854 L2333.65 711.963 L2350.88 715.089 L2368.1 717.699 L2385.32 718.294 L2402.55 718.116 L2419.77 714.585 L2437 709.281 L2454.22 703.482 L2471.44 791.178 L2488.67 716.073 L2505.89 735.429 L2523.12 697.156 L2540.34 698.22 L2557.56 698.723 L2574.79 696.025 L2592.01 694.413 L2609.24 699.041 L2626.46 700.351 L2643.68 701.762 L2660.91 700.368 L2678.13 703.649 L2695.36 709.731 L2712.58 716.639 L2729.8 720.19 L2747.03 724.35 L2764.25 727.464 L2781.48 730.085 L2798.7 730.712 L2815.92 730.476 L2833.15 726.84 L2850.37 721.448 L2867.59 715.586 L2884.82 809.703 L2902.04 726.363 L2919.27 747.641 L2936.49 708.717 L2953.71 709.502 L2970.94 710.174 L2988.16 707.502 L3005.39 706.889 L3022.61 711.669 L3039.83 712.989 L3057.06 714.517 L3074.28 713.034 L3091.51 715.73 L3108.73 721.916 L3125.95 728.904 L3143.18 732.519 L3160.4 736.753 L3177.63 739.928 L3194.85 742.562 L3212.07 743.132 L3229.3 742.846 L3246.52 739.159 L3263.75 733.678 L3280.97 727.722 L3298.19 819.592 L3315.42 739.18 L3332.64 758.649 L3349.87 720.111 L3367.09 721.093 L3384.31 721.527 L3401.54 719.008 L3418.76 719.544 L3435.99 724.362 L3453.21 725.758 L3470.43 727.251 L3487.66 725.68 L3504.88 727.849 L3522.1 734.157 L3539.33 741.267 L3556.55 744.971 L3573.78 749.259 L3591 752.461 L3608.22 755.095 L3625.45 755.644 L3642.67 755.325 L3659.9 751.554 L3677.12 745.98 L3694.34 739.915 L3711.57 832.911 L3728.79 751.155 L3746.02 771.307 L3763.24 731.537 L3780.46 732.693 L3797.69 733.083 L3814.91 730.44 L3832.14 732.286 L3849.36 737.123 L3866.58 738.532 L3883.81 740.045 L3901.03 738.66 L3918.26 740.05 L3935.48 746.47 L3952.7 753.668 L3969.93 757.436 L3987.15 761.798 L4004.38 765.054 L4021.6 767.704 L4038.82 768.238 L4056.05 767.843 L4073.27 764.036 L4090.5 758.361 L4107.72 752.189 L4124.94 845.259 L4142.17 763.426 L4159.39 782.134 L4176.61 743.101 L4193.84 744.295 L4211.06 744.689 L4228.29 742.008 L4245.51 744.901 L4262.73 749.937 L4279.96 751.362 L4297.18 753.034 L4314.41 751.394 L4331.63 752.324 L4348.85 758.835 L4366.08 766.139 L4383.3 770.025 L4400.53 774.441 L4417.75 777.723 L4434.97 780.366 L4452.2 780.871 L4469.42 780.46 L4486.65 776.547 L4503.87 770.799 L4521.09 764.518 L4538.32 857.356 L4555.54 775.868 L4572.77 794.145 L4589.99 754.729 L4607.21 755.939 L4624.44 756.363 L4641.66 753.696 L4641.66 271.479 L4624.44 273.287 L4607.21 271.722 L4589.99 273.674 L4572.77 273.296 L4555.54 272.216 L4538.32 272.099 L4521.09 271.761 L4503.87 271.587 L4486.65 270.615 L4469.42 270.864 L4452.2 269.652 L4434.97 270.075 L4417.75 269.519 L4400.53 268.809 L4383.3 267.572 L4366.08 268.447 L4348.85 268.49 L4331.63 270.377 L4314.41 271.875 L4297.18 271.491 L4279.96 268.538 L4262.73 265.998 L4245.51 264.837 L4228.29 265.449 L4211.06 267.574 L4193.84 265.879 L4176.61 267.766 L4159.39 267.353 L4142.17 266.268 L4124.94 266.292 L4107.72 266.068 L4090.5 265.611 L4073.27 264.579 L4056.05 265.17 L4038.82 264.34 L4021.6 264.384 L4004.38 263.873 L3987.15 263.034 L3969.93 261.77 L3952.7 262.831 L3935.48 262.851 L3918.26 264.462 L3901.03 265.99 L3883.81 265.442 L3866.58 262.331 L3849.36 260.136 L3832.14 259.092 L3814.91 259.457 L3797.69 261.661 L3780.46 259.955 L3763.24 261.751 L3746.02 261.46 L3728.79 260.411 L3711.57 260.441 L3694.34 260.186 L3677.12 259.756 L3659.9 258.857 L3642.67 259.426 L3625.45 258.261 L3608.22 257.54 L3591 258.205 L3573.78 257.266 L3556.55 256.029 L3539.33 257.024 L3522.1 256.994 L3504.88 258.576 L3487.66 260.062 L3470.43 259.484 L3453.21 256.393 L3435.99 254.295 L3418.76 253.323 L3401.54 253.601 L3384.31 255.26 L3367.09 254.094 L3349.87 256.032 L3332.64 255.583 L3315.42 254.551 L3298.19 254.493 L3280.97 254.423 L3263.75 254.216 L3246.52 253.071 L3229.3 253.323 L3212.07 252.61 L3194.85 252.865 L3177.63 252.554 L3160.4 251.421 L3143.18 250.017 L3125.95 250.894 L3108.73 250.886 L3091.51 252.66 L3074.28 254.151 L3057.06 253.732 L3039.83 250.512 L3022.61 248.112 L3005.39 247.183 L2988.16 247.641 L2970.94 249.666 L2953.71 247.982 L2936.49 248.698 L2919.27 247.667 L2902.04 247.995 L2884.82 248.739 L2867.59 248.498 L2850.37 248.379 L2833.15 247.488 L2815.92 247.796 L2798.7 246.715 L2781.48 244.982 L2764.25 245.101 L2747.03 245.61 L2729.8 244.257 L2712.58 245.061 L2695.36 245.011 L2678.13 246.814 L2660.91 248.17 L2643.68 247.755 L2626.46 244.742 L2609.24 242.162 L2592.01 241.05 L2574.79 241.643 L2557.56 243.671 L2540.34 241.811 L2523.12 240.749 L2505.89 239.701 L2488.67 239.994 L2471.44 241.739 L2454.22 242.871 L2437 242.54 L2419.77 241.547 L2402.55 241.253 L2385.32 240.285 L2368.1 237.23 L2350.88 237.355 L2333.65 239.948 L2316.43 238.678 L2299.2 239.603 L2281.98 239.503 L2264.76 241.041 L2247.53 240.609 L2230.31 240.081 L2213.08 238.747 L2195.86 236.639 L2178.64 235.592 L2161.41 235.881 L2144.19 236.14 L2126.96 233.92 L2109.74 232.809 L2092.52 231.699 L2075.29 231.993 L2058.07 233.785 L2040.85 235.244 L2023.62 235.34 L2006.4 234.157 L1989.17 233.418 L1971.95 232.515 L1954.73 229.411 L1937.5 229.594 L1920.28 233.414 L1903.05 232.817 L1885.83 233.64 L1868.61 233.543 L1851.38 233.86 L1834.16 232.97 L1816.93 232.497 L1799.71 231.931 L1782.49 230.483 L1765.26 229.598 L1748.04 228.98 L1730.81 228.309 L1713.59 226.102 L1696.37 224.872 L1679.14 223.792 L1661.92 224.076 L1644.69 225.769 L1627.47 227.246 L1610.25 227.496 L1593.02 226.352 L1575.8 225.777 L1558.57 225.119 L1541.35 221.719 L1524.13 221.889 L1506.9 225.693 L1489.68 226.142 L1472.45 227.677 L1455.23 226.855 L1438.01 226.348 L1420.78 225.558 L1403.56 225 L1386.34 224.414 L1369.11 224.401 L1351.89 222.691 L1334.66 221.272 L1317.44 220.74 L1300.22 218.309 L1282.99 217.229 L1265.77 215.943 L1248.54 216.09 L1231.32 217.921 L1214.1 217.042 L1196.87 217.703 L1179.65 219.245 L1162.42 220.611 L1145.2 221.079 L1127.98 214.808 L1110.75 213.047 L1093.53 217.552 L1076.3 218.645 L1059.08 217.686 L1041.86 216.342 L1024.63 215.594 L1007.41 216.978 L990.184 216.887 L972.96 216.282 L955.737 214.216 L938.513 70.8396  Z" fill="#c8c8c8" fill-rule="evenodd" fill-opacity="0.5"/>
<polyline clip-path="url(#clip332)" style="stroke:#c8c8c8; stroke-linecap:round; stroke-linejoin:round; stroke-width:0; stroke-opacity:1; fill:none" points="938.513,85.9465 955.737,235.796 972.96,238.026 990.184,238.351 1007.41,238.284 1024.63,238.375 1041.86,238.475 1059.08,239.096 1076.3,239.247 1093.53,239.082 1110.75,239.438 1127.98,239.852 1145.2,239.89 1162.42,240.526 1179.65,240.72 1196.87,240.702 1214.1,240.904 1231.32,240.875 1248.54,240.591 1265.77,241.38 1282.99,241.596 1300.22,241.305 1317.44,242.387 1334.66,241.74 1351.89,242.181 1369.11,242.576 1386.34,242.52 1403.56,242.638 1420.78,242.691 1438.01,242.941 1455.23,242.921 1472.45,243.937 1489.68,243.063 1506.9,243.543 1524.13,243.742 1541.35,244.329 1558.57,244.012 1575.8,244.62 1593.02,244.839 1610.25,244.731 1627.47,244.776 1644.69,244.831 1661.92,244.74 1679.14,245.516 1696.37,245.597 1713.59,245.458 1730.81,246.325 1748.04,245.829 1765.26,246.195 1782.49,246.558 1799.71,246.527 1816.93,246.644 1834.16,246.632 1851.38,246.977 1868.61,246.928 1885.83,247.971 1903.05,247.273 1920.28,247.661 1937.5,247.7 1954.73,248.36 1971.95,248.07 1989.17,248.703 2006.4,248.873 2023.62,248.75 2040.85,248.9 2058.07,248.95 2075.29,248.756 2092.52,249.571 2109.74,249.694 2126.96,249.481 2144.19,250.395 2161.41,249.883 2178.64,250.26 2195.86,250.6 2213.08,250.611 2230.31,250.686 2247.53,250.738 2264.76,251.06 2281.98,250.996 2299.2,252.034 2316.43,251.264 2333.65,251.668 2350.88,251.796 2368.1,252.453 2385.32,252.106 2402.55,252.748 2419.77,252.954 2437,252.824 2454.22,252.923 2471.44,252.985 2488.67,252.836 2505.89,253.63 2523.12,253.721 2540.34,253.563 2557.56,254.471 2574.79,253.944 2592.01,254.318 2609.24,254.664 2626.46,254.672 2643.68,254.772 2660.91,254.774 2678.13,255.127 2695.36,255.068 2712.58,256.114 2729.8,255.384 2747.03,255.776 2764.25,255.857 2781.48,256.519 2798.7,256.225 2815.92,256.856 2833.15,257.028 2850.37,256.899 2867.59,257.035 2884.82,257.074 2902.04,256.914 2919.27,257.726 2936.49,257.831 2953.71,257.635 2970.94,258.554 2988.16,258.04 3005.39,258.415 3022.61,258.765 3039.83,258.77 3057.06,258.854 3074.28,258.874 3091.51,259.235 3108.73,259.171 3125.95,260.196 3143.18,259.449 3160.4,259.853 3177.63,259.96 3194.85,260.626 3212.07,260.297 3229.3,260.927 3246.52,261.117 3263.75,260.99 3280.97,261.134 3298.19,261.18 3315.42,261.024 3332.64,261.818 3349.87,261.922 3367.09,261.757 3384.31,262.653 3401.54,262.147 3418.76,262.526 3435.99,262.871 3453.21,262.871 3470.43,262.967 3487.66,262.986 3504.88,263.333 3522.1,263.282 3539.33,264.331 3556.55,263.589 3573.78,263.985 3591,264.083 3608.22,264.743 3625.45,264.414 3642.67,265.059 3659.9,265.236 3677.12,265.106 3694.34,265.244 3711.57,265.289 3728.79,265.134 3746.02,265.954 3763.24,266.046 3780.46,265.862 3797.69,266.785 3814.91,266.266 3832.14,266.657 3849.36,266.995 3866.58,267.002 3883.81,267.094 3901.03,267.126 3918.26,267.467 3935.48,267.419 3952.7,268.455 3969.93,267.693 3987.15,268.101 4004.38,268.217 4021.6,268.885 4038.82,268.564 4056.05,269.18 4073.27,269.394 4090.5,269.254 4107.72,269.387 4124.94,269.433 4142.17,269.277 4159.39,270.083 4176.61,270.191 4193.84,270.01 4211.06,270.923 4228.29,270.423 4245.51,270.795 4262.73,271.141 4279.96,271.159 4297.18,271.259 4314.41,271.261 4331.63,271.628 4348.85,271.56 4366.08,272.601 4383.3,271.873 4400.53,272.272 4417.75,272.378 4434.97,273.032 4452.2,272.702 4469.42,273.352 4486.65,273.533 4503.87,273.41 4521.09,273.537 4538.32,273.594 4555.54,273.43 4572.77,274.242 4589.99,274.348 4607.21,274.16 4624.44,275.099 4641.66,274.577 "/>
<path clip-path="url(#clip332)" d="M938.513 87.5261 L955.737 540.452 L972.96 547.126 L990.184 545.971 L1007.41 548.555 L1024.63 552.972 L1041.86 557.293 L1059.08 563.077 L1076.3 566.254 L1093.53 565.634 L1110.75 565.629 L1127.98 570.159 L1145.2 565.666 L1162.42 565.132 L1179.65 562.227 L1196.87 559.936 L1214.1 561.392 L1231.32 559.569 L1248.54 556.723 L1265.77 555.032 L1282.99 561.368 L1300.22 558.702 L1317.44 562.006 L1334.66 557.854 L1351.89 555.888 L1369.11 558.352 L1386.34 558.692 L1403.56 558.622 L1420.78 562.129 L1438.01 564.799 L1455.23 570.716 L1472.45 575.035 L1489.68 575.934 L1506.9 578.733 L1524.13 577.425 L1541.35 576.956 L1558.57 578.629 L1575.8 573.921 L1593.02 573.01 L1610.25 570.553 L1627.47 569.667 L1644.69 570.171 L1661.92 567.04 L1679.14 565.224 L1696.37 566.599 L1713.59 568.769 L1730.81 573.592 L1748.04 568.243 L1765.26 564.949 L1782.49 567.236 L1799.71 566.615 L1816.93 568.932 L1834.16 571.462 L1851.38 575.865 L1868.61 581.794 L1885.83 586.49 L1903.05 587.973 L1920.28 589.626 L1937.5 588.266 L1954.73 589.568 L1971.95 589.002 L1989.17 586.699 L2006.4 584.074 L2023.62 581.455 L2040.85 580.926 L2058.07 580.464 L2075.29 577.106 L2092.52 576.254 L2109.74 577.728 L2126.96 579.654 L2144.19 584.366 L2161.41 578.574 L2178.64 575.008 L2195.86 578.275 L2213.08 577.103 L2230.31 579.797 L2247.53 582.642 L2264.76 587.049 L2281.98 593.259 L2299.2 597.855 L2316.43 598.176 L2333.65 600.621 L2350.88 600.289 L2368.1 599.477 L2385.32 600.156 L2402.55 595.887 L2419.77 595.388 L2437 593.03 L2454.22 592.096 L2471.44 590.079 L2488.67 587.31 L2505.89 587.433 L2523.12 588.452 L2540.34 589.778 L2557.56 594.533 L2574.79 588.287 L2592.01 584.646 L2609.24 589.359 L2626.46 588.021 L2643.68 591.601 L2660.91 593.72 L2678.13 598.258 L2695.36 604.584 L2712.58 609.11 L2729.8 609.442 L2747.03 612.589 L2764.25 611.802 L2781.48 610.728 L2798.7 611.274 L2815.92 607.12 L2833.15 606.73 L2850.37 603.964 L2867.59 603.196 L2884.82 600.566 L2902.04 597.873 L2919.27 597.627 L2936.49 598.165 L2953.71 599.526 L2970.94 604.313 L2988.16 598.065 L3005.39 595.191 L3022.61 600.404 L3039.83 599.196 L3057.06 603.47 L3074.28 604.913 L3091.51 609.553 L3108.73 616.155 L3125.95 620.462 L3143.18 620.671 L3160.4 624.605 L3177.63 623.418 L3194.85 621.839 L3212.07 621.801 L3229.3 617.176 L3246.52 617.367 L3263.75 614.15 L3280.97 614.369 L3298.19 611.91 L3315.42 609.039 L3332.64 607.895 L3349.87 607.515 L3367.09 609.261 L3384.31 614.113 L3401.54 607.883 L3418.76 606.003 L3435.99 611.465 L3453.21 611.035 L3470.43 615.009 L3487.66 616.82 L3504.88 620.872 L3522.1 627.6 L3539.33 631.794 L3556.55 632.379 L3573.78 636.636 L3591 635.387 L3608.22 633.048 L3625.45 631.749 L3642.67 628.326 L3659.9 628.169 L3677.12 625.523 L3694.34 626.145 L3711.57 623.211 L3728.79 620.321 L3746.02 618.401 L3763.24 616.926 L3780.46 619.083 L3797.69 623.989 L3814.91 617.745 L3832.14 617.811 L3849.36 622.938 L3866.58 622.538 L3883.81 626.404 L3901.03 628.766 L3918.26 632.272 L3935.48 639.143 L3952.7 643.304 L3969.93 644.314 L3987.15 648.841 L4004.38 646.693 L4021.6 645.022 L4038.82 641.231 L4056.05 639.642 L4073.27 639.008 L4090.5 636.702 L4107.72 636.802 L4124.94 634.882 L4142.17 631.207 L4159.39 628.747 L4176.61 627.119 L4193.84 628.909 L4211.06 633.953 L4228.29 627.767 L4245.51 629.634 L4262.73 635.214 L4279.96 634.024 L4297.18 638.038 L4314.41 640.38 L4331.63 643.735 L4348.85 650.77 L4366.08 654.724 L4383.3 656.353 L4400.53 660.967 L4417.75 658.024 L4434.97 657.143 L4452.2 652.23 L4469.42 650.864 L4486.65 649.926 L4503.87 647.964 L4521.09 648.886 L4538.32 646.1 L4555.54 641.903 L4572.77 639.216 L4589.99 636.931 L4607.21 638.844 L4624.44 643.942 L4641.66 639.648 L4641.66 317.831 L4624.44 319.658 L4607.21 318.08 L4589.99 317.161 L4572.77 316.551 L4555.54 315.102 L4538.32 314.662 L4521.09 315.517 L4503.87 315.304 L4486.65 316.443 L4469.42 316.026 L4452.2 315.48 L4434.97 316.909 L4417.75 316.315 L4400.53 313.979 L4383.3 313.558 L4366.08 315.621 L4348.85 314.541 L4331.63 312.837 L4314.41 313.305 L4297.18 313.168 L4279.96 312.545 L4262.73 312.288 L4245.51 312.093 L4228.29 311.196 L4211.06 312.994 L4193.84 311.32 L4176.61 311.234 L4159.39 310.793 L4142.17 308.579 L4124.94 308.496 L4107.72 308.228 L4090.5 308.276 L4073.27 309.143 L4056.05 308.9 L4038.82 307.97 L4021.6 309.072 L4004.38 308.563 L3987.15 307.599 L3969.93 307.515 L3952.7 308.807 L3935.48 307.762 L3918.26 306.696 L3901.03 306.365 L3883.81 306.289 L3866.58 304.636 L3849.36 303.846 L3832.14 304.047 L3814.91 303.595 L3797.69 304.681 L3780.46 303.61 L3763.24 302.909 L3746.02 303.229 L3728.79 302.474 L3711.57 301.601 L3694.34 299.636 L3677.12 300.531 L3659.9 301.154 L3642.67 300.92 L3625.45 300.324 L3608.22 302.046 L3591 300.931 L3573.78 300.07 L3556.55 299.667 L3539.33 300.51 L3522.1 300.808 L3504.88 300.075 L3487.66 298.515 L3470.43 297.737 L3453.21 296.923 L3435.99 296.303 L3418.76 296.228 L3401.54 296.123 L3384.31 297.384 L3367.09 296.611 L3349.87 295.844 L3332.64 295.927 L3315.42 295.053 L3298.19 294.416 L3280.97 293.356 L3263.75 294.256 L3246.52 293.887 L3229.3 294.477 L3212.07 293.499 L3194.85 294.001 L3177.63 292.4 L3160.4 293.2 L3143.18 292.982 L3125.95 294.218 L3108.73 294.684 L3091.51 293.827 L3074.28 292.996 L3057.06 292.138 L3039.83 291.158 L3022.61 290.669 L3005.39 291.094 L2988.16 290.604 L2970.94 291.839 L2953.71 290.619 L2936.49 289.937 L2919.27 289.567 L2902.04 287.861 L2884.82 287.463 L2867.59 287.308 L2850.37 288.161 L2833.15 287.854 L2815.92 288.561 L2798.7 287.303 L2781.48 286.222 L2764.25 286.783 L2747.03 286.819 L2729.8 286.915 L2712.58 287.789 L2695.36 287.724 L2678.13 286.99 L2660.91 285.599 L2643.68 284.834 L2626.46 284.24 L2609.24 284.117 L2592.01 283.88 L2574.79 283.854 L2557.56 285.466 L2540.34 284.033 L2523.12 283.579 L2505.89 283.234 L2488.67 281.649 L2471.44 280.767 L2454.22 280.388 L2437 281.628 L2419.77 281.385 L2402.55 280.878 L2385.32 279.999 L2368.1 280.775 L2350.88 281.055 L2333.65 280.586 L2316.43 280.454 L2299.2 281.239 L2281.98 280.37 L2264.76 279.946 L2247.53 278.714 L2230.31 278.049 L2213.08 277.629 L2195.86 277.443 L2178.64 277.058 L2161.41 277.369 L2144.19 278.839 L2126.96 277.751 L2109.74 277.449 L2092.52 276.662 L2075.29 274.667 L2058.07 274.255 L2040.85 274.005 L2023.62 273.965 L2006.4 274.168 L1989.17 274.448 L1971.95 274.024 L1954.73 274.113 L1937.5 273.216 L1920.28 272.683 L1903.05 272.737 L1885.83 274.571 L1868.61 272.797 L1851.38 272.925 L1834.16 271.466 L1816.93 271.903 L1799.71 271.482 L1782.49 270.883 L1765.26 269.893 L1748.04 270.149 L1730.81 271.114 L1713.59 270.423 L1696.37 270.03 L1679.14 268.9 L1661.92 268.335 L1644.69 267.793 L1627.47 267.23 L1610.25 267.604 L1593.02 266.492 L1575.8 265.603 L1558.57 265.807 L1541.35 266.435 L1524.13 265.498 L1506.9 265.531 L1489.68 264.451 L1472.45 268.559 L1455.23 266.715 L1438.01 263.245 L1420.78 262.722 L1403.56 264.176 L1386.34 264.83 L1369.11 264.543 L1351.89 263.114 L1334.66 263.193 L1317.44 263.696 L1300.22 263.014 L1282.99 263.64 L1265.77 262.706 L1248.54 262.056 L1231.32 261.661 L1214.1 261.199 L1196.87 260.647 L1179.65 260.045 L1162.42 259.583 L1145.2 260.219 L1127.98 260.428 L1110.75 259.604 L1093.53 258.656 L1076.3 259.491 L1059.08 260.821 L1041.86 258.786 L1024.63 257.351 L1007.41 256.809 L990.184 258.174 L972.96 258.5 L955.737 255.345 L938.513 75.7206  Z" fill="#525252" fill-rule="evenodd" fill-opacity="0.5"/>
<polyline clip-path="url(#clip332)" style="stroke:#525252; stroke-linecap:round; stroke-linejoin:round; stroke-width:0; stroke-opacity:1; fill:none" points="938.513,85.9465 955.737,235.796 972.96,238.026 990.184,238.351 1007.41,238.284 1024.63,238.375 1041.86,238.475 1059.08,239.096 1076.3,239.247 1093.53,239.082 1110.75,239.438 1127.98,239.852 1145.2,239.89 1162.42,240.526 1179.65,240.72 1196.87,240.702 1214.1,240.904 1231.32,240.875 1248.54,240.591 1265.77,241.38 1282.99,241.596 1300.22,241.305 1317.44,242.387 1334.66,241.74 1351.89,242.181 1369.11,242.576 1386.34,242.52 1403.56,242.638 1420.78,242.691 1438.01,242.941 1455.23,242.921 1472.45,243.937 1489.68,243.063 1506.9,243.543 1524.13,243.742 1541.35,244.329 1558.57,244.012 1575.8,244.62 1593.02,244.839 1610.25,244.731 1627.47,244.776 1644.69,244.831 1661.92,244.74 1679.14,245.516 1696.37,245.597 1713.59,245.458 1730.81,246.325 1748.04,245.829 1765.26,246.195 1782.49,246.558 1799.71,246.527 1816.93,246.644 1834.16,246.632 1851.38,246.977 1868.61,246.928 1885.83,247.971 1903.05,247.273 1920.28,247.661 1937.5,247.7 1954.73,248.36 1971.95,248.07 1989.17,248.703 2006.4,248.873 2023.62,248.75 2040.85,248.9 2058.07,248.95 2075.29,248.756 2092.52,249.571 2109.74,249.694 2126.96,249.481 2144.19,250.395 2161.41,249.883 2178.64,250.26 2195.86,250.6 2213.08,250.611 2230.31,250.686 2247.53,250.738 2264.76,251.06 2281.98,250.996 2299.2,252.034 2316.43,251.264 2333.65,251.668 2350.88,251.796 2368.1,252.453 2385.32,252.106 2402.55,252.748 2419.77,252.954 2437,252.824 2454.22,252.923 2471.44,252.985 2488.67,252.836 2505.89,253.63 2523.12,253.721 2540.34,253.563 2557.56,254.471 2574.79,253.944 2592.01,254.318 2609.24,254.664 2626.46,254.672 2643.68,254.772 2660.91,254.774 2678.13,255.127 2695.36,255.068 2712.58,256.114 2729.8,255.384 2747.03,255.776 2764.25,255.857 2781.48,256.519 2798.7,256.225 2815.92,256.856 2833.15,257.028 2850.37,256.899 2867.59,257.035 2884.82,257.074 2902.04,256.914 2919.27,257.726 2936.49,257.831 2953.71,257.635 2970.94,258.554 2988.16,258.04 3005.39,258.415 3022.61,258.765 3039.83,258.77 3057.06,258.854 3074.28,258.874 3091.51,259.235 3108.73,259.171 3125.95,260.196 3143.18,259.449 3160.4,259.853 3177.63,259.96 3194.85,260.626 3212.07,260.297 3229.3,260.927 3246.52,261.117 3263.75,260.99 3280.97,261.134 3298.19,261.18 3315.42,261.024 3332.64,261.818 3349.87,261.922 3367.09,261.757 3384.31,262.653 3401.54,262.147 3418.76,262.526 3435.99,262.871 3453.21,262.871 3470.43,262.967 3487.66,262.986 3504.88,263.333 3522.1,263.282 3539.33,264.331 3556.55,263.589 3573.78,263.985 3591,264.083 3608.22,264.743 3625.45,264.414 3642.67,265.059 3659.9,265.236 3677.12,265.106 3694.34,265.244 3711.57,265.289 3728.79,265.134 3746.02,265.954 3763.24,266.046 3780.46,265.862 3797.69,266.785 3814.91,266.266 3832.14,266.657 3849.36,266.995 3866.58,267.002 3883.81,267.094 3901.03,267.126 3918.26,267.467 3935.48,267.419 3952.7,268.455 3969.93,267.693 3987.15,268.101 4004.38,268.217 4021.6,268.885 4038.82,268.564 4056.05,269.18 4073.27,269.394 4090.5,269.254 4107.72,269.387 4124.94,269.433 4142.17,269.277 4159.39,270.083 4176.61,270.191 4193.84,270.01 4211.06,270.923 4228.29,270.423 4245.51,270.795 4262.73,271.141 4279.96,271.159 4297.18,271.259 4314.41,271.261 4331.63,271.628 4348.85,271.56 4366.08,272.601 4383.3,271.873 4400.53,272.272 4417.75,272.378 4434.97,273.032 4452.2,272.702 4469.42,273.352 4486.65,273.533 4503.87,273.41 4521.09,273.537 4538.32,273.594 4555.54,273.43 4572.77,274.242 4589.99,274.348 4607.21,274.16 4624.44,275.099 4641.66,274.577 "/>
<path clip-path="url(#clip332)" d="M938.513 86.4325 L955.737 506.477 L972.96 511.915 L990.184 512.704 L1007.41 512.008 L1024.63 511.879 L1041.86 511.989 L1059.08 512.825 L1076.3 513.663 L1093.53 513.884 L1110.75 511.862 L1127.98 511.241 L1145.2 512.638 L1162.42 516.552 L1179.65 517.561 L1196.87 516.266 L1214.1 519.368 L1231.32 520.964 L1248.54 522.075 L1265.77 523.835 L1282.99 520.997 L1300.22 520.086 L1317.44 522.594 L1334.66 522.091 L1351.89 523.977 L1369.11 525.336 L1386.34 525.121 L1403.56 523.476 L1420.78 523.185 L1438.01 522.298 L1455.23 521.357 L1472.45 523.272 L1489.68 523.154 L1506.9 523.587 L1524.13 522.462 L1541.35 524.033 L1558.57 522.702 L1575.8 525.486 L1593.02 527.39 L1610.25 527.259 L1627.47 528.885 L1644.69 532.063 L1661.92 532.61 L1679.14 534.246 L1696.37 531.383 L1713.59 530.92 L1730.81 532.374 L1748.04 532.116 L1765.26 533.428 L1782.49 535.238 L1799.71 535.628 L1816.93 534.543 L1834.16 534.965 L1851.38 532.579 L1868.61 530.965 L1885.83 532.792 L1903.05 533.607 L1920.28 533.92 L1937.5 530.33 L1954.73 533.8 L1971.95 532.659 L1989.17 534.441 L2006.4 537.789 L2023.62 538.266 L2040.85 539.926 L2058.07 542.314 L2075.29 542.964 L2092.52 543.564 L2109.74 543.059 L2126.96 541.531 L2144.19 542.74 L2161.41 542.008 L2178.64 543.104 L2195.86 546.002 L2213.08 545.68 L2230.31 545.265 L2247.53 545.078 L2264.76 543.256 L2281.98 541.584 L2299.2 542.584 L2316.43 544.293 L2333.65 543.598 L2350.88 540.313 L2368.1 543.92 L2385.32 542.186 L2402.55 544.553 L2419.77 548.691 L2437 548.623 L2454.22 550.854 L2471.44 552.606 L2488.67 551.891 L2505.89 553.711 L2523.12 552.336 L2540.34 553.074 L2557.56 553.559 L2574.79 552.801 L2592.01 553.674 L2609.24 556.128 L2626.46 556 L2643.68 557.213 L2660.91 556.151 L2678.13 553.998 L2695.36 551.53 L2712.58 551.555 L2729.8 554.665 L2747.03 554.797 L2764.25 552.302 L2781.48 554.63 L2798.7 551.93 L2815.92 555.436 L2833.15 559.174 L2850.37 558.541 L2867.59 561.636 L2884.82 561.395 L2902.04 562.189 L2919.27 563.556 L2936.49 562.843 L2953.71 564.338 L2970.94 564.576 L2988.16 563.721 L3005.39 564.355 L3022.61 565.905 L3039.83 565.968 L3057.06 566.464 L3074.28 566.816 L3091.51 564.656 L3108.73 562.049 L3125.95 562.533 L3143.18 563.469 L3160.4 565.163 L3177.63 562.978 L3194.85 565.503 L3212.07 562.5 L3229.3 566.153 L3246.52 569.487 L3263.75 568.986 L3280.97 571.214 L3298.19 571.085 L3315.42 571.91 L3332.64 574.314 L3349.87 573.517 L3367.09 574.474 L3384.31 575.91 L3401.54 573.611 L3418.76 575.138 L3435.99 576.922 L3453.21 576.448 L3470.43 578.405 L3487.66 577.107 L3504.88 575.075 L3522.1 573.506 L3539.33 574.655 L3556.55 573.749 L3573.78 575.805 L3591 573.759 L3608.22 575.854 L3625.45 574.228 L3642.67 576.67 L3659.9 580.081 L3677.12 578.871 L3694.34 581.967 L3711.57 580.225 L3728.79 581.759 L3746.02 585.378 L3763.24 584.448 L3780.46 584.712 L3797.69 587.728 L3814.91 585.41 L3832.14 585.745 L3849.36 587.468 L3866.58 587.612 L3883.81 588.238 L3901.03 588.208 L3918.26 586.644 L3935.48 584.755 L3952.7 585.791 L3969.93 583.179 L3987.15 586.434 L4004.38 584.156 L4021.6 586.427 L4038.82 585.678 L4056.05 585.87 L4073.27 591.541 L4090.5 589.609 L4107.72 592.376 L4124.94 591.063 L4142.17 591.557 L4159.39 594.362 L4176.61 595.426 L4193.84 595.758 L4211.06 598.867 L4228.29 596.788 L4245.51 596.224 L4262.73 597.936 L4279.96 598.706 L4297.18 599.058 L4314.41 598.524 L4331.63 598.776 L4348.85 596.605 L4366.08 596.501 L4383.3 592.693 L4400.53 597.116 L4417.75 594.124 L4434.97 595.428 L4452.2 595.896 L4469.42 597.29 L4486.65 602.146 L4503.87 602.059 L4521.09 602.939 L4538.32 602.237 L4555.54 601.602 L4572.77 604.892 L4589.99 606.355 L4607.21 606.956 L4624.44 609.503 L4641.66 608.278 L4641.66 333.217 L4624.44 333.973 L4607.21 333.899 L4589.99 332.286 L4572.77 332.097 L4555.54 330.488 L4538.32 330.905 L4521.09 330.759 L4503.87 331.129 L4486.65 329.755 L4469.42 329.051 L4452.2 327.846 L4434.97 328.929 L4417.75 329.632 L4400.53 328.288 L4383.3 327.772 L4366.08 330.406 L4348.85 330.722 L4331.63 328.353 L4314.41 327.925 L4297.18 326.798 L4279.96 326.927 L4262.73 327.135 L4245.51 328.297 L4228.29 325.696 L4211.06 325.636 L4193.84 327.184 L4176.61 324.744 L4159.39 325.159 L4142.17 324.603 L4124.94 325.166 L4107.72 323.699 L4090.5 324.725 L4073.27 322.235 L4056.05 321.825 L4038.82 321.873 L4021.6 323.059 L4004.38 323.262 L3987.15 322.406 L3969.93 321.926 L3952.7 323.788 L3935.48 323.235 L3918.26 322.229 L3901.03 321.758 L3883.81 321.427 L3866.58 321.78 L3849.36 321.346 L3832.14 321.348 L3814.91 319.716 L3797.69 319.737 L3780.46 320.588 L3763.24 318.719 L3746.02 319.784 L3728.79 319.423 L3711.57 319.077 L3694.34 317.635 L3677.12 318.768 L3659.9 316.455 L3642.67 315.726 L3625.45 315.501 L3608.22 316.643 L3591 316.808 L3573.78 316.141 L3556.55 315.494 L3539.33 317.327 L3522.1 316.886 L3504.88 316.1 L3487.66 315.482 L3470.43 315.432 L3453.21 315.115 L3435.99 314.952 L3418.76 314.677 L3401.54 313.034 L3384.31 312.749 L3367.09 313.472 L3349.87 312.661 L3332.64 314.342 L3315.42 313.891 L3298.19 312.743 L3280.97 311.655 L3263.75 311.009 L3246.52 310.168 L3229.3 309.982 L3212.07 309.396 L3194.85 310.295 L3177.63 310.617 L3160.4 310.127 L3143.18 309.703 L3125.95 311.556 L3108.73 310.451 L3091.51 309.993 L3074.28 309.502 L3057.06 308.827 L3039.83 307.678 L3022.61 308.196 L3005.39 307.521 L2988.16 306.076 L2970.94 306.327 L2953.71 305.615 L2936.49 305.823 L2919.27 306.077 L2902.04 305.581 L2884.82 306.342 L2867.59 305.668 L2850.37 304.242 L2833.15 303.635 L2815.92 302.912 L2798.7 303.033 L2781.48 304.171 L2764.25 304.029 L2747.03 304.639 L2729.8 302.41 L2712.58 305.857 L2695.36 304.21 L2678.13 301.815 L2660.91 301.094 L2643.68 300.726 L2626.46 300.248 L2609.24 301.347 L2592.01 300.731 L2574.79 298.169 L2557.56 299.196 L2540.34 299.548 L2523.12 298.554 L2505.89 298.985 L2488.67 298.753 L2471.44 299.929 L2454.22 299.53 L2437 298.262 L2419.77 296.925 L2402.55 296.092 L2385.32 297.229 L2368.1 297.976 L2350.88 298.529 L2333.65 298.018 L2316.43 297.145 L2299.2 298.611 L2281.98 296.303 L2264.76 294.367 L2247.53 293.871 L2230.31 294.079 L2213.08 294.514 L2195.86 295.019 L2178.64 294.384 L2161.41 292.042 L2144.19 293.292 L2126.96 293.016 L2109.74 292.307 L2092.52 291.963 L2075.29 291.093 L2058.07 291.194 L2040.85 290.847 L2023.62 289.674 L2006.4 289.783 L1989.17 289.119 L1971.95 290.267 L1954.73 291.457 L1937.5 290.654 L1920.28 289.473 L1903.05 288.131 L1885.83 290.296 L1868.61 289.039 L1851.38 287.801 L1834.16 287.43 L1816.93 288.367 L1799.71 288.152 L1782.49 287.956 L1765.26 286.445 L1748.04 285.256 L1730.81 285.763 L1713.59 285.888 L1696.37 284.883 L1679.14 284.766 L1661.92 283.411 L1644.69 283.244 L1627.47 283.582 L1610.25 283.418 L1593.02 282.296 L1575.8 282.832 L1558.57 282.96 L1541.35 285.122 L1524.13 284.37 L1506.9 282.784 L1489.68 280.749 L1472.45 284.55 L1455.23 283.547 L1438.01 282.443 L1420.78 281.83 L1403.56 282.258 L1386.34 281.39 L1369.11 281.569 L1351.89 280.103 L1334.66 278.467 L1317.44 278.659 L1300.22 277.414 L1282.99 279.026 L1265.77 278.793 L1248.54 277.686 L1231.32 277.001 L1214.1 277.29 L1196.87 277.421 L1179.65 276.74 L1162.42 276.479 L1145.2 276.948 L1127.98 278.037 L1110.75 277.468 L1093.53 276.736 L1076.3 276.305 L1059.08 277.375 L1041.86 275.911 L1024.63 276.117 L1007.41 275.707 L990.184 274.87 L972.96 275.088 L955.737 271.77 L938.513 77.1346  Z" fill="#000000" fill-rule="evenodd" fill-opacity="0.5"/>
<polyline clip-path="url(#clip332)" style="stroke:#000000; stroke-linecap:round; stroke-linejoin:round; stroke-width:0; stroke-opacity:1; fill:none" points="938.513,85.9465 955.737,235.796 972.96,238.026 990.184,238.351 1007.41,238.284 1024.63,238.375 1041.86,238.475 1059.08,239.096 1076.3,239.247 1093.53,239.082 1110.75,239.438 1127.98,239.852 1145.2,239.89 1162.42,240.526 1179.65,240.72 1196.87,240.702 1214.1,240.904 1231.32,240.875 1248.54,240.591 1265.77,241.38 1282.99,241.596 1300.22,241.305 1317.44,242.387 1334.66,241.74 1351.89,242.181 1369.11,242.576 1386.34,242.52 1403.56,242.638 1420.78,242.691 1438.01,242.941 1455.23,242.921 1472.45,243.937 1489.68,243.063 1506.9,243.543 1524.13,243.742 1541.35,244.329 1558.57,244.012 1575.8,244.62 1593.02,244.839 1610.25,244.731 1627.47,244.776 1644.69,244.831 1661.92,244.74 1679.14,245.516 1696.37,245.597 1713.59,245.458 1730.81,246.325 1748.04,245.829 1765.26,246.195 1782.49,246.558 1799.71,246.527 1816.93,246.644 1834.16,246.632 1851.38,246.977 1868.61,246.928 1885.83,247.971 1903.05,247.273 1920.28,247.661 1937.5,247.7 1954.73,248.36 1971.95,248.07 1989.17,248.703 2006.4,248.873 2023.62,248.75 2040.85,248.9 2058.07,248.95 2075.29,248.756 2092.52,249.571 2109.74,249.694 2126.96,249.481 2144.19,250.395 2161.41,249.883 2178.64,250.26 2195.86,250.6 2213.08,250.611 2230.31,250.686 2247.53,250.738 2264.76,251.06 2281.98,250.996 2299.2,252.034 2316.43,251.264 2333.65,251.668 2350.88,251.796 2368.1,252.453 2385.32,252.106 2402.55,252.748 2419.77,252.954 2437,252.824 2454.22,252.923 2471.44,252.985 2488.67,252.836 2505.89,253.63 2523.12,253.721 2540.34,253.563 2557.56,254.471 2574.79,253.944 2592.01,254.318 2609.24,254.664 2626.46,254.672 2643.68,254.772 2660.91,254.774 2678.13,255.127 2695.36,255.068 2712.58,256.114 2729.8,255.384 2747.03,255.776 2764.25,255.857 2781.48,256.519 2798.7,256.225 2815.92,256.856 2833.15,257.028 2850.37,256.899 2867.59,257.035 2884.82,257.074 2902.04,256.914 2919.27,257.726 2936.49,257.831 2953.71,257.635 2970.94,258.554 2988.16,258.04 3005.39,258.415 3022.61,258.765 3039.83,258.77 3057.06,258.854 3074.28,258.874 3091.51,259.235 3108.73,259.171 3125.95,260.196 3143.18,259.449 3160.4,259.853 3177.63,259.96 3194.85,260.626 3212.07,260.297 3229.3,260.927 3246.52,261.117 3263.75,260.99 3280.97,261.134 3298.19,261.18 3315.42,261.024 3332.64,261.818 3349.87,261.922 3367.09,261.757 3384.31,262.653 3401.54,262.147 3418.76,262.526 3435.99,262.871 3453.21,262.871 3470.43,262.967 3487.66,262.986 3504.88,263.333 3522.1,263.282 3539.33,264.331 3556.55,263.589 3573.78,263.985 3591,264.083 3608.22,264.743 3625.45,264.414 3642.67,265.059 3659.9,265.236 3677.12,265.106 3694.34,265.244 3711.57,265.289 3728.79,265.134 3746.02,265.954 3763.24,266.046 3780.46,265.862 3797.69,266.785 3814.91,266.266 3832.14,266.657 3849.36,266.995 3866.58,267.002 3883.81,267.094 3901.03,267.126 3918.26,267.467 3935.48,267.419 3952.7,268.455 3969.93,267.693 3987.15,268.101 4004.38,268.217 4021.6,268.885 4038.82,268.564 4056.05,269.18 4073.27,269.394 4090.5,269.254 4107.72,269.387 4124.94,269.433 4142.17,269.277 4159.39,270.083 4176.61,270.191 4193.84,270.01 4211.06,270.923 4228.29,270.423 4245.51,270.795 4262.73,271.141 4279.96,271.159 4297.18,271.259 4314.41,271.261 4331.63,271.628 4348.85,271.56 4366.08,272.601 4383.3,271.873 4400.53,272.272 4417.75,272.378 4434.97,273.032 4452.2,272.702 4469.42,273.352 4486.65,273.533 4503.87,273.41 4521.09,273.537 4538.32,273.594 4555.54,273.43 4572.77,274.242 4589.99,274.348 4607.21,274.16 4624.44,275.099 4641.66,274.577 "/>
<path clip-path="url(#clip330)" d="M3910.11 593.434 L4621.91 593.434 L4621.91 75.0343 L3910.11 75.0343  Z" fill="#ffffff" fill-rule="evenodd" fill-opacity="1"/>
<polyline clip-path="url(#clip330)" style="stroke:#000000; stroke-linecap:round; stroke-linejoin:round; stroke-width:4; stroke-opacity:1; fill:none" points="3910.11,593.434 4621.91,593.434 4621.91,75.0343 3910.11,75.0343 3910.11,593.434 "/>
<polyline clip-path="url(#clip330)" style="stroke:#c8c8c8; stroke-linecap:round; stroke-linejoin:round; stroke-width:2; stroke-opacity:1; fill:none" points="3953.72,204.634 4215.41,204.634 "/>
<path clip-path="url(#clip330)" d="M4260.71 237.996 L4279.8 237.996 L4279.8 172.082 L4259.03 176.249 L4259.03 165.601 L4279.69 161.434 L4291.38 161.434 L4291.38 237.996 L4310.47 237.996 L4310.47 247.834 L4260.71 247.834 L4260.71 237.996 Z" fill="#000000" fill-rule="nonzero" fill-opacity="1" /><path clip-path="url(#clip330)" d="M4359.08 169.131 Q4350.06 169.131 4345.49 178.043 Q4340.97 186.897 4340.97 204.721 Q4340.97 222.487 4345.49 231.399 Q4350.06 240.253 4359.08 240.253 Q4368.17 240.253 4372.68 231.399 Q4377.26 222.487 4377.26 204.721 Q4377.26 186.897 4372.68 178.043 Q4368.17 169.131 4359.08 169.131 M4359.08 159.872 Q4373.61 159.872 4381.25 171.388 Q4388.95 182.846 4388.95 204.721 Q4388.95 226.538 4381.25 238.054 Q4373.61 249.513 4359.08 249.513 Q4344.56 249.513 4336.86 238.054 Q4329.22 226.538 4329.22 204.721 Q4329.22 182.846 4336.86 171.388 Q4344.56 159.872 4359.08 159.872 Z" fill="#000000" fill-rule="nonzero" fill-opacity="1" /><path clip-path="url(#clip330)" d="M4434.49 169.131 Q4425.46 169.131 4420.89 178.043 Q4416.38 186.897 4416.38 204.721 Q4416.38 222.487 4420.89 231.399 Q4425.46 240.253 4434.49 240.253 Q4443.57 240.253 4448.09 231.399 Q4452.66 222.487 4452.66 204.721 Q4452.66 186.897 4448.09 178.043 Q4443.57 169.131 4434.49 169.131 M4434.49 159.872 Q4449.01 159.872 4456.65 171.388 Q4464.35 182.846 4464.35 204.721 Q4464.35 226.538 4456.65 238.054 Q4449.01 249.513 4434.49 249.513 Q4419.96 249.513 4412.27 238.054 Q4404.63 226.538 4404.63 204.721 Q4404.63 182.846 4412.27 171.388 Q4419.96 159.872 4434.49 159.872 Z" fill="#000000" fill-rule="nonzero" fill-opacity="1" /><path clip-path="url(#clip330)" d="M4558.39 209.814 Q4553.35 209.814 4550.46 214.096 Q4547.63 218.378 4547.63 226.017 Q4547.63 233.54 4550.46 237.881 Q4553.35 242.163 4558.39 242.163 Q4563.31 242.163 4566.14 237.881 Q4569.04 233.54 4569.04 226.017 Q4569.04 218.436 4566.14 214.154 Q4563.31 209.814 4558.39 209.814 M4558.39 202.464 Q4567.53 202.464 4572.91 208.83 Q4578.3 215.196 4578.3 226.017 Q4578.3 236.839 4572.86 243.205 Q4567.47 249.513 4558.39 249.513 Q4549.13 249.513 4543.75 243.205 Q4538.37 236.839 4538.37 226.017 Q4538.37 215.138 4543.75 208.83 Q4549.19 202.464 4558.39 202.464 M4498.67 167.221 Q4493.69 167.221 4490.8 171.562 Q4487.96 175.844 4487.96 183.367 Q4487.96 191.006 4490.8 195.288 Q4493.63 199.571 4498.67 199.571 Q4503.7 199.571 4506.54 195.288 Q4509.43 191.006 4509.43 183.367 Q4509.43 175.902 4506.54 171.562 Q4503.64 167.221 4498.67 167.221 M4550.92 159.872 L4560.18 159.872 L4506.13 249.513 L4496.87 249.513 L4550.92 159.872 M4498.67 159.872 Q4507.81 159.872 4513.25 166.238 Q4518.69 172.545 4518.69 183.367 Q4518.69 194.305 4513.25 200.612 Q4507.87 206.92 4498.67 206.92 Q4489.47 206.92 4484.08 200.612 Q4478.76 194.247 4478.76 183.367 Q4478.76 172.603 4484.14 166.238 Q4489.52 159.872 4498.67 159.872 Z" fill="#000000" fill-rule="nonzero" fill-opacity="1" /><polyline clip-path="url(#clip330)" style="stroke:#525252; stroke-linecap:round; stroke-linejoin:round; stroke-width:2; stroke-opacity:1; fill:none" points="3953.72,334.234 4215.41,334.234 "/>
<path clip-path="url(#clip330)" d="M4264.58 375.64 L4264.58 364.992 Q4268.98 367.076 4273.49 368.175 Q4278.01 369.275 4282.35 369.275 Q4293.92 369.275 4300 361.52 Q4306.13 353.708 4307 337.851 Q4303.65 342.828 4298.49 345.49 Q4293.34 348.152 4287.09 348.152 Q4274.13 348.152 4266.55 340.34 Q4259.03 332.469 4259.03 318.87 Q4259.03 305.56 4266.9 297.516 Q4274.77 289.472 4287.85 289.472 Q4302.83 289.472 4310.71 300.988 Q4318.63 312.446 4318.63 334.321 Q4318.63 354.749 4308.91 366.96 Q4299.25 379.113 4282.87 379.113 Q4278.47 379.113 4273.96 378.245 Q4269.44 377.376 4264.58 375.64 M4287.85 339.009 Q4295.72 339.009 4300.29 333.627 Q4304.92 328.245 4304.92 318.87 Q4304.92 309.553 4300.29 304.171 Q4295.72 298.731 4287.85 298.731 Q4279.98 298.731 4275.35 304.171 Q4270.77 309.553 4270.77 318.87 Q4270.77 328.245 4275.35 333.627 Q4279.98 339.009 4287.85 339.009 Z" fill="#000000" fill-rule="nonzero" fill-opacity="1" /><path clip-path="url(#clip330)" d="M4364.64 298.731 Q4355.61 298.731 4351.04 307.643 Q4346.53 316.497 4346.53 334.321 Q4346.53 352.087 4351.04 360.999 Q4355.61 369.853 4364.64 369.853 Q4373.73 369.853 4378.24 360.999 Q4382.81 352.087 4382.81 334.321 Q4382.81 316.497 4378.24 307.643 Q4373.73 298.731 4364.64 298.731 M4364.64 289.472 Q4379.17 289.472 4386.8 300.988 Q4394.5 312.446 4394.5 334.321 Q4394.5 356.138 4386.8 367.654 Q4379.17 379.113 4364.64 379.113 Q4350.11 379.113 4342.42 367.654 Q4334.78 356.138 4334.78 334.321 Q4334.78 312.446 4342.42 300.988 Q4350.11 289.472 4364.64 289.472 Z" fill="#000000" fill-rule="nonzero" fill-opacity="1" /><path clip-path="url(#clip330)" d="M4488.54 339.414 Q4483.51 339.414 4480.61 343.696 Q4477.78 347.978 4477.78 355.617 Q4477.78 363.14 4480.61 367.481 Q4483.51 371.763 4488.54 371.763 Q4493.46 371.763 4496.29 367.481 Q4499.19 363.14 4499.19 355.617 Q4499.19 348.036 4496.29 343.754 Q4493.46 339.414 4488.54 339.414 M4488.54 332.064 Q4497.68 332.064 4503.07 338.43 Q4508.45 344.796 4508.45 355.617 Q4508.45 366.439 4503.01 372.805 Q4497.63 379.113 4488.54 379.113 Q4479.28 379.113 4473.9 372.805 Q4468.52 366.439 4468.52 355.617 Q4468.52 344.738 4473.9 338.43 Q4479.34 332.064 4488.54 332.064 M4428.82 296.821 Q4423.84 296.821 4420.95 301.162 Q4418.11 305.444 4418.11 312.967 Q4418.11 320.606 4420.95 324.888 Q4423.78 329.171 4428.82 329.171 Q4433.85 329.171 4436.69 324.888 Q4439.58 320.606 4439.58 312.967 Q4439.58 305.502 4436.69 301.162 Q4433.79 296.821 4428.82 296.821 M4481.07 289.472 L4490.33 289.472 L4436.28 379.113 L4427.02 379.113 L4481.07 289.472 M4428.82 289.472 Q4437.96 289.472 4443.4 295.838 Q4448.84 302.145 4448.84 312.967 Q4448.84 323.905 4443.4 330.212 Q4438.02 336.52 4428.82 336.52 Q4419.62 336.52 4414.23 330.212 Q4408.91 323.847 4408.91 312.967 Q4408.91 302.203 4414.29 295.838 Q4419.67 289.472 4428.82 289.472 Z" fill="#000000" fill-rule="nonzero" fill-opacity="1" /><polyline clip-path="url(#clip330)" style="stroke:#000000; stroke-linecap:round; stroke-linejoin:round; stroke-width:2; stroke-opacity:1; fill:none" points="3953.72,463.834 4215.41,463.834 "/>
<path clip-path="url(#clip330)" d="M4288.66 466.004 Q4280.32 466.004 4275.52 470.46 Q4270.77 474.916 4270.77 482.729 Q4270.77 490.541 4275.52 494.997 Q4280.32 499.453 4288.66 499.453 Q4296.99 499.453 4301.79 494.997 Q4306.6 490.484 4306.6 482.729 Q4306.6 474.916 4301.79 470.46 Q4297.05 466.004 4288.66 466.004 M4276.97 461.028 Q4269.44 459.176 4265.22 454.025 Q4261.05 448.875 4261.05 441.468 Q4261.05 431.109 4268.4 425.09 Q4275.81 419.072 4288.66 419.072 Q4301.56 419.072 4308.91 425.09 Q4316.26 431.109 4316.26 441.468 Q4316.26 448.875 4312.04 454.025 Q4307.87 459.176 4300.4 461.028 Q4308.85 462.995 4313.54 468.724 Q4318.29 474.453 4318.29 482.729 Q4318.29 495.287 4310.59 502 Q4302.95 508.713 4288.66 508.713 Q4274.36 508.713 4266.67 502 Q4259.03 495.287 4259.03 482.729 Q4259.03 474.453 4263.77 468.724 Q4268.52 462.995 4276.97 461.028 M4272.68 442.567 Q4272.68 449.28 4276.85 453.042 Q4281.08 456.803 4288.66 456.803 Q4296.18 456.803 4300.4 453.042 Q4304.69 449.28 4304.69 442.567 Q4304.69 435.854 4300.4 432.093 Q4296.18 428.331 4288.66 428.331 Q4281.08 428.331 4276.85 432.093 Q4272.68 435.854 4272.68 442.567 Z" fill="#000000" fill-rule="nonzero" fill-opacity="1" /><path clip-path="url(#clip330)" d="M4364.06 428.331 Q4355.03 428.331 4350.46 437.243 Q4345.95 446.097 4345.95 463.921 Q4345.95 481.687 4350.46 490.599 Q4355.03 499.453 4364.06 499.453 Q4373.15 499.453 4377.66 490.599 Q4382.23 481.687 4382.23 463.921 Q4382.23 446.097 4377.66 437.243 Q4373.15 428.331 4364.06 428.331 M4364.06 419.072 Q4378.59 419.072 4386.23 430.588 Q4393.92 442.046 4393.92 463.921 Q4393.92 485.738 4386.23 497.254 Q4378.59 508.713 4364.06 508.713 Q4349.54 508.713 4341.84 497.254 Q4334.2 485.738 4334.2 463.921 Q4334.2 442.046 4341.84 430.588 Q4349.54 419.072 4364.06 419.072 Z" fill="#000000" fill-rule="nonzero" fill-opacity="1" /><path clip-path="url(#clip330)" d="M4487.96 469.014 Q4482.93 469.014 4480.03 473.296 Q4477.2 477.578 4477.2 485.217 Q4477.2 492.74 4480.03 497.081 Q4482.93 501.363 4487.96 501.363 Q4492.88 501.363 4495.72 497.081 Q4498.61 492.74 4498.61 485.217 Q4498.61 477.636 4495.72 473.354 Q4492.88 469.014 4487.96 469.014 M4487.96 461.664 Q4497.1 461.664 4502.49 468.03 Q4507.87 474.396 4507.87 485.217 Q4507.87 496.039 4502.43 502.405 Q4497.05 508.713 4487.96 508.713 Q4478.7 508.713 4473.32 502.405 Q4467.94 496.039 4467.94 485.217 Q4467.94 474.338 4473.32 468.03 Q4478.76 461.664 4487.96 461.664 M4428.24 426.421 Q4423.26 426.421 4420.37 430.762 Q4417.53 435.044 4417.53 442.567 Q4417.53 450.206 4420.37 454.488 Q4423.2 458.771 4428.24 458.771 Q4433.27 458.771 4436.11 454.488 Q4439 450.206 4439 442.567 Q4439 435.102 4436.11 430.762 Q4433.22 426.421 4428.24 426.421 M4480.5 419.072 L4489.76 419.072 L4435.7 508.713 L4426.45 508.713 L4480.5 419.072 M4428.24 419.072 Q4437.38 419.072 4442.82 425.438 Q4448.26 431.745 4448.26 442.567 Q4448.26 453.505 4442.82 459.812 Q4437.44 466.12 4428.24 466.12 Q4419.04 466.12 4413.66 459.812 Q4408.33 453.447 4408.33 442.567 Q4408.33 431.803 4413.71 425.438 Q4419.1 419.072 4428.24 419.072 Z" fill="#000000" fill-rule="nonzero" fill-opacity="1" /></svg>
