<?xml version="1.0" encoding="utf-8"?>
<svg xmlns="http://www.w3.org/2000/svg" xmlns:xlink="http://www.w3.org/1999/xlink" width="1200" height="300" viewBox="0 0 4800 1200">
<defs>
  <clipPath id="clip090">
    <rect x="0" y="0" width="4800" height="1200"/>
  </clipPath>
</defs>
<path clip-path="url(#clip090)" d="M0 1200 L4800 1200 L4800 0 L0 0  Z" fill="#ffffff" fill-rule="evenodd" fill-opacity="1"/>
<defs>
  <clipPath id="clip091">
    <rect x="960" y="0" width="3361" height="1200"/>
  </clipPath>
</defs>
<path clip-path="url(#clip090)" d="M477.57 880.951 L4752.76 880.951 L4752.76 47.2441 L477.57 47.2441  Z" fill="#ffffff" fill-rule="evenodd" fill-opacity="1"/>
<defs>
  <clipPath id="clip092">
    <rect x="477" y="47" width="4276" height="835"/>
  </clipPath>
</defs>
<polyline clip-path="url(#clip092)" style="stroke:#000000; stroke-linecap:round; stroke-linejoin:round; stroke-width:2; stroke-opacity:0.1; fill:none" points="1030.02,880.951 1030.02,47.2441 "/>
<polyline clip-path="url(#clip092)" style="stroke:#000000; stroke-linecap:round; stroke-linejoin:round; stroke-width:2; stroke-opacity:0.1; fill:none" points="1930.46,880.951 1930.46,47.2441 "/>
<polyline clip-path="url(#clip092)" style="stroke:#000000; stroke-linecap:round; stroke-linejoin:round; stroke-width:2; stroke-opacity:0.1; fill:none" points="2830.89,880.951 2830.89,47.2441 "/>
<polyline clip-path="url(#clip092)" style="stroke:#000000; stroke-linecap:round; stroke-linejoin:round; stroke-width:2; stroke-opacity:0.1; fill:none" points="3731.33,880.951 3731.33,47.2441 "/>
<polyline clip-path="url(#clip092)" style="stroke:#000000; stroke-linecap:round; stroke-linejoin:round; stroke-width:2; stroke-opacity:0.1; fill:none" points="4631.76,880.951 4631.76,47.2441 "/>
<polyline clip-path="url(#clip090)" style="stroke:#000000; stroke-linecap:round; stroke-linejoin:round; stroke-width:4; stroke-opacity:1; fill:none" points="477.57,880.951 4752.76,880.951 "/>
<polyline clip-path="url(#clip090)" style="stroke:#000000; stroke-linecap:round; stroke-linejoin:round; stroke-width:4; stroke-opacity:1; fill:none" points="1030.02,880.951 1030.02,862.054 "/>
<polyline clip-path="url(#clip090)" style="stroke:#000000; stroke-linecap:round; stroke-linejoin:round; stroke-width:4; stroke-opacity:1; fill:none" points="1930.46,880.951 1930.46,862.054 "/>
<polyline clip-path="url(#clip090)" style="stroke:#000000; stroke-linecap:round; stroke-linejoin:round; stroke-width:4; stroke-opacity:1; fill:none" points="2830.89,880.951 2830.89,862.054 "/>
<polyline clip-path="url(#clip090)" style="stroke:#000000; stroke-linecap:round; stroke-linejoin:round; stroke-width:4; stroke-opacity:1; fill:none" points="3731.33,880.951 3731.33,862.054 "/>
<polyline clip-path="url(#clip090)" style="stroke:#000000; stroke-linecap:round; stroke-linejoin:round; stroke-width:4; stroke-opacity:1; fill:none" points="4631.76,880.951 4631.76,862.054 "/>
<path clip-path="url(#clip090)" d="M1019.33 997.881 L1051.97 997.881 L1051.97 1005.75 L1008.08 1005.75 L1008.08 997.881 Q1013.4 992.372 1022.57 983.113 Q1031.78 973.807 1034.14 971.122 Q1038.64 966.076 1040.39 962.604 Q1042.2 959.085 1042.2 955.705 Q1042.2 950.196 1038.31 946.724 Q1034.47 943.252 1028.26 943.252 Q1023.87 943.252 1018.96 944.78 Q1014.1 946.307 1008.54 949.409 L1008.54 939.965 Q1014.19 937.696 1019.1 936.539 Q1024.01 935.382 1028.08 935.382 Q1038.82 935.382 1045.21 940.752 Q1051.6 946.122 1051.6 955.104 Q1051.6 959.363 1049.98 963.205 Q1048.4 967.002 1044.19 972.187 Q1043.03 973.529 1036.83 979.965 Q1030.63 986.353 1019.33 997.881 Z" fill="#000000" fill-rule="nonzero" fill-opacity="1" /><path clip-path="url(#clip090)" d="M1936.48 944.78 L1912.87 981.678 L1936.48 981.678 L1936.48 944.78 M1934.02 936.631 L1945.78 936.631 L1945.78 981.678 L1955.64 981.678 L1955.64 989.455 L1945.78 989.455 L1945.78 1005.75 L1936.48 1005.75 L1936.48 989.455 L1905.27 989.455 L1905.27 980.428 L1934.02 936.631 Z" fill="#000000" fill-rule="nonzero" fill-opacity="1" /><path clip-path="url(#clip090)" d="M2831.7 967.465 Q2825.41 967.465 2821.7 971.77 Q2818.04 976.076 2818.04 983.576 Q2818.04 991.029 2821.7 995.381 Q2825.41 999.687 2831.7 999.687 Q2838 999.687 2841.66 995.381 Q2845.36 991.029 2845.36 983.576 Q2845.36 976.076 2841.66 971.77 Q2838 967.465 2831.7 967.465 M2850.27 938.159 L2850.27 946.678 Q2846.75 945.011 2843.14 944.131 Q2839.57 943.252 2836.05 943.252 Q2826.79 943.252 2821.89 949.502 Q2817.03 955.752 2816.33 968.391 Q2819.06 964.363 2823.18 962.233 Q2827.3 960.057 2832.26 960.057 Q2842.67 960.057 2848.69 966.4 Q2854.76 972.696 2854.76 983.576 Q2854.76 994.224 2848.46 1000.66 Q2842.17 1007.09 2831.7 1007.09 Q2819.71 1007.09 2813.37 997.927 Q2807.03 988.715 2807.03 971.261 Q2807.03 954.872 2814.8 945.15 Q2822.58 935.382 2835.68 935.382 Q2839.2 935.382 2842.77 936.076 Q2846.38 936.77 2850.27 938.159 Z" fill="#000000" fill-rule="nonzero" fill-opacity="1" /><path clip-path="url(#clip090)" d="M3731.33 972.928 Q3724.66 972.928 3720.82 976.492 Q3717.02 980.057 3717.02 986.307 Q3717.02 992.557 3720.82 996.122 Q3724.66 999.687 3731.33 999.687 Q3737.99 999.687 3741.84 996.122 Q3745.68 992.511 3745.68 986.307 Q3745.68 980.057 3741.84 976.492 Q3738.04 972.928 3731.33 972.928 M3721.97 968.946 Q3715.96 967.465 3712.58 963.344 Q3709.24 959.224 3709.24 953.298 Q3709.24 945.011 3715.12 940.196 Q3721.05 935.382 3731.33 935.382 Q3741.65 935.382 3747.53 940.196 Q3753.41 945.011 3753.41 953.298 Q3753.41 959.224 3750.03 963.344 Q3746.7 967.465 3740.72 968.946 Q3747.48 970.52 3751.23 975.104 Q3755.03 979.687 3755.03 986.307 Q3755.03 996.353 3748.87 1001.72 Q3742.76 1007.09 3731.33 1007.09 Q3719.89 1007.09 3713.73 1001.72 Q3707.62 996.353 3707.62 986.307 Q3707.62 979.687 3711.42 975.104 Q3715.22 970.52 3721.97 968.946 M3718.55 954.178 Q3718.55 959.548 3721.88 962.557 Q3725.26 965.567 3731.33 965.567 Q3737.34 965.567 3740.72 962.557 Q3744.15 959.548 3744.15 954.178 Q3744.15 948.807 3740.72 945.798 Q3737.34 942.789 3731.33 942.789 Q3725.26 942.789 3721.88 945.798 Q3718.55 948.807 3718.55 954.178 Z" fill="#000000" fill-rule="nonzero" fill-opacity="1" /><path clip-path="url(#clip090)" d="M4581.14 997.881 L4596.41 997.881 L4596.41 945.15 L4579.79 948.483 L4579.79 939.965 L4596.32 936.631 L4605.67 936.631 L4605.67 997.881 L4620.95 997.881 L4620.95 1005.75 L4581.14 1005.75 L4581.14 997.881 Z" fill="#000000" fill-rule="nonzero" fill-opacity="1" /><path clip-path="url(#clip090)" d="M4659.84 942.789 Q4652.62 942.789 4648.96 949.918 Q4645.35 957.002 4645.35 971.261 Q4645.35 985.474 4648.96 992.603 Q4652.62 999.687 4659.84 999.687 Q4667.11 999.687 4670.72 992.603 Q4674.38 985.474 4674.38 971.261 Q4674.38 957.002 4670.72 949.918 Q4667.11 942.789 4659.84 942.789 M4659.84 935.382 Q4671.46 935.382 4677.57 944.594 Q4683.73 953.761 4683.73 971.261 Q4683.73 988.715 4677.57 997.927 Q4671.46 1007.09 4659.84 1007.09 Q4648.22 1007.09 4642.06 997.927 Q4635.95 988.715 4635.95 971.261 Q4635.95 953.761 4642.06 944.594 Q4648.22 935.382 4659.84 935.382 Z" fill="#000000" fill-rule="nonzero" fill-opacity="1" /><path clip-path="url(#clip090)" d="M2332.4 1072.18 L2398.19 1072.18 L2398.19 1081.04 L2370.58 1081.04 L2370.58 1149.94 L2360.01 1149.94 L2360.01 1081.04 L2332.4 1081.04 L2332.4 1072.18 Z" fill="#000000" fill-rule="nonzero" fill-opacity="1" /><path clip-path="url(#clip090)" d="M2404.64 1091.61 L2414.23 1091.61 L2414.23 1149.94 L2404.64 1149.94 L2404.64 1091.61 M2404.64 1068.9 L2414.23 1068.9 L2414.23 1081.04 L2404.64 1081.04 L2404.64 1068.9 Z" fill="#000000" fill-rule="nonzero" fill-opacity="1" /><path clip-path="url(#clip090)" d="M2479.7 1102.81 Q2483.29 1096.35 2488.29 1093.28 Q2493.29 1090.2 2500.06 1090.2 Q2509.17 1090.2 2514.12 1096.61 Q2519.07 1102.96 2519.07 1114.74 L2519.07 1149.94 L2509.43 1149.94 L2509.43 1115.05 Q2509.43 1106.66 2506.47 1102.6 Q2503.5 1098.54 2497.4 1098.54 Q2489.96 1098.54 2485.63 1103.49 Q2481.31 1108.43 2481.31 1116.97 L2481.31 1149.94 L2471.67 1149.94 L2471.67 1115.05 Q2471.67 1106.61 2468.71 1102.6 Q2465.74 1098.54 2459.54 1098.54 Q2452.2 1098.54 2447.87 1103.54 Q2443.55 1108.49 2443.55 1116.97 L2443.55 1149.94 L2433.91 1149.94 L2433.91 1091.61 L2443.55 1091.61 L2443.55 1100.67 Q2446.83 1095.31 2451.41 1092.76 Q2456 1090.2 2462.3 1090.2 Q2468.65 1090.2 2473.08 1093.43 Q2477.56 1096.66 2479.7 1102.81 Z" fill="#000000" fill-rule="nonzero" fill-opacity="1" /><path clip-path="url(#clip090)" d="M2588.08 1118.38 L2588.08 1123.07 L2544.02 1123.07 Q2544.64 1132.96 2549.96 1138.17 Q2555.32 1143.33 2564.85 1143.33 Q2570.37 1143.33 2575.53 1141.97 Q2580.74 1140.62 2585.84 1137.91 L2585.84 1146.97 Q2580.68 1149.16 2575.27 1150.31 Q2569.85 1151.45 2564.28 1151.45 Q2550.32 1151.45 2542.14 1143.33 Q2534.02 1135.2 2534.02 1121.35 Q2534.02 1107.03 2541.73 1098.64 Q2549.49 1090.2 2562.61 1090.2 Q2574.38 1090.2 2581.21 1097.81 Q2588.08 1105.36 2588.08 1118.38 M2578.5 1115.57 Q2578.39 1107.7 2574.07 1103.02 Q2569.8 1098.33 2562.72 1098.33 Q2554.69 1098.33 2549.85 1102.86 Q2545.06 1107.39 2544.33 1115.62 L2578.5 1115.57 Z" fill="#000000" fill-rule="nonzero" fill-opacity="1" /><path clip-path="url(#clip090)" d="M2660.74 1069.01 Q2653.76 1080.99 2650.37 1092.7 Q2646.99 1104.42 2646.99 1116.45 Q2646.99 1128.49 2650.37 1140.31 Q2653.81 1152.08 2660.74 1164.01 L2652.4 1164.01 Q2644.59 1151.77 2640.68 1139.94 Q2636.83 1128.12 2636.83 1116.45 Q2636.83 1104.84 2640.68 1093.07 Q2644.54 1081.3 2652.4 1069.01 L2660.74 1069.01 Z" fill="#000000" fill-rule="nonzero" fill-opacity="1" /><path clip-path="url(#clip090)" d="M2717.71 1100.46 L2717.71 1068.9 L2727.3 1068.9 L2727.3 1149.94 L2717.71 1149.94 L2717.71 1141.19 Q2714.69 1146.4 2710.06 1148.95 Q2705.48 1151.45 2699.02 1151.45 Q2688.44 1151.45 2681.78 1143.02 Q2675.16 1134.58 2675.16 1120.83 Q2675.16 1107.08 2681.78 1098.64 Q2688.44 1090.2 2699.02 1090.2 Q2705.48 1090.2 2710.06 1092.76 Q2714.69 1095.26 2717.71 1100.46 M2685.06 1120.83 Q2685.06 1131.4 2689.38 1137.44 Q2693.76 1143.43 2701.36 1143.43 Q2708.96 1143.43 2713.34 1137.44 Q2717.71 1131.4 2717.71 1120.83 Q2717.71 1110.26 2713.34 1104.27 Q2708.96 1098.23 2701.36 1098.23 Q2693.76 1098.23 2689.38 1104.27 Q2685.06 1110.26 2685.06 1120.83 Z" fill="#000000" fill-rule="nonzero" fill-opacity="1" /><path clip-path="url(#clip090)" d="M2773.55 1120.62 Q2761.93 1120.62 2757.45 1123.28 Q2752.97 1125.93 2752.97 1132.34 Q2752.97 1137.44 2756.31 1140.46 Q2759.69 1143.43 2765.47 1143.43 Q2773.44 1143.43 2778.24 1137.81 Q2783.08 1132.13 2783.08 1122.76 L2783.08 1120.62 L2773.55 1120.62 M2792.66 1116.66 L2792.66 1149.94 L2783.08 1149.94 L2783.08 1141.09 Q2779.8 1146.4 2774.9 1148.95 Q2770.01 1151.45 2762.92 1151.45 Q2753.96 1151.45 2748.65 1146.45 Q2743.39 1141.4 2743.39 1132.96 Q2743.39 1123.12 2749.95 1118.12 Q2756.57 1113.12 2769.64 1113.12 L2783.08 1113.12 L2783.08 1112.18 Q2783.08 1105.57 2778.7 1101.98 Q2774.38 1098.33 2766.52 1098.33 Q2761.52 1098.33 2756.78 1099.53 Q2752.04 1100.73 2747.66 1103.12 L2747.66 1094.27 Q2752.92 1092.24 2757.87 1091.25 Q2762.82 1090.2 2767.51 1090.2 Q2780.16 1090.2 2786.41 1096.77 Q2792.66 1103.33 2792.66 1116.66 Z" fill="#000000" fill-rule="nonzero" fill-opacity="1" /><path clip-path="url(#clip090)" d="M2836.67 1155.36 Q2832.61 1165.78 2828.76 1168.95 Q2824.9 1172.13 2818.44 1172.13 L2810.79 1172.13 L2810.79 1164.11 L2816.41 1164.11 Q2820.37 1164.11 2822.56 1162.24 Q2824.75 1160.36 2827.4 1153.38 L2829.12 1149.01 L2805.53 1091.61 L2815.68 1091.61 L2833.91 1137.24 L2852.14 1091.61 L2862.3 1091.61 L2836.67 1155.36 Z" fill="#000000" fill-rule="nonzero" fill-opacity="1" /><path clip-path="url(#clip090)" d="M2874.02 1069.01 L2882.35 1069.01 Q2890.16 1081.3 2894.02 1093.07 Q2897.92 1104.84 2897.92 1116.45 Q2897.92 1128.12 2894.02 1139.94 Q2890.16 1151.77 2882.35 1164.01 L2874.02 1164.01 Q2880.94 1152.08 2884.33 1140.31 Q2887.77 1128.49 2887.77 1116.45 Q2887.77 1104.42 2884.33 1092.7 Q2880.94 1080.99 2874.02 1069.01 Z" fill="#000000" fill-rule="nonzero" fill-opacity="1" /><polyline clip-path="url(#clip092)" style="stroke:#000000; stroke-linecap:round; stroke-linejoin:round; stroke-width:2; stroke-opacity:0.1; fill:none" points="477.57,752.275 4752.76,752.275 "/>
<polyline clip-path="url(#clip092)" style="stroke:#000000; stroke-linecap:round; stroke-linejoin:round; stroke-width:2; stroke-opacity:0.1; fill:none" points="477.57,598.826 4752.76,598.826 "/>
<polyline clip-path="url(#clip092)" style="stroke:#000000; stroke-linecap:round; stroke-linejoin:round; stroke-width:2; stroke-opacity:0.1; fill:none" points="477.57,445.377 4752.76,445.377 "/>
<polyline clip-path="url(#clip092)" style="stroke:#000000; stroke-linecap:round; stroke-linejoin:round; stroke-width:2; stroke-opacity:0.1; fill:none" points="477.57,291.927 4752.76,291.927 "/>
<polyline clip-path="url(#clip092)" style="stroke:#000000; stroke-linecap:round; stroke-linejoin:round; stroke-width:2; stroke-opacity:0.1; fill:none" points="477.57,138.478 4752.76,138.478 "/>
<polyline clip-path="url(#clip090)" style="stroke:#000000; stroke-linecap:round; stroke-linejoin:round; stroke-width:4; stroke-opacity:1; fill:none" points="477.57,880.951 477.57,47.2441 "/>
<polyline clip-path="url(#clip090)" style="stroke:#000000; stroke-linecap:round; stroke-linejoin:round; stroke-width:4; stroke-opacity:1; fill:none" points="477.57,752.275 496.468,752.275 "/>
<polyline clip-path="url(#clip090)" style="stroke:#000000; stroke-linecap:round; stroke-linejoin:round; stroke-width:4; stroke-opacity:1; fill:none" points="477.57,598.826 496.468,598.826 "/>
<polyline clip-path="url(#clip090)" style="stroke:#000000; stroke-linecap:round; stroke-linejoin:round; stroke-width:4; stroke-opacity:1; fill:none" points="477.57,445.377 496.468,445.377 "/>
<polyline clip-path="url(#clip090)" style="stroke:#000000; stroke-linecap:round; stroke-linejoin:round; stroke-width:4; stroke-opacity:1; fill:none" points="477.57,291.927 496.468,291.927 "/>
<polyline clip-path="url(#clip090)" style="stroke:#000000; stroke-linecap:round; stroke-linejoin:round; stroke-width:4; stroke-opacity:1; fill:none" points="477.57,138.478 496.468,138.478 "/>
<path clip-path="url(#clip090)" d="M194.877 753.178 L254.229 753.178 L254.229 761.048 L194.877 761.048 L194.877 753.178 Z" fill="#000000" fill-rule="nonzero" fill-opacity="1" /><path clip-path="url(#clip090)" d="M294.414 723.872 Q287.191 723.872 283.534 731.002 Q279.923 738.085 279.923 752.344 Q279.923 766.557 283.534 773.687 Q287.191 780.77 294.414 780.77 Q301.682 780.77 305.293 773.687 Q308.951 766.557 308.951 752.344 Q308.951 738.085 305.293 731.002 Q301.682 723.872 294.414 723.872 M294.414 716.465 Q306.034 716.465 312.145 725.678 Q318.302 734.845 318.302 752.344 Q318.302 769.798 312.145 779.011 Q306.034 788.178 294.414 788.178 Q282.793 788.178 276.636 779.011 Q270.525 769.798 270.525 752.344 Q270.525 734.845 276.636 725.678 Q282.793 716.465 294.414 716.465 Z" fill="#000000" fill-rule="nonzero" fill-opacity="1" /><path clip-path="url(#clip090)" d="M334.737 775.076 L344.506 775.076 L344.506 786.835 L334.737 786.835 L334.737 775.076 Z" fill="#000000" fill-rule="nonzero" fill-opacity="1" /><path clip-path="url(#clip090)" d="M372.932 778.965 L405.57 778.965 L405.57 786.835 L361.682 786.835 L361.682 778.965 Q367.006 773.455 376.172 764.196 Q385.385 754.891 387.746 752.206 Q392.237 747.159 393.996 743.687 Q395.802 740.169 395.802 736.789 Q395.802 731.28 391.913 727.808 Q388.071 724.335 381.867 724.335 Q377.469 724.335 372.561 725.863 Q367.7 727.391 362.145 730.493 L362.145 721.048 Q367.793 718.78 372.7 717.622 Q377.608 716.465 381.682 716.465 Q392.422 716.465 398.811 721.835 Q405.2 727.206 405.2 736.187 Q405.2 740.446 403.58 744.289 Q402.006 748.085 397.793 753.27 Q396.635 754.613 390.432 761.048 Q384.228 767.437 372.932 778.965 Z" fill="#000000" fill-rule="nonzero" fill-opacity="1" /><path clip-path="url(#clip090)" d="M194.136 599.729 L253.488 599.729 L253.488 607.599 L194.136 607.599 L194.136 599.729 Z" fill="#000000" fill-rule="nonzero" fill-opacity="1" /><path clip-path="url(#clip090)" d="M293.673 570.423 Q286.451 570.423 282.793 577.553 Q279.182 584.636 279.182 598.895 Q279.182 613.108 282.793 620.238 Q286.451 627.321 293.673 627.321 Q300.941 627.321 304.552 620.238 Q308.21 613.108 308.21 598.895 Q308.21 584.636 304.552 577.553 Q300.941 570.423 293.673 570.423 M293.673 563.016 Q305.293 563.016 311.404 572.229 Q317.562 581.395 317.562 598.895 Q317.562 616.349 311.404 625.562 Q305.293 634.728 293.673 634.728 Q282.053 634.728 275.895 625.562 Q269.784 616.349 269.784 598.895 Q269.784 581.395 275.895 572.229 Q282.053 563.016 293.673 563.016 Z" fill="#000000" fill-rule="nonzero" fill-opacity="1" /><path clip-path="url(#clip090)" d="M333.997 621.627 L343.765 621.627 L343.765 633.386 L333.997 633.386 L333.997 621.627 Z" fill="#000000" fill-rule="nonzero" fill-opacity="1" /><path clip-path="url(#clip090)" d="M365.756 625.516 L381.034 625.516 L381.034 572.784 L364.413 576.118 L364.413 567.599 L380.941 564.266 L390.293 564.266 L390.293 625.516 L405.57 625.516 L405.57 633.386 L365.756 633.386 L365.756 625.516 Z" fill="#000000" fill-rule="nonzero" fill-opacity="1" /><path clip-path="url(#clip090)" d="M291.219 416.974 Q283.997 416.974 280.34 424.104 Q276.729 431.187 276.729 445.446 Q276.729 459.659 280.34 466.789 Q283.997 473.872 291.219 473.872 Q298.488 473.872 302.099 466.789 Q305.756 459.659 305.756 445.446 Q305.756 431.187 302.099 424.104 Q298.488 416.974 291.219 416.974 M291.219 409.567 Q302.839 409.567 308.951 418.78 Q315.108 427.946 315.108 445.446 Q315.108 462.9 308.951 472.113 Q302.839 481.279 291.219 481.279 Q279.599 481.279 273.442 472.113 Q267.33 462.9 267.33 445.446 Q267.33 427.946 273.442 418.78 Q279.599 409.567 291.219 409.567 Z" fill="#000000" fill-rule="nonzero" fill-opacity="1" /><path clip-path="url(#clip090)" d="M331.543 468.177 L341.312 468.177 L341.312 479.937 L331.543 479.937 L331.543 468.177 Z" fill="#000000" fill-rule="nonzero" fill-opacity="1" /><path clip-path="url(#clip090)" d="M381.682 416.974 Q374.459 416.974 370.802 424.104 Q367.191 431.187 367.191 445.446 Q367.191 459.659 370.802 466.789 Q374.459 473.872 381.682 473.872 Q388.95 473.872 392.561 466.789 Q396.219 459.659 396.219 445.446 Q396.219 431.187 392.561 424.104 Q388.95 416.974 381.682 416.974 M381.682 409.567 Q393.302 409.567 399.413 418.78 Q405.57 427.946 405.57 445.446 Q405.57 462.9 399.413 472.113 Q393.302 481.279 381.682 481.279 Q370.061 481.279 363.904 472.113 Q357.793 462.9 357.793 445.446 Q357.793 427.946 363.904 418.78 Q370.061 409.567 381.682 409.567 Z" fill="#000000" fill-rule="nonzero" fill-opacity="1" /><path clip-path="url(#clip090)" d="M293.673 263.525 Q286.451 263.525 282.793 270.654 Q279.182 277.738 279.182 291.997 Q279.182 306.21 282.793 313.339 Q286.451 320.423 293.673 320.423 Q300.941 320.423 304.552 313.339 Q308.21 306.21 308.21 291.997 Q308.21 277.738 304.552 270.654 Q300.941 263.525 293.673 263.525 M293.673 256.117 Q305.293 256.117 311.404 265.33 Q317.562 274.497 317.562 291.997 Q317.562 309.45 311.404 318.663 Q305.293 327.83 293.673 327.83 Q282.053 327.83 275.895 318.663 Q269.784 309.45 269.784 291.997 Q269.784 274.497 275.895 265.33 Q282.053 256.117 293.673 256.117 Z" fill="#000000" fill-rule="nonzero" fill-opacity="1" /><path clip-path="url(#clip090)" d="M333.997 314.728 L343.765 314.728 L343.765 326.487 L333.997 326.487 L333.997 314.728 Z" fill="#000000" fill-rule="nonzero" fill-opacity="1" /><path clip-path="url(#clip090)" d="M365.756 318.617 L381.034 318.617 L381.034 265.886 L364.413 269.219 L364.413 260.701 L380.941 257.367 L390.293 257.367 L390.293 318.617 L405.57 318.617 L405.57 326.487 L365.756 326.487 L365.756 318.617 Z" fill="#000000" fill-rule="nonzero" fill-opacity="1" /><path clip-path="url(#clip090)" d="M294.414 110.076 Q287.191 110.076 283.534 117.205 Q279.923 124.288 279.923 138.548 Q279.923 152.761 283.534 159.89 Q287.191 166.973 294.414 166.973 Q301.682 166.973 305.293 159.89 Q308.951 152.761 308.951 138.548 Q308.951 124.288 305.293 117.205 Q301.682 110.076 294.414 110.076 M294.414 102.668 Q306.034 102.668 312.145 111.881 Q318.302 121.048 318.302 138.548 Q318.302 156.001 312.145 165.214 Q306.034 174.381 294.414 174.381 Q282.793 174.381 276.636 165.214 Q270.525 156.001 270.525 138.548 Q270.525 121.048 276.636 111.881 Q282.793 102.668 294.414 102.668 Z" fill="#000000" fill-rule="nonzero" fill-opacity="1" /><path clip-path="url(#clip090)" d="M334.737 161.279 L344.506 161.279 L344.506 173.038 L334.737 173.038 L334.737 161.279 Z" fill="#000000" fill-rule="nonzero" fill-opacity="1" /><path clip-path="url(#clip090)" d="M372.932 165.168 L405.57 165.168 L405.57 173.038 L361.682 173.038 L361.682 165.168 Q367.006 159.659 376.172 150.399 Q385.385 141.094 387.746 138.409 Q392.237 133.363 393.996 129.89 Q395.802 126.372 395.802 122.992 Q395.802 117.483 391.913 114.011 Q388.071 110.539 381.867 110.539 Q377.469 110.539 372.561 112.066 Q367.7 113.594 362.145 116.696 L362.145 107.252 Q367.793 104.983 372.7 103.826 Q377.608 102.668 381.682 102.668 Q392.422 102.668 398.811 108.039 Q405.2 113.409 405.2 122.39 Q405.2 126.65 403.58 130.492 Q402.006 134.288 397.793 139.474 Q396.635 140.816 390.432 147.251 Q384.228 153.64 372.932 165.168 Z" fill="#000000" fill-rule="nonzero" fill-opacity="1" /><path clip-path="url(#clip090)" d="M28.1838 674.618 Q28.1838 686.076 36.7254 692.847 Q45.267 699.565 60.0065 699.565 Q74.6939 699.565 83.2355 692.847 Q91.7772 686.076 91.7772 674.618 Q91.7772 663.159 83.2355 656.493 Q74.6939 649.774 60.0065 649.774 Q45.267 649.774 36.7254 656.493 Q28.1838 663.159 28.1838 674.618 M19.6421 674.618 Q19.6421 658.263 30.6317 648.472 Q41.5691 638.68 60.0065 638.68 Q78.3918 638.68 89.3813 648.472 Q100.319 658.263 100.319 674.618 Q100.319 691.024 89.3813 700.867 Q78.4439 710.659 60.0065 710.659 Q41.5691 710.659 30.6317 700.867 Q19.6421 691.024 19.6421 674.618 Z" fill="#000000" fill-rule="nonzero" fill-opacity="1" /><path clip-path="url(#clip090)" d="M56.8815 589.41 Q58.4961 581.858 63.6002 577.639 Q68.7044 573.368 76.2043 573.368 Q87.7147 573.368 94.0167 581.285 Q100.319 589.201 100.319 603.785 Q100.319 608.68 99.3292 613.889 Q98.3917 619.045 96.4646 624.566 L86.3084 624.566 Q88.8605 620.191 90.1626 614.982 Q91.4647 609.774 91.4647 604.097 Q91.4647 594.201 87.5584 589.045 Q83.6522 583.837 76.2043 583.837 Q69.3294 583.837 65.4752 588.68 Q61.569 593.472 61.569 602.066 L61.569 611.128 L52.9232 611.128 L52.9232 601.649 Q52.9232 593.889 49.8503 589.774 Q46.7253 585.66 40.892 585.66 Q34.9025 585.66 31.7254 589.93 Q28.4963 594.149 28.4963 602.066 Q28.4963 606.389 29.4337 611.337 Q30.3712 616.284 32.3504 622.222 L22.9755 622.222 Q21.3088 616.232 20.4755 611.024 Q19.6421 605.764 19.6421 601.128 Q19.6421 589.149 25.1109 582.17 Q30.5275 575.191 39.7983 575.191 Q46.2566 575.191 50.7357 578.889 Q55.1628 582.587 56.8815 589.41 Z" fill="#000000" fill-rule="nonzero" fill-opacity="1" /><path clip-path="url(#clip090)" d="M17.8713 497.848 Q29.8504 504.827 41.5691 508.212 Q53.2878 511.598 65.319 511.598 Q77.3502 511.598 89.173 508.212 Q100.944 504.775 112.871 497.848 L112.871 506.181 Q100.631 513.993 88.8084 517.9 Q76.9856 521.754 65.319 521.754 Q53.7045 521.754 41.9337 517.9 Q30.1629 514.045 17.8713 506.181 L17.8713 497.848 Z" fill="#000000" fill-rule="nonzero" fill-opacity="1" /><path clip-path="url(#clip090)" d="M90.0584 469.983 L120.996 469.983 L120.996 479.619 L40.4754 479.619 L40.4754 469.983 L49.3295 469.983 Q44.1212 466.962 41.6212 462.379 Q39.0691 457.744 39.0691 451.337 Q39.0691 440.713 47.5066 434.098 Q55.944 427.431 69.694 427.431 Q83.4439 427.431 91.8813 434.098 Q100.319 440.713 100.319 451.337 Q100.319 457.744 97.8188 462.379 Q95.2667 466.962 90.0584 469.983 M69.694 437.379 Q59.1211 437.379 53.1315 441.754 Q47.0899 446.077 47.0899 453.681 Q47.0899 461.285 53.1315 465.66 Q59.1211 469.983 69.694 469.983 Q80.2668 469.983 86.3084 465.66 Q92.298 461.285 92.298 453.681 Q92.298 446.077 86.3084 441.754 Q80.2668 437.379 69.694 437.379 Z" fill="#000000" fill-rule="nonzero" fill-opacity="1" /><path clip-path="url(#clip090)" d="M90.0584 402.275 L120.996 402.275 L120.996 411.911 L40.4754 411.911 L40.4754 402.275 L49.3295 402.275 Q44.1212 399.254 41.6212 394.671 Q39.0691 390.036 39.0691 383.629 Q39.0691 373.005 47.5066 366.39 Q55.944 359.723 69.694 359.723 Q83.4439 359.723 91.8813 366.39 Q100.319 373.005 100.319 383.629 Q100.319 390.036 97.8188 394.671 Q95.2667 399.254 90.0584 402.275 M69.694 369.671 Q59.1211 369.671 53.1315 374.046 Q47.0899 378.369 47.0899 385.973 Q47.0899 393.577 53.1315 397.952 Q59.1211 402.275 69.694 402.275 Q80.2668 402.275 86.3084 397.952 Q92.298 393.577 92.298 385.973 Q92.298 378.369 86.3084 374.046 Q80.2668 369.671 69.694 369.671 Z" fill="#000000" fill-rule="nonzero" fill-opacity="1" /><path clip-path="url(#clip090)" d="M51.6732 298.422 Q45.2149 294.828 42.142 289.828 Q39.0691 284.828 39.0691 278.057 Q39.0691 268.943 45.4753 263.995 Q51.8295 259.047 63.6002 259.047 L98.8084 259.047 L98.8084 268.682 L63.9127 268.682 Q55.5274 268.682 51.4649 271.651 Q47.4024 274.62 47.4024 280.713 Q47.4024 288.161 52.3503 292.484 Q57.2982 296.807 65.8398 296.807 L98.8084 296.807 L98.8084 306.442 L63.9127 306.442 Q55.4753 306.442 51.4649 309.411 Q47.4024 312.38 47.4024 318.578 Q47.4024 325.921 52.4024 330.244 Q57.3503 334.567 65.8398 334.567 L98.8084 334.567 L98.8084 344.203 L40.4754 344.203 L40.4754 334.567 L49.5378 334.567 Q44.1733 331.286 41.6212 326.703 Q39.0691 322.119 39.0691 315.817 Q39.0691 309.463 42.2983 305.036 Q45.5274 300.557 51.6732 298.422 Z" fill="#000000" fill-rule="nonzero" fill-opacity="1" /><path clip-path="url(#clip090)" d="M17.8713 241.443 L17.8713 233.109 Q30.1629 225.297 41.9337 221.443 Q53.7045 217.537 65.319 217.537 Q76.9856 217.537 88.8084 221.443 Q100.631 225.297 112.871 233.109 L112.871 241.443 Q100.944 234.516 89.173 231.13 Q77.3502 227.693 65.319 227.693 Q53.2878 227.693 41.5691 231.13 Q29.8504 234.516 17.8713 241.443 Z" fill="#000000" fill-rule="nonzero" fill-opacity="1" /><path clip-path="url(#clip092)" d="M598.566 445.66 L617.325 555.622 L636.084 553.522 L654.843 560.007 L673.602 554.015 L692.361 581.316 L711.12 598.485 L729.88 555.913 L748.639 557.173 L767.398 741.763 L786.157 612.36 L804.916 657.719 L823.675 688.299 L842.434 572.319 L861.193 596.561 L879.952 747.967 L898.711 746.571 L917.47 775.695 L936.229 726.639 L954.988 695.597 L973.747 806.605 L992.506 679.451 L1011.27 690.96 L1030.02 622.753 L1048.78 763.97 L1067.54 617.299 L1086.3 845.555 L1105.06 718.801 L1123.82 677.201 L1142.58 716.616 L1161.34 628.532 L1180.1 658.615 L1198.86 852.927 L1217.61 727.811 L1236.37 607.884 L1255.13 811.789 L1273.89 664.956 L1292.65 672.308 L1311.41 609.483 L1330.17 753.646 L1348.93 754.588 L1367.69 747.729 L1386.45 686.599 L1405.21 631.072 L1423.96 774.02 L1442.72 689.682 L1461.48 667.136 L1480.24 630.11 L1499 742.179 L1517.76 629.36 L1536.52 690.666 L1555.28 783.244 L1574.04 626.931 L1592.8 713.209 L1611.55 610.824 L1630.31 637.905 L1649.07 855.857 L1667.83 734.985 L1686.59 607.384 L1705.35 812.073 L1724.11 608.911 L1742.87 649.822 L1761.63 610.316 L1780.39 755.316 L1799.14 753.786 L1817.9 748.799 L1836.66 686.494 L1855.42 683.453 L1874.18 778.118 L1892.94 687.698 L1911.7 673.331 L1930.46 628.414 L1949.22 749.643 L1967.98 624.345 L1986.74 687.849 L2005.49 784.323 L2024.25 616.567 L2043.01 717.664 L2061.77 617.232 L2080.53 640.538 L2099.29 855.027 L2118.05 734.506 L2136.81 611.385 L2155.57 812.108 L2174.33 608.637 L2193.08 655.061 L2211.84 608.183 L2230.6 751.602 L2249.36 754.215 L2268.12 749.938 L2286.88 685.925 L2305.64 661.785 L2324.4 772.825 L2343.16 690.189 L2361.92 666.467 L2380.68 630.139 L2399.43 748.455 L2418.19 624.854 L2436.95 685.654 L2455.71 785.187 L2474.47 620.297 L2493.23 716.321 L2511.99 613.959 L2530.75 640.596 L2549.51 856.686 L2568.27 734.661 L2587.02 607.742 L2605.78 812.29 L2624.54 608.458 L2643.3 654.063 L2662.06 609.12 L2680.82 755.063 L2699.58 754.425 L2718.34 740.5 L2737.1 689.799 L2755.86 671.995 L2774.62 772.511 L2793.37 690.366 L2812.13 671.121 L2830.89 629.134 L2849.65 748.854 L2868.41 624.48 L2887.17 689.056 L2905.93 783.844 L2924.69 621.68 L2943.45 717.423 L2962.21 617.073 L2980.96 639.763 L2999.72 855.405 L3018.48 734.558 L3037.24 609.073 L3056 812.15 L3074.76 608.489 L3093.52 654.054 L3112.28 608.177 L3131.04 751.659 L3149.8 753.832 L3168.55 740.91 L3187.31 689.696 L3206.07 668.266 L3224.83 772.041 L3243.59 690.509 L3262.35 672.905 L3281.11 628.54 L3299.87 748.753 L3318.63 624.568 L3337.39 687.558 L3356.15 784.424 L3374.9 618.025 L3393.66 716.881 L3412.42 614.24 L3431.18 640.19 L3449.94 857.002 L3468.7 734.911 L3487.46 609.63 L3506.22 812.259 L3524.98 608.517 L3543.74 654.261 L3562.49 608.751 L3581.25 755.085 L3600.01 754.11 L3618.77 736.767 L3637.53 691.441 L3656.29 669.87 L3675.05 773.443 L3693.81 689.911 L3712.57 674.176 L3731.33 628.115 L3750.09 748.785 L3768.84 624.558 L3787.6 688.826 L3806.36 783.917 L3825.12 617.774 L3843.88 717.486 L3862.64 616.991 L3881.4 640.106 L3900.16 857.356 L3918.92 734.885 L3937.68 608.725 L3956.43 812.236 L3975.19 608.436 L3993.95 654.021 L4012.71 613.922 L4031.47 751.737 L4050.23 754.749 L4068.99 740.58 L4087.75 689.914 L4106.51 669.721 L4125.27 769.802 L4144.03 691.655 L4162.78 671.159 L4181.54 628.972 L4200.3 748.775 L4219.06 624.555 L4237.82 689.648 L4256.58 783.583 L4275.34 619.613 L4294.1 717.54 L4312.86 614.207 L4331.62 640.096 L4350.37 855.354 L4369.13 734.861 L4387.89 608.89 L4406.65 812.203 L4425.41 608.44 L4444.17 654.248 L4462.93 608.975 L4481.69 755.276 L4500.45 753.819 L4519.21 743.23 L4537.96 688.71 L4556.72 669.118 L4575.48 771.295 L4594.24 690.867 L4613 671.292 L4631.76 628.933 L4631.76 183.874 L4613 107.927 L4594.24 211.319 L4575.48 164.265 L4556.72 108.835 L4537.96 189.209 L4519.21 153.306 L4500.45 163.105 L4481.69 142.572 L4462.93 79.0074 L4444.17 134.331 L4425.41 176.347 L4406.65 165.695 L4387.89 160.671 L4369.13 85.5579 L4350.37 222.438 L4331.62 154.084 L4312.86 112.041 L4294.1 194.418 L4275.34 149.711 L4256.58 161.95 L4237.82 154.695 L4219.06 100.799 L4200.3 112.169 L4181.54 183.808 L4162.78 107.71 L4144.03 211.534 L4125.27 164.86 L4106.51 107.862 L4087.75 191.123 L4068.99 153.209 L4050.23 163.956 L4031.47 145.627 L4012.71 81.4258 L3993.95 134.364 L3975.19 176.429 L3956.43 166.091 L3937.68 160.561 L3918.92 85.6409 L3900.16 223.247 L3881.4 152.991 L3862.64 115.316 L3843.88 193.381 L3825.12 149.397 L3806.36 161.896 L3787.6 154.611 L3768.84 99.9714 L3750.09 112.18 L3731.33 183.811 L3712.57 107.96 L3693.81 211.356 L3675.05 164.595 L3656.29 111.129 L3637.53 187.876 L3618.77 153.114 L3600.01 163.402 L3581.25 149.453 L3562.49 79.8531 L3543.74 134.328 L3524.98 176.352 L3506.22 165.978 L3487.46 160.695 L3468.7 85.7724 L3449.94 222.852 L3431.18 154.25 L3412.42 114.556 L3393.66 194.543 L3374.9 149.548 L3356.15 159.382 L3337.39 154.576 L3318.63 99.2618 L3299.87 112.211 L3281.11 183.792 L3262.35 107.716 L3243.59 211.537 L3224.83 164.4 L3206.07 108.844 L3187.31 188.72 L3168.55 153.33 L3149.8 163.934 L3131.04 145.064 L3112.28 79.0429 L3093.52 134.36 L3074.76 176.412 L3056 166.983 L3037.24 160.42 L3018.48 85.619 L2999.72 223.187 L2980.96 154.113 L2962.21 111.337 L2943.45 194.575 L2924.69 149.349 L2905.93 161.688 L2887.17 154.662 L2868.41 100.518 L2849.65 112.298 L2830.89 183.895 L2812.13 107.957 L2793.37 211.317 L2774.62 164.463 L2755.86 110.834 L2737.1 188.965 L2718.34 152.74 L2699.58 163.064 L2680.82 145.069 L2662.06 80.6551 L2643.3 134.313 L2624.54 176.445 L2605.78 165.999 L2587.02 160.778 L2568.27 85.7779 L2549.51 222.204 L2530.75 151.987 L2511.99 113.822 L2493.23 193.607 L2474.47 149.575 L2455.71 158.886 L2436.95 154.668 L2418.19 98.3187 L2399.43 112.578 L2380.68 183.488 L2361.92 107.776 L2343.16 211.389 L2324.4 165.219 L2305.64 109.179 L2286.88 188.804 L2268.12 154.135 L2249.36 162.953 L2230.6 136.628 L2211.84 79.8 L2193.08 134.473 L2174.33 175.462 L2155.57 166.627 L2136.81 154.174 L2118.05 85.7817 L2099.29 225.773 L2080.53 159.864 L2061.77 111.227 L2043.01 194.318 L2024.25 148.985 L2005.49 160.388 L1986.74 154.588 L1967.98 99.4461 L1949.22 113.263 L1930.46 184.833 L1911.7 106.104 L1892.94 213.581 L1874.18 164.461 L1855.42 108.299 L1836.66 184.498 L1817.9 153.491 L1799.14 164.729 L1780.39 138.018 L1761.63 79.0445 L1742.87 133.772 L1724.11 180.417 L1705.35 169.715 L1686.59 172.169 L1667.83 86.6411 L1649.07 225.17 L1630.31 139.532 L1611.55 112.627 L1592.8 193.028 L1574.04 149.832 L1555.28 157.299 L1536.52 154.595 L1517.76 100.316 L1499 112.943 L1480.24 179.539 L1461.48 108.57 L1442.72 210.377 L1423.96 165.812 L1405.21 109.396 L1386.45 187.613 L1367.69 161.579 L1348.93 163.145 L1330.17 138.315 L1311.41 80.6071 L1292.65 137.231 L1273.89 159.897 L1255.13 174.509 L1236.37 92.0535 L1217.61 71.2834 L1198.86 233.357 L1180.1 182.339 L1161.34 107.031 L1142.58 199.01 L1123.82 148.225 L1105.06 233.203 L1086.3 153.864 L1067.54 203.738 L1048.78 104.401 L1030.02 193.81 L1011.27 105.687 L992.506 212.5 L973.747 166.694 L954.988 126.679 L936.229 159.608 L917.47 235.274 L898.711 155.555 L879.952 108.929 L861.193 70.8396 L842.434 132.704 L823.675 239.309 L804.916 180.209 L786.157 239.593 L767.398 216.632 L748.639 236.381 L729.88 107.305 L711.12 313.199 L692.361 293.088 L673.602 350.63 L654.843 270.501 L636.084 320.502 L617.325 416.419 L598.566 445.071  Z" fill="#c8c8c8" fill-rule="evenodd" fill-opacity="0.5"/>
<polyline clip-path="url(#clip092)" style="stroke:#c8c8c8; stroke-linecap:round; stroke-linejoin:round; stroke-width:0; stroke-opacity:1; fill:none" points="598.566,445.375 617.325,468.765 636.084,465.286 654.843,461.567 673.602,459.341 692.361,456.858 711.12,453.94 729.88,451.01 748.639,450.777 767.398,450.486 786.157,448.874 804.916,446.47 823.675,446.062 842.434,446.13 861.193,448.091 879.952,450.532 898.711,452.054 917.47,452.376 936.229,450.705 954.988,448.571 973.747,448.017 992.506,448.533 1011.27,449.062 1030.02,451.437 1048.78,452.001 1067.54,452.195 1086.3,452.673 1105.06,452.274 1123.82,451.568 1142.58,451.258 1161.34,449.873 1180.1,451.091 1198.86,452.651 1217.61,449.796 1236.37,447.98 1255.13,447.301 1273.89,448.261 1292.65,448.396 1311.41,448.857 1330.17,450.853 1348.93,451.905 1367.69,451.522 1386.45,449.917 1405.21,448.538 1423.96,448.165 1442.72,448.496 1461.48,448.907 1480.24,451.171 1499,451.932 1517.76,451.667 1536.52,452.528 1555.28,452.483 1574.04,451.659 1592.8,451.105 1611.55,449.654 1630.31,450.331 1649.07,452.215 1667.83,450.182 1686.59,449.193 1705.35,447.417 1724.11,447.836 1742.87,448.165 1761.63,448.968 1780.39,450.838 1799.14,451.802 1817.9,451.6 1836.66,450.168 1855.42,448.584 1874.18,448.066 1892.94,448.526 1911.7,448.958 1930.46,451.15 1949.22,451.858 1967.98,451.621 1986.74,452.429 2005.49,452.488 2024.25,451.637 2043.01,451.19 2061.77,449.78 2080.53,450.589 2099.29,452.321 2118.05,449.981 2136.81,448.662 2155.57,447.286 2174.33,448.017 2193.08,448.339 2211.84,448.9 2230.6,450.857 2249.36,451.919 2268.12,451.619 2286.88,450.107 2305.64,448.582 2324.4,448.103 2343.16,448.462 2361.92,448.912 2380.68,451.193 2399.43,451.922 2418.19,451.65 2436.95,452.449 2455.71,452.469 2474.47,451.627 2493.23,451.104 2511.99,449.668 2530.75,450.458 2549.51,452.287 2568.27,450.114 2587.02,448.991 2605.78,447.377 2624.54,447.938 2643.3,448.263 2662.06,448.973 2680.82,450.899 2699.58,451.829 2718.34,451.568 2737.1,450.129 2755.86,448.575 2774.62,448.083 2793.37,448.52 2812.13,448.976 2830.89,451.193 2849.65,451.876 2868.41,451.62 2887.17,452.433 2905.93,452.498 2924.69,451.643 2943.45,451.14 2962.21,449.699 2980.96,450.524 2999.72,452.305 3018.48,450.047 3037.24,448.809 3056,447.311 3074.76,447.974 3093.52,448.323 3112.28,448.959 3131.04,450.873 3149.8,451.852 3168.55,451.585 3187.31,450.123 3206.07,448.596 3224.83,448.1 3243.59,448.514 3262.35,448.961 3281.11,451.189 3299.87,451.879 3318.63,451.632 3337.39,452.448 3356.15,452.457 3374.9,451.616 3393.66,451.102 3412.42,449.682 3431.18,450.475 3449.94,452.306 3468.7,450.113 3487.46,448.937 3506.22,447.389 3524.98,447.974 3543.74,448.286 3562.49,448.956 3581.25,450.881 3600.01,451.811 3618.77,451.56 3637.53,450.119 3656.29,448.581 3675.05,448.105 3693.81,448.544 3712.57,448.985 3731.33,451.183 3750.09,451.882 3768.84,451.637 3787.6,452.437 3806.36,452.462 3825.12,451.645 3843.88,451.141 3862.64,449.717 3881.4,450.484 3900.16,452.316 3918.92,450.078 3937.68,448.854 3956.43,447.297 3975.19,447.967 3993.95,448.316 4012.71,448.968 4031.47,450.879 4050.23,451.855 4068.99,451.592 4087.75,450.135 4106.51,448.577 4125.27,448.09 4144.03,448.51 4162.78,448.95 4181.54,451.186 4200.3,451.881 4219.06,451.632 4237.82,452.452 4256.58,452.489 4275.34,451.654 4294.1,451.139 4312.86,449.716 4331.62,450.479 4350.37,452.256 4369.13,450.057 4387.89,448.933 4406.65,447.371 4425.41,447.955 4444.17,448.286 4462.93,448.967 4481.69,450.882 4500.45,451.844 4519.21,451.574 4537.96,450.118 4556.72,448.569 4575.48,448.077 4594.24,448.509 4613,448.952 4631.76,451.203 "/>
<path clip-path="url(#clip092)" d="M598.566 445.588 L617.325 527.442 L636.084 524.132 L654.843 514.776 L673.602 510.397 L692.361 505.217 L711.12 503.598 L729.88 498.912 L748.639 504.312 L767.398 500.244 L786.157 497.156 L804.916 493.784 L823.675 491.857 L842.434 496.135 L861.193 499.782 L879.952 512.881 L898.711 526.625 L917.47 528.869 L936.229 515.88 L954.988 505.537 L973.747 501.758 L992.506 506.425 L1011.27 510.744 L1030.02 515.217 L1048.78 517.068 L1067.54 511.495 L1086.3 516.802 L1105.06 507.046 L1123.82 513.626 L1142.58 504.257 L1161.34 505.409 L1180.1 510.842 L1198.86 514.444 L1217.61 508.285 L1236.37 502.901 L1255.13 498.837 L1273.89 498.133 L1292.65 515.894 L1311.41 523.307 L1330.17 514.499 L1348.93 523.629 L1367.69 526.08 L1386.45 520.606 L1405.21 510.279 L1423.96 504.214 L1442.72 509.228 L1461.48 510.113 L1480.24 519.105 L1499 517.752 L1517.76 514.614 L1536.52 519.537 L1555.28 509.371 L1574.04 521.707 L1592.8 503.485 L1611.55 505.173 L1630.31 510.637 L1649.07 513.751 L1667.83 514.478 L1686.59 505.112 L1705.35 502.509 L1724.11 498.878 L1742.87 508.866 L1761.63 523.168 L1780.39 519.184 L1799.14 519.863 L1817.9 527.675 L1836.66 518.909 L1855.42 510.492 L1874.18 504.106 L1892.94 509.556 L1911.7 511.298 L1930.46 519.332 L1949.22 517.834 L1967.98 513.258 L1986.74 519.355 L2005.49 509.386 L2024.25 520.99 L2043.01 504.111 L2061.77 505.565 L2080.53 511.322 L2099.29 513.708 L2118.05 509.959 L2136.81 504.298 L2155.57 500.992 L2174.33 499.051 L2193.08 517.367 L2211.84 523.138 L2230.6 519.23 L2249.36 523.398 L2268.12 527.585 L2286.88 521.132 L2305.64 510.402 L2324.4 504.164 L2343.16 509.515 L2361.92 511.439 L2380.68 519.248 L2399.43 518.174 L2418.19 515.268 L2436.95 519.438 L2455.71 509.385 L2474.47 520.765 L2493.23 503.9 L2511.99 505.187 L2530.75 511.104 L2549.51 513.343 L2568.27 509.939 L2587.02 505.192 L2605.78 502.188 L2624.54 499.055 L2643.3 511.993 L2662.06 523.178 L2680.82 519.47 L2699.58 522.417 L2718.34 527.186 L2737.1 520.828 L2755.86 510.636 L2774.62 504.137 L2793.37 509.475 L2812.13 511.559 L2830.89 519.056 L2849.65 517.581 L2868.41 514.787 L2887.17 519.577 L2905.93 509.316 L2924.69 520.647 L2943.45 503.944 L2962.21 505.389 L2980.96 511.154 L2999.72 513.591 L3018.48 509.917 L3037.24 504.85 L3056 500.942 L3074.76 499.022 L3093.52 516.757 L3112.28 523.163 L3131.04 519.321 L3149.8 522.656 L3168.55 527.592 L3187.31 519.927 L3206.07 510.397 L3224.83 504.144 L3243.59 509.443 L3262.35 511.405 L3281.11 519.172 L3299.87 518.043 L3318.63 515.175 L3337.39 519.412 L3356.15 509.226 L3374.9 520.651 L3393.66 503.892 L3412.42 505.202 L3431.18 511.225 L3449.94 513.36 L3468.7 509.921 L3487.46 505.188 L3506.22 502.374 L3524.98 498.877 L3543.74 513.218 L3562.49 523.156 L3581.25 519.231 L3600.01 522.621 L3618.77 527.333 L3637.53 520.514 L3656.29 510.412 L3675.05 504.148 L3693.81 509.341 L3712.57 511.417 L3731.33 519.128 L3750.09 517.688 L3768.84 515.249 L3787.6 519.649 L3806.36 509.316 L3825.12 521.154 L3843.88 503.969 L3862.64 505.269 L3881.4 511.223 L3900.16 513.742 L3918.92 509.796 L3937.68 505.18 L3956.43 502.077 L3975.19 499.061 L3993.95 515.962 L4012.71 523.181 L4031.47 519.529 L4050.23 522.523 L4068.99 527.711 L4087.75 519.883 L4106.51 510.572 L4125.27 504.139 L4144.03 509.437 L4162.78 511.401 L4181.54 519.258 L4200.3 517.696 L4219.06 515.246 L4237.82 519.478 L4256.58 509.408 L4275.34 521.303 L4294.1 503.957 L4312.86 505.238 L4331.62 511.087 L4350.37 513.615 L4369.13 509.892 L4387.89 505.411 L4406.65 502.453 L4425.41 498.873 L4444.17 514.065 L4462.93 523.176 L4481.69 519.466 L4500.45 522.627 L4519.21 527.574 L4537.96 520.912 L4556.72 510.358 L4575.48 504.153 L4594.24 509.234 L4613 511.231 L4631.76 519.36 L4631.76 351.809 L4613 340.623 L4594.24 353.917 L4575.48 349.145 L4556.72 332.187 L4537.96 361.202 L4519.21 344.176 L4500.45 353.14 L4481.69 351.399 L4462.93 364.077 L4444.17 347.721 L4425.41 366.22 L4406.65 354.353 L4387.89 345.563 L4369.13 356.383 L4350.37 367.659 L4331.62 370.356 L4312.86 356.045 L4294.1 374.626 L4275.34 366.949 L4256.58 365.656 L4237.82 354.881 L4219.06 349.062 L4200.3 347.773 L4181.54 351.849 L4162.78 340.265 L4144.03 353.617 L4125.27 349.206 L4106.51 332.286 L4087.75 361.18 L4068.99 344.397 L4050.23 352.325 L4031.47 351.236 L4012.71 364.036 L3993.95 348.121 L3975.19 366.441 L3956.43 354.651 L3937.68 345.542 L3918.92 356.44 L3900.16 367.671 L3881.4 370.388 L3862.64 355.906 L3843.88 374.468 L3825.12 367.024 L3806.36 365.766 L3787.6 354.91 L3768.84 348.651 L3750.09 347.784 L3731.33 351.664 L3712.57 340.439 L3693.81 353.686 L3675.05 349.264 L3656.29 332.364 L3637.53 360.968 L3618.77 343.714 L3600.01 353.063 L3581.25 351.409 L3562.49 364.129 L3543.74 348.118 L3524.98 366 L3506.22 355.203 L3487.46 345.721 L3468.7 356.525 L3449.94 367.834 L3431.18 370.303 L3412.42 355.924 L3393.66 373.812 L3374.9 367.17 L3356.15 362.235 L3337.39 355.186 L3318.63 348.82 L3299.87 347.659 L3281.11 351.665 L3262.35 340.525 L3243.59 354.417 L3224.83 349.305 L3206.07 332.217 L3187.31 361.082 L3168.55 344.187 L3149.8 352.652 L3131.04 351.207 L3112.28 363.991 L3093.52 348.162 L3074.76 366.436 L3056 354.772 L3037.24 345.592 L3018.48 356.419 L2999.72 367.726 L2980.96 370.293 L2962.21 355.89 L2943.45 374.752 L2924.69 367.09 L2905.93 365.561 L2887.17 354.795 L2868.41 348.926 L2849.65 347.855 L2830.89 351.781 L2812.13 340.517 L2793.37 353.753 L2774.62 349.235 L2755.86 332.434 L2737.1 361.22 L2718.34 343.771 L2699.58 352.685 L2680.82 351.43 L2662.06 364.388 L2643.3 347.742 L2624.54 365.595 L2605.78 354.906 L2587.02 345.625 L2568.27 356.312 L2549.51 366.163 L2530.75 370.33 L2511.99 355.873 L2493.23 374.587 L2474.47 366.942 L2455.71 361.719 L2436.95 355.174 L2418.19 348.818 L2399.43 347.755 L2380.68 351.684 L2361.92 340.326 L2343.16 353.524 L2324.4 349.291 L2305.64 332.517 L2286.88 361.115 L2268.12 344.149 L2249.36 353 L2230.6 351.204 L2211.84 364.299 L2193.08 347.623 L2174.33 366.52 L2155.57 355.088 L2136.81 345.13 L2118.05 356.467 L2099.29 367.587 L2080.53 370.625 L2061.77 356.007 L2043.01 374.544 L2024.25 367.104 L2005.49 365.74 L1986.74 354.735 L1967.98 348.936 L1949.22 347.638 L1930.46 351.697 L1911.7 340.414 L1892.94 354.648 L1874.18 349.013 L1855.42 332.419 L1836.66 361.098 L1817.9 344.32 L1799.14 352.84 L1780.39 351.371 L1761.63 363.873 L1742.87 348.277 L1724.11 365.482 L1705.35 354.892 L1686.59 345.936 L1667.83 356.596 L1649.07 363.538 L1630.31 369.39 L1611.55 355.949 L1592.8 375.274 L1574.04 368.995 L1555.28 361.155 L1536.52 355.144 L1517.76 349.154 L1499 347.924 L1480.24 351.917 L1461.48 340.486 L1442.72 352.321 L1423.96 349.264 L1405.21 333.872 L1386.45 361.317 L1367.69 343.169 L1348.93 352.857 L1330.17 351.414 L1311.41 364.425 L1292.65 349.961 L1273.89 365.503 L1255.13 354.146 L1236.37 341.311 L1217.61 353.601 L1198.86 368.354 L1180.1 371.776 L1161.34 353.706 L1142.58 372.833 L1123.82 369.953 L1105.06 367.063 L1086.3 355.055 L1067.54 352.395 L1048.78 350.587 L1030.02 355.858 L1011.27 342.842 L992.506 354.575 L973.747 349.488 L954.988 338.027 L936.229 359.859 L917.47 343.47 L898.711 354.625 L879.952 352.806 L861.193 368.896 L842.434 353.206 L823.675 351.128 L804.916 364.752 L786.157 367.466 L767.398 377.87 L748.639 385.8 L729.88 381.225 L711.12 394.034 L692.361 410.695 L673.602 421.758 L654.843 422.888 L636.084 433.987 L617.325 456.16 L598.566 445.216  Z" fill="#525252" fill-rule="evenodd" fill-opacity="0.5"/>
<polyline clip-path="url(#clip092)" style="stroke:#525252; stroke-linecap:round; stroke-linejoin:round; stroke-width:0; stroke-opacity:1; fill:none" points="598.566,445.375 617.325,468.765 636.084,465.286 654.843,461.567 673.602,459.341 692.361,456.858 711.12,453.94 729.88,451.01 748.639,450.777 767.398,450.486 786.157,448.874 804.916,446.47 823.675,446.062 842.434,446.13 861.193,448.091 879.952,450.532 898.711,452.054 917.47,452.376 936.229,450.705 954.988,448.571 973.747,448.017 992.506,448.533 1011.27,449.062 1030.02,451.437 1048.78,452.001 1067.54,452.195 1086.3,452.673 1105.06,452.274 1123.82,451.568 1142.58,451.258 1161.34,449.873 1180.1,451.091 1198.86,452.651 1217.61,449.796 1236.37,447.98 1255.13,447.301 1273.89,448.261 1292.65,448.396 1311.41,448.857 1330.17,450.853 1348.93,451.905 1367.69,451.522 1386.45,449.917 1405.21,448.538 1423.96,448.165 1442.72,448.496 1461.48,448.907 1480.24,451.171 1499,451.932 1517.76,451.667 1536.52,452.528 1555.28,452.483 1574.04,451.659 1592.8,451.105 1611.55,449.654 1630.31,450.331 1649.07,452.215 1667.83,450.182 1686.59,449.193 1705.35,447.417 1724.11,447.836 1742.87,448.165 1761.63,448.968 1780.39,450.838 1799.14,451.802 1817.9,451.6 1836.66,450.168 1855.42,448.584 1874.18,448.066 1892.94,448.526 1911.7,448.958 1930.46,451.15 1949.22,451.858 1967.98,451.621 1986.74,452.429 2005.49,452.488 2024.25,451.637 2043.01,451.19 2061.77,449.78 2080.53,450.589 2099.29,452.321 2118.05,449.981 2136.81,448.662 2155.57,447.286 2174.33,448.017 2193.08,448.339 2211.84,448.9 2230.6,450.857 2249.36,451.919 2268.12,451.619 2286.88,450.107 2305.64,448.582 2324.4,448.103 2343.16,448.462 2361.92,448.912 2380.68,451.193 2399.43,451.922 2418.19,451.65 2436.95,452.449 2455.71,452.469 2474.47,451.627 2493.23,451.104 2511.99,449.668 2530.75,450.458 2549.51,452.287 2568.27,450.114 2587.02,448.991 2605.78,447.377 2624.54,447.938 2643.3,448.263 2662.06,448.973 2680.82,450.899 2699.58,451.829 2718.34,451.568 2737.1,450.129 2755.86,448.575 2774.62,448.083 2793.37,448.52 2812.13,448.976 2830.89,451.193 2849.65,451.876 2868.41,451.62 2887.17,452.433 2905.93,452.498 2924.69,451.643 2943.45,451.14 2962.21,449.699 2980.96,450.524 2999.72,452.305 3018.48,450.047 3037.24,448.809 3056,447.311 3074.76,447.974 3093.52,448.323 3112.28,448.959 3131.04,450.873 3149.8,451.852 3168.55,451.585 3187.31,450.123 3206.07,448.596 3224.83,448.1 3243.59,448.514 3262.35,448.961 3281.11,451.189 3299.87,451.879 3318.63,451.632 3337.39,452.448 3356.15,452.457 3374.9,451.616 3393.66,451.102 3412.42,449.682 3431.18,450.475 3449.94,452.306 3468.7,450.113 3487.46,448.937 3506.22,447.389 3524.98,447.974 3543.74,448.286 3562.49,448.956 3581.25,450.881 3600.01,451.811 3618.77,451.56 3637.53,450.119 3656.29,448.581 3675.05,448.105 3693.81,448.544 3712.57,448.985 3731.33,451.183 3750.09,451.882 3768.84,451.637 3787.6,452.437 3806.36,452.462 3825.12,451.645 3843.88,451.141 3862.64,449.717 3881.4,450.484 3900.16,452.316 3918.92,450.078 3937.68,448.854 3956.43,447.297 3975.19,447.967 3993.95,448.316 4012.71,448.968 4031.47,450.879 4050.23,451.855 4068.99,451.592 4087.75,450.135 4106.51,448.577 4125.27,448.09 4144.03,448.51 4162.78,448.95 4181.54,451.186 4200.3,451.881 4219.06,451.632 4237.82,452.452 4256.58,452.489 4275.34,451.654 4294.1,451.139 4312.86,449.716 4331.62,450.479 4350.37,452.256 4369.13,450.057 4387.89,448.933 4406.65,447.371 4425.41,447.955 4444.17,448.286 4462.93,448.967 4481.69,450.882 4500.45,451.844 4519.21,451.574 4537.96,450.118 4556.72,448.569 4575.48,448.077 4594.24,448.509 4613,448.952 4631.76,451.203 "/>
<path clip-path="url(#clip092)" d="M598.566 445.527 L617.325 516.629 L636.084 515.058 L654.843 506.522 L673.602 502.787 L692.361 497.844 L711.12 495.348 L729.88 491.682 L748.639 492.019 L767.398 489.067 L786.157 488.874 L804.916 484.31 L823.675 482.006 L842.434 481.477 L861.193 485.866 L879.952 495.673 L898.711 499.449 L917.47 500.676 L936.229 496.712 L954.988 488.818 L973.747 485.287 L992.506 488.762 L1011.27 493.539 L1030.02 497.863 L1048.78 501.026 L1067.54 496.214 L1086.3 497.109 L1105.06 493.874 L1123.82 496.041 L1142.58 492.884 L1161.34 491.067 L1180.1 494.415 L1198.86 496.248 L1217.61 492.112 L1236.37 490.22 L1255.13 486.238 L1273.89 488.563 L1292.65 487.45 L1311.41 488.53 L1330.17 497.392 L1348.93 498.053 L1367.69 499.875 L1386.45 494.454 L1405.21 489.593 L1423.96 485.996 L1442.72 488.951 L1461.48 494.842 L1480.24 498.28 L1499 500.589 L1517.76 496.273 L1536.52 498.665 L1555.28 494.582 L1574.04 496.61 L1592.8 493.224 L1611.55 490.955 L1630.31 493.693 L1649.07 494.539 L1667.83 493.361 L1686.59 491.809 L1705.35 486.499 L1724.11 488.118 L1742.87 487.422 L1761.63 488.959 L1780.39 497.019 L1799.14 499.804 L1817.9 498.867 L1836.66 494.684 L1855.42 489.222 L1874.18 485.538 L1892.94 489.155 L1911.7 494.528 L1930.46 498.251 L1949.22 500.656 L1967.98 496.576 L1986.74 498.326 L2005.49 494.098 L2024.25 496.732 L2043.01 492.451 L2061.77 491.132 L2080.53 494.264 L2099.29 494.611 L2118.05 492.311 L2136.81 491.296 L2155.57 486.411 L2174.33 487.962 L2193.08 487.342 L2211.84 489.254 L2230.6 497.589 L2249.36 499.606 L2268.12 499.174 L2286.88 494.706 L2305.64 489.224 L2324.4 485.761 L2343.16 488.946 L2361.92 495.174 L2380.68 498.27 L2399.43 500.552 L2418.19 496.461 L2436.95 498.508 L2455.71 494.201 L2474.47 496.639 L2493.23 492.399 L2511.99 491.338 L2530.75 494.049 L2549.51 494.759 L2568.27 493.045 L2587.02 491.661 L2605.78 486.517 L2624.54 487.949 L2643.3 487.262 L2662.06 489.009 L2680.82 497.19 L2699.58 499.843 L2718.34 499.186 L2737.1 494.805 L2755.86 489.325 L2774.62 485.677 L2793.37 488.994 L2812.13 495.463 L2830.89 498.264 L2849.65 500.625 L2868.41 496.656 L2887.17 498.419 L2905.93 494.232 L2924.69 496.649 L2943.45 492.454 L2962.21 491.113 L2980.96 494.176 L2999.72 494.685 L3018.48 493.289 L3037.24 491.48 L3056 486.432 L3074.76 487.893 L3093.52 487.387 L3112.28 489.37 L3131.04 497.004 L3149.8 499.738 L3168.55 499.23 L3187.31 494.572 L3206.07 489.351 L3224.83 485.726 L3243.59 489.003 L3262.35 495.332 L3281.11 498.269 L3299.87 500.549 L3318.63 496.534 L3337.39 498.444 L3356.15 494.131 L3374.9 496.649 L3393.66 492.384 L3412.42 491.374 L3431.18 494.192 L3449.94 494.654 L3468.7 493.24 L3487.46 491.608 L3506.22 486.494 L3524.98 487.876 L3543.74 487.182 L3562.49 488.931 L3581.25 497.205 L3600.01 499.106 L3618.77 499.157 L3637.53 494.982 L3656.29 489.414 L3675.05 485.742 L3693.81 489.048 L3712.57 495.391 L3731.33 498.258 L3750.09 500.523 L3768.84 496.463 L3787.6 498.482 L3806.36 494.085 L3825.12 496.661 L3843.88 492.403 L3862.64 491.175 L3881.4 494.145 L3900.16 494.942 L3918.92 493.325 L3937.68 491.523 L3956.43 486.429 L3975.19 487.585 L3993.95 487.288 L4012.71 489.367 L4031.47 497.078 L4050.23 499.782 L4068.99 499.185 L4087.75 494.855 L4106.51 489.387 L4125.27 485.667 L4144.03 488.999 L4162.78 495.312 L4181.54 498.262 L4200.3 500.566 L4219.06 496.276 L4237.82 498.455 L4256.58 494.209 L4275.34 496.663 L4294.1 492.349 L4312.86 491.334 L4331.62 494.15 L4350.37 494.637 L4369.13 493.357 L4387.89 491.608 L4406.65 486.477 L4425.41 487.805 L4444.17 487.293 L4462.93 488.989 L4481.69 497.127 L4500.45 499.848 L4519.21 499.311 L4537.96 494.829 L4556.72 489.317 L4575.48 485.708 L4594.24 489.042 L4613 495.396 L4631.76 498.288 L4631.76 400.145 L4613 391.921 L4594.24 393.587 L4575.48 387.815 L4556.72 391.38 L4537.96 397.271 L4519.21 397.453 L4500.45 395.03 L4481.69 399.725 L4462.93 395.689 L4444.17 395.184 L4425.41 395.65 L4406.65 393.885 L4387.89 391.927 L4369.13 400.968 L4350.37 400.557 L4331.62 404.966 L4312.86 404.432 L4294.1 402.691 L4275.34 402.962 L4256.58 408.777 L4237.82 406.543 L4219.06 406.338 L4200.3 406.489 L4181.54 400.004 L4162.78 391.746 L4144.03 393.444 L4125.27 387.894 L4106.51 391.508 L4087.75 397.099 L4068.99 397.941 L4050.23 393.417 L4031.47 399.571 L4012.71 395.694 L3993.95 395.185 L3975.19 395.875 L3956.43 393.664 L3937.68 391.769 L3918.92 399.619 L3900.16 400.504 L3881.4 405.03 L3862.64 404.536 L3843.88 402.658 L3825.12 402.785 L3806.36 408.618 L3787.6 406.589 L3768.84 406.282 L3750.09 406.603 L3731.33 399.741 L3712.57 391.857 L3693.81 393.691 L3675.05 387.86 L3656.29 391.495 L3637.53 396.888 L3618.77 397.728 L3600.01 391.297 L3581.25 399.629 L3562.49 395.646 L3543.74 395.185 L3524.98 395.844 L3506.22 393.838 L3487.46 391.946 L3468.7 400.976 L3449.94 400.428 L3431.18 404.935 L3412.42 404.246 L3393.66 402.563 L3374.9 403 L3356.15 408.623 L3337.39 406.609 L3318.63 406.144 L3299.87 406.51 L3281.11 399.948 L3262.35 391.801 L3243.59 393.332 L3224.83 387.947 L3206.07 391.247 L3187.31 396.88 L3168.55 397.732 L3149.8 393.666 L3131.04 399.603 L3112.28 395.752 L3093.52 395.267 L3074.76 395.749 L3056 393.791 L3037.24 391.817 L3018.48 399.578 L2999.72 400.307 L2980.96 405.073 L2962.21 404.461 L2943.45 402.603 L2924.69 402.603 L2905.93 408.715 L2887.17 406.517 L2868.41 406.188 L2849.65 406.772 L2830.89 399.828 L2812.13 391.622 L2793.37 393.542 L2774.62 387.843 L2755.86 391.446 L2737.1 396.914 L2718.34 397.601 L2699.58 393.646 L2680.82 399.615 L2662.06 395.72 L2643.3 395.142 L2624.54 395.845 L2605.78 393.695 L2587.02 391.848 L2568.27 400.994 L2549.51 400.395 L2530.75 405.139 L2511.99 404.527 L2493.23 402.634 L2474.47 402.805 L2455.71 408.596 L2436.95 406.627 L2418.19 406.335 L2399.43 406.565 L2380.68 400.122 L2361.92 391.475 L2343.16 393.535 L2324.4 387.854 L2305.64 391.525 L2286.88 396.684 L2268.12 397.667 L2249.36 395.095 L2230.6 399.604 L2211.84 395.681 L2193.08 395.154 L2174.33 395.805 L2155.57 393.797 L2136.81 391.649 L2118.05 399.53 L2099.29 400.44 L2080.53 405.083 L2061.77 404.5 L2043.01 402.654 L2024.25 402.914 L2005.49 408.631 L1986.74 406.663 L1967.98 406.233 L1949.22 406.222 L1930.46 400.028 L1911.7 392.043 L1892.94 396.027 L1874.18 387.795 L1855.42 391.59 L1836.66 396.908 L1817.9 397.281 L1799.14 395.092 L1780.39 399.559 L1761.63 395.807 L1742.87 395.088 L1724.11 393.078 L1705.35 393.862 L1686.59 392.203 L1667.83 401.2 L1649.07 400.05 L1630.31 404.788 L1611.55 404.242 L1592.8 402.636 L1574.04 402.965 L1555.28 408.86 L1536.52 406.625 L1517.76 402.601 L1499 406.226 L1480.24 400.379 L1461.48 391.316 L1442.72 394.056 L1423.96 387.348 L1405.21 391.505 L1386.45 395.814 L1367.69 397.425 L1348.93 395.002 L1330.17 400.306 L1311.41 396.06 L1292.65 395.235 L1273.89 397.864 L1255.13 393.118 L1236.37 391.197 L1217.61 398.534 L1198.86 401.331 L1180.1 405.697 L1161.34 404.81 L1142.58 403.847 L1123.82 403.527 L1105.06 404.603 L1086.3 405.253 L1067.54 404.005 L1048.78 408.13 L1030.02 400.432 L1011.27 390.975 L992.506 395.008 L973.747 389.026 L954.988 392.415 L936.229 390.168 L917.47 396.03 L898.711 387.029 L879.952 394.597 L861.193 399.565 L842.434 397.725 L823.675 394.639 L804.916 390.706 L786.157 398.456 L767.398 409.898 L748.639 410.049 L729.88 416.766 L711.12 421.34 L692.361 428.778 L673.602 439.109 L654.843 444.768 L636.084 455.747 L617.325 470.234 L598.566 445.235  Z" fill="#000000" fill-rule="evenodd" fill-opacity="0.5"/>
<polyline clip-path="url(#clip092)" style="stroke:#000000; stroke-linecap:round; stroke-linejoin:round; stroke-width:0; stroke-opacity:1; fill:none" points="598.566,445.375 617.325,468.765 636.084,465.286 654.843,461.567 673.602,459.341 692.361,456.858 711.12,453.94 729.88,451.01 748.639,450.777 767.398,450.486 786.157,448.874 804.916,446.47 823.675,446.062 842.434,446.13 861.193,448.091 879.952,450.532 898.711,452.054 917.47,452.376 936.229,450.705 954.988,448.571 973.747,448.017 992.506,448.533 1011.27,449.062 1030.02,451.437 1048.78,452.001 1067.54,452.195 1086.3,452.673 1105.06,452.274 1123.82,451.568 1142.58,451.258 1161.34,449.873 1180.1,451.091 1198.86,452.651 1217.61,449.796 1236.37,447.98 1255.13,447.301 1273.89,448.261 1292.65,448.396 1311.41,448.857 1330.17,450.853 1348.93,451.905 1367.69,451.522 1386.45,449.917 1405.21,448.538 1423.96,448.165 1442.72,448.496 1461.48,448.907 1480.24,451.171 1499,451.932 1517.76,451.667 1536.52,452.528 1555.28,452.483 1574.04,451.659 1592.8,451.105 1611.55,449.654 1630.31,450.331 1649.07,452.215 1667.83,450.182 1686.59,449.193 1705.35,447.417 1724.11,447.836 1742.87,448.165 1761.63,448.968 1780.39,450.838 1799.14,451.802 1817.9,451.6 1836.66,450.168 1855.42,448.584 1874.18,448.066 1892.94,448.526 1911.7,448.958 1930.46,451.15 1949.22,451.858 1967.98,451.621 1986.74,452.429 2005.49,452.488 2024.25,451.637 2043.01,451.19 2061.77,449.78 2080.53,450.589 2099.29,452.321 2118.05,449.981 2136.81,448.662 2155.57,447.286 2174.33,448.017 2193.08,448.339 2211.84,448.9 2230.6,450.857 2249.36,451.919 2268.12,451.619 2286.88,450.107 2305.64,448.582 2324.4,448.103 2343.16,448.462 2361.92,448.912 2380.68,451.193 2399.43,451.922 2418.19,451.65 2436.95,452.449 2455.71,452.469 2474.47,451.627 2493.23,451.104 2511.99,449.668 2530.75,450.458 2549.51,452.287 2568.27,450.114 2587.02,448.991 2605.78,447.377 2624.54,447.938 2643.3,448.263 2662.06,448.973 2680.82,450.899 2699.58,451.829 2718.34,451.568 2737.1,450.129 2755.86,448.575 2774.62,448.083 2793.37,448.52 2812.13,448.976 2830.89,451.193 2849.65,451.876 2868.41,451.62 2887.17,452.433 2905.93,452.498 2924.69,451.643 2943.45,451.14 2962.21,449.699 2980.96,450.524 2999.72,452.305 3018.48,450.047 3037.24,448.809 3056,447.311 3074.76,447.974 3093.52,448.323 3112.28,448.959 3131.04,450.873 3149.8,451.852 3168.55,451.585 3187.31,450.123 3206.07,448.596 3224.83,448.1 3243.59,448.514 3262.35,448.961 3281.11,451.189 3299.87,451.879 3318.63,451.632 3337.39,452.448 3356.15,452.457 3374.9,451.616 3393.66,451.102 3412.42,449.682 3431.18,450.475 3449.94,452.306 3468.7,450.113 3487.46,448.937 3506.22,447.389 3524.98,447.974 3543.74,448.286 3562.49,448.956 3581.25,450.881 3600.01,451.811 3618.77,451.56 3637.53,450.119 3656.29,448.581 3675.05,448.105 3693.81,448.544 3712.57,448.985 3731.33,451.183 3750.09,451.882 3768.84,451.637 3787.6,452.437 3806.36,452.462 3825.12,451.645 3843.88,451.141 3862.64,449.717 3881.4,450.484 3900.16,452.316 3918.92,450.078 3937.68,448.854 3956.43,447.297 3975.19,447.967 3993.95,448.316 4012.71,448.968 4031.47,450.879 4050.23,451.855 4068.99,451.592 4087.75,450.135 4106.51,448.577 4125.27,448.09 4144.03,448.51 4162.78,448.95 4181.54,451.186 4200.3,451.881 4219.06,451.632 4237.82,452.452 4256.58,452.489 4275.34,451.654 4294.1,451.139 4312.86,449.716 4331.62,450.479 4350.37,452.256 4369.13,450.057 4387.89,448.933 4406.65,447.371 4425.41,447.955 4444.17,448.286 4462.93,448.967 4481.69,450.882 4500.45,451.844 4519.21,451.574 4537.96,450.118 4556.72,448.569 4575.48,448.077 4594.24,448.509 4613,448.952 4631.76,451.203 "/>
<path clip-path="url(#clip090)" d="M3863.46 593.434 L4610.25 593.434 L4610.25 75.0343 L3863.46 75.0343  Z" fill="#ffffff" fill-rule="evenodd" fill-opacity="1"/>
<polyline clip-path="url(#clip090)" style="stroke:#000000; stroke-linecap:round; stroke-linejoin:round; stroke-width:4; stroke-opacity:1; fill:none" points="3863.46,593.434 4610.25,593.434 4610.25,75.0343 3863.46,75.0343 3863.46,593.434 "/>
<polyline clip-path="url(#clip090)" style="stroke:#c8c8c8; stroke-linecap:round; stroke-linejoin:round; stroke-width:2; stroke-opacity:1; fill:none" points="3910.96,204.634 4195.98,204.634 "/>
<path clip-path="url(#clip090)" d="M4245.16 237.996 L4264.25 237.996 L4264.25 172.082 L4243.48 176.249 L4243.48 165.601 L4264.14 161.434 L4275.83 161.434 L4275.83 237.996 L4294.93 237.996 L4294.93 247.834 L4245.16 247.834 L4245.16 237.996 Z" fill="#000000" fill-rule="nonzero" fill-opacity="1" /><path clip-path="url(#clip090)" d="M4343.54 169.131 Q4334.51 169.131 4329.94 178.043 Q4325.42 186.897 4325.42 204.721 Q4325.42 222.487 4329.94 231.399 Q4334.51 240.253 4343.54 240.253 Q4352.62 240.253 4357.14 231.399 Q4361.71 222.487 4361.71 204.721 Q4361.71 186.897 4357.14 178.043 Q4352.62 169.131 4343.54 169.131 M4343.54 159.872 Q4358.06 159.872 4365.7 171.388 Q4373.4 182.846 4373.4 204.721 Q4373.4 226.538 4365.7 238.054 Q4358.06 249.513 4343.54 249.513 Q4329.01 249.513 4321.31 238.054 Q4313.67 226.538 4313.67 204.721 Q4313.67 182.846 4321.31 171.388 Q4329.01 159.872 4343.54 159.872 Z" fill="#000000" fill-rule="nonzero" fill-opacity="1" /><path clip-path="url(#clip090)" d="M4418.94 169.131 Q4409.91 169.131 4405.34 178.043 Q4400.83 186.897 4400.83 204.721 Q4400.83 222.487 4405.34 231.399 Q4409.91 240.253 4418.94 240.253 Q4428.03 240.253 4432.54 231.399 Q4437.11 222.487 4437.11 204.721 Q4437.11 186.897 4432.54 178.043 Q4428.03 169.131 4418.94 169.131 M4418.94 159.872 Q4433.47 159.872 4441.1 171.388 Q4448.8 182.846 4448.8 204.721 Q4448.8 226.538 4441.1 238.054 Q4433.47 249.513 4418.94 249.513 Q4404.42 249.513 4396.72 238.054 Q4389.08 226.538 4389.08 204.721 Q4389.08 182.846 4396.72 171.388 Q4404.42 159.872 4418.94 159.872 Z" fill="#000000" fill-rule="nonzero" fill-opacity="1" /><path clip-path="url(#clip090)" d="M4542.84 209.814 Q4537.81 209.814 4534.91 214.096 Q4532.08 218.378 4532.08 226.017 Q4532.08 233.54 4534.91 237.881 Q4537.81 242.163 4542.84 242.163 Q4547.76 242.163 4550.59 237.881 Q4553.49 233.54 4553.49 226.017 Q4553.49 218.436 4550.59 214.154 Q4547.76 209.814 4542.84 209.814 M4542.84 202.464 Q4551.98 202.464 4557.37 208.83 Q4562.75 215.196 4562.75 226.017 Q4562.75 236.839 4557.31 243.205 Q4551.93 249.513 4542.84 249.513 Q4533.58 249.513 4528.2 243.205 Q4522.82 236.839 4522.82 226.017 Q4522.82 215.138 4528.2 208.83 Q4533.64 202.464 4542.84 202.464 M4483.12 167.221 Q4478.14 167.221 4475.25 171.562 Q4472.41 175.844 4472.41 183.367 Q4472.41 191.006 4475.25 195.288 Q4478.08 199.571 4483.12 199.571 Q4488.15 199.571 4490.99 195.288 Q4493.88 191.006 4493.88 183.367 Q4493.88 175.902 4490.99 171.562 Q4488.1 167.221 4483.12 167.221 M4535.38 159.872 L4544.63 159.872 L4490.58 249.513 L4481.32 249.513 L4535.38 159.872 M4483.12 159.872 Q4492.26 159.872 4497.7 166.238 Q4503.14 172.545 4503.14 183.367 Q4503.14 194.305 4497.7 200.612 Q4492.32 206.92 4483.12 206.92 Q4473.92 206.92 4468.54 200.612 Q4463.21 194.247 4463.21 183.367 Q4463.21 172.603 4468.59 166.238 Q4473.97 159.872 4483.12 159.872 Z" fill="#000000" fill-rule="nonzero" fill-opacity="1" /><polyline clip-path="url(#clip090)" style="stroke:#525252; stroke-linecap:round; stroke-linejoin:round; stroke-width:2; stroke-opacity:1; fill:none" points="3910.96,334.234 4195.98,334.234 "/>
<path clip-path="url(#clip090)" d="M4249.03 375.64 L4249.03 364.992 Q4253.43 367.076 4257.95 368.175 Q4262.46 369.275 4266.8 369.275 Q4278.37 369.275 4284.45 361.52 Q4290.58 353.708 4291.45 337.851 Q4288.1 342.828 4282.95 345.49 Q4277.8 348.152 4271.55 348.152 Q4258.58 348.152 4251 340.34 Q4243.48 332.469 4243.48 318.87 Q4243.48 305.56 4251.35 297.516 Q4259.22 289.472 4272.3 289.472 Q4287.29 289.472 4295.16 300.988 Q4303.08 312.446 4303.08 334.321 Q4303.08 354.749 4293.36 366.96 Q4283.7 379.113 4267.32 379.113 Q4262.92 379.113 4258.41 378.245 Q4253.9 377.376 4249.03 375.64 M4272.3 339.009 Q4280.17 339.009 4284.74 333.627 Q4289.37 328.245 4289.37 318.87 Q4289.37 309.553 4284.74 304.171 Q4280.17 298.731 4272.3 298.731 Q4264.43 298.731 4259.8 304.171 Q4255.23 309.553 4255.23 318.87 Q4255.23 328.245 4259.8 333.627 Q4264.43 339.009 4272.3 339.009 Z" fill="#000000" fill-rule="nonzero" fill-opacity="1" /><path clip-path="url(#clip090)" d="M4349.09 298.731 Q4340.06 298.731 4335.49 307.643 Q4330.98 316.497 4330.98 334.321 Q4330.98 352.087 4335.49 360.999 Q4340.06 369.853 4349.09 369.853 Q4358.18 369.853 4362.69 360.999 Q4367.26 352.087 4367.26 334.321 Q4367.26 316.497 4362.69 307.643 Q4358.18 298.731 4349.09 298.731 M4349.09 289.472 Q4363.62 289.472 4371.26 300.988 Q4378.95 312.446 4378.95 334.321 Q4378.95 356.138 4371.26 367.654 Q4363.62 379.113 4349.09 379.113 Q4334.57 379.113 4326.87 367.654 Q4319.23 356.138 4319.23 334.321 Q4319.23 312.446 4326.87 300.988 Q4334.57 289.472 4349.09 289.472 Z" fill="#000000" fill-rule="nonzero" fill-opacity="1" /><path clip-path="url(#clip090)" d="M4472.99 339.414 Q4467.96 339.414 4465.06 343.696 Q4462.23 347.978 4462.23 355.617 Q4462.23 363.14 4465.06 367.481 Q4467.96 371.763 4472.99 371.763 Q4477.91 371.763 4480.75 367.481 Q4483.64 363.14 4483.64 355.617 Q4483.64 348.036 4480.75 343.754 Q4477.91 339.414 4472.99 339.414 M4472.99 332.064 Q4482.13 332.064 4487.52 338.43 Q4492.9 344.796 4492.9 355.617 Q4492.9 366.439 4487.46 372.805 Q4482.08 379.113 4472.99 379.113 Q4463.73 379.113 4458.35 372.805 Q4452.97 366.439 4452.97 355.617 Q4452.97 344.738 4458.35 338.43 Q4463.79 332.064 4472.99 332.064 M4413.27 296.821 Q4408.29 296.821 4405.4 301.162 Q4402.56 305.444 4402.56 312.967 Q4402.56 320.606 4405.4 324.888 Q4408.23 329.171 4413.27 329.171 Q4418.3 329.171 4421.14 324.888 Q4424.03 320.606 4424.03 312.967 Q4424.03 305.502 4421.14 301.162 Q4418.25 296.821 4413.27 296.821 M4465.53 289.472 L4474.79 289.472 L4420.73 379.113 L4411.48 379.113 L4465.53 289.472 M4413.27 289.472 Q4422.41 289.472 4427.85 295.838 Q4433.29 302.145 4433.29 312.967 Q4433.29 323.905 4427.85 330.212 Q4422.47 336.52 4413.27 336.52 Q4404.07 336.52 4398.69 330.212 Q4393.36 323.847 4393.36 312.967 Q4393.36 302.203 4398.74 295.838 Q4404.13 289.472 4413.27 289.472 Z" fill="#000000" fill-rule="nonzero" fill-opacity="1" /><polyline clip-path="url(#clip090)" style="stroke:#000000; stroke-linecap:round; stroke-linejoin:round; stroke-width:2; stroke-opacity:1; fill:none" points="3910.96,463.834 4195.98,463.834 "/>
<path clip-path="url(#clip090)" d="M4273.11 466.004 Q4264.77 466.004 4259.97 470.46 Q4255.23 474.916 4255.23 482.729 Q4255.23 490.541 4259.97 494.997 Q4264.77 499.453 4273.11 499.453 Q4281.44 499.453 4286.24 494.997 Q4291.05 490.484 4291.05 482.729 Q4291.05 474.916 4286.24 470.46 Q4281.5 466.004 4273.11 466.004 M4261.42 461.028 Q4253.9 459.176 4249.67 454.025 Q4245.5 448.875 4245.5 441.468 Q4245.5 431.109 4252.85 425.09 Q4260.26 419.072 4273.11 419.072 Q4286.01 419.072 4293.36 425.09 Q4300.71 431.109 4300.71 441.468 Q4300.71 448.875 4296.49 454.025 Q4292.32 459.176 4284.86 461.028 Q4293.3 462.995 4297.99 468.724 Q4302.74 474.453 4302.74 482.729 Q4302.74 495.287 4295.04 502 Q4287.4 508.713 4273.11 508.713 Q4258.81 508.713 4251.12 502 Q4243.48 495.287 4243.48 482.729 Q4243.48 474.453 4248.22 468.724 Q4252.97 462.995 4261.42 461.028 M4257.14 442.567 Q4257.14 449.28 4261.3 453.042 Q4265.53 456.803 4273.11 456.803 Q4280.63 456.803 4284.86 453.042 Q4289.14 449.28 4289.14 442.567 Q4289.14 435.854 4284.86 432.093 Q4280.63 428.331 4273.11 428.331 Q4265.53 428.331 4261.3 432.093 Q4257.14 435.854 4257.14 442.567 Z" fill="#000000" fill-rule="nonzero" fill-opacity="1" /><path clip-path="url(#clip090)" d="M4348.51 428.331 Q4339.48 428.331 4334.91 437.243 Q4330.4 446.097 4330.4 463.921 Q4330.4 481.687 4334.91 490.599 Q4339.48 499.453 4348.51 499.453 Q4357.6 499.453 4362.11 490.599 Q4366.68 481.687 4366.68 463.921 Q4366.68 446.097 4362.11 437.243 Q4357.6 428.331 4348.51 428.331 M4348.51 419.072 Q4363.04 419.072 4370.68 430.588 Q4378.37 442.046 4378.37 463.921 Q4378.37 485.738 4370.68 497.254 Q4363.04 508.713 4348.51 508.713 Q4333.99 508.713 4326.29 497.254 Q4318.65 485.738 4318.65 463.921 Q4318.65 442.046 4326.29 430.588 Q4333.99 419.072 4348.51 419.072 Z" fill="#000000" fill-rule="nonzero" fill-opacity="1" /><path clip-path="url(#clip090)" d="M4472.41 469.014 Q4467.38 469.014 4464.48 473.296 Q4461.65 477.578 4461.65 485.217 Q4461.65 492.74 4464.48 497.081 Q4467.38 501.363 4472.41 501.363 Q4477.33 501.363 4480.17 497.081 Q4483.06 492.74 4483.06 485.217 Q4483.06 477.636 4480.17 473.354 Q4477.33 469.014 4472.41 469.014 M4472.41 461.664 Q4481.56 461.664 4486.94 468.03 Q4492.32 474.396 4492.32 485.217 Q4492.32 496.039 4486.88 502.405 Q4481.5 508.713 4472.41 508.713 Q4463.15 508.713 4457.77 502.405 Q4452.39 496.039 4452.39 485.217 Q4452.39 474.338 4457.77 468.03 Q4463.21 461.664 4472.41 461.664 M4412.69 426.421 Q4407.71 426.421 4404.82 430.762 Q4401.98 435.044 4401.98 442.567 Q4401.98 450.206 4404.82 454.488 Q4407.66 458.771 4412.69 458.771 Q4417.73 458.771 4420.56 454.488 Q4423.45 450.206 4423.45 442.567 Q4423.45 435.102 4420.56 430.762 Q4417.67 426.421 4412.69 426.421 M4464.95 419.072 L4474.21 419.072 L4420.16 508.713 L4410.9 508.713 L4464.95 419.072 M4412.69 419.072 Q4421.83 419.072 4427.27 425.438 Q4432.71 431.745 4432.71 442.567 Q4432.71 453.505 4427.27 459.812 Q4421.89 466.12 4412.69 466.12 Q4403.49 466.12 4398.11 459.812 Q4392.78 453.447 4392.78 442.567 Q4392.78 431.803 4398.17 425.438 Q4403.55 419.072 4412.69 419.072 Z" fill="#000000" fill-rule="nonzero" fill-opacity="1" /></svg>
