<?xml version="1.0" encoding="utf-8"?>
<svg xmlns="http://www.w3.org/2000/svg" xmlns:xlink="http://www.w3.org/1999/xlink" width="1200" height="300" viewBox="0 0 4800 1200">
<defs>
  <clipPath id="clip410">
    <rect x="0" y="0" width="4800" height="1200"/>
  </clipPath>
</defs>
<path clip-path="url(#clip410)" d="M0 1200 L4800 1200 L4800 0 L0 0  Z" fill="#ffffff" fill-rule="evenodd" fill-opacity="1"/>
<defs>
  <clipPath id="clip411">
    <rect x="960" y="0" width="3361" height="1200"/>
  </clipPath>
</defs>
<path clip-path="url(#clip410)" d="M778.781 880.951 L4752.76 880.951 L4752.76 47.2441 L778.781 47.2441  Z" fill="#ffffff" fill-rule="evenodd" fill-opacity="1"/>
<defs>
  <clipPath id="clip412">
    <rect x="778" y="47" width="3975" height="835"/>
  </clipPath>
</defs>
<polyline clip-path="url(#clip412)" style="stroke:#000000; stroke-linecap:round; stroke-linejoin:round; stroke-width:2; stroke-opacity:0.1; fill:none" points="1292.31,880.951 1292.31,47.2441 "/>
<polyline clip-path="url(#clip412)" style="stroke:#000000; stroke-linecap:round; stroke-linejoin:round; stroke-width:2; stroke-opacity:0.1; fill:none" points="2129.3,880.951 2129.3,47.2441 "/>
<polyline clip-path="url(#clip412)" style="stroke:#000000; stroke-linecap:round; stroke-linejoin:round; stroke-width:2; stroke-opacity:0.1; fill:none" points="2966.3,880.951 2966.3,47.2441 "/>
<polyline clip-path="url(#clip412)" style="stroke:#000000; stroke-linecap:round; stroke-linejoin:round; stroke-width:2; stroke-opacity:0.1; fill:none" points="3803.29,880.951 3803.29,47.2441 "/>
<polyline clip-path="url(#clip412)" style="stroke:#000000; stroke-linecap:round; stroke-linejoin:round; stroke-width:2; stroke-opacity:0.1; fill:none" points="4640.28,880.951 4640.28,47.2441 "/>
<polyline clip-path="url(#clip410)" style="stroke:#000000; stroke-linecap:round; stroke-linejoin:round; stroke-width:4; stroke-opacity:1; fill:none" points="778.781,880.951 4752.76,880.951 "/>
<polyline clip-path="url(#clip410)" style="stroke:#000000; stroke-linecap:round; stroke-linejoin:round; stroke-width:4; stroke-opacity:1; fill:none" points="1292.31,880.951 1292.31,862.054 "/>
<polyline clip-path="url(#clip410)" style="stroke:#000000; stroke-linecap:round; stroke-linejoin:round; stroke-width:4; stroke-opacity:1; fill:none" points="2129.3,880.951 2129.3,862.054 "/>
<polyline clip-path="url(#clip410)" style="stroke:#000000; stroke-linecap:round; stroke-linejoin:round; stroke-width:4; stroke-opacity:1; fill:none" points="2966.3,880.951 2966.3,862.054 "/>
<polyline clip-path="url(#clip410)" style="stroke:#000000; stroke-linecap:round; stroke-linejoin:round; stroke-width:4; stroke-opacity:1; fill:none" points="3803.29,880.951 3803.29,862.054 "/>
<polyline clip-path="url(#clip410)" style="stroke:#000000; stroke-linecap:round; stroke-linejoin:round; stroke-width:4; stroke-opacity:1; fill:none" points="4640.28,880.951 4640.28,862.054 "/>
<path clip-path="url(#clip410)" d="M1281.62 997.881 L1314.26 997.881 L1314.26 1005.75 L1270.37 1005.75 L1270.37 997.881 Q1275.69 992.372 1284.86 983.113 Q1294.07 973.807 1296.43 971.122 Q1300.92 966.076 1302.68 962.604 Q1304.49 959.085 1304.49 955.705 Q1304.49 950.196 1300.6 946.724 Q1296.76 943.252 1290.55 943.252 Q1286.15 943.252 1281.25 944.78 Q1276.39 946.307 1270.83 949.409 L1270.83 939.965 Q1276.48 937.696 1281.39 936.539 Q1286.29 935.382 1290.37 935.382 Q1301.11 935.382 1307.5 940.752 Q1313.89 946.122 1313.89 955.104 Q1313.89 959.363 1312.27 963.205 Q1310.69 967.002 1306.48 972.187 Q1305.32 973.529 1299.12 979.965 Q1292.91 986.353 1281.62 997.881 Z" fill="#000000" fill-rule="nonzero" fill-opacity="1" /><path clip-path="url(#clip410)" d="M2135.32 944.78 L2111.71 981.678 L2135.32 981.678 L2135.32 944.78 M2132.87 936.631 L2144.63 936.631 L2144.63 981.678 L2154.49 981.678 L2154.49 989.455 L2144.63 989.455 L2144.63 1005.75 L2135.32 1005.75 L2135.32 989.455 L2104.12 989.455 L2104.12 980.428 L2132.87 936.631 Z" fill="#000000" fill-rule="nonzero" fill-opacity="1" /><path clip-path="url(#clip410)" d="M2967.11 967.465 Q2960.81 967.465 2957.11 971.77 Q2953.45 976.076 2953.45 983.576 Q2953.45 991.029 2957.11 995.381 Q2960.81 999.687 2967.11 999.687 Q2973.4 999.687 2977.06 995.381 Q2980.77 991.029 2980.77 983.576 Q2980.77 976.076 2977.06 971.77 Q2973.4 967.465 2967.11 967.465 M2985.67 938.159 L2985.67 946.678 Q2982.15 945.011 2978.54 944.131 Q2974.98 943.252 2971.46 943.252 Q2962.2 943.252 2957.29 949.502 Q2952.43 955.752 2951.74 968.391 Q2954.47 964.363 2958.59 962.233 Q2962.71 960.057 2967.66 960.057 Q2978.08 960.057 2984.1 966.4 Q2990.16 972.696 2990.16 983.576 Q2990.16 994.224 2983.87 1000.66 Q2977.57 1007.09 2967.11 1007.09 Q2955.12 1007.09 2948.78 997.927 Q2942.43 988.715 2942.43 971.261 Q2942.43 954.872 2950.21 945.15 Q2957.99 935.382 2971.09 935.382 Q2974.61 935.382 2978.17 936.076 Q2981.78 936.77 2985.67 938.159 Z" fill="#000000" fill-rule="nonzero" fill-opacity="1" /><path clip-path="url(#clip410)" d="M3803.29 972.928 Q3796.62 972.928 3792.78 976.492 Q3788.99 980.057 3788.99 986.307 Q3788.99 992.557 3792.78 996.122 Q3796.62 999.687 3803.29 999.687 Q3809.96 999.687 3813.8 996.122 Q3817.64 992.511 3817.64 986.307 Q3817.64 980.057 3813.8 976.492 Q3810 972.928 3803.29 972.928 M3793.94 968.946 Q3787.92 967.465 3784.54 963.344 Q3781.21 959.224 3781.21 953.298 Q3781.21 945.011 3787.09 940.196 Q3793.01 935.382 3803.29 935.382 Q3813.62 935.382 3819.5 940.196 Q3825.37 945.011 3825.37 953.298 Q3825.37 959.224 3822 963.344 Q3818.66 967.465 3812.69 968.946 Q3819.45 970.52 3823.2 975.104 Q3827 979.687 3827 986.307 Q3827 996.353 3820.84 1001.72 Q3814.73 1007.09 3803.29 1007.09 Q3791.86 1007.09 3785.7 1001.72 Q3779.59 996.353 3779.59 986.307 Q3779.59 979.687 3783.38 975.104 Q3787.18 970.52 3793.94 968.946 M3790.51 954.178 Q3790.51 959.548 3793.85 962.557 Q3797.23 965.567 3803.29 965.567 Q3809.31 965.567 3812.69 962.557 Q3816.12 959.548 3816.12 954.178 Q3816.12 948.807 3812.69 945.798 Q3809.31 942.789 3803.29 942.789 Q3797.23 942.789 3793.85 945.798 Q3790.51 948.807 3790.51 954.178 Z" fill="#000000" fill-rule="nonzero" fill-opacity="1" /><path clip-path="url(#clip410)" d="M4589.66 997.881 L4604.94 997.881 L4604.94 945.15 L4588.32 948.483 L4588.32 939.965 L4604.85 936.631 L4614.2 936.631 L4614.2 997.881 L4629.47 997.881 L4629.47 1005.75 L4589.66 1005.75 L4589.66 997.881 Z" fill="#000000" fill-rule="nonzero" fill-opacity="1" /><path clip-path="url(#clip410)" d="M4668.36 942.789 Q4661.14 942.789 4657.48 949.918 Q4653.87 957.002 4653.87 971.261 Q4653.87 985.474 4657.48 992.603 Q4661.14 999.687 4668.36 999.687 Q4675.63 999.687 4679.24 992.603 Q4682.9 985.474 4682.9 971.261 Q4682.9 957.002 4679.24 949.918 Q4675.63 942.789 4668.36 942.789 M4668.36 935.382 Q4679.98 935.382 4686.09 944.594 Q4692.25 953.761 4692.25 971.261 Q4692.25 988.715 4686.09 997.927 Q4679.98 1007.09 4668.36 1007.09 Q4656.74 1007.09 4650.59 997.927 Q4644.47 988.715 4644.47 971.261 Q4644.47 953.761 4650.59 944.594 Q4656.74 935.382 4668.36 935.382 Z" fill="#000000" fill-rule="nonzero" fill-opacity="1" /><path clip-path="url(#clip410)" d="M2483.01 1072.18 L2548.79 1072.18 L2548.79 1081.04 L2521.19 1081.04 L2521.19 1149.94 L2510.61 1149.94 L2510.61 1081.04 L2483.01 1081.04 L2483.01 1072.18 Z" fill="#000000" fill-rule="nonzero" fill-opacity="1" /><path clip-path="url(#clip410)" d="M2555.25 1091.61 L2564.83 1091.61 L2564.83 1149.94 L2555.25 1149.94 L2555.25 1091.61 M2555.25 1068.9 L2564.83 1068.9 L2564.83 1081.04 L2555.25 1081.04 L2555.25 1068.9 Z" fill="#000000" fill-rule="nonzero" fill-opacity="1" /><path clip-path="url(#clip410)" d="M2630.3 1102.81 Q2633.89 1096.35 2638.89 1093.28 Q2643.89 1090.2 2650.67 1090.2 Q2659.78 1090.2 2664.73 1096.61 Q2669.68 1102.96 2669.68 1114.74 L2669.68 1149.94 L2660.04 1149.94 L2660.04 1115.05 Q2660.04 1106.66 2657.07 1102.6 Q2654.1 1098.54 2648.01 1098.54 Q2640.56 1098.54 2636.24 1103.49 Q2631.92 1108.43 2631.92 1116.97 L2631.92 1149.94 L2622.28 1149.94 L2622.28 1115.05 Q2622.28 1106.61 2619.31 1102.6 Q2616.34 1098.54 2610.14 1098.54 Q2602.8 1098.54 2598.48 1103.54 Q2594.15 1108.49 2594.15 1116.97 L2594.15 1149.94 L2584.52 1149.94 L2584.52 1091.61 L2594.15 1091.61 L2594.15 1100.67 Q2597.44 1095.31 2602.02 1092.76 Q2606.6 1090.2 2612.9 1090.2 Q2619.26 1090.2 2623.69 1093.43 Q2628.17 1096.66 2630.3 1102.81 Z" fill="#000000" fill-rule="nonzero" fill-opacity="1" /><path clip-path="url(#clip410)" d="M2738.69 1118.38 L2738.69 1123.07 L2694.62 1123.07 Q2695.25 1132.96 2700.56 1138.17 Q2705.93 1143.33 2715.46 1143.33 Q2720.98 1143.33 2726.13 1141.97 Q2731.34 1140.62 2736.45 1137.91 L2736.45 1146.97 Q2731.29 1149.16 2725.87 1150.31 Q2720.46 1151.45 2714.88 1151.45 Q2700.93 1151.45 2692.75 1143.33 Q2684.62 1135.2 2684.62 1121.35 Q2684.62 1107.03 2692.33 1098.64 Q2700.09 1090.2 2713.22 1090.2 Q2724.99 1090.2 2731.81 1097.81 Q2738.69 1105.36 2738.69 1118.38 M2729.1 1115.57 Q2729 1107.7 2724.68 1103.02 Q2720.4 1098.33 2713.32 1098.33 Q2705.3 1098.33 2700.46 1102.86 Q2695.66 1107.39 2694.94 1115.62 L2729.1 1115.57 Z" fill="#000000" fill-rule="nonzero" fill-opacity="1" /><path clip-path="url(#clip410)" d="M2811.34 1069.01 Q2804.36 1080.99 2800.98 1092.7 Q2797.59 1104.42 2797.59 1116.45 Q2797.59 1128.49 2800.98 1140.31 Q2804.41 1152.08 2811.34 1164.01 L2803.01 1164.01 Q2795.2 1151.77 2791.29 1139.94 Q2787.44 1128.12 2787.44 1116.45 Q2787.44 1104.84 2791.29 1093.07 Q2795.14 1081.3 2803.01 1069.01 L2811.34 1069.01 Z" fill="#000000" fill-rule="nonzero" fill-opacity="1" /><path clip-path="url(#clip410)" d="M2868.32 1100.46 L2868.32 1068.9 L2877.9 1068.9 L2877.9 1149.94 L2868.32 1149.94 L2868.32 1141.19 Q2865.3 1146.4 2860.66 1148.95 Q2856.08 1151.45 2849.62 1151.45 Q2839.05 1151.45 2832.38 1143.02 Q2825.77 1134.58 2825.77 1120.83 Q2825.77 1107.08 2832.38 1098.64 Q2839.05 1090.2 2849.62 1090.2 Q2856.08 1090.2 2860.66 1092.76 Q2865.3 1095.26 2868.32 1100.46 M2835.66 1120.83 Q2835.66 1131.4 2839.99 1137.44 Q2844.36 1143.43 2851.97 1143.43 Q2859.57 1143.43 2863.95 1137.44 Q2868.32 1131.4 2868.32 1120.83 Q2868.32 1110.26 2863.95 1104.27 Q2859.57 1098.23 2851.97 1098.23 Q2844.36 1098.23 2839.99 1104.27 Q2835.66 1110.26 2835.66 1120.83 Z" fill="#000000" fill-rule="nonzero" fill-opacity="1" /><path clip-path="url(#clip410)" d="M2924.15 1120.62 Q2912.54 1120.62 2908.06 1123.28 Q2903.58 1125.93 2903.58 1132.34 Q2903.58 1137.44 2906.91 1140.46 Q2910.3 1143.43 2916.08 1143.43 Q2924.05 1143.43 2928.84 1137.81 Q2933.68 1132.13 2933.68 1122.76 L2933.68 1120.62 L2924.15 1120.62 M2943.27 1116.66 L2943.27 1149.94 L2933.68 1149.94 L2933.68 1141.09 Q2930.4 1146.4 2925.51 1148.95 Q2920.61 1151.45 2913.53 1151.45 Q2904.57 1151.45 2899.26 1146.45 Q2894 1141.4 2894 1132.96 Q2894 1123.12 2900.56 1118.12 Q2907.17 1113.12 2920.25 1113.12 L2933.68 1113.12 L2933.68 1112.18 Q2933.68 1105.57 2929.31 1101.98 Q2924.99 1098.33 2917.12 1098.33 Q2912.12 1098.33 2907.38 1099.53 Q2902.64 1100.73 2898.27 1103.12 L2898.27 1094.27 Q2903.53 1092.24 2908.48 1091.25 Q2913.42 1090.2 2918.11 1090.2 Q2930.77 1090.2 2937.02 1096.77 Q2943.27 1103.33 2943.27 1116.66 Z" fill="#000000" fill-rule="nonzero" fill-opacity="1" /><path clip-path="url(#clip410)" d="M2987.28 1155.36 Q2983.22 1165.78 2979.36 1168.95 Q2975.51 1172.13 2969.05 1172.13 L2961.39 1172.13 L2961.39 1164.11 L2967.02 1164.11 Q2970.98 1164.11 2973.16 1162.24 Q2975.35 1160.36 2978.01 1153.38 L2979.73 1149.01 L2956.13 1091.61 L2966.29 1091.61 L2984.52 1137.24 L3002.75 1091.61 L3012.9 1091.61 L2987.28 1155.36 Z" fill="#000000" fill-rule="nonzero" fill-opacity="1" /><path clip-path="url(#clip410)" d="M3024.62 1069.01 L3032.95 1069.01 Q3040.77 1081.3 3044.62 1093.07 Q3048.53 1104.84 3048.53 1116.45 Q3048.53 1128.12 3044.62 1139.94 Q3040.77 1151.77 3032.95 1164.01 L3024.62 1164.01 Q3031.55 1152.08 3034.93 1140.31 Q3038.37 1128.49 3038.37 1116.45 Q3038.37 1104.42 3034.93 1092.7 Q3031.55 1080.99 3024.62 1069.01 Z" fill="#000000" fill-rule="nonzero" fill-opacity="1" /><polyline clip-path="url(#clip412)" style="stroke:#000000; stroke-linecap:round; stroke-linejoin:round; stroke-width:2; stroke-opacity:0.1; fill:none" points="778.781,822.443 4752.76,822.443 "/>
<polyline clip-path="url(#clip412)" style="stroke:#000000; stroke-linecap:round; stroke-linejoin:round; stroke-width:2; stroke-opacity:0.1; fill:none" points="778.781,632.523 4752.76,632.523 "/>
<polyline clip-path="url(#clip412)" style="stroke:#000000; stroke-linecap:round; stroke-linejoin:round; stroke-width:2; stroke-opacity:0.1; fill:none" points="778.781,442.603 4752.76,442.603 "/>
<polyline clip-path="url(#clip412)" style="stroke:#000000; stroke-linecap:round; stroke-linejoin:round; stroke-width:2; stroke-opacity:0.1; fill:none" points="778.781,252.683 4752.76,252.683 "/>
<polyline clip-path="url(#clip412)" style="stroke:#000000; stroke-linecap:round; stroke-linejoin:round; stroke-width:2; stroke-opacity:0.1; fill:none" points="778.781,62.763 4752.76,62.763 "/>
<polyline clip-path="url(#clip410)" style="stroke:#000000; stroke-linecap:round; stroke-linejoin:round; stroke-width:4; stroke-opacity:1; fill:none" points="778.781,880.951 778.781,47.2441 "/>
<polyline clip-path="url(#clip410)" style="stroke:#000000; stroke-linecap:round; stroke-linejoin:round; stroke-width:4; stroke-opacity:1; fill:none" points="778.781,822.443 797.679,822.443 "/>
<polyline clip-path="url(#clip410)" style="stroke:#000000; stroke-linecap:round; stroke-linejoin:round; stroke-width:4; stroke-opacity:1; fill:none" points="778.781,632.523 797.679,632.523 "/>
<polyline clip-path="url(#clip410)" style="stroke:#000000; stroke-linecap:round; stroke-linejoin:round; stroke-width:4; stroke-opacity:1; fill:none" points="778.781,442.603 797.679,442.603 "/>
<polyline clip-path="url(#clip410)" style="stroke:#000000; stroke-linecap:round; stroke-linejoin:round; stroke-width:4; stroke-opacity:1; fill:none" points="778.781,252.683 797.679,252.683 "/>
<polyline clip-path="url(#clip410)" style="stroke:#000000; stroke-linecap:round; stroke-linejoin:round; stroke-width:4; stroke-opacity:1; fill:none" points="778.781,62.763 797.679,62.763 "/>
<path clip-path="url(#clip410)" d="M194.136 836.241 L253.488 836.241 L253.488 844.111 L194.136 844.111 L194.136 836.241 Z" fill="#000000" fill-rule="nonzero" fill-opacity="1" /><path clip-path="url(#clip410)" d="M281.729 862.028 L314.367 862.028 L314.367 869.898 L270.479 869.898 L270.479 862.028 Q275.803 856.518 284.969 847.259 Q294.182 837.954 296.543 835.268 Q301.034 830.222 302.793 826.75 Q304.599 823.231 304.599 819.852 Q304.599 814.343 300.71 810.87 Q296.867 807.398 290.664 807.398 Q286.266 807.398 281.358 808.926 Q276.497 810.454 270.942 813.556 L270.942 804.111 Q276.59 801.843 281.497 800.685 Q286.404 799.528 290.478 799.528 Q301.219 799.528 307.608 804.898 Q313.997 810.269 313.997 819.25 Q313.997 823.509 312.376 827.352 Q310.802 831.148 306.589 836.333 Q305.432 837.676 299.228 844.111 Q293.025 850.5 281.729 862.028 Z" fill="#000000" fill-rule="nonzero" fill-opacity="1" /><path clip-path="url(#clip410)" d="M333.997 858.139 L343.765 858.139 L343.765 869.898 L333.997 869.898 L333.997 858.139 Z" fill="#000000" fill-rule="nonzero" fill-opacity="1" /><path clip-path="url(#clip410)" d="M384.135 806.935 Q376.913 806.935 373.256 814.065 Q369.645 821.148 369.645 835.407 Q369.645 849.62 373.256 856.75 Q376.913 863.833 384.135 863.833 Q391.404 863.833 395.015 856.75 Q398.672 849.62 398.672 835.407 Q398.672 821.148 395.015 814.065 Q391.404 806.935 384.135 806.935 M384.135 799.528 Q395.756 799.528 401.867 808.741 Q408.024 817.907 408.024 835.407 Q408.024 852.861 401.867 862.074 Q395.756 871.24 384.135 871.24 Q372.515 871.24 366.358 862.074 Q360.247 852.861 360.247 835.407 Q360.247 817.907 366.358 808.741 Q372.515 799.528 384.135 799.528 Z" fill="#000000" fill-rule="nonzero" fill-opacity="1" /><path clip-path="url(#clip410)" d="M480.802 818.972 L459.644 840.222 L480.802 861.379 L475.292 866.981 L454.042 845.731 L432.793 866.981 L427.33 861.379 L448.441 840.222 L427.33 818.972 L432.793 813.37 L454.042 834.62 L475.292 813.37 L480.802 818.972 Z" fill="#000000" fill-rule="nonzero" fill-opacity="1" /><path clip-path="url(#clip410)" d="M505.524 862.028 L520.801 862.028 L520.801 809.296 L504.181 812.63 L504.181 804.111 L520.709 800.778 L530.061 800.778 L530.061 862.028 L545.338 862.028 L545.338 869.898 L505.524 869.898 L505.524 862.028 Z" fill="#000000" fill-rule="nonzero" fill-opacity="1" /><path clip-path="url(#clip410)" d="M584.227 806.935 Q577.005 806.935 573.347 814.065 Q569.736 821.148 569.736 835.407 Q569.736 849.62 573.347 856.75 Q577.005 863.833 584.227 863.833 Q591.495 863.833 595.106 856.75 Q598.764 849.62 598.764 835.407 Q598.764 821.148 595.106 814.065 Q591.495 806.935 584.227 806.935 M584.227 799.528 Q595.847 799.528 601.958 808.741 Q608.116 817.907 608.116 835.407 Q608.116 852.861 601.958 862.074 Q595.847 871.24 584.227 871.24 Q572.607 871.24 566.449 862.074 Q560.338 852.861 560.338 835.407 Q560.338 817.907 566.449 808.741 Q572.607 799.528 584.227 799.528 Z" fill="#000000" fill-rule="nonzero" fill-opacity="1" /><path clip-path="url(#clip410)" d="M608.116 787.731 L656.339 787.731 L656.339 794.125 L608.116 794.125 L608.116 787.731 Z" fill="#000000" fill-rule="nonzero" fill-opacity="1" /><path clip-path="url(#clip410)" d="M672.814 758.917 L702.643 758.917 L702.643 765.312 L679.773 765.312 L679.773 779.079 Q681.428 778.515 683.083 778.251 Q684.738 777.951 686.394 777.951 Q695.797 777.951 701.289 783.104 Q706.781 788.257 706.781 797.059 Q706.781 806.125 701.139 811.165 Q695.497 816.168 685.227 816.168 Q681.692 816.168 678.005 815.566 Q674.357 814.964 670.445 813.761 L670.445 806.125 Q673.83 807.968 677.441 808.871 Q681.052 809.773 685.077 809.773 Q691.585 809.773 695.384 806.35 Q699.183 802.927 699.183 797.059 Q699.183 791.191 695.384 787.768 Q691.585 784.345 685.077 784.345 Q682.03 784.345 678.983 785.022 Q675.974 785.699 672.814 787.129 L672.814 758.917 Z" fill="#000000" fill-rule="nonzero" fill-opacity="1" /><path clip-path="url(#clip410)" d="M194.136 646.321 L253.488 646.321 L253.488 654.191 L194.136 654.191 L194.136 646.321 Z" fill="#000000" fill-rule="nonzero" fill-opacity="1" /><path clip-path="url(#clip410)" d="M275.293 672.108 L290.571 672.108 L290.571 619.376 L273.951 622.71 L273.951 614.191 L290.478 610.858 L299.83 610.858 L299.83 672.108 L315.108 672.108 L315.108 679.978 L275.293 679.978 L275.293 672.108 Z" fill="#000000" fill-rule="nonzero" fill-opacity="1" /><path clip-path="url(#clip410)" d="M333.997 668.219 L343.765 668.219 L343.765 679.978 L333.997 679.978 L333.997 668.219 Z" fill="#000000" fill-rule="nonzero" fill-opacity="1" /><path clip-path="url(#clip410)" d="M384.135 617.015 Q376.913 617.015 373.256 624.145 Q369.645 631.228 369.645 645.487 Q369.645 659.7 373.256 666.83 Q376.913 673.913 384.135 673.913 Q391.404 673.913 395.015 666.83 Q398.672 659.7 398.672 645.487 Q398.672 631.228 395.015 624.145 Q391.404 617.015 384.135 617.015 M384.135 609.608 Q395.756 609.608 401.867 618.821 Q408.024 627.987 408.024 645.487 Q408.024 662.941 401.867 672.154 Q395.756 681.321 384.135 681.321 Q372.515 681.321 366.358 672.154 Q360.247 662.941 360.247 645.487 Q360.247 627.987 366.358 618.821 Q372.515 609.608 384.135 609.608 Z" fill="#000000" fill-rule="nonzero" fill-opacity="1" /><path clip-path="url(#clip410)" d="M480.802 629.052 L459.644 650.302 L480.802 671.459 L475.292 677.061 L454.042 655.811 L432.793 677.061 L427.33 671.459 L448.441 650.302 L427.33 629.052 L432.793 623.45 L454.042 644.7 L475.292 623.45 L480.802 629.052 Z" fill="#000000" fill-rule="nonzero" fill-opacity="1" /><path clip-path="url(#clip410)" d="M505.524 672.108 L520.801 672.108 L520.801 619.376 L504.181 622.71 L504.181 614.191 L520.709 610.858 L530.061 610.858 L530.061 672.108 L545.338 672.108 L545.338 679.978 L505.524 679.978 L505.524 672.108 Z" fill="#000000" fill-rule="nonzero" fill-opacity="1" /><path clip-path="url(#clip410)" d="M584.227 617.015 Q577.005 617.015 573.347 624.145 Q569.736 631.228 569.736 645.487 Q569.736 659.7 573.347 666.83 Q577.005 673.913 584.227 673.913 Q591.495 673.913 595.106 666.83 Q598.764 659.7 598.764 645.487 Q598.764 631.228 595.106 624.145 Q591.495 617.015 584.227 617.015 M584.227 609.608 Q595.847 609.608 601.958 618.821 Q608.116 627.987 608.116 645.487 Q608.116 662.941 601.958 672.154 Q595.847 681.321 584.227 681.321 Q572.607 681.321 566.449 672.154 Q560.338 662.941 560.338 645.487 Q560.338 627.987 566.449 618.821 Q572.607 609.608 584.227 609.608 Z" fill="#000000" fill-rule="nonzero" fill-opacity="1" /><path clip-path="url(#clip410)" d="M608.116 597.811 L656.339 597.811 L656.339 604.205 L608.116 604.205 L608.116 597.811 Z" fill="#000000" fill-rule="nonzero" fill-opacity="1" /><path clip-path="url(#clip410)" d="M672.814 568.997 L702.643 568.997 L702.643 575.392 L679.773 575.392 L679.773 589.159 Q681.428 588.595 683.083 588.332 Q684.738 588.031 686.394 588.031 Q695.797 588.031 701.289 593.184 Q706.781 598.337 706.781 607.139 Q706.781 616.205 701.139 621.245 Q695.497 626.248 685.227 626.248 Q681.692 626.248 678.005 625.646 Q674.357 625.044 670.445 623.841 L670.445 616.205 Q673.83 618.048 677.441 618.951 Q681.052 619.853 685.077 619.853 Q691.585 619.853 695.384 616.43 Q699.183 613.007 699.183 607.139 Q699.183 601.271 695.384 597.848 Q691.585 594.425 685.077 594.425 Q682.03 594.425 678.983 595.102 Q675.974 595.779 672.814 597.209 L672.814 568.997 Z" fill="#000000" fill-rule="nonzero" fill-opacity="1" /><path clip-path="url(#clip410)" d="M682.892 414.2 Q675.67 414.2 672.013 421.33 Q668.402 428.413 668.402 442.672 Q668.402 456.885 672.013 464.015 Q675.67 471.098 682.892 471.098 Q690.161 471.098 693.772 464.015 Q697.429 456.885 697.429 442.672 Q697.429 428.413 693.772 421.33 Q690.161 414.2 682.892 414.2 M682.892 406.793 Q694.513 406.793 700.624 416.006 Q706.781 425.172 706.781 442.672 Q706.781 460.126 700.624 469.339 Q694.513 478.505 682.892 478.505 Q671.272 478.505 665.115 469.339 Q659.004 460.126 659.004 442.672 Q659.004 425.172 665.115 416.006 Q671.272 406.793 682.892 406.793 Z" fill="#000000" fill-rule="nonzero" fill-opacity="1" /><path clip-path="url(#clip410)" d="M275.293 292.268 L290.571 292.268 L290.571 239.537 L273.951 242.87 L273.951 234.351 L290.478 231.018 L299.83 231.018 L299.83 292.268 L315.108 292.268 L315.108 300.138 L275.293 300.138 L275.293 292.268 Z" fill="#000000" fill-rule="nonzero" fill-opacity="1" /><path clip-path="url(#clip410)" d="M333.997 288.379 L343.765 288.379 L343.765 300.138 L333.997 300.138 L333.997 288.379 Z" fill="#000000" fill-rule="nonzero" fill-opacity="1" /><path clip-path="url(#clip410)" d="M384.135 237.175 Q376.913 237.175 373.256 244.305 Q369.645 251.388 369.645 265.648 Q369.645 279.86 373.256 286.99 Q376.913 294.073 384.135 294.073 Q391.404 294.073 395.015 286.99 Q398.672 279.86 398.672 265.648 Q398.672 251.388 395.015 244.305 Q391.404 237.175 384.135 237.175 M384.135 229.768 Q395.756 229.768 401.867 238.981 Q408.024 248.148 408.024 265.648 Q408.024 283.101 401.867 292.314 Q395.756 301.481 384.135 301.481 Q372.515 301.481 366.358 292.314 Q360.247 283.101 360.247 265.648 Q360.247 248.148 366.358 238.981 Q372.515 229.768 384.135 229.768 Z" fill="#000000" fill-rule="nonzero" fill-opacity="1" /><path clip-path="url(#clip410)" d="M480.802 249.212 L459.644 270.462 L480.802 291.62 L475.292 297.221 L454.042 275.972 L432.793 297.221 L427.33 291.62 L448.441 270.462 L427.33 249.212 L432.793 243.611 L454.042 264.861 L475.292 243.611 L480.802 249.212 Z" fill="#000000" fill-rule="nonzero" fill-opacity="1" /><path clip-path="url(#clip410)" d="M505.524 292.268 L520.801 292.268 L520.801 239.537 L504.181 242.87 L504.181 234.351 L520.709 231.018 L530.061 231.018 L530.061 292.268 L545.338 292.268 L545.338 300.138 L505.524 300.138 L505.524 292.268 Z" fill="#000000" fill-rule="nonzero" fill-opacity="1" /><path clip-path="url(#clip410)" d="M584.227 237.175 Q577.005 237.175 573.347 244.305 Q569.736 251.388 569.736 265.648 Q569.736 279.86 573.347 286.99 Q577.005 294.073 584.227 294.073 Q591.495 294.073 595.106 286.99 Q598.764 279.86 598.764 265.648 Q598.764 251.388 595.106 244.305 Q591.495 237.175 584.227 237.175 M584.227 229.768 Q595.847 229.768 601.958 238.981 Q608.116 248.148 608.116 265.648 Q608.116 283.101 601.958 292.314 Q595.847 301.481 584.227 301.481 Q572.607 301.481 566.449 292.314 Q560.338 283.101 560.338 265.648 Q560.338 248.148 566.449 238.981 Q572.607 229.768 584.227 229.768 Z" fill="#000000" fill-rule="nonzero" fill-opacity="1" /><path clip-path="url(#clip410)" d="M608.116 217.971 L656.339 217.971 L656.339 224.365 L608.116 224.365 L608.116 217.971 Z" fill="#000000" fill-rule="nonzero" fill-opacity="1" /><path clip-path="url(#clip410)" d="M672.814 189.157 L702.643 189.157 L702.643 195.552 L679.773 195.552 L679.773 209.319 Q681.428 208.755 683.083 208.492 Q684.738 208.191 686.394 208.191 Q695.797 208.191 701.289 213.344 Q706.781 218.497 706.781 227.299 Q706.781 236.365 701.139 241.405 Q695.497 246.408 685.227 246.408 Q681.692 246.408 678.005 245.806 Q674.357 245.204 670.445 244.001 L670.445 236.365 Q673.83 238.208 677.441 239.111 Q681.052 240.014 685.077 240.014 Q691.585 240.014 695.384 236.591 Q699.183 233.167 699.183 227.299 Q699.183 221.431 695.384 218.008 Q691.585 214.585 685.077 214.585 Q682.03 214.585 678.983 215.262 Q675.974 215.94 672.814 217.369 L672.814 189.157 Z" fill="#000000" fill-rule="nonzero" fill-opacity="1" /><path clip-path="url(#clip410)" d="M281.729 102.348 L314.367 102.348 L314.367 110.218 L270.479 110.218 L270.479 102.348 Q275.803 96.8386 284.969 87.5794 Q294.182 78.2739 296.543 75.5887 Q301.034 70.5425 302.793 67.0703 Q304.599 63.5518 304.599 60.1722 Q304.599 54.6629 300.71 51.1907 Q296.867 47.7185 290.664 47.7185 Q286.266 47.7185 281.358 49.2463 Q276.497 50.7741 270.942 53.8759 L270.942 44.4315 Q276.59 42.163 281.497 41.0056 Q286.404 39.8482 290.478 39.8482 Q301.219 39.8482 307.608 45.2185 Q313.997 50.5889 313.997 59.5703 Q313.997 63.8295 312.376 67.6721 Q310.802 71.4684 306.589 76.6536 Q305.432 77.9961 299.228 84.4313 Q293.025 90.8201 281.729 102.348 Z" fill="#000000" fill-rule="nonzero" fill-opacity="1" /><path clip-path="url(#clip410)" d="M333.997 98.459 L343.765 98.459 L343.765 110.218 L333.997 110.218 L333.997 98.459 Z" fill="#000000" fill-rule="nonzero" fill-opacity="1" /><path clip-path="url(#clip410)" d="M384.135 47.2556 Q376.913 47.2556 373.256 54.3852 Q369.645 61.4684 369.645 75.7276 Q369.645 89.9405 373.256 97.0701 Q376.913 104.153 384.135 104.153 Q391.404 104.153 395.015 97.0701 Q398.672 89.9405 398.672 75.7276 Q398.672 61.4684 395.015 54.3852 Q391.404 47.2556 384.135 47.2556 M384.135 39.8482 Q395.756 39.8482 401.867 49.0611 Q408.024 58.2277 408.024 75.7276 Q408.024 93.1812 401.867 102.394 Q395.756 111.561 384.135 111.561 Q372.515 111.561 366.358 102.394 Q360.247 93.1812 360.247 75.7276 Q360.247 58.2277 366.358 49.0611 Q372.515 39.8482 384.135 39.8482 Z" fill="#000000" fill-rule="nonzero" fill-opacity="1" /><path clip-path="url(#clip410)" d="M480.802 59.2925 L459.644 80.5424 L480.802 101.7 L475.292 107.302 L454.042 86.0516 L432.793 107.302 L427.33 101.7 L448.441 80.5424 L427.33 59.2925 L432.793 53.6907 L454.042 74.9406 L475.292 53.6907 L480.802 59.2925 Z" fill="#000000" fill-rule="nonzero" fill-opacity="1" /><path clip-path="url(#clip410)" d="M505.524 102.348 L520.801 102.348 L520.801 49.6167 L504.181 52.95 L504.181 44.4315 L520.709 41.0982 L530.061 41.0982 L530.061 102.348 L545.338 102.348 L545.338 110.218 L505.524 110.218 L505.524 102.348 Z" fill="#000000" fill-rule="nonzero" fill-opacity="1" /><path clip-path="url(#clip410)" d="M584.227 47.2556 Q577.005 47.2556 573.347 54.3852 Q569.736 61.4684 569.736 75.7276 Q569.736 89.9405 573.347 97.0701 Q577.005 104.153 584.227 104.153 Q591.495 104.153 595.106 97.0701 Q598.764 89.9405 598.764 75.7276 Q598.764 61.4684 595.106 54.3852 Q591.495 47.2556 584.227 47.2556 M584.227 39.8482 Q595.847 39.8482 601.958 49.0611 Q608.116 58.2277 608.116 75.7276 Q608.116 93.1812 601.958 102.394 Q595.847 111.561 584.227 111.561 Q572.607 111.561 566.449 102.394 Q560.338 93.1812 560.338 75.7276 Q560.338 58.2277 566.449 49.0611 Q572.607 39.8482 584.227 39.8482 Z" fill="#000000" fill-rule="nonzero" fill-opacity="1" /><path clip-path="url(#clip410)" d="M608.116 28.0509 L656.339 28.0509 L656.339 34.4455 L608.116 34.4455 L608.116 28.0509 Z" fill="#000000" fill-rule="nonzero" fill-opacity="1" /><path clip-path="url(#clip410)" d="M672.814 -0.762613 L702.643 -0.762613 L702.643 5.63203 L679.773 5.63203 L679.773 19.3993 Q681.428 18.8351 683.083 18.5718 Q684.738 18.2708 686.394 18.2708 Q695.797 18.2708 701.289 23.4242 Q706.781 28.5775 706.781 37.3795 Q706.781 46.4449 701.139 51.4854 Q695.497 56.4882 685.227 56.4882 Q681.692 56.4882 678.005 55.8864 Q674.357 55.2845 670.445 54.0808 L670.445 46.4449 Q673.83 48.288 677.441 49.1908 Q681.052 50.0936 685.077 50.0936 Q691.585 50.0936 695.384 46.6706 Q699.183 43.2476 699.183 37.3795 Q699.183 31.5115 695.384 28.0885 Q691.585 24.6655 685.077 24.6655 Q682.03 24.6655 678.983 25.3426 Q675.974 26.0197 672.814 27.449 L672.814 -0.762613 Z" fill="#000000" fill-rule="nonzero" fill-opacity="1" /><path clip-path="url(#clip410)" d="M21.0484 714.591 L21.0484 704.07 L52.9232 704.07 L52.9232 665.842 L21.0484 665.842 L21.0484 655.321 L98.8084 655.321 L98.8084 665.842 L61.7773 665.842 L61.7773 704.07 L98.8084 704.07 L98.8084 714.591 L21.0484 714.591 Z" fill="#000000" fill-rule="nonzero" fill-opacity="1" /><path clip-path="url(#clip410)" d="M28.1838 602.821 Q28.1838 614.279 36.7254 621.05 Q45.267 627.769 60.0065 627.769 Q74.6939 627.769 83.2355 621.05 Q91.7772 614.279 91.7772 602.821 Q91.7772 591.363 83.2355 584.696 Q74.6939 577.977 60.0065 577.977 Q45.267 577.977 36.7254 584.696 Q28.1838 591.363 28.1838 602.821 M19.6421 602.821 Q19.6421 586.467 30.6317 576.675 Q41.5691 566.884 60.0065 566.884 Q78.3918 566.884 89.3813 576.675 Q100.319 586.467 100.319 602.821 Q100.319 619.227 89.3813 629.071 Q78.4439 638.862 60.0065 638.862 Q41.5691 638.862 30.6317 629.071 Q19.6421 619.227 19.6421 602.821 Z" fill="#000000" fill-rule="nonzero" fill-opacity="1" /><path clip-path="url(#clip410)" d="M17.8713 493.915 Q29.8504 500.894 41.5691 504.28 Q53.2878 507.665 65.319 507.665 Q77.3502 507.665 89.173 504.28 Q100.944 500.842 112.871 493.915 L112.871 502.249 Q100.631 510.061 88.8084 513.967 Q76.9856 517.821 65.319 517.821 Q53.7045 517.821 41.9337 513.967 Q30.1629 510.113 17.8713 502.249 L17.8713 493.915 Z" fill="#000000" fill-rule="nonzero" fill-opacity="1" /><path clip-path="url(#clip410)" d="M90.0584 466.051 L120.996 466.051 L120.996 475.686 L40.4754 475.686 L40.4754 466.051 L49.3295 466.051 Q44.1212 463.03 41.6212 458.447 Q39.0691 453.811 39.0691 447.405 Q39.0691 436.78 47.5066 430.166 Q55.944 423.499 69.694 423.499 Q83.4439 423.499 91.8813 430.166 Q100.319 436.78 100.319 447.405 Q100.319 453.811 97.8188 458.447 Q95.2667 463.03 90.0584 466.051 M69.694 433.447 Q59.1211 433.447 53.1315 437.822 Q47.0899 442.145 47.0899 449.749 Q47.0899 457.353 53.1315 461.728 Q59.1211 466.051 69.694 466.051 Q80.2668 466.051 86.3084 461.728 Q92.298 457.353 92.298 449.749 Q92.298 442.145 86.3084 437.822 Q80.2668 433.447 69.694 433.447 Z" fill="#000000" fill-rule="nonzero" fill-opacity="1" /><path clip-path="url(#clip410)" d="M90.0584 398.343 L120.996 398.343 L120.996 407.978 L40.4754 407.978 L40.4754 398.343 L49.3295 398.343 Q44.1212 395.322 41.6212 390.739 Q39.0691 386.103 39.0691 379.697 Q39.0691 369.072 47.5066 362.458 Q55.944 355.791 69.694 355.791 Q83.4439 355.791 91.8813 362.458 Q100.319 369.072 100.319 379.697 Q100.319 386.103 97.8188 390.739 Q95.2667 395.322 90.0584 398.343 M69.694 365.739 Q59.1211 365.739 53.1315 370.114 Q47.0899 374.437 47.0899 382.041 Q47.0899 389.645 53.1315 394.02 Q59.1211 398.343 69.694 398.343 Q80.2668 398.343 86.3084 394.02 Q92.298 389.645 92.298 382.041 Q92.298 374.437 86.3084 370.114 Q80.2668 365.739 69.694 365.739 Z" fill="#000000" fill-rule="nonzero" fill-opacity="1" /><path clip-path="url(#clip410)" d="M51.6732 294.489 Q45.2149 290.896 42.142 285.896 Q39.0691 280.896 39.0691 274.125 Q39.0691 265.01 45.4753 260.062 Q51.8295 255.115 63.6002 255.115 L98.8084 255.115 L98.8084 264.75 L63.9127 264.75 Q55.5274 264.75 51.4649 267.719 Q47.4024 270.687 47.4024 276.781 Q47.4024 284.229 52.3503 288.552 Q57.2982 292.875 65.8398 292.875 L98.8084 292.875 L98.8084 302.51 L63.9127 302.51 Q55.4753 302.51 51.4649 305.479 Q47.4024 308.448 47.4024 314.645 Q47.4024 321.989 52.4024 326.312 Q57.3503 330.635 65.8398 330.635 L98.8084 330.635 L98.8084 340.27 L40.4754 340.27 L40.4754 330.635 L49.5378 330.635 Q44.1733 327.354 41.6212 322.77 Q39.0691 318.187 39.0691 311.885 Q39.0691 305.531 42.2983 301.104 Q45.5274 296.625 51.6732 294.489 Z" fill="#000000" fill-rule="nonzero" fill-opacity="1" /><path clip-path="url(#clip410)" d="M17.8713 237.51 L17.8713 229.177 Q30.1629 221.365 41.9337 217.511 Q53.7045 213.604 65.319 213.604 Q76.9856 213.604 88.8084 217.511 Q100.631 221.365 112.871 229.177 L112.871 237.51 Q100.944 230.583 89.173 227.198 Q77.3502 223.761 65.319 223.761 Q53.2878 223.761 41.5691 227.198 Q29.8504 230.583 17.8713 237.51 Z" fill="#000000" fill-rule="nonzero" fill-opacity="1" /><path clip-path="url(#clip412)" d="M891.252 769.764 L908.69 772.319 L926.127 825.997 L943.564 857.356 L961.002 841.466 L978.439 785.884 L995.876 761.35 L1013.31 757.268 L1030.75 727.019 L1048.19 756.862 L1065.63 748.159 L1083.06 724.767 L1100.5 777.904 L1117.94 779.41 L1135.38 742.103 L1152.81 755.067 L1170.25 751.146 L1187.69 749.524 L1205.12 739.808 L1222.56 727.993 L1240 728.224 L1257.44 750.832 L1274.87 728.909 L1292.31 757.607 L1309.75 786.6 L1327.19 772.202 L1344.62 814.337 L1362.06 847.221 L1379.5 836.872 L1396.94 784.871 L1414.37 756.514 L1431.81 755.307 L1449.25 745.609 L1466.69 772.815 L1484.12 751.986 L1501.56 730.585 L1519 781.122 L1536.43 780.289 L1553.87 741.981 L1571.31 752.466 L1588.75 750.435 L1606.18 749.376 L1623.62 739.09 L1641.06 727.952 L1658.5 728.759 L1675.93 751.004 L1693.37 728.989 L1710.81 757.198 L1728.25 786.401 L1745.68 772.062 L1763.12 814.409 L1780.56 847.526 L1797.99 837.043 L1815.43 784.908 L1832.87 756.507 L1850.31 755.067 L1867.74 745.094 L1885.18 772.77 L1902.62 752.59 L1920.06 730.946 L1937.49 781.065 L1954.93 780.219 L1972.37 742.05 L1989.81 752.606 L2007.24 750.439 L2024.68 749.461 L2042.12 739.169 L2059.56 728.025 L2076.99 728.676 L2094.43 751.039 L2111.87 729.031 L2129.3 757.225 L2146.74 786.378 L2164.18 772.048 L2181.62 814.334 L2199.05 847.483 L2216.49 836.999 L2233.93 784.886 L2251.37 756.576 L2268.8 755.197 L2286.24 745.211 L2303.68 772.737 L2321.12 752.316 L2338.55 730.753 L2355.99 781.06 L2373.43 780.277 L2390.87 742.004 L2408.3 752.548 L2425.74 750.431 L2443.18 749.448 L2460.61 739.234 L2478.05 728.017 L2495.49 728.749 L2512.93 751.039 L2530.36 728.993 L2547.8 757.224 L2565.24 786.444 L2582.68 772.07 L2600.11 814.364 L2617.55 847.5 L2634.99 837.007 L2652.43 784.873 L2669.86 756.464 L2687.3 755.086 L2704.74 745.141 L2722.18 772.754 L2739.61 752.459 L2757.05 730.787 L2774.49 781.011 L2791.92 780.22 L2809.36 742.051 L2826.8 752.59 L2844.24 750.394 L2861.67 749.49 L2879.11 739.163 L2896.55 727.977 L2913.99 728.724 L2931.42 751.058 L2948.86 729.023 L2966.3 757.221 L2983.74 786.383 L3001.17 772.036 L3018.61 814.331 L3036.05 847.501 L3053.49 836.984 L3070.92 784.869 L3088.36 756.523 L3105.8 755.149 L3123.23 745.155 L3140.67 772.735 L3158.11 752.365 L3175.55 730.766 L3192.98 781.042 L3210.42 780.255 L3227.86 742.027 L3245.3 752.545 L3262.73 750.377 L3280.17 749.497 L3297.61 739.133 L3315.05 727.995 L3332.48 728.712 L3349.92 751.011 L3367.36 728.996 L3384.79 757.219 L3402.23 786.421 L3419.67 772.037 L3437.11 814.349 L3454.54 847.478 L3471.98 836.974 L3489.42 784.856 L3506.86 756.548 L3524.29 755.133 L3541.73 745.106 L3559.17 772.731 L3576.61 752.407 L3594.04 730.802 L3611.48 780.989 L3628.92 780.199 L3646.36 742.004 L3663.79 752.546 L3681.23 750.403 L3698.67 749.484 L3716.1 739.195 L3733.54 727.969 L3750.98 728.706 L3768.42 751.047 L3785.85 729.008 L3803.29 757.204 L3820.73 786.388 L3838.17 772.035 L3855.6 814.322 L3873.04 847.406 L3890.48 836.966 L3907.92 784.852 L3925.35 756.518 L3942.79 755.122 L3960.23 745.113 L3977.67 772.699 L3995.1 752.364 L4012.54 730.769 L4029.98 780.982 L4047.41 780.207 L4064.85 741.984 L4082.29 752.548 L4099.73 750.418 L4117.16 749.471 L4134.6 739.103 L4152.04 727.936 L4169.48 728.714 L4186.91 751.034 L4204.35 728.976 L4221.79 757.195 L4239.23 786.378 L4256.66 772.02 L4274.1 814.323 L4291.54 847.473 L4308.98 836.971 L4326.41 784.853 L4343.85 756.514 L4361.29 755.122 L4378.72 745.064 L4396.16 772.66 L4413.6 752.375 L4431.04 730.801 L4448.47 780.978 L4465.91 780.153 L4483.35 741.969 L4500.79 752.568 L4518.22 750.421 L4535.66 749.37 L4553.1 739.149 L4570.54 727.938 L4587.97 728.721 L4605.41 751.035 L4622.85 728.945 L4640.28 757.183 L4640.28 236.761 L4622.85 116.455 L4605.41 272.163 L4587.97 173.242 L4570.54 109.21 L4553.1 223.202 L4535.66 195.851 L4518.22 206.025 L4500.79 178.851 L4483.35 98.8512 L4465.91 144.171 L4448.47 213.197 L4431.04 180.443 L4413.6 181.232 L4396.16 154.29 L4378.72 236.521 L4361.29 151.307 L4343.85 188.448 L4326.41 197.693 L4308.98 172.568 L4291.54 153.286 L4274.1 164.331 L4256.66 78.9108 L4239.23 180.169 L4221.79 236.733 L4204.35 116.527 L4186.91 270.396 L4169.48 173.537 L4152.04 109.213 L4134.6 222.858 L4117.16 195.526 L4099.73 204.207 L4082.29 177.859 L4064.85 97.3087 L4047.41 144.22 L4029.98 211.921 L4012.54 180.721 L3995.1 183.509 L3977.67 154.41 L3960.23 237.318 L3942.79 151.586 L3925.35 190.917 L3907.92 199.442 L3890.48 171.37 L3873.04 153.316 L3855.6 166.196 L3838.17 79.1545 L3820.73 180.363 L3803.29 236.741 L3785.85 116.48 L3768.42 271.77 L3750.98 171.712 L3733.54 108.802 L3716.1 222.917 L3698.67 195.728 L3681.23 202.024 L3663.79 177.517 L3646.36 98.2935 L3628.92 144.182 L3611.48 215.222 L3594.04 180.435 L3576.61 181.597 L3559.17 154.6 L3541.73 236.456 L3524.29 151.333 L3506.86 190.35 L3489.42 198.342 L3471.98 172.536 L3454.54 153.678 L3437.11 163.594 L3419.67 79.4443 L3402.23 181.013 L3384.79 236.728 L3367.36 116.537 L3349.92 269.702 L3332.48 172.452 L3315.05 109.282 L3297.61 222.931 L3280.17 195.645 L3262.73 204.605 L3245.3 177.72 L3227.86 98.8245 L3210.42 144.14 L3192.98 213.195 L3175.55 180.753 L3158.11 183.553 L3140.67 154.399 L3123.23 237.069 L3105.8 152.664 L3088.36 187.736 L3070.92 197.842 L3053.49 171.327 L3036.05 153.367 L3018.61 165.264 L3001.17 79.127 L2983.74 180.139 L2966.3 236.802 L2948.86 116.468 L2931.42 270.504 L2913.99 173.596 L2896.55 109.013 L2879.11 223.382 L2861.67 195.738 L2844.24 204.6 L2826.8 178.818 L2809.36 97.7822 L2791.92 144.037 L2774.49 213.675 L2757.05 180.61 L2739.61 182.761 L2722.18 154.539 L2704.74 237.61 L2687.3 152.496 L2669.86 189.771 L2652.43 199.619 L2634.99 172.662 L2617.55 154.035 L2600.11 165.371 L2582.68 79.9494 L2565.24 180.534 L2547.8 236.474 L2530.36 116.5 L2512.93 270.632 L2495.49 176.057 L2478.05 109.243 L2460.61 224.816 L2443.18 195.829 L2425.74 209.596 L2408.3 178.812 L2390.87 98.2499 L2373.43 144.66 L2355.99 213.934 L2338.55 182.81 L2321.12 183.621 L2303.68 154.726 L2286.24 234.218 L2268.8 152.525 L2251.37 187.946 L2233.93 196.748 L2216.49 171.304 L2199.05 153.258 L2181.62 163.512 L2164.18 79.3616 L2146.74 179.54 L2129.3 237.63 L2111.87 117.476 L2094.43 270.075 L2076.99 172.305 L2059.56 109.217 L2042.12 224.259 L2024.68 190.719 L2007.24 208.789 L1989.81 178.406 L1972.37 98.8464 L1954.93 145.605 L1937.49 214.15 L1920.06 177.693 L1902.62 182.879 L1885.18 155.357 L1867.74 240.561 L1850.31 150.602 L1832.87 188.885 L1815.43 203.853 L1797.99 174.031 L1780.56 155.932 L1763.12 163.788 L1745.68 78.6098 L1728.25 183.724 L1710.81 233.204 L1693.37 116.11 L1675.93 271.907 L1658.5 176.299 L1641.06 109.333 L1623.62 223.288 L1606.18 195.7 L1588.75 208.435 L1571.31 175.876 L1553.87 97.5291 L1536.43 140.255 L1519 205.444 L1501.56 191.39 L1484.12 173.363 L1466.69 138.776 L1449.25 229.823 L1431.81 163.917 L1414.37 184.515 L1396.94 189.235 L1379.5 166.434 L1362.06 152.016 L1344.62 165.512 L1327.19 70.8396 L1309.75 170.785 L1292.31 225.816 L1274.87 117.019 L1257.44 266.276 L1240 162.623 L1222.56 107.527 L1205.12 223.64 L1187.69 175.149 L1170.25 182.615 L1152.81 165.186 L1135.38 106.673 L1117.94 155.465 L1100.5 218.663 L1083.06 240.438 L1065.63 168.87 L1048.19 262.276 L1030.75 231.972 L1013.31 142.637 L995.876 321.327 L978.439 318.734 L961.002 317.027 L943.564 253.017 L926.127 281.094 L908.69 320.13 L891.252 348.764  Z" fill="#c8c8c8" fill-rule="evenodd" fill-opacity="0.5"/>
<polyline clip-path="url(#clip412)" style="stroke:#c8c8c8; stroke-linecap:round; stroke-linejoin:round; stroke-width:0; stroke-opacity:1; fill:none" points="891.252,442.663 908.69,449.4 926.127,450.101 943.564,450.145 961.002,450.898 978.439,451.377 995.876,451.053 1013.31,449.699 1030.75,448.95 1048.19,449 1065.63,448.51 1083.06,447.633 1100.5,447.259 1117.94,446.571 1135.38,446.327 1152.81,446.575 1170.25,446.753 1187.69,446.69 1205.12,446.327 1222.56,445.538 1240,446.136 1257.44,447.519 1274.87,447.527 1292.31,448.548 1309.75,448.597 1327.19,448.515 1344.62,448.908 1362.06,448.97 1379.5,449.25 1396.94,449.58 1414.37,449.408 1431.81,449.13 1449.25,450.131 1466.69,448.829 1484.12,447.944 1501.56,447.607 1519,448.283 1536.43,447.885 1553.87,447.125 1571.31,447.172 1588.75,447.23 1606.18,446.744 1623.62,446.096 1641.06,445.568 1658.5,446.331 1675.93,447.537 1693.37,447.586 1710.81,448.436 1728.25,448.585 1745.68,448.374 1763.12,448.779 1780.56,449.159 1797.99,449.409 1815.43,449.647 1832.87,449.43 1850.31,448.906 1867.74,449.82 1885.18,448.9 1902.62,448.586 1920.06,447.935 1937.49,448.194 1954.93,447.818 1972.37,447.232 1989.81,447.252 2007.24,447.205 2024.68,446.786 2042.12,446.285 2059.56,445.677 2076.99,446.321 2094.43,447.6 2111.87,447.638 2129.3,448.469 2146.74,448.568 2164.18,448.367 2181.62,448.719 2199.05,449.145 2216.49,449.369 2233.93,449.631 2251.37,449.465 2268.8,449.013 2286.24,449.942 2303.68,448.874 2321.12,448.321 2338.55,447.75 2355.99,448.233 2373.43,447.897 2390.87,447.179 2408.3,447.225 2425.74,447.258 2443.18,446.807 2460.61,446.246 2478.05,445.657 2495.49,446.354 2512.93,447.566 2530.36,447.607 2547.8,448.476 2565.24,448.608 2582.68,448.399 2600.11,448.751 2617.55,449.152 2634.99,449.388 2652.43,449.625 2669.86,449.423 2687.3,448.947 2704.74,449.873 2722.18,448.892 2739.61,448.474 2757.05,447.856 2774.49,448.212 2791.92,447.851 2809.36,447.222 2826.8,447.274 2844.24,447.231 2861.67,446.783 2879.11,446.258 2896.55,445.651 2913.99,446.326 2931.42,447.589 2948.86,447.637 2966.3,448.48 2983.74,448.582 3001.17,448.371 3018.61,448.726 3036.05,449.152 3053.49,449.382 3070.92,449.619 3088.36,449.425 3105.8,448.976 3123.23,449.912 3140.67,448.883 3158.11,448.39 3175.55,447.795 3192.98,448.219 3210.42,447.889 3227.86,447.214 3245.3,447.253 3262.73,447.235 3280.17,446.787 3297.61,446.25 3315.05,445.661 3332.48,446.339 3349.92,447.591 3367.36,447.632 3384.79,448.485 3402.23,448.59 3419.67,448.382 3437.11,448.749 3454.54,449.145 3471.98,449.379 3489.42,449.607 3506.86,449.42 3524.29,448.945 3541.73,449.885 3559.17,448.895 3576.61,448.445 3594.04,447.844 3611.48,448.231 3628.92,447.872 3646.36,447.219 3663.79,447.263 3681.23,447.22 3698.67,446.775 3716.1,446.245 3733.54,445.649 3750.98,446.331 3768.42,447.599 3785.85,447.645 3803.29,448.479 3820.73,448.581 3838.17,448.386 3855.6,448.736 3873.04,449.136 3890.48,449.382 3907.92,449.622 3925.35,449.438 3942.79,448.956 3960.23,449.905 3977.67,448.895 3995.1,448.412 4012.54,447.789 4029.98,448.208 4047.41,447.881 4064.85,447.21 4082.29,447.246 4099.73,447.232 4117.16,446.788 4134.6,446.256 4152.04,445.654 4169.48,446.33 4186.91,447.583 4204.35,447.624 4221.79,448.477 4239.23,448.584 4256.66,448.378 4274.1,448.739 4291.54,449.146 4308.98,449.391 4326.41,449.624 4343.85,449.439 4361.29,448.962 4378.72,449.871 4396.16,448.863 4413.6,448.434 4431.04,447.829 4448.47,448.21 4465.91,447.857 4483.35,447.213 4500.79,447.249 4518.22,447.224 4535.66,446.776 4553.1,446.245 4570.54,445.641 4587.97,446.317 4605.41,447.575 4622.85,447.62 4640.28,448.486 "/>
<path clip-path="url(#clip412)" d="M891.252 588.174 L908.69 613.321 L926.127 614.024 L943.564 596.532 L961.002 604.574 L978.439 596.214 L995.876 592.022 L1013.31 597.239 L1030.75 585.538 L1048.19 605.243 L1065.63 595.184 L1083.06 598.541 L1100.5 593.916 L1117.94 584.993 L1135.38 580.208 L1152.81 577.595 L1170.25 582.362 L1187.69 567.904 L1205.12 579.555 L1222.56 578.561 L1240 584.011 L1257.44 594.572 L1274.87 595.01 L1292.31 598.602 L1309.75 600.618 L1327.19 601.544 L1344.62 602.572 L1362.06 591.663 L1379.5 585.971 L1396.94 590.37 L1414.37 588.346 L1431.81 591.912 L1449.25 585.298 L1466.69 600.726 L1484.12 594.275 L1501.56 599.619 L1519 589.798 L1536.43 588.716 L1553.87 580.998 L1571.31 579.7 L1588.75 581.674 L1606.18 568.666 L1623.62 578.149 L1641.06 574.799 L1658.5 591.557 L1675.93 597.787 L1693.37 597.78 L1710.81 598.494 L1728.25 600.719 L1745.68 601.235 L1763.12 600.464 L1780.56 590.778 L1797.99 585.619 L1815.43 590.439 L1832.87 588.08 L1850.31 591.675 L1867.74 584.972 L1885.18 600.686 L1902.62 595.164 L1920.06 600.404 L1937.49 594.58 L1954.93 588.724 L1972.37 581.056 L1989.81 579.854 L2007.24 581.545 L2024.68 568.781 L2042.12 580.413 L2059.56 579.078 L2076.99 589.442 L2094.43 597.989 L2111.87 594.949 L2129.3 598.536 L2146.74 600.656 L2164.18 601.215 L2181.62 600.514 L2199.05 590.764 L2216.49 585.45 L2233.93 590.412 L2251.37 588.176 L2268.8 591.767 L2286.24 585.102 L2303.68 600.669 L2321.12 594.909 L2338.55 600.24 L2355.99 589.791 L2373.43 588.78 L2390.87 580.982 L2408.3 579.832 L2425.74 581.659 L2443.18 568.804 L2460.61 580.37 L2478.05 574.798 L2495.49 591.077 L2512.93 597.963 L2530.36 596.561 L2547.8 598.538 L2565.24 600.728 L2582.68 601.243 L2600.11 600.399 L2617.55 590.756 L2634.99 585.511 L2652.43 590.4 L2669.86 588.145 L2687.3 591.694 L2704.74 585.009 L2722.18 600.662 L2739.61 595.063 L2757.05 600.359 L2774.49 592.055 L2791.92 588.732 L2809.36 581.019 L2826.8 579.87 L2844.24 581.57 L2861.67 568.714 L2879.11 580.401 L2896.55 575.541 L2913.99 590.434 L2931.42 597.96 L2948.86 595.695 L2966.3 598.545 L2983.74 600.663 L3001.17 601.218 L3018.61 600.422 L3036.05 590.742 L3053.49 585.509 L3070.92 590.388 L3088.36 588.153 L3105.8 591.713 L3123.23 585.052 L3140.67 600.657 L3158.11 594.988 L3175.55 600.312 L3192.98 589.721 L3210.42 588.751 L3227.86 581.006 L3245.3 579.855 L3262.73 581.627 L3280.17 568.775 L3297.61 580.343 L3315.05 574.602 L3332.48 590.687 L3349.92 597.976 L3367.36 596.263 L3384.79 598.554 L3402.23 600.696 L3419.67 601.231 L3437.11 600.392 L3454.54 590.742 L3471.98 585.546 L3489.42 590.376 L3506.86 588.123 L3524.29 591.675 L3541.73 585.045 L3559.17 600.658 L3576.61 595.015 L3594.04 600.298 L3611.48 591.254 L3628.92 588.742 L3646.36 581.061 L3663.79 579.858 L3681.23 581.58 L3698.67 568.742 L3716.1 580.363 L3733.54 574.688 L3750.98 590.576 L3768.42 597.968 L3785.85 596.31 L3803.29 598.515 L3820.73 600.671 L3838.17 601.226 L3855.6 600.416 L3873.04 590.735 L3890.48 585.501 L3907.92 590.385 L3925.35 588.133 L3942.79 591.687 L3960.23 585.015 L3977.67 600.599 L3995.1 594.992 L4012.54 600.281 L4029.98 589.722 L4047.41 588.744 L4064.85 581.046 L4082.29 579.851 L4099.73 581.593 L4117.16 568.698 L4134.6 580.411 L4152.04 574.735 L4169.48 590.515 L4186.91 597.941 L4204.35 596.245 L4221.79 598.535 L4239.23 600.691 L4256.66 601.222 L4274.1 600.483 L4291.54 590.721 L4308.98 585.514 L4326.41 590.379 L4343.85 588.061 L4361.29 591.676 L4378.72 585.019 L4396.16 600.632 L4413.6 594.997 L4431.04 600.281 L4448.47 590.474 L4465.91 588.713 L4483.35 580.975 L4500.79 579.839 L4518.22 581.575 L4535.66 568.684 L4553.1 580.392 L4570.54 574.693 L4587.97 590.582 L4605.41 597.923 L4622.85 596.034 L4640.28 598.54 L4640.28 362.551 L4622.85 364.123 L4605.41 358.789 L4587.97 361.754 L4570.54 353.182 L4553.1 365.749 L4535.66 370.208 L4518.22 367.427 L4500.79 365.764 L4483.35 362.833 L4465.91 363.717 L4448.47 363.888 L4431.04 359.429 L4413.6 362.111 L4396.16 361.678 L4378.72 364.608 L4361.29 362.878 L4343.85 361.871 L4326.41 364.207 L4308.98 365.798 L4291.54 365.64 L4274.1 361.241 L4256.66 358.425 L4239.23 363.931 L4221.79 362.576 L4204.35 364.073 L4186.91 358.842 L4169.48 361.739 L4152.04 353.169 L4134.6 365.802 L4117.16 370.143 L4099.73 368.156 L4082.29 366.045 L4064.85 362.703 L4047.41 363.181 L4029.98 364.006 L4012.54 359.392 L3995.1 362.099 L3977.67 361.751 L3960.23 364.64 L3942.79 362.964 L3925.35 361.767 L3907.92 364.226 L3890.48 365.771 L3873.04 365.566 L3855.6 361.681 L3838.17 358.414 L3820.73 363.912 L3803.29 362.536 L3785.85 364.161 L3768.42 358.717 L3750.98 361.871 L3733.54 353.224 L3716.1 365.848 L3698.67 370.133 L3681.23 367.322 L3663.79 365.864 L3646.36 362.575 L3628.92 363.546 L3611.48 363.908 L3594.04 359.466 L3576.61 362.157 L3559.17 361.757 L3541.73 364.516 L3524.29 362.789 L3506.86 361.752 L3489.42 364.204 L3471.98 365.815 L3454.54 365.628 L3437.11 361.073 L3419.67 358.675 L3402.23 363.919 L3384.79 362.547 L3367.36 363.981 L3349.92 358.879 L3332.48 361.781 L3315.05 353.179 L3297.61 365.758 L3280.17 370.19 L3262.73 368.281 L3245.3 366.061 L3227.86 362.819 L3210.42 363.816 L3192.98 365.34 L3175.55 359.4 L3158.11 362.107 L3140.67 361.694 L3123.23 364.651 L3105.8 362.954 L3088.36 361.884 L3070.92 364.236 L3053.49 365.838 L3036.05 365.589 L3018.61 361.414 L3001.17 358.387 L2983.74 363.934 L2966.3 362.592 L2948.86 364.029 L2931.42 358.697 L2913.99 361.812 L2896.55 353.176 L2879.11 365.72 L2861.67 370.151 L2844.24 366.978 L2826.8 365.98 L2809.36 362.865 L2791.92 362.969 L2774.49 363.872 L2757.05 359.467 L2739.61 362.195 L2722.18 361.823 L2704.74 364.585 L2687.3 362.906 L2669.86 362.219 L2652.43 364.227 L2634.99 365.785 L2617.55 365.576 L2600.11 361.162 L2582.68 358.682 L2565.24 364.102 L2547.8 362.525 L2530.36 364.038 L2512.93 358.878 L2495.49 361.831 L2478.05 353.208 L2460.61 365.836 L2443.18 370.203 L2425.74 368.302 L2408.3 365.953 L2390.87 362.717 L2373.43 363.145 L2355.99 367.219 L2338.55 359.366 L2321.12 362.081 L2303.68 361.552 L2286.24 364.613 L2268.8 363.174 L2251.37 361.792 L2233.93 364.3 L2216.49 365.826 L2199.05 365.586 L2181.62 362.32 L2164.18 358.398 L2146.74 364.261 L2129.3 362.527 L2111.87 364.062 L2094.43 358.914 L2076.99 361.798 L2059.56 353.226 L2042.12 365.766 L2024.68 370.25 L2007.24 366.445 L1989.81 365.981 L1972.37 362.834 L1954.93 363.106 L1937.49 363.261 L1920.06 359.569 L1902.62 362.307 L1885.18 361.73 L1867.74 364.18 L1850.31 363.239 L1832.87 364.231 L1815.43 364.299 L1797.99 365.849 L1780.56 365.607 L1763.12 362.743 L1745.68 360.167 L1728.25 365.949 L1710.81 362.55 L1693.37 363.976 L1675.93 359.165 L1658.5 361.862 L1641.06 353.313 L1623.62 364.1 L1606.18 369.664 L1588.75 368.231 L1571.31 366.1 L1553.87 362.8 L1536.43 363.218 L1519 369.051 L1501.56 359.225 L1484.12 361.633 L1466.69 359.153 L1449.25 365.028 L1431.81 364.726 L1414.37 361.754 L1396.94 364.205 L1379.5 367.448 L1362.06 365.348 L1344.62 365.659 L1327.19 361.648 L1309.75 362.649 L1292.31 362.684 L1274.87 364.381 L1257.44 361.673 L1240 365.599 L1222.56 355.259 L1205.12 367.505 L1187.69 370.45 L1170.25 366.982 L1152.81 365.991 L1135.38 361.32 L1117.94 363.345 L1100.5 360.703 L1083.06 361.767 L1065.63 363.881 L1048.19 363.971 L1030.75 363.981 L1013.31 368.459 L995.876 370.863 L978.439 368.487 L961.002 370.547 L943.564 367.889 L926.127 367.552 L908.69 372.962 L891.252 368.621  Z" fill="#525252" fill-rule="evenodd" fill-opacity="0.5"/>
<polyline clip-path="url(#clip412)" style="stroke:#525252; stroke-linecap:round; stroke-linejoin:round; stroke-width:0; stroke-opacity:1; fill:none" points="891.252,442.663 908.69,449.4 926.127,450.101 943.564,450.145 961.002,450.898 978.439,451.377 995.876,451.053 1013.31,449.699 1030.75,448.95 1048.19,449 1065.63,448.51 1083.06,447.633 1100.5,447.259 1117.94,446.571 1135.38,446.327 1152.81,446.575 1170.25,446.753 1187.69,446.69 1205.12,446.327 1222.56,445.538 1240,446.136 1257.44,447.519 1274.87,447.527 1292.31,448.548 1309.75,448.597 1327.19,448.515 1344.62,448.908 1362.06,448.97 1379.5,449.25 1396.94,449.58 1414.37,449.408 1431.81,449.13 1449.25,450.131 1466.69,448.829 1484.12,447.944 1501.56,447.607 1519,448.283 1536.43,447.885 1553.87,447.125 1571.31,447.172 1588.75,447.23 1606.18,446.744 1623.62,446.096 1641.06,445.568 1658.5,446.331 1675.93,447.537 1693.37,447.586 1710.81,448.436 1728.25,448.585 1745.68,448.374 1763.12,448.779 1780.56,449.159 1797.99,449.409 1815.43,449.647 1832.87,449.43 1850.31,448.906 1867.74,449.82 1885.18,448.9 1902.62,448.586 1920.06,447.935 1937.49,448.194 1954.93,447.818 1972.37,447.232 1989.81,447.252 2007.24,447.205 2024.68,446.786 2042.12,446.285 2059.56,445.677 2076.99,446.321 2094.43,447.6 2111.87,447.638 2129.3,448.469 2146.74,448.568 2164.18,448.367 2181.62,448.719 2199.05,449.145 2216.49,449.369 2233.93,449.631 2251.37,449.465 2268.8,449.013 2286.24,449.942 2303.68,448.874 2321.12,448.321 2338.55,447.75 2355.99,448.233 2373.43,447.897 2390.87,447.179 2408.3,447.225 2425.74,447.258 2443.18,446.807 2460.61,446.246 2478.05,445.657 2495.49,446.354 2512.93,447.566 2530.36,447.607 2547.8,448.476 2565.24,448.608 2582.68,448.399 2600.11,448.751 2617.55,449.152 2634.99,449.388 2652.43,449.625 2669.86,449.423 2687.3,448.947 2704.74,449.873 2722.18,448.892 2739.61,448.474 2757.05,447.856 2774.49,448.212 2791.92,447.851 2809.36,447.222 2826.8,447.274 2844.24,447.231 2861.67,446.783 2879.11,446.258 2896.55,445.651 2913.99,446.326 2931.42,447.589 2948.86,447.637 2966.3,448.48 2983.74,448.582 3001.17,448.371 3018.61,448.726 3036.05,449.152 3053.49,449.382 3070.92,449.619 3088.36,449.425 3105.8,448.976 3123.23,449.912 3140.67,448.883 3158.11,448.39 3175.55,447.795 3192.98,448.219 3210.42,447.889 3227.86,447.214 3245.3,447.253 3262.73,447.235 3280.17,446.787 3297.61,446.25 3315.05,445.661 3332.48,446.339 3349.92,447.591 3367.36,447.632 3384.79,448.485 3402.23,448.59 3419.67,448.382 3437.11,448.749 3454.54,449.145 3471.98,449.379 3489.42,449.607 3506.86,449.42 3524.29,448.945 3541.73,449.885 3559.17,448.895 3576.61,448.445 3594.04,447.844 3611.48,448.231 3628.92,447.872 3646.36,447.219 3663.79,447.263 3681.23,447.22 3698.67,446.775 3716.1,446.245 3733.54,445.649 3750.98,446.331 3768.42,447.599 3785.85,447.645 3803.29,448.479 3820.73,448.581 3838.17,448.386 3855.6,448.736 3873.04,449.136 3890.48,449.382 3907.92,449.622 3925.35,449.438 3942.79,448.956 3960.23,449.905 3977.67,448.895 3995.1,448.412 4012.54,447.789 4029.98,448.208 4047.41,447.881 4064.85,447.21 4082.29,447.246 4099.73,447.232 4117.16,446.788 4134.6,446.256 4152.04,445.654 4169.48,446.33 4186.91,447.583 4204.35,447.624 4221.79,448.477 4239.23,448.584 4256.66,448.378 4274.1,448.739 4291.54,449.146 4308.98,449.391 4326.41,449.624 4343.85,449.439 4361.29,448.962 4378.72,449.871 4396.16,448.863 4413.6,448.434 4431.04,447.829 4448.47,448.21 4465.91,447.857 4483.35,447.213 4500.79,447.249 4518.22,447.224 4535.66,446.776 4553.1,446.245 4570.54,445.641 4587.97,446.317 4605.41,447.575 4622.85,447.62 4640.28,448.486 "/>
<path clip-path="url(#clip412)" d="M891.252 530.305 L908.69 538.066 L926.127 547.998 L943.564 545.167 L961.002 545.529 L978.439 546.177 L995.876 549.002 L1013.31 554.49 L1030.75 545.434 L1048.19 546.755 L1065.63 551.583 L1083.06 544.78 L1100.5 545.043 L1117.94 545.563 L1135.38 546.474 L1152.81 539.508 L1170.25 540.559 L1187.69 544.925 L1205.12 541.88 L1222.56 541.069 L1240 540.256 L1257.44 543.214 L1274.87 543.658 L1292.31 547.731 L1309.75 547.327 L1327.19 544.011 L1344.62 548.137 L1362.06 552.229 L1379.5 542.831 L1396.94 543.942 L1414.37 546.256 L1431.81 551.011 L1449.25 546.742 L1466.69 549.625 L1484.12 550.395 L1501.56 542.464 L1519 546.512 L1536.43 547.116 L1553.87 550.462 L1571.31 543.376 L1588.75 540.136 L1606.18 544.836 L1623.62 541.803 L1641.06 541.443 L1658.5 540.76 L1675.93 543.097 L1693.37 541.885 L1710.81 546.97 L1728.25 547.691 L1745.68 544.514 L1763.12 546.392 L1780.56 552.015 L1797.99 542.357 L1815.43 542.406 L1832.87 546.321 L1850.31 551.039 L1867.74 546.399 L1885.18 549.654 L1902.62 551.002 L1920.06 545.515 L1937.49 546.539 L1954.93 547.531 L1972.37 550.508 L1989.81 543.14 L2007.24 540.011 L2024.68 545.295 L2042.12 541.987 L2059.56 541.538 L2076.99 540.699 L2094.43 543.266 L2111.87 541.964 L2129.3 546.942 L2146.74 547.658 L2164.18 544.784 L2181.62 546.243 L2199.05 552.761 L2216.49 542.873 L2233.93 542.476 L2251.37 546.352 L2268.8 551.164 L2286.24 546.47 L2303.68 549.759 L2321.12 550.516 L2338.55 543.008 L2355.99 546.413 L2373.43 546.797 L2390.87 550.435 L2408.3 543.072 L2425.74 540.307 L2443.18 545.169 L2460.61 541.971 L2478.05 541.573 L2495.49 540.788 L2512.93 543.293 L2530.36 541.887 L2547.8 547.13 L2565.24 547.71 L2582.68 544.811 L2600.11 546.32 L2617.55 552.686 L2634.99 542.861 L2652.43 542.341 L2669.86 546.285 L2687.3 551.09 L2704.74 546.454 L2722.18 549.651 L2739.61 550.752 L2757.05 543.956 L2774.49 546.343 L2791.92 546.514 L2809.36 550.503 L2826.8 543.066 L2844.24 540.098 L2861.67 545.214 L2879.11 541.931 L2896.55 541.495 L2913.99 540.693 L2931.42 543.258 L2948.86 541.913 L2966.3 547.215 L2983.74 547.668 L3001.17 544.783 L3018.61 546.285 L3036.05 552.52 L3053.49 542.838 L3070.92 542.394 L3088.36 546.333 L3105.8 551.064 L3123.23 546.438 L3140.67 549.639 L3158.11 550.738 L3175.55 542.996 L3192.98 546.331 L3210.42 546.389 L3227.86 550.485 L3245.3 543.076 L3262.73 540.244 L3280.17 545.172 L3297.61 541.966 L3315.05 541.725 L3332.48 540.695 L3349.92 543.258 L3367.36 541.922 L3384.79 547.051 L3402.23 547.622 L3419.67 544.791 L3437.11 546.323 L3454.54 552.605 L3471.98 542.882 L3489.42 542.302 L3506.86 546.308 L3524.29 551.08 L3541.73 546.466 L3559.17 549.805 L3576.61 550.781 L3594.04 543.125 L3611.48 546.402 L3628.92 546.392 L3646.36 550.482 L3663.79 543.061 L3681.23 540.102 L3698.67 545.173 L3716.1 542.009 L3733.54 541.517 L3750.98 540.691 L3768.42 543.269 L3785.85 541.894 L3803.29 547.102 L3820.73 547.694 L3838.17 544.795 L3855.6 546.314 L3873.04 552.523 L3890.48 542.844 L3907.92 542.437 L3925.35 546.31 L3942.79 551.069 L3960.23 546.429 L3977.67 549.723 L3995.1 550.701 L4012.54 542.827 L4029.98 546.405 L4047.41 546.331 L4064.85 550.531 L4082.29 543.251 L4099.73 540.281 L4117.16 545.227 L4134.6 542.017 L4152.04 541.552 L4169.48 540.689 L4186.91 543.243 L4204.35 541.948 L4221.79 547.035 L4239.23 547.628 L4256.66 544.783 L4274.1 546.372 L4291.54 552.464 L4308.98 542.863 L4326.41 542.281 L4343.85 546.344 L4361.29 551.076 L4378.72 546.452 L4396.16 549.631 L4413.6 550.631 L4431.04 542.656 L4448.47 546.319 L4465.91 546.427 L4483.35 550.529 L4500.79 543.036 L4518.22 540.079 L4535.66 545.138 L4553.1 541.959 L4570.54 541.514 L4587.97 540.689 L4605.41 543.16 L4622.85 541.875 L4640.28 547.067 L4640.28 376.532 L4622.85 379.459 L4605.41 379.731 L4587.97 374.985 L4570.54 375.023 L4553.1 380.637 L4535.66 379.06 L4518.22 379.635 L4500.79 378.146 L4483.35 377.344 L4465.91 378.18 L4448.47 376.49 L4431.04 374.804 L4413.6 375.603 L4396.16 374.912 L4378.72 382.451 L4361.29 381.185 L4343.85 380.076 L4326.41 381.023 L4308.98 382.905 L4291.54 381.653 L4274.1 381.177 L4256.66 379.794 L4239.23 381.43 L4221.79 376.573 L4204.35 379.455 L4186.91 379.765 L4169.48 374.757 L4152.04 375.168 L4134.6 380.701 L4117.16 379.15 L4099.73 379.609 L4082.29 378.128 L4064.85 377.285 L4047.41 378.284 L4029.98 376.505 L4012.54 374.724 L3995.1 375.402 L3977.67 374.584 L3960.23 382.548 L3942.79 381.139 L3925.35 379.987 L3907.92 380.996 L3890.48 382.862 L3873.04 381.599 L3855.6 381.134 L3838.17 379.698 L3820.73 381.432 L3803.29 376.516 L3785.85 379.481 L3768.42 379.796 L3750.98 374.73 L3733.54 375.075 L3716.1 380.553 L3698.67 379.145 L3681.23 379.658 L3663.79 378.165 L3646.36 377.279 L3628.92 378.289 L3611.48 376.516 L3594.04 374.8 L3576.61 375.378 L3559.17 375.144 L3541.73 382.482 L3524.29 381.122 L3506.86 379.998 L3489.42 381.022 L3471.98 382.879 L3454.54 381.624 L3437.11 381.178 L3419.67 379.749 L3402.23 381.433 L3384.79 376.528 L3367.36 379.457 L3349.92 379.754 L3332.48 375.083 L3315.05 375.035 L3297.61 380.875 L3280.17 379.346 L3262.73 379.641 L3245.3 378.183 L3227.86 377.33 L3210.42 378.302 L3192.98 376.51 L3175.55 374.775 L3158.11 375.345 L3140.67 374.54 L3123.23 382.485 L3105.8 381.106 L3088.36 379.958 L3070.92 381.011 L3053.49 382.939 L3036.05 381.574 L3018.61 381.071 L3001.17 379.709 L2983.74 381.528 L2966.3 376.495 L2948.86 379.493 L2931.42 379.775 L2913.99 374.847 L2896.55 375.078 L2879.11 380.274 L2861.67 379.135 L2844.24 379.653 L2826.8 378.194 L2809.36 377.283 L2791.92 378.27 L2774.49 376.571 L2757.05 374.809 L2739.61 375.443 L2722.18 375.29 L2704.74 382.502 L2687.3 381.195 L2669.86 379.957 L2652.43 381.057 L2634.99 382.912 L2617.55 381.626 L2600.11 381.161 L2582.68 379.903 L2565.24 381.617 L2547.8 376.453 L2530.36 379.425 L2512.93 379.714 L2495.49 374.752 L2478.05 374.981 L2460.61 381.179 L2443.18 379.659 L2425.74 379.685 L2408.3 378.138 L2390.87 377.251 L2373.43 378.303 L2355.99 376.395 L2338.55 374.684 L2321.12 375.392 L2303.68 374.645 L2286.24 382.501 L2268.8 381.205 L2251.37 379.984 L2233.93 381.073 L2216.49 382.848 L2199.05 381.688 L2181.62 381.137 L2164.18 379.395 L2146.74 381.434 L2129.3 376.608 L2111.87 379.454 L2094.43 379.902 L2076.99 375.082 L2059.56 374.353 L2042.12 381.501 L2024.68 379.064 L2007.24 379.629 L1989.81 378.187 L1972.37 377.28 L1954.93 378.238 L1937.49 376.564 L1920.06 374.901 L1902.62 376.204 L1885.18 375.996 L1867.74 382.361 L1850.31 381.046 L1832.87 379.801 L1815.43 381.046 L1797.99 382.924 L1780.56 381.483 L1763.12 380.956 L1745.68 380.481 L1728.25 381.553 L1710.81 376.522 L1693.37 379.459 L1675.93 379.759 L1658.5 374.315 L1641.06 374.913 L1623.62 380.254 L1606.18 378.996 L1588.75 379.645 L1571.31 377.804 L1553.87 377.002 L1536.43 377.592 L1519 377.862 L1501.56 374.523 L1484.12 374.503 L1466.69 375.208 L1449.25 383.1 L1431.81 382.087 L1414.37 380.495 L1396.94 381.342 L1379.5 382.301 L1362.06 381.205 L1344.62 381.524 L1327.19 379.387 L1309.75 382.111 L1292.31 376.672 L1274.87 379.72 L1257.44 380.45 L1240 375.126 L1222.56 372.928 L1205.12 383.724 L1187.69 380.308 L1170.25 379.13 L1152.81 377.422 L1135.38 376.147 L1117.94 374.733 L1100.5 374.779 L1083.06 375.927 L1065.63 374.817 L1048.19 376.026 L1030.75 381.448 L1013.31 381.14 L995.876 382.093 L978.439 381.323 L961.002 381.936 L943.564 380.961 L926.127 380.687 L908.69 382.901 L891.252 376.71  Z" fill="#000000" fill-rule="evenodd" fill-opacity="0.5"/>
<polyline clip-path="url(#clip412)" style="stroke:#000000; stroke-linecap:round; stroke-linejoin:round; stroke-width:0; stroke-opacity:1; fill:none" points="891.252,442.663 908.69,449.4 926.127,450.101 943.564,450.145 961.002,450.898 978.439,451.377 995.876,451.053 1013.31,449.699 1030.75,448.95 1048.19,449 1065.63,448.51 1083.06,447.633 1100.5,447.259 1117.94,446.571 1135.38,446.327 1152.81,446.575 1170.25,446.753 1187.69,446.69 1205.12,446.327 1222.56,445.538 1240,446.136 1257.44,447.519 1274.87,447.527 1292.31,448.548 1309.75,448.597 1327.19,448.515 1344.62,448.908 1362.06,448.97 1379.5,449.25 1396.94,449.58 1414.37,449.408 1431.81,449.13 1449.25,450.131 1466.69,448.829 1484.12,447.944 1501.56,447.607 1519,448.283 1536.43,447.885 1553.87,447.125 1571.31,447.172 1588.75,447.23 1606.18,446.744 1623.62,446.096 1641.06,445.568 1658.5,446.331 1675.93,447.537 1693.37,447.586 1710.81,448.436 1728.25,448.585 1745.68,448.374 1763.12,448.779 1780.56,449.159 1797.99,449.409 1815.43,449.647 1832.87,449.43 1850.31,448.906 1867.74,449.82 1885.18,448.9 1902.62,448.586 1920.06,447.935 1937.49,448.194 1954.93,447.818 1972.37,447.232 1989.81,447.252 2007.24,447.205 2024.68,446.786 2042.12,446.285 2059.56,445.677 2076.99,446.321 2094.43,447.6 2111.87,447.638 2129.3,448.469 2146.74,448.568 2164.18,448.367 2181.62,448.719 2199.05,449.145 2216.49,449.369 2233.93,449.631 2251.37,449.465 2268.8,449.013 2286.24,449.942 2303.68,448.874 2321.12,448.321 2338.55,447.75 2355.99,448.233 2373.43,447.897 2390.87,447.179 2408.3,447.225 2425.74,447.258 2443.18,446.807 2460.61,446.246 2478.05,445.657 2495.49,446.354 2512.93,447.566 2530.36,447.607 2547.8,448.476 2565.24,448.608 2582.68,448.399 2600.11,448.751 2617.55,449.152 2634.99,449.388 2652.43,449.625 2669.86,449.423 2687.3,448.947 2704.74,449.873 2722.18,448.892 2739.61,448.474 2757.05,447.856 2774.49,448.212 2791.92,447.851 2809.36,447.222 2826.8,447.274 2844.24,447.231 2861.67,446.783 2879.11,446.258 2896.55,445.651 2913.99,446.326 2931.42,447.589 2948.86,447.637 2966.3,448.48 2983.74,448.582 3001.17,448.371 3018.61,448.726 3036.05,449.152 3053.49,449.382 3070.92,449.619 3088.36,449.425 3105.8,448.976 3123.23,449.912 3140.67,448.883 3158.11,448.39 3175.55,447.795 3192.98,448.219 3210.42,447.889 3227.86,447.214 3245.3,447.253 3262.73,447.235 3280.17,446.787 3297.61,446.25 3315.05,445.661 3332.48,446.339 3349.92,447.591 3367.36,447.632 3384.79,448.485 3402.23,448.59 3419.67,448.382 3437.11,448.749 3454.54,449.145 3471.98,449.379 3489.42,449.607 3506.86,449.42 3524.29,448.945 3541.73,449.885 3559.17,448.895 3576.61,448.445 3594.04,447.844 3611.48,448.231 3628.92,447.872 3646.36,447.219 3663.79,447.263 3681.23,447.22 3698.67,446.775 3716.1,446.245 3733.54,445.649 3750.98,446.331 3768.42,447.599 3785.85,447.645 3803.29,448.479 3820.73,448.581 3838.17,448.386 3855.6,448.736 3873.04,449.136 3890.48,449.382 3907.92,449.622 3925.35,449.438 3942.79,448.956 3960.23,449.905 3977.67,448.895 3995.1,448.412 4012.54,447.789 4029.98,448.208 4047.41,447.881 4064.85,447.21 4082.29,447.246 4099.73,447.232 4117.16,446.788 4134.6,446.256 4152.04,445.654 4169.48,446.33 4186.91,447.583 4204.35,447.624 4221.79,448.477 4239.23,448.584 4256.66,448.378 4274.1,448.739 4291.54,449.146 4308.98,449.391 4326.41,449.624 4343.85,449.439 4361.29,448.962 4378.72,449.871 4396.16,448.863 4413.6,448.434 4431.04,447.829 4448.47,448.21 4465.91,447.857 4483.35,447.213 4500.79,447.249 4518.22,447.224 4535.66,446.776 4553.1,446.245 4570.54,445.641 4587.97,446.317 4605.41,447.575 4622.85,447.62 4640.28,448.486 "/>
<path clip-path="url(#clip410)" d="M3903.62 593.434 L4620.29 593.434 L4620.29 75.0343 L3903.62 75.0343  Z" fill="#ffffff" fill-rule="evenodd" fill-opacity="1"/>
<polyline clip-path="url(#clip410)" style="stroke:#000000; stroke-linecap:round; stroke-linejoin:round; stroke-width:4; stroke-opacity:1; fill:none" points="3903.62,593.434 4620.29,593.434 4620.29,75.0343 3903.62,75.0343 3903.62,593.434 "/>
<polyline clip-path="url(#clip410)" style="stroke:#c8c8c8; stroke-linecap:round; stroke-linejoin:round; stroke-width:2; stroke-opacity:1; fill:none" points="3947.78,204.634 4212.71,204.634 "/>
<path clip-path="url(#clip410)" d="M4258.54 237.996 L4277.64 237.996 L4277.64 172.082 L4256.87 176.249 L4256.87 165.601 L4277.53 161.434 L4289.22 161.434 L4289.22 237.996 L4308.31 237.996 L4308.31 247.834 L4258.54 247.834 L4258.54 237.996 Z" fill="#000000" fill-rule="nonzero" fill-opacity="1" /><path clip-path="url(#clip410)" d="M4356.92 169.131 Q4347.9 169.131 4343.32 178.043 Q4338.81 186.897 4338.81 204.721 Q4338.81 222.487 4343.32 231.399 Q4347.9 240.253 4356.92 240.253 Q4366.01 240.253 4370.52 231.399 Q4375.09 222.487 4375.09 204.721 Q4375.09 186.897 4370.52 178.043 Q4366.01 169.131 4356.92 169.131 M4356.92 159.872 Q4371.45 159.872 4379.09 171.388 Q4386.78 182.846 4386.78 204.721 Q4386.78 226.538 4379.09 238.054 Q4371.45 249.513 4356.92 249.513 Q4342.4 249.513 4334.7 238.054 Q4327.06 226.538 4327.06 204.721 Q4327.06 182.846 4334.7 171.388 Q4342.4 159.872 4356.92 159.872 Z" fill="#000000" fill-rule="nonzero" fill-opacity="1" /><path clip-path="url(#clip410)" d="M4432.33 169.131 Q4423.3 169.131 4418.73 178.043 Q4414.21 186.897 4414.21 204.721 Q4414.21 222.487 4418.73 231.399 Q4423.3 240.253 4432.33 240.253 Q4441.41 240.253 4445.93 231.399 Q4450.5 222.487 4450.5 204.721 Q4450.5 186.897 4445.93 178.043 Q4441.41 169.131 4432.33 169.131 M4432.33 159.872 Q4446.85 159.872 4454.49 171.388 Q4462.19 182.846 4462.19 204.721 Q4462.19 226.538 4454.49 238.054 Q4446.85 249.513 4432.33 249.513 Q4417.8 249.513 4410.11 238.054 Q4402.47 226.538 4402.47 204.721 Q4402.47 182.846 4410.11 171.388 Q4417.8 159.872 4432.33 159.872 Z" fill="#000000" fill-rule="nonzero" fill-opacity="1" /><path clip-path="url(#clip410)" d="M4556.23 209.814 Q4551.19 209.814 4548.3 214.096 Q4545.46 218.378 4545.46 226.017 Q4545.46 233.54 4548.3 237.881 Q4551.19 242.163 4556.23 242.163 Q4561.15 242.163 4563.98 237.881 Q4566.88 233.54 4566.88 226.017 Q4566.88 218.436 4563.98 214.154 Q4561.15 209.814 4556.23 209.814 M4556.23 202.464 Q4565.37 202.464 4570.75 208.83 Q4576.13 215.196 4576.13 226.017 Q4576.13 236.839 4570.7 243.205 Q4565.31 249.513 4556.23 249.513 Q4546.97 249.513 4541.59 243.205 Q4536.2 236.839 4536.2 226.017 Q4536.2 215.138 4541.59 208.83 Q4547.03 202.464 4556.23 202.464 M4496.51 167.221 Q4491.53 167.221 4488.64 171.562 Q4485.8 175.844 4485.8 183.367 Q4485.8 191.006 4488.64 195.288 Q4491.47 199.571 4496.51 199.571 Q4501.54 199.571 4504.38 195.288 Q4507.27 191.006 4507.27 183.367 Q4507.27 175.902 4504.38 171.562 Q4501.48 167.221 4496.51 167.221 M4548.76 159.872 L4558.02 159.872 L4503.97 249.513 L4494.71 249.513 L4548.76 159.872 M4496.51 159.872 Q4505.65 159.872 4511.09 166.238 Q4516.53 172.545 4516.53 183.367 Q4516.53 194.305 4511.09 200.612 Q4505.71 206.92 4496.51 206.92 Q4487.3 206.92 4481.92 200.612 Q4476.6 194.247 4476.6 183.367 Q4476.6 172.603 4481.98 166.238 Q4487.36 159.872 4496.51 159.872 Z" fill="#000000" fill-rule="nonzero" fill-opacity="1" /><polyline clip-path="url(#clip410)" style="stroke:#525252; stroke-linecap:round; stroke-linejoin:round; stroke-width:2; stroke-opacity:1; fill:none" points="3947.78,334.234 4212.71,334.234 "/>
<path clip-path="url(#clip410)" d="M4262.42 375.64 L4262.42 364.992 Q4266.82 367.076 4271.33 368.175 Q4275.85 369.275 4280.19 369.275 Q4291.76 369.275 4297.84 361.52 Q4303.97 353.708 4304.84 337.851 Q4301.48 342.828 4296.33 345.49 Q4291.18 348.152 4284.93 348.152 Q4271.97 348.152 4264.39 340.34 Q4256.87 332.469 4256.87 318.87 Q4256.87 305.56 4264.74 297.516 Q4272.61 289.472 4285.68 289.472 Q4300.67 289.472 4308.54 300.988 Q4316.47 312.446 4316.47 334.321 Q4316.47 354.749 4306.75 366.96 Q4297.09 379.113 4280.71 379.113 Q4276.31 379.113 4271.8 378.245 Q4267.28 377.376 4262.42 375.64 M4285.68 339.009 Q4293.56 339.009 4298.13 333.627 Q4302.76 328.245 4302.76 318.87 Q4302.76 309.553 4298.13 304.171 Q4293.56 298.731 4285.68 298.731 Q4277.81 298.731 4273.19 304.171 Q4268.61 309.553 4268.61 318.87 Q4268.61 328.245 4273.19 333.627 Q4277.81 339.009 4285.68 339.009 Z" fill="#000000" fill-rule="nonzero" fill-opacity="1" /><path clip-path="url(#clip410)" d="M4362.48 298.731 Q4353.45 298.731 4348.88 307.643 Q4344.37 316.497 4344.37 334.321 Q4344.37 352.087 4348.88 360.999 Q4353.45 369.853 4362.48 369.853 Q4371.56 369.853 4376.08 360.999 Q4380.65 352.087 4380.65 334.321 Q4380.65 316.497 4376.08 307.643 Q4371.56 298.731 4362.48 298.731 M4362.48 289.472 Q4377 289.472 4384.64 300.988 Q4392.34 312.446 4392.34 334.321 Q4392.34 356.138 4384.64 367.654 Q4377 379.113 4362.48 379.113 Q4347.95 379.113 4340.26 367.654 Q4332.62 356.138 4332.62 334.321 Q4332.62 312.446 4340.26 300.988 Q4347.95 289.472 4362.48 289.472 Z" fill="#000000" fill-rule="nonzero" fill-opacity="1" /><path clip-path="url(#clip410)" d="M4486.38 339.414 Q4481.34 339.414 4478.45 343.696 Q4475.61 347.978 4475.61 355.617 Q4475.61 363.14 4478.45 367.481 Q4481.34 371.763 4486.38 371.763 Q4491.3 371.763 4494.13 367.481 Q4497.03 363.14 4497.03 355.617 Q4497.03 348.036 4494.13 343.754 Q4491.3 339.414 4486.38 339.414 M4486.38 332.064 Q4495.52 332.064 4500.9 338.43 Q4506.29 344.796 4506.29 355.617 Q4506.29 366.439 4500.85 372.805 Q4495.46 379.113 4486.38 379.113 Q4477.12 379.113 4471.74 372.805 Q4466.36 366.439 4466.36 355.617 Q4466.36 344.738 4471.74 338.43 Q4477.18 332.064 4486.38 332.064 M4426.66 296.821 Q4421.68 296.821 4418.79 301.162 Q4415.95 305.444 4415.95 312.967 Q4415.95 320.606 4418.79 324.888 Q4421.62 329.171 4426.66 329.171 Q4431.69 329.171 4434.53 324.888 Q4437.42 320.606 4437.42 312.967 Q4437.42 305.502 4434.53 301.162 Q4431.63 296.821 4426.66 296.821 M4478.91 289.472 L4488.17 289.472 L4434.12 379.113 L4424.86 379.113 L4478.91 289.472 M4426.66 289.472 Q4435.8 289.472 4441.24 295.838 Q4446.68 302.145 4446.68 312.967 Q4446.68 323.905 4441.24 330.212 Q4435.86 336.52 4426.66 336.52 Q4417.46 336.52 4412.07 330.212 Q4406.75 323.847 4406.75 312.967 Q4406.75 302.203 4412.13 295.838 Q4417.51 289.472 4426.66 289.472 Z" fill="#000000" fill-rule="nonzero" fill-opacity="1" /><polyline clip-path="url(#clip410)" style="stroke:#000000; stroke-linecap:round; stroke-linejoin:round; stroke-width:2; stroke-opacity:1; fill:none" points="3947.78,463.834 4212.71,463.834 "/>
<path clip-path="url(#clip410)" d="M4286.5 466.004 Q4278.16 466.004 4273.36 470.46 Q4268.61 474.916 4268.61 482.729 Q4268.61 490.541 4273.36 494.997 Q4278.16 499.453 4286.5 499.453 Q4294.83 499.453 4299.63 494.997 Q4304.43 490.484 4304.43 482.729 Q4304.43 474.916 4299.63 470.46 Q4294.89 466.004 4286.5 466.004 M4274.81 461.028 Q4267.28 459.176 4263.06 454.025 Q4258.89 448.875 4258.89 441.468 Q4258.89 431.109 4266.24 425.09 Q4273.65 419.072 4286.5 419.072 Q4299.4 419.072 4306.75 425.09 Q4314.1 431.109 4314.1 441.468 Q4314.1 448.875 4309.87 454.025 Q4305.71 459.176 4298.24 461.028 Q4306.69 462.995 4311.38 468.724 Q4316.12 474.453 4316.12 482.729 Q4316.12 495.287 4308.43 502 Q4300.79 508.713 4286.5 508.713 Q4272.2 508.713 4264.5 502 Q4256.87 495.287 4256.87 482.729 Q4256.87 474.453 4261.61 468.724 Q4266.36 462.995 4274.81 461.028 M4270.52 442.567 Q4270.52 449.28 4274.69 453.042 Q4278.91 456.803 4286.5 456.803 Q4294.02 456.803 4298.24 453.042 Q4302.53 449.28 4302.53 442.567 Q4302.53 435.854 4298.24 432.093 Q4294.02 428.331 4286.5 428.331 Q4278.91 428.331 4274.69 432.093 Q4270.52 435.854 4270.52 442.567 Z" fill="#000000" fill-rule="nonzero" fill-opacity="1" /><path clip-path="url(#clip410)" d="M4361.9 428.331 Q4352.87 428.331 4348.3 437.243 Q4343.79 446.097 4343.79 463.921 Q4343.79 481.687 4348.3 490.599 Q4352.87 499.453 4361.9 499.453 Q4370.99 499.453 4375.5 490.599 Q4380.07 481.687 4380.07 463.921 Q4380.07 446.097 4375.5 437.243 Q4370.99 428.331 4361.9 428.331 M4361.9 419.072 Q4376.43 419.072 4384.06 430.588 Q4391.76 442.046 4391.76 463.921 Q4391.76 485.738 4384.06 497.254 Q4376.43 508.713 4361.9 508.713 Q4347.37 508.713 4339.68 497.254 Q4332.04 485.738 4332.04 463.921 Q4332.04 442.046 4339.68 430.588 Q4347.37 419.072 4361.9 419.072 Z" fill="#000000" fill-rule="nonzero" fill-opacity="1" /><path clip-path="url(#clip410)" d="M4485.8 469.014 Q4480.76 469.014 4477.87 473.296 Q4475.04 477.578 4475.04 485.217 Q4475.04 492.74 4477.87 497.081 Q4480.76 501.363 4485.8 501.363 Q4490.72 501.363 4493.55 497.081 Q4496.45 492.74 4496.45 485.217 Q4496.45 477.636 4493.55 473.354 Q4490.72 469.014 4485.8 469.014 M4485.8 461.664 Q4494.94 461.664 4500.33 468.03 Q4505.71 474.396 4505.71 485.217 Q4505.71 496.039 4500.27 502.405 Q4494.89 508.713 4485.8 508.713 Q4476.54 508.713 4471.16 502.405 Q4465.78 496.039 4465.78 485.217 Q4465.78 474.338 4471.16 468.03 Q4476.6 461.664 4485.8 461.664 M4426.08 426.421 Q4421.1 426.421 4418.21 430.762 Q4415.37 435.044 4415.37 442.567 Q4415.37 450.206 4418.21 454.488 Q4421.04 458.771 4426.08 458.771 Q4431.11 458.771 4433.95 454.488 Q4436.84 450.206 4436.84 442.567 Q4436.84 435.102 4433.95 430.762 Q4431.05 426.421 4426.08 426.421 M4478.33 419.072 L4487.59 419.072 L4433.54 508.713 L4424.28 508.713 L4478.33 419.072 M4426.08 419.072 Q4435.22 419.072 4440.66 425.438 Q4446.1 431.745 4446.1 442.567 Q4446.1 453.505 4440.66 459.812 Q4435.28 466.12 4426.08 466.12 Q4416.88 466.12 4411.49 459.812 Q4406.17 453.447 4406.17 442.567 Q4406.17 431.803 4411.55 425.438 Q4416.93 419.072 4426.08 419.072 Z" fill="#000000" fill-rule="nonzero" fill-opacity="1" /></svg>
