<?xml version="1.0" encoding="UTF-8" standalone="no"?>
<svg
   width="700"
   height="470.97369"
   viewBox="0 0 2800 1883.8948"
   version="1.1"
   id="svg161"
   sodipodi:docname="fig6_prod_time.svg"
   xmlns:inkscape="http://www.inkscape.org/namespaces/inkscape"
   xmlns:sodipodi="http://sodipodi.sourceforge.net/DTD/sodipodi-0.dtd"
   xmlns="http://www.w3.org/2000/svg"
   xmlns:svg="http://www.w3.org/2000/svg">
  <sodipodi:namedview
     id="namedview161"
     pagecolor="#ffffff"
     bordercolor="#000000"
     borderopacity="0.25"
     inkscape:showpageshadow="2"
     inkscape:pageopacity="0.0"
     inkscape:pagecheckerboard="0"
     inkscape:deskcolor="#d1d1d1" />
  <defs
     id="defs1">
    <clipPath
       id="clip790">
      <rect
         x="0"
         y="0"
         width="2800"
         height="1800"
         id="rect1" />
    </clipPath>
    <clipPath
       id="clip730">
      <rect
         x="0"
         y="0"
         width="2800"
         height="1800"
         id="rect1-9" />
    </clipPath>
  </defs>
  <path
     clip-path="url(#clip790)"
     d="M 0,1800 H 2800 V 0 H 0 Z"
     fill="#ffffff"
     fill-rule="evenodd"
     fill-opacity="1"
     id="path1"
     transform="translate(0,83.894836)" />
  <defs
     id="defs2" />
  <path
     clip-path="url(#clip790)"
     d="M 538.156,1562.54 H 2402.98 V 47.2441 H 538.156 Z"
     fill="#ffffff"
     fill-rule="evenodd"
     fill-opacity="1"
     id="path2"
     transform="translate(0,83.894836)" />
  <defs
     id="defs3">
    <clipPath
       id="clip792">
      <rect
         x="538"
         y="47"
         width="1866"
         height="1516"
         id="rect3" />
    </clipPath>
  </defs>
  <polyline
     clip-path="url(#clip792)"
     style="fill:none;stroke:#000000;stroke-width:2;stroke-linecap:round;stroke-linejoin:round;stroke-opacity:0.1"
     points="590.934,1562.54 590.934,47.2441 "
     id="polyline3"
     transform="translate(0,83.894836)" />
  <polyline
     clip-path="url(#clip792)"
     style="fill:none;stroke:#000000;stroke-width:2;stroke-linecap:round;stroke-linejoin:round;stroke-opacity:0.1"
     points="1177.36,1562.54 1177.36,47.2441 "
     id="polyline4"
     transform="translate(0,83.894836)" />
  <polyline
     clip-path="url(#clip792)"
     style="fill:none;stroke:#000000;stroke-width:2;stroke-linecap:round;stroke-linejoin:round;stroke-opacity:0.1"
     points="1763.78,1562.54 1763.78,47.2441 "
     id="polyline5"
     transform="translate(0,83.894836)" />
  <polyline
     clip-path="url(#clip792)"
     style="fill:none;stroke:#000000;stroke-width:2;stroke-linecap:round;stroke-linejoin:round;stroke-opacity:0.1"
     points="2350.21,1562.54 2350.21,47.2441 "
     id="polyline6"
     transform="translate(0,83.894836)" />
  <polyline
     clip-path="url(#clip790)"
     style="fill:none;stroke:#000000;stroke-width:4;stroke-linecap:round;stroke-linejoin:round;stroke-opacity:1"
     points="538.156,1562.54 2402.98,1562.54 "
     id="polyline7"
     transform="translate(0,83.894836)" />
  <polyline
     clip-path="url(#clip790)"
     style="fill:none;stroke:#000000;stroke-width:4;stroke-linecap:round;stroke-linejoin:round;stroke-opacity:1"
     points="590.934,1562.54 590.934,1543.64 "
     id="polyline8"
     transform="translate(0,83.894836)" />
  <polyline
     clip-path="url(#clip790)"
     style="fill:none;stroke:#000000;stroke-width:4;stroke-linecap:round;stroke-linejoin:round;stroke-opacity:1"
     points="1177.36,1562.54 1177.36,1543.64 "
     id="polyline9"
     transform="translate(0,83.894836)" />
  <polyline
     clip-path="url(#clip790)"
     style="fill:none;stroke:#000000;stroke-width:4;stroke-linecap:round;stroke-linejoin:round;stroke-opacity:1"
     points="1763.78,1562.54 1763.78,1543.64 "
     id="polyline10"
     transform="translate(0,83.894836)" />
  <polyline
     clip-path="url(#clip790)"
     style="fill:none;stroke:#000000;stroke-width:4;stroke-linecap:round;stroke-linejoin:round;stroke-opacity:1"
     points="2350.21,1562.54 2350.21,1543.64 "
     id="polyline11"
     transform="translate(0,83.894836)" />
  <path
     clip-path="url(#clip790)"
     d="m 574.102,1653.65 h 13.368 v -46.14 l -14.543,2.92 v -7.45 l 14.462,-2.92 h 8.183 v 53.59 h 13.368 v 6.89 h -34.838 z"
     fill="#000000"
     fill-rule="nonzero"
     fill-opacity="1"
     id="path11"
     transform="translate(0,83.894836)" />
  <path
     clip-path="url(#clip790)"
     d="m 1168,1653.65 h 28.56 v 6.89 h -38.4 v -6.89 q 4.65,-4.82 12.68,-12.92 8.06,-8.14 10.12,-10.49 3.93,-4.42 5.47,-7.45 1.58,-3.08 1.58,-6.04 0,-4.82 -3.4,-7.86 -3.36,-3.04 -8.79,-3.04 -3.85,0 -8.14,1.34 -4.26,1.34 -9.12,4.05 v -8.26 q 4.94,-1.99 9.24,-3 4.29,-1.01 7.86,-1.01 9.39,0 14.98,4.7 5.59,4.69 5.59,12.55 0,3.73 -1.41,7.09 -1.38,3.32 -5.07,7.86 -1.01,1.18 -6.44,6.81 -5.43,5.59 -15.31,15.67 z"
     fill="#000000"
     fill-rule="nonzero"
     fill-opacity="1"
     id="path12"
     transform="translate(0,83.894836)" />
  <path
     clip-path="url(#clip790)"
     d="m 1771.22,1627.93 q 5.87,1.26 9.15,5.23 3.32,3.97 3.32,9.8 0,8.95 -6.16,13.85 -6.15,4.91 -17.5,4.91 -3.8,0 -7.85,-0.77 -4.01,-0.73 -8.31,-2.23 v -7.9 q 3.4,1.98 7.46,3 4.05,1.01 8.46,1.01 7.7,0 11.71,-3.04 4.05,-3.04 4.05,-8.83 0,-5.35 -3.77,-8.35 -3.72,-3.03 -10.41,-3.03 h -7.05 v -6.73 h 7.38 q 6.03,0 9.23,-2.39 3.2,-2.43 3.2,-6.97 0,-4.65 -3.32,-7.13 -3.28,-2.51 -9.44,-2.51 -3.36,0 -7.21,0.73 -3.85,0.73 -8.47,2.27 v -7.29 q 4.66,-1.3 8.71,-1.95 4.1,-0.64 7.7,-0.64 9.32,0 14.75,4.25 5.42,4.21 5.42,11.42 0,5.03 -2.87,8.51 -2.88,3.44 -8.18,4.78 z"
     fill="#000000"
     fill-rule="nonzero"
     fill-opacity="1"
     id="path13"
     transform="translate(0,83.894836)" />
  <path
     clip-path="url(#clip790)"
     d="m 2355.47,1607.19 -20.66,32.29 h 20.66 v -32.29 m -2.15,-7.13 h 10.29 v 39.42 h 8.63 v 6.8 h -8.63 v 14.26 h -8.14 v -14.26 h -27.3 v -7.9 z"
     fill="#000000"
     fill-rule="nonzero"
     fill-opacity="1"
     id="path14"
     transform="translate(0,83.894836)" />
  <path
     clip-path="url(#clip790)"
     d="m 1133.56,1709.08 h 9.35 v 61.25 h 33.66 v 7.87 h -43.01 z"
     fill="#000000"
     fill-rule="nonzero"
     fill-opacity="1"
     id="path15"
     transform="translate(0,83.894836)" />
  <path
     clip-path="url(#clip790)"
     d="m 1209.58,1752.14 q -10.33,0 -14.31,2.36 -3.98,2.36 -3.98,8.06 0,4.53 2.96,7.22 3.01,2.64 8.15,2.64 7.08,0 11.34,-5 4.31,-5.05 4.31,-13.38 v -1.9 h -8.47 m 16.99,-3.52 v 29.58 h -8.52 v -7.87 q -2.92,4.73 -7.27,6.99 -4.35,2.23 -10.65,2.23 -7.96,0 -12.68,-4.45 -4.68,-4.49 -4.68,-11.99 0,-8.75 5.83,-13.19 5.88,-4.45 17.5,-4.45 h 11.95 v -0.83 q 0,-5.88 -3.89,-9.07 -3.84,-3.25 -10.83,-3.25 -4.45,0 -8.66,1.07 -4.21,1.06 -8.1,3.19 v -7.87 q 4.67,-1.8 9.07,-2.68 4.4,-0.93 8.57,-0.93 11.25,0 16.8,5.84 5.56,5.83 5.56,17.68 z"
     fill="#000000"
     fill-rule="nonzero"
     fill-opacity="1"
     id="path16"
     transform="translate(0,83.894836)" />
  <path
     clip-path="url(#clip790)"
     d="m 1252.54,1711.63 v 14.72 h 17.54 v 6.62 h -17.54 v 28.15 q 0,6.34 1.71,8.15 1.76,1.8 7.08,1.8 h 8.75 v 7.13 h -8.75 q -9.86,0 -13.61,-3.65 -3.75,-3.71 -3.75,-13.43 v -28.15 h -6.25 v -6.62 h 6.25 v -14.72 z"
     fill="#000000"
     fill-rule="nonzero"
     fill-opacity="1"
     id="path17"
     transform="translate(0,83.894836)" />
  <path
     clip-path="url(#clip790)"
     d="m 1325.64,1750.15 v 4.17 h -39.17 q 0.56,8.79 5.28,13.42 4.77,4.58 13.24,4.58 4.91,0 9.49,-1.2 4.63,-1.2 9.17,-3.61 v 8.06 q -4.58,1.94 -9.4,2.96 -4.81,1.02 -9.77,1.02 -12.4,0 -19.67,-7.23 -7.23,-7.22 -7.23,-19.53 0,-12.73 6.86,-20.19 6.89,-7.5 18.56,-7.5 10.46,0 16.53,6.76 6.11,6.71 6.11,18.29 m -8.52,-2.5 q -0.09,-6.99 -3.93,-11.16 -3.8,-4.17 -10.1,-4.17 -7.13,0 -11.43,4.03 -4.26,4.03 -4.91,11.35 z"
     fill="#000000"
     fill-rule="nonzero"
     fill-opacity="1"
     id="path18"
     transform="translate(0,83.894836)" />
  <path
     clip-path="url(#clip790)"
     d="m 1382.72,1746.91 v 31.29 h -8.52 v -31.01 q 0,-7.37 -2.87,-11.02 -2.87,-3.66 -8.61,-3.66 -6.9,0 -10.88,4.4 -3.98,4.4 -3.98,11.99 v 29.3 h -8.56 v -51.85 h 8.56 v 8.06 q 3.06,-4.68 7.18,-6.99 4.16,-2.32 9.58,-2.32 8.94,0 13.52,5.56 4.58,5.51 4.58,16.25 z"
     fill="#000000"
     fill-rule="nonzero"
     fill-opacity="1"
     id="path19"
     transform="translate(0,83.894836)" />
  <path
     clip-path="url(#clip790)"
     d="m 1408.14,1711.63 v 14.72 h 17.55 v 6.62 h -17.55 v 28.15 q 0,6.34 1.71,8.15 1.76,1.8 7.09,1.8 h 8.75 v 7.13 h -8.75 q -9.87,0 -13.62,-3.65 -3.75,-3.71 -3.75,-13.43 v -28.15 h -6.25 v -6.62 h 6.25 v -14.72 z"
     fill="#000000"
     fill-rule="nonzero"
     fill-opacity="1"
     id="path20"
     transform="translate(0,83.894836)" />
  <path
     clip-path="url(#clip790)"
     d="m 1500.08,1727.88 v 8.06 q -3.61,-1.86 -7.5,-2.78 -3.89,-0.93 -8.05,-0.93 -6.34,0 -9.54,1.95 -3.15,1.94 -3.15,5.83 0,2.96 2.27,4.68 2.27,1.66 9.12,3.19 l 2.92,0.65 q 9.07,1.94 12.87,5.51 3.84,3.52 3.84,9.86 0,7.22 -5.74,11.43 -5.69,4.22 -15.69,4.22 -4.17,0 -8.71,-0.84 -4.49,-0.78 -9.49,-2.4 v -8.8 q 4.72,2.45 9.31,3.7 4.58,1.21 9.07,1.21 6.02,0 9.26,-2.04 3.24,-2.08 3.24,-5.83 0,-3.48 -2.36,-5.33 -2.31,-1.85 -10.23,-3.56 l -2.96,-0.7 q -7.92,-1.66 -11.44,-5.09 -3.52,-3.47 -3.52,-9.49 0,-7.31 5.19,-11.3 5.18,-3.98 14.72,-3.98 4.72,0 8.89,0.7 4.16,0.69 7.68,2.08 z"
     fill="#000000"
     fill-rule="nonzero"
     fill-opacity="1"
     id="path21"
     transform="translate(0,83.894836)" />
  <path
     clip-path="url(#clip790)"
     d="m 1524.67,1770.43 v 27.5 h -8.57 v -71.58 h 8.57 v 7.87 q 2.68,-4.63 6.76,-6.85 4.12,-2.27 9.81,-2.27 9.45,0 15.32,7.5 5.93,7.5 5.93,19.72 0,12.23 -5.93,19.73 -5.87,7.5 -15.32,7.5 -5.69,0 -9.81,-2.23 -4.08,-2.26 -6.76,-6.89 m 28.98,-18.11 q 0,-9.39 -3.89,-14.72 -3.84,-5.37 -10.6,-5.37 -6.76,0 -10.65,5.37 -3.84,5.33 -3.84,14.72 0,9.4 3.84,14.77 3.89,5.33 10.65,5.33 6.76,0 10.6,-5.33 3.89,-5.37 3.89,-14.77 z"
     fill="#000000"
     fill-rule="nonzero"
     fill-opacity="1"
     id="path22"
     transform="translate(0,83.894836)" />
  <path
     clip-path="url(#clip790)"
     d="m 1620.96,1750.15 v 4.17 h -39.16 q 0.55,8.79 5.27,13.42 4.77,4.58 13.24,4.58 4.91,0 9.5,-1.2 4.62,-1.2 9.16,-3.61 v 8.06 q -4.58,1.94 -9.4,2.96 -4.81,1.02 -9.76,1.02 -12.41,0 -19.68,-7.23 -7.22,-7.22 -7.22,-19.53 0,-12.73 6.85,-20.19 6.9,-7.5 18.56,-7.5 10.47,0 16.53,6.76 6.11,6.71 6.11,18.29 m -8.52,-2.5 q -0.09,-6.99 -3.93,-11.16 -3.8,-4.17 -10.09,-4.17 -7.13,0 -11.44,4.03 -4.26,4.03 -4.91,11.35 z"
     fill="#000000"
     fill-rule="nonzero"
     fill-opacity="1"
     id="path23"
     transform="translate(0,83.894836)" />
  <path
     clip-path="url(#clip790)"
     d="m 1672.26,1728.34 v 7.97 q -3.61,-1.99 -7.27,-2.97 -3.61,-1.02 -7.31,-1.02 -8.29,0 -12.88,5.28 -4.58,5.23 -4.58,14.72 0,9.5 4.58,14.77 4.59,5.23 12.88,5.23 3.7,0 7.31,-0.97 3.66,-1.02 7.27,-3.01 v 7.87 q -3.57,1.67 -7.41,2.5 -3.8,0.84 -8.1,0.84 -11.71,0 -18.61,-7.36 -6.9,-7.37 -6.9,-19.87 0,-12.68 6.94,-19.95 7,-7.27 19.12,-7.27 3.94,0 7.69,0.84 3.75,0.78 7.27,2.4 z"
     fill="#000000"
     fill-rule="nonzero"
     fill-opacity="1"
     id="path24"
     transform="translate(0,83.894836)" />
  <path
     clip-path="url(#clip790)"
     d="m 1687.07,1726.35 h 8.52 v 51.85 h -8.52 v -51.85 m 0,-20.18 h 8.52 v 10.78 h -8.52 z"
     fill="#000000"
     fill-rule="nonzero"
     fill-opacity="1"
     id="path25"
     transform="translate(0,83.894836)" />
  <path
     clip-path="url(#clip790)"
     d="m 1757.77,1750.15 v 4.17 h -39.17 q 0.56,8.79 5.28,13.42 4.77,4.58 13.24,4.58 4.91,0 9.49,-1.2 4.63,-1.2 9.17,-3.61 v 8.06 q -4.59,1.94 -9.4,2.96 -4.82,1.02 -9.77,1.02 -12.41,0 -19.68,-7.23 -7.22,-7.22 -7.22,-19.53 0,-12.73 6.85,-20.19 6.9,-7.5 18.57,-7.5 10.46,0 16.53,6.76 6.11,6.71 6.11,18.29 m -8.52,-2.5 q -0.09,-6.99 -3.94,-11.16 -3.79,-4.17 -10.09,-4.17 -7.13,0 -11.43,4.03 -4.26,4.03 -4.91,11.35 z"
     fill="#000000"
     fill-rule="nonzero"
     fill-opacity="1"
     id="path26"
     transform="translate(0,83.894836)" />
  <path
     clip-path="url(#clip790)"
     d="m 1804.8,1727.88 v 8.06 q -3.61,-1.86 -7.5,-2.78 -3.88,-0.93 -8.05,-0.93 -6.34,0 -9.54,1.95 -3.15,1.94 -3.15,5.83 0,2.96 2.27,4.68 2.27,1.66 9.12,3.19 l 2.92,0.65 q 9.07,1.94 12.87,5.51 3.84,3.52 3.84,9.86 0,7.22 -5.74,11.43 -5.69,4.22 -15.69,4.22 -4.17,0 -8.71,-0.84 -4.49,-0.78 -9.49,-2.4 v -8.8 q 4.72,2.45 9.31,3.7 4.58,1.21 9.07,1.21 6.02,0 9.26,-2.04 3.24,-2.08 3.24,-5.83 0,-3.48 -2.36,-5.33 -2.31,-1.85 -10.23,-3.56 l -2.96,-0.7 q -7.92,-1.66 -11.44,-5.09 -3.52,-3.47 -3.52,-9.49 0,-7.31 5.19,-11.3 5.18,-3.98 14.72,-3.98 4.72,0 8.89,0.7 4.17,0.69 7.68,2.08 z"
     fill="#000000"
     fill-rule="nonzero"
     fill-opacity="1"
     id="path27"
     transform="translate(0,83.894836)" />
  <polyline
     clip-path="url(#clip790)"
     style="fill:none;stroke:#000000;stroke-width:4;stroke-linecap:round;stroke-linejoin:round;stroke-opacity:1"
     points="538.156,1562.54 538.156,47.2441 "
     id="polyline27"
     transform="translate(0,83.894836)" />
  <polyline
     clip-path="url(#clip790)"
     style="fill:none;stroke:#000000;stroke-width:4;stroke-linecap:round;stroke-linejoin:round;stroke-opacity:1"
     points="538.156,1530.61 557.053,1530.61 "
     id="polyline28"
     transform="translate(0,83.894836)" />
  <polyline
     clip-path="url(#clip790)"
     style="fill:none;stroke:#000000;stroke-width:4;stroke-linecap:round;stroke-linejoin:round;stroke-opacity:1"
     points="538.156,1285.01 557.053,1285.01 "
     id="polyline29"
     transform="translate(0,83.894836)" />
  <polyline
     clip-path="url(#clip790)"
     style="fill:none;stroke:#000000;stroke-width:4;stroke-linecap:round;stroke-linejoin:round;stroke-opacity:1"
     points="538.156,1039.42 557.053,1039.42 "
     id="polyline30"
     transform="translate(0,83.894836)" />
  <polyline
     clip-path="url(#clip790)"
     style="fill:none;stroke:#000000;stroke-width:4;stroke-linecap:round;stroke-linejoin:round;stroke-opacity:1"
     points="538.156,793.819 557.053,793.819 "
     id="polyline31"
     transform="translate(0,83.894836)" />
  <polyline
     clip-path="url(#clip790)"
     style="fill:none;stroke:#000000;stroke-width:4;stroke-linecap:round;stroke-linejoin:round;stroke-opacity:1"
     points="538.156,548.222 557.053,548.222 "
     id="polyline32"
     transform="translate(0,83.894836)" />
  <polyline
     clip-path="url(#clip790)"
     style="fill:none;stroke:#000000;stroke-width:4;stroke-linecap:round;stroke-linejoin:round;stroke-opacity:1"
     points="538.156,302.625 557.053,302.625 "
     id="polyline33"
     transform="translate(0,83.894836)" />
  <polyline
     clip-path="url(#clip790)"
     style="fill:none;stroke:#000000;stroke-width:4;stroke-linecap:round;stroke-linejoin:round;stroke-opacity:1"
     points="538.156,57.0272 557.053,57.0272 "
     id="polyline34"
     transform="translate(0,83.894836)" />
  <path
     clip-path="url(#clip790)"
     d="m 475.253,1505.76 q -6.32,0 -9.52,6.24 -3.159,6.2 -3.159,18.67 0,12.44 3.159,18.68 3.2,6.19 9.52,6.19 6.36,0 9.519,-6.19 3.201,-6.24 3.201,-18.68 0,-12.47 -3.201,-18.67 -3.159,-6.24 -9.519,-6.24 m 0,-6.48 q 10.168,0 15.515,8.06 5.388,8.02 5.388,23.33 0,15.27 -5.388,23.34 -5.347,8.02 -15.515,8.02 -10.168,0 -15.556,-8.02 -5.347,-8.07 -5.347,-23.34 0,-15.31 5.347,-23.33 5.388,-8.06 15.556,-8.06 z"
     fill="#000000"
     fill-rule="nonzero"
     fill-opacity="1"
     id="path34"
     transform="translate(0,83.894836)" />
  <path
     clip-path="url(#clip790)"
     d="m 169.126,1319.65 h 13.368 v -46.14 l -14.543,2.92 v -7.46 l 14.462,-2.91 h 8.183 v 53.59 h 13.368 v 6.89 h -34.838 z"
     fill="#000000"
     fill-rule="nonzero"
     fill-opacity="1"
     id="path35"
     transform="translate(0,83.894836)" />
  <path
     clip-path="url(#clip790)"
     d="m 220.492,1316.25 h 8.547 v 10.29 h -8.547 z"
     fill="#000000"
     fill-rule="nonzero"
     fill-opacity="1"
     id="path36"
     transform="translate(0,83.894836)" />
  <path
     clip-path="url(#clip790)"
     d="m 264.363,1271.45 q -6.32,0 -9.52,6.23 -3.16,6.2 -3.16,18.68 0,12.43 3.16,18.67 3.2,6.2 9.52,6.2 6.36,0 9.519,-6.2 3.201,-6.24 3.201,-18.67 0,-12.48 -3.201,-18.68 -3.159,-6.23 -9.519,-6.23 m 0,-6.49 q 10.168,0 15.515,8.07 5.387,8.02 5.387,23.33 0,15.27 -5.387,23.33 -5.347,8.02 -15.515,8.02 -10.168,0 -15.556,-8.02 -5.347,-8.06 -5.347,-23.33 0,-15.31 5.347,-23.33 5.388,-8.07 15.556,-8.07 z"
     fill="#000000"
     fill-rule="nonzero"
     fill-opacity="1"
     id="path37"
     transform="translate(0,83.894836)" />
  <path
     clip-path="url(#clip790)"
     d="m 348.946,1281.98 -18.513,18.59 18.513,18.51 -4.821,4.91 -18.594,-18.6 -18.593,18.6 -4.78,-4.91 18.472,-18.51 -18.472,-18.59 4.78,-4.9 18.593,18.59 18.594,-18.59 z"
     fill="#000000"
     fill-rule="nonzero"
     fill-opacity="1"
     id="path38"
     transform="translate(0,83.894836)" />
  <path
     clip-path="url(#clip790)"
     d="m 370.578,1319.65 h 13.367 v -46.14 l -14.542,2.92 v -7.46 l 14.461,-2.91 h 8.183 v 53.59 h 13.368 v 6.89 h -34.837 z"
     fill="#000000"
     fill-rule="nonzero"
     fill-opacity="1"
     id="path39"
     transform="translate(0,83.894836)" />
  <path
     clip-path="url(#clip790)"
     d="m 439.443,1271.45 q -6.32,0 -9.52,6.23 -3.159,6.2 -3.159,18.68 0,12.43 3.159,18.67 3.2,6.2 9.52,6.2 6.36,0 9.52,-6.2 3.2,-6.24 3.2,-18.67 0,-12.48 -3.2,-18.68 -3.16,-6.23 -9.52,-6.23 m 0,-6.49 q 10.168,0 15.515,8.07 5.388,8.02 5.388,23.33 0,15.27 -5.388,23.33 -5.347,8.02 -15.515,8.02 -10.168,0 -15.556,-8.02 -5.347,-8.06 -5.347,-23.33 0,-15.31 5.347,-23.33 5.388,-8.07 15.556,-8.07 z"
     fill="#000000"
     fill-rule="nonzero"
     fill-opacity="1"
     id="path40"
     transform="translate(0,83.894836)" />
  <path
     clip-path="url(#clip790)"
     d="m 482.529,1235.22 -16.786,26.23 h 16.786 v -26.23 m -1.744,-5.79 h 8.36 v 32.02 h 7.011 v 5.53 h -7.011 v 11.59 h -6.616 v -11.59 h -22.183 v -6.41 z"
     fill="#000000"
     fill-rule="nonzero"
     fill-opacity="1"
     id="path41"
     transform="translate(0,83.894836)" />
  <path
     clip-path="url(#clip790)"
     d="m 174.757,1074.05 h 28.559 v 6.89 h -38.403 v -6.89 q 4.659,-4.82 12.679,-12.92 8.062,-8.14 10.128,-10.49 3.929,-4.42 5.468,-7.45 1.58,-3.08 1.58,-6.04 0,-4.82 -3.402,-7.86 -3.363,-3.04 -8.791,-3.04 -3.848,0 -8.142,1.34 -4.254,1.34 -9.115,4.05 v -8.26 q 4.942,-1.99 9.236,-3 4.294,-1.01 7.859,-1.01 9.398,0 14.988,4.7 5.591,4.69 5.591,12.55 0,3.73 -1.418,7.09 -1.378,3.32 -5.064,7.86 -1.013,1.18 -6.441,6.81 -5.428,5.59 -15.312,15.67 z"
     fill="#000000"
     fill-rule="nonzero"
     fill-opacity="1"
     id="path42"
     transform="translate(0,83.894836)" />
  <path
     clip-path="url(#clip790)"
     d="m 220.492,1070.65 h 8.547 v 10.29 h -8.547 z"
     fill="#000000"
     fill-rule="nonzero"
     fill-opacity="1"
     id="path43"
     transform="translate(0,83.894836)" />
  <path
     clip-path="url(#clip790)"
     d="m 264.363,1025.85 q -6.32,0 -9.52,6.24 -3.16,6.19 -3.16,18.67 0,12.44 3.16,18.68 3.2,6.19 9.52,6.19 6.36,0 9.519,-6.19 3.201,-6.24 3.201,-18.68 0,-12.48 -3.201,-18.67 -3.159,-6.24 -9.519,-6.24 m 0,-6.48 q 10.168,0 15.515,8.06 5.387,8.02 5.387,23.33 0,15.27 -5.387,23.33 -5.347,8.02 -15.515,8.02 -10.168,0 -15.556,-8.02 -5.347,-8.06 -5.347,-23.33 0,-15.31 5.347,-23.33 5.388,-8.06 15.556,-8.06 z"
     fill="#000000"
     fill-rule="nonzero"
     fill-opacity="1"
     id="path44"
     transform="translate(0,83.894836)" />
  <path
     clip-path="url(#clip790)"
     d="m 348.946,1036.38 -18.513,18.59 18.513,18.52 -4.821,4.9 -18.594,-18.6 -18.593,18.6 -4.78,-4.9 18.472,-18.52 -18.472,-18.59 4.78,-4.9 18.593,18.59 18.594,-18.59 z"
     fill="#000000"
     fill-rule="nonzero"
     fill-opacity="1"
     id="path45"
     transform="translate(0,83.894836)" />
  <path
     clip-path="url(#clip790)"
     d="m 370.578,1074.05 h 13.367 v -46.14 l -14.542,2.92 v -7.45 l 14.461,-2.92 h 8.183 v 53.59 h 13.368 v 6.89 h -34.837 z"
     fill="#000000"
     fill-rule="nonzero"
     fill-opacity="1"
     id="path46"
     transform="translate(0,83.894836)" />
  <path
     clip-path="url(#clip790)"
     d="m 439.443,1025.85 q -6.32,0 -9.52,6.24 -3.159,6.19 -3.159,18.67 0,12.44 3.159,18.68 3.2,6.19 9.52,6.19 6.36,0 9.52,-6.19 3.2,-6.24 3.2,-18.68 0,-12.48 -3.2,-18.67 -3.16,-6.24 -9.52,-6.24 m 0,-6.48 q 10.168,0 15.515,8.06 5.388,8.02 5.388,23.33 0,15.27 -5.388,23.33 -5.347,8.02 -15.515,8.02 -10.168,0 -15.556,-8.02 -5.347,-8.06 -5.347,-23.33 0,-15.31 5.347,-23.33 5.388,-8.06 15.556,-8.06 z"
     fill="#000000"
     fill-rule="nonzero"
     fill-opacity="1"
     id="path47"
     transform="translate(0,83.894836)" />
  <path
     clip-path="url(#clip790)"
     d="m 482.529,989.625 -16.786,26.235 h 16.786 v -26.235 m -1.744,-5.793 h 8.36 v 32.028 h 7.011 v 5.53 h -7.011 v 11.58 h -6.616 v -11.58 h -22.183 v -6.42 z"
     fill="#000000"
     fill-rule="nonzero"
     fill-opacity="1"
     id="path48"
     transform="translate(0,83.894836)" />
  <path
     clip-path="url(#clip790)"
     d="m 192.5,802.733 q 5.874,1.256 9.155,5.226 3.322,3.97 3.322,9.803 0,8.952 -6.158,13.854 -6.157,4.902 -17.5,4.902 -3.808,0 -7.858,-0.77 -4.011,-0.729 -8.305,-2.228 v -7.899 q 3.403,1.985 7.454,2.997 4.051,1.013 8.466,1.013 7.697,0 11.707,-3.038 4.051,-3.038 4.051,-8.831 0,-5.347 -3.767,-8.345 -3.727,-3.038 -10.411,-3.038 h -7.049 v -6.725 h 7.373 q 6.036,0 9.236,-2.39 3.2,-2.43 3.2,-6.967 0,-4.659 -3.321,-7.13 -3.282,-2.511 -9.439,-2.511 -3.362,0 -7.211,0.729 -3.848,0.729 -8.466,2.268 v -7.291 q 4.659,-1.297 8.71,-1.945 4.091,-0.648 7.696,-0.648 9.317,0 14.746,4.253 5.428,4.213 5.428,11.424 0,5.023 -2.876,8.507 -2.877,3.443 -8.183,4.78 z"
     fill="#000000"
     fill-rule="nonzero"
     fill-opacity="1"
     id="path49"
     transform="translate(0,83.894836)" />
  <path
     clip-path="url(#clip790)"
     d="m 220.492,825.053 h 8.547 v 10.29 h -8.547 z"
     fill="#000000"
     fill-rule="nonzero"
     fill-opacity="1"
     id="path50"
     transform="translate(0,83.894836)" />
  <path
     clip-path="url(#clip790)"
     d="m 264.363,780.25 q -6.32,0 -9.52,6.239 -3.16,6.198 -3.16,18.675 0,12.436 3.16,18.674 3.2,6.198 9.52,6.198 6.36,0 9.519,-6.198 3.201,-6.238 3.201,-18.674 0,-12.477 -3.201,-18.675 -3.159,-6.239 -9.519,-6.239 m 0,-6.481 q 10.168,0 15.515,8.061 5.387,8.021 5.387,23.334 0,15.271 -5.387,23.333 -5.347,8.021 -15.515,8.021 -10.168,0 -15.556,-8.021 -5.347,-8.062 -5.347,-23.333 0,-15.313 5.347,-23.334 5.388,-8.061 15.556,-8.061 z"
     fill="#000000"
     fill-rule="nonzero"
     fill-opacity="1"
     id="path51"
     transform="translate(0,83.894836)" />
  <path
     clip-path="url(#clip790)"
     d="m 348.946,790.783 -18.513,18.593 18.513,18.513 -4.821,4.902 -18.594,-18.594 -18.593,18.594 -4.78,-4.902 18.472,-18.513 -18.472,-18.593 4.78,-4.902 18.593,18.594 18.594,-18.594 z"
     fill="#000000"
     fill-rule="nonzero"
     fill-opacity="1"
     id="path52"
     transform="translate(0,83.894836)" />
  <path
     clip-path="url(#clip790)"
     d="m 370.578,828.456 h 13.367 v -46.14 l -14.542,2.917 v -7.454 l 14.461,-2.916 h 8.183 v 53.593 h 13.368 v 6.887 h -34.837 z"
     fill="#000000"
     fill-rule="nonzero"
     fill-opacity="1"
     id="path53"
     transform="translate(0,83.894836)" />
  <path
     clip-path="url(#clip790)"
     d="m 439.443,780.25 q -6.32,0 -9.52,6.239 -3.159,6.198 -3.159,18.675 0,12.436 3.159,18.674 3.2,6.198 9.52,6.198 6.36,0 9.52,-6.198 3.2,-6.238 3.2,-18.674 0,-12.477 -3.2,-18.675 -3.16,-6.239 -9.52,-6.239 m 0,-6.481 q 10.168,0 15.515,8.061 5.388,8.021 5.388,23.334 0,15.271 -5.388,23.333 -5.347,8.021 -15.515,8.021 -10.168,0 -15.556,-8.021 -5.347,-8.062 -5.347,-23.333 0,-15.313 5.347,-23.334 5.388,-8.061 15.556,-8.061 z"
     fill="#000000"
     fill-rule="nonzero"
     fill-opacity="1"
     id="path54"
     transform="translate(0,83.894836)" />
  <path
     clip-path="url(#clip790)"
     d="m 482.529,744.027 -16.786,26.232 h 16.786 v -26.232 m -1.744,-5.792 h 8.36 v 32.024 h 7.011 v 5.53 h -7.011 v 11.586 h -6.616 v -11.586 h -22.183 v -6.418 z"
     fill="#000000"
     fill-rule="nonzero"
     fill-opacity="1"
     id="path55"
     transform="translate(0,83.894836)" />
  <path
     clip-path="url(#clip790)"
     d="m 190.191,536.395 -20.66,32.286 h 20.66 v -32.286 m -2.147,-7.13 h 10.289 v 39.416 h 8.628 v 6.805 h -8.628 v 14.259 h -8.142 v -14.259 h -27.303 v -7.899 z"
     fill="#000000"
     fill-rule="nonzero"
     fill-opacity="1"
     id="path56"
     transform="translate(0,83.894836)" />
  <path
     clip-path="url(#clip790)"
     d="m 220.492,579.456 h 8.547 v 10.289 h -8.547 z"
     fill="#000000"
     fill-rule="nonzero"
     fill-opacity="1"
     id="path57"
     transform="translate(0,83.894836)" />
  <path
     clip-path="url(#clip790)"
     d="m 264.363,534.653 q -6.32,0 -9.52,6.238 -3.16,6.198 -3.16,18.675 0,12.436 3.16,18.675 3.2,6.198 9.52,6.198 6.36,0 9.519,-6.198 3.201,-6.239 3.201,-18.675 0,-12.477 -3.201,-18.675 -3.159,-6.238 -9.519,-6.238 m 0,-6.481 q 10.168,0 15.515,8.061 5.387,8.021 5.387,23.333 0,15.272 -5.387,23.333 -5.347,8.021 -15.515,8.021 -10.168,0 -15.556,-8.021 -5.347,-8.061 -5.347,-23.333 0,-15.312 5.347,-23.333 5.388,-8.061 15.556,-8.061 z"
     fill="#000000"
     fill-rule="nonzero"
     fill-opacity="1"
     id="path58"
     transform="translate(0,83.894836)" />
  <path
     clip-path="url(#clip790)"
     d="m 348.946,545.185 -18.513,18.594 18.513,18.513 -4.821,4.901 -18.594,-18.593 -18.593,18.593 -4.78,-4.901 18.472,-18.513 -18.472,-18.594 4.78,-4.901 18.593,18.593 18.594,-18.593 z"
     fill="#000000"
     fill-rule="nonzero"
     fill-opacity="1"
     id="path59"
     transform="translate(0,83.894836)" />
  <path
     clip-path="url(#clip790)"
     d="m 370.578,582.859 h 13.367 v -46.14 l -14.542,2.917 v -7.454 l 14.461,-2.917 h 8.183 v 53.594 h 13.368 v 6.886 h -34.837 z"
     fill="#000000"
     fill-rule="nonzero"
     fill-opacity="1"
     id="path60"
     transform="translate(0,83.894836)" />
  <path
     clip-path="url(#clip790)"
     d="m 439.443,534.653 q -6.32,0 -9.52,6.238 -3.159,6.198 -3.159,18.675 0,12.436 3.159,18.675 3.2,6.198 9.52,6.198 6.36,0 9.52,-6.198 3.2,-6.239 3.2,-18.675 0,-12.477 -3.2,-18.675 -3.16,-6.238 -9.52,-6.238 m 0,-6.481 q 10.168,0 15.515,8.061 5.388,8.021 5.388,23.333 0,15.272 -5.388,23.333 -5.347,8.021 -15.515,8.021 -10.168,0 -15.556,-8.021 -5.347,-8.061 -5.347,-23.333 0,-15.312 5.347,-23.333 5.388,-8.061 15.556,-8.061 z"
     fill="#000000"
     fill-rule="nonzero"
     fill-opacity="1"
     id="path61"
     transform="translate(0,83.894836)" />
  <path
     clip-path="url(#clip790)"
     d="m 482.529,498.43 -16.786,26.232 h 16.786 V 498.43 m -1.744,-5.793 h 8.36 v 32.025 h 7.011 v 5.53 h -7.011 v 11.585 h -6.616 v -11.585 h -22.183 v -6.419 z"
     fill="#000000"
     fill-rule="nonzero"
     fill-opacity="1"
     id="path62"
     transform="translate(0,83.894836)" />
  <path
     clip-path="url(#clip790)"
     d="m 167.789,283.668 h 32.124 v 6.886 h -24.63 v 14.827 q 1.783,-0.608 3.565,-0.891 1.783,-0.324 3.565,-0.324 10.127,0 16.042,5.549 5.914,5.55 5.914,15.029 0,9.763 -6.076,15.191 -6.077,5.388 -17.136,5.388 -3.808,0 -7.778,-0.648 -3.929,-0.649 -8.142,-1.945 v -8.223 q 3.646,1.985 7.535,2.957 3.889,0.972 8.223,0.972 7.008,0 11.1,-3.686 4.091,-3.686 4.091,-10.006 0,-6.319 -4.091,-10.006 -4.092,-3.686 -11.1,-3.686 -3.281,0 -6.562,0.729 -3.241,0.729 -6.644,2.269 z"
     fill="#000000"
     fill-rule="nonzero"
     fill-opacity="1"
     id="path63"
     transform="translate(0,83.894836)" />
  <path
     clip-path="url(#clip790)"
     d="m 220.492,333.859 h 8.547 v 10.289 h -8.547 z"
     fill="#000000"
     fill-rule="nonzero"
     fill-opacity="1"
     id="path64"
     transform="translate(0,83.894836)" />
  <path
     clip-path="url(#clip790)"
     d="m 264.363,289.056 q -6.32,0 -9.52,6.238 -3.16,6.198 -3.16,18.675 0,12.436 3.16,18.674 3.2,6.198 9.52,6.198 6.36,0 9.519,-6.198 3.201,-6.238 3.201,-18.674 0,-12.477 -3.201,-18.675 -3.159,-6.238 -9.519,-6.238 m 0,-6.482 q 10.168,0 15.515,8.061 5.387,8.021 5.387,23.334 0,15.272 -5.387,23.333 -5.347,8.021 -15.515,8.021 -10.168,0 -15.556,-8.021 -5.347,-8.061 -5.347,-23.333 0,-15.313 5.347,-23.334 5.388,-8.061 15.556,-8.061 z"
     fill="#000000"
     fill-rule="nonzero"
     fill-opacity="1"
     id="path65"
     transform="translate(0,83.894836)" />
  <path
     clip-path="url(#clip790)"
     d="m 348.946,299.588 -18.513,18.594 18.513,18.512 -4.821,4.902 -18.594,-18.594 -18.593,18.594 -4.78,-4.902 18.472,-18.512 -18.472,-18.594 4.78,-4.902 18.593,18.594 18.594,-18.594 z"
     fill="#000000"
     fill-rule="nonzero"
     fill-opacity="1"
     id="path66"
     transform="translate(0,83.894836)" />
  <path
     clip-path="url(#clip790)"
     d="m 370.578,337.261 h 13.367 v -46.139 l -14.542,2.916 v -7.453 l 14.461,-2.917 h 8.183 v 53.593 h 13.368 v 6.887 h -34.837 z"
     fill="#000000"
     fill-rule="nonzero"
     fill-opacity="1"
     id="path67"
     transform="translate(0,83.894836)" />
  <path
     clip-path="url(#clip790)"
     d="m 439.443,289.056 q -6.32,0 -9.52,6.238 -3.159,6.198 -3.159,18.675 0,12.436 3.159,18.674 3.2,6.198 9.52,6.198 6.36,0 9.52,-6.198 3.2,-6.238 3.2,-18.674 0,-12.477 -3.2,-18.675 -3.16,-6.238 -9.52,-6.238 m 0,-6.482 q 10.168,0 15.515,8.061 5.388,8.021 5.388,23.334 0,15.272 -5.388,23.333 -5.347,8.021 -15.515,8.021 -10.168,0 -15.556,-8.021 -5.347,-8.061 -5.347,-23.333 0,-15.313 5.347,-23.334 5.388,-8.061 15.556,-8.061 z"
     fill="#000000"
     fill-rule="nonzero"
     fill-opacity="1"
     id="path68"
     transform="translate(0,83.894836)" />
  <path
     clip-path="url(#clip790)"
     d="m 482.529,252.833 -16.786,26.232 h 16.786 v -26.232 m -1.744,-5.793 h 8.36 v 32.025 h 7.011 v 5.529 h -7.011 v 11.586 h -6.616 v -11.586 h -22.183 v -6.418 z"
     fill="#000000"
     fill-rule="nonzero"
     fill-opacity="1"
     id="path69"
     transform="translate(0,83.894836)" />
  <path
     clip-path="url(#clip790)"
     d="m 186.221,65.0496 q -5.509,0 -8.75,3.7673 -3.2,3.7673 -3.2,10.3298 0,6.522 3.2,10.3298 3.241,3.7674 8.75,3.7674 5.509,0 8.709,-3.7674 3.241,-3.8078 3.241,-10.3298 0,-6.5625 -3.241,-10.3298 -3.2,-3.7673 -8.709,-3.7673 m 16.244,-25.6423 v 7.4537 q -3.079,-1.4583 -6.238,-2.228 -3.12,-0.7697 -6.198,-0.7697 -8.102,0 -12.396,5.4688 -4.254,5.4687 -4.861,16.5276 2.39,-3.5242 5.995,-5.3877 3.605,-1.9039 7.94,-1.9039 9.115,0 14.381,5.5498 5.306,5.5092 5.306,15.0288 0,9.3171 -5.509,14.9478 -5.509,5.6308 -14.664,5.6308 -10.492,0 -16.042,-8.0208 -5.549,-8.0613 -5.549,-23.3332 0,-14.3402 6.805,-22.8471 6.806,-8.5474 18.27,-8.5474 3.078,0 6.198,0.6076 3.159,0.6077 6.562,1.8229 z"
     fill="#000000"
     fill-rule="nonzero"
     fill-opacity="1"
     id="path70"
     transform="translate(0,83.894836)" />
  <path
     clip-path="url(#clip790)"
     d="m 220.492,88.2612 h 8.547 v 10.2893 h -8.547 z"
     fill="#000000"
     fill-rule="nonzero"
     fill-opacity="1"
     id="path71"
     transform="translate(0,83.894836)" />
  <path
     clip-path="url(#clip790)"
     d="m 264.363,43.4582 q -6.32,0 -9.52,6.2384 -3.16,6.1979 -3.16,18.6747 0,12.4363 3.16,18.6747 3.2,6.1979 9.52,6.1979 6.36,0 9.519,-6.1979 3.201,-6.2384 3.201,-18.6747 0,-12.4768 -3.201,-18.6747 -3.159,-6.2384 -9.519,-6.2384 m 0,-6.4814 q 10.168,0 15.515,8.0613 5.387,8.0208 5.387,23.3332 0,15.2719 -5.387,23.3332 -5.347,8.0208 -15.515,8.0208 -10.168,0 -15.556,-8.0208 -5.347,-8.0613 -5.347,-23.3332 0,-15.3124 5.347,-23.3332 5.388,-8.0613 15.556,-8.0613 z"
     fill="#000000"
     fill-rule="nonzero"
     fill-opacity="1"
     id="path72"
     transform="translate(0,83.894836)" />
  <path
     clip-path="url(#clip790)"
     d="m 348.946,53.9906 -18.513,18.5936 18.513,18.5127 -4.821,4.9016 -18.594,-18.5937 -18.593,18.5937 -4.78,-4.9016 18.472,-18.5127 -18.472,-18.5936 4.78,-4.9016 18.593,18.5936 18.594,-18.5936 z"
     fill="#000000"
     fill-rule="nonzero"
     fill-opacity="1"
     id="path73"
     transform="translate(0,83.894836)" />
  <path
     clip-path="url(#clip790)"
     d="m 370.578,91.664 h 13.367 V 45.5242 l -14.542,2.9167 v -7.4537 l 14.461,-2.9167 h 8.183 V 91.664 h 13.368 v 6.8865 h -34.837 z"
     fill="#000000"
     fill-rule="nonzero"
     fill-opacity="1"
     id="path74"
     transform="translate(0,83.894836)" />
  <path
     clip-path="url(#clip790)"
     d="m 439.443,43.4582 q -6.32,0 -9.52,6.2384 -3.159,6.1979 -3.159,18.6747 0,12.4363 3.159,18.6747 3.2,6.1979 9.52,6.1979 6.36,0 9.52,-6.1979 3.2,-6.2384 3.2,-18.6747 0,-12.4768 -3.2,-18.6747 -3.16,-6.2384 -9.52,-6.2384 m 0,-6.4814 q 10.168,0 15.515,8.0613 5.388,8.0208 5.388,23.3332 0,15.2719 -5.388,23.3332 -5.347,8.0208 -15.515,8.0208 -10.168,0 -15.556,-8.0208 -5.347,-8.0613 -5.347,-23.3332 0,-15.3124 5.347,-23.3332 5.388,-8.0613 15.556,-8.0613 z"
     fill="#000000"
     fill-rule="nonzero"
     fill-opacity="1"
     id="path75"
     transform="translate(0,83.894836)" />
  <path
     clip-path="url(#clip790)"
     d="M 482.529,7.23513 465.743,33.4673 h 16.786 V 7.23513 m -1.744,-5.79279 h 8.36 V 33.4673 h 7.011 v 5.5295 h -7.011 v 11.5855 h -6.616 V 38.9968 h -22.183 v -6.4182 z"
     fill="#000000"
     fill-rule="nonzero"
     fill-opacity="1"
     id="path76"
     transform="translate(0,83.894836)" />
  <path
     clip-path="url(#clip790)"
     d="m 38.7168,969.752 h 25.9721 v -11.759 q 0,-6.527 -3.3796,-10.092 -3.3796,-3.565 -9.6296,-3.565 -6.2037,0 -9.5833,3.565 -3.3796,3.565 -3.3796,10.092 v 11.759 m -7.6852,9.352 v -21.111 q 0,-11.62 5.2778,-17.546 5.2315,-5.972 15.3703,-5.972 10.2314,0 15.4629,5.972 5.2314,5.926 5.2314,17.546 v 11.759 h 27.778 v 9.352 z"
     fill="#000000"
     fill-rule="nonzero"
     fill-opacity="1"
     id="path77"
     transform="translate(0,83.894836)" />
  <path
     clip-path="url(#clip790)"
     d="m 56.263,893.92 q -0.8333,1.435 -1.2037,3.148 -0.4167,1.666 -0.4167,3.703 0,7.223 4.7222,11.111 4.6759,3.843 13.4722,3.843 h 27.315 v 8.565 H 48.3001 v -8.565 h 8.0555 q -4.7222,-2.685 -6.9907,-6.991 -2.3148,-4.305 -2.3148,-10.463 0,-0.879 0.1389,-1.944 0.0926,-1.065 0.324,-2.361 z"
     fill="#000000"
     fill-rule="nonzero"
     fill-opacity="1"
     id="path78"
     transform="translate(0,83.894836)" />
  <path
     clip-path="url(#clip790)"
     d="m 54.2723,866.975 q 0,6.852 5.3703,10.834 5.3241,3.981 14.6296,3.981 9.3055,0 14.6758,-3.935 5.3241,-3.982 5.3241,-10.88 0,-6.805 -5.3704,-10.787 -5.3703,-3.981 -14.6295,-3.981 -9.213,0 -14.5833,3.981 -5.4166,3.982 -5.4166,10.787 m -7.2222,0 q 0,-11.111 7.2222,-17.453 7.2221,-6.343 19.9999,-6.343 12.7314,0 19.9999,6.343 7.2219,6.342 7.2219,17.453 0,11.158 -7.2219,17.5 -7.2685,6.296 -19.9999,6.296 -12.7778,0 -19.9999,-6.296 -7.2222,-6.342 -7.2222,-17.5 z"
     fill="#000000"
     fill-rule="nonzero"
     fill-opacity="1"
     id="path79"
     transform="translate(0,83.894836)" />
  <path
     clip-path="url(#clip790)"
     d="M 56.1704,794.939 H 28.115 v -8.519 h 72.037 v 8.519 h -7.7781 q 4.6296,2.685 6.8981,6.805 2.222,4.074 2.222,9.815 0,9.398 -7.4997,15.324 -7.5,5.879 -19.7221,5.879 -12.2222,0 -19.7222,-5.879 -7.4999,-5.926 -7.4999,-15.324 0,-5.741 2.2685,-9.815 2.2222,-4.12 6.8518,-6.805 m 18.1018,29.027 q 9.3981,0 14.7684,-3.842 5.324,-3.889 5.324,-10.648 0,-6.76 -5.324,-10.649 -5.3703,-3.888 -14.7684,-3.888 -9.3981,0 -14.7222,3.888 -5.3703,3.889 -5.3703,10.649 0,6.759 5.3703,10.648 5.3241,3.842 14.7222,3.842 z"
     fill="#000000"
     fill-rule="nonzero"
     fill-opacity="1"
     id="path80"
     transform="translate(0,83.894836)" />
  <path
     clip-path="url(#clip790)"
     d="M 79.6888,769.754 H 48.3001 v -8.519 h 31.0646 q 7.3611,0 11.0648,-2.87 3.6574,-2.871 3.6574,-8.611 0,-6.898 -4.3982,-10.88 -4.3981,-4.028 -11.9906,-4.028 h -29.398 v -8.518 h 51.8519 v 8.518 h -7.9633 q 4.7222,3.102 7.037,7.223 2.2683,4.074 2.2683,9.49 0,8.935 -5.5553,13.565 -5.5555,4.63 -16.2499,4.63 M 47.0501,748.318 Z"
     fill="#000000"
     fill-rule="nonzero"
     fill-opacity="1"
     id="path81"
     transform="translate(0,83.894836)" />
  <path
     clip-path="url(#clip790)"
     d="m 50.2908,671.467 h 7.9629 q -1.9907,3.611 -2.9629,7.269 -1.0185,3.611 -1.0185,7.314 0,8.287 5.2777,12.871 5.2315,4.583 14.7222,4.583 9.4906,0 14.7684,-4.583 5.2315,-4.584 5.2315,-12.871 0,-3.703 -0.9723,-7.314 -1.0185,-3.658 -3.0092,-7.269 h 7.8703 q 1.6667,3.565 2.5001,7.407 0.833,3.797 0.833,8.102 0,11.713 -7.3608,18.611 -7.3611,6.898 -19.861,6.898 -12.6852,0 -19.9536,-6.944 -7.2685,-6.991 -7.2685,-19.12 0,-3.936 0.8333,-7.685 0.787,-3.75 2.4074,-7.269 z"
     fill="#000000"
     fill-rule="nonzero"
     fill-opacity="1"
     id="path82"
     transform="translate(0,83.894836)" />
  <path
     clip-path="url(#clip790)"
     d="M 33.5779,648.226 H 48.3001 V 630.68 h 6.6203 v 17.546 h 28.148 q 6.3426,0 8.1481,-1.713 1.8056,-1.759 1.8056,-7.083 v -8.75 h 7.1299 v 8.75 q 0,9.861 -3.6577,13.611 -3.7037,3.75 -13.4259,3.75 h -28.148 v 6.25 h -6.6203 v -6.25 H 33.5779 Z"
     fill="#000000"
     fill-rule="nonzero"
     fill-opacity="1"
     id="path83"
     transform="translate(0,83.894836)" />
  <polyline
     clip-path="url(#clip792)"
     style="fill:none;stroke:#0000ff;stroke-width:4;stroke-linecap:round;stroke-linejoin:round;stroke-opacity:1"
     points="590.934,1519.65 1177.36,1355.71 1763.78,961.13 2350.21,90.1298 "
     id="polyline83"
     transform="translate(0,83.894836)" />
  <circle
     clip-path="url(#clip792)"
     cx="590.93402"
     cy="1519.65"
     r="18"
     fill="#0000ff"
     fill-rule="evenodd"
     fill-opacity="1"
     stroke="#000000"
     stroke-opacity="1"
     stroke-width="3.6"
     id="circle83"
     transform="translate(0,83.894836)" />
  <circle
     clip-path="url(#clip792)"
     cx="1177.36"
     cy="1355.71"
     r="18"
     fill="#0000ff"
     fill-rule="evenodd"
     fill-opacity="1"
     stroke="#000000"
     stroke-opacity="1"
     stroke-width="3.6"
     id="circle84"
     transform="translate(0,83.894836)" />
  <circle
     clip-path="url(#clip792)"
     cx="1763.78"
     cy="961.13"
     r="18"
     fill="#0000ff"
     fill-rule="evenodd"
     fill-opacity="1"
     stroke="#000000"
     stroke-opacity="1"
     stroke-width="3.6"
     id="circle85"
     transform="translate(0,83.894836)" />
  <circle
     clip-path="url(#clip792)"
     cx="2350.21"
     cy="90.129799"
     r="18"
     fill="#0000ff"
     fill-rule="evenodd"
     fill-opacity="1"
     stroke="#000000"
     stroke-opacity="1"
     stroke-width="3.6"
     id="circle86"
     transform="translate(0,83.894836)" />
  <polyline
     clip-path="url(#clip792)"
     style="fill:none;stroke:#000000;stroke-width:2;stroke-linecap:round;stroke-linejoin:round;stroke-opacity:0.1"
     points="538.156,1298.91 2402.98,1298.91 "
     id="polyline86"
     transform="translate(0,83.894836)" />
  <polyline
     clip-path="url(#clip792)"
     style="fill:none;stroke:#000000;stroke-width:2;stroke-linecap:round;stroke-linejoin:round;stroke-opacity:0.1"
     points="538.156,905.515 2402.98,905.515 "
     id="polyline87"
     transform="translate(0,83.894836)" />
  <polyline
     clip-path="url(#clip792)"
     style="fill:none;stroke:#000000;stroke-width:2;stroke-linecap:round;stroke-linejoin:round;stroke-opacity:0.1"
     points="538.156,512.122 2402.98,512.122 "
     id="polyline88"
     transform="translate(0,83.894836)" />
  <polyline
     clip-path="url(#clip792)"
     style="fill:none;stroke:#000000;stroke-width:2;stroke-linecap:round;stroke-linejoin:round;stroke-opacity:0.1"
     points="538.156,118.729 2402.98,118.729 "
     id="polyline89"
     transform="translate(0,83.894836)" />
  <polyline
     clip-path="url(#clip790)"
     style="fill:none;stroke:#000000;stroke-width:4;stroke-linecap:round;stroke-linejoin:round;stroke-opacity:1"
     points="2402.98,1562.54 2402.98,47.2441 "
     id="polyline90"
     transform="translate(0,83.894836)" />
  <polyline
     clip-path="url(#clip790)"
     style="fill:none;stroke:#000000;stroke-width:4;stroke-linecap:round;stroke-linejoin:round;stroke-opacity:1"
     points="2402.98,1298.91 2384.09,1298.91 "
     id="polyline91"
     transform="translate(0,83.894836)" />
  <polyline
     clip-path="url(#clip790)"
     style="fill:none;stroke:#000000;stroke-width:4;stroke-linecap:round;stroke-linejoin:round;stroke-opacity:1"
     points="2402.98,905.515 2384.09,905.515 "
     id="polyline92"
     transform="translate(0,83.894836)" />
  <polyline
     clip-path="url(#clip790)"
     style="fill:none;stroke:#000000;stroke-width:4;stroke-linecap:round;stroke-linejoin:round;stroke-opacity:1"
     points="2402.98,512.122 2384.09,512.122 "
     id="polyline93"
     transform="translate(0,83.894836)" />
  <polyline
     clip-path="url(#clip790)"
     style="fill:none;stroke:#000000;stroke-width:4;stroke-linecap:round;stroke-linejoin:round;stroke-opacity:1"
     points="2402.98,118.729 2384.09,118.729 "
     id="polyline94"
     transform="translate(0,83.894836)" />
  <path
     clip-path="url(#clip790)"
     d="m 2447.54,1268.67 h 32.12 v 6.88 h -24.63 v 14.83 q 1.78,-0.61 3.56,-0.89 1.79,-0.32 3.57,-0.32 10.13,0 16.04,5.55 5.92,5.54 5.92,15.02 0,9.77 -6.08,15.19 -6.08,5.39 -17.14,5.39 -3.8,0 -7.77,-0.65 -3.93,-0.64 -8.15,-1.94 v -8.22 q 3.65,1.98 7.54,2.95 3.89,0.98 8.22,0.98 7.01,0 11.1,-3.69 4.09,-3.69 4.09,-10.01 0,-6.32 -4.09,-10 -4.09,-3.69 -11.1,-3.69 -3.28,0 -6.56,0.73 -3.24,0.73 -6.64,2.27 z"
     fill="#000000"
     fill-rule="nonzero"
     fill-opacity="1"
     id="path94"
     transform="translate(0,83.894836)" />
  <path
     clip-path="url(#clip790)"
     d="m 2446.16,928.868 h 13.37 v -46.139 l -14.55,2.916 v -7.453 l 14.47,-2.917 h 8.18 v 53.593 H 2481 v 6.887 h -34.84 z"
     fill="#000000"
     fill-rule="nonzero"
     fill-opacity="1"
     id="path95"
     transform="translate(0,83.894836)" />
  <path
     clip-path="url(#clip790)"
     d="m 2515.02,880.663 q -6.32,0 -9.52,6.238 -3.16,6.198 -3.16,18.675 0,12.436 3.16,18.674 3.2,6.198 9.52,6.198 6.36,0 9.52,-6.198 3.2,-6.238 3.2,-18.674 0,-12.477 -3.2,-18.675 -3.16,-6.238 -9.52,-6.238 m 0,-6.482 q 10.17,0 15.52,8.062 5.39,8.02 5.39,23.333 0,15.272 -5.39,23.333 -5.35,8.021 -15.52,8.021 -10.16,0 -15.55,-8.021 -5.35,-8.061 -5.35,-23.333 0,-15.313 5.35,-23.333 5.39,-8.062 15.55,-8.062 z"
     fill="#000000"
     fill-rule="nonzero"
     fill-opacity="1"
     id="path96"
     transform="translate(0,83.894836)" />
  <path
     clip-path="url(#clip790)"
     d="m 2446.16,535.476 h 13.37 v -46.14 l -14.55,2.916 v -7.453 l 14.47,-2.917 h 8.18 v 53.594 H 2481 v 6.886 h -34.84 z"
     fill="#000000"
     fill-rule="nonzero"
     fill-opacity="1"
     id="path97"
     transform="translate(0,83.894836)" />
  <path
     clip-path="url(#clip790)"
     d="m 2497.61,481.882 h 32.12 v 6.887 h -24.63 v 14.826 q 1.78,-0.608 3.56,-0.891 1.79,-0.324 3.57,-0.324 10.13,0 16.04,5.549 5.91,5.55 5.91,15.029 0,9.763 -6.07,15.191 -6.08,5.388 -17.14,5.388 -3.8,0 -7.77,-0.648 -3.93,-0.648 -8.15,-1.945 v -8.223 q 3.65,1.985 7.54,2.957 3.89,0.972 8.22,0.972 7.01,0 11.1,-3.686 4.09,-3.686 4.09,-10.006 0,-6.319 -4.09,-10.005 -4.09,-3.687 -11.1,-3.687 -3.28,0 -6.56,0.729 -3.24,0.73 -6.64,2.269 z"
     fill="#000000"
     fill-rule="nonzero"
     fill-opacity="1"
     id="path98"
     transform="translate(0,83.894836)" />
  <path
     clip-path="url(#clip790)"
     d="m 2454.83,142.083 h 28.56 v 6.886 h -38.41 v -6.886 q 4.66,-4.821 12.68,-12.923 8.06,-8.142 10.13,-10.492 3.93,-4.415 5.47,-7.453 1.58,-3.079 1.58,-6.036 0,-4.821 -3.4,-7.8588 -3.37,-3.0382 -8.79,-3.0382 -3.85,0 -8.15,1.3368 -4.25,1.3368 -9.11,4.0509 v -8.2639 q 4.94,-1.9849 9.24,-2.9976 4.29,-1.0127 7.85,-1.0127 9.4,0 14.99,4.699 5.59,4.699 5.59,12.5575 0,3.727 -1.42,7.089 -1.37,3.322 -5.06,7.859 -1.01,1.175 -6.44,6.806 -5.43,5.59 -15.31,15.677 z"
     fill="#000000"
     fill-rule="nonzero"
     fill-opacity="1"
     id="path99"
     transform="translate(0,83.894836)" />
  <path
     clip-path="url(#clip790)"
     d="m 2518.06,93.8769 q -6.32,0 -9.52,6.2381 -3.16,6.198 -3.16,18.675 0,12.436 3.16,18.675 3.2,6.198 9.52,6.198 6.36,0 9.52,-6.198 3.2,-6.239 3.2,-18.675 0,-12.477 -3.2,-18.675 -3.16,-6.2381 -9.52,-6.2381 m 0,-6.4814 q 10.17,0 15.52,8.0613 5.38,8.0212 5.38,23.3332 0,15.272 -5.38,23.333 -5.35,8.021 -15.52,8.021 -10.17,0 -15.55,-8.021 -5.35,-8.061 -5.35,-23.333 0,-15.312 5.35,-23.3332 5.38,-8.0613 15.55,-8.0613 z"
     fill="#000000"
     fill-rule="nonzero"
     fill-opacity="1"
     id="path100"
     transform="translate(0,83.894836)" />
  <path
     clip-path="url(#clip790)"
     d="m 2582.83,1232.83 h 9.86 q -4.39,4.72 -6.57,10.09 -2.18,5.33 -2.18,11.34 0,11.86 7.27,18.15 7.22,6.3 20.93,6.3 13.66,0 20.92,-6.3 7.23,-6.29 7.23,-18.15 0,-6.01 -2.18,-11.34 -2.18,-5.37 -6.57,-10.09 h 9.76 q 3.34,4.91 5,10.42 1.67,5.46 1.67,11.57 0,15.69 -9.58,24.72 -9.63,9.03 -26.25,9.03 -16.67,0 -26.25,-9.03 -9.63,-9.03 -9.63,-24.72 0,-6.2 1.67,-11.67 1.62,-5.51 4.9,-10.32 z"
     fill="#000000"
     fill-rule="nonzero"
     fill-opacity="1"
     id="path101"
     transform="translate(0,83.894836)" />
  <path
     clip-path="url(#clip790)"
     d="m 2600.75,1198.66 q 0,6.86 5.37,10.84 5.32,3.98 14.63,3.98 9.3,0 14.68,-3.94 5.32,-3.98 5.32,-10.88 0,-6.8 -5.37,-10.78 -5.37,-3.99 -14.63,-3.99 -9.21,0 -14.58,3.99 -5.42,3.98 -5.42,10.78 m -7.22,0 q 0,-11.11 7.22,-17.45 7.22,-6.34 20,-6.34 12.73,0 20,6.34 7.22,6.34 7.22,17.45 0,11.16 -7.22,17.5 -7.27,6.3 -20,6.3 -12.78,0 -20,-6.3 -7.22,-6.34 -7.22,-17.5 z"
     fill="#000000"
     fill-rule="nonzero"
     fill-opacity="1"
     id="path102"
     transform="translate(0,83.894836)" />
  <path
     clip-path="url(#clip790)"
     d="m 2604.73,1120.38 q -5.74,-3.2 -8.47,-7.64 -2.73,-4.45 -2.73,-10.47 0,-8.1 5.69,-12.5 5.65,-4.39 16.11,-4.39 h 31.3 v 8.56 h -31.02 q -7.45,0 -11.06,2.64 -3.62,2.64 -3.62,8.06 0,6.62 4.4,10.46 4.4,3.84 11.99,3.84 h 29.31 v 8.57 h -31.02 q -7.5,0 -11.06,2.64 -3.62,2.63 -3.62,8.14 0,6.53 4.45,10.37 4.4,3.85 11.94,3.85 h 29.31 v 8.56 h -51.85 v -8.56 h 8.05 q -4.77,-2.92 -7.03,-6.99 -2.27,-4.08 -2.27,-9.68 0,-5.65 2.87,-9.58 2.87,-3.99 8.33,-5.88 z"
     fill="#000000"
     fill-rule="nonzero"
     fill-opacity="1"
     id="path103"
     transform="translate(0,83.894836)" />
  <path
     clip-path="url(#clip790)"
     d="m 2638.85,1060.15 h 27.5 v 8.56 h -71.57 v -8.56 h 7.87 q -4.63,-2.69 -6.85,-6.76 -2.27,-4.12 -2.27,-9.82 0,-9.44 7.5,-15.32 7.5,-5.93 19.72,-5.93 12.22,0 19.72,5.93 7.5,5.88 7.5,15.32 0,5.7 -2.22,9.82 -2.27,4.07 -6.9,6.76 m -18.1,-28.99 q -9.4,0 -14.72,3.89 -5.37,3.85 -5.37,10.6 0,6.76 5.37,10.65 5.32,3.85 14.72,3.85 9.4,0 14.77,-3.85 5.32,-3.89 5.32,-10.65 0,-6.75 -5.32,-10.6 -5.37,-3.89 -14.77,-3.89 z"
     fill="#000000"
     fill-rule="nonzero"
     fill-opacity="1"
     id="path104"
     transform="translate(0,83.894836)" />
  <path
     clip-path="url(#clip790)"
     d="m 2626.17,1009.08 h -31.39 v -8.52 h 31.06 q 7.36,0 11.07,-2.868 3.65,-2.87 3.65,-8.611 0,-6.898 -4.39,-10.88 -4.4,-4.027 -11.99,-4.027 h -29.4 v -8.519 h 51.85 v 8.519 h -7.96 q 4.72,3.102 7.03,7.222 2.27,4.074 2.27,9.491 0,8.935 -5.55,13.563 -5.56,4.63 -16.25,4.63 m -32.64,-21.434 z"
     fill="#000000"
     fill-rule="nonzero"
     fill-opacity="1"
     id="path105"
     transform="translate(0,83.894836)" />
  <path
     clip-path="url(#clip790)"
     d="m 2580.06,939.683 h 14.72 v -17.546 h 6.62 v 17.546 h 28.15 q 6.34,0 8.14,-1.713 1.81,-1.759 1.81,-7.083 v -8.75 h 7.13 v 8.75 q 0,9.861 -3.66,13.611 -3.7,3.75 -13.42,3.75 h -28.15 v 6.25 h -6.62 v -6.25 h -14.72 z"
     fill="#000000"
     fill-rule="nonzero"
     fill-opacity="1"
     id="path106"
     transform="translate(0,83.894836)" />
  <path
     clip-path="url(#clip790)"
     d="m 2620.56,887.369 q 0,10.324 2.37,14.305 2.36,3.982 8.05,3.982 4.54,0 7.22,-2.963 2.64,-3.01 2.64,-8.148 0,-7.084 -5,-11.343 -5.04,-4.306 -13.38,-4.306 h -1.9 v 8.473 m -3.51,-16.991 h 29.58 v 8.518 h -7.87 q 4.72,2.917 6.99,7.269 2.22,4.352 2.22,10.648 0,7.963 -4.44,12.685 -4.49,4.676 -11.99,4.676 -8.75,0 -13.2,-5.833 -4.44,-5.88 -4.44,-17.5 v -11.945 h -0.84 q -5.88,0 -9.07,3.889 -3.24,3.843 -3.24,10.834 0,4.444 1.06,8.657 1.07,4.213 3.2,8.102 h -7.87 q -1.81,-4.676 -2.69,-9.074 -0.92,-4.398 -0.92,-8.565 0,-11.25 5.83,-16.805 5.83,-5.556 17.69,-5.556 z"
     fill="#000000"
     fill-rule="nonzero"
     fill-opacity="1"
     id="path107"
     transform="translate(0,83.894836)" />
  <path
     clip-path="url(#clip790)"
     d="m 2580.06,844.406 h 14.72 V 826.86 h 6.62 v 17.546 h 28.15 q 6.34,0 8.14,-1.713 1.81,-1.759 1.81,-7.083 v -8.75 h 7.13 v 8.75 q 0,9.861 -3.66,13.611 -3.7,3.75 -13.42,3.75 h -28.15 v 6.25 h -6.62 v -6.25 h -14.72 z"
     fill="#000000"
     fill-rule="nonzero"
     fill-opacity="1"
     id="path108"
     transform="translate(0,83.894836)" />
  <path
     clip-path="url(#clip790)"
     d="m 2594.78,815.656 v -8.518 h 51.85 v 8.518 h -51.85 m -20.19,0 v -8.518 h 10.79 v 8.518 z"
     fill="#000000"
     fill-rule="nonzero"
     fill-opacity="1"
     id="path109"
     transform="translate(0,83.894836)" />
  <path
     clip-path="url(#clip790)"
     d="m 2600.75,769.221 q 0,6.852 5.37,10.833 5.32,3.982 14.63,3.982 9.3,0 14.68,-3.935 5.32,-3.982 5.32,-10.88 0,-6.805 -5.37,-10.787 -5.37,-3.981 -14.63,-3.981 -9.21,0 -14.58,3.981 -5.42,3.982 -5.42,10.787 m -7.22,0 q 0,-11.111 7.22,-17.453 7.22,-6.343 20,-6.343 12.73,0 20,6.343 7.22,6.342 7.22,17.453 0,11.157 -7.22,17.5 -7.27,6.296 -20,6.296 -12.78,0 -20,-6.296 -7.22,-6.343 -7.22,-17.5 z"
     fill="#000000"
     fill-rule="nonzero"
     fill-opacity="1"
     id="path110"
     transform="translate(0,83.894836)" />
  <path
     clip-path="url(#clip790)"
     d="m 2615.33,688.203 h 31.3 v 8.519 h -31.02 q -7.36,0 -11.02,2.87 -3.66,2.87 -3.66,8.611 0,6.898 4.4,10.88 4.4,3.981 11.99,3.981 h 29.31 v 8.565 h -51.85 v -8.565 h 8.05 q -4.67,-3.056 -6.99,-7.176 -2.31,-4.167 -2.31,-9.583 0,-8.935 5.55,-13.519 5.51,-4.583 16.25,-4.583 z"
     fill="#000000"
     fill-rule="nonzero"
     fill-opacity="1"
     id="path111"
     transform="translate(0,83.894836)" />
  <path
     clip-path="url(#clip790)"
     d="m 2620.56,647.648 q 0,10.324 2.37,14.305 2.36,3.982 8.05,3.982 4.54,0 7.22,-2.963 2.64,-3.01 2.64,-8.148 0,-7.084 -5,-11.343 -5.04,-4.305 -13.38,-4.305 h -1.9 v 8.472 m -3.51,-16.991 h 29.58 v 8.519 h -7.87 q 4.72,2.916 6.99,7.268 2.22,4.352 2.22,10.648 0,7.963 -4.44,12.685 -4.49,4.676 -11.99,4.676 -8.75,0 -13.2,-5.833 -4.44,-5.88 -4.44,-17.5 v -11.944 h -0.84 q -5.88,0 -9.07,3.888 -3.24,3.843 -3.24,10.834 0,4.444 1.06,8.657 1.07,4.213 3.2,8.102 h -7.87 q -1.81,-4.676 -2.69,-9.074 -0.92,-4.398 -0.92,-8.565 0,-11.25 5.83,-16.805 5.83,-5.556 17.69,-5.556 z"
     fill="#000000"
     fill-rule="nonzero"
     fill-opacity="1"
     id="path112"
     transform="translate(0,83.894836)" />
  <path
     clip-path="url(#clip790)"
     d="m 2574.59,613.111 v -8.519 h 72.04 v 8.519 z"
     fill="#000000"
     fill-rule="nonzero"
     fill-opacity="1"
     id="path113"
     transform="translate(0,83.894836)" />
  <path
     clip-path="url(#clip790)"
     d="m 2580.06,548.204 h 14.72 v -17.546 h 6.62 v 17.546 h 28.15 q 6.34,0 8.14,-1.713 1.81,-1.759 1.81,-7.083 v -8.75 h 7.13 v 8.75 q 0,9.861 -3.66,13.611 -3.7,3.75 -13.42,3.75 h -28.15 v 6.25 h -6.62 v -6.25 h -14.72 z"
     fill="#000000"
     fill-rule="nonzero"
     fill-opacity="1"
     id="path114"
     transform="translate(0,83.894836)" />
  <path
     clip-path="url(#clip790)"
     d="m 2594.78,519.454 v -8.519 h 51.85 v 8.519 h -51.85 m -20.19,0 v -8.519 h 10.79 v 8.519 z"
     fill="#000000"
     fill-rule="nonzero"
     fill-opacity="1"
     id="path115"
     transform="translate(0,83.894836)" />
  <path
     clip-path="url(#clip790)"
     d="m 2604.73,452.741 q -5.74,-3.194 -8.47,-7.639 -2.73,-4.444 -2.73,-10.462 0,-8.102 5.69,-12.5 5.65,-4.398 16.11,-4.398 h 31.3 v 8.564 h -31.02 q -7.45,0 -11.06,2.639 -3.62,2.639 -3.62,8.056 0,6.62 4.4,10.463 4.4,3.842 11.99,3.842 h 29.31 v 8.565 h -31.02 q -7.5,0 -11.06,2.639 -3.62,2.639 -3.62,8.148 0,6.528 4.45,10.37 4.4,3.843 11.94,3.843 h 29.31 v 8.565 h -51.85 v -8.565 h 8.05 q -4.77,-2.917 -7.03,-6.991 -2.27,-4.074 -2.27,-9.676 0,-5.648 2.87,-9.583 2.87,-3.982 8.33,-5.88 z"
     fill="#000000"
     fill-rule="nonzero"
     fill-opacity="1"
     id="path116"
     transform="translate(0,83.894836)" />
  <path
     clip-path="url(#clip790)"
     d="m 2618.57,356.399 h 4.17 v 39.167 q 8.8,-0.556 13.43,-5.278 4.58,-4.769 4.58,-13.241 0,-4.907 -1.2,-9.49 -1.21,-4.63 -3.62,-9.167 h 8.06 q 1.94,4.583 2.96,9.398 1.02,4.815 1.02,9.769 0,12.407 -7.22,19.675 -7.22,7.223 -19.54,7.223 -12.73,0 -20.18,-6.852 -7.5,-6.898 -7.5,-18.565 0,-10.463 6.76,-16.528 6.71,-6.111 18.28,-6.111 m -2.5,8.519 q -6.99,0.092 -11.15,3.935 -4.17,3.796 -4.17,10.092 0,7.13 4.03,11.436 4.02,4.259 11.34,4.907 z"
     fill="#000000"
     fill-rule="nonzero"
     fill-opacity="1"
     id="path117"
     transform="translate(0,83.894836)" />
  <path
     clip-path="url(#clip790)"
     d="m 2678.36,1209.91 q 10.65,6.21 21.07,9.22 10.42,3.01 21.11,3.01 10.69,0 21.2,-3.01 10.47,-3.06 21.07,-9.22 v 7.41 q -10.88,6.94 -21.39,10.42 -10.51,3.42 -20.88,3.42 -10.32,0 -20.79,-3.42 -10.46,-3.43 -21.39,-10.42 z"
     fill="#000000"
     fill-rule="nonzero"
     fill-opacity="1"
     id="path118"
     transform="translate(0,83.894836)" />
  <path
     clip-path="url(#clip790)"
     d="m 2683.46,1151.58 h 9.12 q -2.55,5.32 -3.8,10.05 -1.25,4.72 -1.25,9.12 0,7.64 2.96,11.8 2.97,4.12 8.43,4.12 4.58,0 6.94,-2.73 2.32,-2.78 3.75,-10.46 l 1.16,-5.65 q 1.99,-10.46 7.04,-15.42 5,-5 13.42,-5 10.05,0 15.24,6.76 5.18,6.72 5.18,19.72 0,4.91 -1.11,10.47 -1.11,5.51 -3.29,11.43 h -9.63 q 3.2,-5.69 4.82,-11.15 1.62,-5.47 1.62,-10.75 0,-8 -3.15,-12.36 -3.15,-4.35 -8.98,-4.35 -5.09,0 -7.96,3.15 -2.87,3.1 -4.31,10.23 l -1.11,5.7 q -2.08,10.46 -6.53,15.13 -4.44,4.68 -12.36,4.68 -9.17,0 -14.44,-6.43 -5.28,-6.49 -5.28,-17.83 0,-4.86 0.88,-9.91 0.88,-5.04 2.64,-10.32 z"
     fill="#000000"
     fill-rule="nonzero"
     fill-opacity="1"
     id="path119"
     transform="translate(0,83.894836)" />
  <path
     clip-path="url(#clip790)"
     d="m 2681.19,1132.83 v -9.35 h 69.12 v 9.35 z"
     fill="#000000"
     fill-rule="nonzero"
     fill-opacity="1"
     id="path120"
     transform="translate(0,83.894836)" />
  <path
     clip-path="url(#clip790)"
     d="m 2681.19,1104.87 v -12.6 l 57.82,-30.64 h -57.82 v -9.08 h 69.12 v 12.6 l -57.82,30.64 h 57.82 v 9.08 z"
     fill="#000000"
     fill-rule="nonzero"
     fill-opacity="1"
     id="path121"
     transform="translate(0,83.894836)" />
  <path
     clip-path="url(#clip790)"
     d="m 2688.87,1024.59 h 53.75 v -11.3 q 0,-14.302 -6.48,-20.922 -6.48,-6.667 -20.46,-6.667 -13.89,0 -20.32,6.667 -6.49,6.62 -6.49,20.922 v 11.3 m -7.68,9.35 v -19.21 q 0,-20.093 8.38,-29.492 8.33,-9.398 26.11,-9.398 17.87,0 26.25,9.445 8.38,9.444 8.38,29.445 v 19.21 z"
     fill="#000000"
     fill-rule="nonzero"
     fill-opacity="1"
     id="path122"
     transform="translate(0,83.894836)" />
  <path
     clip-path="url(#clip790)"
     d="m 2755.12,939.729 q 9.26,3.612 12.09,7.037 2.82,3.426 2.82,9.167 v 6.806 h -7.13 v -5 q 0,-3.519 -1.67,-5.463 -1.66,-1.945 -7.87,-4.306 l -3.88,-1.528 -51.02,20.973 v -9.028 l 40.55,-16.204 -40.55,-16.203 v -9.028 z"
     fill="#000000"
     fill-rule="nonzero"
     fill-opacity="1"
     id="path123"
     transform="translate(0,83.894836)" />
  <path
     clip-path="url(#clip790)"
     d="m 2681.19,859.915 v -7.87 l 77.92,24.074 v 7.87 z"
     fill="#000000"
     fill-rule="nonzero"
     fill-opacity="1"
     id="path124"
     transform="translate(0,83.894836)" />
  <path
     clip-path="url(#clip790)"
     d="m 2706.42,782.925 q -0.83,1.435 -1.2,3.148 -0.42,1.667 -0.42,3.704 0,7.222 4.72,11.111 4.68,3.842 13.47,3.842 h 27.32 v 8.565 h -51.85 v -8.565 h 8.05 q -4.72,-2.685 -6.99,-6.991 -2.31,-4.305 -2.31,-10.462 0,-0.88 0.14,-1.945 0.09,-1.065 0.32,-2.361 z"
     fill="#000000"
     fill-rule="nonzero"
     fill-opacity="1"
     id="path125"
     transform="translate(0,83.894836)" />
  <path
     clip-path="url(#clip790)"
     d="m 2722.25,731.721 h 4.17 v 39.167 q 8.8,-0.556 13.43,-5.278 4.58,-4.768 4.58,-13.241 0,-4.907 -1.2,-9.49 -1.21,-4.63 -3.62,-9.167 h 8.06 q 1.94,4.583 2.96,9.398 1.02,4.815 1.02,9.769 0,12.407 -7.22,19.675 -7.22,7.223 -19.54,7.223 -12.73,0 -20.18,-6.852 -7.5,-6.898 -7.5,-18.565 0,-10.463 6.76,-16.528 6.71,-6.111 18.28,-6.111 m -2.5,8.519 q -6.99,0.092 -11.15,3.935 -4.17,3.796 -4.17,10.093 0,7.129 4.03,11.435 4.02,4.259 11.34,4.907 z"
     fill="#000000"
     fill-rule="nonzero"
     fill-opacity="1"
     id="path126"
     transform="translate(0,83.894836)" />
  <path
     clip-path="url(#clip790)"
     d="m 2678.27,691.49 h 7.09 v 8.148 q 0,4.583 1.85,6.389 1.85,1.759 6.66,1.759 h 4.59 v -14.027 h 6.62 v 14.027 h 45.23 v 8.565 h -45.23 v 8.148 h -6.62 v -8.148 h -3.61 q -8.66,0 -12.6,-4.028 -3.98,-4.027 -3.98,-12.777 z"
     fill="#000000"
     fill-rule="nonzero"
     fill-opacity="1"
     id="path127"
     transform="translate(0,83.894836)" />
  <path
     clip-path="url(#clip790)"
     d="m 2722.25,640.009 h 4.17 v 39.166 q 8.8,-0.555 13.43,-5.277 4.58,-4.769 4.58,-13.241 0,-4.907 -1.2,-9.491 -1.21,-4.629 -3.62,-9.166 h 8.06 q 1.94,4.583 2.96,9.398 1.02,4.814 1.02,9.768 0,12.407 -7.22,19.676 -7.22,7.222 -19.54,7.222 -12.73,0 -20.18,-6.852 -7.5,-6.898 -7.5,-18.564 0,-10.463 6.76,-16.528 6.71,-6.111 18.28,-6.111 m -2.5,8.518 q -6.99,0.093 -11.15,3.935 -4.17,3.797 -4.17,10.093 0,7.13 4.03,11.435 4.02,4.259 11.34,4.908 z"
     fill="#000000"
     fill-rule="nonzero"
     fill-opacity="1"
     id="path128"
     transform="translate(0,83.894836)" />
  <path
     clip-path="url(#clip790)"
     d="m 2706.42,595.981 q -0.83,1.435 -1.2,3.148 -0.42,1.667 -0.42,3.704 0,7.222 4.72,11.111 4.68,3.843 13.47,3.843 h 27.32 v 8.565 h -51.85 v -8.565 h 8.05 q -4.72,-2.685 -6.99,-6.991 -2.31,-4.305 -2.31,-10.463 0,-0.879 0.14,-1.944 0.09,-1.065 0.32,-2.361 z"
     fill="#000000"
     fill-rule="nonzero"
     fill-opacity="1"
     id="path129"
     transform="translate(0,83.894836)" />
  <path
     clip-path="url(#clip790)"
     d="m 2722.25,544.778 h 4.17 v 39.166 q 8.8,-0.555 13.43,-5.277 4.58,-4.769 4.58,-13.241 0,-4.907 -1.2,-9.491 -1.21,-4.629 -3.62,-9.166 h 8.06 q 1.94,4.583 2.96,9.398 1.02,4.815 1.02,9.768 0,12.408 -7.22,19.676 -7.22,7.222 -19.54,7.222 -12.73,0 -20.18,-6.852 -7.5,-6.898 -7.5,-18.564 0,-10.463 6.76,-16.528 6.71,-6.111 18.28,-6.111 m -2.5,8.518 q -6.99,0.093 -11.15,3.936 -4.17,3.796 -4.17,10.092 0,7.13 4.03,11.435 4.02,4.259 11.34,4.908 z"
     fill="#000000"
     fill-rule="nonzero"
     fill-opacity="1"
     id="path130"
     transform="translate(0,83.894836)" />
  <path
     clip-path="url(#clip790)"
     d="m 2719.01,487.695 h 31.3 v 8.518 h -31.02 q -7.36,0 -11.02,2.871 -3.66,2.87 -3.66,8.611 0,6.898 4.4,10.879 4.4,3.982 11.99,3.982 h 29.31 v 8.565 h -51.85 v -8.565 h 8.05 q -4.67,-3.056 -6.99,-7.176 -2.31,-4.167 -2.31,-9.583 0,-8.936 5.55,-13.519 5.51,-4.583 16.25,-4.583 z"
     fill="#000000"
     fill-rule="nonzero"
     fill-opacity="1"
     id="path131"
     transform="translate(0,83.894836)" />
  <path
     clip-path="url(#clip790)"
     d="m 2700.45,433.39 h 7.96 q -1.99,3.611 -2.96,7.268 -1.02,3.611 -1.02,7.315 0,8.287 5.28,12.87 5.23,4.583 14.72,4.583 9.49,0 14.77,-4.583 5.23,-4.583 5.23,-12.87 0,-3.704 -0.97,-7.315 -1.02,-3.657 -3.01,-7.268 h 7.87 q 1.66,3.564 2.5,7.407 0.83,3.796 0.83,8.102 0,11.713 -7.36,18.611 -7.36,6.898 -19.86,6.898 -12.69,0 -19.95,-6.945 -7.27,-6.99 -7.27,-19.12 0,-3.935 0.83,-7.685 0.79,-3.75 2.41,-7.268 z"
     fill="#000000"
     fill-rule="nonzero"
     fill-opacity="1"
     id="path132"
     transform="translate(0,83.894836)" />
  <path
     clip-path="url(#clip790)"
     d="m 2722.25,374.223 h 4.17 v 39.167 q 8.8,-0.556 13.43,-5.278 4.58,-4.769 4.58,-13.241 0,-4.907 -1.2,-9.49 -1.21,-4.63 -3.62,-9.167 h 8.06 q 1.94,4.583 2.96,9.398 1.02,4.815 1.02,9.769 0,12.407 -7.22,19.675 -7.22,7.223 -19.54,7.223 -12.73,0 -20.18,-6.852 -7.5,-6.898 -7.5,-18.565 0,-10.463 6.76,-16.528 6.71,-6.111 18.28,-6.111 m -2.5,8.519 q -6.99,0.092 -11.15,3.935 -4.17,3.796 -4.17,10.092 0,7.13 4.03,11.436 4.02,4.259 11.34,4.907 z"
     fill="#000000"
     fill-rule="nonzero"
     fill-opacity="1"
     id="path133"
     transform="translate(0,83.894836)" />
  <path
     clip-path="url(#clip790)"
     d="m 2678.36,361.584 v -7.407 q 10.93,-6.944 21.39,-10.37 10.47,-3.472 20.79,-3.472 10.37,0 20.88,3.472 10.51,3.426 21.39,10.37 v 7.407 q -10.6,-6.157 -21.07,-9.166 -10.51,-3.056 -21.2,-3.056 -10.69,0 -21.11,3.056 -10.42,3.009 -21.07,9.166 z"
     fill="#000000"
     fill-rule="nonzero"
     fill-opacity="1"
     id="path134"
     transform="translate(0,83.894836)" />
  <polyline
     clip-path="url(#clip792)"
     style="fill:none;stroke:#ff0000;stroke-width:4;stroke-linecap:round;stroke-linejoin:round;stroke-opacity:1"
     points="590.934,1519.65 1177.36,1319.25 1763.78,1100.76 2350.21,90.1298 "
     id="polyline134"
     transform="translate(0,83.894836)" />
  <circle
     clip-path="url(#clip792)"
     cx="590.93402"
     cy="1519.65"
     r="18"
     fill="#ff0000"
     fill-rule="evenodd"
     fill-opacity="1"
     stroke="#000000"
     stroke-opacity="1"
     stroke-width="3.6"
     id="circle134"
     transform="translate(0,83.894836)" />
  <circle
     clip-path="url(#clip792)"
     cx="1177.36"
     cy="1319.25"
     r="18"
     fill="#ff0000"
     fill-rule="evenodd"
     fill-opacity="1"
     stroke="#000000"
     stroke-opacity="1"
     stroke-width="3.6"
     id="circle135"
     transform="translate(0,83.894836)" />
  <circle
     clip-path="url(#clip792)"
     cx="1763.78"
     cy="1100.76"
     r="18"
     fill="#ff0000"
     fill-rule="evenodd"
     fill-opacity="1"
     stroke="#000000"
     stroke-opacity="1"
     stroke-width="3.6"
     id="circle136"
     transform="translate(0,83.894836)" />
  <circle
     clip-path="url(#clip792)"
     cx="2350.21"
     cy="90.129799"
     r="18"
     fill="#ff0000"
     fill-rule="evenodd"
     fill-opacity="1"
     stroke="#000000"
     stroke-opacity="1"
     stroke-width="3.6"
     id="circle137"
     transform="translate(0,83.894836)" />
  <g
     id="g1"
     transform="translate(-482.46042,56.855517)"
     inkscape:export-filename="figS12_prod_comptime.pdf"
     inkscape:export-xdpi="700"
     inkscape:export-ydpi="700">
    <g
       id="g168"
       transform="translate(-38.556942,284.57951)">
      <polyline
         clip-path="url(#clip730)"
         style="fill:none;stroke:#0000ff;stroke-width:8;stroke-linecap:round;stroke-linejoin:round;stroke-opacity:1"
         points="1248.92,201.434 1369.95,201.434 "
         id="polyline144-4"
         transform="translate(-87.244401,-496.20253)" />
      <circle
         clip-path="url(#clip730)"
         cx="1309.4399"
         cy="201.43401"
         r="8.4050999"
         fill="#0000ff"
         fill-rule="evenodd"
         fill-opacity="1"
         stroke="#000000"
         stroke-opacity="1"
         stroke-width="8.37818"
         id="circle144-3"
         transform="translate(-87.244401,-496.20253)" />
      <path
         clip-path="url(#clip730)"
         d="m 1399.48,174.559 v 25.972 h 11.76 q 6.52,0 10.09,-3.379 3.56,-3.38 3.56,-9.63 0,-6.204 -3.56,-9.583 -3.57,-3.38 -10.09,-3.38 h -11.76 m -9.36,-7.685 h 21.12 q 11.62,0 17.54,5.278 5.97,5.231 5.97,15.37 0,10.231 -5.97,15.463 -5.92,5.231 -17.54,5.231 h -11.76 v 27.778 h -9.36 z"
         fill="#000000"
         fill-rule="nonzero"
         fill-opacity="1"
         id="path144-9"
         transform="translate(-87.244401,-496.20253)" />
      <path
         clip-path="url(#clip730)"
         d="m 1475.31,192.105 q -1.44,-0.833 -3.15,-1.203 -1.67,-0.417 -3.7,-0.417 -7.23,0 -11.11,4.722 -3.85,4.676 -3.85,13.472 v 27.315 h -8.56 v -51.852 h 8.56 v 8.056 q 2.69,-4.722 6.99,-6.991 4.31,-2.315 10.47,-2.315 0.88,0 1.94,0.139 1.07,0.093 2.36,0.324 z"
         fill="#000000"
         fill-rule="nonzero"
         fill-opacity="1"
         id="path145-9"
         transform="translate(-87.244401,-496.20253)" />
      <path
         clip-path="url(#clip730)"
         d="m 1502.25,190.115 q -6.85,0 -10.83,5.37 -3.98,5.324 -3.98,14.629 0,9.306 3.93,14.676 3.98,5.324 10.88,5.324 6.81,0 10.79,-5.37 3.98,-5.37 3.98,-14.63 0,-9.212 -3.98,-14.583 -3.98,-5.416 -10.79,-5.416 m 0,-7.223 q 11.11,0 17.46,7.223 6.34,7.222 6.34,19.999 0,12.732 -6.34,20 -6.35,7.223 -17.46,7.223 -11.15,0 -17.5,-7.223 -6.29,-7.268 -6.29,-20 0,-12.777 6.29,-19.999 6.35,-7.223 17.5,-7.223 z"
         fill="#000000"
         fill-rule="nonzero"
         fill-opacity="1"
         id="path146-4"
         transform="translate(-87.244401,-496.20253)" />
      <path
         clip-path="url(#clip730)"
         d="m 1574.29,192.013 v -28.056 h 8.52 v 72.037 h -8.52 v -7.778 q -2.69,4.63 -6.81,6.898 -4.07,2.223 -9.81,2.223 -9.4,0 -15.32,-7.5 -5.88,-7.5 -5.88,-19.723 0,-12.222 5.88,-19.722 5.92,-7.5 15.32,-7.5 5.74,0 9.81,2.269 4.12,2.222 6.81,6.852 m -29.03,18.101 q 0,9.399 3.84,14.769 3.89,5.324 10.65,5.324 6.76,0 10.65,-5.324 3.89,-5.37 3.89,-14.769 0,-9.398 -3.89,-14.722 -3.89,-5.37 -10.65,-5.37 -6.76,0 -10.65,5.37 -3.84,5.324 -3.84,14.722 z"
         fill="#000000"
         fill-rule="nonzero"
         fill-opacity="1"
         id="path147-2"
         transform="translate(-87.244401,-496.20253)" />
      <path
         clip-path="url(#clip730)"
         d="m 1599.47,215.531 v -31.389 h 8.52 v 31.065 q 0,7.361 2.87,11.065 2.87,3.657 8.61,3.657 6.9,0 10.88,-4.398 4.03,-4.398 4.03,-11.991 v -29.398 h 8.52 v 51.852 h -8.52 v -7.963 q -3.1,4.722 -7.22,7.037 -4.07,2.269 -9.49,2.269 -8.94,0 -13.57,-5.556 -4.63,-5.555 -4.63,-16.25 m 21.44,-32.639 z"
         fill="#000000"
         fill-rule="nonzero"
         fill-opacity="1"
         id="path148-3"
         transform="translate(-87.244401,-496.20253)" />
      <path
         clip-path="url(#clip730)"
         d="m 1697.76,186.133 v 7.963 q -3.61,-1.991 -7.27,-2.963 -3.61,-1.018 -7.31,-1.018 -8.29,0 -12.87,5.277 -4.59,5.232 -4.59,14.722 0,9.491 4.59,14.769 4.58,5.231 12.87,5.231 3.7,0 7.31,-0.972 3.66,-1.018 7.27,-3.009 v 7.87 q -3.56,1.667 -7.41,2.5 -3.79,0.834 -8.1,0.834 -11.71,0 -18.61,-7.362 -6.9,-7.361 -6.9,-19.861 0,-12.685 6.95,-19.953 6.99,-7.269 19.12,-7.269 3.93,0 7.68,0.834 3.75,0.787 7.27,2.407 z"
         fill="#000000"
         fill-rule="nonzero"
         fill-opacity="1"
         id="path149-6"
         transform="translate(-87.244401,-496.20253)" />
      <path
         clip-path="url(#clip730)"
         d="m 1721,169.42 v 14.722 h 17.55 v 6.621 H 1721 v 28.148 q 0,6.342 1.71,8.148 1.76,1.805 7.09,1.805 h 8.75 v 7.13 h -8.75 q -9.86,0 -13.61,-3.657 -3.75,-3.704 -3.75,-13.426 v -28.148 h -6.25 v -6.621 h 6.25 V 169.42 Z"
         fill="#000000"
         fill-rule="nonzero"
         fill-opacity="1"
         id="path150-0"
         transform="translate(-87.244401,-496.20253)" />
    </g>
    <g
       id="g167"
       transform="translate(-38.556942,264.40718)">
      <polyline
         clip-path="url(#clip730)"
         style="fill:none;stroke:#ff0000;stroke-width:8;stroke-linecap:round;stroke-linejoin:round;stroke-opacity:1"
         points="1248.92,305.114 1369.95,305.114 "
         id="polyline150"
         transform="translate(498.92892,-588.8997)" />
      <circle
         clip-path="url(#clip730)"
         cx="1309.4399"
         cy="305.11401"
         r="8.4050999"
         fill="#ff0000"
         fill-rule="evenodd"
         fill-opacity="1"
         stroke="#000000"
         stroke-opacity="1"
         stroke-width="8.37818"
         id="circle150"
         transform="translate(498.92892,-588.8997)" />
      <path
         clip-path="url(#clip730)"
         d="m 1445.86,275.878 v 9.861 q -4.72,-4.398 -10.09,-6.574 -5.32,-2.176 -11.34,-2.176 -11.85,0 -18.15,7.269 -6.29,7.222 -6.29,20.925 0,13.658 6.29,20.926 6.3,7.222 18.15,7.222 6.02,0 11.34,-2.176 5.37,-2.175 10.09,-6.574 v 9.769 q -4.9,3.333 -10.41,5 -5.47,1.667 -11.58,1.667 -15.69,0 -24.72,-9.584 -9.03,-9.629 -9.03,-26.25 0,-16.666 9.03,-26.249 9.03,-9.63 24.72,-9.63 6.21,0 11.67,1.667 5.51,1.62 10.32,4.907 z"
         fill="#000000"
         fill-rule="nonzero"
         fill-opacity="1"
         id="path151-3"
         transform="translate(498.92892,-588.8997)" />
      <path
         clip-path="url(#clip730)"
         d="m 1480.03,293.795 q -6.85,0 -10.83,5.37 -3.98,5.324 -3.98,14.629 0,9.306 3.93,14.676 3.98,5.324 10.88,5.324 6.81,0 10.79,-5.37 3.98,-5.37 3.98,-14.63 0,-9.212 -3.98,-14.583 -3.98,-5.416 -10.79,-5.416 m 0,-7.223 q 11.11,0 17.45,7.223 6.35,7.222 6.35,19.999 0,12.732 -6.35,20 -6.34,7.223 -17.45,7.223 -11.16,0 -17.5,-7.223 -6.3,-7.268 -6.3,-20 0,-12.777 6.3,-19.999 6.34,-7.223 17.5,-7.223 z"
         fill="#000000"
         fill-rule="nonzero"
         fill-opacity="1"
         id="path152-6"
         transform="translate(498.92892,-588.8997)" />
      <path
         clip-path="url(#clip730)"
         d="m 1558.32,297.776 q 3.19,-5.741 7.64,-8.472 4.44,-2.732 10.46,-2.732 8.1,0 12.5,5.695 4.4,5.648 4.4,16.111 v 31.296 h -8.57 v -31.018 q 0,-7.454 -2.64,-11.065 -2.64,-3.611 -8.05,-3.611 -6.62,0 -10.46,4.398 -3.85,4.398 -3.85,11.991 v 29.305 h -8.56 v -31.018 q 0,-7.5 -2.64,-11.065 -2.64,-3.611 -8.15,-3.611 -6.53,0 -10.37,4.444 -3.84,4.398 -3.84,11.945 v 29.305 h -8.57 v -51.852 h 8.57 v 8.056 q 2.91,-4.769 6.99,-7.037 4.07,-2.269 9.67,-2.269 5.65,0 9.59,2.871 3.98,2.87 5.88,8.333 z"
         fill="#000000"
         fill-rule="nonzero"
         fill-opacity="1"
         id="path153-8"
         transform="translate(498.92892,-588.8997)" />
      <path
         clip-path="url(#clip730)"
         d="m 1618.55,331.896 v 27.5 h -8.57 v -71.574 h 8.57 v 7.871 q 2.68,-4.63 6.76,-6.852 4.12,-2.269 9.81,-2.269 9.45,0 15.33,7.5 5.92,7.5 5.92,19.722 0,12.223 -5.92,19.723 -5.88,7.5 -15.33,7.5 -5.69,0 -9.81,-2.223 -4.08,-2.268 -6.76,-6.898 m 28.98,-18.102 q 0,-9.398 -3.89,-14.722 -3.84,-5.37 -10.6,-5.37 -6.76,0 -10.65,5.37 -3.84,5.324 -3.84,14.722 0,9.399 3.84,14.769 3.89,5.324 10.65,5.324 6.76,0 10.6,-5.324 3.89,-5.37 3.89,-14.769 z"
         fill="#000000"
         fill-rule="nonzero"
         fill-opacity="1"
         id="path154-4"
         transform="translate(498.92892,-588.8997)" />
      <path
         clip-path="url(#clip730)"
         d="m 1669.61,319.211 v -31.389 h 8.52 v 31.065 q 0,7.361 2.87,11.065 2.87,3.657 8.61,3.657 6.9,0 10.88,-4.398 4.03,-4.398 4.03,-11.991 v -29.398 h 8.52 v 51.852 h -8.52 v -7.963 q -3.1,4.722 -7.22,7.037 -4.08,2.269 -9.49,2.269 -8.94,0 -13.57,-5.556 -4.63,-5.555 -4.63,-16.25 m 21.44,-32.639 z"
         fill="#000000"
         fill-rule="nonzero"
         fill-opacity="1"
         id="path155-8"
         transform="translate(498.92892,-588.8997)" />
      <path
         clip-path="url(#clip730)"
         d="m 1739.01,273.1 v 14.722 h 17.55 v 6.621 h -17.55 v 28.148 q 0,6.342 1.71,8.148 1.76,1.805 7.09,1.805 h 8.75 v 7.13 h -8.75 q -9.86,0 -13.61,-3.657 -3.75,-3.704 -3.75,-13.426 v -28.148 h -6.25 v -6.621 h 6.25 V 273.1 Z"
         fill="#000000"
         fill-rule="nonzero"
         fill-opacity="1"
         id="path156-4"
         transform="translate(498.92892,-588.8997)" />
      <path
         clip-path="url(#clip730)"
         d="m 1791.33,313.609 q -10.33,0 -14.31,2.361 -3.98,2.361 -3.98,8.056 0,4.537 2.96,7.222 3.01,2.639 8.15,2.639 7.08,0 11.34,-5 4.31,-5.046 4.31,-13.38 v -1.898 h -8.47 m 16.99,-3.518 v 29.583 h -8.52 v -7.87 q -2.92,4.722 -7.27,6.99 -4.35,2.223 -10.65,2.223 -7.96,0 -12.68,-4.445 -4.68,-4.491 -4.68,-11.991 0,-8.749 5.83,-13.194 5.88,-4.444 17.5,-4.444 h 11.95 v -0.834 q 0,-5.879 -3.89,-9.074 -3.84,-3.24 -10.83,-3.24 -4.45,0 -8.66,1.064 -4.21,1.065 -8.1,3.195 v -7.871 q 4.67,-1.805 9.07,-2.685 4.4,-0.926 8.57,-0.926 11.25,0 16.8,5.834 5.56,5.833 5.56,17.685 z"
         fill="#000000"
         fill-rule="nonzero"
         fill-opacity="1"
         id="path157-0"
         transform="translate(498.92892,-588.8997)" />
      <path
         clip-path="url(#clip730)"
         d="m 1834.29,273.1 v 14.722 h 17.54 v 6.621 h -17.54 v 28.148 q 0,6.342 1.71,8.148 1.76,1.805 7.08,1.805 h 8.75 v 7.13 h -8.75 q -9.86,0 -13.61,-3.657 -3.75,-3.704 -3.75,-13.426 v -28.148 h -6.25 v -6.621 h 6.25 V 273.1 Z"
         fill="#000000"
         fill-rule="nonzero"
         fill-opacity="1"
         id="path158-1"
         transform="translate(498.92892,-588.8997)" />
      <path
         clip-path="url(#clip730)"
         d="m 1863.04,287.822 h 8.52 v 51.852 h -8.52 v -51.852 m 0,-20.185 h 8.52 v 10.787 h -8.52 z"
         fill="#000000"
         fill-rule="nonzero"
         fill-opacity="1"
         id="path159-5"
         transform="translate(498.92892,-588.8997)" />
      <path
         clip-path="url(#clip730)"
         d="m 1909.47,293.795 q -6.85,0 -10.83,5.37 -3.98,5.324 -3.98,14.629 0,9.306 3.93,14.676 3.98,5.324 10.88,5.324 6.81,0 10.79,-5.37 3.98,-5.37 3.98,-14.63 0,-9.212 -3.98,-14.583 -3.98,-5.416 -10.79,-5.416 m 0,-7.223 q 11.11,0 17.46,7.223 6.34,7.222 6.34,19.999 0,12.732 -6.34,20 -6.35,7.223 -17.46,7.223 -11.15,0 -17.5,-7.223 -6.29,-7.268 -6.29,-20 0,-12.777 6.29,-19.999 6.35,-7.223 17.5,-7.223 z"
         fill="#000000"
         fill-rule="nonzero"
         fill-opacity="1"
         id="path160-7"
         transform="translate(498.92892,-588.8997)" />
      <path
         clip-path="url(#clip730)"
         d="m 1990.49,308.378 v 31.296 h -8.52 v -31.018 q 0,-7.361 -2.87,-11.019 -2.87,-3.657 -8.61,-3.657 -6.9,0 -10.88,4.398 -3.98,4.398 -3.98,11.991 v 29.305 h -8.56 v -51.852 h 8.56 v 8.056 q 3.06,-4.676 7.18,-6.991 4.16,-2.315 9.58,-2.315 8.93,0 13.52,5.556 4.58,5.509 4.58,16.25 z"
         fill="#000000"
         fill-rule="nonzero"
         fill-opacity="1"
         id="path161-3"
         transform="translate(498.92892,-588.8997)" />
      <path
         clip-path="url(#clip730)"
         d="m 2031.05,313.609 q -10.33,0 -14.31,2.361 -3.98,2.361 -3.98,8.056 0,4.537 2.96,7.222 3.01,2.639 8.15,2.639 7.08,0 11.34,-5 4.31,-5.046 4.31,-13.38 v -1.898 h -8.47 m 16.99,-3.518 v 29.583 h -8.52 v -7.87 q -2.92,4.722 -7.27,6.99 -4.35,2.223 -10.65,2.223 -7.96,0 -12.68,-4.445 -4.68,-4.491 -4.68,-11.991 0,-8.749 5.83,-13.194 5.88,-4.444 17.5,-4.444 h 11.95 v -0.834 q 0,-5.879 -3.89,-9.074 -3.84,-3.24 -10.83,-3.24 -4.45,0 -8.66,1.064 -4.21,1.065 -8.1,3.195 v -7.871 q 4.67,-1.805 9.07,-2.685 4.4,-0.926 8.57,-0.926 11.25,0 16.8,5.834 5.56,5.833 5.56,17.685 z"
         fill="#000000"
         fill-rule="nonzero"
         fill-opacity="1"
         id="path162"
         transform="translate(498.92892,-588.8997)" />
      <path
         clip-path="url(#clip730)"
         d="m 2065.58,267.637 h 8.52 v 72.037 h -8.52 z"
         fill="#000000"
         fill-rule="nonzero"
         fill-opacity="1"
         id="path163"
         transform="translate(498.92892,-588.8997)" />
      <path
         clip-path="url(#clip730)"
         d="m 2130.49,273.1 v 14.722 h 17.55 v 6.621 h -17.55 v 28.148 q 0,6.342 1.71,8.148 1.76,1.805 7.09,1.805 h 8.75 v 7.13 h -8.75 q -9.86,0 -13.61,-3.657 -3.75,-3.704 -3.75,-13.426 v -28.148 h -6.25 v -6.621 h 6.25 V 273.1 Z"
         fill="#000000"
         fill-rule="nonzero"
         fill-opacity="1"
         id="path164"
         transform="translate(498.92892,-588.8997)" />
      <path
         clip-path="url(#clip730)"
         d="m 2159.24,287.822 h 8.52 v 51.852 h -8.52 v -51.852 m 0,-20.185 h 8.52 v 10.787 h -8.52 z"
         fill="#000000"
         fill-rule="nonzero"
         fill-opacity="1"
         id="path165"
         transform="translate(498.92892,-588.8997)" />
      <path
         clip-path="url(#clip730)"
         d="m 2225.95,297.776 q 3.2,-5.741 7.64,-8.472 4.45,-2.732 10.46,-2.732 8.11,0 12.5,5.695 4.4,5.648 4.4,16.111 v 31.296 h -8.56 v -31.018 q 0,-7.454 -2.64,-11.065 -2.64,-3.611 -8.06,-3.611 -6.62,0 -10.46,4.398 -3.84,4.398 -3.84,11.991 v 29.305 h -8.57 v -31.018 q 0,-7.5 -2.64,-11.065 -2.63,-3.611 -8.14,-3.611 -6.53,0 -10.37,4.444 -3.85,4.398 -3.85,11.945 v 29.305 h -8.56 v -51.852 h 8.56 v 8.056 q 2.92,-4.769 6.99,-7.037 4.08,-2.269 9.68,-2.269 5.65,0 9.58,2.871 3.98,2.87 5.88,8.333 z"
         fill="#000000"
         fill-rule="nonzero"
         fill-opacity="1"
         id="path166"
         transform="translate(498.92892,-588.8997)" />
      <path
         clip-path="url(#clip730)"
         d="m 2322.29,311.619 v 4.166 h -39.16 q 0.55,8.796 5.28,13.426 4.76,4.583 13.24,4.583 4.9,0 9.49,-1.203 4.63,-1.204 9.16,-3.611 v 8.055 q -4.58,1.945 -9.39,2.963 -4.82,1.019 -9.77,1.019 -12.41,0 -19.68,-7.223 -7.22,-7.222 -7.22,-19.537 0,-12.731 6.85,-20.185 6.9,-7.5 18.57,-7.5 10.46,0 16.52,6.76 6.11,6.713 6.11,18.287 m -8.51,-2.5 q -0.1,-6.991 -3.94,-11.158 -3.79,-4.166 -10.09,-4.166 -7.13,0 -11.44,4.027 -4.26,4.028 -4.9,11.343 z"
         fill="#000000"
         fill-rule="nonzero"
         fill-opacity="1"
         id="path167"
         transform="translate(498.92892,-588.8997)" />
    </g>
  </g>
</svg>
