<?xml version="1.0" encoding="UTF-8" standalone="no"?>
<svg
   width="700"
   height="450"
   viewBox="0 0 2800 1800"
   version="1.1"
   id="svg154"
   sodipodi:docname="fig6_eqn_time.svg"
   xmlns:inkscape="http://www.inkscape.org/namespaces/inkscape"
   xmlns:sodipodi="http://sodipodi.sourceforge.net/DTD/sodipodi-0.dtd"
   xmlns="http://www.w3.org/2000/svg"
   xmlns:svg="http://www.w3.org/2000/svg">
  <sodipodi:namedview
     id="namedview154"
     pagecolor="#ffffff"
     bordercolor="#000000"
     borderopacity="0.25"
     inkscape:showpageshadow="2"
     inkscape:pageopacity="0.0"
     inkscape:pagecheckerboard="0"
     inkscape:deskcolor="#d1d1d1" />
  <defs
     id="defs1">
    <clipPath
       id="clip950">
      <rect
         x="0"
         y="0"
         width="2800"
         height="1800"
         id="rect1" />
    </clipPath>
    <clipPath
       id="clip890">
      <rect
         x="0"
         y="0"
         width="2800"
         height="1800"
         id="rect1-6" />
    </clipPath>
  </defs>
  <path
     clip-path="url(#clip950)"
     d="M 0,1800 H 2800 V 0 H 0 Z"
     fill="#ffffff"
     fill-rule="evenodd"
     fill-opacity="1"
     id="path1"
     inkscape:export-filename="fig6_eqn_time.pdf"
     inkscape:export-xdpi="700"
     inkscape:export-ydpi="700" />
  <defs
     id="defs2" />
  <path
     clip-path="url(#clip950)"
     d="M 348.614,1562.54 H 2414.83 V 47.2441 H 348.614 Z"
     fill="#ffffff"
     fill-rule="evenodd"
     fill-opacity="1"
     id="path2" />
  <defs
     id="defs3">
    <clipPath
       id="clip952">
      <rect
         x="348"
         y="47"
         width="2067"
         height="1516"
         id="rect3" />
    </clipPath>
  </defs>
  <polyline
     clip-path="url(#clip952)"
     style="fill:none;stroke:#000000;stroke-width:2;stroke-linecap:round;stroke-linejoin:round;stroke-opacity:0.1"
     points="407.091,1562.54 407.091,47.2441 "
     id="polyline3" />
  <polyline
     clip-path="url(#clip952)"
     style="fill:none;stroke:#000000;stroke-width:2;stroke-linecap:round;stroke-linejoin:round;stroke-opacity:0.1"
     points="1056.84,1562.54 1056.84,47.2441 "
     id="polyline4" />
  <polyline
     clip-path="url(#clip952)"
     style="fill:none;stroke:#000000;stroke-width:2;stroke-linecap:round;stroke-linejoin:round;stroke-opacity:0.1"
     points="1706.6,1562.54 1706.6,47.2441 "
     id="polyline5" />
  <polyline
     clip-path="url(#clip952)"
     style="fill:none;stroke:#000000;stroke-width:2;stroke-linecap:round;stroke-linejoin:round;stroke-opacity:0.1"
     points="2356.35,1562.54 2356.35,47.2441 "
     id="polyline6" />
  <polyline
     clip-path="url(#clip950)"
     style="fill:none;stroke:#000000;stroke-width:4;stroke-linecap:round;stroke-linejoin:round;stroke-opacity:1"
     points="348.614,1562.54 2414.83,1562.54 "
     id="polyline7" />
  <polyline
     clip-path="url(#clip950)"
     style="fill:none;stroke:#000000;stroke-width:4;stroke-linecap:round;stroke-linejoin:round;stroke-opacity:1"
     points="407.091,1562.54 407.091,1543.64 "
     id="polyline8" />
  <polyline
     clip-path="url(#clip950)"
     style="fill:none;stroke:#000000;stroke-width:4;stroke-linecap:round;stroke-linejoin:round;stroke-opacity:1"
     points="1056.84,1562.54 1056.84,1543.64 "
     id="polyline9" />
  <polyline
     clip-path="url(#clip950)"
     style="fill:none;stroke:#000000;stroke-width:4;stroke-linecap:round;stroke-linejoin:round;stroke-opacity:1"
     points="1706.6,1562.54 1706.6,1543.64 "
     id="polyline10" />
  <polyline
     clip-path="url(#clip950)"
     style="fill:none;stroke:#000000;stroke-width:4;stroke-linecap:round;stroke-linejoin:round;stroke-opacity:1"
     points="2356.35,1562.54 2356.35,1543.64 "
     id="polyline11" />
  <path
     clip-path="url(#clip950)"
     d="m 390.26,1653.65 h 13.368 v -46.14 l -14.543,2.92 v -7.45 l 14.462,-2.92 h 8.183 v 53.59 h 13.368 v 6.89 H 390.26 Z"
     fill="#000000"
     fill-rule="nonzero"
     fill-opacity="1"
     id="path11" />
  <path
     clip-path="url(#clip950)"
     d="m 1047.49,1653.65 h 28.56 v 6.89 h -38.41 v -6.89 q 4.66,-4.82 12.68,-12.92 8.06,-8.14 10.13,-10.49 3.93,-4.42 5.47,-7.45 1.58,-3.08 1.58,-6.04 0,-4.82 -3.4,-7.86 -3.37,-3.04 -8.8,-3.04 -3.84,0 -8.14,1.34 -4.25,1.34 -9.11,4.05 v -8.26 q 4.94,-1.99 9.23,-3 4.3,-1.01 7.86,-1.01 9.4,0 14.99,4.7 5.59,4.69 5.59,12.55 0,3.73 -1.42,7.09 -1.37,3.32 -5.06,7.86 -1.01,1.18 -6.44,6.81 -5.43,5.59 -15.31,15.67 z"
     fill="#000000"
     fill-rule="nonzero"
     fill-opacity="1"
     id="path12" />
  <path
     clip-path="url(#clip950)"
     d="m 1714.03,1627.93 q 5.87,1.26 9.15,5.23 3.33,3.97 3.33,9.8 0,8.95 -6.16,13.85 -6.16,4.91 -17.5,4.91 -3.81,0 -7.86,-0.77 -4.01,-0.73 -8.3,-2.23 v -7.9 q 3.4,1.98 7.45,3 4.05,1.01 8.47,1.01 7.69,0 11.7,-3.04 4.05,-3.04 4.05,-8.83 0,-5.35 -3.76,-8.35 -3.73,-3.03 -10.41,-3.03 h -7.05 v -6.73 h 7.37 q 6.04,0 9.24,-2.39 3.2,-2.43 3.2,-6.97 0,-4.65 -3.33,-7.13 -3.28,-2.51 -9.43,-2.51 -3.37,0 -7.21,0.73 -3.85,0.73 -8.47,2.27 v -7.29 q 4.66,-1.3 8.71,-1.95 4.09,-0.64 7.7,-0.64 9.31,0 14.74,4.25 5.43,4.21 5.43,11.42 0,5.03 -2.88,8.51 -2.87,3.44 -8.18,4.78 z"
     fill="#000000"
     fill-rule="nonzero"
     fill-opacity="1"
     id="path13" />
  <path
     clip-path="url(#clip950)"
     d="m 2361.62,1607.19 -20.66,32.29 h 20.66 v -32.29 m -2.15,-7.13 h 10.29 v 39.42 h 8.63 v 6.8 h -8.63 v 14.26 h -8.14 v -14.26 h -27.31 v -7.9 z"
     fill="#000000"
     fill-rule="nonzero"
     fill-opacity="1"
     id="path14" />
  <path
     clip-path="url(#clip950)"
     d="m 1044.71,1709.08 h 9.35 v 61.25 h 33.66 v 7.87 h -43.01 z"
     fill="#000000"
     fill-rule="nonzero"
     fill-opacity="1"
     id="path15" />
  <path
     clip-path="url(#clip950)"
     d="m 1120.73,1752.14 q -10.33,0 -14.31,2.36 -3.98,2.36 -3.98,8.06 0,4.53 2.96,7.22 3.01,2.64 8.15,2.64 7.08,0 11.34,-5 4.31,-5.05 4.31,-13.38 v -1.9 h -8.47 m 16.99,-3.52 v 29.58 h -8.52 v -7.87 q -2.92,4.73 -7.27,6.99 -4.35,2.23 -10.65,2.23 -7.96,0 -12.68,-4.45 -4.68,-4.49 -4.68,-11.99 0,-8.75 5.83,-13.19 5.88,-4.45 17.5,-4.45 h 11.95 v -0.83 q 0,-5.88 -3.89,-9.07 -3.84,-3.25 -10.83,-3.25 -4.45,0 -8.66,1.07 -4.21,1.06 -8.1,3.19 v -7.87 q 4.67,-1.8 9.07,-2.68 4.4,-0.93 8.57,-0.93 11.25,0 16.8,5.84 5.56,5.83 5.56,17.68 z"
     fill="#000000"
     fill-rule="nonzero"
     fill-opacity="1"
     id="path16" />
  <path
     clip-path="url(#clip950)"
     d="m 1163.69,1711.63 v 14.72 h 17.55 v 6.62 h -17.55 v 28.15 q 0,6.34 1.71,8.15 1.76,1.8 7.09,1.8 h 8.75 v 7.13 h -8.75 q -9.87,0 -13.62,-3.65 -3.75,-3.71 -3.75,-13.43 v -28.15 h -6.25 v -6.62 h 6.25 v -14.72 z"
     fill="#000000"
     fill-rule="nonzero"
     fill-opacity="1"
     id="path17" />
  <path
     clip-path="url(#clip950)"
     d="m 1236.79,1750.15 v 4.17 h -39.17 q 0.56,8.79 5.28,13.42 4.77,4.58 13.24,4.58 4.91,0 9.49,-1.2 4.63,-1.2 9.17,-3.61 v 8.06 q -4.58,1.94 -9.4,2.96 -4.81,1.02 -9.77,1.02 -12.4,0 -19.67,-7.23 -7.22,-7.22 -7.22,-19.53 0,-12.73 6.85,-20.19 6.9,-7.5 18.56,-7.5 10.46,0 16.53,6.76 6.11,6.71 6.11,18.29 m -8.52,-2.5 q -0.09,-6.99 -3.93,-11.16 -3.8,-4.17 -10.1,-4.17 -7.13,0 -11.43,4.03 -4.26,4.03 -4.91,11.35 z"
     fill="#000000"
     fill-rule="nonzero"
     fill-opacity="1"
     id="path18" />
  <path
     clip-path="url(#clip950)"
     d="m 1293.87,1746.91 v 31.29 h -8.52 v -31.01 q 0,-7.37 -2.87,-11.02 -2.87,-3.66 -8.61,-3.66 -6.89,0 -10.88,4.4 -3.98,4.4 -3.98,11.99 v 29.3 h -8.56 v -51.85 h 8.56 v 8.06 q 3.06,-4.68 7.18,-6.99 4.17,-2.32 9.58,-2.32 8.94,0 13.52,5.56 4.58,5.51 4.58,16.25 z"
     fill="#000000"
     fill-rule="nonzero"
     fill-opacity="1"
     id="path19" />
  <path
     clip-path="url(#clip950)"
     d="m 1319.29,1711.63 v 14.72 h 17.55 v 6.62 h -17.55 v 28.15 q 0,6.34 1.71,8.15 1.76,1.8 7.09,1.8 h 8.75 v 7.13 h -8.75 q -9.86,0 -13.61,-3.65 -3.75,-3.71 -3.75,-13.43 v -28.15 h -6.25 v -6.62 h 6.25 v -14.72 z"
     fill="#000000"
     fill-rule="nonzero"
     fill-opacity="1"
     id="path20" />
  <path
     clip-path="url(#clip950)"
     d="m 1411.23,1727.88 v 8.06 q -3.61,-1.86 -7.5,-2.78 -3.88,-0.93 -8.05,-0.93 -6.34,0 -9.54,1.95 -3.15,1.94 -3.15,5.83 0,2.96 2.27,4.68 2.27,1.66 9.12,3.19 l 2.92,0.65 q 9.07,1.94 12.87,5.51 3.84,3.52 3.84,9.86 0,7.22 -5.74,11.43 -5.69,4.22 -15.69,4.22 -4.17,0 -8.71,-0.84 -4.49,-0.78 -9.49,-2.4 v -8.8 q 4.72,2.45 9.31,3.7 4.58,1.21 9.07,1.21 6.02,0 9.26,-2.04 3.24,-2.08 3.24,-5.83 0,-3.48 -2.36,-5.33 -2.31,-1.85 -10.23,-3.56 l -2.96,-0.7 q -7.92,-1.66 -11.44,-5.09 -3.52,-3.47 -3.52,-9.49 0,-7.31 5.19,-11.3 5.18,-3.98 14.72,-3.98 4.72,0 8.89,0.7 4.17,0.69 7.68,2.08 z"
     fill="#000000"
     fill-rule="nonzero"
     fill-opacity="1"
     id="path21" />
  <path
     clip-path="url(#clip950)"
     d="m 1435.82,1770.43 v 27.5 h -8.57 v -71.58 h 8.57 v 7.87 q 2.68,-4.63 6.76,-6.85 4.12,-2.27 9.81,-2.27 9.45,0 15.33,7.5 5.92,7.5 5.92,19.72 0,12.23 -5.92,19.73 -5.88,7.5 -15.33,7.5 -5.69,0 -9.81,-2.23 -4.08,-2.26 -6.76,-6.89 m 28.98,-18.11 q 0,-9.39 -3.89,-14.72 -3.84,-5.37 -10.6,-5.37 -6.76,0 -10.65,5.37 -3.84,5.33 -3.84,14.72 0,9.4 3.84,14.77 3.89,5.33 10.65,5.33 6.76,0 10.6,-5.33 3.89,-5.37 3.89,-14.77 z"
     fill="#000000"
     fill-rule="nonzero"
     fill-opacity="1"
     id="path22" />
  <path
     clip-path="url(#clip950)"
     d="m 1532.11,1750.15 v 4.17 h -39.16 q 0.55,8.79 5.27,13.42 4.77,4.58 13.24,4.58 4.91,0 9.5,-1.2 4.63,-1.2 9.16,-3.61 v 8.06 q -4.58,1.94 -9.4,2.96 -4.81,1.02 -9.76,1.02 -12.41,0 -19.68,-7.23 -7.22,-7.22 -7.22,-19.53 0,-12.73 6.85,-20.19 6.9,-7.5 18.56,-7.5 10.47,0 16.53,6.76 6.11,6.71 6.11,18.29 m -8.52,-2.5 q -0.09,-6.99 -3.93,-11.16 -3.8,-4.17 -10.09,-4.17 -7.13,0 -11.44,4.03 -4.26,4.03 -4.91,11.35 z"
     fill="#000000"
     fill-rule="nonzero"
     fill-opacity="1"
     id="path23" />
  <path
     clip-path="url(#clip950)"
     d="m 1583.41,1728.34 v 7.97 q -3.61,-1.99 -7.27,-2.97 -3.61,-1.02 -7.31,-1.02 -8.29,0 -12.87,5.28 -4.59,5.23 -4.59,14.72 0,9.5 4.59,14.77 4.58,5.23 12.87,5.23 3.7,0 7.31,-0.97 3.66,-1.02 7.27,-3.01 v 7.87 q -3.57,1.67 -7.41,2.5 -3.79,0.84 -8.1,0.84 -11.71,0 -18.61,-7.36 -6.9,-7.37 -6.9,-19.87 0,-12.68 6.94,-19.95 7,-7.27 19.13,-7.27 3.93,0 7.68,0.84 3.75,0.78 7.27,2.4 z"
     fill="#000000"
     fill-rule="nonzero"
     fill-opacity="1"
     id="path24" />
  <path
     clip-path="url(#clip950)"
     d="m 1598.22,1726.35 h 8.52 v 51.85 h -8.52 v -51.85 m 0,-20.18 h 8.52 v 10.78 h -8.52 z"
     fill="#000000"
     fill-rule="nonzero"
     fill-opacity="1"
     id="path25" />
  <path
     clip-path="url(#clip950)"
     d="m 1668.92,1750.15 v 4.17 h -39.17 q 0.56,8.79 5.28,13.42 4.77,4.58 13.24,4.58 4.91,0 9.49,-1.2 4.63,-1.2 9.17,-3.61 v 8.06 q -4.59,1.94 -9.4,2.96 -4.82,1.02 -9.77,1.02 -12.41,0 -19.68,-7.23 -7.22,-7.22 -7.22,-19.53 0,-12.73 6.85,-20.19 6.9,-7.5 18.57,-7.5 10.46,0 16.53,6.76 6.11,6.71 6.11,18.29 m -8.52,-2.5 q -0.09,-6.99 -3.94,-11.16 -3.79,-4.17 -10.09,-4.17 -7.13,0 -11.43,4.03 -4.26,4.03 -4.91,11.35 z"
     fill="#000000"
     fill-rule="nonzero"
     fill-opacity="1"
     id="path26" />
  <path
     clip-path="url(#clip950)"
     d="m 1715.95,1727.88 v 8.06 q -3.61,-1.86 -7.5,-2.78 -3.88,-0.93 -8.05,-0.93 -6.34,0 -9.54,1.95 -3.15,1.94 -3.15,5.83 0,2.96 2.27,4.68 2.27,1.66 9.12,3.19 l 2.92,0.65 q 9.07,1.94 12.87,5.51 3.84,3.52 3.84,9.86 0,7.22 -5.74,11.43 -5.69,4.22 -15.69,4.22 -4.17,0 -8.71,-0.84 -4.49,-0.78 -9.49,-2.4 v -8.8 q 4.73,2.45 9.31,3.7 4.58,1.21 9.07,1.21 6.02,0 9.26,-2.04 3.24,-2.08 3.24,-5.83 0,-3.48 -2.36,-5.33 -2.31,-1.85 -10.23,-3.56 l -2.96,-0.7 q -7.92,-1.66 -11.44,-5.09 -3.52,-3.47 -3.52,-9.49 0,-7.31 5.19,-11.3 5.18,-3.98 14.72,-3.98 4.72,0 8.89,0.7 4.17,0.69 7.68,2.08 z"
     fill="#000000"
     fill-rule="nonzero"
     fill-opacity="1"
     id="path27" />
  <polyline
     clip-path="url(#clip950)"
     style="fill:none;stroke:#000000;stroke-width:4;stroke-linecap:round;stroke-linejoin:round;stroke-opacity:1"
     points="348.614,1562.54 348.614,47.2441 "
     id="polyline27" />
  <polyline
     clip-path="url(#clip950)"
     style="fill:none;stroke:#000000;stroke-width:4;stroke-linecap:round;stroke-linejoin:round;stroke-opacity:1"
     points="348.614,1554.52 367.511,1554.52 "
     id="polyline28" />
  <polyline
     clip-path="url(#clip950)"
     style="fill:none;stroke:#000000;stroke-width:4;stroke-linecap:round;stroke-linejoin:round;stroke-opacity:1"
     points="348.614,1322.08 367.511,1322.08 "
     id="polyline29" />
  <polyline
     clip-path="url(#clip950)"
     style="fill:none;stroke:#000000;stroke-width:4;stroke-linecap:round;stroke-linejoin:round;stroke-opacity:1"
     points="348.614,1089.63 367.511,1089.63 "
     id="polyline30" />
  <polyline
     clip-path="url(#clip950)"
     style="fill:none;stroke:#000000;stroke-width:4;stroke-linecap:round;stroke-linejoin:round;stroke-opacity:1"
     points="348.614,857.192 367.511,857.192 "
     id="polyline31" />
  <polyline
     clip-path="url(#clip950)"
     style="fill:none;stroke:#000000;stroke-width:4;stroke-linecap:round;stroke-linejoin:round;stroke-opacity:1"
     points="348.614,624.749 367.511,624.749 "
     id="polyline32" />
  <polyline
     clip-path="url(#clip950)"
     style="fill:none;stroke:#000000;stroke-width:4;stroke-linecap:round;stroke-linejoin:round;stroke-opacity:1"
     points="348.614,392.306 367.511,392.306 "
     id="polyline33" />
  <polyline
     clip-path="url(#clip950)"
     style="fill:none;stroke:#000000;stroke-width:4;stroke-linecap:round;stroke-linejoin:round;stroke-opacity:1"
     points="348.614,159.863 367.511,159.863 "
     id="polyline34" />
  <path
     clip-path="url(#clip950)"
     d="m 285.711,1529.67 q -6.319,0 -9.52,6.24 -3.159,6.2 -3.159,18.67 0,12.44 3.159,18.68 3.201,6.19 9.52,6.19 6.36,0 9.52,-6.19 3.2,-6.24 3.2,-18.68 0,-12.47 -3.2,-18.67 -3.16,-6.24 -9.52,-6.24 m 0,-6.48 q 10.168,0 15.515,8.06 5.388,8.02 5.388,23.33 0,15.27 -5.388,23.34 -5.347,8.02 -15.515,8.02 -10.168,0 -15.555,-8.02 -5.348,-8.07 -5.348,-23.34 0,-15.31 5.348,-23.33 5.387,-8.06 15.555,-8.06 z"
     fill="#000000"
     fill-rule="nonzero"
     fill-opacity="1"
     id="path34" />
  <path
     clip-path="url(#clip950)"
     d="m 222.476,1345.43 h 28.559 v 6.89 h -38.402 v -6.89 q 4.658,-4.82 12.679,-12.92 8.061,-8.14 10.127,-10.49 3.93,-4.42 5.469,-7.46 1.58,-3.08 1.58,-6.03 0,-4.82 -3.403,-7.86 -3.362,-3.04 -8.79,-3.04 -3.849,0 -8.143,1.34 -4.253,1.33 -9.114,4.05 v -8.27 q 4.942,-1.98 9.236,-2.99 4.294,-1.02 7.859,-1.02 9.398,0 14.988,4.7 5.59,4.7 5.59,12.56 0,3.73 -1.418,7.09 -1.377,3.32 -5.063,7.86 -1.013,1.17 -6.441,6.8 -5.428,5.59 -15.313,15.68 z"
     fill="#000000"
     fill-rule="nonzero"
     fill-opacity="1"
     id="path35" />
  <path
     clip-path="url(#clip950)"
     d="m 285.711,1297.23 q -6.319,0 -9.52,6.23 -3.159,6.2 -3.159,18.68 0,12.44 3.159,18.67 3.201,6.2 9.52,6.2 6.36,0 9.52,-6.2 3.2,-6.23 3.2,-18.67 0,-12.48 -3.2,-18.68 -3.16,-6.23 -9.52,-6.23 m 0,-6.49 q 10.168,0 15.515,8.07 5.388,8.02 5.388,23.33 0,15.27 -5.388,23.33 -5.347,8.02 -15.515,8.02 -10.168,0 -15.555,-8.02 -5.348,-8.06 -5.348,-23.33 0,-15.31 5.348,-23.33 5.387,-8.07 15.555,-8.07 z"
     fill="#000000"
     fill-rule="nonzero"
     fill-opacity="1"
     id="path36" />
  <path
     clip-path="url(#clip950)"
     d="m 237.91,1066.52 -20.659,32.29 h 20.659 v -32.29 m -2.147,-7.13 h 10.29 v 39.42 h 8.628 v 6.81 h -8.628 v 14.25 h -8.143 v -14.25 h -27.303 v -7.9 z"
     fill="#000000"
     fill-rule="nonzero"
     fill-opacity="1"
     id="path37" />
  <path
     clip-path="url(#clip950)"
     d="m 285.711,1064.78 q -6.319,0 -9.52,6.24 -3.159,6.2 -3.159,18.68 0,12.43 3.159,18.67 3.201,6.2 9.52,6.2 6.36,0 9.52,-6.2 3.2,-6.24 3.2,-18.67 0,-12.48 -3.2,-18.68 -3.16,-6.24 -9.52,-6.24 m 0,-6.48 q 10.168,0 15.515,8.06 5.388,8.02 5.388,23.34 0,15.27 -5.388,23.33 -5.347,8.02 -15.515,8.02 -10.168,0 -15.555,-8.02 -5.348,-8.06 -5.348,-23.33 0,-15.32 5.348,-23.34 5.387,-8.06 15.555,-8.06 z"
     fill="#000000"
     fill-rule="nonzero"
     fill-opacity="1"
     id="path38" />
  <path
     clip-path="url(#clip950)"
     d="m 233.941,853.931 q -5.51,0 -8.75,3.767 -3.201,3.768 -3.201,10.33 0,6.522 3.201,10.33 3.24,3.767 8.75,3.767 5.509,0 8.709,-3.767 3.241,-3.808 3.241,-10.33 0,-6.562 -3.241,-10.33 -3.2,-3.767 -8.709,-3.767 m 16.244,-25.642 v 7.453 q -3.079,-1.458 -6.239,-2.228 -3.119,-0.769 -6.198,-0.769 -8.101,0 -12.395,5.468 -4.254,5.469 -4.861,16.528 2.39,-3.524 5.995,-5.388 3.605,-1.903 7.94,-1.903 9.114,0 14.38,5.549 5.307,5.509 5.307,15.029 0,9.317 -5.509,14.948 -5.509,5.631 -14.664,5.631 -10.492,0 -16.042,-8.021 -5.55,-8.061 -5.55,-23.333 0,-14.341 6.806,-22.847 6.805,-8.548 18.269,-8.548 3.079,0 6.198,0.608 3.16,0.607 6.563,1.823 z"
     fill="#000000"
     fill-rule="nonzero"
     fill-opacity="1"
     id="path39" />
  <path
     clip-path="url(#clip950)"
     d="m 285.711,832.34 q -6.319,0 -9.52,6.238 -3.159,6.198 -3.159,18.675 0,12.436 3.159,18.674 3.201,6.198 9.52,6.198 6.36,0 9.52,-6.198 3.2,-6.238 3.2,-18.674 0,-12.477 -3.2,-18.675 -3.16,-6.238 -9.52,-6.238 m 0,-6.482 q 10.168,0 15.515,8.061 5.388,8.021 5.388,23.334 0,15.272 -5.388,23.333 -5.347,8.021 -15.515,8.021 -10.168,0 -15.555,-8.021 -5.348,-8.061 -5.348,-23.333 0,-15.313 5.348,-23.334 5.387,-8.061 15.555,-8.061 z"
     fill="#000000"
     fill-rule="nonzero"
     fill-opacity="1"
     id="path40" />
  <path
     clip-path="url(#clip950)"
     d="m 232.928,626.268 q -5.834,0 -9.196,3.119 -3.322,3.119 -3.322,8.588 0,5.469 3.322,8.588 3.362,3.119 9.196,3.119 5.833,0 9.195,-3.119 3.363,-3.16 3.363,-8.588 0,-5.469 -3.363,-8.588 -3.321,-3.119 -9.195,-3.119 m -8.183,-3.484 q -5.266,-1.296 -8.223,-4.901 -2.917,-3.606 -2.917,-8.791 0,-7.251 5.145,-11.464 5.185,-4.213 14.178,-4.213 9.033,0 14.178,4.213 5.145,4.213 5.145,11.464 0,5.185 -2.958,8.791 -2.916,3.605 -8.142,4.901 5.914,1.377 9.196,5.388 3.321,4.01 3.321,9.803 0,8.791 -5.387,13.49 -5.347,4.699 -15.353,4.699 -10.006,0 -15.394,-4.699 -5.347,-4.699 -5.347,-13.49 0,-5.793 3.322,-9.803 3.322,-4.011 9.236,-5.388 m -2.998,-12.922 q 0,4.699 2.917,7.332 2.957,2.633 8.264,2.633 5.266,0 8.223,-2.633 2.998,-2.633 2.998,-7.332 0,-4.699 -2.998,-7.332 -2.957,-2.633 -8.223,-2.633 -5.307,0 -8.264,2.633 -2.917,2.633 -2.917,7.332 z"
     fill="#000000"
     fill-rule="nonzero"
     fill-opacity="1"
     id="path41" />
  <path
     clip-path="url(#clip950)"
     d="m 285.711,599.897 q -6.319,0 -9.52,6.238 -3.159,6.198 -3.159,18.675 0,12.436 3.159,18.674 3.201,6.198 9.52,6.198 6.36,0 9.52,-6.198 3.2,-6.238 3.2,-18.674 0,-12.477 -3.2,-18.675 -3.16,-6.238 -9.52,-6.238 m 0,-6.482 q 10.168,0 15.515,8.061 5.388,8.021 5.388,23.334 0,15.272 -5.388,23.333 -5.347,8.021 -15.515,8.021 -10.168,0 -15.555,-8.021 -5.348,-8.061 -5.348,-23.333 0,-15.313 5.348,-23.334 5.387,-8.061 15.555,-8.061 z"
     fill="#000000"
     fill-rule="nonzero"
     fill-opacity="1"
     id="path42" />
  <path
     clip-path="url(#clip950)"
     d="m 164.062,415.659 h 13.368 v -46.14 l -14.542,2.917 v -7.454 l 14.461,-2.916 h 8.183 v 53.593 H 198.9 v 6.887 h -34.838 z"
     fill="#000000"
     fill-rule="nonzero"
     fill-opacity="1"
     id="path43" />
  <path
     clip-path="url(#clip950)"
     d="m 232.928,367.454 q -6.32,0 -9.52,6.238 -3.16,6.198 -3.16,18.675 0,12.436 3.16,18.674 3.2,6.198 9.52,6.198 6.36,0 9.519,-6.198 3.201,-6.238 3.201,-18.674 0,-12.477 -3.201,-18.675 -3.159,-6.238 -9.519,-6.238 m 0,-6.482 q 10.168,0 15.515,8.061 5.387,8.021 5.387,23.334 0,15.271 -5.387,23.333 -5.347,8.021 -15.515,8.021 -10.168,0 -15.556,-8.021 -5.347,-8.062 -5.347,-23.333 0,-15.313 5.347,-23.334 5.388,-8.061 15.556,-8.061 z"
     fill="#000000"
     fill-rule="nonzero"
     fill-opacity="1"
     id="path44" />
  <path
     clip-path="url(#clip950)"
     d="m 285.711,367.454 q -6.319,0 -9.52,6.238 -3.159,6.198 -3.159,18.675 0,12.436 3.159,18.674 3.201,6.198 9.52,6.198 6.36,0 9.52,-6.198 3.2,-6.238 3.2,-18.674 0,-12.477 -3.2,-18.675 -3.16,-6.238 -9.52,-6.238 m 0,-6.482 q 10.168,0 15.515,8.061 5.388,8.021 5.388,23.334 0,15.271 -5.388,23.333 -5.347,8.021 -15.515,8.021 -10.168,0 -15.555,-8.021 -5.348,-8.062 -5.348,-23.333 0,-15.313 5.348,-23.334 5.387,-8.061 15.555,-8.061 z"
     fill="#000000"
     fill-rule="nonzero"
     fill-opacity="1"
     id="path45" />
  <path
     clip-path="url(#clip950)"
     d="m 164.062,183.216 h 13.368 v -46.14 l -14.542,2.917 v -7.454 l 14.461,-2.916 h 8.183 v 53.593 H 198.9 v 6.887 h -34.838 z"
     fill="#000000"
     fill-rule="nonzero"
     fill-opacity="1"
     id="path46" />
  <path
     clip-path="url(#clip950)"
     d="m 222.476,183.216 h 28.559 v 6.887 h -38.402 v -6.887 q 4.658,-4.82 12.679,-12.922 8.061,-8.142 10.127,-10.492 3.93,-4.415 5.469,-7.454 1.58,-3.078 1.58,-6.036 0,-4.82 -3.403,-7.858 -3.362,-3.038 -8.79,-3.038 -3.849,0 -8.143,1.336 -4.253,1.337 -9.114,4.051 v -8.264 q 4.942,-1.985 9.236,-2.997 4.294,-1.013 7.859,-1.013 9.398,0 14.988,4.699 5.59,4.699 5.59,12.558 0,3.727 -1.418,7.089 -1.377,3.322 -5.063,7.859 -1.013,1.174 -6.441,6.805 -5.428,5.59 -15.313,15.677 z"
     fill="#000000"
     fill-rule="nonzero"
     fill-opacity="1"
     id="path47" />
  <path
     clip-path="url(#clip950)"
     d="m 285.711,135.01 q -6.319,0 -9.52,6.239 -3.159,6.198 -3.159,18.675 0,12.436 3.159,18.674 3.201,6.198 9.52,6.198 6.36,0 9.52,-6.198 3.2,-6.238 3.2,-18.674 0,-12.477 -3.2,-18.675 -3.16,-6.239 -9.52,-6.239 m 0,-6.481 q 10.168,0 15.515,8.061 5.388,8.021 5.388,23.334 0,15.271 -5.388,23.333 -5.347,8.021 -15.515,8.021 -10.168,0 -15.555,-8.021 -5.348,-8.062 -5.348,-23.333 0,-15.313 5.348,-23.334 5.387,-8.061 15.555,-8.061 z"
     fill="#000000"
     fill-rule="nonzero"
     fill-opacity="1"
     id="path48" />
  <path
     clip-path="url(#clip950)"
     d="m 31.0316,1160.24 v -43.71 h 7.8704 v 34.36 h 20.4628 v -32.92 h 7.8704 v 32.92 h 25.0461 v -35.19 h 7.8707 v 44.54 z"
     fill="#000000"
     fill-rule="nonzero"
     fill-opacity="1"
     id="path49" />
  <path
     clip-path="url(#clip950)"
     d="m 74.2722,1095.61 q 9.3981,0 14.7684,-3.84 5.324,-3.89 5.324,-10.65 0,-6.76 -5.324,-10.65 -5.3703,-3.89 -14.7684,-3.89 -9.3981,0 -14.7222,3.89 -5.3703,3.89 -5.3703,10.65 0,6.76 5.3703,10.65 5.3241,3.84 14.7222,3.84 m 18.1017,-29.03 q 4.6296,2.69 6.8981,6.81 2.222,4.07 2.222,9.81 0,9.4 -7.4997,15.32 -7.5,5.88 -19.7221,5.88 -12.2222,0 -19.7222,-5.88 -7.4999,-5.92 -7.4999,-15.32 0,-5.74 2.2685,-9.81 2.2222,-4.12 6.8518,-6.81 h -7.8703 v -8.52 h 71.5739 v 8.52 z"
     fill="#000000"
     fill-rule="nonzero"
     fill-opacity="1"
     id="path50" />
  <path
     clip-path="url(#clip950)"
     d="M 79.6888,1041.4 H 48.3001 v -8.52 h 31.0646 q 7.3611,0 11.0648,-2.87 3.6574,-2.87 3.6574,-8.61 0,-6.9 -4.3982,-10.88 -4.3981,-4.03 -11.9906,-4.03 h -29.398 v -8.52 h 51.8519 v 8.52 h -7.9633 q 4.7222,3.1 7.037,7.22 2.2683,4.07 2.2683,9.49 0,8.94 -5.5553,13.57 -5.5555,4.63 -16.2499,4.63 m -32.6387,-21.44 z"
     fill="#000000"
     fill-rule="nonzero"
     fill-opacity="1"
     id="path51" />
  <path
     clip-path="url(#clip950)"
     d="m 74.087,956.859 q 0,10.324 2.3611,14.305 2.3611,3.982 8.0555,3.982 4.537,0 7.2222,-2.963 2.6388,-3.009 2.6388,-8.148 0,-7.083 -4.9999,-11.343 -5.0463,-4.305 -13.3796,-4.305 H 74.087 v 8.472 m -3.5185,-16.991 h 29.5835 v 8.519 h -7.8707 q 4.7222,2.916 6.9907,7.268 2.222,4.352 2.222,10.648 0,7.963 -4.4442,12.686 -4.4907,4.675 -11.9907,4.675 -8.7499,0 -13.1943,-5.833 -4.4445,-5.879 -4.4445,-17.5 V 948.387 H 66.587 q -5.8796,0 -9.074,3.889 -3.2407,3.842 -3.2407,10.833 0,4.444 1.0648,8.657 1.0648,4.213 3.1944,8.102 h -7.8703 q -1.8056,-4.676 -2.6852,-9.074 -0.9259,-4.398 -0.9259,-8.565 0,-11.25 5.8333,-16.805 5.8333,-5.556 17.6851,-5.556 z"
     fill="#000000"
     fill-rule="nonzero"
     fill-opacity="1"
     id="path52" />
  <path
     clip-path="url(#clip950)"
     d="M 33.5779,913.896 H 48.3001 V 896.35 h 6.6203 v 17.546 h 28.148 q 6.3426,0 8.1481,-1.713 1.8056,-1.759 1.8056,-7.083 v -8.75 h 7.1299 v 8.75 q 0,9.861 -3.6577,13.611 -3.7037,3.75 -13.4259,3.75 h -28.148 v 6.25 h -6.6203 v -6.25 H 33.5779 Z"
     fill="#000000"
     fill-rule="nonzero"
     fill-opacity="1"
     id="path53" />
  <path
     clip-path="url(#clip950)"
     d="m 48.3001,885.146 v -8.518 h 51.8519 v 8.518 H 48.3001 m -20.1851,0 v -8.518 h 10.787 v 8.518 z"
     fill="#000000"
     fill-rule="nonzero"
     fill-opacity="1"
     id="path54" />
  <path
     clip-path="url(#clip950)"
     d="m 54.2723,838.712 q 0,6.851 5.3703,10.833 5.3241,3.981 14.6296,3.981 9.3055,0 14.6758,-3.935 5.3241,-3.981 5.3241,-10.879 0,-6.806 -5.3704,-10.787 -5.3703,-3.982 -14.6295,-3.982 -9.213,0 -14.5833,3.982 -5.4166,3.981 -5.4166,10.787 m -7.2222,0 q 0,-11.112 7.2222,-17.454 7.2221,-6.343 19.9999,-6.343 12.7314,0 19.9999,6.343 7.2219,6.342 7.2219,17.454 0,11.157 -7.2219,17.499 -7.2685,6.297 -19.9999,6.297 -12.7778,0 -19.9999,-6.297 -7.2222,-6.342 -7.2222,-17.499 z"
     fill="#000000"
     fill-rule="nonzero"
     fill-opacity="1"
     id="path55" />
  <path
     clip-path="url(#clip950)"
     d="m 68.8555,757.693 h 31.2965 v 8.519 H 69.1333 q -7.3611,0 -11.0185,2.87 -3.6574,2.871 -3.6574,8.611 0,6.898 4.3982,10.88 4.3981,3.981 11.9907,3.981 h 29.3057 v 8.565 H 48.3001 v -8.565 h 8.0555 q -4.6759,-3.055 -6.9907,-7.176 -2.3148,-4.166 -2.3148,-9.583 0,-8.935 5.5555,-13.518 5.5092,-4.584 16.2499,-4.584 z"
     fill="#000000"
     fill-rule="nonzero"
     fill-opacity="1"
     id="path56" />
  <path
     clip-path="url(#clip950)"
     d="m 33.5779,702.138 h 14.7222 v -17.546 h 6.6203 v 17.546 h 28.148 q 6.3426,0 8.1481,-1.713 1.8056,-1.759 1.8056,-7.083 v -8.75 h 7.1299 v 8.75 q 0,9.861 -3.6577,13.611 -3.7037,3.75 -13.4259,3.75 h -28.148 v 6.25 h -6.6203 v -6.25 H 33.5779 Z"
     fill="#000000"
     fill-rule="nonzero"
     fill-opacity="1"
     id="path57" />
  <path
     clip-path="url(#clip950)"
     d="m 72.0962,629.037 h 4.1667 v 39.166 q 8.7962,-0.555 13.4258,-5.278 4.5834,-4.768 4.5834,-13.24 0,-4.908 -1.2037,-9.491 -1.2037,-4.63 -3.6111,-9.167 h 8.0555 q 1.9444,4.584 2.9632,9.399 1.018,4.814 1.018,9.768 0,12.407 -7.2219,19.676 -7.2222,7.222 -19.537,7.222 -12.7314,0 -20.1851,-6.852 -7.4999,-6.898 -7.4999,-18.565 0,-10.462 6.7592,-16.527 6.7129,-6.111 18.2869,-6.111 m -2.4999,8.518 q -6.9907,0.093 -11.1574,3.935 -4.1666,3.797 -4.1666,10.093 0,7.129 4.0277,11.435 4.0278,4.259 11.3426,4.907 z"
     fill="#000000"
     fill-rule="nonzero"
     fill-opacity="1"
     id="path58" />
  <path
     clip-path="url(#clip950)"
     d="m 56.263,585.009 q -0.8333,1.435 -1.2037,3.148 -0.4167,1.667 -0.4167,3.704 0,7.222 4.7222,11.111 4.6759,3.843 13.4722,3.843 h 27.315 v 8.564 H 48.3001 v -8.564 h 8.0555 q -4.7222,-2.686 -6.9907,-6.991 -2.3148,-4.306 -2.3148,-10.463 0,-0.88 0.1389,-1.944 0.0926,-1.065 0.324,-2.362 z"
     fill="#000000"
     fill-rule="nonzero"
     fill-opacity="1"
     id="path59" />
  <path
     clip-path="url(#clip950)"
     d="m 58.2537,537.371 q -5.7407,-3.195 -8.4722,-7.639 -2.7314,-4.445 -2.7314,-10.463 0,-8.102 5.6944,-12.5 5.6481,-4.398 16.111,-4.398 h 31.2965 v 8.564 H 69.1333 q -7.4537,0 -11.0648,2.639 -3.6111,2.639 -3.6111,8.056 0,6.62 4.3982,10.463 4.3981,3.842 11.9907,3.842 H 100.152 V 544.5 H 69.1333 q -7.5,0 -11.0648,2.639 -3.6111,2.639 -3.6111,8.148 0,6.528 4.4445,10.37 4.3981,3.843 11.9444,3.843 h 29.3057 v 8.565 H 48.3001 V 569.5 h 8.0555 q -4.7685,-2.917 -7.037,-6.991 -2.2685,-4.074 -2.2685,-9.676 0,-5.648 2.8703,-9.583 2.8704,-3.981 8.3333,-5.879 z"
     fill="#000000"
     fill-rule="nonzero"
     fill-opacity="1"
     id="path60" />
  <path
     clip-path="url(#clip950)"
     d="m 49.8278,452.325 h 8.0556 q -1.8519,3.611 -2.7778,7.5 -0.9259,3.889 -0.9259,8.055 0,6.343 1.9444,9.537 1.9444,3.148 5.8333,3.148 2.963,0 4.6759,-2.268 1.6667,-2.269 3.1944,-9.121 l 0.6482,-2.916 q 1.9444,-9.074 5.5092,-12.871 3.5185,-3.842 9.8611,-3.842 7.2222,0 11.4351,5.741 4.2127,5.694 4.2127,15.694 0,4.167 -0.833,8.704 -0.7871,4.49 -2.4075,9.49 h -8.7962 q 2.4537,-4.722 3.7036,-9.305 1.2037,-4.583 1.2037,-9.074 0,-6.019 -2.037,-9.259 -2.0833,-3.241 -5.8333,-3.241 -3.4722,0 -5.324,2.361 -1.8519,2.315 -3.5648,10.231 l -0.6945,2.963 q -1.6666,7.917 -5.0925,11.435 -3.4722,3.519 -9.4907,3.519 -7.3148,0 -11.2963,-5.185 -3.9814,-5.185 -3.9814,-14.722 0,-4.723 0.6944,-8.889 0.6945,-4.167 2.0833,-7.685 z"
     fill="#000000"
     fill-rule="nonzero"
     fill-opacity="1"
     id="path61" />
  <polyline
     clip-path="url(#clip952)"
     style="fill:none;stroke:#0000ff;stroke-width:4;stroke-linecap:round;stroke-linejoin:round;stroke-opacity:1"
     points="407.091,1519.65 1056.84,1310.46 1706.6,857.192 2356.35,90.1298 "
     id="polyline61" />
  <circle
     clip-path="url(#clip952)"
     cx="407.091"
     cy="1519.65"
     r="18"
     fill="#0000ff"
     fill-rule="evenodd"
     fill-opacity="1"
     stroke="#000000"
     stroke-opacity="1"
     stroke-width="3.6"
     id="circle61" />
  <circle
     clip-path="url(#clip952)"
     cx="1056.84"
     cy="1310.46"
     r="18"
     fill="#0000ff"
     fill-rule="evenodd"
     fill-opacity="1"
     stroke="#000000"
     stroke-opacity="1"
     stroke-width="3.6"
     id="circle62" />
  <circle
     clip-path="url(#clip952)"
     cx="1706.6"
     cy="857.19202"
     r="18"
     fill="#0000ff"
     fill-rule="evenodd"
     fill-opacity="1"
     stroke="#000000"
     stroke-opacity="1"
     stroke-width="3.6"
     id="circle63" />
  <circle
     clip-path="url(#clip952)"
     cx="2356.3501"
     cy="90.129799"
     r="18"
     fill="#0000ff"
     fill-rule="evenodd"
     fill-opacity="1"
     stroke="#000000"
     stroke-opacity="1"
     stroke-width="3.6"
     id="circle64" />
  <polyline
     clip-path="url(#clip952)"
     style="fill:none;stroke:#000000;stroke-width:2;stroke-linecap:round;stroke-linejoin:round;stroke-opacity:0.1"
     points="348.614,1513.85 2414.83,1513.85 "
     id="polyline64" />
  <polyline
     clip-path="url(#clip952)"
     style="fill:none;stroke:#000000;stroke-width:2;stroke-linecap:round;stroke-linejoin:round;stroke-opacity:0.1"
     points="348.614,1288.21 2414.83,1288.21 "
     id="polyline65" />
  <polyline
     clip-path="url(#clip952)"
     style="fill:none;stroke:#000000;stroke-width:2;stroke-linecap:round;stroke-linejoin:round;stroke-opacity:0.1"
     points="348.614,1062.58 2414.83,1062.58 "
     id="polyline66" />
  <polyline
     clip-path="url(#clip952)"
     style="fill:none;stroke:#000000;stroke-width:2;stroke-linecap:round;stroke-linejoin:round;stroke-opacity:0.1"
     points="348.614,836.946 2414.83,836.946 "
     id="polyline67" />
  <polyline
     clip-path="url(#clip952)"
     style="fill:none;stroke:#000000;stroke-width:2;stroke-linecap:round;stroke-linejoin:round;stroke-opacity:0.1"
     points="348.614,611.312 2414.83,611.312 "
     id="polyline68" />
  <polyline
     clip-path="url(#clip952)"
     style="fill:none;stroke:#000000;stroke-width:2;stroke-linecap:round;stroke-linejoin:round;stroke-opacity:0.1"
     points="348.614,385.679 2414.83,385.679 "
     id="polyline69" />
  <polyline
     clip-path="url(#clip952)"
     style="fill:none;stroke:#000000;stroke-width:2;stroke-linecap:round;stroke-linejoin:round;stroke-opacity:0.1"
     points="348.614,160.046 2414.83,160.046 "
     id="polyline70" />
  <polyline
     clip-path="url(#clip950)"
     style="fill:none;stroke:#000000;stroke-width:4;stroke-linecap:round;stroke-linejoin:round;stroke-opacity:1"
     points="2414.83,1562.54 2414.83,47.2441 "
     id="polyline71" />
  <polyline
     clip-path="url(#clip950)"
     style="fill:none;stroke:#000000;stroke-width:4;stroke-linecap:round;stroke-linejoin:round;stroke-opacity:1"
     points="2414.83,1513.85 2395.93,1513.85 "
     id="polyline72" />
  <polyline
     clip-path="url(#clip950)"
     style="fill:none;stroke:#000000;stroke-width:4;stroke-linecap:round;stroke-linejoin:round;stroke-opacity:1"
     points="2414.83,1288.21 2395.93,1288.21 "
     id="polyline73" />
  <polyline
     clip-path="url(#clip950)"
     style="fill:none;stroke:#000000;stroke-width:4;stroke-linecap:round;stroke-linejoin:round;stroke-opacity:1"
     points="2414.83,1062.58 2395.93,1062.58 "
     id="polyline74" />
  <polyline
     clip-path="url(#clip950)"
     style="fill:none;stroke:#000000;stroke-width:4;stroke-linecap:round;stroke-linejoin:round;stroke-opacity:1"
     points="2414.83,836.946 2395.93,836.946 "
     id="polyline75" />
  <polyline
     clip-path="url(#clip950)"
     style="fill:none;stroke:#000000;stroke-width:4;stroke-linecap:round;stroke-linejoin:round;stroke-opacity:1"
     points="2414.83,611.312 2395.93,611.312 "
     id="polyline76" />
  <polyline
     clip-path="url(#clip950)"
     style="fill:none;stroke:#000000;stroke-width:4;stroke-linecap:round;stroke-linejoin:round;stroke-opacity:1"
     points="2414.83,385.679 2395.93,385.679 "
     id="polyline77" />
  <polyline
     clip-path="url(#clip950)"
     style="fill:none;stroke:#000000;stroke-width:4;stroke-linecap:round;stroke-linejoin:round;stroke-opacity:1"
     points="2414.83,160.046 2395.93,160.046 "
     id="polyline78" />
  <path
     clip-path="url(#clip950)"
     d="m 2458,1537.2 h 13.37 v -46.14 l -14.54,2.92 v -7.46 l 14.46,-2.91 h 8.18 v 53.59 h 13.37 v 6.89 H 2458 Z"
     fill="#000000"
     fill-rule="nonzero"
     fill-opacity="1"
     id="path78" />
  <path
     clip-path="url(#clip950)"
     d="m 2509.45,1483.61 h 32.12 v 6.88 h -24.63 v 14.83 q 1.78,-0.61 3.57,-0.89 1.78,-0.33 3.56,-0.33 10.13,0 16.04,5.55 5.92,5.55 5.92,15.03 0,9.76 -6.08,15.19 -6.08,5.39 -17.13,5.39 -3.81,0 -7.78,-0.65 -3.93,-0.65 -8.14,-1.94 v -8.23 q 3.64,1.99 7.53,2.96 3.89,0.97 8.22,0.97 7.01,0 11.1,-3.68 4.09,-3.69 4.09,-10.01 0,-6.32 -4.09,-10 -4.09,-3.69 -11.1,-3.69 -3.28,0 -6.56,0.73 -3.24,0.73 -6.64,2.27 z"
     fill="#000000"
     fill-rule="nonzero"
     fill-opacity="1"
     id="path79" />
  <path
     clip-path="url(#clip950)"
     d="m 2579.65,1488.99 q -6.32,0 -9.52,6.24 -3.16,6.2 -3.16,18.68 0,12.43 3.16,18.67 3.2,6.2 9.52,6.2 6.36,0 9.52,-6.2 3.2,-6.24 3.2,-18.67 0,-12.48 -3.2,-18.68 -3.16,-6.24 -9.52,-6.24 m 0,-6.48 q 10.17,0 15.51,8.06 5.39,8.02 5.39,23.34 0,15.27 -5.39,23.33 -5.34,8.02 -15.51,8.02 -10.17,0 -15.56,-8.02 -5.34,-8.06 -5.34,-23.33 0,-15.32 5.34,-23.34 5.39,-8.06 15.56,-8.06 z"
     fill="#000000"
     fill-rule="nonzero"
     fill-opacity="1"
     id="path80" />
  <path
     clip-path="url(#clip950)"
     d="m 2466.67,1311.57 h 28.56 v 6.88 h -38.4 v -6.88 q 4.66,-4.82 12.68,-12.93 8.06,-8.14 10.12,-10.49 3.93,-4.41 5.47,-7.45 1.58,-3.08 1.58,-6.04 0,-4.82 -3.4,-7.86 -3.36,-3.04 -8.79,-3.04 -3.85,0 -8.14,1.34 -4.26,1.34 -9.12,4.05 v -8.26 q 4.94,-1.99 9.24,-3 4.29,-1.01 7.86,-1.01 9.39,0 14.98,4.7 5.6,4.7 5.6,12.56 0,3.72 -1.42,7.08 -1.38,3.33 -5.07,7.86 -1.01,1.18 -6.44,6.81 -5.43,5.59 -15.31,15.68 z"
     fill="#000000"
     fill-rule="nonzero"
     fill-opacity="1"
     id="path81" />
  <path
     clip-path="url(#clip950)"
     d="m 2529.9,1263.36 q -6.31,0 -9.51,6.24 -3.16,6.2 -3.16,18.67 0,12.44 3.16,18.68 3.2,6.2 9.51,6.2 6.36,0 9.52,-6.2 3.2,-6.24 3.2,-18.68 0,-12.47 -3.2,-18.67 -3.16,-6.24 -9.52,-6.24 m 0,-6.48 q 10.17,0 15.52,8.06 5.39,8.02 5.39,23.33 0,15.27 -5.39,23.34 -5.35,8.02 -15.52,8.02 -10.16,0 -15.55,-8.02 -5.35,-8.07 -5.35,-23.34 0,-15.31 5.35,-23.33 5.39,-8.06 15.55,-8.06 z"
     fill="#000000"
     fill-rule="nonzero"
     fill-opacity="1"
     id="path82" />
  <path
     clip-path="url(#clip950)"
     d="m 2582.69,1263.36 q -6.32,0 -9.52,6.24 -3.16,6.2 -3.16,18.67 0,12.44 3.16,18.68 3.2,6.2 9.52,6.2 6.36,0 9.52,-6.2 3.2,-6.24 3.2,-18.68 0,-12.47 -3.2,-18.67 -3.16,-6.24 -9.52,-6.24 m 0,-6.48 q 10.17,0 15.51,8.06 5.39,8.02 5.39,23.33 0,15.27 -5.39,23.34 -5.34,8.02 -15.51,8.02 -10.17,0 -15.56,-8.02 -5.34,-8.07 -5.34,-23.34 0,-15.31 5.34,-23.33 5.39,-8.06 15.56,-8.06 z"
     fill="#000000"
     fill-rule="nonzero"
     fill-opacity="1"
     id="path83" />
  <path
     clip-path="url(#clip950)"
     d="m 2466.67,1085.93 h 28.56 v 6.89 h -38.4 v -6.89 q 4.66,-4.82 12.68,-12.92 8.06,-8.14 10.12,-10.49 3.93,-4.42 5.47,-7.46 1.58,-3.07 1.58,-6.03 0,-4.82 -3.4,-7.86 -3.36,-3.04 -8.79,-3.04 -3.85,0 -8.14,1.34 -4.26,1.34 -9.12,4.05 v -8.26 q 4.94,-1.99 9.24,-3 4.29,-1.01 7.86,-1.01 9.39,0 14.98,4.69 5.6,4.7 5.6,12.56 0,3.73 -1.42,7.09 -1.38,3.32 -5.07,7.86 -1.01,1.17 -6.44,6.81 -5.43,5.59 -15.31,15.67 z"
     fill="#000000"
     fill-rule="nonzero"
     fill-opacity="1"
     id="path84" />
  <path
     clip-path="url(#clip950)"
     d="m 2512.49,1032.34 h 32.12 v 6.89 h -24.63 v 14.82 q 1.78,-0.61 3.56,-0.89 1.79,-0.32 3.57,-0.32 10.13,0 16.04,5.55 5.92,5.55 5.92,15.03 0,9.76 -6.08,15.19 -6.08,5.38 -17.14,5.38 -3.8,0 -7.77,-0.64 -3.93,-0.65 -8.15,-1.95 v -8.22 q 3.65,1.98 7.54,2.95 3.89,0.98 8.22,0.98 7.01,0 11.1,-3.69 4.09,-3.69 4.09,-10 0,-6.32 -4.09,-10.01 -4.09,-3.69 -11.1,-3.69 -3.28,0 -6.56,0.73 -3.24,0.73 -6.64,2.27 z"
     fill="#000000"
     fill-rule="nonzero"
     fill-opacity="1"
     id="path85" />
  <path
     clip-path="url(#clip950)"
     d="m 2582.69,1037.73 q -6.32,0 -9.52,6.24 -3.16,6.19 -3.16,18.67 0,12.44 3.16,18.67 3.2,6.2 9.52,6.2 6.36,0 9.52,-6.2 3.2,-6.23 3.2,-18.67 0,-12.48 -3.2,-18.67 -3.16,-6.24 -9.52,-6.24 m 0,-6.48 q 10.17,0 15.51,8.06 5.39,8.02 5.39,23.33 0,15.27 -5.39,23.33 -5.34,8.02 -15.51,8.02 -10.17,0 -15.56,-8.02 -5.34,-8.06 -5.34,-23.33 0,-15.31 5.34,-23.33 5.39,-8.06 15.56,-8.06 z"
     fill="#000000"
     fill-rule="nonzero"
     fill-opacity="1"
     id="path86" />
  <path
     clip-path="url(#clip950)"
     d="m 2484.17,834.576 q 5.87,1.256 9.16,5.226 3.32,3.969 3.32,9.803 0,8.952 -6.16,13.854 -6.16,4.901 -17.5,4.901 -3.81,0 -7.86,-0.769 -4.01,-0.729 -8.3,-2.228 v -7.899 q 3.4,1.984 7.45,2.997 4.05,1.013 8.47,1.013 7.69,0 11.7,-3.038 4.05,-3.038 4.05,-8.831 0,-5.347 -3.76,-8.345 -3.73,-3.038 -10.41,-3.038 h -7.05 v -6.725 h 7.37 q 6.04,0 9.24,-2.39 3.2,-2.43 3.2,-6.967 0,-4.659 -3.32,-7.13 -3.29,-2.512 -9.44,-2.512 -3.37,0 -7.21,0.73 -3.85,0.729 -8.47,2.268 v -7.291 q 4.66,-1.297 8.71,-1.945 4.09,-0.648 7.7,-0.648 9.31,0 14.74,4.253 5.43,4.213 5.43,11.424 0,5.023 -2.88,8.507 -2.87,3.443 -8.18,4.78 z"
     fill="#000000"
     fill-rule="nonzero"
     fill-opacity="1"
     id="path87" />
  <path
     clip-path="url(#clip950)"
     d="m 2529.66,812.093 q -6.32,0 -9.52,6.239 -3.16,6.198 -3.16,18.674 0,12.437 3.16,18.675 3.2,6.198 9.52,6.198 6.36,0 9.52,-6.198 3.2,-6.238 3.2,-18.675 0,-12.476 -3.2,-18.674 -3.16,-6.239 -9.52,-6.239 m 0,-6.481 q 10.17,0 15.52,8.061 5.38,8.021 5.38,23.333 0,15.272 -5.38,23.334 -5.35,8.02 -15.52,8.02 -10.17,0 -15.55,-8.02 -5.35,-8.062 -5.35,-23.334 0,-15.312 5.35,-23.333 5.38,-8.061 15.55,-8.061 z"
     fill="#000000"
     fill-rule="nonzero"
     fill-opacity="1"
     id="path88" />
  <path
     clip-path="url(#clip950)"
     d="m 2582.45,812.093 q -6.32,0 -9.52,6.239 -3.16,6.198 -3.16,18.674 0,12.437 3.16,18.675 3.2,6.198 9.52,6.198 6.36,0 9.51,-6.198 3.2,-6.238 3.2,-18.675 0,-12.476 -3.2,-18.674 -3.15,-6.239 -9.51,-6.239 m 0,-6.481 q 10.16,0 15.51,8.061 5.39,8.021 5.39,23.333 0,15.272 -5.39,23.334 -5.35,8.02 -15.51,8.02 -10.17,0 -15.56,-8.02 -5.35,-8.062 -5.35,-23.334 0,-15.312 5.35,-23.333 5.39,-8.061 15.56,-8.061 z"
     fill="#000000"
     fill-rule="nonzero"
     fill-opacity="1"
     id="path89" />
  <path
     clip-path="url(#clip950)"
     d="m 2484.17,608.943 q 5.87,1.255 9.16,5.225 3.32,3.97 3.32,9.804 0,8.952 -6.16,13.854 -6.16,4.901 -17.5,4.901 -3.81,0 -7.86,-0.769 -4.01,-0.73 -8.3,-2.228 v -7.9 q 3.4,1.985 7.45,2.998 4.05,1.013 8.47,1.013 7.69,0 11.7,-3.038 4.05,-3.039 4.05,-8.831 0,-5.348 -3.76,-8.345 -3.73,-3.038 -10.41,-3.038 h -7.05 v -6.725 h 7.37 q 6.04,0 9.24,-2.39 3.2,-2.431 3.2,-6.968 0,-4.658 -3.32,-7.129 -3.29,-2.512 -9.44,-2.512 -3.37,0 -7.21,0.729 -3.85,0.73 -8.47,2.269 v -7.292 q 4.66,-1.296 8.71,-1.944 4.09,-0.648 7.7,-0.648 9.31,0 14.74,4.253 5.43,4.213 5.43,11.424 0,5.023 -2.88,8.507 -2.87,3.443 -8.18,4.78 z"
     fill="#000000"
     fill-rule="nonzero"
     fill-opacity="1"
     id="path90" />
  <path
     clip-path="url(#clip950)"
     d="m 2512.24,581.072 h 32.13 v 6.887 h -24.63 v 14.826 q 1.78,-0.607 3.56,-0.891 1.78,-0.324 3.57,-0.324 10.12,0 16.04,5.55 5.91,5.55 5.91,15.029 0,9.762 -6.07,15.191 -6.08,5.387 -17.14,5.387 -3.81,0 -7.78,-0.648 -3.93,-0.648 -8.14,-1.944 v -8.224 q 3.65,1.985 7.54,2.957 3.88,0.973 8.22,0.973 7.01,0 11.1,-3.687 4.09,-3.686 4.09,-10.005 0,-6.32 -4.09,-10.006 -4.09,-3.686 -11.1,-3.686 -3.28,0 -6.56,0.729 -3.24,0.729 -6.65,2.268 z"
     fill="#000000"
     fill-rule="nonzero"
     fill-opacity="1"
     id="path91" />
  <path
     clip-path="url(#clip950)"
     d="m 2582.45,586.46 q -6.32,0 -9.52,6.239 -3.16,6.197 -3.16,18.674 0,12.437 3.16,18.675 3.2,6.198 9.52,6.198 6.36,0 9.51,-6.198 3.2,-6.238 3.2,-18.675 0,-12.477 -3.2,-18.674 -3.15,-6.239 -9.51,-6.239 m 0,-6.481 q 10.16,0 15.51,8.061 5.39,8.021 5.39,23.333 0,15.272 -5.39,23.333 -5.35,8.021 -15.51,8.021 -10.17,0 -15.56,-8.021 -5.35,-8.061 -5.35,-23.333 0,-15.312 5.35,-23.333 5.39,-8.061 15.56,-8.061 z"
     fill="#000000"
     fill-rule="nonzero"
     fill-opacity="1"
     id="path92" />
  <path
     clip-path="url(#clip950)"
     d="m 2484.13,362.569 -20.66,32.286 h 20.66 v -32.286 m -2.15,-7.13 h 10.29 v 39.416 h 8.63 v 6.805 h -8.63 v 14.259 h -8.14 V 401.66 h -27.3 v -7.899 z"
     fill="#000000"
     fill-rule="nonzero"
     fill-opacity="1"
     id="path93" />
  <path
     clip-path="url(#clip950)"
     d="m 2531.93,360.827 q -6.32,0 -9.52,6.238 -3.16,6.198 -3.16,18.675 0,12.436 3.16,18.675 3.2,6.198 9.52,6.198 6.36,0 9.52,-6.198 3.2,-6.239 3.2,-18.675 0,-12.477 -3.2,-18.675 -3.16,-6.238 -9.52,-6.238 m 0,-6.481 q 10.17,0 15.52,8.061 5.38,8.021 5.38,23.333 0,15.272 -5.38,23.333 -5.35,8.021 -15.52,8.021 -10.17,0 -15.56,-8.021 -5.34,-8.061 -5.34,-23.333 0,-15.312 5.34,-23.333 5.39,-8.061 15.56,-8.061 z"
     fill="#000000"
     fill-rule="nonzero"
     fill-opacity="1"
     id="path94" />
  <path
     clip-path="url(#clip950)"
     d="m 2584.71,360.827 q -6.32,0 -9.52,6.238 -3.16,6.198 -3.16,18.675 0,12.436 3.16,18.675 3.2,6.198 9.52,6.198 6.36,0 9.52,-6.198 3.2,-6.239 3.2,-18.675 0,-12.477 -3.2,-18.675 -3.16,-6.238 -9.52,-6.238 m 0,-6.481 q 10.17,0 15.52,8.061 5.39,8.021 5.39,23.333 0,15.272 -5.39,23.333 -5.35,8.021 -15.52,8.021 -10.16,0 -15.55,-8.021 -5.35,-8.061 -5.35,-23.333 0,-15.312 5.35,-23.333 5.39,-8.061 15.55,-8.061 z"
     fill="#000000"
     fill-rule="nonzero"
     fill-opacity="1"
     id="path95" />
  <path
     clip-path="url(#clip950)"
     d="m 2484.13,136.936 -20.66,32.285 h 20.66 v -32.285 m -2.15,-7.13 h 10.29 v 39.415 h 8.63 v 6.806 h -8.63 v 14.259 h -8.14 v -14.259 h -27.3 v -7.899 z"
     fill="#000000"
     fill-rule="nonzero"
     fill-opacity="1"
     id="path96" />
  <path
     clip-path="url(#clip950)"
     d="m 2514.51,129.806 h 32.13 v 6.887 h -24.63 v 14.826 q 1.78,-0.608 3.56,-0.891 1.78,-0.324 3.57,-0.324 10.12,0 16.04,5.549 5.91,5.55 5.91,15.029 0,9.763 -6.08,15.191 -6.07,5.388 -17.13,5.388 -3.81,0 -7.78,-0.648 -3.93,-0.648 -8.14,-1.945 v -8.223 q 3.65,1.985 7.53,2.957 3.89,0.972 8.23,0.972 7.01,0 11.1,-3.686 4.09,-3.686 4.09,-10.006 0,-6.319 -4.09,-10.006 -4.09,-3.686 -11.1,-3.686 -3.28,0 -6.57,0.729 -3.24,0.729 -6.64,2.269 z"
     fill="#000000"
     fill-rule="nonzero"
     fill-opacity="1"
     id="path97" />
  <path
     clip-path="url(#clip950)"
     d="m 2584.71,135.194 q -6.32,0 -9.52,6.238 -3.16,6.198 -3.16,18.675 0,12.436 3.16,18.674 3.2,6.198 9.52,6.198 6.36,0 9.52,-6.198 3.2,-6.238 3.2,-18.674 0,-12.477 -3.2,-18.675 -3.16,-6.238 -9.52,-6.238 m 0,-6.482 q 10.17,0 15.52,8.062 5.39,8.02 5.39,23.333 0,15.272 -5.39,23.333 -5.35,8.021 -15.52,8.021 -10.16,0 -15.55,-8.021 -5.35,-8.061 -5.35,-23.333 0,-15.313 5.35,-23.333 5.39,-8.062 15.55,-8.062 z"
     fill="#000000"
     fill-rule="nonzero"
     fill-opacity="1"
     id="path98" />
  <path
     clip-path="url(#clip950)"
     d="m 2661.44,1308.57 v -9.35 h 69.12 v 9.35 z"
     fill="#000000"
     fill-rule="nonzero"
     fill-opacity="1"
     id="path99" />
  <path
     clip-path="url(#clip950)"
     d="m 2699.26,1237.88 h 31.3 v 8.51 h -31.02 q -7.36,0 -11.02,2.87 -3.65,2.88 -3.65,8.62 0,6.89 4.39,10.88 4.4,3.98 11.99,3.98 h 29.31 v 8.56 h -51.85 v -8.56 h 8.05 q -4.67,-3.06 -6.99,-7.18 -2.31,-4.17 -2.31,-9.58 0,-8.94 5.55,-13.52 5.51,-4.58 16.25,-4.58 z"
     fill="#000000"
     fill-rule="nonzero"
     fill-opacity="1"
     id="path100" />
  <path
     clip-path="url(#clip950)"
     d="m 2663.99,1212.46 h 14.72 v -17.55 h 6.62 v 17.55 h 28.15 q 6.34,0 8.15,-1.71 1.8,-1.76 1.8,-7.09 v -8.75 h 7.13 v 8.75 q 0,9.86 -3.66,13.61 -3.7,3.75 -13.42,3.75 h -28.15 v 6.25 h -6.62 v -6.25 h -14.72 z"
     fill="#000000"
     fill-rule="nonzero"
     fill-opacity="1"
     id="path101" />
  <path
     clip-path="url(#clip950)"
     d="m 2702.5,1139.36 h 4.17 v 39.16 q 8.8,-0.55 13.43,-5.27 4.58,-4.77 4.58,-13.24 0,-4.91 -1.2,-9.49 -1.21,-4.63 -3.61,-9.17 h 8.05 q 1.95,4.58 2.96,9.4 1.02,4.81 1.02,9.77 0,12.4 -7.22,19.67 -7.22,7.22 -19.54,7.22 -12.73,0 -20.18,-6.85 -7.5,-6.9 -7.5,-18.56 0,-10.47 6.76,-16.53 6.71,-6.11 18.28,-6.11 m -2.5,8.52 q -6.99,0.09 -11.15,3.93 -4.17,3.8 -4.17,10.09 0,7.13 4.03,11.44 4.03,4.26 11.34,4.91 z"
     fill="#000000"
     fill-rule="nonzero"
     fill-opacity="1"
     id="path102" />
  <path
     clip-path="url(#clip950)"
     d="m 2704.03,1091.26 q -9.26,0 -14.35,3.84 -5.09,3.8 -5.09,10.69 0,6.86 5.09,10.7 5.09,3.79 14.35,3.79 9.22,0 14.31,-3.79 5.09,-3.84 5.09,-10.7 0,-6.89 -5.09,-10.69 -5.09,-3.84 -14.31,-3.84 m 20.1,-8.52 q 13.24,0 19.67,5.88 6.48,5.88 6.48,18.01 0,4.49 -0.69,8.47 -0.65,3.98 -2.04,7.73 h -8.29 q 2.04,-3.75 3.01,-7.41 0.98,-3.65 0.98,-7.45 0,-8.38 -4.4,-12.55 -4.35,-4.16 -13.2,-4.16 h -4.21 q 4.58,2.64 6.85,6.76 2.27,4.12 2.27,9.86 0,9.53 -7.27,15.37 -7.27,5.83 -19.26,5.83 -12.03,0 -19.3,-5.83 -7.27,-5.84 -7.27,-15.37 0,-5.74 2.27,-9.86 2.27,-4.12 6.85,-6.76 h -7.87 v -8.52 z"
     fill="#000000"
     fill-rule="nonzero"
     fill-opacity="1"
     id="path103" />
  <path
     clip-path="url(#clip950)"
     d="m 2686.67,1035.15 q -0.83,1.43 -1.2,3.14 -0.42,1.67 -0.42,3.71 0,7.22 4.72,11.11 4.68,3.84 13.48,3.84 h 27.31 v 8.57 h -51.85 v -8.57 h 8.05 q -4.72,-2.68 -6.99,-6.99 -2.31,-4.31 -2.31,-10.46 0,-0.88 0.14,-1.95 0.09,-1.06 0.32,-2.36 z"
     fill="#000000"
     fill-rule="nonzero"
     fill-opacity="1"
     id="path104" />
  <path
     clip-path="url(#clip950)"
     d="m 2704.5,1002.65 q 0,10.32 2.36,14.3 2.36,3.98 8.05,3.98 4.54,0 7.22,-2.96 2.64,-3.01 2.64,-8.15 0,-7.08 -5,-11.341 -5.04,-4.305 -13.38,-4.305 h -1.89 v 8.476 m -3.52,-16.995 h 29.58 v 8.519 h -7.87 q 4.72,2.916 6.99,7.266 2.22,4.35 2.22,10.65 0,7.96 -4.44,12.69 -4.49,4.67 -11.99,4.67 -8.75,0 -13.2,-5.83 -4.44,-5.88 -4.44,-17.5 V 994.174 H 2697 q -5.88,0 -9.08,3.888 -3.24,3.848 -3.24,10.838 0,4.44 1.07,8.65 1.06,4.22 3.19,8.1 h -7.87 q -1.81,-4.67 -2.69,-9.07 -0.92,-4.4 -0.92,-8.56 0,-11.254 5.83,-16.809 5.84,-5.556 17.69,-5.556 z"
     fill="#000000"
     fill-rule="nonzero"
     fill-opacity="1"
     id="path105" />
  <path
     clip-path="url(#clip950)"
     d="m 2663.99,959.683 h 14.72 v -17.546 h 6.62 v 17.546 h 28.15 q 6.34,0 8.15,-1.713 1.8,-1.759 1.8,-7.083 v -8.75 h 7.13 v 8.75 q 0,9.861 -3.66,13.611 -3.7,3.75 -13.42,3.75 h -28.15 v 6.25 h -6.62 v -6.25 h -14.72 z"
     fill="#000000"
     fill-rule="nonzero"
     fill-opacity="1"
     id="path106" />
  <path
     clip-path="url(#clip950)"
     d="m 2678.71,930.933 v -8.518 h 51.85 v 8.518 h -51.85 m -20.19,0 v -8.518 h 10.79 v 8.518 z"
     fill="#000000"
     fill-rule="nonzero"
     fill-opacity="1"
     id="path107" />
  <path
     clip-path="url(#clip950)"
     d="m 2684.68,884.498 q 0,6.852 5.37,10.834 5.33,3.981 14.63,3.981 9.31,0 14.68,-3.935 5.32,-3.982 5.32,-10.88 0,-6.805 -5.37,-10.787 -5.37,-3.981 -14.63,-3.981 -9.21,0 -14.58,3.981 -5.42,3.982 -5.42,10.787 m -7.22,0 q 0,-11.111 7.22,-17.453 7.22,-6.343 20,-6.343 12.73,0 20,6.343 7.22,6.342 7.22,17.453 0,11.158 -7.22,17.5 -7.27,6.296 -20,6.296 -12.78,0 -20,-6.296 -7.22,-6.342 -7.22,-17.5 z"
     fill="#000000"
     fill-rule="nonzero"
     fill-opacity="1"
     id="path108" />
  <path
     clip-path="url(#clip950)"
     d="m 2699.26,803.48 h 31.3 v 8.519 h -31.02 q -7.36,0 -11.02,2.87 -3.65,2.87 -3.65,8.611 0,6.898 4.39,10.88 4.4,3.981 11.99,3.981 h 29.31 v 8.565 h -51.85 v -8.565 h 8.05 q -4.67,-3.055 -6.99,-7.176 -2.31,-4.166 -2.31,-9.583 0,-8.935 5.55,-13.518 5.51,-4.584 16.25,-4.584 z"
     fill="#000000"
     fill-rule="nonzero"
     fill-opacity="1"
     id="path109" />
  <path
     clip-path="url(#clip950)"
     d="m 2663.99,747.925 h 14.72 v -17.546 h 6.62 v 17.546 h 28.15 q 6.34,0 8.15,-1.713 1.8,-1.759 1.8,-7.083 v -8.75 h 7.13 v 8.75 q 0,9.861 -3.66,13.611 -3.7,3.75 -13.42,3.75 h -28.15 v 6.25 h -6.62 v -6.25 h -14.72 z"
     fill="#000000"
     fill-rule="nonzero"
     fill-opacity="1"
     id="path110" />
  <path
     clip-path="url(#clip950)"
     d="m 2678.71,719.175 v -8.518 h 51.85 v 8.518 h -51.85 m -20.19,0 v -8.518 h 10.79 v 8.518 z"
     fill="#000000"
     fill-rule="nonzero"
     fill-opacity="1"
     id="path111" />
  <path
     clip-path="url(#clip950)"
     d="m 2688.66,652.462 q -5.74,-3.194 -8.47,-7.638 -2.73,-4.445 -2.73,-10.463 0,-8.102 5.69,-12.5 5.65,-4.398 16.11,-4.398 h 31.3 v 8.564 h -31.02 q -7.45,0 -11.06,2.639 -3.61,2.639 -3.61,8.056 0,6.62 4.39,10.463 4.4,3.842 11.99,3.842 h 29.31 v 8.565 h -31.02 q -7.5,0 -11.06,2.639 -3.61,2.639 -3.61,8.148 0,6.528 4.44,10.37 4.4,3.843 11.94,3.843 h 29.31 v 8.565 h -51.85 v -8.565 h 8.05 q -4.76,-2.917 -7.03,-6.991 -2.27,-4.074 -2.27,-9.676 0,-5.648 2.87,-9.583 2.87,-3.981 8.33,-5.88 z"
     fill="#000000"
     fill-rule="nonzero"
     fill-opacity="1"
     id="path112" />
  <path
     clip-path="url(#clip950)"
     d="m 2702.5,556.12 h 4.17 v 39.167 q 8.8,-0.556 13.43,-5.278 4.58,-4.768 4.58,-13.241 0,-4.907 -1.2,-9.49 -1.21,-4.63 -3.61,-9.167 h 8.05 q 1.95,4.583 2.96,9.398 1.02,4.815 1.02,9.769 0,12.407 -7.22,19.676 -7.22,7.222 -19.54,7.222 -12.73,0 -20.18,-6.852 -7.5,-6.898 -7.5,-18.565 0,-10.463 6.76,-16.527 6.71,-6.112 18.28,-6.112 m -2.5,8.519 q -6.99,0.092 -11.15,3.935 -4.17,3.796 -4.17,10.093 0,7.129 4.03,11.435 4.03,4.259 11.34,4.907 z"
     fill="#000000"
     fill-rule="nonzero"
     fill-opacity="1"
     id="path113" />
  <path
     clip-path="url(#clip950)"
     d="m 2680.24,509.084 h 8.05 q -1.85,3.611 -2.78,7.5 -0.92,3.888 -0.92,8.055 0,6.343 1.94,9.537 1.95,3.148 5.84,3.148 2.96,0 4.67,-2.268 1.67,-2.269 3.2,-9.121 l 0.64,-2.916 q 1.95,-9.074 5.51,-12.871 3.52,-3.842 9.86,-3.842 7.23,0 11.44,5.741 4.21,5.694 4.21,15.694 0,4.167 -0.83,8.704 -0.79,4.49 -2.41,9.49 h -8.79 q 2.45,-4.722 3.7,-9.305 1.2,-4.584 1.2,-9.074 0,-6.019 -2.03,-9.259 -2.09,-3.241 -5.84,-3.241 -3.47,0 -5.32,2.361 -1.85,2.315 -3.57,10.231 l -0.69,2.963 q -1.67,7.917 -5.09,11.435 -3.48,3.519 -9.49,3.519 -7.32,0 -11.3,-5.185 -3.98,-5.185 -3.98,-14.722 0,-4.723 0.69,-8.889 0.7,-4.167 2.09,-7.685 z"
     fill="#000000"
     fill-rule="nonzero"
     fill-opacity="1"
     id="path114" />
  <path
     clip-path="url(#clip950)"
     d="m 2663.99,484.315 h 14.72 v -17.546 h 6.62 v 17.546 h 28.15 q 6.34,0 8.15,-1.713 1.8,-1.759 1.8,-7.083 v -8.75 h 7.13 v 8.75 q 0,9.861 -3.66,13.611 -3.7,3.75 -13.42,3.75 h -28.15 v 6.25 h -6.62 v -6.25 h -14.72 z"
     fill="#000000"
     fill-rule="nonzero"
     fill-opacity="1"
     id="path115" />
  <path
     clip-path="url(#clip950)"
     d="m 2702.5,411.214 h 4.17 v 39.166 q 8.8,-0.555 13.43,-5.278 4.58,-4.768 4.58,-13.24 0,-4.908 -1.2,-9.491 -1.21,-4.629 -3.61,-9.166 h 8.05 q 1.95,4.583 2.96,9.398 1.02,4.814 1.02,9.768 0,12.407 -7.22,19.676 -7.22,7.222 -19.54,7.222 -12.73,0 -20.18,-6.852 -7.5,-6.898 -7.5,-18.564 0,-10.463 6.76,-16.528 6.71,-6.111 18.28,-6.111 m -2.5,8.518 q -6.99,0.093 -11.15,3.935 -4.17,3.797 -4.17,10.093 0,7.13 4.03,11.435 4.03,4.259 11.34,4.907 z"
     fill="#000000"
     fill-rule="nonzero"
     fill-opacity="1"
     id="path116" />
  <path
     clip-path="url(#clip950)"
     d="m 2722.78,388.992 h 27.5 v 8.564 h -71.57 v -8.564 h 7.87 q -4.63,-2.685 -6.85,-6.76 -2.27,-4.12 -2.27,-9.814 0,-9.445 7.5,-15.324 7.5,-5.926 19.72,-5.926 12.22,0 19.72,5.926 7.5,5.879 7.5,15.324 0,5.694 -2.22,9.814 -2.27,4.075 -6.9,6.76 m -18.1,-28.982 q -9.4,0 -14.72,3.889 -5.37,3.843 -5.37,10.602 0,6.759 5.37,10.648 5.32,3.843 14.72,3.843 9.4,0 14.77,-3.843 5.32,-3.889 5.32,-10.648 0,-6.759 -5.32,-10.602 -5.37,-3.889 -14.77,-3.889 z"
     fill="#000000"
     fill-rule="nonzero"
     fill-opacity="1"
     id="path117" />
  <path
     clip-path="url(#clip950)"
     d="m 2680.24,303.992 h 8.05 q -1.85,3.611 -2.78,7.5 -0.92,3.889 -0.92,8.056 0,6.342 1.94,9.537 1.95,3.148 5.84,3.148 2.96,0 4.67,-2.269 1.67,-2.268 3.2,-9.12 l 0.64,-2.917 q 1.95,-9.074 5.51,-12.87 3.52,-3.843 9.86,-3.843 7.23,0 11.44,5.741 4.21,5.695 4.21,15.694 0,4.167 -0.83,8.704 -0.79,4.491 -2.41,9.491 h -8.79 q 2.45,-4.722 3.7,-9.306 1.2,-4.583 1.2,-9.074 0,-6.018 -2.03,-9.259 -2.09,-3.241 -5.84,-3.241 -3.47,0 -5.32,2.361 -1.85,2.315 -3.57,10.232 l -0.69,2.963 q -1.67,7.916 -5.09,11.435 -3.48,3.518 -9.49,3.518 -7.32,0 -11.3,-5.185 -3.98,-5.185 -3.98,-14.722 0,-4.722 0.69,-8.889 0.7,-4.166 2.09,-7.685 z"
     fill="#000000"
     fill-rule="nonzero"
     fill-opacity="1"
     id="path118" />
  <polyline
     clip-path="url(#clip952)"
     style="fill:none;stroke:#ff0000;stroke-width:4;stroke-linecap:round;stroke-linejoin:round;stroke-opacity:1"
     points="407.091,1519.65 1056.84,660.461 1706.6,446.781 2356.35,90.1298 "
     id="polyline118" />
  <circle
     clip-path="url(#clip952)"
     cx="407.091"
     cy="1519.65"
     r="18"
     fill="#ff0000"
     fill-rule="evenodd"
     fill-opacity="1"
     stroke="#000000"
     stroke-opacity="1"
     stroke-width="3.6"
     id="circle118" />
  <circle
     clip-path="url(#clip952)"
     cx="1056.84"
     cy="660.461"
     r="18"
     fill="#ff0000"
     fill-rule="evenodd"
     fill-opacity="1"
     stroke="#000000"
     stroke-opacity="1"
     stroke-width="3.6"
     id="circle119" />
  <circle
     clip-path="url(#clip952)"
     cx="1706.6"
     cy="446.78101"
     r="18"
     fill="#ff0000"
     fill-rule="evenodd"
     fill-opacity="1"
     stroke="#000000"
     stroke-opacity="1"
     stroke-width="3.6"
     id="circle120" />
  <circle
     clip-path="url(#clip952)"
     cx="2356.3501"
     cy="90.129799"
     r="18"
     fill="#ff0000"
     fill-rule="evenodd"
     fill-opacity="1"
     stroke="#000000"
     stroke-opacity="1"
     stroke-width="3.6"
     id="circle121" />
  <g
     id="g1"
     transform="translate(-271.57079,-7.0260768)">
    <g
       id="g136"
       transform="translate(-398.05258,386.94002)">
      <g
         id="g138">
        <polyline
           clip-path="url(#clip890)"
           style="fill:none;stroke:#0000ff;stroke-width:8;stroke-linecap:round;stroke-linejoin:round;stroke-opacity:1"
           points="1159.38,201.434 1297.46,201.434 "
           id="polyline104"
           transform="translate(-252.40123,-623.85147)" />
        <circle
           clip-path="url(#clip890)"
           cx="1228.42"
           cy="201.43401"
           r="9.5892401"
           fill="#0000ff"
           fill-rule="evenodd"
           fill-opacity="1"
           stroke="#000000"
           stroke-opacity="1"
           stroke-width="8.37818"
           id="circle104"
           transform="translate(-252.40123,-623.85147)" />
        <path
           clip-path="url(#clip890)"
           d="m 1320.48,166.874 h 43.7 v 7.87 h -34.35 v 20.463 h 32.92 v 7.87 h -32.92 v 25.047 h 35.18 v 7.87 h -44.53 z"
           fill="#000000"
           fill-rule="nonzero"
           fill-opacity="1"
           id="path104-0"
           transform="translate(-252.40123,-623.85147)" />
        <path
           clip-path="url(#clip890)"
           d="m 1385.11,210.114 q 0,9.399 3.84,14.769 3.89,5.324 10.65,5.324 6.76,0 10.65,-5.324 3.88,-5.37 3.88,-14.769 0,-9.398 -3.88,-14.722 -3.89,-5.37 -10.65,-5.37 -6.76,0 -10.65,5.37 -3.84,5.324 -3.84,14.722 m 29.02,18.102 q -2.68,4.63 -6.8,6.898 -4.07,2.223 -9.82,2.223 -9.39,0 -15.32,-7.5 -5.88,-7.5 -5.88,-19.723 0,-12.222 5.88,-19.722 5.93,-7.5 15.32,-7.5 5.75,0 9.82,2.269 4.12,2.222 6.8,6.852 v -7.871 h 8.52 v 71.574 h -8.52 z"
           fill="#000000"
           fill-rule="nonzero"
           fill-opacity="1"
           id="path105-1"
           transform="translate(-252.40123,-623.85147)" />
        <path
           clip-path="url(#clip890)"
           d="m 1439.32,215.531 v -31.389 h 8.52 v 31.065 q 0,7.361 2.87,11.065 2.87,3.657 8.61,3.657 6.9,0 10.88,-4.398 4.03,-4.398 4.03,-11.991 v -29.398 h 8.52 v 51.852 h -8.52 v -7.963 q -3.1,4.722 -7.23,7.037 -4.07,2.269 -9.49,2.269 -8.93,0 -13.56,-5.556 -4.63,-5.555 -4.63,-16.25 m 21.43,-32.639 z"
           fill="#000000"
           fill-rule="nonzero"
           fill-opacity="1"
           id="path106-7"
           transform="translate(-252.40123,-623.85147)" />
        <path
           clip-path="url(#clip890)"
           d="m 1523.86,209.929 q -10.33,0 -14.31,2.361 -3.98,2.361 -3.98,8.056 0,4.537 2.96,7.222 3.01,2.639 8.15,2.639 7.08,0 11.34,-5 4.31,-5.046 4.31,-13.38 v -1.898 h -8.47 m 16.99,-3.518 v 29.583 h -8.52 v -7.87 q -2.92,4.722 -7.27,6.99 -4.35,2.223 -10.65,2.223 -7.96,0 -12.68,-4.445 -4.68,-4.491 -4.68,-11.991 0,-8.749 5.83,-13.194 5.88,-4.444 17.5,-4.444 h 11.95 v -0.834 q 0,-5.879 -3.89,-9.074 -3.84,-3.24 -10.83,-3.24 -4.45,0 -8.66,1.064 -4.21,1.065 -8.1,3.195 v -7.871 q 4.67,-1.805 9.07,-2.685 4.4,-0.926 8.57,-0.926 11.25,0 16.8,5.834 5.56,5.833 5.56,17.685 z"
           fill="#000000"
           fill-rule="nonzero"
           fill-opacity="1"
           id="path107-1"
           transform="translate(-252.40123,-623.85147)" />
        <path
           clip-path="url(#clip890)"
           d="m 1566.82,169.42 v 14.722 h 17.55 v 6.621 h -17.55 v 28.148 q 0,6.342 1.71,8.148 1.76,1.805 7.09,1.805 h 8.75 v 7.13 h -8.75 q -9.87,0 -13.62,-3.657 -3.75,-3.704 -3.75,-13.426 V 190.763 H 1552 v -6.621 h 6.25 V 169.42 Z"
           fill="#000000"
           fill-rule="nonzero"
           fill-opacity="1"
           id="path108-7"
           transform="translate(-252.40123,-623.85147)" />
        <path
           clip-path="url(#clip890)"
           d="m 1595.57,184.142 h 8.52 v 51.852 h -8.52 v -51.852 m 0,-20.185 h 8.52 v 10.787 h -8.52 z"
           fill="#000000"
           fill-rule="nonzero"
           fill-opacity="1"
           id="path109-5"
           transform="translate(-252.40123,-623.85147)" />
        <path
           clip-path="url(#clip890)"
           d="m 1642,190.115 q -6.85,0 -10.83,5.37 -3.98,5.324 -3.98,14.629 0,9.306 3.93,14.676 3.99,5.324 10.88,5.324 6.81,0 10.79,-5.37 3.98,-5.37 3.98,-14.63 0,-9.212 -3.98,-14.583 -3.98,-5.416 -10.79,-5.416 m 0,-7.223 q 11.11,0 17.46,7.223 6.34,7.222 6.34,19.999 0,12.732 -6.34,20 -6.35,7.223 -17.46,7.223 -11.15,0 -17.5,-7.223 -6.29,-7.268 -6.29,-20 0,-12.777 6.29,-19.999 6.35,-7.223 17.5,-7.223 z"
           fill="#000000"
           fill-rule="nonzero"
           fill-opacity="1"
           id="path110-9"
           transform="translate(-252.40123,-623.85147)" />
        <path
           clip-path="url(#clip890)"
           d="m 1723.02,204.698 v 31.296 h -8.52 v -31.018 q 0,-7.361 -2.87,-11.019 -2.87,-3.657 -8.61,-3.657 -6.9,0 -10.88,4.398 -3.98,4.398 -3.98,11.991 v 29.305 h -8.56 v -51.852 h 8.56 v 8.056 q 3.06,-4.676 7.18,-6.991 4.16,-2.315 9.58,-2.315 8.94,0 13.52,5.556 4.58,5.509 4.58,16.25 z"
           fill="#000000"
           fill-rule="nonzero"
           fill-opacity="1"
           id="path111-8"
           transform="translate(-252.40123,-623.85147)" />
        <path
           clip-path="url(#clip890)"
           d="m 1778.58,169.42 v 14.722 h 17.54 v 6.621 h -17.54 v 28.148 q 0,6.342 1.71,8.148 1.76,1.805 7.08,1.805 h 8.75 v 7.13 h -8.75 q -9.86,0 -13.61,-3.657 -3.75,-3.704 -3.75,-13.426 v -28.148 h -6.25 v -6.621 h 6.25 V 169.42 Z"
           fill="#000000"
           fill-rule="nonzero"
           fill-opacity="1"
           id="path112-6"
           transform="translate(-252.40123,-623.85147)" />
        <path
           clip-path="url(#clip890)"
           d="m 1851.68,207.939 v 4.166 h -39.17 q 0.56,8.796 5.28,13.426 4.77,4.583 13.24,4.583 4.91,0 9.49,-1.203 4.63,-1.204 9.17,-3.611 v 8.055 q -4.59,1.945 -9.4,2.963 -4.81,1.019 -9.77,1.019 -12.41,0 -19.67,-7.223 -7.23,-7.222 -7.23,-19.537 0,-12.731 6.86,-20.185 6.89,-7.5 18.56,-7.5 10.46,0 16.53,6.76 6.11,6.713 6.11,18.287 m -8.52,-2.5 q -0.09,-6.991 -3.94,-11.158 -3.79,-4.166 -10.09,-4.166 -7.13,0 -11.43,4.027 -4.26,4.028 -4.91,11.343 z"
           fill="#000000"
           fill-rule="nonzero"
           fill-opacity="1"
           id="path113-6"
           transform="translate(-252.40123,-623.85147)" />
        <path
           clip-path="url(#clip890)"
           d="m 1895.71,192.105 q -1.44,-0.833 -3.15,-1.203 -1.67,-0.417 -3.71,-0.417 -7.22,0 -11.11,4.722 -3.84,4.676 -3.84,13.472 v 27.315 h -8.56 v -51.852 h 8.56 v 8.056 q 2.69,-4.722 6.99,-6.991 4.31,-2.315 10.46,-2.315 0.88,0 1.95,0.139 1.06,0.093 2.36,0.324 z"
           fill="#000000"
           fill-rule="nonzero"
           fill-opacity="1"
           id="path114-5"
           transform="translate(-252.40123,-623.85147)" />
        <path
           clip-path="url(#clip890)"
           d="m 1943.34,194.096 q 3.2,-5.741 7.64,-8.472 4.45,-2.732 10.47,-2.732 8.1,0 12.5,5.695 4.39,5.648 4.39,16.111 v 31.296 h -8.56 v -31.018 q 0,-7.454 -2.64,-11.065 -2.64,-3.611 -8.05,-3.611 -6.62,0 -10.47,4.398 -3.84,4.398 -3.84,11.991 v 29.305 h -8.56 v -31.018 q 0,-7.5 -2.64,-11.065 -2.64,-3.611 -8.15,-3.611 -6.53,0 -10.37,4.444 -3.84,4.398 -3.84,11.945 v 29.305 h -8.57 v -51.852 h 8.57 v 8.056 q 2.91,-4.769 6.99,-7.037 4.07,-2.269 9.67,-2.269 5.65,0 9.59,2.871 3.98,2.87 5.87,8.333 z"
           fill="#000000"
           fill-rule="nonzero"
           fill-opacity="1"
           id="path115-9"
           transform="translate(-252.40123,-623.85147)" />
        <path
           clip-path="url(#clip890)"
           d="m 2028.39,185.67 v 8.056 q -3.61,-1.852 -7.5,-2.778 -3.89,-0.926 -8.05,-0.926 -6.35,0 -9.54,1.944 -3.15,1.945 -3.15,5.834 0,2.963 2.27,4.676 2.27,1.666 9.12,3.194 l 2.92,0.648 q 9.07,1.945 12.87,5.509 3.84,3.519 3.84,9.861 0,7.223 -5.74,11.436 -5.7,4.213 -15.7,4.213 -4.16,0 -8.7,-0.834 -4.49,-0.787 -9.49,-2.407 V 225.3 q 4.72,2.453 9.3,3.703 4.59,1.204 9.08,1.204 6.02,0 9.26,-2.037 3.24,-2.083 3.24,-5.833 0,-3.473 -2.36,-5.324 -2.32,-1.852 -10.23,-3.565 l -2.97,-0.695 q -7.91,-1.666 -11.43,-5.092 -3.52,-3.472 -3.52,-9.491 0,-7.315 5.18,-11.296 5.19,-3.982 14.73,-3.982 4.72,0 8.89,0.695 4.16,0.694 7.68,2.083 z"
           fill="#000000"
           fill-rule="nonzero"
           fill-opacity="1"
           id="path116-3"
           transform="translate(-252.40123,-623.85147)" />
      </g>
    </g>
    <g
       id="g137"
       transform="translate(599.80526,196.5069)">
      <polyline
         clip-path="url(#clip890)"
         style="fill:none;stroke:#ff0000;stroke-width:8;stroke-linecap:round;stroke-linejoin:round;stroke-opacity:1"
         points="1159.38,305.114 1297.46,305.114 "
         id="polyline116"
         transform="translate(-177.21519,-537.09835)" />
      <circle
         clip-path="url(#clip890)"
         cx="1228.42"
         cy="305.11401"
         r="9.5892401"
         fill="#ff0000"
         fill-rule="evenodd"
         fill-opacity="1"
         stroke="#000000"
         stroke-opacity="1"
         stroke-width="8.37818"
         id="circle116"
         transform="translate(-177.21519,-537.09835)" />
      <path
         clip-path="url(#clip890)"
         d="m 1320.48,270.554 h 9.35 v 69.12 h -9.35 z"
         fill="#000000"
         fill-rule="nonzero"
         fill-opacity="1"
         id="path117-8"
         transform="translate(-177.21519,-537.09835)" />
      <path
         clip-path="url(#clip890)"
         d="m 1391.17,308.378 v 31.296 h -8.52 v -31.018 q 0,-7.361 -2.87,-11.019 -2.87,-3.657 -8.61,-3.657 -6.9,0 -10.88,4.398 -3.98,4.398 -3.98,11.991 v 29.305 h -8.56 v -51.852 h 8.56 v 8.056 q 3.06,-4.676 7.18,-6.991 4.16,-2.315 9.58,-2.315 8.94,0 13.52,5.556 4.58,5.509 4.58,16.25 z"
         fill="#000000"
         fill-rule="nonzero"
         fill-opacity="1"
         id="path118-0"
         transform="translate(-177.21519,-537.09835)" />
      <path
         clip-path="url(#clip890)"
         d="m 1416.59,273.1 v 14.722 h 17.54 v 6.621 h -17.54 v 28.148 q 0,6.342 1.71,8.148 1.76,1.805 7.08,1.805 h 8.75 v 7.13 h -8.75 q -9.86,0 -13.61,-3.657 -3.75,-3.704 -3.75,-13.426 v -28.148 h -6.25 v -6.621 h 6.25 V 273.1 Z"
         fill="#000000"
         fill-rule="nonzero"
         fill-opacity="1"
         id="path119"
         transform="translate(-177.21519,-537.09835)" />
      <path
         clip-path="url(#clip890)"
         d="m 1489.69,311.619 v 4.166 h -39.17 q 0.56,8.796 5.28,13.426 4.77,4.583 13.24,4.583 4.91,0 9.49,-1.203 4.63,-1.204 9.17,-3.611 v 8.055 q -4.58,1.945 -9.4,2.963 -4.81,1.019 -9.77,1.019 -12.4,0 -19.67,-7.223 -7.23,-7.222 -7.23,-19.537 0,-12.731 6.86,-20.185 6.89,-7.5 18.56,-7.5 10.46,0 16.53,6.76 6.11,6.713 6.11,18.287 m -8.52,-2.5 q -0.09,-6.991 -3.93,-11.158 -3.8,-4.166 -10.1,-4.166 -7.13,0 -11.43,4.027 -4.26,4.028 -4.91,11.343 z"
         fill="#000000"
         fill-rule="nonzero"
         fill-opacity="1"
         id="path120"
         transform="translate(-177.21519,-537.09835)" />
      <path
         clip-path="url(#clip890)"
         d="m 1537.79,313.146 q 0,-9.259 -3.84,-14.351 -3.8,-5.093 -10.7,-5.093 -6.85,0 -10.69,5.093 -3.8,5.092 -3.8,14.351 0,9.213 3.8,14.306 3.84,5.092 10.69,5.092 6.9,0 10.7,-5.092 3.84,-5.093 3.84,-14.306 m 8.52,20.093 q 0,13.24 -5.88,19.676 -5.88,6.481 -18.01,6.481 -4.49,0 -8.47,-0.694 -3.98,-0.648 -7.73,-2.037 v -8.287 q 3.75,2.037 7.4,3.009 3.66,0.972 7.46,0.972 8.38,0 12.54,-4.398 4.17,-4.352 4.17,-13.194 v -4.213 q -2.64,4.583 -6.76,6.851 -4.12,2.269 -9.86,2.269 -9.54,0 -15.37,-7.269 -5.83,-7.268 -5.83,-19.259 0,-12.037 5.83,-19.305 5.83,-7.269 15.37,-7.269 5.74,0 9.86,2.269 4.12,2.268 6.76,6.852 v -7.871 h 8.52 z"
         fill="#000000"
         fill-rule="nonzero"
         fill-opacity="1"
         id="path121"
         transform="translate(-177.21519,-537.09835)" />
      <path
         clip-path="url(#clip890)"
         d="m 1593.9,295.785 q -1.43,-0.833 -3.15,-1.203 -1.66,-0.417 -3.7,-0.417 -7.22,0 -11.11,4.722 -3.84,4.676 -3.84,13.472 v 27.315 h -8.57 v -51.852 h 8.57 v 8.056 q 2.68,-4.722 6.99,-6.991 4.3,-2.315 10.46,-2.315 0.88,0 1.94,0.139 1.07,0.093 2.37,0.324 z"
         fill="#000000"
         fill-rule="nonzero"
         fill-opacity="1"
         id="path122"
         transform="translate(-177.21519,-537.09835)" />
      <path
         clip-path="url(#clip890)"
         d="m 1626.4,313.609 q -10.32,0 -14.3,2.361 -3.98,2.361 -3.98,8.056 0,4.537 2.96,7.222 3.01,2.639 8.15,2.639 7.08,0 11.34,-5 4.3,-5.046 4.3,-13.38 v -1.898 h -8.47 m 16.99,-3.518 v 29.583 h -8.52 v -7.87 q -2.91,4.722 -7.26,6.99 -4.36,2.223 -10.65,2.223 -7.97,0 -12.69,-4.445 -4.67,-4.491 -4.67,-11.991 0,-8.749 5.83,-13.194 5.88,-4.444 17.5,-4.444 h 11.94 v -0.834 q 0,-5.879 -3.88,-9.074 -3.85,-3.24 -10.84,-3.24 -4.44,0 -8.66,1.064 -4.21,1.065 -8.1,3.195 v -7.871 q 4.68,-1.805 9.08,-2.685 4.4,-0.926 8.56,-0.926 11.25,0 16.81,5.834 5.55,5.833 5.55,17.685 z"
         fill="#000000"
         fill-rule="nonzero"
         fill-opacity="1"
         id="path123"
         transform="translate(-177.21519,-537.09835)" />
      <path
         clip-path="url(#clip890)"
         d="m 1669.36,273.1 v 14.722 h 17.55 v 6.621 h -17.55 v 28.148 q 0,6.342 1.72,8.148 1.76,1.805 7.08,1.805 h 8.75 v 7.13 h -8.75 q -9.86,0 -13.61,-3.657 -3.75,-3.704 -3.75,-13.426 v -28.148 h -6.25 v -6.621 h 6.25 V 273.1 Z"
         fill="#000000"
         fill-rule="nonzero"
         fill-opacity="1"
         id="path124"
         transform="translate(-177.21519,-537.09835)" />
      <path
         clip-path="url(#clip890)"
         d="m 1698.11,287.822 h 8.52 v 51.852 h -8.52 v -51.852 m 0,-20.185 h 8.52 v 10.787 h -8.52 z"
         fill="#000000"
         fill-rule="nonzero"
         fill-opacity="1"
         id="path125"
         transform="translate(-177.21519,-537.09835)" />
      <path
         clip-path="url(#clip890)"
         d="m 1744.55,293.795 q -6.85,0 -10.83,5.37 -3.99,5.324 -3.99,14.629 0,9.306 3.94,14.676 3.98,5.324 10.88,5.324 6.81,0 10.79,-5.37 3.98,-5.37 3.98,-14.63 0,-9.212 -3.98,-14.583 -3.98,-5.416 -10.79,-5.416 m 0,-7.223 q 11.11,0 17.45,7.223 6.35,7.222 6.35,19.999 0,12.732 -6.35,20 -6.34,7.223 -17.45,7.223 -11.16,0 -17.5,-7.223 -6.3,-7.268 -6.3,-20 0,-12.777 6.3,-19.999 6.34,-7.223 17.5,-7.223 z"
         fill="#000000"
         fill-rule="nonzero"
         fill-opacity="1"
         id="path126"
         transform="translate(-177.21519,-537.09835)" />
      <path
         clip-path="url(#clip890)"
         d="m 1825.57,308.378 v 31.296 h -8.52 v -31.018 q 0,-7.361 -2.87,-11.019 -2.87,-3.657 -8.61,-3.657 -6.9,0 -10.88,4.398 -3.98,4.398 -3.98,11.991 v 29.305 h -8.57 v -51.852 h 8.57 v 8.056 q 3.05,-4.676 7.17,-6.991 4.17,-2.315 9.59,-2.315 8.93,0 13.51,5.556 4.59,5.509 4.59,16.25 z"
         fill="#000000"
         fill-rule="nonzero"
         fill-opacity="1"
         id="path127"
         transform="translate(-177.21519,-537.09835)" />
      <path
         clip-path="url(#clip890)"
         d="m 1881.12,273.1 v 14.722 h 17.55 v 6.621 h -17.55 v 28.148 q 0,6.342 1.72,8.148 1.76,1.805 7.08,1.805 h 8.75 v 7.13 h -8.75 q -9.86,0 -13.61,-3.657 -3.75,-3.704 -3.75,-13.426 v -28.148 h -6.25 v -6.621 h 6.25 V 273.1 Z"
         fill="#000000"
         fill-rule="nonzero"
         fill-opacity="1"
         id="path128"
         transform="translate(-177.21519,-537.09835)" />
      <path
         clip-path="url(#clip890)"
         d="m 1909.87,287.822 h 8.52 v 51.852 h -8.52 v -51.852 m 0,-20.185 h 8.52 v 10.787 h -8.52 z"
         fill="#000000"
         fill-rule="nonzero"
         fill-opacity="1"
         id="path129"
         transform="translate(-177.21519,-537.09835)" />
      <path
         clip-path="url(#clip890)"
         d="m 1976.59,297.776 q 3.19,-5.741 7.63,-8.472 4.45,-2.732 10.47,-2.732 8.1,0 12.5,5.695 4.4,5.648 4.4,16.111 v 31.296 h -8.57 v -31.018 q 0,-7.454 -2.64,-11.065 -2.64,-3.611 -8.05,-3.611 -6.62,0 -10.47,4.398 -3.84,4.398 -3.84,11.991 v 29.305 h -8.56 v -31.018 q 0,-7.5 -2.64,-11.065 -2.64,-3.611 -8.15,-3.611 -6.53,0 -10.37,4.444 -3.84,4.398 -3.84,11.945 v 29.305 h -8.57 v -51.852 h 8.57 v 8.056 q 2.91,-4.769 6.99,-7.037 4.07,-2.269 9.67,-2.269 5.65,0 9.59,2.871 3.98,2.87 5.88,8.333 z"
         fill="#000000"
         fill-rule="nonzero"
         fill-opacity="1"
         id="path130"
         transform="translate(-177.21519,-537.09835)" />
      <path
         clip-path="url(#clip890)"
         d="m 2072.93,311.619 v 4.166 h -39.17 q 0.56,8.796 5.28,13.426 4.77,4.583 13.24,4.583 4.91,0 9.49,-1.203 4.63,-1.204 9.17,-3.611 v 8.055 q -4.59,1.945 -9.4,2.963 -4.82,1.019 -9.77,1.019 -12.41,0 -19.68,-7.223 -7.22,-7.222 -7.22,-19.537 0,-12.731 6.85,-20.185 6.9,-7.5 18.57,-7.5 10.46,0 16.53,6.76 6.11,6.713 6.11,18.287 m -8.52,-2.5 q -0.09,-6.991 -3.94,-11.158 -3.79,-4.166 -10.09,-4.166 -7.13,0 -11.43,4.027 -4.26,4.028 -4.91,11.343 z"
         fill="#000000"
         fill-rule="nonzero"
         fill-opacity="1"
         id="path131"
         transform="translate(-177.21519,-537.09835)" />
      <path
         clip-path="url(#clip890)"
         d="m 2119.96,289.35 v 8.056 q -3.61,-1.852 -7.5,-2.778 -3.88,-0.926 -8.05,-0.926 -6.34,0 -9.54,1.944 -3.15,1.945 -3.15,5.834 0,2.963 2.27,4.676 2.27,1.666 9.12,3.194 l 2.92,0.648 q 9.07,1.945 12.87,5.509 3.84,3.519 3.84,9.861 0,7.223 -5.74,11.436 -5.69,4.213 -15.69,4.213 -4.17,0 -8.71,-0.834 -4.49,-0.787 -9.49,-2.407 v -8.796 q 4.72,2.453 9.31,3.703 4.58,1.204 9.07,1.204 6.02,0 9.26,-2.037 3.24,-2.083 3.24,-5.833 0,-3.473 -2.36,-5.324 -2.31,-1.852 -10.23,-3.565 l -2.96,-0.695 q -7.92,-1.666 -11.44,-5.092 -3.52,-3.472 -3.52,-9.491 0,-7.315 5.19,-11.296 5.18,-3.982 14.72,-3.982 4.72,0 8.89,0.695 4.17,0.694 7.68,2.083 z"
         fill="#000000"
         fill-rule="nonzero"
         fill-opacity="1"
         id="path132"
         transform="translate(-177.21519,-537.09835)" />
      <path
         clip-path="url(#clip890)"
         d="m 2144.73,273.1 v 14.722 h 17.55 v 6.621 h -17.55 v 28.148 q 0,6.342 1.72,8.148 1.75,1.805 7.08,1.805 h 8.75 v 7.13 h -8.75 q -9.86,0 -13.61,-3.657 -3.75,-3.704 -3.75,-13.426 v -28.148 h -6.25 v -6.621 h 6.25 V 273.1 Z"
         fill="#000000"
         fill-rule="nonzero"
         fill-opacity="1"
         id="path133"
         transform="translate(-177.21519,-537.09835)" />
      <path
         clip-path="url(#clip890)"
         d="m 2217.83,311.619 v 4.166 h -39.16 q 0.55,8.796 5.28,13.426 4.76,4.583 13.24,4.583 4.9,0 9.49,-1.203 4.63,-1.204 9.16,-3.611 v 8.055 q -4.58,1.945 -9.39,2.963 -4.82,1.019 -9.77,1.019 -12.41,0 -19.68,-7.223 -7.22,-7.222 -7.22,-19.537 0,-12.731 6.85,-20.185 6.9,-7.5 18.57,-7.5 10.46,0 16.52,6.76 6.11,6.713 6.11,18.287 m -8.51,-2.5 q -0.1,-6.991 -3.94,-11.158 -3.8,-4.166 -10.09,-4.166 -7.13,0 -11.44,4.027 -4.26,4.028 -4.9,11.343 z"
         fill="#000000"
         fill-rule="nonzero"
         fill-opacity="1"
         id="path134"
         transform="translate(-177.21519,-537.09835)" />
      <path
         clip-path="url(#clip890)"
         d="m 2240.06,331.896 v 27.5 h -8.57 v -71.574 h 8.57 v 7.871 q 2.68,-4.63 6.76,-6.852 4.12,-2.269 9.81,-2.269 9.44,0 15.32,7.5 5.93,7.5 5.93,19.722 0,12.223 -5.93,19.723 -5.88,7.5 -15.32,7.5 -5.69,0 -9.81,-2.223 -4.08,-2.268 -6.76,-6.898 m 28.98,-18.102 q 0,-9.398 -3.89,-14.722 -3.84,-5.37 -10.6,-5.37 -6.76,0 -10.65,5.37 -3.84,5.324 -3.84,14.722 0,9.399 3.84,14.769 3.89,5.324 10.65,5.324 6.76,0 10.6,-5.324 3.89,-5.37 3.89,-14.769 z"
         fill="#000000"
         fill-rule="nonzero"
         fill-opacity="1"
         id="path135"
         transform="translate(-177.21519,-537.09835)" />
      <path
         clip-path="url(#clip890)"
         d="m 2325.06,289.35 v 8.056 q -3.62,-1.852 -7.5,-2.778 -3.89,-0.926 -8.06,-0.926 -6.34,0 -9.54,1.944 -3.14,1.945 -3.14,5.834 0,2.963 2.26,4.676 2.27,1.666 9.12,3.194 l 2.92,0.648 q 9.07,1.945 12.87,5.509 3.84,3.519 3.84,9.861 0,7.223 -5.74,11.436 -5.69,4.213 -15.69,4.213 -4.17,0 -8.71,-0.834 -4.49,-0.787 -9.49,-2.407 v -8.796 q 4.73,2.453 9.31,3.703 4.58,1.204 9.07,1.204 6.02,0 9.26,-2.037 3.24,-2.083 3.24,-5.833 0,-3.473 -2.36,-5.324 -2.31,-1.852 -10.23,-3.565 l -2.96,-0.695 q -7.92,-1.666 -11.44,-5.092 -3.52,-3.472 -3.52,-9.491 0,-7.315 5.19,-11.296 5.18,-3.982 14.72,-3.982 4.72,0 8.89,0.695 4.17,0.694 7.69,2.083 z"
         fill="#000000"
         fill-rule="nonzero"
         fill-opacity="1"
         id="path136"
         transform="translate(-177.21519,-537.09835)" />
    </g>
  </g>
</svg>
