<?xml version="1.0" encoding="UTF-8" standalone="no"?>
<svg
   width="700"
   height="450"
   viewBox="0 0 2800 1800"
   version="1.1"
   id="svg156"
   sodipodi:docname="fig6.svg"
   inkscape:version="1.3 (0e150ed6c4, 2023-07-21)"
   xmlns:inkscape="http://www.inkscape.org/namespaces/inkscape"
   xmlns:sodipodi="http://sodipodi.sourceforge.net/DTD/sodipodi-0.dtd"
   xmlns="http://www.w3.org/2000/svg"
   xmlns:svg="http://www.w3.org/2000/svg">
  <sodipodi:namedview
     id="namedview156"
     pagecolor="#ffffff"
     bordercolor="#000000"
     borderopacity="0.25"
     inkscape:showpageshadow="2"
     inkscape:pageopacity="0.0"
     inkscape:pagecheckerboard="0"
     inkscape:deskcolor="#d1d1d1"
     inkscape:zoom="1.0374267"
     inkscape:cx="310.86534"
     inkscape:cy="222.66633"
     inkscape:window-width="1920"
     inkscape:window-height="1010"
     inkscape:window-x="-6"
     inkscape:window-y="-6"
     inkscape:window-maximized="1"
     inkscape:current-layer="svg156" />
  <defs
     id="defs1">
    <clipPath
       id="clip130">
      <rect
         x="0"
         y="0"
         width="2800"
         height="1800"
         id="rect1" />
    </clipPath>
  </defs>
  <path
     clip-path="url(#clip130)"
     d="M0 1800 L2800 1800 L2800 -2.27374e-13 L0 -2.27374e-13  Z"
     fill="#ffffff"
     fill-rule="evenodd"
     fill-opacity="1"
     id="path1"
     inkscape:export-filename="..\..\..\..\..\..\..\..\..\..\演讲\2023.12AGU\fig\CompSpeed.png"
     inkscape:export-xdpi="1400"
     inkscape:export-ydpi="1400" />
  <defs
     id="defs2">
    <clipPath
       id="clip131">
      <rect
         x="560"
         y="0"
         width="1961"
         height="1800"
         id="rect2" />
    </clipPath>
  </defs>
  <path
     clip-path="url(#clip130)"
     d="M431.414 1562.54 L2323.22 1562.54 L2323.22 47.2441 L431.414 47.2441  Z"
     fill="#ffffff"
     fill-rule="evenodd"
     fill-opacity="1"
     id="path2" />
  <defs
     id="defs3">
    <clipPath
       id="clip132">
      <rect
         x="431"
         y="47"
         width="1893"
         height="1516"
         id="rect3" />
    </clipPath>
  </defs>
  <polyline
     clip-path="url(#clip132)"
     style="stroke:#000000; stroke-linecap:round; stroke-linejoin:round; stroke-width:2; stroke-opacity:0.1; fill:none"
     points="484.956,1562.54 484.956,47.2441 "
     id="polyline3" />
  <polyline
     clip-path="url(#clip132)"
     style="stroke:#000000; stroke-linecap:round; stroke-linejoin:round; stroke-width:2; stroke-opacity:0.1; fill:none"
     points="1079.86,1562.54 1079.86,47.2441 "
     id="polyline4" />
  <polyline
     clip-path="url(#clip132)"
     style="stroke:#000000; stroke-linecap:round; stroke-linejoin:round; stroke-width:2; stroke-opacity:0.1; fill:none"
     points="1674.77,1562.54 1674.77,47.2441 "
     id="polyline5" />
  <polyline
     clip-path="url(#clip132)"
     style="stroke:#000000; stroke-linecap:round; stroke-linejoin:round; stroke-width:2; stroke-opacity:0.1; fill:none"
     points="2269.68,1562.54 2269.68,47.2441 "
     id="polyline6" />
  <polyline
     clip-path="url(#clip130)"
     style="stroke:#000000; stroke-linecap:round; stroke-linejoin:round; stroke-width:4; stroke-opacity:1; fill:none"
     points="431.414,1562.54 2323.22,1562.54 "
     id="polyline7" />
  <polyline
     clip-path="url(#clip130)"
     style="stroke:#000000; stroke-linecap:round; stroke-linejoin:round; stroke-width:4; stroke-opacity:1; fill:none"
     points="484.956,1562.54 484.956,1543.64 "
     id="polyline8" />
  <polyline
     clip-path="url(#clip130)"
     style="stroke:#000000; stroke-linecap:round; stroke-linejoin:round; stroke-width:4; stroke-opacity:1; fill:none"
     points="1079.86,1562.54 1079.86,1543.64 "
     id="polyline9" />
  <polyline
     clip-path="url(#clip130)"
     style="stroke:#000000; stroke-linecap:round; stroke-linejoin:round; stroke-width:4; stroke-opacity:1; fill:none"
     points="1674.77,1562.54 1674.77,1543.64 "
     id="polyline10" />
  <polyline
     clip-path="url(#clip130)"
     style="stroke:#000000; stroke-linecap:round; stroke-linejoin:round; stroke-width:4; stroke-opacity:1; fill:none"
     points="2269.68,1562.54 2269.68,1543.64 "
     id="polyline11" />
  <path
     clip-path="url(#clip130)"
     d="M468.124 1653.65 L481.492 1653.65 L481.492 1607.51 L466.95 1610.43 L466.95 1602.98 L481.411 1600.06 L489.594 1600.06 L489.594 1653.65 L502.962 1653.65 L502.962 1660.54 L468.124 1660.54 L468.124 1653.65 Z"
     fill="#000000"
     fill-rule="nonzero"
     fill-opacity="1"
     id="path11" />
  <path
     clip-path="url(#clip130)"
     d="M1070.51 1653.65 L1099.07 1653.65 L1099.07 1660.54 L1060.66 1660.54 L1060.66 1653.65 Q1065.32 1648.83 1073.34 1640.73 Q1081.4 1632.59 1083.47 1630.24 Q1087.4 1625.82 1088.94 1622.79 Q1090.52 1619.71 1090.52 1616.75 Q1090.52 1611.93 1087.12 1608.89 Q1083.75 1605.85 1078.32 1605.85 Q1074.48 1605.85 1070.18 1607.19 Q1065.93 1608.53 1061.07 1611.24 L1061.07 1602.98 Q1066.01 1600.99 1070.3 1599.98 Q1074.6 1598.97 1078.16 1598.97 Q1087.56 1598.97 1093.15 1603.67 Q1098.74 1608.36 1098.74 1616.22 Q1098.74 1619.95 1097.32 1623.31 Q1095.95 1626.63 1092.26 1631.17 Q1091.25 1632.35 1085.82 1637.98 Q1080.39 1643.57 1070.51 1653.65 Z"
     fill="#000000"
     fill-rule="nonzero"
     fill-opacity="1"
     id="path12" />
  <path
     clip-path="url(#clip130)"
     d="M1682.21 1627.93 Q1688.08 1629.19 1691.36 1633.16 Q1694.68 1637.13 1694.68 1642.96 Q1694.68 1651.91 1688.52 1656.81 Q1682.37 1661.72 1671.02 1661.72 Q1667.22 1661.72 1663.17 1660.95 Q1659.16 1660.22 1654.86 1658.72 L1654.86 1650.82 Q1658.26 1652.8 1662.32 1653.82 Q1666.37 1654.83 1670.78 1654.83 Q1678.48 1654.83 1682.49 1651.79 Q1686.54 1648.75 1686.54 1642.96 Q1686.54 1637.61 1682.77 1634.61 Q1679.05 1631.58 1672.36 1631.58 L1665.31 1631.58 L1665.31 1624.85 L1672.69 1624.85 Q1678.72 1624.85 1681.92 1622.46 Q1685.12 1620.03 1685.12 1615.49 Q1685.12 1610.84 1681.8 1608.36 Q1678.52 1605.85 1672.36 1605.85 Q1669 1605.85 1665.15 1606.58 Q1661.3 1607.31 1656.68 1608.85 L1656.68 1601.56 Q1661.34 1600.26 1665.39 1599.61 Q1669.49 1598.97 1673.09 1598.97 Q1682.41 1598.97 1687.84 1603.22 Q1693.26 1607.43 1693.26 1614.64 Q1693.26 1619.67 1690.39 1623.15 Q1687.51 1626.59 1682.21 1627.93 Z"
     fill="#000000"
     fill-rule="nonzero"
     fill-opacity="1"
     id="path13" />
  <path
     clip-path="url(#clip130)"
     d="M2274.95 1607.19 L2254.29 1639.48 L2274.95 1639.48 L2274.95 1607.19 M2272.8 1600.06 L2283.09 1600.06 L2283.09 1639.48 L2291.72 1639.48 L2291.72 1646.28 L2283.09 1646.28 L2283.09 1660.54 L2274.95 1660.54 L2274.95 1646.28 L2247.64 1646.28 L2247.64 1638.38 L2272.8 1600.06 Z"
     fill="#000000"
     fill-rule="nonzero"
     fill-opacity="1"
     id="path14" />
  <path
     clip-path="url(#clip130)"
     d="M1040.31 1709.08 L1049.66 1709.08 L1049.66 1770.33 L1083.31 1770.33 L1083.31 1778.2 L1040.31 1778.2 L1040.31 1709.08 Z"
     fill="#000000"
     fill-rule="nonzero"
     fill-opacity="1"
     id="path15" />
  <path
     clip-path="url(#clip130)"
     d="M1116.32 1752.14 Q1106 1752.14 1102.02 1754.5 Q1098.04 1756.86 1098.04 1762.56 Q1098.04 1767.09 1101 1769.78 Q1104.01 1772.42 1109.15 1772.42 Q1116.23 1772.42 1120.49 1767.42 Q1124.8 1762.37 1124.8 1754.04 L1124.8 1752.14 L1116.32 1752.14 M1133.31 1748.62 L1133.31 1778.2 L1124.8 1778.2 L1124.8 1770.33 Q1121.88 1775.06 1117.53 1777.32 Q1113.18 1779.55 1106.88 1779.55 Q1098.92 1779.55 1094.19 1775.1 Q1089.52 1770.61 1089.52 1763.11 Q1089.52 1754.36 1095.35 1749.92 Q1101.23 1745.47 1112.85 1745.47 L1124.8 1745.47 L1124.8 1744.64 Q1124.8 1738.76 1120.91 1735.57 Q1117.06 1732.32 1110.07 1732.32 Q1105.63 1732.32 1101.42 1733.39 Q1097.2 1734.45 1093.31 1736.58 L1093.31 1728.71 Q1097.99 1726.91 1102.39 1726.03 Q1106.79 1725.1 1110.95 1725.1 Q1122.2 1725.1 1127.76 1730.94 Q1133.31 1736.77 1133.31 1748.62 Z"
     fill="#000000"
     fill-rule="nonzero"
     fill-opacity="1"
     id="path16" />
  <path
     clip-path="url(#clip130)"
     d="M1159.29 1711.63 L1159.29 1726.35 L1176.83 1726.35 L1176.83 1732.97 L1159.29 1732.97 L1159.29 1761.12 Q1159.29 1767.46 1161 1769.27 Q1162.76 1771.07 1168.08 1771.07 L1176.83 1771.07 L1176.83 1778.2 L1168.08 1778.2 Q1158.22 1778.2 1154.47 1774.55 Q1150.72 1770.84 1150.72 1761.12 L1150.72 1732.97 L1144.47 1732.97 L1144.47 1726.35 L1150.72 1726.35 L1150.72 1711.63 L1159.29 1711.63 Z"
     fill="#000000"
     fill-rule="nonzero"
     fill-opacity="1"
     id="path17" />
  <path
     clip-path="url(#clip130)"
     d="M1232.39 1750.15 L1232.39 1754.32 L1193.22 1754.32 Q1193.78 1763.11 1198.5 1767.74 Q1203.27 1772.32 1211.74 1772.32 Q1216.65 1772.32 1221.23 1771.12 Q1225.86 1769.92 1230.4 1767.51 L1230.4 1775.57 Q1225.81 1777.51 1221 1778.53 Q1216.18 1779.55 1211.23 1779.55 Q1198.82 1779.55 1191.56 1772.32 Q1184.33 1765.1 1184.33 1752.79 Q1184.33 1740.06 1191.18 1732.6 Q1198.08 1725.1 1209.75 1725.1 Q1220.21 1725.1 1226.28 1731.86 Q1232.39 1738.57 1232.39 1750.15 M1223.87 1747.65 Q1223.78 1740.66 1219.93 1736.49 Q1216.14 1732.32 1209.84 1732.32 Q1202.71 1732.32 1198.41 1736.35 Q1194.15 1740.38 1193.5 1747.7 L1223.87 1747.65 Z"
     fill="#000000"
     fill-rule="nonzero"
     fill-opacity="1"
     id="path18" />
  <path
     clip-path="url(#clip130)"
     d="M1289.47 1746.91 L1289.47 1778.2 L1280.95 1778.2 L1280.95 1747.19 Q1280.95 1739.82 1278.08 1736.17 Q1275.21 1732.51 1269.47 1732.51 Q1262.57 1732.51 1258.59 1736.91 Q1254.61 1741.31 1254.61 1748.9 L1254.61 1778.2 L1246.05 1778.2 L1246.05 1726.35 L1254.61 1726.35 L1254.61 1734.41 Q1257.67 1729.73 1261.79 1727.42 Q1265.95 1725.1 1271.37 1725.1 Q1280.3 1725.1 1284.89 1730.66 Q1289.47 1736.17 1289.47 1746.91 Z"
     fill="#000000"
     fill-rule="nonzero"
     fill-opacity="1"
     id="path19" />
  <path
     clip-path="url(#clip130)"
     d="M1314.89 1711.63 L1314.89 1726.35 L1332.43 1726.35 L1332.43 1732.97 L1314.89 1732.97 L1314.89 1761.12 Q1314.89 1767.46 1316.6 1769.27 Q1318.36 1771.07 1323.68 1771.07 L1332.43 1771.07 L1332.43 1778.2 L1323.68 1778.2 Q1313.82 1778.2 1310.07 1774.55 Q1306.32 1770.84 1306.32 1761.12 L1306.32 1732.97 L1300.07 1732.97 L1300.07 1726.35 L1306.32 1726.35 L1306.32 1711.63 L1314.89 1711.63 Z"
     fill="#000000"
     fill-rule="nonzero"
     fill-opacity="1"
     id="path20" />
  <path
     clip-path="url(#clip130)"
     d="M1406.83 1727.88 L1406.83 1735.94 Q1403.22 1734.08 1399.33 1733.16 Q1395.44 1732.23 1391.28 1732.23 Q1384.93 1732.23 1381.74 1734.18 Q1378.59 1736.12 1378.59 1740.01 Q1378.59 1742.97 1380.86 1744.69 Q1383.13 1746.35 1389.98 1747.88 L1392.9 1748.53 Q1401.97 1750.47 1405.77 1754.04 Q1409.61 1757.56 1409.61 1763.9 Q1409.61 1771.12 1403.87 1775.33 Q1398.17 1779.55 1388.17 1779.55 Q1384.01 1779.55 1379.47 1778.71 Q1374.98 1777.93 1369.98 1776.31 L1369.98 1767.51 Q1374.7 1769.96 1379.29 1771.21 Q1383.87 1772.42 1388.36 1772.42 Q1394.38 1772.42 1397.62 1770.38 Q1400.86 1768.3 1400.86 1764.55 Q1400.86 1761.07 1398.5 1759.22 Q1396.18 1757.37 1388.27 1755.66 L1385.3 1754.96 Q1377.39 1753.3 1373.87 1749.87 Q1370.35 1746.4 1370.35 1740.38 Q1370.35 1733.07 1375.54 1729.08 Q1380.72 1725.1 1390.26 1725.1 Q1394.98 1725.1 1399.15 1725.8 Q1403.31 1726.49 1406.83 1727.88 Z"
     fill="#000000"
     fill-rule="nonzero"
     fill-opacity="1"
     id="path21" />
  <path
     clip-path="url(#clip130)"
     d="M1431.41 1770.43 L1431.41 1797.93 L1422.85 1797.93 L1422.85 1726.35 L1431.41 1726.35 L1431.41 1734.22 Q1434.1 1729.59 1438.17 1727.37 Q1442.29 1725.1 1447.99 1725.1 Q1457.43 1725.1 1463.31 1732.6 Q1469.24 1740.1 1469.24 1752.32 Q1469.24 1764.55 1463.31 1772.05 Q1457.43 1779.55 1447.99 1779.55 Q1442.29 1779.55 1438.17 1777.32 Q1434.1 1775.06 1431.41 1770.43 M1460.4 1752.32 Q1460.4 1742.93 1456.51 1737.6 Q1452.66 1732.23 1445.91 1732.23 Q1439.15 1732.23 1435.26 1737.6 Q1431.41 1742.93 1431.41 1752.32 Q1431.41 1761.72 1435.26 1767.09 Q1439.15 1772.42 1445.91 1772.42 Q1452.66 1772.42 1456.51 1767.09 Q1460.4 1761.72 1460.4 1752.32 Z"
     fill="#000000"
     fill-rule="nonzero"
     fill-opacity="1"
     id="path22" />
  <path
     clip-path="url(#clip130)"
     d="M1527.71 1750.15 L1527.71 1754.32 L1488.54 1754.32 Q1489.1 1763.11 1493.82 1767.74 Q1498.59 1772.32 1507.06 1772.32 Q1511.97 1772.32 1516.55 1771.12 Q1521.18 1769.92 1525.72 1767.51 L1525.72 1775.57 Q1521.14 1777.51 1516.32 1778.53 Q1511.51 1779.55 1506.55 1779.55 Q1494.15 1779.55 1486.88 1772.32 Q1479.66 1765.1 1479.66 1752.79 Q1479.66 1740.06 1486.51 1732.6 Q1493.41 1725.1 1505.07 1725.1 Q1515.53 1725.1 1521.6 1731.86 Q1527.71 1738.57 1527.71 1750.15 M1519.19 1747.65 Q1519.1 1740.66 1515.26 1736.49 Q1511.46 1732.32 1505.16 1732.32 Q1498.03 1732.32 1493.73 1736.35 Q1489.47 1740.38 1488.82 1747.7 L1519.19 1747.65 Z"
     fill="#000000"
     fill-rule="nonzero"
     fill-opacity="1"
     id="path23" />
  <path
     clip-path="url(#clip130)"
     d="M1579.01 1728.34 L1579.01 1736.31 Q1575.4 1734.32 1571.74 1733.34 Q1568.13 1732.32 1564.42 1732.32 Q1556.14 1732.32 1551.55 1737.6 Q1546.97 1742.83 1546.97 1752.32 Q1546.97 1761.82 1551.55 1767.09 Q1556.14 1772.32 1564.42 1772.32 Q1568.13 1772.32 1571.74 1771.35 Q1575.4 1770.33 1579.01 1768.34 L1579.01 1776.21 Q1575.44 1777.88 1571.6 1778.71 Q1567.8 1779.55 1563.5 1779.55 Q1551.78 1779.55 1544.89 1772.19 Q1537.99 1764.82 1537.99 1752.32 Q1537.99 1739.64 1544.93 1732.37 Q1551.92 1725.1 1564.05 1725.1 Q1567.99 1725.1 1571.74 1725.94 Q1575.49 1726.72 1579.01 1728.34 Z"
     fill="#000000"
     fill-rule="nonzero"
     fill-opacity="1"
     id="path24" />
  <path
     clip-path="url(#clip130)"
     d="M1593.82 1726.35 L1602.34 1726.35 L1602.34 1778.2 L1593.82 1778.2 L1593.82 1726.35 M1593.82 1706.17 L1602.34 1706.17 L1602.34 1716.95 L1593.82 1716.95 L1593.82 1706.17 Z"
     fill="#000000"
     fill-rule="nonzero"
     fill-opacity="1"
     id="path25" />
  <path
     clip-path="url(#clip130)"
     d="M1664.52 1750.15 L1664.52 1754.32 L1625.35 1754.32 Q1625.9 1763.11 1630.63 1767.74 Q1635.4 1772.32 1643.87 1772.32 Q1648.77 1772.32 1653.36 1771.12 Q1657.99 1769.92 1662.52 1767.51 L1662.52 1775.57 Q1657.94 1777.51 1653.13 1778.53 Q1648.31 1779.55 1643.36 1779.55 Q1630.95 1779.55 1623.68 1772.32 Q1616.46 1765.1 1616.46 1752.79 Q1616.46 1740.06 1623.31 1732.6 Q1630.21 1725.1 1641.88 1725.1 Q1652.34 1725.1 1658.4 1731.86 Q1664.52 1738.57 1664.52 1750.15 M1656 1747.65 Q1655.9 1740.66 1652.06 1736.49 Q1648.27 1732.32 1641.97 1732.32 Q1634.84 1732.32 1630.53 1736.35 Q1626.27 1740.38 1625.63 1747.7 L1656 1747.65 Z"
     fill="#000000"
     fill-rule="nonzero"
     fill-opacity="1"
     id="path26" />
  <path
     clip-path="url(#clip130)"
     d="M1711.55 1727.88 L1711.55 1735.94 Q1707.94 1734.08 1704.05 1733.16 Q1700.16 1732.23 1696 1732.23 Q1689.65 1732.23 1686.46 1734.18 Q1683.31 1736.12 1683.31 1740.01 Q1683.31 1742.97 1685.58 1744.69 Q1687.85 1746.35 1694.7 1747.88 L1697.62 1748.53 Q1706.69 1750.47 1710.49 1754.04 Q1714.33 1757.56 1714.33 1763.9 Q1714.33 1771.12 1708.59 1775.33 Q1702.89 1779.55 1692.89 1779.55 Q1688.73 1779.55 1684.19 1778.71 Q1679.7 1777.93 1674.7 1776.31 L1674.7 1767.51 Q1679.42 1769.96 1684.01 1771.21 Q1688.59 1772.42 1693.08 1772.42 Q1699.1 1772.42 1702.34 1770.38 Q1705.58 1768.3 1705.58 1764.55 Q1705.58 1761.07 1703.22 1759.22 Q1700.9 1757.37 1692.99 1755.66 L1690.02 1754.96 Q1682.11 1753.3 1678.59 1749.87 Q1675.07 1746.4 1675.07 1740.38 Q1675.07 1733.07 1680.26 1729.08 Q1685.44 1725.1 1694.98 1725.1 Q1699.7 1725.1 1703.87 1725.8 Q1708.03 1726.49 1711.55 1727.88 Z"
     fill="#000000"
     fill-rule="nonzero"
     fill-opacity="1"
     id="path27" />
  <polyline
     clip-path="url(#clip130)"
     style="stroke:#000000; stroke-linecap:round; stroke-linejoin:round; stroke-width:4; stroke-opacity:1; fill:none"
     points="431.414,1562.54 431.414,47.2441 "
     id="polyline27" />
  <polyline
     clip-path="url(#clip130)"
     style="stroke:#000000; stroke-linecap:round; stroke-linejoin:round; stroke-width:4; stroke-opacity:1; fill:none"
     points="431.414,1468 450.312,1468 "
     id="polyline28" />
  <polyline
     clip-path="url(#clip130)"
     style="stroke:#000000; stroke-linecap:round; stroke-linejoin:round; stroke-width:4; stroke-opacity:1; fill:none"
     points="431.414,1221.59 450.312,1221.59 "
     id="polyline29" />
  <polyline
     clip-path="url(#clip130)"
     style="stroke:#000000; stroke-linecap:round; stroke-linejoin:round; stroke-width:4; stroke-opacity:1; fill:none"
     points="431.414,975.186 450.312,975.186 "
     id="polyline30" />
  <polyline
     clip-path="url(#clip130)"
     style="stroke:#000000; stroke-linecap:round; stroke-linejoin:round; stroke-width:4; stroke-opacity:1; fill:none"
     points="431.414,728.781 450.312,728.781 "
     id="polyline31" />
  <polyline
     clip-path="url(#clip130)"
     style="stroke:#000000; stroke-linecap:round; stroke-linejoin:round; stroke-width:4; stroke-opacity:1; fill:none"
     points="431.414,482.377 450.312,482.377 "
     id="polyline32" />
  <polyline
     clip-path="url(#clip130)"
     style="stroke:#000000; stroke-linecap:round; stroke-linejoin:round; stroke-width:4; stroke-opacity:1; fill:none"
     points="431.414,235.972 450.312,235.972 "
     id="polyline33" />
  <path
     clip-path="url(#clip130)"
     d="M185.532 1443.14 Q179.213 1443.14 176.013 1449.38 Q172.853 1455.58 172.853 1468.06 Q172.853 1480.49 176.013 1486.73 Q179.213 1492.93 185.532 1492.93 Q191.892 1492.93 195.052 1486.73 Q198.252 1480.49 198.252 1468.06 Q198.252 1455.58 195.052 1449.38 Q191.892 1443.14 185.532 1443.14 M185.532 1436.66 Q195.7 1436.66 201.047 1444.72 Q206.435 1452.74 206.435 1468.06 Q206.435 1483.33 201.047 1491.39 Q195.7 1499.41 185.532 1499.41 Q175.364 1499.41 169.977 1491.39 Q164.63 1483.33 164.63 1468.06 Q164.63 1452.74 169.977 1444.72 Q175.364 1436.66 185.532 1436.66 Z"
     fill="#000000"
     fill-rule="nonzero"
     fill-opacity="1"
     id="path33" />
  <path
     clip-path="url(#clip130)"
     d="M220.816 1487.95 L229.363 1487.95 L229.363 1498.24 L220.816 1498.24 L220.816 1487.95 Z"
     fill="#000000"
     fill-rule="nonzero"
     fill-opacity="1"
     id="path34" />
  <path
     clip-path="url(#clip130)"
     d="M264.687 1443.14 Q258.367 1443.14 255.167 1449.38 Q252.008 1455.58 252.008 1468.06 Q252.008 1480.49 255.167 1486.73 Q258.367 1492.93 264.687 1492.93 Q271.047 1492.93 274.206 1486.73 Q277.407 1480.49 277.407 1468.06 Q277.407 1455.58 274.206 1449.38 Q271.047 1443.14 264.687 1443.14 M264.687 1436.66 Q274.855 1436.66 280.202 1444.72 Q285.59 1452.74 285.59 1468.06 Q285.59 1483.33 280.202 1491.39 Q274.855 1499.41 264.687 1499.41 Q254.519 1499.41 249.131 1491.39 Q243.784 1483.33 243.784 1468.06 Q243.784 1452.74 249.131 1444.72 Q254.519 1436.66 264.687 1436.66 Z"
     fill="#000000"
     fill-rule="nonzero"
     fill-opacity="1"
     id="path35" />
  <path
     clip-path="url(#clip130)"
     d="M324.762 1465.63 Q330.636 1466.88 333.917 1470.85 Q337.239 1474.82 337.239 1480.65 Q337.239 1489.61 331.081 1494.51 Q324.924 1499.41 313.581 1499.41 Q309.773 1499.41 305.723 1498.64 Q301.712 1497.91 297.418 1496.41 L297.418 1488.51 Q300.821 1490.5 304.872 1491.51 Q308.923 1492.52 313.338 1492.52 Q321.035 1492.52 325.045 1489.49 Q329.096 1486.45 329.096 1480.65 Q329.096 1475.31 325.329 1472.31 Q321.602 1469.27 314.918 1469.27 L307.87 1469.27 L307.87 1462.55 L315.242 1462.55 Q321.278 1462.55 324.478 1460.16 Q327.678 1457.73 327.678 1453.19 Q327.678 1448.53 324.357 1446.06 Q321.075 1443.55 314.918 1443.55 Q311.556 1443.55 307.707 1444.28 Q303.859 1445.01 299.241 1446.55 L299.241 1439.25 Q303.9 1437.96 307.951 1437.31 Q312.042 1436.66 315.647 1436.66 Q324.964 1436.66 330.393 1440.91 Q335.821 1445.13 335.821 1452.34 Q335.821 1457.36 332.945 1460.85 Q330.068 1464.29 324.762 1465.63 Z"
     fill="#000000"
     fill-rule="nonzero"
     fill-opacity="1"
     id="path36" />
  <path
     clip-path="url(#clip130)"
     d="M352.835 1437.76 L384.958 1437.76 L384.958 1444.64 L360.329 1444.64 L360.329 1459.47 Q362.111 1458.86 363.894 1458.58 Q365.676 1458.25 367.458 1458.25 Q377.586 1458.25 383.5 1463.8 Q389.414 1469.35 389.414 1478.83 Q389.414 1488.59 383.338 1494.02 Q377.262 1499.41 366.203 1499.41 Q362.395 1499.41 358.425 1498.76 Q354.495 1498.11 350.282 1496.82 L350.282 1488.59 Q353.928 1490.58 357.817 1491.55 Q361.706 1492.52 366.04 1492.52 Q373.049 1492.52 377.14 1488.84 Q381.231 1485.15 381.231 1478.83 Q381.231 1472.51 377.14 1468.83 Q373.049 1465.14 366.04 1465.14 Q362.759 1465.14 359.478 1465.87 Q356.237 1466.6 352.835 1468.14 L352.835 1437.76 Z"
     fill="#000000"
     fill-rule="nonzero"
     fill-opacity="1"
     id="path37" />
  <path
     clip-path="url(#clip130)"
     d="M183.79 1196.74 Q177.471 1196.74 174.271 1202.98 Q171.111 1209.17 171.111 1221.65 Q171.111 1234.09 174.271 1240.33 Q177.471 1246.52 183.79 1246.52 Q190.15 1246.52 193.31 1240.33 Q196.51 1234.09 196.51 1221.65 Q196.51 1209.17 193.31 1202.98 Q190.15 1196.74 183.79 1196.74 M183.79 1190.26 Q193.958 1190.26 199.305 1198.32 Q204.693 1206.34 204.693 1221.65 Q204.693 1236.92 199.305 1244.98 Q193.958 1253.01 183.79 1253.01 Q173.623 1253.01 168.235 1244.98 Q162.888 1236.92 162.888 1221.65 Q162.888 1206.34 168.235 1198.32 Q173.623 1190.26 183.79 1190.26 Z"
     fill="#000000"
     fill-rule="nonzero"
     fill-opacity="1"
     id="path38" />
  <path
     clip-path="url(#clip130)"
     d="M219.074 1241.54 L227.621 1241.54 L227.621 1251.83 L219.074 1251.83 L219.074 1241.54 Z"
     fill="#000000"
     fill-rule="nonzero"
     fill-opacity="1"
     id="path39" />
  <path
     clip-path="url(#clip130)"
     d="M262.945 1196.74 Q256.626 1196.74 253.425 1202.98 Q250.266 1209.17 250.266 1221.65 Q250.266 1234.09 253.425 1240.33 Q256.626 1246.52 262.945 1246.52 Q269.305 1246.52 272.465 1240.33 Q275.665 1234.09 275.665 1221.65 Q275.665 1209.17 272.465 1202.98 Q269.305 1196.74 262.945 1196.74 M262.945 1190.26 Q273.113 1190.26 278.46 1198.32 Q283.848 1206.34 283.848 1221.65 Q283.848 1236.92 278.46 1244.98 Q273.113 1253.01 262.945 1253.01 Q252.777 1253.01 247.39 1244.98 Q242.042 1236.92 242.042 1221.65 Q242.042 1206.34 247.39 1198.32 Q252.777 1190.26 262.945 1190.26 Z"
     fill="#000000"
     fill-rule="nonzero"
     fill-opacity="1"
     id="path40" />
  <path
     clip-path="url(#clip130)"
     d="M320.711 1198.48 L300.051 1230.77 L320.711 1230.77 L320.711 1198.48 M318.564 1191.35 L328.853 1191.35 L328.853 1230.77 L337.482 1230.77 L337.482 1237.57 L328.853 1237.57 L328.853 1251.83 L320.711 1251.83 L320.711 1237.57 L293.408 1237.57 L293.408 1229.67 L318.564 1191.35 Z"
     fill="#000000"
     fill-rule="nonzero"
     fill-opacity="1"
     id="path41" />
  <path
     clip-path="url(#clip130)"
     d="M368.512 1196.74 Q362.192 1196.74 358.992 1202.98 Q355.832 1209.17 355.832 1221.65 Q355.832 1234.09 358.992 1240.33 Q362.192 1246.52 368.512 1246.52 Q374.871 1246.52 378.031 1240.33 Q381.231 1234.09 381.231 1221.65 Q381.231 1209.17 378.031 1202.98 Q374.871 1196.74 368.512 1196.74 M368.512 1190.26 Q378.679 1190.26 384.027 1198.32 Q389.414 1206.34 389.414 1221.65 Q389.414 1236.92 384.027 1244.98 Q378.679 1253.01 368.512 1253.01 Q358.344 1253.01 352.956 1244.98 Q347.609 1236.92 347.609 1221.65 Q347.609 1206.34 352.956 1198.32 Q358.344 1190.26 368.512 1190.26 Z"
     fill="#000000"
     fill-rule="nonzero"
     fill-opacity="1"
     id="path42" />
  <path
     clip-path="url(#clip130)"
     d="M185.532 950.334 Q179.213 950.334 176.013 956.572 Q172.853 962.77 172.853 975.247 Q172.853 987.683 176.013 993.921 Q179.213 1000.12 185.532 1000.12 Q191.892 1000.12 195.052 993.921 Q198.252 987.683 198.252 975.247 Q198.252 962.77 195.052 956.572 Q191.892 950.334 185.532 950.334 M185.532 943.852 Q195.7 943.852 201.047 951.914 Q206.435 959.934 206.435 975.247 Q206.435 990.519 201.047 998.58 Q195.7 1006.6 185.532 1006.6 Q175.364 1006.6 169.977 998.58 Q164.63 990.519 164.63 975.247 Q164.63 959.934 169.977 951.914 Q175.364 943.852 185.532 943.852 Z"
     fill="#000000"
     fill-rule="nonzero"
     fill-opacity="1"
     id="path43" />
  <path
     clip-path="url(#clip130)"
     d="M220.816 995.137 L229.363 995.137 L229.363 1005.43 L220.816 1005.43 L220.816 995.137 Z"
     fill="#000000"
     fill-rule="nonzero"
     fill-opacity="1"
     id="path44" />
  <path
     clip-path="url(#clip130)"
     d="M264.687 950.334 Q258.367 950.334 255.167 956.572 Q252.008 962.77 252.008 975.247 Q252.008 987.683 255.167 993.921 Q258.367 1000.12 264.687 1000.12 Q271.047 1000.12 274.206 993.921 Q277.407 987.683 277.407 975.247 Q277.407 962.77 274.206 956.572 Q271.047 950.334 264.687 950.334 M264.687 943.852 Q274.855 943.852 280.202 951.914 Q285.59 959.934 285.59 975.247 Q285.59 990.519 280.202 998.58 Q274.855 1006.6 264.687 1006.6 Q254.519 1006.6 249.131 998.58 Q243.784 990.519 243.784 975.247 Q243.784 959.934 249.131 951.914 Q254.519 943.852 264.687 943.852 Z"
     fill="#000000"
     fill-rule="nonzero"
     fill-opacity="1"
     id="path45" />
  <path
     clip-path="url(#clip130)"
     d="M322.453 952.076 L301.793 984.361 L322.453 984.361 L322.453 952.076 M320.306 944.946 L330.595 944.946 L330.595 984.361 L339.224 984.361 L339.224 991.167 L330.595 991.167 L330.595 1005.43 L322.453 1005.43 L322.453 991.167 L295.15 991.167 L295.15 983.268 L320.306 944.946 Z"
     fill="#000000"
     fill-rule="nonzero"
     fill-opacity="1"
     id="path46" />
  <path
     clip-path="url(#clip130)"
     d="M352.835 944.946 L384.958 944.946 L384.958 951.833 L360.329 951.833 L360.329 966.659 Q362.111 966.051 363.894 965.768 Q365.676 965.444 367.458 965.444 Q377.586 965.444 383.5 970.993 Q389.414 976.543 389.414 986.022 Q389.414 995.785 383.338 1001.21 Q377.262 1006.6 366.203 1006.6 Q362.395 1006.6 358.425 1005.95 Q354.495 1005.3 350.282 1004.01 L350.282 995.785 Q353.928 997.77 357.817 998.742 Q361.706 999.714 366.04 999.714 Q373.049 999.714 377.14 996.028 Q381.231 992.342 381.231 986.022 Q381.231 979.703 377.14 976.016 Q373.049 972.33 366.04 972.33 Q362.759 972.33 359.478 973.059 Q356.237 973.788 352.835 975.328 L352.835 944.946 Z"
     fill="#000000"
     fill-rule="nonzero"
     fill-opacity="1"
     id="path47" />
  <path
     clip-path="url(#clip130)"
     d="M183.79 703.929 Q177.471 703.929 174.271 710.168 Q171.111 716.365 171.111 728.842 Q171.111 741.278 174.271 747.517 Q177.471 753.715 183.79 753.715 Q190.15 753.715 193.31 747.517 Q196.51 741.278 196.51 728.842 Q196.51 716.365 193.31 710.168 Q190.15 703.929 183.79 703.929 M183.79 697.448 Q193.958 697.448 199.305 705.509 Q204.693 713.53 204.693 728.842 Q204.693 744.114 199.305 752.175 Q193.958 760.196 183.79 760.196 Q173.623 760.196 168.235 752.175 Q162.888 744.114 162.888 728.842 Q162.888 713.53 168.235 705.509 Q173.623 697.448 183.79 697.448 Z"
     fill="#000000"
     fill-rule="nonzero"
     fill-opacity="1"
     id="path48" />
  <path
     clip-path="url(#clip130)"
     d="M219.074 748.732 L227.621 748.732 L227.621 759.021 L219.074 759.021 L219.074 748.732 Z"
     fill="#000000"
     fill-rule="nonzero"
     fill-opacity="1"
     id="path49" />
  <path
     clip-path="url(#clip130)"
     d="M262.945 703.929 Q256.626 703.929 253.425 710.168 Q250.266 716.365 250.266 728.842 Q250.266 741.278 253.425 747.517 Q256.626 753.715 262.945 753.715 Q269.305 753.715 272.465 747.517 Q275.665 741.278 275.665 728.842 Q275.665 716.365 272.465 710.168 Q269.305 703.929 262.945 703.929 M262.945 697.448 Q273.113 697.448 278.46 705.509 Q283.848 713.53 283.848 728.842 Q283.848 744.114 278.46 752.175 Q273.113 760.196 262.945 760.196 Q252.777 760.196 247.39 752.175 Q242.042 744.114 242.042 728.842 Q242.042 713.53 247.39 705.509 Q252.777 697.448 262.945 697.448 Z"
     fill="#000000"
     fill-rule="nonzero"
     fill-opacity="1"
     id="path50" />
  <path
     clip-path="url(#clip130)"
     d="M298.309 698.541 L330.433 698.541 L330.433 705.428 L305.804 705.428 L305.804 720.254 Q307.586 719.647 309.368 719.363 Q311.151 719.039 312.933 719.039 Q323.06 719.039 328.975 724.589 Q334.889 730.138 334.889 739.618 Q334.889 749.38 328.813 754.809 Q322.736 760.196 311.677 760.196 Q307.87 760.196 303.9 759.548 Q299.97 758.9 295.757 757.604 L295.757 749.38 Q299.403 751.365 303.292 752.337 Q307.181 753.31 311.515 753.31 Q318.523 753.31 322.615 749.623 Q326.706 745.937 326.706 739.618 Q326.706 733.298 322.615 729.612 Q318.523 725.926 311.515 725.926 Q308.234 725.926 304.953 726.655 Q301.712 727.384 298.309 728.923 L298.309 698.541 Z"
     fill="#000000"
     fill-rule="nonzero"
     fill-opacity="1"
     id="path51" />
  <path
     clip-path="url(#clip130)"
     d="M368.512 703.929 Q362.192 703.929 358.992 710.168 Q355.832 716.365 355.832 728.842 Q355.832 741.278 358.992 747.517 Q362.192 753.715 368.512 753.715 Q374.871 753.715 378.031 747.517 Q381.231 741.278 381.231 728.842 Q381.231 716.365 378.031 710.168 Q374.871 703.929 368.512 703.929 M368.512 697.448 Q378.679 697.448 384.027 705.509 Q389.414 713.53 389.414 728.842 Q389.414 744.114 384.027 752.175 Q378.679 760.196 368.512 760.196 Q358.344 760.196 352.956 752.175 Q347.609 744.114 347.609 728.842 Q347.609 713.53 352.956 705.509 Q358.344 697.448 368.512 697.448 Z"
     fill="#000000"
     fill-rule="nonzero"
     fill-opacity="1"
     id="path52" />
  <path
     clip-path="url(#clip130)"
     d="M185.532 457.525 Q179.213 457.525 176.013 463.763 Q172.853 469.961 172.853 482.438 Q172.853 494.874 176.013 501.112 Q179.213 507.31 185.532 507.31 Q191.892 507.31 195.052 501.112 Q198.252 494.874 198.252 482.438 Q198.252 469.961 195.052 463.763 Q191.892 457.525 185.532 457.525 M185.532 451.043 Q195.7 451.043 201.047 459.104 Q206.435 467.125 206.435 482.438 Q206.435 497.71 201.047 505.771 Q195.7 513.792 185.532 513.792 Q175.364 513.792 169.977 505.771 Q164.63 497.71 164.63 482.438 Q164.63 467.125 169.977 459.104 Q175.364 451.043 185.532 451.043 Z"
     fill="#000000"
     fill-rule="nonzero"
     fill-opacity="1"
     id="path53" />
  <path
     clip-path="url(#clip130)"
     d="M220.816 502.328 L229.363 502.328 L229.363 512.617 L220.816 512.617 L220.816 502.328 Z"
     fill="#000000"
     fill-rule="nonzero"
     fill-opacity="1"
     id="path54" />
  <path
     clip-path="url(#clip130)"
     d="M264.687 457.525 Q258.367 457.525 255.167 463.763 Q252.008 469.961 252.008 482.438 Q252.008 494.874 255.167 501.112 Q258.367 507.31 264.687 507.31 Q271.047 507.31 274.206 501.112 Q277.407 494.874 277.407 482.438 Q277.407 469.961 274.206 463.763 Q271.047 457.525 264.687 457.525 M264.687 451.043 Q274.855 451.043 280.202 459.104 Q285.59 467.125 285.59 482.438 Q285.59 497.71 280.202 505.771 Q274.855 513.792 264.687 513.792 Q254.519 513.792 249.131 505.771 Q243.784 497.71 243.784 482.438 Q243.784 467.125 249.131 459.104 Q254.519 451.043 264.687 451.043 Z"
     fill="#000000"
     fill-rule="nonzero"
     fill-opacity="1"
     id="path55" />
  <path
     clip-path="url(#clip130)"
     d="M300.051 452.137 L332.175 452.137 L332.175 459.023 L307.545 459.023 L307.545 473.85 Q309.328 473.242 311.11 472.958 Q312.893 472.634 314.675 472.634 Q324.802 472.634 330.717 478.184 Q336.631 483.734 336.631 493.213 Q336.631 502.976 330.555 508.404 Q324.478 513.792 313.419 513.792 Q309.611 513.792 305.642 513.143 Q301.712 512.495 297.499 511.199 L297.499 502.976 Q301.145 504.961 305.034 505.933 Q308.923 506.905 313.257 506.905 Q320.265 506.905 324.357 503.219 Q328.448 499.532 328.448 493.213 Q328.448 486.894 324.357 483.207 Q320.265 479.521 313.257 479.521 Q309.976 479.521 306.695 480.25 Q303.454 480.979 300.051 482.519 L300.051 452.137 Z"
     fill="#000000"
     fill-rule="nonzero"
     fill-opacity="1"
     id="path56" />
  <path
     clip-path="url(#clip130)"
     d="M352.835 452.137 L384.958 452.137 L384.958 459.023 L360.329 459.023 L360.329 473.85 Q362.111 473.242 363.894 472.958 Q365.676 472.634 367.458 472.634 Q377.586 472.634 383.5 478.184 Q389.414 483.734 389.414 493.213 Q389.414 502.976 383.338 508.404 Q377.262 513.792 366.203 513.792 Q362.395 513.792 358.425 513.143 Q354.495 512.495 350.282 511.199 L350.282 502.976 Q353.928 504.961 357.817 505.933 Q361.706 506.905 366.04 506.905 Q373.049 506.905 377.14 503.219 Q381.231 499.532 381.231 493.213 Q381.231 486.894 377.14 483.207 Q373.049 479.521 366.04 479.521 Q362.759 479.521 359.478 480.25 Q356.237 480.979 352.835 482.519 L352.835 452.137 Z"
     fill="#000000"
     fill-rule="nonzero"
     fill-opacity="1"
     id="path57" />
  <path
     clip-path="url(#clip130)"
     d="M183.79 211.12 Q177.471 211.12 174.271 217.358 Q171.111 223.556 171.111 236.033 Q171.111 248.469 174.271 254.708 Q177.471 260.906 183.79 260.906 Q190.15 260.906 193.31 254.708 Q196.51 248.469 196.51 236.033 Q196.51 223.556 193.31 217.358 Q190.15 211.12 183.79 211.12 M183.79 204.638 Q193.958 204.638 199.305 212.7 Q204.693 220.721 204.693 236.033 Q204.693 251.305 199.305 259.366 Q193.958 267.387 183.79 267.387 Q173.623 267.387 168.235 259.366 Q162.888 251.305 162.888 236.033 Q162.888 220.721 168.235 212.7 Q173.623 204.638 183.79 204.638 Z"
     fill="#000000"
     fill-rule="nonzero"
     fill-opacity="1"
     id="path58" />
  <path
     clip-path="url(#clip130)"
     d="M219.074 255.923 L227.621 255.923 L227.621 266.212 L219.074 266.212 L219.074 255.923 Z"
     fill="#000000"
     fill-rule="nonzero"
     fill-opacity="1"
     id="path59" />
  <path
     clip-path="url(#clip130)"
     d="M262.945 211.12 Q256.626 211.12 253.425 217.358 Q250.266 223.556 250.266 236.033 Q250.266 248.469 253.425 254.708 Q256.626 260.906 262.945 260.906 Q269.305 260.906 272.465 254.708 Q275.665 248.469 275.665 236.033 Q275.665 223.556 272.465 217.358 Q269.305 211.12 262.945 211.12 M262.945 204.638 Q273.113 204.638 278.46 212.7 Q283.848 220.721 283.848 236.033 Q283.848 251.305 278.46 259.366 Q273.113 267.387 262.945 267.387 Q252.777 267.387 247.39 259.366 Q242.042 251.305 242.042 236.033 Q242.042 220.721 247.39 212.7 Q252.777 204.638 262.945 204.638 Z"
     fill="#000000"
     fill-rule="nonzero"
     fill-opacity="1"
     id="path60" />
  <path
     clip-path="url(#clip130)"
     d="M316.741 232.711 Q311.232 232.711 307.991 236.479 Q304.791 240.246 304.791 246.808 Q304.791 253.33 307.991 257.138 Q311.232 260.906 316.741 260.906 Q322.25 260.906 325.45 257.138 Q328.691 253.33 328.691 246.808 Q328.691 240.246 325.45 236.479 Q322.25 232.711 316.741 232.711 M332.985 207.069 L332.985 214.523 Q329.906 213.064 326.747 212.295 Q323.628 211.525 320.549 211.525 Q312.447 211.525 308.153 216.994 Q303.9 222.462 303.292 233.521 Q305.682 229.997 309.287 228.134 Q312.893 226.23 317.227 226.23 Q326.342 226.23 331.608 231.78 Q336.914 237.289 336.914 246.808 Q336.914 256.125 331.405 261.756 Q325.896 267.387 316.741 267.387 Q306.249 267.387 300.699 259.366 Q295.15 251.305 295.15 236.033 Q295.15 221.693 301.955 213.186 Q308.761 204.638 320.225 204.638 Q323.303 204.638 326.423 205.246 Q329.582 205.854 332.985 207.069 Z"
     fill="#000000"
     fill-rule="nonzero"
     fill-opacity="1"
     id="path61" />
  <path
     clip-path="url(#clip130)"
     d="M368.512 211.12 Q362.192 211.12 358.992 217.358 Q355.832 223.556 355.832 236.033 Q355.832 248.469 358.992 254.708 Q362.192 260.906 368.512 260.906 Q374.871 260.906 378.031 254.708 Q381.231 248.469 381.231 236.033 Q381.231 223.556 378.031 217.358 Q374.871 211.12 368.512 211.12 M368.512 204.638 Q378.679 204.638 384.027 212.7 Q389.414 220.721 389.414 236.033 Q389.414 251.305 384.027 259.366 Q378.679 267.387 368.512 267.387 Q358.344 267.387 352.956 259.366 Q347.609 251.305 347.609 236.033 Q347.609 220.721 352.956 212.7 Q358.344 204.638 368.512 204.638 Z"
     fill="#000000"
     fill-rule="nonzero"
     fill-opacity="1"
     id="path62" />
  <path
     clip-path="url(#clip130)"
     d="M67.7444 898.318 Q68.7629 895.308 72.0962 892.484 Q75.4296 889.614 81.2629 886.744 L100.152 877.253 L100.152 887.299 L82.4203 896.142 Q75.4759 899.568 73.2073 902.808 Q70.9388 906.003 70.9388 911.558 L70.9388 921.743 L100.152 921.743 L100.152 931.095 L31.0316 931.095 L31.0316 909.984 Q31.0316 898.132 35.9853 892.299 Q40.939 886.466 50.9389 886.466 Q57.4667 886.466 61.7722 889.521 Q66.0778 892.531 67.7444 898.318 M38.7168 921.743 L63.2537 921.743 L63.2537 909.984 Q63.2537 903.225 60.1519 899.799 Q57.0037 896.327 50.9389 896.327 Q44.8742 896.327 41.8186 899.799 Q38.7168 903.225 38.7168 909.984 L38.7168 921.743 Z"
     fill="#000000"
     fill-rule="nonzero"
     fill-opacity="1"
     id="path63" />
  <path
     clip-path="url(#clip130)"
     d="M31.0316 865.216 L31.0316 851.281 L78.0684 833.642 L31.0316 815.911 L31.0316 801.976 L100.152 801.976 L100.152 811.096 L39.4575 811.096 L86.8647 828.92 L86.8647 838.318 L39.4575 856.142 L100.152 856.142 L100.152 865.216 L31.0316 865.216 Z"
     fill="#000000"
     fill-rule="nonzero"
     fill-opacity="1"
     id="path64" />
  <path
     clip-path="url(#clip130)"
     d="M33.3002 741.976 L42.4205 741.976 Q39.8742 747.3 38.6242 752.022 Q37.3742 756.744 37.3742 761.142 Q37.3742 768.781 40.3372 772.948 Q43.3001 777.068 48.763 777.068 Q53.3463 777.068 55.7074 774.337 Q58.0222 771.559 59.4574 763.874 L60.6148 758.226 Q62.6056 747.763 67.6518 742.809 Q72.6518 737.809 81.0777 737.809 Q91.1239 737.809 96.3091 744.568 Q101.494 751.281 101.494 764.291 Q101.494 769.198 100.383 774.754 Q99.272 780.263 97.0961 786.189 L87.4665 786.189 Q90.661 780.494 92.2813 775.031 Q93.9017 769.568 93.9017 764.291 Q93.9017 756.281 90.7536 751.93 Q87.6054 747.578 81.7721 747.578 Q76.6796 747.578 73.8092 750.726 Q70.9388 753.828 69.5037 760.957 L68.3926 766.652 Q66.3092 777.115 61.8648 781.791 Q57.4204 786.466 49.5038 786.466 Q40.3372 786.466 35.0594 780.031 Q29.7817 773.55 29.7817 762.207 Q29.7817 757.346 30.6613 752.3 Q31.5409 747.254 33.3002 741.976 Z"
     fill="#000000"
     fill-rule="nonzero"
     fill-opacity="1"
     id="path65" />
  <path
     clip-path="url(#clip130)"
     d="M31.0316 723.226 L31.0316 679.523 L38.902 679.523 L38.902 713.874 L59.3648 713.874 L59.3648 680.958 L67.2352 680.958 L67.2352 713.874 L92.2813 713.874 L92.2813 678.689 L100.152 678.689 L100.152 723.226 L31.0316 723.226 Z"
     fill="#000000"
     fill-rule="nonzero"
     fill-opacity="1"
     id="path66" />
  <polyline
     clip-path="url(#clip132)"
     style="stroke:#0000ff; stroke-linecap:round; stroke-linejoin:round; stroke-width:4; stroke-opacity:1; fill:none"
     points="484.956,90.1298 1079.86,179.569 1674.77,1519.65 2269.68,1075.09 "
     id="polyline66" />
  <circle
     clip-path="url(#clip132)"
     cx="484.956"
     cy="90.1298"
     r="18"
     fill="#0000ff"
     fill-rule="evenodd"
     fill-opacity="1"
     stroke="#000000"
     stroke-opacity="1"
     stroke-width="3.6"
     id="circle66" />
  <circle
     clip-path="url(#clip132)"
     cx="1079.86"
     cy="179.569"
     r="18"
     fill="#0000ff"
     fill-rule="evenodd"
     fill-opacity="1"
     stroke="#000000"
     stroke-opacity="1"
     stroke-width="3.6"
     id="circle67" />
  <circle
     clip-path="url(#clip132)"
     cx="1674.77"
     cy="1519.65"
     r="18"
     fill="#0000ff"
     fill-rule="evenodd"
     fill-opacity="1"
     stroke="#000000"
     stroke-opacity="1"
     stroke-width="3.6"
     id="circle68" />
  <circle
     clip-path="url(#clip132)"
     cx="2269.68"
     cy="1075.09"
     r="18"
     fill="#0000ff"
     fill-rule="evenodd"
     fill-opacity="1"
     stroke="#000000"
     stroke-opacity="1"
     stroke-width="3.6"
     id="circle69" />
  <polyline
     clip-path="url(#clip132)"
     style="stroke:#000000; stroke-linecap:round; stroke-linejoin:round; stroke-width:2; stroke-opacity:0.1; fill:none"
     points="431.414,1370.09 2323.22,1370.09 "
     id="polyline69" />
  <polyline
     clip-path="url(#clip132)"
     style="stroke:#000000; stroke-linecap:round; stroke-linejoin:round; stroke-width:2; stroke-opacity:0.1; fill:none"
     points="431.414,1058.49 2323.22,1058.49 "
     id="polyline70" />
  <polyline
     clip-path="url(#clip132)"
     style="stroke:#000000; stroke-linecap:round; stroke-linejoin:round; stroke-width:2; stroke-opacity:0.1; fill:none"
     points="431.414,746.895 2323.22,746.895 "
     id="polyline71" />
  <polyline
     clip-path="url(#clip132)"
     style="stroke:#000000; stroke-linecap:round; stroke-linejoin:round; stroke-width:2; stroke-opacity:0.1; fill:none"
     points="431.414,435.299 2323.22,435.299 "
     id="polyline72" />
  <polyline
     clip-path="url(#clip132)"
     style="stroke:#000000; stroke-linecap:round; stroke-linejoin:round; stroke-width:2; stroke-opacity:0.1; fill:none"
     points="431.414,123.702 2323.22,123.702 "
     id="polyline73" />
  <polyline
     clip-path="url(#clip130)"
     style="stroke:#000000; stroke-linecap:round; stroke-linejoin:round; stroke-width:4; stroke-opacity:1; fill:none"
     points="2323.22,1562.54 2323.22,47.2441 "
     id="polyline74" />
  <polyline
     clip-path="url(#clip130)"
     style="stroke:#000000; stroke-linecap:round; stroke-linejoin:round; stroke-width:4; stroke-opacity:1; fill:none"
     points="2323.22,1370.09 2304.32,1370.09 "
     id="polyline75" />
  <polyline
     clip-path="url(#clip130)"
     style="stroke:#000000; stroke-linecap:round; stroke-linejoin:round; stroke-width:4; stroke-opacity:1; fill:none"
     points="2323.22,1058.49 2304.32,1058.49 "
     id="polyline76" />
  <polyline
     clip-path="url(#clip130)"
     style="stroke:#000000; stroke-linecap:round; stroke-linejoin:round; stroke-width:4; stroke-opacity:1; fill:none"
     points="2323.22,746.895 2304.32,746.895 "
     id="polyline77" />
  <polyline
     clip-path="url(#clip130)"
     style="stroke:#000000; stroke-linecap:round; stroke-linejoin:round; stroke-width:4; stroke-opacity:1; fill:none"
     points="2323.22,435.299 2304.32,435.299 "
     id="polyline78" />
  <polyline
     clip-path="url(#clip130)"
     style="stroke:#000000; stroke-linecap:round; stroke-linejoin:round; stroke-width:4; stroke-opacity:1; fill:none"
     points="2323.22,123.702 2304.32,123.702 "
     id="polyline79" />
  <path
     clip-path="url(#clip130)"
     d="M2386.12 1345.24 Q2379.8 1345.24 2376.6 1351.47 Q2373.44 1357.67 2373.44 1370.15 Q2373.44 1382.59 2376.6 1388.82 Q2379.8 1395.02 2386.12 1395.02 Q2392.48 1395.02 2395.64 1388.82 Q2398.84 1382.59 2398.84 1370.15 Q2398.84 1357.67 2395.64 1351.47 Q2392.48 1345.24 2386.12 1345.24 M2386.12 1338.75 Q2396.29 1338.75 2401.64 1346.82 Q2407.03 1354.84 2407.03 1370.15 Q2407.03 1385.42 2401.64 1393.48 Q2396.29 1401.5 2386.12 1401.5 Q2375.96 1401.5 2370.57 1393.48 Q2365.22 1385.42 2365.22 1370.15 Q2365.22 1354.84 2370.57 1346.82 Q2375.96 1338.75 2386.12 1338.75 Z"
     fill="#000000"
     fill-rule="nonzero"
     fill-opacity="1"
     id="path79" />
  <path
     clip-path="url(#clip130)"
     d="M2421.41 1390.04 L2429.96 1390.04 L2429.96 1400.33 L2421.41 1400.33 L2421.41 1390.04 Z"
     fill="#000000"
     fill-rule="nonzero"
     fill-opacity="1"
     id="path80" />
  <path
     clip-path="url(#clip130)"
     d="M2465.28 1345.24 Q2458.96 1345.24 2455.76 1351.47 Q2452.6 1357.67 2452.6 1370.15 Q2452.6 1382.59 2455.76 1388.82 Q2458.96 1395.02 2465.28 1395.02 Q2471.64 1395.02 2474.8 1388.82 Q2478 1382.59 2478 1370.15 Q2478 1357.67 2474.8 1351.47 Q2471.64 1345.24 2465.28 1345.24 M2465.28 1338.75 Q2475.45 1338.75 2480.79 1346.82 Q2486.18 1354.84 2486.18 1370.15 Q2486.18 1385.42 2480.79 1393.48 Q2475.45 1401.5 2465.28 1401.5 Q2455.11 1401.5 2449.72 1393.48 Q2444.38 1385.42 2444.38 1370.15 Q2444.38 1354.84 2449.72 1346.82 Q2455.11 1338.75 2465.28 1338.75 Z"
     fill="#000000"
     fill-rule="nonzero"
     fill-opacity="1"
     id="path81" />
  <path
     clip-path="url(#clip130)"
     d="M2500.64 1339.85 L2532.77 1339.85 L2532.77 1346.74 L2508.14 1346.74 L2508.14 1361.56 Q2509.92 1360.95 2511.7 1360.67 Q2513.48 1360.35 2515.27 1360.35 Q2525.39 1360.35 2531.31 1365.9 Q2537.22 1371.45 2537.22 1380.92 Q2537.22 1390.69 2531.15 1396.12 Q2525.07 1401.5 2514.01 1401.5 Q2510.2 1401.5 2506.23 1400.86 Q2502.3 1400.21 2498.09 1398.91 L2498.09 1390.69 Q2501.74 1392.67 2505.63 1393.64 Q2509.51 1394.62 2513.85 1394.62 Q2520.86 1394.62 2524.95 1390.93 Q2529.04 1387.24 2529.04 1380.92 Q2529.04 1374.61 2524.95 1370.92 Q2520.86 1367.23 2513.85 1367.23 Q2510.57 1367.23 2507.29 1367.96 Q2504.05 1368.69 2500.64 1370.23 L2500.64 1339.85 Z"
     fill="#000000"
     fill-rule="nonzero"
     fill-opacity="1"
     id="path82" />
  <path
     clip-path="url(#clip130)"
     d="M2386.12 1033.64 Q2379.8 1033.64 2376.6 1039.88 Q2373.44 1046.08 2373.44 1058.55 Q2373.44 1070.99 2376.6 1077.23 Q2379.8 1083.43 2386.12 1083.43 Q2392.48 1083.43 2395.64 1077.23 Q2398.84 1070.99 2398.84 1058.55 Q2398.84 1046.08 2395.64 1039.88 Q2392.48 1033.64 2386.12 1033.64 M2386.12 1027.16 Q2396.29 1027.16 2401.64 1035.22 Q2407.03 1043.24 2407.03 1058.55 Q2407.03 1073.82 2401.64 1081.89 Q2396.29 1089.91 2386.12 1089.91 Q2375.96 1089.91 2370.57 1081.89 Q2365.22 1073.82 2365.22 1058.55 Q2365.22 1043.24 2370.57 1035.22 Q2375.96 1027.16 2386.12 1027.16 Z"
     fill="#000000"
     fill-rule="nonzero"
     fill-opacity="1"
     id="path83" />
  <path
     clip-path="url(#clip130)"
     d="M2421.41 1078.44 L2429.96 1078.44 L2429.96 1088.73 L2421.41 1088.73 L2421.41 1078.44 Z"
     fill="#000000"
     fill-rule="nonzero"
     fill-opacity="1"
     id="path84" />
  <path
     clip-path="url(#clip130)"
     d="M2449.2 1081.85 L2462.56 1081.85 L2462.56 1035.71 L2448.02 1038.62 L2448.02 1031.17 L2462.48 1028.25 L2470.67 1028.25 L2470.67 1081.85 L2484.03 1081.85 L2484.03 1088.73 L2449.2 1088.73 L2449.2 1081.85 Z"
     fill="#000000"
     fill-rule="nonzero"
     fill-opacity="1"
     id="path85" />
  <path
     clip-path="url(#clip130)"
     d="M2518.06 1033.64 Q2511.74 1033.64 2508.54 1039.88 Q2505.38 1046.08 2505.38 1058.55 Q2505.38 1070.99 2508.54 1077.23 Q2511.74 1083.43 2518.06 1083.43 Q2524.42 1083.43 2527.58 1077.23 Q2530.78 1070.99 2530.78 1058.55 Q2530.78 1046.08 2527.58 1039.88 Q2524.42 1033.64 2518.06 1033.64 M2518.06 1027.16 Q2528.23 1027.16 2533.58 1035.22 Q2538.96 1043.24 2538.96 1058.55 Q2538.96 1073.82 2533.58 1081.89 Q2528.23 1089.91 2518.06 1089.91 Q2507.89 1089.91 2502.51 1081.89 Q2497.16 1073.82 2497.16 1058.55 Q2497.16 1043.24 2502.51 1035.22 Q2507.89 1027.16 2518.06 1027.16 Z"
     fill="#000000"
     fill-rule="nonzero"
     fill-opacity="1"
     id="path86" />
  <path
     clip-path="url(#clip130)"
     d="M2386.12 722.043 Q2379.8 722.043 2376.6 728.282 Q2373.44 734.479 2373.44 746.956 Q2373.44 759.393 2376.6 765.631 Q2379.8 771.829 2386.12 771.829 Q2392.48 771.829 2395.64 765.631 Q2398.84 759.393 2398.84 746.956 Q2398.84 734.479 2395.64 728.282 Q2392.48 722.043 2386.12 722.043 M2386.12 715.562 Q2396.29 715.562 2401.64 723.623 Q2407.03 731.644 2407.03 746.956 Q2407.03 762.228 2401.64 770.289 Q2396.29 778.31 2386.12 778.31 Q2375.96 778.31 2370.57 770.289 Q2365.22 762.228 2365.22 746.956 Q2365.22 731.644 2370.57 723.623 Q2375.96 715.562 2386.12 715.562 Z"
     fill="#000000"
     fill-rule="nonzero"
     fill-opacity="1"
     id="path87" />
  <path
     clip-path="url(#clip130)"
     d="M2421.41 766.846 L2429.96 766.846 L2429.96 777.135 L2421.41 777.135 L2421.41 766.846 Z"
     fill="#000000"
     fill-rule="nonzero"
     fill-opacity="1"
     id="path88" />
  <path
     clip-path="url(#clip130)"
     d="M2449.2 770.249 L2462.56 770.249 L2462.56 724.109 L2448.02 727.026 L2448.02 719.572 L2462.48 716.655 L2470.67 716.655 L2470.67 770.249 L2484.03 770.249 L2484.03 777.135 L2449.2 777.135 L2449.2 770.249 Z"
     fill="#000000"
     fill-rule="nonzero"
     fill-opacity="1"
     id="path89" />
  <path
     clip-path="url(#clip130)"
     d="M2500.64 716.655 L2532.77 716.655 L2532.77 723.542 L2508.14 723.542 L2508.14 738.368 Q2509.92 737.761 2511.7 737.477 Q2513.48 737.153 2515.27 737.153 Q2525.39 737.153 2531.31 742.703 Q2537.22 748.253 2537.22 757.732 Q2537.22 767.494 2531.15 772.923 Q2525.07 778.31 2514.01 778.31 Q2510.2 778.31 2506.23 777.662 Q2502.3 777.014 2498.09 775.718 L2498.09 767.494 Q2501.74 769.479 2505.63 770.451 Q2509.51 771.424 2513.85 771.424 Q2520.86 771.424 2524.95 767.737 Q2529.04 764.051 2529.04 757.732 Q2529.04 751.412 2524.95 747.726 Q2520.86 744.04 2513.85 744.04 Q2510.57 744.04 2507.29 744.769 Q2504.05 745.498 2500.64 747.037 L2500.64 716.655 Z"
     fill="#000000"
     fill-rule="nonzero"
     fill-opacity="1"
     id="path90" />
  <path
     clip-path="url(#clip130)"
     d="M2386.12 410.447 Q2379.8 410.447 2376.6 416.685 Q2373.44 422.883 2373.44 435.36 Q2373.44 447.796 2376.6 454.034 Q2379.8 460.232 2386.12 460.232 Q2392.48 460.232 2395.64 454.034 Q2398.84 447.796 2398.84 435.36 Q2398.84 422.883 2395.64 416.685 Q2392.48 410.447 2386.12 410.447 M2386.12 403.965 Q2396.29 403.965 2401.64 412.026 Q2407.03 420.047 2407.03 435.36 Q2407.03 450.632 2401.64 458.693 Q2396.29 466.714 2386.12 466.714 Q2375.96 466.714 2370.57 458.693 Q2365.22 450.632 2365.22 435.36 Q2365.22 420.047 2370.57 412.026 Q2375.96 403.965 2386.12 403.965 Z"
     fill="#000000"
     fill-rule="nonzero"
     fill-opacity="1"
     id="path91" />
  <path
     clip-path="url(#clip130)"
     d="M2421.41 455.25 L2429.96 455.25 L2429.96 465.539 L2421.41 465.539 L2421.41 455.25 Z"
     fill="#000000"
     fill-rule="nonzero"
     fill-opacity="1"
     id="path92" />
  <path
     clip-path="url(#clip130)"
     d="M2454.83 458.652 L2483.39 458.652 L2483.39 465.539 L2444.98 465.539 L2444.98 458.652 Q2449.64 453.832 2457.66 445.73 Q2465.72 437.588 2467.79 435.238 Q2471.72 430.823 2473.26 427.784 Q2474.84 424.706 2474.84 421.749 Q2474.84 416.928 2471.44 413.89 Q2468.07 410.852 2462.65 410.852 Q2458.8 410.852 2454.5 412.188 Q2450.25 413.525 2445.39 416.239 L2445.39 407.976 Q2450.33 405.991 2454.63 404.978 Q2458.92 403.965 2462.48 403.965 Q2471.88 403.965 2477.47 408.664 Q2483.06 413.363 2483.06 421.222 Q2483.06 424.949 2481.64 428.311 Q2480.27 431.633 2476.58 436.17 Q2475.57 437.345 2470.14 442.975 Q2464.71 448.566 2454.83 458.652 Z"
     fill="#000000"
     fill-rule="nonzero"
     fill-opacity="1"
     id="path93" />
  <path
     clip-path="url(#clip130)"
     d="M2518.06 410.447 Q2511.74 410.447 2508.54 416.685 Q2505.38 422.883 2505.38 435.36 Q2505.38 447.796 2508.54 454.034 Q2511.74 460.232 2518.06 460.232 Q2524.42 460.232 2527.58 454.034 Q2530.78 447.796 2530.78 435.36 Q2530.78 422.883 2527.58 416.685 Q2524.42 410.447 2518.06 410.447 M2518.06 403.965 Q2528.23 403.965 2533.58 412.026 Q2538.96 420.047 2538.96 435.36 Q2538.96 450.632 2533.58 458.693 Q2528.23 466.714 2518.06 466.714 Q2507.89 466.714 2502.51 458.693 Q2497.16 450.632 2497.16 435.36 Q2497.16 420.047 2502.51 412.026 Q2507.89 403.965 2518.06 403.965 Z"
     fill="#000000"
     fill-rule="nonzero"
     fill-opacity="1"
     id="path94" />
  <path
     clip-path="url(#clip130)"
     d="M2386.12 98.8499 Q2379.8 98.8499 2376.6 105.088 Q2373.44 111.286 2373.44 123.763 Q2373.44 136.199 2376.6 142.438 Q2379.8 148.636 2386.12 148.636 Q2392.48 148.636 2395.64 142.438 Q2398.84 136.199 2398.84 123.763 Q2398.84 111.286 2395.64 105.088 Q2392.48 98.8499 2386.12 98.8499 M2386.12 92.3685 Q2396.29 92.3685 2401.64 100.43 Q2407.03 108.451 2407.03 123.763 Q2407.03 139.035 2401.64 147.096 Q2396.29 155.117 2386.12 155.117 Q2375.96 155.117 2370.57 147.096 Q2365.22 139.035 2365.22 123.763 Q2365.22 108.451 2370.57 100.43 Q2375.96 92.3685 2386.12 92.3685 Z"
     fill="#000000"
     fill-rule="nonzero"
     fill-opacity="1"
     id="path95" />
  <path
     clip-path="url(#clip130)"
     d="M2421.41 143.653 L2429.96 143.653 L2429.96 153.942 L2421.41 153.942 L2421.41 143.653 Z"
     fill="#000000"
     fill-rule="nonzero"
     fill-opacity="1"
     id="path96" />
  <path
     clip-path="url(#clip130)"
     d="M2454.83 147.056 L2483.39 147.056 L2483.39 153.942 L2444.98 153.942 L2444.98 147.056 Q2449.64 142.235 2457.66 134.133 Q2465.72 125.991 2467.79 123.641 Q2471.72 119.226 2473.26 116.188 Q2474.84 113.109 2474.84 110.152 Q2474.84 105.331 2471.44 102.293 Q2468.07 99.255 2462.65 99.255 Q2458.8 99.255 2454.5 100.592 Q2450.25 101.929 2445.39 104.643 L2445.39 96.3789 Q2450.33 94.3939 2454.63 93.3812 Q2458.92 92.3685 2462.48 92.3685 Q2471.88 92.3685 2477.47 97.0675 Q2483.06 101.767 2483.06 109.625 Q2483.06 113.352 2481.64 116.714 Q2480.27 120.036 2476.58 124.573 Q2475.57 125.748 2470.14 131.379 Q2464.71 136.969 2454.83 147.056 Z"
     fill="#000000"
     fill-rule="nonzero"
     fill-opacity="1"
     id="path97" />
  <path
     clip-path="url(#clip130)"
     d="M2500.64 93.4622 L2532.77 93.4622 L2532.77 100.349 L2508.14 100.349 L2508.14 115.175 Q2509.92 114.567 2511.7 114.284 Q2513.48 113.96 2515.27 113.96 Q2525.39 113.96 2531.31 119.51 Q2537.22 125.059 2537.22 134.538 Q2537.22 144.301 2531.15 149.729 Q2525.07 155.117 2514.01 155.117 Q2510.2 155.117 2506.23 154.469 Q2502.3 153.821 2498.09 152.524 L2498.09 144.301 Q2501.74 146.286 2505.63 147.258 Q2509.51 148.23 2513.85 148.23 Q2520.86 148.23 2524.95 144.544 Q2529.04 140.858 2529.04 134.538 Q2529.04 128.219 2524.95 124.533 Q2520.86 120.846 2513.85 120.846 Q2510.57 120.846 2507.29 121.576 Q2504.05 122.305 2500.64 123.844 L2500.64 93.4622 Z"
     fill="#000000"
     fill-rule="nonzero"
     fill-opacity="1"
     id="path98" />
  <path
     clip-path="url(#clip130)"
     d="M2582.83 1232.83 L2592.69 1232.83 Q2588.3 1237.55 2586.12 1242.92 Q2583.94 1248.25 2583.94 1254.26 Q2583.94 1266.12 2591.21 1272.41 Q2598.43 1278.71 2612.14 1278.71 Q2625.8 1278.71 2633.06 1272.41 Q2640.29 1266.12 2640.29 1254.26 Q2640.29 1248.25 2638.11 1242.92 Q2635.93 1237.55 2631.54 1232.83 L2641.3 1232.83 Q2644.64 1237.74 2646.3 1243.25 Q2647.97 1248.71 2647.97 1254.82 Q2647.97 1270.51 2638.39 1279.54 Q2628.76 1288.57 2612.14 1288.57 Q2595.47 1288.57 2585.89 1279.54 Q2576.26 1270.51 2576.26 1254.82 Q2576.26 1248.62 2577.93 1243.15 Q2579.55 1237.64 2582.83 1232.83 Z"
     fill="#000000"
     fill-rule="nonzero"
     fill-opacity="1"
     id="path99" />
  <path
     clip-path="url(#clip130)"
     d="M2600.75 1198.66 Q2600.75 1205.52 2606.12 1209.5 Q2611.44 1213.48 2620.75 1213.48 Q2630.05 1213.48 2635.43 1209.54 Q2640.75 1205.56 2640.75 1198.66 Q2640.75 1191.86 2635.38 1187.88 Q2630.01 1183.89 2620.75 1183.89 Q2611.54 1183.89 2606.17 1187.88 Q2600.75 1191.86 2600.75 1198.66 M2593.53 1198.66 Q2593.53 1187.55 2600.75 1181.21 Q2607.97 1174.87 2620.75 1174.87 Q2633.48 1174.87 2640.75 1181.21 Q2647.97 1187.55 2647.97 1198.66 Q2647.97 1209.82 2640.75 1216.16 Q2633.48 1222.46 2620.75 1222.46 Q2607.97 1222.46 2600.75 1216.16 Q2593.53 1209.82 2593.53 1198.66 Z"
     fill="#000000"
     fill-rule="nonzero"
     fill-opacity="1"
     id="path100" />
  <path
     clip-path="url(#clip130)"
     d="M2604.73 1120.38 Q2598.99 1117.18 2596.26 1112.74 Q2593.53 1108.29 2593.53 1102.27 Q2593.53 1094.17 2599.22 1089.77 Q2604.87 1085.38 2615.33 1085.38 L2646.63 1085.38 L2646.63 1093.94 L2615.61 1093.94 Q2608.16 1093.94 2604.55 1096.58 Q2600.93 1099.22 2600.93 1104.64 Q2600.93 1111.26 2605.33 1115.1 Q2609.73 1118.94 2617.32 1118.94 L2646.63 1118.94 L2646.63 1127.51 L2615.61 1127.51 Q2608.11 1127.51 2604.55 1130.15 Q2600.93 1132.78 2600.93 1138.29 Q2600.93 1144.82 2605.38 1148.66 Q2609.78 1152.51 2617.32 1152.51 L2646.63 1152.51 L2646.63 1161.07 L2594.78 1161.07 L2594.78 1152.51 L2602.83 1152.51 Q2598.06 1149.59 2595.8 1145.52 Q2593.53 1141.44 2593.53 1135.84 Q2593.53 1130.19 2596.4 1126.26 Q2599.27 1122.27 2604.73 1120.38 Z"
     fill="#000000"
     fill-rule="nonzero"
     fill-opacity="1"
     id="path101" />
  <path
     clip-path="url(#clip130)"
     d="M2638.85 1060.15 L2666.35 1060.15 L2666.35 1068.71 L2594.78 1068.71 L2594.78 1060.15 L2602.65 1060.15 Q2598.02 1057.46 2595.8 1053.39 Q2593.53 1049.27 2593.53 1043.57 Q2593.53 1034.13 2601.03 1028.25 Q2608.53 1022.32 2620.75 1022.32 Q2632.97 1022.32 2640.47 1028.25 Q2647.97 1034.13 2647.97 1043.57 Q2647.97 1049.27 2645.75 1053.39 Q2643.48 1057.46 2638.85 1060.15 M2620.75 1031.16 Q2611.35 1031.16 2606.03 1035.05 Q2600.66 1038.9 2600.66 1045.65 Q2600.66 1052.41 2606.03 1056.3 Q2611.35 1060.15 2620.75 1060.15 Q2630.15 1060.15 2635.52 1056.3 Q2640.84 1052.41 2640.84 1045.65 Q2640.84 1038.9 2635.52 1035.05 Q2630.15 1031.16 2620.75 1031.16 Z"
     fill="#000000"
     fill-rule="nonzero"
     fill-opacity="1"
     id="path102" />
  <path
     clip-path="url(#clip130)"
     d="M2626.17 1009.08 L2594.78 1009.08 L2594.78 1000.56 L2625.84 1000.56 Q2633.2 1000.56 2636.91 997.692 Q2640.56 994.822 2640.56 989.081 Q2640.56 982.183 2636.17 978.201 Q2631.77 974.174 2624.18 974.174 L2594.78 974.174 L2594.78 965.655 L2646.63 965.655 L2646.63 974.174 L2638.67 974.174 Q2643.39 977.276 2645.7 981.396 Q2647.97 985.47 2647.97 990.887 Q2647.97 999.822 2642.42 1004.45 Q2636.86 1009.08 2626.17 1009.08 M2593.53 987.646 L2593.53 987.646 Z"
     fill="#000000"
     fill-rule="nonzero"
     fill-opacity="1"
     id="path103" />
  <path
     clip-path="url(#clip130)"
     d="M2580.06 939.683 L2594.78 939.683 L2594.78 922.137 L2601.4 922.137 L2601.4 939.683 L2629.55 939.683 Q2635.89 939.683 2637.69 937.97 Q2639.5 936.211 2639.5 930.887 L2639.5 922.137 L2646.63 922.137 L2646.63 930.887 Q2646.63 940.748 2642.97 944.498 Q2639.27 948.248 2629.55 948.248 L2601.4 948.248 L2601.4 954.498 L2594.78 954.498 L2594.78 948.248 L2580.06 948.248 L2580.06 939.683 Z"
     fill="#000000"
     fill-rule="nonzero"
     fill-opacity="1"
     id="path104" />
  <path
     clip-path="url(#clip130)"
     d="M2620.56 887.369 Q2620.56 897.693 2622.93 901.674 Q2625.29 905.656 2630.98 905.656 Q2635.52 905.656 2638.2 902.693 Q2640.84 899.683 2640.84 894.545 Q2640.84 887.461 2635.84 883.202 Q2630.8 878.896 2622.46 878.896 L2620.56 878.896 L2620.56 887.369 M2617.05 870.378 L2646.63 870.378 L2646.63 878.896 L2638.76 878.896 Q2643.48 881.813 2645.75 886.165 Q2647.97 890.517 2647.97 896.813 Q2647.97 904.776 2643.53 909.498 Q2639.04 914.174 2631.54 914.174 Q2622.79 914.174 2618.34 908.341 Q2613.9 902.461 2613.9 890.841 L2613.9 878.896 L2613.06 878.896 Q2607.18 878.896 2603.99 882.785 Q2600.75 886.628 2600.75 893.619 Q2600.75 898.063 2601.81 902.276 Q2602.88 906.489 2605.01 910.378 L2597.14 910.378 Q2595.33 905.702 2594.45 901.304 Q2593.53 896.906 2593.53 892.739 Q2593.53 881.489 2599.36 875.934 Q2605.19 870.378 2617.05 870.378 Z"
     fill="#000000"
     fill-rule="nonzero"
     fill-opacity="1"
     id="path105" />
  <path
     clip-path="url(#clip130)"
     d="M2580.06 844.406 L2594.78 844.406 L2594.78 826.86 L2601.4 826.86 L2601.4 844.406 L2629.55 844.406 Q2635.89 844.406 2637.69 842.693 Q2639.5 840.934 2639.5 835.61 L2639.5 826.86 L2646.63 826.86 L2646.63 835.61 Q2646.63 845.471 2642.97 849.221 Q2639.27 852.971 2629.55 852.971 L2601.4 852.971 L2601.4 859.221 L2594.78 859.221 L2594.78 852.971 L2580.06 852.971 L2580.06 844.406 Z"
     fill="#000000"
     fill-rule="nonzero"
     fill-opacity="1"
     id="path106" />
  <path
     clip-path="url(#clip130)"
     d="M2594.78 815.656 L2594.78 807.138 L2646.63 807.138 L2646.63 815.656 L2594.78 815.656 M2574.59 815.656 L2574.59 807.138 L2585.38 807.138 L2585.38 815.656 L2574.59 815.656 Z"
     fill="#000000"
     fill-rule="nonzero"
     fill-opacity="1"
     id="path107" />
  <path
     clip-path="url(#clip130)"
     d="M2600.75 769.221 Q2600.75 776.073 2606.12 780.054 Q2611.44 784.036 2620.75 784.036 Q2630.05 784.036 2635.43 780.101 Q2640.75 776.119 2640.75 769.221 Q2640.75 762.416 2635.38 758.434 Q2630.01 754.453 2620.75 754.453 Q2611.54 754.453 2606.17 758.434 Q2600.75 762.416 2600.75 769.221 M2593.53 769.221 Q2593.53 758.11 2600.75 751.768 Q2607.97 745.425 2620.75 745.425 Q2633.48 745.425 2640.75 751.768 Q2647.97 758.11 2647.97 769.221 Q2647.97 780.378 2640.75 786.721 Q2633.48 793.017 2620.75 793.017 Q2607.97 793.017 2600.75 786.721 Q2593.53 780.378 2593.53 769.221 Z"
     fill="#000000"
     fill-rule="nonzero"
     fill-opacity="1"
     id="path108" />
  <path
     clip-path="url(#clip130)"
     d="M2615.33 688.203 L2646.63 688.203 L2646.63 696.722 L2615.61 696.722 Q2608.25 696.722 2604.59 699.592 Q2600.93 702.462 2600.93 708.203 Q2600.93 715.101 2605.33 719.083 Q2609.73 723.064 2617.32 723.064 L2646.63 723.064 L2646.63 731.629 L2594.78 731.629 L2594.78 723.064 L2602.83 723.064 Q2598.16 720.008 2595.84 715.888 Q2593.53 711.721 2593.53 706.305 Q2593.53 697.37 2599.08 692.786 Q2604.59 688.203 2615.33 688.203 Z"
     fill="#000000"
     fill-rule="nonzero"
     fill-opacity="1"
     id="path109" />
  <path
     clip-path="url(#clip130)"
     d="M2620.56 647.648 Q2620.56 657.972 2622.93 661.953 Q2625.29 665.935 2630.98 665.935 Q2635.52 665.935 2638.2 662.972 Q2640.84 659.962 2640.84 654.824 Q2640.84 647.74 2635.84 643.481 Q2630.8 639.176 2622.46 639.176 L2620.56 639.176 L2620.56 647.648 M2617.05 630.657 L2646.63 630.657 L2646.63 639.176 L2638.76 639.176 Q2643.48 642.092 2645.75 646.444 Q2647.97 650.796 2647.97 657.092 Q2647.97 665.055 2643.53 669.777 Q2639.04 674.453 2631.54 674.453 Q2622.79 674.453 2618.34 668.62 Q2613.9 662.74 2613.9 651.12 L2613.9 639.176 L2613.06 639.176 Q2607.18 639.176 2603.99 643.064 Q2600.75 646.907 2600.75 653.898 Q2600.75 658.342 2601.81 662.555 Q2602.88 666.768 2605.01 670.657 L2597.14 670.657 Q2595.33 665.981 2594.45 661.583 Q2593.53 657.185 2593.53 653.018 Q2593.53 641.768 2599.36 636.213 Q2605.19 630.657 2617.05 630.657 Z"
     fill="#000000"
     fill-rule="nonzero"
     fill-opacity="1"
     id="path110" />
  <path
     clip-path="url(#clip130)"
     d="M2574.59 613.111 L2574.59 604.592 L2646.63 604.592 L2646.63 613.111 L2574.59 613.111 Z"
     fill="#000000"
     fill-rule="nonzero"
     fill-opacity="1"
     id="path111" />
  <path
     clip-path="url(#clip130)"
     d="M2580.06 548.204 L2594.78 548.204 L2594.78 530.658 L2601.4 530.658 L2601.4 548.204 L2629.55 548.204 Q2635.89 548.204 2637.69 546.491 Q2639.5 544.732 2639.5 539.408 L2639.5 530.658 L2646.63 530.658 L2646.63 539.408 Q2646.63 549.269 2642.97 553.019 Q2639.27 556.769 2629.55 556.769 L2601.4 556.769 L2601.4 563.019 L2594.78 563.019 L2594.78 556.769 L2580.06 556.769 L2580.06 548.204 Z"
     fill="#000000"
     fill-rule="nonzero"
     fill-opacity="1"
     id="path112" />
  <path
     clip-path="url(#clip130)"
     d="M2594.78 519.454 L2594.78 510.935 L2646.63 510.935 L2646.63 519.454 L2594.78 519.454 M2574.59 519.454 L2574.59 510.935 L2585.38 510.935 L2585.38 519.454 L2574.59 519.454 Z"
     fill="#000000"
     fill-rule="nonzero"
     fill-opacity="1"
     id="path113" />
  <path
     clip-path="url(#clip130)"
     d="M2604.73 452.741 Q2598.99 449.547 2596.26 445.102 Q2593.53 440.658 2593.53 434.64 Q2593.53 426.538 2599.22 422.14 Q2604.87 417.742 2615.33 417.742 L2646.63 417.742 L2646.63 426.306 L2615.61 426.306 Q2608.16 426.306 2604.55 428.945 Q2600.93 431.584 2600.93 437.001 Q2600.93 443.621 2605.33 447.464 Q2609.73 451.306 2617.32 451.306 L2646.63 451.306 L2646.63 459.871 L2615.61 459.871 Q2608.11 459.871 2604.55 462.51 Q2600.93 465.149 2600.93 470.658 Q2600.93 477.186 2605.38 481.028 Q2609.78 484.871 2617.32 484.871 L2646.63 484.871 L2646.63 493.436 L2594.78 493.436 L2594.78 484.871 L2602.83 484.871 Q2598.06 481.954 2595.8 477.88 Q2593.53 473.806 2593.53 468.204 Q2593.53 462.556 2596.4 458.621 Q2599.27 454.639 2604.73 452.741 Z"
     fill="#000000"
     fill-rule="nonzero"
     fill-opacity="1"
     id="path114" />
  <path
     clip-path="url(#clip130)"
     d="M2618.57 356.399 L2622.74 356.399 L2622.74 395.566 Q2631.54 395.01 2636.17 390.288 Q2640.75 385.519 2640.75 377.047 Q2640.75 372.14 2639.55 367.557 Q2638.34 362.927 2635.93 358.39 L2643.99 358.39 Q2645.93 362.973 2646.95 367.788 Q2647.97 372.603 2647.97 377.557 Q2647.97 389.964 2640.75 397.232 Q2633.53 404.455 2621.21 404.455 Q2608.48 404.455 2601.03 397.603 Q2593.53 390.705 2593.53 379.038 Q2593.53 368.575 2600.29 362.51 Q2607 356.399 2618.57 356.399 M2616.07 364.918 Q2609.08 365.01 2604.92 368.853 Q2600.75 372.649 2600.75 378.945 Q2600.75 386.075 2604.78 390.381 Q2608.8 394.64 2616.12 395.288 L2616.07 364.918 Z"
     fill="#000000"
     fill-rule="nonzero"
     fill-opacity="1"
     id="path115" />
  <path
     clip-path="url(#clip130)"
     d="M2678.36 1209.91 Q2689.01 1216.12 2699.43 1219.13 Q2709.85 1222.14 2720.54 1222.14 Q2731.23 1222.14 2741.74 1219.13 Q2752.21 1216.07 2762.81 1209.91 L2762.81 1217.32 Q2751.93 1224.26 2741.42 1227.74 Q2730.91 1231.16 2720.54 1231.16 Q2710.22 1231.16 2699.75 1227.74 Q2689.29 1224.31 2678.36 1217.32 L2678.36 1209.91 Z"
     fill="#000000"
     fill-rule="nonzero"
     fill-opacity="1"
     id="path116" />
  <path
     clip-path="url(#clip130)"
     d="M2683.46 1151.58 L2692.58 1151.58 Q2690.03 1156.9 2688.78 1161.63 Q2687.53 1166.35 2687.53 1170.75 Q2687.53 1178.39 2690.49 1182.55 Q2693.46 1186.67 2698.92 1186.67 Q2703.5 1186.67 2705.86 1183.94 Q2708.18 1181.16 2709.61 1173.48 L2710.77 1167.83 Q2712.76 1157.37 2717.81 1152.41 Q2722.81 1147.41 2731.23 1147.41 Q2741.28 1147.41 2746.47 1154.17 Q2751.65 1160.89 2751.65 1173.89 Q2751.65 1178.8 2750.54 1184.36 Q2749.43 1189.87 2747.25 1195.79 L2737.62 1195.79 Q2740.82 1190.1 2742.44 1184.64 Q2744.06 1179.17 2744.06 1173.89 Q2744.06 1165.89 2740.91 1161.53 Q2737.76 1157.18 2731.93 1157.18 Q2726.84 1157.18 2723.97 1160.33 Q2721.1 1163.43 2719.66 1170.56 L2718.55 1176.26 Q2716.47 1186.72 2712.02 1191.39 Q2707.58 1196.07 2699.66 1196.07 Q2690.49 1196.07 2685.22 1189.64 Q2679.94 1183.15 2679.94 1171.81 Q2679.94 1166.95 2680.82 1161.9 Q2681.7 1156.86 2683.46 1151.58 Z"
     fill="#000000"
     fill-rule="nonzero"
     fill-opacity="1"
     id="path117" />
  <path
     clip-path="url(#clip130)"
     d="M2681.19 1132.83 L2681.19 1123.48 L2750.31 1123.48 L2750.31 1132.83 L2681.19 1132.83 Z"
     fill="#000000"
     fill-rule="nonzero"
     fill-opacity="1"
     id="path118" />
  <path
     clip-path="url(#clip130)"
     d="M2681.19 1104.87 L2681.19 1092.27 L2739.01 1061.63 L2681.19 1061.63 L2681.19 1052.55 L2750.31 1052.55 L2750.31 1065.15 L2692.49 1095.79 L2750.31 1095.79 L2750.31 1104.87 L2681.19 1104.87 Z"
     fill="#000000"
     fill-rule="nonzero"
     fill-opacity="1"
     id="path119" />
  <path
     clip-path="url(#clip130)"
     d="M2688.87 1024.59 L2742.62 1024.59 L2742.62 1013.29 Q2742.62 998.988 2736.14 992.368 Q2729.66 985.701 2715.68 985.701 Q2701.79 985.701 2695.36 992.368 Q2688.87 998.988 2688.87 1013.29 L2688.87 1024.59 M2681.19 1033.94 L2681.19 1014.73 Q2681.19 994.637 2689.57 985.238 Q2697.9 975.84 2715.68 975.84 Q2733.55 975.84 2741.93 985.285 Q2750.31 994.729 2750.31 1014.73 L2750.31 1033.94 L2681.19 1033.94 Z"
     fill="#000000"
     fill-rule="nonzero"
     fill-opacity="1"
     id="path120" />
  <path
     clip-path="url(#clip130)"
     d="M2755.12 939.729 Q2764.38 943.341 2767.21 946.766 Q2770.03 950.192 2770.03 955.933 L2770.03 962.739 L2762.9 962.739 L2762.9 957.739 Q2762.9 954.22 2761.23 952.276 Q2759.57 950.331 2753.36 947.97 L2749.48 946.442 L2698.46 967.415 L2698.46 958.387 L2739.01 942.183 L2698.46 925.98 L2698.46 916.952 L2755.12 939.729 Z"
     fill="#000000"
     fill-rule="nonzero"
     fill-opacity="1"
     id="path121" />
  <path
     clip-path="url(#clip130)"
     d="M2681.19 859.915 L2681.19 852.045 L2759.11 876.119 L2759.11 883.989 L2681.19 859.915 Z"
     fill="#000000"
     fill-rule="nonzero"
     fill-opacity="1"
     id="path122" />
  <path
     clip-path="url(#clip130)"
     d="M2706.42 782.925 Q2705.59 784.36 2705.22 786.073 Q2704.8 787.74 2704.8 789.777 Q2704.8 796.999 2709.52 800.888 Q2714.2 804.73 2722.99 804.73 L2750.31 804.73 L2750.31 813.295 L2698.46 813.295 L2698.46 804.73 L2706.51 804.73 Q2701.79 802.045 2699.52 797.739 Q2697.21 793.434 2697.21 787.277 Q2697.21 786.397 2697.35 785.332 Q2697.44 784.267 2697.67 782.971 L2706.42 782.925 Z"
     fill="#000000"
     fill-rule="nonzero"
     fill-opacity="1"
     id="path123" />
  <path
     clip-path="url(#clip130)"
     d="M2722.25 731.721 L2726.42 731.721 L2726.42 770.888 Q2735.22 770.332 2739.85 765.61 Q2744.43 760.842 2744.43 752.369 Q2744.43 747.462 2743.23 742.879 Q2742.02 738.249 2739.61 733.712 L2747.67 733.712 Q2749.61 738.295 2750.63 743.11 Q2751.65 747.925 2751.65 752.879 Q2751.65 765.286 2744.43 772.554 Q2737.21 779.777 2724.89 779.777 Q2712.16 779.777 2704.71 772.925 Q2697.21 766.027 2697.21 754.36 Q2697.21 743.897 2703.97 737.832 Q2710.68 731.721 2722.25 731.721 M2719.75 740.24 Q2712.76 740.332 2708.6 744.175 Q2704.43 747.971 2704.43 754.268 Q2704.43 761.397 2708.46 765.703 Q2712.48 769.962 2719.8 770.61 L2719.75 740.24 Z"
     fill="#000000"
     fill-rule="nonzero"
     fill-opacity="1"
     id="path124" />
  <path
     clip-path="url(#clip130)"
     d="M2678.27 691.49 L2685.36 691.49 L2685.36 699.638 Q2685.36 704.221 2687.21 706.027 Q2689.06 707.786 2693.87 707.786 L2698.46 707.786 L2698.46 693.759 L2705.08 693.759 L2705.08 707.786 L2750.31 707.786 L2750.31 716.351 L2705.08 716.351 L2705.08 724.499 L2698.46 724.499 L2698.46 716.351 L2694.85 716.351 Q2686.19 716.351 2682.25 712.323 Q2678.27 708.296 2678.27 699.546 L2678.27 691.49 Z"
     fill="#000000"
     fill-rule="nonzero"
     fill-opacity="1"
     id="path125" />
  <path
     clip-path="url(#clip130)"
     d="M2722.25 640.009 L2726.42 640.009 L2726.42 679.175 Q2735.22 678.62 2739.85 673.898 Q2744.43 669.129 2744.43 660.657 Q2744.43 655.75 2743.23 651.166 Q2742.02 646.537 2739.61 642 L2747.67 642 Q2749.61 646.583 2750.63 651.398 Q2751.65 656.212 2751.65 661.166 Q2751.65 673.573 2744.43 680.842 Q2737.21 688.064 2724.89 688.064 Q2712.16 688.064 2704.71 681.212 Q2697.21 674.314 2697.21 662.648 Q2697.21 652.185 2703.97 646.12 Q2710.68 640.009 2722.25 640.009 M2719.75 648.527 Q2712.76 648.62 2708.6 652.462 Q2704.43 656.259 2704.43 662.555 Q2704.43 669.685 2708.46 673.99 Q2712.48 678.249 2719.8 678.898 L2719.75 648.527 Z"
     fill="#000000"
     fill-rule="nonzero"
     fill-opacity="1"
     id="path126" />
  <path
     clip-path="url(#clip130)"
     d="M2706.42 595.981 Q2705.59 597.416 2705.22 599.129 Q2704.8 600.796 2704.8 602.833 Q2704.8 610.055 2709.52 613.944 Q2714.2 617.787 2722.99 617.787 L2750.31 617.787 L2750.31 626.352 L2698.46 626.352 L2698.46 617.787 L2706.51 617.787 Q2701.79 615.102 2699.52 610.796 Q2697.21 606.491 2697.21 600.333 Q2697.21 599.454 2697.35 598.389 Q2697.44 597.324 2697.67 596.028 L2706.42 595.981 Z"
     fill="#000000"
     fill-rule="nonzero"
     fill-opacity="1"
     id="path127" />
  <path
     clip-path="url(#clip130)"
     d="M2722.25 544.778 L2726.42 544.778 L2726.42 583.944 Q2735.22 583.389 2739.85 578.667 Q2744.43 573.898 2744.43 565.426 Q2744.43 560.519 2743.23 555.935 Q2742.02 551.306 2739.61 546.769 L2747.67 546.769 Q2749.61 551.352 2750.63 556.167 Q2751.65 560.982 2751.65 565.935 Q2751.65 578.343 2744.43 585.611 Q2737.21 592.833 2724.89 592.833 Q2712.16 592.833 2704.71 585.981 Q2697.21 579.083 2697.21 567.417 Q2697.21 556.954 2703.97 550.889 Q2710.68 544.778 2722.25 544.778 M2719.75 553.296 Q2712.76 553.389 2708.6 557.232 Q2704.43 561.028 2704.43 567.324 Q2704.43 574.454 2708.46 578.759 Q2712.48 583.018 2719.8 583.667 L2719.75 553.296 Z"
     fill="#000000"
     fill-rule="nonzero"
     fill-opacity="1"
     id="path128" />
  <path
     clip-path="url(#clip130)"
     d="M2719.01 487.695 L2750.31 487.695 L2750.31 496.213 L2719.29 496.213 Q2711.93 496.213 2708.27 499.084 Q2704.61 501.954 2704.61 507.695 Q2704.61 514.593 2709.01 518.574 Q2713.41 522.556 2721 522.556 L2750.31 522.556 L2750.31 531.121 L2698.46 531.121 L2698.46 522.556 L2706.51 522.556 Q2701.84 519.5 2699.52 515.38 Q2697.21 511.213 2697.21 505.797 Q2697.21 496.861 2702.76 492.278 Q2708.27 487.695 2719.01 487.695 Z"
     fill="#000000"
     fill-rule="nonzero"
     fill-opacity="1"
     id="path129" />
  <path
     clip-path="url(#clip130)"
     d="M2700.45 433.39 L2708.41 433.39 Q2706.42 437.001 2705.45 440.658 Q2704.43 444.269 2704.43 447.973 Q2704.43 456.26 2709.71 460.843 Q2714.94 465.426 2724.43 465.426 Q2733.92 465.426 2739.2 460.843 Q2744.43 456.26 2744.43 447.973 Q2744.43 444.269 2743.46 440.658 Q2742.44 437.001 2740.45 433.39 L2748.32 433.39 Q2749.98 436.954 2750.82 440.797 Q2751.65 444.593 2751.65 448.899 Q2751.65 460.612 2744.29 467.51 Q2736.93 474.408 2724.43 474.408 Q2711.74 474.408 2704.48 467.463 Q2697.21 460.473 2697.21 448.343 Q2697.21 444.408 2698.04 440.658 Q2698.83 436.908 2700.45 433.39 Z"
     fill="#000000"
     fill-rule="nonzero"
     fill-opacity="1"
     id="path130" />
  <path
     clip-path="url(#clip130)"
     d="M2722.25 374.223 L2726.42 374.223 L2726.42 413.39 Q2735.22 412.834 2739.85 408.112 Q2744.43 403.343 2744.43 394.871 Q2744.43 389.964 2743.23 385.381 Q2742.02 380.751 2739.61 376.214 L2747.67 376.214 Q2749.61 380.797 2750.63 385.612 Q2751.65 390.427 2751.65 395.381 Q2751.65 407.788 2744.43 415.056 Q2737.21 422.279 2724.89 422.279 Q2712.16 422.279 2704.71 415.427 Q2697.21 408.529 2697.21 396.862 Q2697.21 386.399 2703.97 380.334 Q2710.68 374.223 2722.25 374.223 M2719.75 382.742 Q2712.76 382.834 2708.6 386.677 Q2704.43 390.473 2704.43 396.769 Q2704.43 403.899 2708.46 408.205 Q2712.48 412.464 2719.8 413.112 L2719.75 382.742 Z"
     fill="#000000"
     fill-rule="nonzero"
     fill-opacity="1"
     id="path131" />
  <path
     clip-path="url(#clip130)"
     d="M2678.36 361.584 L2678.36 354.177 Q2689.29 347.233 2699.75 343.807 Q2710.22 340.335 2720.54 340.335 Q2730.91 340.335 2741.42 343.807 Q2751.93 347.233 2762.81 354.177 L2762.81 361.584 Q2752.21 355.427 2741.74 352.418 Q2731.23 349.362 2720.54 349.362 Q2709.85 349.362 2699.43 352.418 Q2689.01 355.427 2678.36 361.584 Z"
     fill="#000000"
     fill-rule="nonzero"
     fill-opacity="1"
     id="path132" />
  <polyline
     clip-path="url(#clip132)"
     style="stroke:#ff0000; stroke-linecap:round; stroke-linejoin:round; stroke-width:4; stroke-opacity:1; fill:none"
     points="484.956,1519.65 1079.86,1343.5 1674.77,1140.19 2269.68,90.1298 "
     id="polyline132" />
  <circle
     clip-path="url(#clip132)"
     cx="484.956"
     cy="1519.65"
     r="18"
     fill="#ff0000"
     fill-rule="evenodd"
     fill-opacity="1"
     stroke="#000000"
     stroke-opacity="1"
     stroke-width="3.6"
     id="circle132" />
  <circle
     clip-path="url(#clip132)"
     cx="1079.86"
     cy="1343.5"
     r="18"
     fill="#ff0000"
     fill-rule="evenodd"
     fill-opacity="1"
     stroke="#000000"
     stroke-opacity="1"
     stroke-width="3.6"
     id="circle133" />
  <circle
     clip-path="url(#clip132)"
     cx="1674.77"
     cy="1140.19"
     r="18"
     fill="#ff0000"
     fill-rule="evenodd"
     fill-opacity="1"
     stroke="#000000"
     stroke-opacity="1"
     stroke-width="3.6"
     id="circle134" />
  <circle
     clip-path="url(#clip132)"
     cx="2269.68"
     cy="90.1298"
     r="18"
     fill="#ff0000"
     fill-rule="evenodd"
     fill-opacity="1"
     stroke="#000000"
     stroke-opacity="1"
     stroke-width="3.6"
     id="circle135" />
  <g
     id="g1"
     transform="translate(-613.05536,27.855694)">
    <g
       id="g157"
       transform="translate(38.169426,150.20542)">
      <polyline
         clip-path="url(#clip130)"
         style="fill:none;stroke:#0000ff;stroke-width:8;stroke-linecap:round;stroke-linejoin:round;stroke-opacity:1"
         points="1159.83,201.434 1285.95,201.434 "
         id="polyline136"
         transform="translate(-24.537488,-408.95813)" />
      <circle
         clip-path="url(#clip130)"
         cx="1222.89"
         cy="201.43401"
         r="8.7583704"
         fill="#0000ff"
         fill-rule="evenodd"
         fill-opacity="1"
         stroke="#000000"
         stroke-opacity="1"
         stroke-width="8.37818"
         id="circle136"
         transform="translate(-24.537488,-408.95813)" />
      <path
         clip-path="url(#clip130)"
         d="m 1339.75,203.587 q 3.01,1.018 5.83,4.352 2.87,3.333 5.74,9.166 l 9.49,18.889 h -10.04 l -8.85,-17.731 q -3.42,-6.945 -6.66,-9.213 -3.2,-2.269 -8.75,-2.269 h -10.19 v 29.213 h -9.35 v -69.12 h 21.11 q 11.85,0 17.69,4.954 5.83,4.953 5.83,14.953 0,6.528 -3.06,10.834 -3.01,4.305 -8.79,5.972 m -23.43,-29.028 v 24.537 h 11.76 q 6.76,0 10.19,-3.102 3.47,-3.148 3.47,-9.213 0,-6.065 -3.47,-9.12 -3.43,-3.102 -10.19,-3.102 z"
         fill="#000000"
         fill-rule="nonzero"
         fill-opacity="1"
         id="path136"
         transform="translate(-24.537488,-408.95813)" />
      <path
         clip-path="url(#clip130)"
         d="m 1372.85,166.874 h 13.93 l 17.64,47.037 17.73,-47.037 h 13.94 v 69.12 h -9.12 V 175.3 l -17.82,47.407 h -9.4 L 1381.92,175.3 v 60.694 h -9.07 z"
         fill="#000000"
         fill-rule="nonzero"
         fill-opacity="1"
         id="path137"
         transform="translate(-24.537488,-408.95813)" />
      <path
         clip-path="url(#clip130)"
         d="m 1496.09,169.142 v 9.121 q -5.32,-2.546 -10.05,-3.796 -4.72,-1.25 -9.12,-1.25 -7.64,0 -11.8,2.962 -4.12,2.963 -4.12,8.426 0,4.584 2.73,6.945 2.78,2.315 10.46,3.75 l 5.65,1.157 q 10.46,1.991 15.42,7.037 5,5 5,13.426 0,10.046 -6.76,15.231 -6.72,5.186 -19.73,5.186 -4.9,0 -10.46,-1.112 -5.51,-1.111 -11.43,-3.287 v -9.629 q 5.69,3.194 11.15,4.815 5.47,1.62 10.74,1.62 8.01,0 12.37,-3.148 4.35,-3.148 4.35,-8.982 0,-5.092 -3.15,-7.962 -3.1,-2.871 -10.23,-4.306 l -5.7,-1.111 q -10.46,-2.083 -15.13,-6.528 -4.68,-4.444 -4.68,-12.361 0,-9.167 6.43,-14.444 6.49,-5.278 17.83,-5.278 4.86,0 9.91,0.88 5.04,0.879 10.32,2.638 z"
         fill="#000000"
         fill-rule="nonzero"
         fill-opacity="1"
         id="path138"
         transform="translate(-24.537488,-408.95813)" />
      <path
         clip-path="url(#clip130)"
         d="m 1514.84,166.874 h 43.7 v 7.87 h -34.35 v 20.463 h 32.92 v 7.87 h -32.92 v 25.047 h 35.19 v 7.87 h -44.54 z"
         fill="#000000"
         fill-rule="nonzero"
         fill-opacity="1"
         id="path139"
         transform="translate(-24.537488,-408.95813)" />
    </g>
    <g
       id="g156"
       transform="translate(38.169426,141.77215)">
      <polyline
         clip-path="url(#clip130)"
         style="fill:none;stroke:#ff0000;stroke-width:8;stroke-linecap:round;stroke-linejoin:round;stroke-opacity:1"
         points="1159.83,305.114 1285.95,305.114 "
         id="polyline139"
         transform="translate(512.56086,-512.56086)" />
      <circle
         clip-path="url(#clip130)"
         cx="1222.89"
         cy="305.11401"
         r="8.7583704"
         fill="#ff0000"
         fill-rule="evenodd"
         fill-opacity="1"
         stroke="#000000"
         stroke-opacity="1"
         stroke-width="8.37818"
         id="circle139"
         transform="translate(512.56086,-512.56086)" />
      <path
         clip-path="url(#clip130)"
         d="m 1362.71,275.878 v 9.861 q -4.72,-4.398 -10.09,-6.574 -5.33,-2.176 -11.34,-2.176 -11.86,0 -18.15,7.269 -6.3,7.222 -6.3,20.925 0,13.658 6.3,20.926 6.29,7.222 18.15,7.222 6.01,0 11.34,-2.176 5.37,-2.175 10.09,-6.574 v 9.769 q -4.91,3.333 -10.42,5 -5.46,1.667 -11.57,1.667 -15.69,0 -24.72,-9.584 -9.03,-9.629 -9.03,-26.25 0,-16.666 9.03,-26.249 9.03,-9.63 24.72,-9.63 6.2,0 11.67,1.667 5.51,1.62 10.32,4.907 z"
         fill="#000000"
         fill-rule="nonzero"
         fill-opacity="1"
         id="path140"
         transform="translate(512.56086,-512.56086)" />
      <path
         clip-path="url(#clip130)"
         d="m 1396.88,293.795 q -6.85,0 -10.84,5.37 -3.98,5.324 -3.98,14.629 0,9.306 3.94,14.676 3.98,5.324 10.88,5.324 6.8,0 10.78,-5.37 3.99,-5.37 3.99,-14.63 0,-9.212 -3.99,-14.583 -3.98,-5.416 -10.78,-5.416 m 0,-7.223 q 11.11,0 17.45,7.223 6.34,7.222 6.34,19.999 0,12.732 -6.34,20 -6.34,7.223 -17.45,7.223 -11.16,0 -17.5,-7.223 -6.3,-7.268 -6.3,-20 0,-12.777 6.3,-19.999 6.34,-7.223 17.5,-7.223 z"
         fill="#000000"
         fill-rule="nonzero"
         fill-opacity="1"
         id="path141"
         transform="translate(512.56086,-512.56086)" />
      <path
         clip-path="url(#clip130)"
         d="m 1475.16,297.776 q 3.2,-5.741 7.64,-8.472 4.45,-2.732 10.47,-2.732 8.1,0 12.5,5.695 4.39,5.648 4.39,16.111 v 31.296 h -8.56 v -31.018 q 0,-7.454 -2.64,-11.065 -2.64,-3.611 -8.06,-3.611 -6.62,0 -10.46,4.398 -3.84,4.398 -3.84,11.991 v 29.305 h -8.57 v -31.018 q 0,-7.5 -2.63,-11.065 -2.64,-3.611 -8.15,-3.611 -6.53,0 -10.37,4.444 -3.85,4.398 -3.85,11.945 v 29.305 h -8.56 v -51.852 h 8.56 v 8.056 q 2.92,-4.769 7,-7.037 4.07,-2.269 9.67,-2.269 5.65,0 9.58,2.871 3.99,2.87 5.88,8.333 z"
         fill="#000000"
         fill-rule="nonzero"
         fill-opacity="1"
         id="path142"
         transform="translate(512.56086,-512.56086)" />
      <path
         clip-path="url(#clip130)"
         d="m 1535.4,331.896 v 27.5 h -8.57 v -71.574 h 8.57 v 7.871 q 2.68,-4.63 6.75,-6.852 4.12,-2.269 9.82,-2.269 9.44,0 15.32,7.5 5.93,7.5 5.93,19.722 0,12.223 -5.93,19.723 -5.88,7.5 -15.32,7.5 -5.7,0 -9.82,-2.223 -4.07,-2.268 -6.75,-6.898 m 28.98,-18.102 q 0,-9.398 -3.89,-14.722 -3.85,-5.37 -10.6,-5.37 -6.76,0 -10.65,5.37 -3.84,5.324 -3.84,14.722 0,9.399 3.84,14.769 3.89,5.324 10.65,5.324 6.75,0 10.6,-5.324 3.89,-5.37 3.89,-14.769 z"
         fill="#000000"
         fill-rule="nonzero"
         fill-opacity="1"
         id="path143"
         transform="translate(512.56086,-512.56086)" />
      <path
         clip-path="url(#clip130)"
         d="m 1586.46,319.211 v -31.389 h 8.52 v 31.065 q 0,7.361 2.87,11.065 2.87,3.657 8.61,3.657 6.9,0 10.88,-4.398 4.03,-4.398 4.03,-11.991 v -29.398 h 8.52 v 51.852 h -8.52 v -7.963 q -3.11,4.722 -7.23,7.037 -4.07,2.269 -9.49,2.269 -8.93,0 -13.56,-5.556 -4.63,-5.555 -4.63,-16.25 m 21.43,-32.639 z"
         fill="#000000"
         fill-rule="nonzero"
         fill-opacity="1"
         id="path144"
         transform="translate(512.56086,-512.56086)" />
      <path
         clip-path="url(#clip130)"
         d="m 1655.86,273.1 v 14.722 h 17.54 v 6.621 h -17.54 v 28.148 q 0,6.342 1.71,8.148 1.76,1.805 7.08,1.805 h 8.75 v 7.13 h -8.75 q -9.86,0 -13.61,-3.657 -3.75,-3.704 -3.75,-13.426 v -28.148 h -6.25 v -6.621 h 6.25 V 273.1 Z"
         fill="#000000"
         fill-rule="nonzero"
         fill-opacity="1"
         id="path145"
         transform="translate(512.56086,-512.56086)" />
      <path
         clip-path="url(#clip130)"
         d="m 1708.17,313.609 q -10.32,0 -14.3,2.361 -3.99,2.361 -3.99,8.056 0,4.537 2.97,7.222 3.01,2.639 8.15,2.639 7.08,0 11.34,-5 4.3,-5.046 4.3,-13.38 v -1.898 h -8.47 m 16.99,-3.518 v 29.583 h -8.52 v -7.87 q -2.91,4.722 -7.26,6.99 -4.36,2.223 -10.65,2.223 -7.97,0 -12.69,-4.445 -4.67,-4.491 -4.67,-11.991 0,-8.749 5.83,-13.194 5.88,-4.444 17.5,-4.444 h 11.94 v -0.834 q 0,-5.879 -3.88,-9.074 -3.85,-3.24 -10.84,-3.24 -4.44,0 -8.66,1.064 -4.21,1.065 -8.1,3.195 v -7.871 q 4.68,-1.805 9.08,-2.685 4.39,-0.926 8.56,-0.926 11.25,0 16.81,5.834 5.55,5.833 5.55,17.685 z"
         fill="#000000"
         fill-rule="nonzero"
         fill-opacity="1"
         id="path146"
         transform="translate(512.56086,-512.56086)" />
      <path
         clip-path="url(#clip130)"
         d="m 1751.13,273.1 v 14.722 h 17.55 v 6.621 h -17.55 v 28.148 q 0,6.342 1.72,8.148 1.76,1.805 7.08,1.805 h 8.75 v 7.13 h -8.75 q -9.86,0 -13.61,-3.657 -3.75,-3.704 -3.75,-13.426 v -28.148 h -6.25 v -6.621 h 6.25 V 273.1 Z"
         fill="#000000"
         fill-rule="nonzero"
         fill-opacity="1"
         id="path147"
         transform="translate(512.56086,-512.56086)" />
      <path
         clip-path="url(#clip130)"
         d="m 1779.88,287.822 h 8.52 v 51.852 h -8.52 v -51.852 m 0,-20.185 h 8.52 v 10.787 h -8.52 z"
         fill="#000000"
         fill-rule="nonzero"
         fill-opacity="1"
         id="path148"
         transform="translate(512.56086,-512.56086)" />
      <path
         clip-path="url(#clip130)"
         d="m 1826.32,293.795 q -6.85,0 -10.83,5.37 -3.99,5.324 -3.99,14.629 0,9.306 3.94,14.676 3.98,5.324 10.88,5.324 6.8,0 10.79,-5.37 3.98,-5.37 3.98,-14.63 0,-9.212 -3.98,-14.583 -3.99,-5.416 -10.79,-5.416 m 0,-7.223 q 11.11,0 17.45,7.223 6.35,7.222 6.35,19.999 0,12.732 -6.35,20 -6.34,7.223 -17.45,7.223 -11.16,0 -17.5,-7.223 -6.3,-7.268 -6.3,-20 0,-12.777 6.3,-19.999 6.34,-7.223 17.5,-7.223 z"
         fill="#000000"
         fill-rule="nonzero"
         fill-opacity="1"
         id="path149"
         transform="translate(512.56086,-512.56086)" />
      <path
         clip-path="url(#clip130)"
         d="m 1907.34,308.378 v 31.296 h -8.52 v -31.018 q 0,-7.361 -2.87,-11.019 -2.87,-3.657 -8.61,-3.657 -6.9,0 -10.88,4.398 -3.98,4.398 -3.98,11.991 v 29.305 h -8.57 v -51.852 h 8.57 v 8.056 q 3.05,-4.676 7.17,-6.991 4.17,-2.315 9.59,-2.315 8.93,0 13.51,5.556 4.59,5.509 4.59,16.25 z"
         fill="#000000"
         fill-rule="nonzero"
         fill-opacity="1"
         id="path150"
         transform="translate(512.56086,-512.56086)" />
      <path
         clip-path="url(#clip130)"
         d="m 1947.89,313.609 q -10.32,0 -14.3,2.361 -3.98,2.361 -3.98,8.056 0,4.537 2.96,7.222 3.01,2.639 8.15,2.639 7.08,0 11.34,-5 4.3,-5.046 4.3,-13.38 v -1.898 h -8.47 m 16.99,-3.518 v 29.583 h -8.52 v -7.87 q -2.91,4.722 -7.26,6.99 -4.36,2.223 -10.65,2.223 -7.96,0 -12.69,-4.445 -4.67,-4.491 -4.67,-11.991 0,-8.749 5.83,-13.194 5.88,-4.444 17.5,-4.444 h 11.94 v -0.834 q 0,-5.879 -3.88,-9.074 -3.85,-3.24 -10.84,-3.24 -4.44,0 -8.65,1.064 -4.22,1.065 -8.11,3.195 v -7.871 q 4.68,-1.805 9.08,-2.685 4.4,-0.926 8.56,-0.926 11.25,0 16.81,5.834 5.55,5.833 5.55,17.685 z"
         fill="#000000"
         fill-rule="nonzero"
         fill-opacity="1"
         id="path151"
         transform="translate(512.56086,-512.56086)" />
      <path
         clip-path="url(#clip130)"
         d="m 1982.43,267.637 h 8.52 v 72.037 h -8.52 z"
         fill="#000000"
         fill-rule="nonzero"
         fill-opacity="1"
         id="path152"
         transform="translate(512.56086,-512.56086)" />
      <path
         clip-path="url(#clip130)"
         d="m 2047.34,273.1 v 14.722 h 17.54 v 6.621 h -17.54 v 28.148 q 0,6.342 1.71,8.148 1.76,1.805 7.08,1.805 h 8.75 v 7.13 h -8.75 q -9.86,0 -13.61,-3.657 -3.75,-3.704 -3.75,-13.426 v -28.148 h -6.25 v -6.621 h 6.25 V 273.1 Z"
         fill="#000000"
         fill-rule="nonzero"
         fill-opacity="1"
         id="path153"
         transform="translate(512.56086,-512.56086)" />
      <path
         clip-path="url(#clip130)"
         d="m 2076.09,287.822 h 8.52 v 51.852 h -8.52 v -51.852 m 0,-20.185 h 8.52 v 10.787 h -8.52 z"
         fill="#000000"
         fill-rule="nonzero"
         fill-opacity="1"
         id="path154"
         transform="translate(512.56086,-512.56086)" />
      <path
         clip-path="url(#clip130)"
         d="m 2142.8,297.776 q 3.19,-5.741 7.64,-8.472 4.44,-2.732 10.46,-2.732 8.1,0 12.5,5.695 4.4,5.648 4.4,16.111 v 31.296 h -8.57 v -31.018 q 0,-7.454 -2.63,-11.065 -2.64,-3.611 -8.06,-3.611 -6.62,0 -10.46,4.398 -3.85,4.398 -3.85,11.991 v 29.305 h -8.56 v -31.018 q 0,-7.5 -2.64,-11.065 -2.64,-3.611 -8.15,-3.611 -6.53,0 -10.37,4.444 -3.84,4.398 -3.84,11.945 v 29.305 h -8.57 v -51.852 h 8.57 v 8.056 q 2.92,-4.769 6.99,-7.037 4.07,-2.269 9.68,-2.269 5.64,0 9.58,2.871 3.98,2.87 5.88,8.333 z"
         fill="#000000"
         fill-rule="nonzero"
         fill-opacity="1"
         id="path155"
         transform="translate(512.56086,-512.56086)" />
      <path
         clip-path="url(#clip130)"
         d="m 2239.14,311.619 v 4.166 h -39.17 q 0.56,8.796 5.28,13.426 4.77,4.583 13.24,4.583 4.91,0 9.49,-1.203 4.63,-1.204 9.17,-3.611 v 8.055 q -4.58,1.945 -9.4,2.963 -4.81,1.019 -9.77,1.019 -12.4,0 -19.67,-7.223 -7.22,-7.222 -7.22,-19.537 0,-12.731 6.85,-20.185 6.9,-7.5 18.56,-7.5 10.47,0 16.53,6.76 6.11,6.713 6.11,18.287 m -8.52,-2.5 q -0.09,-6.991 -3.93,-11.158 -3.8,-4.166 -10.09,-4.166 -7.13,0 -11.44,4.027 -4.26,4.028 -4.91,11.343 z"
         fill="#000000"
         fill-rule="nonzero"
         fill-opacity="1"
         id="path156"
         transform="translate(512.56086,-512.56086)" />
    </g>
  </g>
</svg>
